M48
;GenerationSoftware,Autodesk,EAGLE,9.6.2*%
;CreationDate,2023-10-30T15:29:07Z*%
FMAT,2
ICI,OFF
METRIC,TZ,000.000
T4C0.305
T3C0.381
T2C1.016
T1C3.302
%
G90
M71
T1
X152400Y28956
X132080Y28956
X22860Y42164
X2540Y42164
X48768Y42164
X28448Y42164
X74676Y42164
X54356Y42164
X100584Y42164
X80264Y42164
X126492Y42164
X106172Y42164
X152400Y42164
X132080Y42164
X22860Y55372
X2540Y55372
X48768Y55372
X28448Y55372
X74676Y55372
X54356Y55372
X100584Y55372
X80264Y55372
X126492Y55372
X106172Y55372
X152400Y55372
X132080Y55372
X22860Y68580
X2540Y68580
X48768Y68580
X28448Y68580
X74676Y68580
X54356Y68580
X100584Y68580
X80264Y68580
X126492Y68580
X106172Y68580
X152400Y68580
X132080Y68580
X22860Y2540
X2540Y2540
X48768Y2540
X28448Y2540
X74676Y2540
X54356Y2540
X100584Y2540
X80264Y2540
X126492Y2540
X106172Y2540
X152400Y2540
X132080Y2540
X22860Y15748
X2540Y15748
X48768Y15748
X28448Y15748
X74676Y15748
X54356Y15748
X100584Y15748
X80264Y15748
X126492Y15748
X106172Y15748
X152400Y15748
X132080Y15748
X22860Y28956
X2540Y28956
X48768Y28956
X28448Y28956
X74676Y28956
X54356Y28956
X100584Y28956
X80264Y28956
X126492Y28956
X106172Y28956
T2
X148590Y27686
X6350Y40894
X8890Y40894
X11430Y40894
X13970Y40894
X16510Y40894
X19050Y40894
X32258Y40894
X34798Y40894
X37338Y40894
X39878Y40894
X42418Y40894
X44958Y40894
X58166Y40894
X60706Y40894
X63246Y40894
X65786Y40894
X68326Y40894
X70866Y40894
X84074Y40894
X86614Y40894
X89154Y40894
X91694Y40894
X94234Y40894
X96774Y40894
X109982Y40894
X112522Y40894
X148590Y67310
X115062Y40894
X117602Y40894
X120142Y40894
X122682Y40894
X135890Y40894
X138430Y40894
X140970Y40894
X143510Y40894
X146050Y40894
X148590Y40894
X6350Y54102
X8890Y54102
X11430Y54102
X13970Y54102
X16510Y54102
X19050Y54102
X32258Y54102
X34798Y54102
X37338Y54102
X39878Y54102
X42418Y54102
X68326Y1270
X44958Y54102
X58166Y54102
X60706Y54102
X63246Y54102
X65786Y54102
X68326Y54102
X70866Y54102
X84074Y54102
X86614Y54102
X89154Y54102
X94234Y54102
X96774Y54102
X109982Y54102
X112522Y54102
X115062Y54102
X117602Y54102
X120142Y54102
X122682Y54102
X135890Y54102
X138430Y54102
X140970Y54102
X143510Y54102
X146050Y54102
X148590Y54102
X6350Y67310
X8890Y67310
X11430Y67310
X13970Y67310
X16510Y67310
X19050Y67310
X32258Y67310
X34798Y67310
X37338Y67310
X39878Y67310
X42418Y67310
X44958Y67310
X58166Y67310
X60706Y67310
X63246Y67310
X65786Y67310
X68326Y67310
X70866Y67310
X84074Y67310
X86614Y67310
X89154Y67310
X91694Y67310
X94234Y67310
X96774Y67310
X109982Y67310
X112522Y67310
X115062Y67310
X117602Y67310
X120142Y67310
X122682Y67310
X135890Y67310
X138430Y67310
X115062Y14478
X140970Y67310
X143510Y67310
X146050Y67310
X6350Y1270
X8890Y1270
X11430Y1270
X13970Y1270
X16510Y1270
X19050Y1270
X32258Y1270
X34798Y1270
X37338Y1270
X39878Y1270
X42418Y1270
X44958Y1270
X58166Y1270
X60706Y1270
X63246Y1270
X65786Y1270
X91694Y54102
X70866Y1270
X84074Y1270
X86614Y1270
X89154Y1270
X91694Y1270
X94234Y1270
X96774Y1270
X109982Y1270
X112522Y1270
X115062Y1270
X117602Y1270
X120142Y1270
X122682Y1270
X135890Y1270
X138430Y1270
X140970Y1270
X143510Y1270
X146050Y1270
X148590Y1270
X6350Y14478
X8890Y14478
X11430Y14478
X13970Y14478
X16510Y14478
X19050Y14478
X32258Y14478
X34798Y14478
X37338Y14478
X39878Y14478
X42418Y14478
X44958Y14478
X58166Y14478
X60706Y14478
X63246Y14478
X65786Y14478
X68326Y14478
X70866Y14478
X84074Y14478
X86614Y14478
X89154Y14478
X91694Y14478
X94234Y14478
X96774Y14478
X109982Y14478
X112522Y14478
X117602Y14478
X120142Y14478
X122682Y14478
X135890Y14478
X138430Y14478
X140970Y14478
X143510Y14478
X146050Y14478
X148590Y14478
X6350Y27686
X8890Y27686
X11430Y27686
X13970Y27686
X16510Y27686
X19050Y27686
X32258Y27686
X34798Y27686
X37338Y27686
X39878Y27686
X42418Y27686
X44958Y27686
X58166Y27686
X60706Y27686
X63246Y27686
X65786Y27686
X68326Y27686
X70866Y27686
X84074Y27686
X86614Y27686
X89154Y27686
X91694Y27686
X94234Y27686
X96774Y27686
X109982Y27686
X112522Y27686
X115062Y27686
X117602Y27686
X120142Y27686
X122682Y27686
X135890Y27686
X138430Y27686
X140970Y27686
X143510Y27686
X146050Y27686
T3
X138303Y6731
X113792Y45339
X113792Y18923
X36068Y45339
X87884Y32131
X61976Y32131
X60579Y6731
X61976Y7305
X10160Y45339
X113792Y46929
X112395Y19939
X113792Y20513
X113792Y32131
X36068Y32131
X112395Y46355
X60579Y46355
X36068Y18923
X10160Y5715
X60579Y33147
X139700Y5715
X61976Y33721
X86487Y33147
X34671Y33147
X8763Y6731
X10160Y7305
X87884Y18923
X34671Y19939
X139700Y7305
X87884Y5715
X36068Y20513
X10160Y32131
X36068Y33721
X87884Y33721
X61976Y46929
X86487Y6731
X87884Y7305
X87884Y45339
X86487Y19939
X87884Y20513
X8763Y46355
X8763Y33147
X10160Y33721
X36068Y5715
X112395Y33147
X113792Y33721
X139700Y18923
X139700Y32131
X10160Y46929
X36068Y7305
X34671Y46355
X36068Y46929
X10160Y18923
X61976Y45339
X61976Y18923
X138303Y19939
X139700Y20513
X113792Y5715
X86487Y46355
X8763Y19939
X10160Y20513
X138303Y33147
X139700Y33721
X112395Y6731
X113792Y7305
X60579Y19939
X61976Y20513
X87884Y46929
X61976Y5715
X139700Y45339
X138303Y46355
X139700Y46929
X10160Y58547
X8763Y59563
X10160Y60137
X36068Y58547
X34671Y59563
X36068Y60137
X61976Y58547
X60579Y59563
X61976Y60137
X87884Y58547
X86487Y59563
X87884Y60137
X113792Y58547
X112395Y59563
X113792Y60137
X139700Y58547
X138303Y59563
X139700Y60137
X10160Y71755
X8763Y72771
X10160Y73345
X36068Y71755
X34671Y72771
X36068Y73345
X61976Y71755
X60579Y72771
X61976Y73345
X87884Y71755
X86487Y72771
X87884Y73345
X113792Y71755
X112395Y72771
X113792Y73345
X139700Y71755
X138303Y72771
X139700Y73345
X34671Y6731
T4
X60960Y37592
X64262Y35814
X73660Y32639
X60960Y36195
X53594Y36195
X67437Y35670
X72009Y33782
X54356Y35814
X63119Y36703
X74676Y34798
X68055Y36957
X56769Y30988
X67689Y33911
X69215Y30734
X63881Y29972
X64516Y33782
X59436Y30734
X61849Y34671
X92837Y33782
X100584Y36576
X78994Y36957
X82169Y33020
X82550Y38481
X86868Y37592
X90170Y35814
X99568Y32639
X86868Y36195
X79502Y36195
X93345Y35670
X97917Y33782
X80264Y35814
X89027Y36703
X100584Y34798
X93963Y36957
X82677Y30988
X93597Y33911
X95123Y30734
X89789Y29972
X90424Y33782
X85344Y30734
X87757Y34671
X118745Y33782
X126492Y36576
X104902Y36957
X108077Y33020
X108458Y38481
X112776Y37592
X116078Y35814
X125476Y32639
X112776Y36195
X105410Y36195
X119253Y35670
X123825Y33782
X106172Y35814
X114935Y36703
X126492Y34798
X119871Y36957
X108585Y30988
X119505Y33911
X121031Y30734
X115697Y29972
X116332Y33782
X111252Y30734
X113665Y34671
X144653Y33782
X152400Y36576
X130810Y36957
X133985Y33020
X134366Y38481
X138684Y37592
X141986Y35814
X151384Y32639
X138684Y36195
X131318Y36195
X145161Y35670
X149733Y33782
X132080Y35814
X140843Y36703
X152400Y34798
X145779Y36957
X134493Y30988
X145413Y33911
X146939Y30734
X141605Y29972
X142240Y33782
X137160Y30734
X139573Y34671
X15113Y46990
X22860Y49784
X1270Y50165
X4445Y46228
X4826Y51689
X9144Y50800
X12446Y49022
X21844Y45847
X9144Y49403
X1778Y49403
X15621Y48878
X20193Y46990
X2540Y49022
X11303Y49911
X22860Y48006
X16239Y50165
X4953Y44196
X15873Y47119
X17399Y43942
X12065Y43180
X12700Y46990
X7620Y43942
X10033Y47879
X41021Y46990
X48768Y49784
X27178Y50165
X30353Y46228
X30734Y51689
X35052Y50800
X38354Y49022
X47752Y45847
X35052Y49403
X27686Y49403
X41529Y48878
X46101Y46990
X28448Y49022
X37211Y49911
X48768Y48006
X42147Y50165
X30861Y44196
X41781Y47119
X43307Y43942
X37973Y43180
X38608Y46990
X33528Y43942
X35941Y47879
X66929Y46990
X74676Y49784
X53086Y50165
X56261Y46228
X56642Y51689
X60960Y50800
X64262Y49022
X73660Y45847
X60960Y49403
X53594Y49403
X67437Y48878
X72009Y46990
X54356Y49022
X63119Y49911
X74676Y48006
X68055Y50165
X56769Y44196
X67689Y47119
X69215Y43942
X63881Y43180
X64516Y46990
X59436Y43942
X61849Y47879
X92837Y46990
X100584Y49784
X78994Y50165
X82169Y46228
X82550Y51689
X86868Y50800
X90170Y49022
X99568Y45847
X86868Y49403
X79502Y49403
X93345Y48878
X97917Y46990
X80264Y49022
X89027Y49911
X100584Y48006
X93963Y50165
X82677Y44196
X93597Y47119
X95123Y43942
X89789Y43180
X90424Y46990
X85344Y43942
X87757Y47879
X118745Y46990
X126492Y49784
X104902Y50165
X108077Y46228
X108458Y51689
X112776Y50800
X116078Y49022
X125476Y45847
X112776Y49403
X105410Y49403
X119253Y48878
X123825Y46990
X106172Y49022
X114935Y49911
X126492Y48006
X119871Y50165
X108585Y44196
X119505Y47119
X121031Y43942
X115697Y43180
X116332Y46990
X111252Y43942
X113665Y47879
X144653Y46990
X152400Y49784
X130810Y50165
X133985Y46228
X134366Y51689
X138684Y50800
X141986Y49022
X151384Y45847
X138684Y49403
X131318Y49403
X145161Y48878
X149733Y46990
X132080Y49022
X140843Y49911
X15113Y7366
X145779Y50165
X134493Y44196
X22860Y10160
X145413Y47119
X146939Y43942
X141605Y43180
X142240Y46990
X137160Y43942
X1270Y10541
X4445Y6604
X139573Y47879
X15113Y60198
X22860Y62992
X1270Y63373
X4445Y59436
X4826Y64897
X9144Y64008
X12446Y62230
X21844Y59055
X9144Y62611
X1778Y62611
X15621Y62086
X20193Y60198
X2540Y62230
X11303Y63119
X22860Y61214
X16239Y63373
X4953Y57404
X4826Y12065
X15873Y60327
X17399Y57150
X12065Y56388
X12700Y60198
X7620Y57150
X9144Y11176
X12446Y9398
X10033Y61087
X41021Y60198
X48768Y62992
X27178Y63373
X30353Y59436
X30734Y64897
X35052Y64008
X38354Y62230
X47752Y59055
X35052Y62611
X27686Y62611
X41529Y62086
X46101Y60198
X28448Y62230
X37211Y63119
X48768Y61214
X42147Y63373
X30861Y57404
X21844Y6223
X41781Y60327
X43307Y57150
X37973Y56388
X38608Y60198
X33528Y57150
X9144Y9779
X1778Y9779
X35941Y61087
X66929Y60198
X74676Y62992
X53086Y63373
X56261Y59436
X56642Y64897
X60960Y64008
X64262Y62230
X73660Y59055
X60960Y62611
X53594Y62611
X67437Y62086
X72009Y60198
X54356Y62230
X63119Y63119
X74676Y61214
X68055Y63373
X56769Y57404
X15621Y9254
X67689Y60327
X69215Y57150
X63881Y56388
X64516Y60198
X59436Y57150
X20193Y7366
X2540Y9398
X61849Y61087
X92837Y60198
X100584Y62992
X78994Y63373
X82169Y59436
X82550Y64897
X86868Y64008
X90170Y62230
X99568Y59055
X86868Y62611
X79502Y62611
X93345Y62086
X97917Y60198
X80264Y62230
X89027Y63119
X100584Y61214
X93963Y63373
X82677Y57404
X11303Y10287
X93597Y60327
X95123Y57150
X89789Y56388
X90424Y60198
X85344Y57150
X22860Y8382
X16239Y10541
X87757Y61087
X118745Y60198
X126492Y62992
X104902Y63373
X108077Y59436
X108458Y64897
X112776Y64008
X116078Y62230
X125476Y59055
X112776Y62611
X105410Y62611
X119253Y62086
X123825Y60198
X106172Y62230
X114935Y63119
X126492Y61214
X119871Y63373
X108585Y57404
X4953Y4572
X119505Y60327
X121031Y57150
X115697Y56388
X116332Y60198
X111252Y57150
X15873Y7495
X17399Y4318
X113665Y61087
X144653Y60198
X152400Y62992
X130810Y63373
X133985Y59436
X134366Y64897
X138684Y64008
X141986Y62230
X151384Y59055
X138684Y62611
X131318Y62611
X145161Y62086
X149733Y60198
X132080Y62230
X140843Y63119
X152400Y61214
X145779Y63373
X134493Y57404
X12065Y3556
X145413Y60327
X146939Y57150
X141605Y56388
X142240Y60198
X137160Y57150
X12700Y7366
X7620Y4318
X139573Y61087
X15113Y73406
X22860Y76200
X1270Y76581
X4445Y72644
X4826Y78105
X9144Y77216
X12446Y75438
X21844Y72263
X9144Y75819
X1778Y75819
X15621Y75294
X20193Y73406
X2540Y75438
X11303Y76327
X22860Y74422
X16239Y76581
X4953Y70612
X10033Y8255
X15873Y73535
X17399Y70358
X12065Y69596
X12700Y73406
X7620Y70358
X41021Y7366
X48768Y10160
X10033Y74295
X41021Y73406
X48768Y76200
X27178Y76581
X30353Y72644
X30734Y78105
X35052Y77216
X38354Y75438
X47752Y72263
X35052Y75819
X27686Y75819
X41529Y75294
X46101Y73406
X28448Y75438
X37211Y76327
X48768Y74422
X42147Y76581
X30861Y70612
X27178Y10541
X41781Y73535
X43307Y70358
X37973Y69596
X38608Y73406
X33528Y70358
X30353Y6604
X30734Y12065
X35941Y74295
X66929Y73406
X74676Y76200
X53086Y76581
X56261Y72644
X56642Y78105
X60960Y77216
X64262Y75438
X73660Y72263
X60960Y75819
X53594Y75819
X67437Y75294
X72009Y73406
X54356Y75438
X63119Y76327
X74676Y74422
X68055Y76581
X56769Y70612
X35052Y11176
X67689Y73535
X69215Y70358
X63881Y69596
X64516Y73406
X59436Y70358
X38354Y9398
X47752Y6223
X61849Y74295
X92837Y73406
X100584Y76200
X78994Y76581
X82169Y72644
X82550Y78105
X86868Y77216
X90170Y75438
X99568Y72263
X86868Y75819
X79502Y75819
X93345Y75294
X97917Y73406
X80264Y75438
X89027Y76327
X100584Y74422
X93963Y76581
X82677Y70612
X35052Y9779
X93597Y73535
X95123Y70358
X89789Y69596
X90424Y73406
X85344Y70358
X27686Y9779
X41529Y9254
X87757Y74295
X118745Y73406
X126492Y76200
X104902Y76581
X108077Y72644
X108458Y78105
X112776Y77216
X116078Y75438
X125476Y72263
X112776Y75819
X105410Y75819
X119253Y75294
X123825Y73406
X106172Y75438
X114935Y76327
X126492Y74422
X119871Y76581
X108585Y70612
X46101Y7366
X119505Y73535
X121031Y70358
X115697Y69596
X116332Y73406
X111252Y70358
X28448Y9398
X37211Y10287
X113665Y74295
X144653Y73406
X152400Y76200
X130810Y76581
X133985Y72644
X134366Y78105
X138684Y77216
X141986Y75438
X48768Y8382
X138684Y75819
X131318Y75819
X145161Y75294
X149733Y73406
X132080Y75438
X140843Y76327
X152400Y74422
X145779Y76581
X134493Y70612
X42147Y10541
X145413Y73535
X146939Y70358
X141605Y69596
X142240Y73406
X137160Y70358
X30861Y4572
X41781Y7495
X139573Y74295
X43307Y4318
X37973Y3556
X38608Y7366
X33528Y4318
X35941Y8255
X66929Y7366
X74676Y10160
X53086Y10541
X56261Y6604
X56642Y12065
X60960Y11176
X64262Y9398
X73660Y6223
X60960Y9779
X53594Y9779
X67437Y9254
X72009Y7366
X54356Y9398
X63119Y10287
X74676Y8382
X68055Y10541
X56769Y4572
X67689Y7495
X69215Y4318
X63881Y3556
X64516Y7366
X59436Y4318
X61849Y8255
X92837Y7366
X100584Y10160
X78994Y10541
X82169Y6604
X82550Y12065
X86868Y11176
X90170Y9398
X99568Y6223
X86868Y9779
X79502Y9779
X93345Y9254
X97917Y7366
X80264Y9398
X89027Y10287
X100584Y8382
X93963Y10541
X82677Y4572
X93597Y7495
X95123Y4318
X89789Y3556
X90424Y7366
X85344Y4318
X87757Y8255
X118745Y7366
X126492Y10160
X104902Y10541
X108077Y6604
X108458Y12065
X112776Y11176
X116078Y9398
X125476Y6223
X112776Y9779
X105410Y9779
X119253Y9254
X123825Y7366
X106172Y9398
X114935Y10287
X126492Y8382
X119871Y10541
X108585Y4572
X119505Y7495
X121031Y4318
X115697Y3556
X116332Y7366
X111252Y4318
X113665Y8255
X144653Y7366
X152400Y10160
X130810Y10541
X133985Y6604
X134366Y12065
X138684Y11176
X141986Y9398
X151384Y6223
X138684Y9779
X131318Y9779
X145161Y9254
X149733Y7366
X132080Y9398
X140843Y10287
X152400Y8382
X145779Y10541
X134493Y4572
X145413Y7495
X146939Y4318
X141605Y3556
X142240Y7366
X137160Y4318
X139573Y8255
X15113Y20574
X22860Y23368
X1270Y23749
X4445Y19812
X4826Y25273
X9144Y24384
X12446Y22606
X21844Y19431
X9144Y22987
X1778Y22987
X15621Y22462
X20193Y20574
X2540Y22606
X11303Y23495
X22860Y21590
X16239Y23749
X4953Y17780
X15873Y20703
X17399Y17526
X12065Y16764
X12700Y20574
X7620Y17526
X10033Y21463
X41021Y20574
X48768Y23368
X27178Y23749
X30353Y19812
X30734Y25273
X35052Y24384
X38354Y22606
X47752Y19431
X35052Y22987
X27686Y22987
X41529Y22462
X46101Y20574
X28448Y22606
X37211Y23495
X152400Y48006
X48768Y21590
X42147Y23749
X30861Y17780
X41781Y20703
X43307Y17526
X37973Y16764
X38608Y20574
X33528Y17526
X35941Y21463
X66929Y20574
X74676Y23368
X53086Y23749
X56261Y19812
X56642Y25273
X60960Y24384
X64262Y22606
X73660Y19431
X60960Y22987
X53594Y22987
X67437Y22462
X72009Y20574
X54356Y22606
X63119Y23495
X74676Y21590
X68055Y23749
X56769Y17780
X67689Y20703
X69215Y17526
X63881Y16764
X64516Y20574
X59436Y17526
X61849Y21463
X92837Y20574
X100584Y23368
X78994Y23749
X82169Y19812
X82550Y25273
X86868Y24384
X90170Y22606
X99568Y19431
X86868Y22987
X79502Y22987
X93345Y22462
X97917Y20574
X80264Y22606
X89027Y23495
X100584Y21590
X93963Y23749
X82677Y17780
X93597Y20703
X95123Y17526
X89789Y16764
X90424Y20574
X85344Y17526
X87757Y21463
X118745Y20574
X126492Y23368
X104902Y23749
X108077Y19812
X108458Y25273
X112776Y24384
X116078Y22606
X125476Y19431
X112776Y22987
X105410Y22987
X119253Y22462
X123825Y20574
X106172Y22606
X114935Y23495
X126492Y21590
X119871Y23749
X108585Y17780
X119505Y20703
X121031Y17526
X115697Y16764
X116332Y20574
X111252Y17526
X113665Y21463
X144653Y20574
X152400Y23368
X130810Y23749
X133985Y19812
X134366Y25273
X138684Y24384
X141986Y22606
X151384Y19431
X138684Y22987
X131318Y22987
X145161Y22462
X149733Y20574
X132080Y22606
X140843Y23495
X152400Y21590
X145779Y23749
X134493Y17780
X145413Y20703
X146939Y17526
X141605Y16764
X142240Y20574
X137160Y17526
X139573Y21463
X15113Y33782
X22860Y36576
X1270Y36957
X4445Y33020
X4826Y38481
X9144Y37592
X12446Y35814
X21844Y32639
X9144Y36195
X1778Y36195
X15621Y35670
X20193Y33782
X2540Y35814
X11303Y36703
X22860Y34798
X16239Y36957
X4953Y30988
X15873Y33911
X17399Y30734
X12065Y29972
X12700Y33782
X7620Y30734
X10033Y34671
X41021Y33782
X48768Y36576
X27178Y36957
X30353Y33020
X30734Y38481
X35052Y37592
X38354Y35814
X47752Y32639
X35052Y36195
X27686Y36195
X41529Y35670
X46101Y33782
X28448Y35814
X37211Y36703
X48768Y34798
X42147Y36957
X30861Y30988
X41781Y33911
X43307Y30734
X37973Y29972
X38608Y33782
X33528Y30734
X35941Y34671
X66929Y33782
X74676Y36576
X53086Y36957
X56261Y33020
X56642Y38481
X151384Y72263
M30