G04 EAGLE Gerber RS-274X export*
G75*
%MOMM*%
%FSLAX34Y34*%
%LPD*%
%INSoldermask Bottom*%
%IPPOS*%
%AMOC8*
5,1,8,0,0,1.08239X$1,22.5*%
G01*
%ADD10C,1.127000*%
%ADD11C,3.429000*%
%ADD12C,0.226312*%
%ADD13C,2.006600*%
%ADD14C,1.270000*%
%ADD15C,1.627000*%


D10*
X12700Y76200D03*
X241300Y101600D03*
D11*
X228600Y25400D03*
X25400Y25400D03*
D12*
X134482Y91046D02*
X143268Y91046D01*
X143268Y86450D01*
X134482Y86450D01*
X134482Y91046D01*
X134482Y88600D02*
X143268Y88600D01*
X143268Y90750D02*
X134482Y90750D01*
X134482Y81546D02*
X143268Y81546D01*
X143268Y76950D01*
X134482Y76950D01*
X134482Y81546D01*
X134482Y79100D02*
X143268Y79100D01*
X143268Y81250D02*
X134482Y81250D01*
X134482Y72046D02*
X143268Y72046D01*
X143268Y67450D01*
X134482Y67450D01*
X134482Y72046D01*
X134482Y69600D02*
X143268Y69600D01*
X143268Y71750D02*
X134482Y71750D01*
X115963Y72046D02*
X107177Y72046D01*
X115963Y72046D02*
X115963Y67450D01*
X107177Y67450D01*
X107177Y72046D01*
X107177Y69600D02*
X115963Y69600D01*
X115963Y71750D02*
X107177Y71750D01*
X107177Y81546D02*
X115963Y81546D01*
X115963Y76950D01*
X107177Y76950D01*
X107177Y81546D01*
X107177Y79100D02*
X115963Y79100D01*
X115963Y81250D02*
X107177Y81250D01*
X107177Y91046D02*
X115963Y91046D01*
X115963Y86450D01*
X107177Y86450D01*
X107177Y91046D01*
X107177Y88600D02*
X115963Y88600D01*
X115963Y90750D02*
X107177Y90750D01*
D13*
X63500Y12700D03*
X88900Y12700D03*
X114300Y12700D03*
X139700Y12700D03*
X165100Y12700D03*
X190500Y12700D03*
D10*
X271780Y76200D03*
X500380Y101600D03*
D11*
X487680Y25400D03*
X284480Y25400D03*
D12*
X393562Y91046D02*
X402348Y91046D01*
X402348Y86450D01*
X393562Y86450D01*
X393562Y91046D01*
X393562Y88600D02*
X402348Y88600D01*
X402348Y90750D02*
X393562Y90750D01*
X393562Y81546D02*
X402348Y81546D01*
X402348Y76950D01*
X393562Y76950D01*
X393562Y81546D01*
X393562Y79100D02*
X402348Y79100D01*
X402348Y81250D02*
X393562Y81250D01*
X393562Y72046D02*
X402348Y72046D01*
X402348Y67450D01*
X393562Y67450D01*
X393562Y72046D01*
X393562Y69600D02*
X402348Y69600D01*
X402348Y71750D02*
X393562Y71750D01*
X375043Y72046D02*
X366257Y72046D01*
X375043Y72046D02*
X375043Y67450D01*
X366257Y67450D01*
X366257Y72046D01*
X366257Y69600D02*
X375043Y69600D01*
X375043Y71750D02*
X366257Y71750D01*
X366257Y81546D02*
X375043Y81546D01*
X375043Y76950D01*
X366257Y76950D01*
X366257Y81546D01*
X366257Y79100D02*
X375043Y79100D01*
X375043Y81250D02*
X366257Y81250D01*
X366257Y91046D02*
X375043Y91046D01*
X375043Y86450D01*
X366257Y86450D01*
X366257Y91046D01*
X366257Y88600D02*
X375043Y88600D01*
X375043Y90750D02*
X366257Y90750D01*
D13*
X322580Y12700D03*
X347980Y12700D03*
X373380Y12700D03*
X398780Y12700D03*
X424180Y12700D03*
X449580Y12700D03*
D10*
X530860Y76200D03*
X759460Y101600D03*
D11*
X746760Y25400D03*
X543560Y25400D03*
D12*
X652642Y91046D02*
X661428Y91046D01*
X661428Y86450D01*
X652642Y86450D01*
X652642Y91046D01*
X652642Y88600D02*
X661428Y88600D01*
X661428Y90750D02*
X652642Y90750D01*
X652642Y81546D02*
X661428Y81546D01*
X661428Y76950D01*
X652642Y76950D01*
X652642Y81546D01*
X652642Y79100D02*
X661428Y79100D01*
X661428Y81250D02*
X652642Y81250D01*
X652642Y72046D02*
X661428Y72046D01*
X661428Y67450D01*
X652642Y67450D01*
X652642Y72046D01*
X652642Y69600D02*
X661428Y69600D01*
X661428Y71750D02*
X652642Y71750D01*
X634123Y72046D02*
X625337Y72046D01*
X634123Y72046D02*
X634123Y67450D01*
X625337Y67450D01*
X625337Y72046D01*
X625337Y69600D02*
X634123Y69600D01*
X634123Y71750D02*
X625337Y71750D01*
X625337Y81546D02*
X634123Y81546D01*
X634123Y76950D01*
X625337Y76950D01*
X625337Y81546D01*
X625337Y79100D02*
X634123Y79100D01*
X634123Y81250D02*
X625337Y81250D01*
X625337Y91046D02*
X634123Y91046D01*
X634123Y86450D01*
X625337Y86450D01*
X625337Y91046D01*
X625337Y88600D02*
X634123Y88600D01*
X634123Y90750D02*
X625337Y90750D01*
D13*
X581660Y12700D03*
X607060Y12700D03*
X632460Y12700D03*
X657860Y12700D03*
X683260Y12700D03*
X708660Y12700D03*
D10*
X789940Y76200D03*
X1018540Y101600D03*
D11*
X1005840Y25400D03*
X802640Y25400D03*
D12*
X911722Y91046D02*
X920508Y91046D01*
X920508Y86450D01*
X911722Y86450D01*
X911722Y91046D01*
X911722Y88600D02*
X920508Y88600D01*
X920508Y90750D02*
X911722Y90750D01*
X911722Y81546D02*
X920508Y81546D01*
X920508Y76950D01*
X911722Y76950D01*
X911722Y81546D01*
X911722Y79100D02*
X920508Y79100D01*
X920508Y81250D02*
X911722Y81250D01*
X911722Y72046D02*
X920508Y72046D01*
X920508Y67450D01*
X911722Y67450D01*
X911722Y72046D01*
X911722Y69600D02*
X920508Y69600D01*
X920508Y71750D02*
X911722Y71750D01*
X893203Y72046D02*
X884417Y72046D01*
X893203Y72046D02*
X893203Y67450D01*
X884417Y67450D01*
X884417Y72046D01*
X884417Y69600D02*
X893203Y69600D01*
X893203Y71750D02*
X884417Y71750D01*
X884417Y81546D02*
X893203Y81546D01*
X893203Y76950D01*
X884417Y76950D01*
X884417Y81546D01*
X884417Y79100D02*
X893203Y79100D01*
X893203Y81250D02*
X884417Y81250D01*
X884417Y91046D02*
X893203Y91046D01*
X893203Y86450D01*
X884417Y86450D01*
X884417Y91046D01*
X884417Y88600D02*
X893203Y88600D01*
X893203Y90750D02*
X884417Y90750D01*
D13*
X840740Y12700D03*
X866140Y12700D03*
X891540Y12700D03*
X916940Y12700D03*
X942340Y12700D03*
X967740Y12700D03*
D10*
X1049020Y76200D03*
X1277620Y101600D03*
D11*
X1264920Y25400D03*
X1061720Y25400D03*
D12*
X1170802Y91046D02*
X1179588Y91046D01*
X1179588Y86450D01*
X1170802Y86450D01*
X1170802Y91046D01*
X1170802Y88600D02*
X1179588Y88600D01*
X1179588Y90750D02*
X1170802Y90750D01*
X1170802Y81546D02*
X1179588Y81546D01*
X1179588Y76950D01*
X1170802Y76950D01*
X1170802Y81546D01*
X1170802Y79100D02*
X1179588Y79100D01*
X1179588Y81250D02*
X1170802Y81250D01*
X1170802Y72046D02*
X1179588Y72046D01*
X1179588Y67450D01*
X1170802Y67450D01*
X1170802Y72046D01*
X1170802Y69600D02*
X1179588Y69600D01*
X1179588Y71750D02*
X1170802Y71750D01*
X1152283Y72046D02*
X1143497Y72046D01*
X1152283Y72046D02*
X1152283Y67450D01*
X1143497Y67450D01*
X1143497Y72046D01*
X1143497Y69600D02*
X1152283Y69600D01*
X1152283Y71750D02*
X1143497Y71750D01*
X1143497Y81546D02*
X1152283Y81546D01*
X1152283Y76950D01*
X1143497Y76950D01*
X1143497Y81546D01*
X1143497Y79100D02*
X1152283Y79100D01*
X1152283Y81250D02*
X1143497Y81250D01*
X1143497Y91046D02*
X1152283Y91046D01*
X1152283Y86450D01*
X1143497Y86450D01*
X1143497Y91046D01*
X1143497Y88600D02*
X1152283Y88600D01*
X1152283Y90750D02*
X1143497Y90750D01*
D13*
X1099820Y12700D03*
X1125220Y12700D03*
X1150620Y12700D03*
X1176020Y12700D03*
X1201420Y12700D03*
X1226820Y12700D03*
D10*
X1308100Y76200D03*
X1536700Y101600D03*
D11*
X1524000Y25400D03*
X1320800Y25400D03*
D12*
X1429882Y91046D02*
X1438668Y91046D01*
X1438668Y86450D01*
X1429882Y86450D01*
X1429882Y91046D01*
X1429882Y88600D02*
X1438668Y88600D01*
X1438668Y90750D02*
X1429882Y90750D01*
X1429882Y81546D02*
X1438668Y81546D01*
X1438668Y76950D01*
X1429882Y76950D01*
X1429882Y81546D01*
X1429882Y79100D02*
X1438668Y79100D01*
X1438668Y81250D02*
X1429882Y81250D01*
X1429882Y72046D02*
X1438668Y72046D01*
X1438668Y67450D01*
X1429882Y67450D01*
X1429882Y72046D01*
X1429882Y69600D02*
X1438668Y69600D01*
X1438668Y71750D02*
X1429882Y71750D01*
X1411363Y72046D02*
X1402577Y72046D01*
X1411363Y72046D02*
X1411363Y67450D01*
X1402577Y67450D01*
X1402577Y72046D01*
X1402577Y69600D02*
X1411363Y69600D01*
X1411363Y71750D02*
X1402577Y71750D01*
X1402577Y81546D02*
X1411363Y81546D01*
X1411363Y76950D01*
X1402577Y76950D01*
X1402577Y81546D01*
X1402577Y79100D02*
X1411363Y79100D01*
X1411363Y81250D02*
X1402577Y81250D01*
X1402577Y91046D02*
X1411363Y91046D01*
X1411363Y86450D01*
X1402577Y86450D01*
X1402577Y91046D01*
X1402577Y88600D02*
X1411363Y88600D01*
X1411363Y90750D02*
X1402577Y90750D01*
D13*
X1358900Y12700D03*
X1384300Y12700D03*
X1409700Y12700D03*
X1435100Y12700D03*
X1460500Y12700D03*
X1485900Y12700D03*
D10*
X12700Y208280D03*
X241300Y233680D03*
D11*
X228600Y157480D03*
X25400Y157480D03*
D12*
X134482Y223126D02*
X143268Y223126D01*
X143268Y218530D01*
X134482Y218530D01*
X134482Y223126D01*
X134482Y220680D02*
X143268Y220680D01*
X143268Y222830D02*
X134482Y222830D01*
X134482Y213626D02*
X143268Y213626D01*
X143268Y209030D01*
X134482Y209030D01*
X134482Y213626D01*
X134482Y211180D02*
X143268Y211180D01*
X143268Y213330D02*
X134482Y213330D01*
X134482Y204126D02*
X143268Y204126D01*
X143268Y199530D01*
X134482Y199530D01*
X134482Y204126D01*
X134482Y201680D02*
X143268Y201680D01*
X143268Y203830D02*
X134482Y203830D01*
X115963Y204126D02*
X107177Y204126D01*
X115963Y204126D02*
X115963Y199530D01*
X107177Y199530D01*
X107177Y204126D01*
X107177Y201680D02*
X115963Y201680D01*
X115963Y203830D02*
X107177Y203830D01*
X107177Y213626D02*
X115963Y213626D01*
X115963Y209030D01*
X107177Y209030D01*
X107177Y213626D01*
X107177Y211180D02*
X115963Y211180D01*
X115963Y213330D02*
X107177Y213330D01*
X107177Y223126D02*
X115963Y223126D01*
X115963Y218530D01*
X107177Y218530D01*
X107177Y223126D01*
X107177Y220680D02*
X115963Y220680D01*
X115963Y222830D02*
X107177Y222830D01*
D13*
X63500Y144780D03*
X88900Y144780D03*
X114300Y144780D03*
X139700Y144780D03*
X165100Y144780D03*
X190500Y144780D03*
D10*
X271780Y208280D03*
X500380Y233680D03*
D11*
X487680Y157480D03*
X284480Y157480D03*
D12*
X393562Y223126D02*
X402348Y223126D01*
X402348Y218530D01*
X393562Y218530D01*
X393562Y223126D01*
X393562Y220680D02*
X402348Y220680D01*
X402348Y222830D02*
X393562Y222830D01*
X393562Y213626D02*
X402348Y213626D01*
X402348Y209030D01*
X393562Y209030D01*
X393562Y213626D01*
X393562Y211180D02*
X402348Y211180D01*
X402348Y213330D02*
X393562Y213330D01*
X393562Y204126D02*
X402348Y204126D01*
X402348Y199530D01*
X393562Y199530D01*
X393562Y204126D01*
X393562Y201680D02*
X402348Y201680D01*
X402348Y203830D02*
X393562Y203830D01*
X375043Y204126D02*
X366257Y204126D01*
X375043Y204126D02*
X375043Y199530D01*
X366257Y199530D01*
X366257Y204126D01*
X366257Y201680D02*
X375043Y201680D01*
X375043Y203830D02*
X366257Y203830D01*
X366257Y213626D02*
X375043Y213626D01*
X375043Y209030D01*
X366257Y209030D01*
X366257Y213626D01*
X366257Y211180D02*
X375043Y211180D01*
X375043Y213330D02*
X366257Y213330D01*
X366257Y223126D02*
X375043Y223126D01*
X375043Y218530D01*
X366257Y218530D01*
X366257Y223126D01*
X366257Y220680D02*
X375043Y220680D01*
X375043Y222830D02*
X366257Y222830D01*
D13*
X322580Y144780D03*
X347980Y144780D03*
X373380Y144780D03*
X398780Y144780D03*
X424180Y144780D03*
X449580Y144780D03*
D10*
X530860Y208280D03*
X759460Y233680D03*
D11*
X746760Y157480D03*
X543560Y157480D03*
D12*
X652642Y223126D02*
X661428Y223126D01*
X661428Y218530D01*
X652642Y218530D01*
X652642Y223126D01*
X652642Y220680D02*
X661428Y220680D01*
X661428Y222830D02*
X652642Y222830D01*
X652642Y213626D02*
X661428Y213626D01*
X661428Y209030D01*
X652642Y209030D01*
X652642Y213626D01*
X652642Y211180D02*
X661428Y211180D01*
X661428Y213330D02*
X652642Y213330D01*
X652642Y204126D02*
X661428Y204126D01*
X661428Y199530D01*
X652642Y199530D01*
X652642Y204126D01*
X652642Y201680D02*
X661428Y201680D01*
X661428Y203830D02*
X652642Y203830D01*
X634123Y204126D02*
X625337Y204126D01*
X634123Y204126D02*
X634123Y199530D01*
X625337Y199530D01*
X625337Y204126D01*
X625337Y201680D02*
X634123Y201680D01*
X634123Y203830D02*
X625337Y203830D01*
X625337Y213626D02*
X634123Y213626D01*
X634123Y209030D01*
X625337Y209030D01*
X625337Y213626D01*
X625337Y211180D02*
X634123Y211180D01*
X634123Y213330D02*
X625337Y213330D01*
X625337Y223126D02*
X634123Y223126D01*
X634123Y218530D01*
X625337Y218530D01*
X625337Y223126D01*
X625337Y220680D02*
X634123Y220680D01*
X634123Y222830D02*
X625337Y222830D01*
D13*
X581660Y144780D03*
X607060Y144780D03*
X632460Y144780D03*
X657860Y144780D03*
X683260Y144780D03*
X708660Y144780D03*
D10*
X789940Y208280D03*
X1018540Y233680D03*
D11*
X1005840Y157480D03*
X802640Y157480D03*
D12*
X911722Y223126D02*
X920508Y223126D01*
X920508Y218530D01*
X911722Y218530D01*
X911722Y223126D01*
X911722Y220680D02*
X920508Y220680D01*
X920508Y222830D02*
X911722Y222830D01*
X911722Y213626D02*
X920508Y213626D01*
X920508Y209030D01*
X911722Y209030D01*
X911722Y213626D01*
X911722Y211180D02*
X920508Y211180D01*
X920508Y213330D02*
X911722Y213330D01*
X911722Y204126D02*
X920508Y204126D01*
X920508Y199530D01*
X911722Y199530D01*
X911722Y204126D01*
X911722Y201680D02*
X920508Y201680D01*
X920508Y203830D02*
X911722Y203830D01*
X893203Y204126D02*
X884417Y204126D01*
X893203Y204126D02*
X893203Y199530D01*
X884417Y199530D01*
X884417Y204126D01*
X884417Y201680D02*
X893203Y201680D01*
X893203Y203830D02*
X884417Y203830D01*
X884417Y213626D02*
X893203Y213626D01*
X893203Y209030D01*
X884417Y209030D01*
X884417Y213626D01*
X884417Y211180D02*
X893203Y211180D01*
X893203Y213330D02*
X884417Y213330D01*
X884417Y223126D02*
X893203Y223126D01*
X893203Y218530D01*
X884417Y218530D01*
X884417Y223126D01*
X884417Y220680D02*
X893203Y220680D01*
X893203Y222830D02*
X884417Y222830D01*
D13*
X840740Y144780D03*
X866140Y144780D03*
X891540Y144780D03*
X916940Y144780D03*
X942340Y144780D03*
X967740Y144780D03*
D10*
X1049020Y208280D03*
X1277620Y233680D03*
D11*
X1264920Y157480D03*
X1061720Y157480D03*
D12*
X1170802Y223126D02*
X1179588Y223126D01*
X1179588Y218530D01*
X1170802Y218530D01*
X1170802Y223126D01*
X1170802Y220680D02*
X1179588Y220680D01*
X1179588Y222830D02*
X1170802Y222830D01*
X1170802Y213626D02*
X1179588Y213626D01*
X1179588Y209030D01*
X1170802Y209030D01*
X1170802Y213626D01*
X1170802Y211180D02*
X1179588Y211180D01*
X1179588Y213330D02*
X1170802Y213330D01*
X1170802Y204126D02*
X1179588Y204126D01*
X1179588Y199530D01*
X1170802Y199530D01*
X1170802Y204126D01*
X1170802Y201680D02*
X1179588Y201680D01*
X1179588Y203830D02*
X1170802Y203830D01*
X1152283Y204126D02*
X1143497Y204126D01*
X1152283Y204126D02*
X1152283Y199530D01*
X1143497Y199530D01*
X1143497Y204126D01*
X1143497Y201680D02*
X1152283Y201680D01*
X1152283Y203830D02*
X1143497Y203830D01*
X1143497Y213626D02*
X1152283Y213626D01*
X1152283Y209030D01*
X1143497Y209030D01*
X1143497Y213626D01*
X1143497Y211180D02*
X1152283Y211180D01*
X1152283Y213330D02*
X1143497Y213330D01*
X1143497Y223126D02*
X1152283Y223126D01*
X1152283Y218530D01*
X1143497Y218530D01*
X1143497Y223126D01*
X1143497Y220680D02*
X1152283Y220680D01*
X1152283Y222830D02*
X1143497Y222830D01*
D13*
X1099820Y144780D03*
X1125220Y144780D03*
X1150620Y144780D03*
X1176020Y144780D03*
X1201420Y144780D03*
X1226820Y144780D03*
D10*
X1308100Y208280D03*
X1536700Y233680D03*
D11*
X1524000Y157480D03*
X1320800Y157480D03*
D12*
X1429882Y223126D02*
X1438668Y223126D01*
X1438668Y218530D01*
X1429882Y218530D01*
X1429882Y223126D01*
X1429882Y220680D02*
X1438668Y220680D01*
X1438668Y222830D02*
X1429882Y222830D01*
X1429882Y213626D02*
X1438668Y213626D01*
X1438668Y209030D01*
X1429882Y209030D01*
X1429882Y213626D01*
X1429882Y211180D02*
X1438668Y211180D01*
X1438668Y213330D02*
X1429882Y213330D01*
X1429882Y204126D02*
X1438668Y204126D01*
X1438668Y199530D01*
X1429882Y199530D01*
X1429882Y204126D01*
X1429882Y201680D02*
X1438668Y201680D01*
X1438668Y203830D02*
X1429882Y203830D01*
X1411363Y204126D02*
X1402577Y204126D01*
X1411363Y204126D02*
X1411363Y199530D01*
X1402577Y199530D01*
X1402577Y204126D01*
X1402577Y201680D02*
X1411363Y201680D01*
X1411363Y203830D02*
X1402577Y203830D01*
X1402577Y213626D02*
X1411363Y213626D01*
X1411363Y209030D01*
X1402577Y209030D01*
X1402577Y213626D01*
X1402577Y211180D02*
X1411363Y211180D01*
X1411363Y213330D02*
X1402577Y213330D01*
X1402577Y223126D02*
X1411363Y223126D01*
X1411363Y218530D01*
X1402577Y218530D01*
X1402577Y223126D01*
X1402577Y220680D02*
X1411363Y220680D01*
X1411363Y222830D02*
X1402577Y222830D01*
D13*
X1358900Y144780D03*
X1384300Y144780D03*
X1409700Y144780D03*
X1435100Y144780D03*
X1460500Y144780D03*
X1485900Y144780D03*
D10*
X12700Y340360D03*
X241300Y365760D03*
D11*
X228600Y289560D03*
X25400Y289560D03*
D12*
X134482Y355206D02*
X143268Y355206D01*
X143268Y350610D01*
X134482Y350610D01*
X134482Y355206D01*
X134482Y352760D02*
X143268Y352760D01*
X143268Y354910D02*
X134482Y354910D01*
X134482Y345706D02*
X143268Y345706D01*
X143268Y341110D01*
X134482Y341110D01*
X134482Y345706D01*
X134482Y343260D02*
X143268Y343260D01*
X143268Y345410D02*
X134482Y345410D01*
X134482Y336206D02*
X143268Y336206D01*
X143268Y331610D01*
X134482Y331610D01*
X134482Y336206D01*
X134482Y333760D02*
X143268Y333760D01*
X143268Y335910D02*
X134482Y335910D01*
X115963Y336206D02*
X107177Y336206D01*
X115963Y336206D02*
X115963Y331610D01*
X107177Y331610D01*
X107177Y336206D01*
X107177Y333760D02*
X115963Y333760D01*
X115963Y335910D02*
X107177Y335910D01*
X107177Y345706D02*
X115963Y345706D01*
X115963Y341110D01*
X107177Y341110D01*
X107177Y345706D01*
X107177Y343260D02*
X115963Y343260D01*
X115963Y345410D02*
X107177Y345410D01*
X107177Y355206D02*
X115963Y355206D01*
X115963Y350610D01*
X107177Y350610D01*
X107177Y355206D01*
X107177Y352760D02*
X115963Y352760D01*
X115963Y354910D02*
X107177Y354910D01*
D13*
X63500Y276860D03*
X88900Y276860D03*
X114300Y276860D03*
X139700Y276860D03*
X165100Y276860D03*
X190500Y276860D03*
D10*
X271780Y340360D03*
X500380Y365760D03*
D11*
X487680Y289560D03*
X284480Y289560D03*
D12*
X393562Y355206D02*
X402348Y355206D01*
X402348Y350610D01*
X393562Y350610D01*
X393562Y355206D01*
X393562Y352760D02*
X402348Y352760D01*
X402348Y354910D02*
X393562Y354910D01*
X393562Y345706D02*
X402348Y345706D01*
X402348Y341110D01*
X393562Y341110D01*
X393562Y345706D01*
X393562Y343260D02*
X402348Y343260D01*
X402348Y345410D02*
X393562Y345410D01*
X393562Y336206D02*
X402348Y336206D01*
X402348Y331610D01*
X393562Y331610D01*
X393562Y336206D01*
X393562Y333760D02*
X402348Y333760D01*
X402348Y335910D02*
X393562Y335910D01*
X375043Y336206D02*
X366257Y336206D01*
X375043Y336206D02*
X375043Y331610D01*
X366257Y331610D01*
X366257Y336206D01*
X366257Y333760D02*
X375043Y333760D01*
X375043Y335910D02*
X366257Y335910D01*
X366257Y345706D02*
X375043Y345706D01*
X375043Y341110D01*
X366257Y341110D01*
X366257Y345706D01*
X366257Y343260D02*
X375043Y343260D01*
X375043Y345410D02*
X366257Y345410D01*
X366257Y355206D02*
X375043Y355206D01*
X375043Y350610D01*
X366257Y350610D01*
X366257Y355206D01*
X366257Y352760D02*
X375043Y352760D01*
X375043Y354910D02*
X366257Y354910D01*
D13*
X322580Y276860D03*
X347980Y276860D03*
X373380Y276860D03*
X398780Y276860D03*
X424180Y276860D03*
X449580Y276860D03*
D10*
X530860Y340360D03*
X759460Y365760D03*
D11*
X746760Y289560D03*
X543560Y289560D03*
D12*
X652642Y355206D02*
X661428Y355206D01*
X661428Y350610D01*
X652642Y350610D01*
X652642Y355206D01*
X652642Y352760D02*
X661428Y352760D01*
X661428Y354910D02*
X652642Y354910D01*
X652642Y345706D02*
X661428Y345706D01*
X661428Y341110D01*
X652642Y341110D01*
X652642Y345706D01*
X652642Y343260D02*
X661428Y343260D01*
X661428Y345410D02*
X652642Y345410D01*
X652642Y336206D02*
X661428Y336206D01*
X661428Y331610D01*
X652642Y331610D01*
X652642Y336206D01*
X652642Y333760D02*
X661428Y333760D01*
X661428Y335910D02*
X652642Y335910D01*
X634123Y336206D02*
X625337Y336206D01*
X634123Y336206D02*
X634123Y331610D01*
X625337Y331610D01*
X625337Y336206D01*
X625337Y333760D02*
X634123Y333760D01*
X634123Y335910D02*
X625337Y335910D01*
X625337Y345706D02*
X634123Y345706D01*
X634123Y341110D01*
X625337Y341110D01*
X625337Y345706D01*
X625337Y343260D02*
X634123Y343260D01*
X634123Y345410D02*
X625337Y345410D01*
X625337Y355206D02*
X634123Y355206D01*
X634123Y350610D01*
X625337Y350610D01*
X625337Y355206D01*
X625337Y352760D02*
X634123Y352760D01*
X634123Y354910D02*
X625337Y354910D01*
D13*
X581660Y276860D03*
X607060Y276860D03*
X632460Y276860D03*
X657860Y276860D03*
X683260Y276860D03*
X708660Y276860D03*
D10*
X789940Y340360D03*
X1018540Y365760D03*
D11*
X1005840Y289560D03*
X802640Y289560D03*
D12*
X911722Y355206D02*
X920508Y355206D01*
X920508Y350610D01*
X911722Y350610D01*
X911722Y355206D01*
X911722Y352760D02*
X920508Y352760D01*
X920508Y354910D02*
X911722Y354910D01*
X911722Y345706D02*
X920508Y345706D01*
X920508Y341110D01*
X911722Y341110D01*
X911722Y345706D01*
X911722Y343260D02*
X920508Y343260D01*
X920508Y345410D02*
X911722Y345410D01*
X911722Y336206D02*
X920508Y336206D01*
X920508Y331610D01*
X911722Y331610D01*
X911722Y336206D01*
X911722Y333760D02*
X920508Y333760D01*
X920508Y335910D02*
X911722Y335910D01*
X893203Y336206D02*
X884417Y336206D01*
X893203Y336206D02*
X893203Y331610D01*
X884417Y331610D01*
X884417Y336206D01*
X884417Y333760D02*
X893203Y333760D01*
X893203Y335910D02*
X884417Y335910D01*
X884417Y345706D02*
X893203Y345706D01*
X893203Y341110D01*
X884417Y341110D01*
X884417Y345706D01*
X884417Y343260D02*
X893203Y343260D01*
X893203Y345410D02*
X884417Y345410D01*
X884417Y355206D02*
X893203Y355206D01*
X893203Y350610D01*
X884417Y350610D01*
X884417Y355206D01*
X884417Y352760D02*
X893203Y352760D01*
X893203Y354910D02*
X884417Y354910D01*
D13*
X840740Y276860D03*
X866140Y276860D03*
X891540Y276860D03*
X916940Y276860D03*
X942340Y276860D03*
X967740Y276860D03*
D10*
X1049020Y340360D03*
X1277620Y365760D03*
D11*
X1264920Y289560D03*
X1061720Y289560D03*
D12*
X1170802Y355206D02*
X1179588Y355206D01*
X1179588Y350610D01*
X1170802Y350610D01*
X1170802Y355206D01*
X1170802Y352760D02*
X1179588Y352760D01*
X1179588Y354910D02*
X1170802Y354910D01*
X1170802Y345706D02*
X1179588Y345706D01*
X1179588Y341110D01*
X1170802Y341110D01*
X1170802Y345706D01*
X1170802Y343260D02*
X1179588Y343260D01*
X1179588Y345410D02*
X1170802Y345410D01*
X1170802Y336206D02*
X1179588Y336206D01*
X1179588Y331610D01*
X1170802Y331610D01*
X1170802Y336206D01*
X1170802Y333760D02*
X1179588Y333760D01*
X1179588Y335910D02*
X1170802Y335910D01*
X1152283Y336206D02*
X1143497Y336206D01*
X1152283Y336206D02*
X1152283Y331610D01*
X1143497Y331610D01*
X1143497Y336206D01*
X1143497Y333760D02*
X1152283Y333760D01*
X1152283Y335910D02*
X1143497Y335910D01*
X1143497Y345706D02*
X1152283Y345706D01*
X1152283Y341110D01*
X1143497Y341110D01*
X1143497Y345706D01*
X1143497Y343260D02*
X1152283Y343260D01*
X1152283Y345410D02*
X1143497Y345410D01*
X1143497Y355206D02*
X1152283Y355206D01*
X1152283Y350610D01*
X1143497Y350610D01*
X1143497Y355206D01*
X1143497Y352760D02*
X1152283Y352760D01*
X1152283Y354910D02*
X1143497Y354910D01*
D13*
X1099820Y276860D03*
X1125220Y276860D03*
X1150620Y276860D03*
X1176020Y276860D03*
X1201420Y276860D03*
X1226820Y276860D03*
D10*
X1308100Y340360D03*
X1536700Y365760D03*
D11*
X1524000Y289560D03*
X1320800Y289560D03*
D12*
X1429882Y355206D02*
X1438668Y355206D01*
X1438668Y350610D01*
X1429882Y350610D01*
X1429882Y355206D01*
X1429882Y352760D02*
X1438668Y352760D01*
X1438668Y354910D02*
X1429882Y354910D01*
X1429882Y345706D02*
X1438668Y345706D01*
X1438668Y341110D01*
X1429882Y341110D01*
X1429882Y345706D01*
X1429882Y343260D02*
X1438668Y343260D01*
X1438668Y345410D02*
X1429882Y345410D01*
X1429882Y336206D02*
X1438668Y336206D01*
X1438668Y331610D01*
X1429882Y331610D01*
X1429882Y336206D01*
X1429882Y333760D02*
X1438668Y333760D01*
X1438668Y335910D02*
X1429882Y335910D01*
X1411363Y336206D02*
X1402577Y336206D01*
X1411363Y336206D02*
X1411363Y331610D01*
X1402577Y331610D01*
X1402577Y336206D01*
X1402577Y333760D02*
X1411363Y333760D01*
X1411363Y335910D02*
X1402577Y335910D01*
X1402577Y345706D02*
X1411363Y345706D01*
X1411363Y341110D01*
X1402577Y341110D01*
X1402577Y345706D01*
X1402577Y343260D02*
X1411363Y343260D01*
X1411363Y345410D02*
X1402577Y345410D01*
X1402577Y355206D02*
X1411363Y355206D01*
X1411363Y350610D01*
X1402577Y350610D01*
X1402577Y355206D01*
X1402577Y352760D02*
X1411363Y352760D01*
X1411363Y354910D02*
X1402577Y354910D01*
D13*
X1358900Y276860D03*
X1384300Y276860D03*
X1409700Y276860D03*
X1435100Y276860D03*
X1460500Y276860D03*
X1485900Y276860D03*
D10*
X12700Y472440D03*
X241300Y497840D03*
D11*
X228600Y421640D03*
X25400Y421640D03*
D12*
X134482Y487286D02*
X143268Y487286D01*
X143268Y482690D01*
X134482Y482690D01*
X134482Y487286D01*
X134482Y484840D02*
X143268Y484840D01*
X143268Y486990D02*
X134482Y486990D01*
X134482Y477786D02*
X143268Y477786D01*
X143268Y473190D01*
X134482Y473190D01*
X134482Y477786D01*
X134482Y475340D02*
X143268Y475340D01*
X143268Y477490D02*
X134482Y477490D01*
X134482Y468286D02*
X143268Y468286D01*
X143268Y463690D01*
X134482Y463690D01*
X134482Y468286D01*
X134482Y465840D02*
X143268Y465840D01*
X143268Y467990D02*
X134482Y467990D01*
X115963Y468286D02*
X107177Y468286D01*
X115963Y468286D02*
X115963Y463690D01*
X107177Y463690D01*
X107177Y468286D01*
X107177Y465840D02*
X115963Y465840D01*
X115963Y467990D02*
X107177Y467990D01*
X107177Y477786D02*
X115963Y477786D01*
X115963Y473190D01*
X107177Y473190D01*
X107177Y477786D01*
X107177Y475340D02*
X115963Y475340D01*
X115963Y477490D02*
X107177Y477490D01*
X107177Y487286D02*
X115963Y487286D01*
X115963Y482690D01*
X107177Y482690D01*
X107177Y487286D01*
X107177Y484840D02*
X115963Y484840D01*
X115963Y486990D02*
X107177Y486990D01*
D13*
X63500Y408940D03*
X88900Y408940D03*
X114300Y408940D03*
X139700Y408940D03*
X165100Y408940D03*
X190500Y408940D03*
D10*
X271780Y472440D03*
X500380Y497840D03*
D11*
X487680Y421640D03*
X284480Y421640D03*
D12*
X393562Y487286D02*
X402348Y487286D01*
X402348Y482690D01*
X393562Y482690D01*
X393562Y487286D01*
X393562Y484840D02*
X402348Y484840D01*
X402348Y486990D02*
X393562Y486990D01*
X393562Y477786D02*
X402348Y477786D01*
X402348Y473190D01*
X393562Y473190D01*
X393562Y477786D01*
X393562Y475340D02*
X402348Y475340D01*
X402348Y477490D02*
X393562Y477490D01*
X393562Y468286D02*
X402348Y468286D01*
X402348Y463690D01*
X393562Y463690D01*
X393562Y468286D01*
X393562Y465840D02*
X402348Y465840D01*
X402348Y467990D02*
X393562Y467990D01*
X375043Y468286D02*
X366257Y468286D01*
X375043Y468286D02*
X375043Y463690D01*
X366257Y463690D01*
X366257Y468286D01*
X366257Y465840D02*
X375043Y465840D01*
X375043Y467990D02*
X366257Y467990D01*
X366257Y477786D02*
X375043Y477786D01*
X375043Y473190D01*
X366257Y473190D01*
X366257Y477786D01*
X366257Y475340D02*
X375043Y475340D01*
X375043Y477490D02*
X366257Y477490D01*
X366257Y487286D02*
X375043Y487286D01*
X375043Y482690D01*
X366257Y482690D01*
X366257Y487286D01*
X366257Y484840D02*
X375043Y484840D01*
X375043Y486990D02*
X366257Y486990D01*
D13*
X322580Y408940D03*
X347980Y408940D03*
X373380Y408940D03*
X398780Y408940D03*
X424180Y408940D03*
X449580Y408940D03*
D10*
X530860Y472440D03*
X759460Y497840D03*
D11*
X746760Y421640D03*
X543560Y421640D03*
D12*
X652642Y487286D02*
X661428Y487286D01*
X661428Y482690D01*
X652642Y482690D01*
X652642Y487286D01*
X652642Y484840D02*
X661428Y484840D01*
X661428Y486990D02*
X652642Y486990D01*
X652642Y477786D02*
X661428Y477786D01*
X661428Y473190D01*
X652642Y473190D01*
X652642Y477786D01*
X652642Y475340D02*
X661428Y475340D01*
X661428Y477490D02*
X652642Y477490D01*
X652642Y468286D02*
X661428Y468286D01*
X661428Y463690D01*
X652642Y463690D01*
X652642Y468286D01*
X652642Y465840D02*
X661428Y465840D01*
X661428Y467990D02*
X652642Y467990D01*
X634123Y468286D02*
X625337Y468286D01*
X634123Y468286D02*
X634123Y463690D01*
X625337Y463690D01*
X625337Y468286D01*
X625337Y465840D02*
X634123Y465840D01*
X634123Y467990D02*
X625337Y467990D01*
X625337Y477786D02*
X634123Y477786D01*
X634123Y473190D01*
X625337Y473190D01*
X625337Y477786D01*
X625337Y475340D02*
X634123Y475340D01*
X634123Y477490D02*
X625337Y477490D01*
X625337Y487286D02*
X634123Y487286D01*
X634123Y482690D01*
X625337Y482690D01*
X625337Y487286D01*
X625337Y484840D02*
X634123Y484840D01*
X634123Y486990D02*
X625337Y486990D01*
D13*
X581660Y408940D03*
X607060Y408940D03*
X632460Y408940D03*
X657860Y408940D03*
X683260Y408940D03*
X708660Y408940D03*
D10*
X789940Y472440D03*
X1018540Y497840D03*
D11*
X1005840Y421640D03*
X802640Y421640D03*
D12*
X911722Y487286D02*
X920508Y487286D01*
X920508Y482690D01*
X911722Y482690D01*
X911722Y487286D01*
X911722Y484840D02*
X920508Y484840D01*
X920508Y486990D02*
X911722Y486990D01*
X911722Y477786D02*
X920508Y477786D01*
X920508Y473190D01*
X911722Y473190D01*
X911722Y477786D01*
X911722Y475340D02*
X920508Y475340D01*
X920508Y477490D02*
X911722Y477490D01*
X911722Y468286D02*
X920508Y468286D01*
X920508Y463690D01*
X911722Y463690D01*
X911722Y468286D01*
X911722Y465840D02*
X920508Y465840D01*
X920508Y467990D02*
X911722Y467990D01*
X893203Y468286D02*
X884417Y468286D01*
X893203Y468286D02*
X893203Y463690D01*
X884417Y463690D01*
X884417Y468286D01*
X884417Y465840D02*
X893203Y465840D01*
X893203Y467990D02*
X884417Y467990D01*
X884417Y477786D02*
X893203Y477786D01*
X893203Y473190D01*
X884417Y473190D01*
X884417Y477786D01*
X884417Y475340D02*
X893203Y475340D01*
X893203Y477490D02*
X884417Y477490D01*
X884417Y487286D02*
X893203Y487286D01*
X893203Y482690D01*
X884417Y482690D01*
X884417Y487286D01*
X884417Y484840D02*
X893203Y484840D01*
X893203Y486990D02*
X884417Y486990D01*
D13*
X840740Y408940D03*
X866140Y408940D03*
X891540Y408940D03*
X916940Y408940D03*
X942340Y408940D03*
X967740Y408940D03*
D10*
X1049020Y472440D03*
X1277620Y497840D03*
D11*
X1264920Y421640D03*
X1061720Y421640D03*
D12*
X1170802Y487286D02*
X1179588Y487286D01*
X1179588Y482690D01*
X1170802Y482690D01*
X1170802Y487286D01*
X1170802Y484840D02*
X1179588Y484840D01*
X1179588Y486990D02*
X1170802Y486990D01*
X1170802Y477786D02*
X1179588Y477786D01*
X1179588Y473190D01*
X1170802Y473190D01*
X1170802Y477786D01*
X1170802Y475340D02*
X1179588Y475340D01*
X1179588Y477490D02*
X1170802Y477490D01*
X1170802Y468286D02*
X1179588Y468286D01*
X1179588Y463690D01*
X1170802Y463690D01*
X1170802Y468286D01*
X1170802Y465840D02*
X1179588Y465840D01*
X1179588Y467990D02*
X1170802Y467990D01*
X1152283Y468286D02*
X1143497Y468286D01*
X1152283Y468286D02*
X1152283Y463690D01*
X1143497Y463690D01*
X1143497Y468286D01*
X1143497Y465840D02*
X1152283Y465840D01*
X1152283Y467990D02*
X1143497Y467990D01*
X1143497Y477786D02*
X1152283Y477786D01*
X1152283Y473190D01*
X1143497Y473190D01*
X1143497Y477786D01*
X1143497Y475340D02*
X1152283Y475340D01*
X1152283Y477490D02*
X1143497Y477490D01*
X1143497Y487286D02*
X1152283Y487286D01*
X1152283Y482690D01*
X1143497Y482690D01*
X1143497Y487286D01*
X1143497Y484840D02*
X1152283Y484840D01*
X1152283Y486990D02*
X1143497Y486990D01*
D13*
X1099820Y408940D03*
X1125220Y408940D03*
X1150620Y408940D03*
X1176020Y408940D03*
X1201420Y408940D03*
X1226820Y408940D03*
D10*
X1308100Y472440D03*
X1536700Y497840D03*
D11*
X1524000Y421640D03*
X1320800Y421640D03*
D12*
X1429882Y487286D02*
X1438668Y487286D01*
X1438668Y482690D01*
X1429882Y482690D01*
X1429882Y487286D01*
X1429882Y484840D02*
X1438668Y484840D01*
X1438668Y486990D02*
X1429882Y486990D01*
X1429882Y477786D02*
X1438668Y477786D01*
X1438668Y473190D01*
X1429882Y473190D01*
X1429882Y477786D01*
X1429882Y475340D02*
X1438668Y475340D01*
X1438668Y477490D02*
X1429882Y477490D01*
X1429882Y468286D02*
X1438668Y468286D01*
X1438668Y463690D01*
X1429882Y463690D01*
X1429882Y468286D01*
X1429882Y465840D02*
X1438668Y465840D01*
X1438668Y467990D02*
X1429882Y467990D01*
X1411363Y468286D02*
X1402577Y468286D01*
X1411363Y468286D02*
X1411363Y463690D01*
X1402577Y463690D01*
X1402577Y468286D01*
X1402577Y465840D02*
X1411363Y465840D01*
X1411363Y467990D02*
X1402577Y467990D01*
X1402577Y477786D02*
X1411363Y477786D01*
X1411363Y473190D01*
X1402577Y473190D01*
X1402577Y477786D01*
X1402577Y475340D02*
X1411363Y475340D01*
X1411363Y477490D02*
X1402577Y477490D01*
X1402577Y487286D02*
X1411363Y487286D01*
X1411363Y482690D01*
X1402577Y482690D01*
X1402577Y487286D01*
X1402577Y484840D02*
X1411363Y484840D01*
X1411363Y486990D02*
X1402577Y486990D01*
D13*
X1358900Y408940D03*
X1384300Y408940D03*
X1409700Y408940D03*
X1435100Y408940D03*
X1460500Y408940D03*
X1485900Y408940D03*
D10*
X12700Y604520D03*
X241300Y629920D03*
D11*
X228600Y553720D03*
X25400Y553720D03*
D12*
X134482Y619366D02*
X143268Y619366D01*
X143268Y614770D01*
X134482Y614770D01*
X134482Y619366D01*
X134482Y616920D02*
X143268Y616920D01*
X143268Y619070D02*
X134482Y619070D01*
X134482Y609866D02*
X143268Y609866D01*
X143268Y605270D01*
X134482Y605270D01*
X134482Y609866D01*
X134482Y607420D02*
X143268Y607420D01*
X143268Y609570D02*
X134482Y609570D01*
X134482Y600366D02*
X143268Y600366D01*
X143268Y595770D01*
X134482Y595770D01*
X134482Y600366D01*
X134482Y597920D02*
X143268Y597920D01*
X143268Y600070D02*
X134482Y600070D01*
X115963Y600366D02*
X107177Y600366D01*
X115963Y600366D02*
X115963Y595770D01*
X107177Y595770D01*
X107177Y600366D01*
X107177Y597920D02*
X115963Y597920D01*
X115963Y600070D02*
X107177Y600070D01*
X107177Y609866D02*
X115963Y609866D01*
X115963Y605270D01*
X107177Y605270D01*
X107177Y609866D01*
X107177Y607420D02*
X115963Y607420D01*
X115963Y609570D02*
X107177Y609570D01*
X107177Y619366D02*
X115963Y619366D01*
X115963Y614770D01*
X107177Y614770D01*
X107177Y619366D01*
X107177Y616920D02*
X115963Y616920D01*
X115963Y619070D02*
X107177Y619070D01*
D13*
X63500Y541020D03*
X88900Y541020D03*
X114300Y541020D03*
X139700Y541020D03*
X165100Y541020D03*
X190500Y541020D03*
D10*
X271780Y604520D03*
X500380Y629920D03*
D11*
X487680Y553720D03*
X284480Y553720D03*
D12*
X393562Y619366D02*
X402348Y619366D01*
X402348Y614770D01*
X393562Y614770D01*
X393562Y619366D01*
X393562Y616920D02*
X402348Y616920D01*
X402348Y619070D02*
X393562Y619070D01*
X393562Y609866D02*
X402348Y609866D01*
X402348Y605270D01*
X393562Y605270D01*
X393562Y609866D01*
X393562Y607420D02*
X402348Y607420D01*
X402348Y609570D02*
X393562Y609570D01*
X393562Y600366D02*
X402348Y600366D01*
X402348Y595770D01*
X393562Y595770D01*
X393562Y600366D01*
X393562Y597920D02*
X402348Y597920D01*
X402348Y600070D02*
X393562Y600070D01*
X375043Y600366D02*
X366257Y600366D01*
X375043Y600366D02*
X375043Y595770D01*
X366257Y595770D01*
X366257Y600366D01*
X366257Y597920D02*
X375043Y597920D01*
X375043Y600070D02*
X366257Y600070D01*
X366257Y609866D02*
X375043Y609866D01*
X375043Y605270D01*
X366257Y605270D01*
X366257Y609866D01*
X366257Y607420D02*
X375043Y607420D01*
X375043Y609570D02*
X366257Y609570D01*
X366257Y619366D02*
X375043Y619366D01*
X375043Y614770D01*
X366257Y614770D01*
X366257Y619366D01*
X366257Y616920D02*
X375043Y616920D01*
X375043Y619070D02*
X366257Y619070D01*
D13*
X322580Y541020D03*
X347980Y541020D03*
X373380Y541020D03*
X398780Y541020D03*
X424180Y541020D03*
X449580Y541020D03*
D10*
X530860Y604520D03*
X759460Y629920D03*
D11*
X746760Y553720D03*
X543560Y553720D03*
D12*
X652642Y619366D02*
X661428Y619366D01*
X661428Y614770D01*
X652642Y614770D01*
X652642Y619366D01*
X652642Y616920D02*
X661428Y616920D01*
X661428Y619070D02*
X652642Y619070D01*
X652642Y609866D02*
X661428Y609866D01*
X661428Y605270D01*
X652642Y605270D01*
X652642Y609866D01*
X652642Y607420D02*
X661428Y607420D01*
X661428Y609570D02*
X652642Y609570D01*
X652642Y600366D02*
X661428Y600366D01*
X661428Y595770D01*
X652642Y595770D01*
X652642Y600366D01*
X652642Y597920D02*
X661428Y597920D01*
X661428Y600070D02*
X652642Y600070D01*
X634123Y600366D02*
X625337Y600366D01*
X634123Y600366D02*
X634123Y595770D01*
X625337Y595770D01*
X625337Y600366D01*
X625337Y597920D02*
X634123Y597920D01*
X634123Y600070D02*
X625337Y600070D01*
X625337Y609866D02*
X634123Y609866D01*
X634123Y605270D01*
X625337Y605270D01*
X625337Y609866D01*
X625337Y607420D02*
X634123Y607420D01*
X634123Y609570D02*
X625337Y609570D01*
X625337Y619366D02*
X634123Y619366D01*
X634123Y614770D01*
X625337Y614770D01*
X625337Y619366D01*
X625337Y616920D02*
X634123Y616920D01*
X634123Y619070D02*
X625337Y619070D01*
D13*
X581660Y541020D03*
X607060Y541020D03*
X632460Y541020D03*
X657860Y541020D03*
X683260Y541020D03*
X708660Y541020D03*
D10*
X789940Y604520D03*
X1018540Y629920D03*
D11*
X1005840Y553720D03*
X802640Y553720D03*
D12*
X911722Y619366D02*
X920508Y619366D01*
X920508Y614770D01*
X911722Y614770D01*
X911722Y619366D01*
X911722Y616920D02*
X920508Y616920D01*
X920508Y619070D02*
X911722Y619070D01*
X911722Y609866D02*
X920508Y609866D01*
X920508Y605270D01*
X911722Y605270D01*
X911722Y609866D01*
X911722Y607420D02*
X920508Y607420D01*
X920508Y609570D02*
X911722Y609570D01*
X911722Y600366D02*
X920508Y600366D01*
X920508Y595770D01*
X911722Y595770D01*
X911722Y600366D01*
X911722Y597920D02*
X920508Y597920D01*
X920508Y600070D02*
X911722Y600070D01*
X893203Y600366D02*
X884417Y600366D01*
X893203Y600366D02*
X893203Y595770D01*
X884417Y595770D01*
X884417Y600366D01*
X884417Y597920D02*
X893203Y597920D01*
X893203Y600070D02*
X884417Y600070D01*
X884417Y609866D02*
X893203Y609866D01*
X893203Y605270D01*
X884417Y605270D01*
X884417Y609866D01*
X884417Y607420D02*
X893203Y607420D01*
X893203Y609570D02*
X884417Y609570D01*
X884417Y619366D02*
X893203Y619366D01*
X893203Y614770D01*
X884417Y614770D01*
X884417Y619366D01*
X884417Y616920D02*
X893203Y616920D01*
X893203Y619070D02*
X884417Y619070D01*
D13*
X840740Y541020D03*
X866140Y541020D03*
X891540Y541020D03*
X916940Y541020D03*
X942340Y541020D03*
X967740Y541020D03*
D10*
X1049020Y604520D03*
X1277620Y629920D03*
D11*
X1264920Y553720D03*
X1061720Y553720D03*
D12*
X1170802Y619366D02*
X1179588Y619366D01*
X1179588Y614770D01*
X1170802Y614770D01*
X1170802Y619366D01*
X1170802Y616920D02*
X1179588Y616920D01*
X1179588Y619070D02*
X1170802Y619070D01*
X1170802Y609866D02*
X1179588Y609866D01*
X1179588Y605270D01*
X1170802Y605270D01*
X1170802Y609866D01*
X1170802Y607420D02*
X1179588Y607420D01*
X1179588Y609570D02*
X1170802Y609570D01*
X1170802Y600366D02*
X1179588Y600366D01*
X1179588Y595770D01*
X1170802Y595770D01*
X1170802Y600366D01*
X1170802Y597920D02*
X1179588Y597920D01*
X1179588Y600070D02*
X1170802Y600070D01*
X1152283Y600366D02*
X1143497Y600366D01*
X1152283Y600366D02*
X1152283Y595770D01*
X1143497Y595770D01*
X1143497Y600366D01*
X1143497Y597920D02*
X1152283Y597920D01*
X1152283Y600070D02*
X1143497Y600070D01*
X1143497Y609866D02*
X1152283Y609866D01*
X1152283Y605270D01*
X1143497Y605270D01*
X1143497Y609866D01*
X1143497Y607420D02*
X1152283Y607420D01*
X1152283Y609570D02*
X1143497Y609570D01*
X1143497Y619366D02*
X1152283Y619366D01*
X1152283Y614770D01*
X1143497Y614770D01*
X1143497Y619366D01*
X1143497Y616920D02*
X1152283Y616920D01*
X1152283Y619070D02*
X1143497Y619070D01*
D13*
X1099820Y541020D03*
X1125220Y541020D03*
X1150620Y541020D03*
X1176020Y541020D03*
X1201420Y541020D03*
X1226820Y541020D03*
D10*
X1308100Y604520D03*
X1536700Y629920D03*
D11*
X1524000Y553720D03*
X1320800Y553720D03*
D12*
X1429882Y619366D02*
X1438668Y619366D01*
X1438668Y614770D01*
X1429882Y614770D01*
X1429882Y619366D01*
X1429882Y616920D02*
X1438668Y616920D01*
X1438668Y619070D02*
X1429882Y619070D01*
X1429882Y609866D02*
X1438668Y609866D01*
X1438668Y605270D01*
X1429882Y605270D01*
X1429882Y609866D01*
X1429882Y607420D02*
X1438668Y607420D01*
X1438668Y609570D02*
X1429882Y609570D01*
X1429882Y600366D02*
X1438668Y600366D01*
X1438668Y595770D01*
X1429882Y595770D01*
X1429882Y600366D01*
X1429882Y597920D02*
X1438668Y597920D01*
X1438668Y600070D02*
X1429882Y600070D01*
X1411363Y600366D02*
X1402577Y600366D01*
X1411363Y600366D02*
X1411363Y595770D01*
X1402577Y595770D01*
X1402577Y600366D01*
X1402577Y597920D02*
X1411363Y597920D01*
X1411363Y600070D02*
X1402577Y600070D01*
X1402577Y609866D02*
X1411363Y609866D01*
X1411363Y605270D01*
X1402577Y605270D01*
X1402577Y609866D01*
X1402577Y607420D02*
X1411363Y607420D01*
X1411363Y609570D02*
X1402577Y609570D01*
X1402577Y619366D02*
X1411363Y619366D01*
X1411363Y614770D01*
X1402577Y614770D01*
X1402577Y619366D01*
X1402577Y616920D02*
X1411363Y616920D01*
X1411363Y619070D02*
X1402577Y619070D01*
D13*
X1358900Y541020D03*
X1384300Y541020D03*
X1409700Y541020D03*
X1435100Y541020D03*
X1460500Y541020D03*
X1485900Y541020D03*
D10*
X12700Y736600D03*
X241300Y762000D03*
D11*
X228600Y685800D03*
X25400Y685800D03*
D12*
X134482Y751446D02*
X143268Y751446D01*
X143268Y746850D01*
X134482Y746850D01*
X134482Y751446D01*
X134482Y749000D02*
X143268Y749000D01*
X143268Y751150D02*
X134482Y751150D01*
X134482Y741946D02*
X143268Y741946D01*
X143268Y737350D01*
X134482Y737350D01*
X134482Y741946D01*
X134482Y739500D02*
X143268Y739500D01*
X143268Y741650D02*
X134482Y741650D01*
X134482Y732446D02*
X143268Y732446D01*
X143268Y727850D01*
X134482Y727850D01*
X134482Y732446D01*
X134482Y730000D02*
X143268Y730000D01*
X143268Y732150D02*
X134482Y732150D01*
X115963Y732446D02*
X107177Y732446D01*
X115963Y732446D02*
X115963Y727850D01*
X107177Y727850D01*
X107177Y732446D01*
X107177Y730000D02*
X115963Y730000D01*
X115963Y732150D02*
X107177Y732150D01*
X107177Y741946D02*
X115963Y741946D01*
X115963Y737350D01*
X107177Y737350D01*
X107177Y741946D01*
X107177Y739500D02*
X115963Y739500D01*
X115963Y741650D02*
X107177Y741650D01*
X107177Y751446D02*
X115963Y751446D01*
X115963Y746850D01*
X107177Y746850D01*
X107177Y751446D01*
X107177Y749000D02*
X115963Y749000D01*
X115963Y751150D02*
X107177Y751150D01*
D13*
X63500Y673100D03*
X88900Y673100D03*
X114300Y673100D03*
X139700Y673100D03*
X165100Y673100D03*
X190500Y673100D03*
D10*
X271780Y736600D03*
X500380Y762000D03*
D11*
X487680Y685800D03*
X284480Y685800D03*
D12*
X393562Y751446D02*
X402348Y751446D01*
X402348Y746850D01*
X393562Y746850D01*
X393562Y751446D01*
X393562Y749000D02*
X402348Y749000D01*
X402348Y751150D02*
X393562Y751150D01*
X393562Y741946D02*
X402348Y741946D01*
X402348Y737350D01*
X393562Y737350D01*
X393562Y741946D01*
X393562Y739500D02*
X402348Y739500D01*
X402348Y741650D02*
X393562Y741650D01*
X393562Y732446D02*
X402348Y732446D01*
X402348Y727850D01*
X393562Y727850D01*
X393562Y732446D01*
X393562Y730000D02*
X402348Y730000D01*
X402348Y732150D02*
X393562Y732150D01*
X375043Y732446D02*
X366257Y732446D01*
X375043Y732446D02*
X375043Y727850D01*
X366257Y727850D01*
X366257Y732446D01*
X366257Y730000D02*
X375043Y730000D01*
X375043Y732150D02*
X366257Y732150D01*
X366257Y741946D02*
X375043Y741946D01*
X375043Y737350D01*
X366257Y737350D01*
X366257Y741946D01*
X366257Y739500D02*
X375043Y739500D01*
X375043Y741650D02*
X366257Y741650D01*
X366257Y751446D02*
X375043Y751446D01*
X375043Y746850D01*
X366257Y746850D01*
X366257Y751446D01*
X366257Y749000D02*
X375043Y749000D01*
X375043Y751150D02*
X366257Y751150D01*
D13*
X322580Y673100D03*
X347980Y673100D03*
X373380Y673100D03*
X398780Y673100D03*
X424180Y673100D03*
X449580Y673100D03*
D10*
X530860Y736600D03*
X759460Y762000D03*
D11*
X746760Y685800D03*
X543560Y685800D03*
D12*
X652642Y751446D02*
X661428Y751446D01*
X661428Y746850D01*
X652642Y746850D01*
X652642Y751446D01*
X652642Y749000D02*
X661428Y749000D01*
X661428Y751150D02*
X652642Y751150D01*
X652642Y741946D02*
X661428Y741946D01*
X661428Y737350D01*
X652642Y737350D01*
X652642Y741946D01*
X652642Y739500D02*
X661428Y739500D01*
X661428Y741650D02*
X652642Y741650D01*
X652642Y732446D02*
X661428Y732446D01*
X661428Y727850D01*
X652642Y727850D01*
X652642Y732446D01*
X652642Y730000D02*
X661428Y730000D01*
X661428Y732150D02*
X652642Y732150D01*
X634123Y732446D02*
X625337Y732446D01*
X634123Y732446D02*
X634123Y727850D01*
X625337Y727850D01*
X625337Y732446D01*
X625337Y730000D02*
X634123Y730000D01*
X634123Y732150D02*
X625337Y732150D01*
X625337Y741946D02*
X634123Y741946D01*
X634123Y737350D01*
X625337Y737350D01*
X625337Y741946D01*
X625337Y739500D02*
X634123Y739500D01*
X634123Y741650D02*
X625337Y741650D01*
X625337Y751446D02*
X634123Y751446D01*
X634123Y746850D01*
X625337Y746850D01*
X625337Y751446D01*
X625337Y749000D02*
X634123Y749000D01*
X634123Y751150D02*
X625337Y751150D01*
D13*
X581660Y673100D03*
X607060Y673100D03*
X632460Y673100D03*
X657860Y673100D03*
X683260Y673100D03*
X708660Y673100D03*
D10*
X789940Y736600D03*
X1018540Y762000D03*
D11*
X1005840Y685800D03*
X802640Y685800D03*
D12*
X911722Y751446D02*
X920508Y751446D01*
X920508Y746850D01*
X911722Y746850D01*
X911722Y751446D01*
X911722Y749000D02*
X920508Y749000D01*
X920508Y751150D02*
X911722Y751150D01*
X911722Y741946D02*
X920508Y741946D01*
X920508Y737350D01*
X911722Y737350D01*
X911722Y741946D01*
X911722Y739500D02*
X920508Y739500D01*
X920508Y741650D02*
X911722Y741650D01*
X911722Y732446D02*
X920508Y732446D01*
X920508Y727850D01*
X911722Y727850D01*
X911722Y732446D01*
X911722Y730000D02*
X920508Y730000D01*
X920508Y732150D02*
X911722Y732150D01*
X893203Y732446D02*
X884417Y732446D01*
X893203Y732446D02*
X893203Y727850D01*
X884417Y727850D01*
X884417Y732446D01*
X884417Y730000D02*
X893203Y730000D01*
X893203Y732150D02*
X884417Y732150D01*
X884417Y741946D02*
X893203Y741946D01*
X893203Y737350D01*
X884417Y737350D01*
X884417Y741946D01*
X884417Y739500D02*
X893203Y739500D01*
X893203Y741650D02*
X884417Y741650D01*
X884417Y751446D02*
X893203Y751446D01*
X893203Y746850D01*
X884417Y746850D01*
X884417Y751446D01*
X884417Y749000D02*
X893203Y749000D01*
X893203Y751150D02*
X884417Y751150D01*
D13*
X840740Y673100D03*
X866140Y673100D03*
X891540Y673100D03*
X916940Y673100D03*
X942340Y673100D03*
X967740Y673100D03*
D10*
X1049020Y736600D03*
X1277620Y762000D03*
D11*
X1264920Y685800D03*
X1061720Y685800D03*
D12*
X1170802Y751446D02*
X1179588Y751446D01*
X1179588Y746850D01*
X1170802Y746850D01*
X1170802Y751446D01*
X1170802Y749000D02*
X1179588Y749000D01*
X1179588Y751150D02*
X1170802Y751150D01*
X1170802Y741946D02*
X1179588Y741946D01*
X1179588Y737350D01*
X1170802Y737350D01*
X1170802Y741946D01*
X1170802Y739500D02*
X1179588Y739500D01*
X1179588Y741650D02*
X1170802Y741650D01*
X1170802Y732446D02*
X1179588Y732446D01*
X1179588Y727850D01*
X1170802Y727850D01*
X1170802Y732446D01*
X1170802Y730000D02*
X1179588Y730000D01*
X1179588Y732150D02*
X1170802Y732150D01*
X1152283Y732446D02*
X1143497Y732446D01*
X1152283Y732446D02*
X1152283Y727850D01*
X1143497Y727850D01*
X1143497Y732446D01*
X1143497Y730000D02*
X1152283Y730000D01*
X1152283Y732150D02*
X1143497Y732150D01*
X1143497Y741946D02*
X1152283Y741946D01*
X1152283Y737350D01*
X1143497Y737350D01*
X1143497Y741946D01*
X1143497Y739500D02*
X1152283Y739500D01*
X1152283Y741650D02*
X1143497Y741650D01*
X1143497Y751446D02*
X1152283Y751446D01*
X1152283Y746850D01*
X1143497Y746850D01*
X1143497Y751446D01*
X1143497Y749000D02*
X1152283Y749000D01*
X1152283Y751150D02*
X1143497Y751150D01*
D13*
X1099820Y673100D03*
X1125220Y673100D03*
X1150620Y673100D03*
X1176020Y673100D03*
X1201420Y673100D03*
X1226820Y673100D03*
D10*
X1308100Y736600D03*
X1536700Y762000D03*
D11*
X1524000Y685800D03*
X1320800Y685800D03*
D12*
X1429882Y751446D02*
X1438668Y751446D01*
X1438668Y746850D01*
X1429882Y746850D01*
X1429882Y751446D01*
X1429882Y749000D02*
X1438668Y749000D01*
X1438668Y751150D02*
X1429882Y751150D01*
X1429882Y741946D02*
X1438668Y741946D01*
X1438668Y737350D01*
X1429882Y737350D01*
X1429882Y741946D01*
X1429882Y739500D02*
X1438668Y739500D01*
X1438668Y741650D02*
X1429882Y741650D01*
X1429882Y732446D02*
X1438668Y732446D01*
X1438668Y727850D01*
X1429882Y727850D01*
X1429882Y732446D01*
X1429882Y730000D02*
X1438668Y730000D01*
X1438668Y732150D02*
X1429882Y732150D01*
X1411363Y732446D02*
X1402577Y732446D01*
X1411363Y732446D02*
X1411363Y727850D01*
X1402577Y727850D01*
X1402577Y732446D01*
X1402577Y730000D02*
X1411363Y730000D01*
X1411363Y732150D02*
X1402577Y732150D01*
X1402577Y741946D02*
X1411363Y741946D01*
X1411363Y737350D01*
X1402577Y737350D01*
X1402577Y741946D01*
X1402577Y739500D02*
X1411363Y739500D01*
X1411363Y741650D02*
X1402577Y741650D01*
X1402577Y751446D02*
X1411363Y751446D01*
X1411363Y746850D01*
X1402577Y746850D01*
X1402577Y751446D01*
X1402577Y749000D02*
X1411363Y749000D01*
X1411363Y751150D02*
X1402577Y751150D01*
D13*
X1358900Y673100D03*
X1384300Y673100D03*
X1409700Y673100D03*
X1435100Y673100D03*
X1460500Y673100D03*
X1485900Y673100D03*
D10*
X-26238Y760730D03*
X1575638Y760730D03*
D14*
X-35293Y63500D02*
X-35290Y63722D01*
X-35282Y63944D01*
X-35268Y64166D01*
X-35249Y64388D01*
X-35225Y64608D01*
X-35195Y64829D01*
X-35160Y65048D01*
X-35119Y65267D01*
X-35073Y65484D01*
X-35022Y65700D01*
X-34965Y65915D01*
X-34903Y66129D01*
X-34836Y66340D01*
X-34764Y66551D01*
X-34686Y66759D01*
X-34604Y66965D01*
X-34516Y67169D01*
X-34424Y67372D01*
X-34326Y67571D01*
X-34224Y67768D01*
X-34117Y67963D01*
X-34005Y68155D01*
X-33888Y68344D01*
X-33767Y68531D01*
X-33641Y68714D01*
X-33511Y68894D01*
X-33376Y69071D01*
X-33238Y69244D01*
X-33095Y69414D01*
X-32947Y69581D01*
X-32796Y69744D01*
X-32641Y69903D01*
X-32482Y70058D01*
X-32319Y70209D01*
X-32152Y70357D01*
X-31982Y70500D01*
X-31809Y70638D01*
X-31632Y70773D01*
X-31452Y70903D01*
X-31269Y71029D01*
X-31082Y71150D01*
X-30893Y71267D01*
X-30701Y71379D01*
X-30506Y71486D01*
X-30309Y71588D01*
X-30110Y71686D01*
X-29907Y71778D01*
X-29703Y71866D01*
X-29497Y71948D01*
X-29289Y72026D01*
X-29078Y72098D01*
X-28867Y72165D01*
X-28653Y72227D01*
X-28438Y72284D01*
X-28222Y72335D01*
X-28005Y72381D01*
X-27786Y72422D01*
X-27567Y72457D01*
X-27346Y72487D01*
X-27126Y72511D01*
X-26904Y72530D01*
X-26682Y72544D01*
X-26460Y72552D01*
X-26238Y72555D01*
X-26016Y72552D01*
X-25794Y72544D01*
X-25572Y72530D01*
X-25350Y72511D01*
X-25130Y72487D01*
X-24909Y72457D01*
X-24690Y72422D01*
X-24471Y72381D01*
X-24254Y72335D01*
X-24038Y72284D01*
X-23823Y72227D01*
X-23609Y72165D01*
X-23398Y72098D01*
X-23187Y72026D01*
X-22979Y71948D01*
X-22773Y71866D01*
X-22569Y71778D01*
X-22366Y71686D01*
X-22167Y71588D01*
X-21970Y71486D01*
X-21775Y71379D01*
X-21583Y71267D01*
X-21394Y71150D01*
X-21207Y71029D01*
X-21024Y70903D01*
X-20844Y70773D01*
X-20667Y70638D01*
X-20494Y70500D01*
X-20324Y70357D01*
X-20157Y70209D01*
X-19994Y70058D01*
X-19835Y69903D01*
X-19680Y69744D01*
X-19529Y69581D01*
X-19381Y69414D01*
X-19238Y69244D01*
X-19100Y69071D01*
X-18965Y68894D01*
X-18835Y68714D01*
X-18709Y68531D01*
X-18588Y68344D01*
X-18471Y68155D01*
X-18359Y67963D01*
X-18252Y67768D01*
X-18150Y67571D01*
X-18052Y67372D01*
X-17960Y67169D01*
X-17872Y66965D01*
X-17790Y66759D01*
X-17712Y66551D01*
X-17640Y66340D01*
X-17573Y66129D01*
X-17511Y65915D01*
X-17454Y65700D01*
X-17403Y65484D01*
X-17357Y65267D01*
X-17316Y65048D01*
X-17281Y64829D01*
X-17251Y64608D01*
X-17227Y64388D01*
X-17208Y64166D01*
X-17194Y63944D01*
X-17186Y63722D01*
X-17183Y63500D01*
X-17186Y63278D01*
X-17194Y63056D01*
X-17208Y62834D01*
X-17227Y62612D01*
X-17251Y62392D01*
X-17281Y62171D01*
X-17316Y61952D01*
X-17357Y61733D01*
X-17403Y61516D01*
X-17454Y61300D01*
X-17511Y61085D01*
X-17573Y60871D01*
X-17640Y60660D01*
X-17712Y60449D01*
X-17790Y60241D01*
X-17872Y60035D01*
X-17960Y59831D01*
X-18052Y59628D01*
X-18150Y59429D01*
X-18252Y59232D01*
X-18359Y59037D01*
X-18471Y58845D01*
X-18588Y58656D01*
X-18709Y58469D01*
X-18835Y58286D01*
X-18965Y58106D01*
X-19100Y57929D01*
X-19238Y57756D01*
X-19381Y57586D01*
X-19529Y57419D01*
X-19680Y57256D01*
X-19835Y57097D01*
X-19994Y56942D01*
X-20157Y56791D01*
X-20324Y56643D01*
X-20494Y56500D01*
X-20667Y56362D01*
X-20844Y56227D01*
X-21024Y56097D01*
X-21207Y55971D01*
X-21394Y55850D01*
X-21583Y55733D01*
X-21775Y55621D01*
X-21970Y55514D01*
X-22167Y55412D01*
X-22366Y55314D01*
X-22569Y55222D01*
X-22773Y55134D01*
X-22979Y55052D01*
X-23187Y54974D01*
X-23398Y54902D01*
X-23609Y54835D01*
X-23823Y54773D01*
X-24038Y54716D01*
X-24254Y54665D01*
X-24471Y54619D01*
X-24690Y54578D01*
X-24909Y54543D01*
X-25130Y54513D01*
X-25350Y54489D01*
X-25572Y54470D01*
X-25794Y54456D01*
X-26016Y54448D01*
X-26238Y54445D01*
X-26460Y54448D01*
X-26682Y54456D01*
X-26904Y54470D01*
X-27126Y54489D01*
X-27346Y54513D01*
X-27567Y54543D01*
X-27786Y54578D01*
X-28005Y54619D01*
X-28222Y54665D01*
X-28438Y54716D01*
X-28653Y54773D01*
X-28867Y54835D01*
X-29078Y54902D01*
X-29289Y54974D01*
X-29497Y55052D01*
X-29703Y55134D01*
X-29907Y55222D01*
X-30110Y55314D01*
X-30309Y55412D01*
X-30506Y55514D01*
X-30701Y55621D01*
X-30893Y55733D01*
X-31082Y55850D01*
X-31269Y55971D01*
X-31452Y56097D01*
X-31632Y56227D01*
X-31809Y56362D01*
X-31982Y56500D01*
X-32152Y56643D01*
X-32319Y56791D01*
X-32482Y56942D01*
X-32641Y57097D01*
X-32796Y57256D01*
X-32947Y57419D01*
X-33095Y57586D01*
X-33238Y57756D01*
X-33376Y57929D01*
X-33511Y58106D01*
X-33641Y58286D01*
X-33767Y58469D01*
X-33888Y58656D01*
X-34005Y58845D01*
X-34117Y59037D01*
X-34224Y59232D01*
X-34326Y59429D01*
X-34424Y59628D01*
X-34516Y59831D01*
X-34604Y60035D01*
X-34686Y60241D01*
X-34764Y60449D01*
X-34836Y60660D01*
X-34903Y60871D01*
X-34965Y61085D01*
X-35022Y61300D01*
X-35073Y61516D01*
X-35119Y61733D01*
X-35160Y61952D01*
X-35195Y62171D01*
X-35225Y62392D01*
X-35249Y62612D01*
X-35268Y62834D01*
X-35282Y63056D01*
X-35290Y63278D01*
X-35293Y63500D01*
D15*
X-26238Y63500D03*
M02*
