G04 EAGLE Gerber RS-274X export*
G75*
%MOMM*%
%FSLAX34Y34*%
%LPD*%
%INSolderpaste Bottom*%
%IPPOS*%
%AMOC8*
5,1,8,0,0,1.08239X$1,22.5*%
G01*
%ADD10C,0.100581*%


D10*
X134489Y91039D02*
X143261Y91039D01*
X143261Y86457D01*
X134489Y86457D01*
X134489Y91039D01*
X134489Y87413D02*
X143261Y87413D01*
X143261Y88369D02*
X134489Y88369D01*
X134489Y89325D02*
X143261Y89325D01*
X143261Y90281D02*
X134489Y90281D01*
X134489Y81539D02*
X143261Y81539D01*
X143261Y76957D01*
X134489Y76957D01*
X134489Y81539D01*
X134489Y77913D02*
X143261Y77913D01*
X143261Y78869D02*
X134489Y78869D01*
X134489Y79825D02*
X143261Y79825D01*
X143261Y80781D02*
X134489Y80781D01*
X134489Y72039D02*
X143261Y72039D01*
X143261Y67457D01*
X134489Y67457D01*
X134489Y72039D01*
X134489Y68413D02*
X143261Y68413D01*
X143261Y69369D02*
X134489Y69369D01*
X134489Y70325D02*
X143261Y70325D01*
X143261Y71281D02*
X134489Y71281D01*
X115956Y72039D02*
X107184Y72039D01*
X115956Y72039D02*
X115956Y67457D01*
X107184Y67457D01*
X107184Y72039D01*
X107184Y68413D02*
X115956Y68413D01*
X115956Y69369D02*
X107184Y69369D01*
X107184Y70325D02*
X115956Y70325D01*
X115956Y71281D02*
X107184Y71281D01*
X107184Y81539D02*
X115956Y81539D01*
X115956Y76957D01*
X107184Y76957D01*
X107184Y81539D01*
X107184Y77913D02*
X115956Y77913D01*
X115956Y78869D02*
X107184Y78869D01*
X107184Y79825D02*
X115956Y79825D01*
X115956Y80781D02*
X107184Y80781D01*
X107184Y91039D02*
X115956Y91039D01*
X115956Y86457D01*
X107184Y86457D01*
X107184Y91039D01*
X107184Y87413D02*
X115956Y87413D01*
X115956Y88369D02*
X107184Y88369D01*
X107184Y89325D02*
X115956Y89325D01*
X115956Y90281D02*
X107184Y90281D01*
X393569Y91039D02*
X402341Y91039D01*
X402341Y86457D01*
X393569Y86457D01*
X393569Y91039D01*
X393569Y87413D02*
X402341Y87413D01*
X402341Y88369D02*
X393569Y88369D01*
X393569Y89325D02*
X402341Y89325D01*
X402341Y90281D02*
X393569Y90281D01*
X393569Y81539D02*
X402341Y81539D01*
X402341Y76957D01*
X393569Y76957D01*
X393569Y81539D01*
X393569Y77913D02*
X402341Y77913D01*
X402341Y78869D02*
X393569Y78869D01*
X393569Y79825D02*
X402341Y79825D01*
X402341Y80781D02*
X393569Y80781D01*
X393569Y72039D02*
X402341Y72039D01*
X402341Y67457D01*
X393569Y67457D01*
X393569Y72039D01*
X393569Y68413D02*
X402341Y68413D01*
X402341Y69369D02*
X393569Y69369D01*
X393569Y70325D02*
X402341Y70325D01*
X402341Y71281D02*
X393569Y71281D01*
X375036Y72039D02*
X366264Y72039D01*
X375036Y72039D02*
X375036Y67457D01*
X366264Y67457D01*
X366264Y72039D01*
X366264Y68413D02*
X375036Y68413D01*
X375036Y69369D02*
X366264Y69369D01*
X366264Y70325D02*
X375036Y70325D01*
X375036Y71281D02*
X366264Y71281D01*
X366264Y81539D02*
X375036Y81539D01*
X375036Y76957D01*
X366264Y76957D01*
X366264Y81539D01*
X366264Y77913D02*
X375036Y77913D01*
X375036Y78869D02*
X366264Y78869D01*
X366264Y79825D02*
X375036Y79825D01*
X375036Y80781D02*
X366264Y80781D01*
X366264Y91039D02*
X375036Y91039D01*
X375036Y86457D01*
X366264Y86457D01*
X366264Y91039D01*
X366264Y87413D02*
X375036Y87413D01*
X375036Y88369D02*
X366264Y88369D01*
X366264Y89325D02*
X375036Y89325D01*
X375036Y90281D02*
X366264Y90281D01*
X652649Y91039D02*
X661421Y91039D01*
X661421Y86457D01*
X652649Y86457D01*
X652649Y91039D01*
X652649Y87413D02*
X661421Y87413D01*
X661421Y88369D02*
X652649Y88369D01*
X652649Y89325D02*
X661421Y89325D01*
X661421Y90281D02*
X652649Y90281D01*
X652649Y81539D02*
X661421Y81539D01*
X661421Y76957D01*
X652649Y76957D01*
X652649Y81539D01*
X652649Y77913D02*
X661421Y77913D01*
X661421Y78869D02*
X652649Y78869D01*
X652649Y79825D02*
X661421Y79825D01*
X661421Y80781D02*
X652649Y80781D01*
X652649Y72039D02*
X661421Y72039D01*
X661421Y67457D01*
X652649Y67457D01*
X652649Y72039D01*
X652649Y68413D02*
X661421Y68413D01*
X661421Y69369D02*
X652649Y69369D01*
X652649Y70325D02*
X661421Y70325D01*
X661421Y71281D02*
X652649Y71281D01*
X634116Y72039D02*
X625344Y72039D01*
X634116Y72039D02*
X634116Y67457D01*
X625344Y67457D01*
X625344Y72039D01*
X625344Y68413D02*
X634116Y68413D01*
X634116Y69369D02*
X625344Y69369D01*
X625344Y70325D02*
X634116Y70325D01*
X634116Y71281D02*
X625344Y71281D01*
X625344Y81539D02*
X634116Y81539D01*
X634116Y76957D01*
X625344Y76957D01*
X625344Y81539D01*
X625344Y77913D02*
X634116Y77913D01*
X634116Y78869D02*
X625344Y78869D01*
X625344Y79825D02*
X634116Y79825D01*
X634116Y80781D02*
X625344Y80781D01*
X625344Y91039D02*
X634116Y91039D01*
X634116Y86457D01*
X625344Y86457D01*
X625344Y91039D01*
X625344Y87413D02*
X634116Y87413D01*
X634116Y88369D02*
X625344Y88369D01*
X625344Y89325D02*
X634116Y89325D01*
X634116Y90281D02*
X625344Y90281D01*
X911729Y91039D02*
X920501Y91039D01*
X920501Y86457D01*
X911729Y86457D01*
X911729Y91039D01*
X911729Y87413D02*
X920501Y87413D01*
X920501Y88369D02*
X911729Y88369D01*
X911729Y89325D02*
X920501Y89325D01*
X920501Y90281D02*
X911729Y90281D01*
X911729Y81539D02*
X920501Y81539D01*
X920501Y76957D01*
X911729Y76957D01*
X911729Y81539D01*
X911729Y77913D02*
X920501Y77913D01*
X920501Y78869D02*
X911729Y78869D01*
X911729Y79825D02*
X920501Y79825D01*
X920501Y80781D02*
X911729Y80781D01*
X911729Y72039D02*
X920501Y72039D01*
X920501Y67457D01*
X911729Y67457D01*
X911729Y72039D01*
X911729Y68413D02*
X920501Y68413D01*
X920501Y69369D02*
X911729Y69369D01*
X911729Y70325D02*
X920501Y70325D01*
X920501Y71281D02*
X911729Y71281D01*
X893196Y72039D02*
X884424Y72039D01*
X893196Y72039D02*
X893196Y67457D01*
X884424Y67457D01*
X884424Y72039D01*
X884424Y68413D02*
X893196Y68413D01*
X893196Y69369D02*
X884424Y69369D01*
X884424Y70325D02*
X893196Y70325D01*
X893196Y71281D02*
X884424Y71281D01*
X884424Y81539D02*
X893196Y81539D01*
X893196Y76957D01*
X884424Y76957D01*
X884424Y81539D01*
X884424Y77913D02*
X893196Y77913D01*
X893196Y78869D02*
X884424Y78869D01*
X884424Y79825D02*
X893196Y79825D01*
X893196Y80781D02*
X884424Y80781D01*
X884424Y91039D02*
X893196Y91039D01*
X893196Y86457D01*
X884424Y86457D01*
X884424Y91039D01*
X884424Y87413D02*
X893196Y87413D01*
X893196Y88369D02*
X884424Y88369D01*
X884424Y89325D02*
X893196Y89325D01*
X893196Y90281D02*
X884424Y90281D01*
X1170809Y91039D02*
X1179581Y91039D01*
X1179581Y86457D01*
X1170809Y86457D01*
X1170809Y91039D01*
X1170809Y87413D02*
X1179581Y87413D01*
X1179581Y88369D02*
X1170809Y88369D01*
X1170809Y89325D02*
X1179581Y89325D01*
X1179581Y90281D02*
X1170809Y90281D01*
X1170809Y81539D02*
X1179581Y81539D01*
X1179581Y76957D01*
X1170809Y76957D01*
X1170809Y81539D01*
X1170809Y77913D02*
X1179581Y77913D01*
X1179581Y78869D02*
X1170809Y78869D01*
X1170809Y79825D02*
X1179581Y79825D01*
X1179581Y80781D02*
X1170809Y80781D01*
X1170809Y72039D02*
X1179581Y72039D01*
X1179581Y67457D01*
X1170809Y67457D01*
X1170809Y72039D01*
X1170809Y68413D02*
X1179581Y68413D01*
X1179581Y69369D02*
X1170809Y69369D01*
X1170809Y70325D02*
X1179581Y70325D01*
X1179581Y71281D02*
X1170809Y71281D01*
X1152276Y72039D02*
X1143504Y72039D01*
X1152276Y72039D02*
X1152276Y67457D01*
X1143504Y67457D01*
X1143504Y72039D01*
X1143504Y68413D02*
X1152276Y68413D01*
X1152276Y69369D02*
X1143504Y69369D01*
X1143504Y70325D02*
X1152276Y70325D01*
X1152276Y71281D02*
X1143504Y71281D01*
X1143504Y81539D02*
X1152276Y81539D01*
X1152276Y76957D01*
X1143504Y76957D01*
X1143504Y81539D01*
X1143504Y77913D02*
X1152276Y77913D01*
X1152276Y78869D02*
X1143504Y78869D01*
X1143504Y79825D02*
X1152276Y79825D01*
X1152276Y80781D02*
X1143504Y80781D01*
X1143504Y91039D02*
X1152276Y91039D01*
X1152276Y86457D01*
X1143504Y86457D01*
X1143504Y91039D01*
X1143504Y87413D02*
X1152276Y87413D01*
X1152276Y88369D02*
X1143504Y88369D01*
X1143504Y89325D02*
X1152276Y89325D01*
X1152276Y90281D02*
X1143504Y90281D01*
X1429889Y91039D02*
X1438661Y91039D01*
X1438661Y86457D01*
X1429889Y86457D01*
X1429889Y91039D01*
X1429889Y87413D02*
X1438661Y87413D01*
X1438661Y88369D02*
X1429889Y88369D01*
X1429889Y89325D02*
X1438661Y89325D01*
X1438661Y90281D02*
X1429889Y90281D01*
X1429889Y81539D02*
X1438661Y81539D01*
X1438661Y76957D01*
X1429889Y76957D01*
X1429889Y81539D01*
X1429889Y77913D02*
X1438661Y77913D01*
X1438661Y78869D02*
X1429889Y78869D01*
X1429889Y79825D02*
X1438661Y79825D01*
X1438661Y80781D02*
X1429889Y80781D01*
X1429889Y72039D02*
X1438661Y72039D01*
X1438661Y67457D01*
X1429889Y67457D01*
X1429889Y72039D01*
X1429889Y68413D02*
X1438661Y68413D01*
X1438661Y69369D02*
X1429889Y69369D01*
X1429889Y70325D02*
X1438661Y70325D01*
X1438661Y71281D02*
X1429889Y71281D01*
X1411356Y72039D02*
X1402584Y72039D01*
X1411356Y72039D02*
X1411356Y67457D01*
X1402584Y67457D01*
X1402584Y72039D01*
X1402584Y68413D02*
X1411356Y68413D01*
X1411356Y69369D02*
X1402584Y69369D01*
X1402584Y70325D02*
X1411356Y70325D01*
X1411356Y71281D02*
X1402584Y71281D01*
X1402584Y81539D02*
X1411356Y81539D01*
X1411356Y76957D01*
X1402584Y76957D01*
X1402584Y81539D01*
X1402584Y77913D02*
X1411356Y77913D01*
X1411356Y78869D02*
X1402584Y78869D01*
X1402584Y79825D02*
X1411356Y79825D01*
X1411356Y80781D02*
X1402584Y80781D01*
X1402584Y91039D02*
X1411356Y91039D01*
X1411356Y86457D01*
X1402584Y86457D01*
X1402584Y91039D01*
X1402584Y87413D02*
X1411356Y87413D01*
X1411356Y88369D02*
X1402584Y88369D01*
X1402584Y89325D02*
X1411356Y89325D01*
X1411356Y90281D02*
X1402584Y90281D01*
X143261Y223119D02*
X134489Y223119D01*
X143261Y223119D02*
X143261Y218537D01*
X134489Y218537D01*
X134489Y223119D01*
X134489Y219493D02*
X143261Y219493D01*
X143261Y220449D02*
X134489Y220449D01*
X134489Y221405D02*
X143261Y221405D01*
X143261Y222361D02*
X134489Y222361D01*
X134489Y213619D02*
X143261Y213619D01*
X143261Y209037D01*
X134489Y209037D01*
X134489Y213619D01*
X134489Y209993D02*
X143261Y209993D01*
X143261Y210949D02*
X134489Y210949D01*
X134489Y211905D02*
X143261Y211905D01*
X143261Y212861D02*
X134489Y212861D01*
X134489Y204119D02*
X143261Y204119D01*
X143261Y199537D01*
X134489Y199537D01*
X134489Y204119D01*
X134489Y200493D02*
X143261Y200493D01*
X143261Y201449D02*
X134489Y201449D01*
X134489Y202405D02*
X143261Y202405D01*
X143261Y203361D02*
X134489Y203361D01*
X115956Y204119D02*
X107184Y204119D01*
X115956Y204119D02*
X115956Y199537D01*
X107184Y199537D01*
X107184Y204119D01*
X107184Y200493D02*
X115956Y200493D01*
X115956Y201449D02*
X107184Y201449D01*
X107184Y202405D02*
X115956Y202405D01*
X115956Y203361D02*
X107184Y203361D01*
X107184Y213619D02*
X115956Y213619D01*
X115956Y209037D01*
X107184Y209037D01*
X107184Y213619D01*
X107184Y209993D02*
X115956Y209993D01*
X115956Y210949D02*
X107184Y210949D01*
X107184Y211905D02*
X115956Y211905D01*
X115956Y212861D02*
X107184Y212861D01*
X107184Y223119D02*
X115956Y223119D01*
X115956Y218537D01*
X107184Y218537D01*
X107184Y223119D01*
X107184Y219493D02*
X115956Y219493D01*
X115956Y220449D02*
X107184Y220449D01*
X107184Y221405D02*
X115956Y221405D01*
X115956Y222361D02*
X107184Y222361D01*
X393569Y223119D02*
X402341Y223119D01*
X402341Y218537D01*
X393569Y218537D01*
X393569Y223119D01*
X393569Y219493D02*
X402341Y219493D01*
X402341Y220449D02*
X393569Y220449D01*
X393569Y221405D02*
X402341Y221405D01*
X402341Y222361D02*
X393569Y222361D01*
X393569Y213619D02*
X402341Y213619D01*
X402341Y209037D01*
X393569Y209037D01*
X393569Y213619D01*
X393569Y209993D02*
X402341Y209993D01*
X402341Y210949D02*
X393569Y210949D01*
X393569Y211905D02*
X402341Y211905D01*
X402341Y212861D02*
X393569Y212861D01*
X393569Y204119D02*
X402341Y204119D01*
X402341Y199537D01*
X393569Y199537D01*
X393569Y204119D01*
X393569Y200493D02*
X402341Y200493D01*
X402341Y201449D02*
X393569Y201449D01*
X393569Y202405D02*
X402341Y202405D01*
X402341Y203361D02*
X393569Y203361D01*
X375036Y204119D02*
X366264Y204119D01*
X375036Y204119D02*
X375036Y199537D01*
X366264Y199537D01*
X366264Y204119D01*
X366264Y200493D02*
X375036Y200493D01*
X375036Y201449D02*
X366264Y201449D01*
X366264Y202405D02*
X375036Y202405D01*
X375036Y203361D02*
X366264Y203361D01*
X366264Y213619D02*
X375036Y213619D01*
X375036Y209037D01*
X366264Y209037D01*
X366264Y213619D01*
X366264Y209993D02*
X375036Y209993D01*
X375036Y210949D02*
X366264Y210949D01*
X366264Y211905D02*
X375036Y211905D01*
X375036Y212861D02*
X366264Y212861D01*
X366264Y223119D02*
X375036Y223119D01*
X375036Y218537D01*
X366264Y218537D01*
X366264Y223119D01*
X366264Y219493D02*
X375036Y219493D01*
X375036Y220449D02*
X366264Y220449D01*
X366264Y221405D02*
X375036Y221405D01*
X375036Y222361D02*
X366264Y222361D01*
X652649Y223119D02*
X661421Y223119D01*
X661421Y218537D01*
X652649Y218537D01*
X652649Y223119D01*
X652649Y219493D02*
X661421Y219493D01*
X661421Y220449D02*
X652649Y220449D01*
X652649Y221405D02*
X661421Y221405D01*
X661421Y222361D02*
X652649Y222361D01*
X652649Y213619D02*
X661421Y213619D01*
X661421Y209037D01*
X652649Y209037D01*
X652649Y213619D01*
X652649Y209993D02*
X661421Y209993D01*
X661421Y210949D02*
X652649Y210949D01*
X652649Y211905D02*
X661421Y211905D01*
X661421Y212861D02*
X652649Y212861D01*
X652649Y204119D02*
X661421Y204119D01*
X661421Y199537D01*
X652649Y199537D01*
X652649Y204119D01*
X652649Y200493D02*
X661421Y200493D01*
X661421Y201449D02*
X652649Y201449D01*
X652649Y202405D02*
X661421Y202405D01*
X661421Y203361D02*
X652649Y203361D01*
X634116Y204119D02*
X625344Y204119D01*
X634116Y204119D02*
X634116Y199537D01*
X625344Y199537D01*
X625344Y204119D01*
X625344Y200493D02*
X634116Y200493D01*
X634116Y201449D02*
X625344Y201449D01*
X625344Y202405D02*
X634116Y202405D01*
X634116Y203361D02*
X625344Y203361D01*
X625344Y213619D02*
X634116Y213619D01*
X634116Y209037D01*
X625344Y209037D01*
X625344Y213619D01*
X625344Y209993D02*
X634116Y209993D01*
X634116Y210949D02*
X625344Y210949D01*
X625344Y211905D02*
X634116Y211905D01*
X634116Y212861D02*
X625344Y212861D01*
X625344Y223119D02*
X634116Y223119D01*
X634116Y218537D01*
X625344Y218537D01*
X625344Y223119D01*
X625344Y219493D02*
X634116Y219493D01*
X634116Y220449D02*
X625344Y220449D01*
X625344Y221405D02*
X634116Y221405D01*
X634116Y222361D02*
X625344Y222361D01*
X911729Y223119D02*
X920501Y223119D01*
X920501Y218537D01*
X911729Y218537D01*
X911729Y223119D01*
X911729Y219493D02*
X920501Y219493D01*
X920501Y220449D02*
X911729Y220449D01*
X911729Y221405D02*
X920501Y221405D01*
X920501Y222361D02*
X911729Y222361D01*
X911729Y213619D02*
X920501Y213619D01*
X920501Y209037D01*
X911729Y209037D01*
X911729Y213619D01*
X911729Y209993D02*
X920501Y209993D01*
X920501Y210949D02*
X911729Y210949D01*
X911729Y211905D02*
X920501Y211905D01*
X920501Y212861D02*
X911729Y212861D01*
X911729Y204119D02*
X920501Y204119D01*
X920501Y199537D01*
X911729Y199537D01*
X911729Y204119D01*
X911729Y200493D02*
X920501Y200493D01*
X920501Y201449D02*
X911729Y201449D01*
X911729Y202405D02*
X920501Y202405D01*
X920501Y203361D02*
X911729Y203361D01*
X893196Y204119D02*
X884424Y204119D01*
X893196Y204119D02*
X893196Y199537D01*
X884424Y199537D01*
X884424Y204119D01*
X884424Y200493D02*
X893196Y200493D01*
X893196Y201449D02*
X884424Y201449D01*
X884424Y202405D02*
X893196Y202405D01*
X893196Y203361D02*
X884424Y203361D01*
X884424Y213619D02*
X893196Y213619D01*
X893196Y209037D01*
X884424Y209037D01*
X884424Y213619D01*
X884424Y209993D02*
X893196Y209993D01*
X893196Y210949D02*
X884424Y210949D01*
X884424Y211905D02*
X893196Y211905D01*
X893196Y212861D02*
X884424Y212861D01*
X884424Y223119D02*
X893196Y223119D01*
X893196Y218537D01*
X884424Y218537D01*
X884424Y223119D01*
X884424Y219493D02*
X893196Y219493D01*
X893196Y220449D02*
X884424Y220449D01*
X884424Y221405D02*
X893196Y221405D01*
X893196Y222361D02*
X884424Y222361D01*
X1170809Y223119D02*
X1179581Y223119D01*
X1179581Y218537D01*
X1170809Y218537D01*
X1170809Y223119D01*
X1170809Y219493D02*
X1179581Y219493D01*
X1179581Y220449D02*
X1170809Y220449D01*
X1170809Y221405D02*
X1179581Y221405D01*
X1179581Y222361D02*
X1170809Y222361D01*
X1170809Y213619D02*
X1179581Y213619D01*
X1179581Y209037D01*
X1170809Y209037D01*
X1170809Y213619D01*
X1170809Y209993D02*
X1179581Y209993D01*
X1179581Y210949D02*
X1170809Y210949D01*
X1170809Y211905D02*
X1179581Y211905D01*
X1179581Y212861D02*
X1170809Y212861D01*
X1170809Y204119D02*
X1179581Y204119D01*
X1179581Y199537D01*
X1170809Y199537D01*
X1170809Y204119D01*
X1170809Y200493D02*
X1179581Y200493D01*
X1179581Y201449D02*
X1170809Y201449D01*
X1170809Y202405D02*
X1179581Y202405D01*
X1179581Y203361D02*
X1170809Y203361D01*
X1152276Y204119D02*
X1143504Y204119D01*
X1152276Y204119D02*
X1152276Y199537D01*
X1143504Y199537D01*
X1143504Y204119D01*
X1143504Y200493D02*
X1152276Y200493D01*
X1152276Y201449D02*
X1143504Y201449D01*
X1143504Y202405D02*
X1152276Y202405D01*
X1152276Y203361D02*
X1143504Y203361D01*
X1143504Y213619D02*
X1152276Y213619D01*
X1152276Y209037D01*
X1143504Y209037D01*
X1143504Y213619D01*
X1143504Y209993D02*
X1152276Y209993D01*
X1152276Y210949D02*
X1143504Y210949D01*
X1143504Y211905D02*
X1152276Y211905D01*
X1152276Y212861D02*
X1143504Y212861D01*
X1143504Y223119D02*
X1152276Y223119D01*
X1152276Y218537D01*
X1143504Y218537D01*
X1143504Y223119D01*
X1143504Y219493D02*
X1152276Y219493D01*
X1152276Y220449D02*
X1143504Y220449D01*
X1143504Y221405D02*
X1152276Y221405D01*
X1152276Y222361D02*
X1143504Y222361D01*
X1429889Y223119D02*
X1438661Y223119D01*
X1438661Y218537D01*
X1429889Y218537D01*
X1429889Y223119D01*
X1429889Y219493D02*
X1438661Y219493D01*
X1438661Y220449D02*
X1429889Y220449D01*
X1429889Y221405D02*
X1438661Y221405D01*
X1438661Y222361D02*
X1429889Y222361D01*
X1429889Y213619D02*
X1438661Y213619D01*
X1438661Y209037D01*
X1429889Y209037D01*
X1429889Y213619D01*
X1429889Y209993D02*
X1438661Y209993D01*
X1438661Y210949D02*
X1429889Y210949D01*
X1429889Y211905D02*
X1438661Y211905D01*
X1438661Y212861D02*
X1429889Y212861D01*
X1429889Y204119D02*
X1438661Y204119D01*
X1438661Y199537D01*
X1429889Y199537D01*
X1429889Y204119D01*
X1429889Y200493D02*
X1438661Y200493D01*
X1438661Y201449D02*
X1429889Y201449D01*
X1429889Y202405D02*
X1438661Y202405D01*
X1438661Y203361D02*
X1429889Y203361D01*
X1411356Y204119D02*
X1402584Y204119D01*
X1411356Y204119D02*
X1411356Y199537D01*
X1402584Y199537D01*
X1402584Y204119D01*
X1402584Y200493D02*
X1411356Y200493D01*
X1411356Y201449D02*
X1402584Y201449D01*
X1402584Y202405D02*
X1411356Y202405D01*
X1411356Y203361D02*
X1402584Y203361D01*
X1402584Y213619D02*
X1411356Y213619D01*
X1411356Y209037D01*
X1402584Y209037D01*
X1402584Y213619D01*
X1402584Y209993D02*
X1411356Y209993D01*
X1411356Y210949D02*
X1402584Y210949D01*
X1402584Y211905D02*
X1411356Y211905D01*
X1411356Y212861D02*
X1402584Y212861D01*
X1402584Y223119D02*
X1411356Y223119D01*
X1411356Y218537D01*
X1402584Y218537D01*
X1402584Y223119D01*
X1402584Y219493D02*
X1411356Y219493D01*
X1411356Y220449D02*
X1402584Y220449D01*
X1402584Y221405D02*
X1411356Y221405D01*
X1411356Y222361D02*
X1402584Y222361D01*
X143261Y355199D02*
X134489Y355199D01*
X143261Y355199D02*
X143261Y350617D01*
X134489Y350617D01*
X134489Y355199D01*
X134489Y351573D02*
X143261Y351573D01*
X143261Y352529D02*
X134489Y352529D01*
X134489Y353485D02*
X143261Y353485D01*
X143261Y354441D02*
X134489Y354441D01*
X134489Y345699D02*
X143261Y345699D01*
X143261Y341117D01*
X134489Y341117D01*
X134489Y345699D01*
X134489Y342073D02*
X143261Y342073D01*
X143261Y343029D02*
X134489Y343029D01*
X134489Y343985D02*
X143261Y343985D01*
X143261Y344941D02*
X134489Y344941D01*
X134489Y336199D02*
X143261Y336199D01*
X143261Y331617D01*
X134489Y331617D01*
X134489Y336199D01*
X134489Y332573D02*
X143261Y332573D01*
X143261Y333529D02*
X134489Y333529D01*
X134489Y334485D02*
X143261Y334485D01*
X143261Y335441D02*
X134489Y335441D01*
X115956Y336199D02*
X107184Y336199D01*
X115956Y336199D02*
X115956Y331617D01*
X107184Y331617D01*
X107184Y336199D01*
X107184Y332573D02*
X115956Y332573D01*
X115956Y333529D02*
X107184Y333529D01*
X107184Y334485D02*
X115956Y334485D01*
X115956Y335441D02*
X107184Y335441D01*
X107184Y345699D02*
X115956Y345699D01*
X115956Y341117D01*
X107184Y341117D01*
X107184Y345699D01*
X107184Y342073D02*
X115956Y342073D01*
X115956Y343029D02*
X107184Y343029D01*
X107184Y343985D02*
X115956Y343985D01*
X115956Y344941D02*
X107184Y344941D01*
X107184Y355199D02*
X115956Y355199D01*
X115956Y350617D01*
X107184Y350617D01*
X107184Y355199D01*
X107184Y351573D02*
X115956Y351573D01*
X115956Y352529D02*
X107184Y352529D01*
X107184Y353485D02*
X115956Y353485D01*
X115956Y354441D02*
X107184Y354441D01*
X393569Y355199D02*
X402341Y355199D01*
X402341Y350617D01*
X393569Y350617D01*
X393569Y355199D01*
X393569Y351573D02*
X402341Y351573D01*
X402341Y352529D02*
X393569Y352529D01*
X393569Y353485D02*
X402341Y353485D01*
X402341Y354441D02*
X393569Y354441D01*
X393569Y345699D02*
X402341Y345699D01*
X402341Y341117D01*
X393569Y341117D01*
X393569Y345699D01*
X393569Y342073D02*
X402341Y342073D01*
X402341Y343029D02*
X393569Y343029D01*
X393569Y343985D02*
X402341Y343985D01*
X402341Y344941D02*
X393569Y344941D01*
X393569Y336199D02*
X402341Y336199D01*
X402341Y331617D01*
X393569Y331617D01*
X393569Y336199D01*
X393569Y332573D02*
X402341Y332573D01*
X402341Y333529D02*
X393569Y333529D01*
X393569Y334485D02*
X402341Y334485D01*
X402341Y335441D02*
X393569Y335441D01*
X375036Y336199D02*
X366264Y336199D01*
X375036Y336199D02*
X375036Y331617D01*
X366264Y331617D01*
X366264Y336199D01*
X366264Y332573D02*
X375036Y332573D01*
X375036Y333529D02*
X366264Y333529D01*
X366264Y334485D02*
X375036Y334485D01*
X375036Y335441D02*
X366264Y335441D01*
X366264Y345699D02*
X375036Y345699D01*
X375036Y341117D01*
X366264Y341117D01*
X366264Y345699D01*
X366264Y342073D02*
X375036Y342073D01*
X375036Y343029D02*
X366264Y343029D01*
X366264Y343985D02*
X375036Y343985D01*
X375036Y344941D02*
X366264Y344941D01*
X366264Y355199D02*
X375036Y355199D01*
X375036Y350617D01*
X366264Y350617D01*
X366264Y355199D01*
X366264Y351573D02*
X375036Y351573D01*
X375036Y352529D02*
X366264Y352529D01*
X366264Y353485D02*
X375036Y353485D01*
X375036Y354441D02*
X366264Y354441D01*
X652649Y355199D02*
X661421Y355199D01*
X661421Y350617D01*
X652649Y350617D01*
X652649Y355199D01*
X652649Y351573D02*
X661421Y351573D01*
X661421Y352529D02*
X652649Y352529D01*
X652649Y353485D02*
X661421Y353485D01*
X661421Y354441D02*
X652649Y354441D01*
X652649Y345699D02*
X661421Y345699D01*
X661421Y341117D01*
X652649Y341117D01*
X652649Y345699D01*
X652649Y342073D02*
X661421Y342073D01*
X661421Y343029D02*
X652649Y343029D01*
X652649Y343985D02*
X661421Y343985D01*
X661421Y344941D02*
X652649Y344941D01*
X652649Y336199D02*
X661421Y336199D01*
X661421Y331617D01*
X652649Y331617D01*
X652649Y336199D01*
X652649Y332573D02*
X661421Y332573D01*
X661421Y333529D02*
X652649Y333529D01*
X652649Y334485D02*
X661421Y334485D01*
X661421Y335441D02*
X652649Y335441D01*
X634116Y336199D02*
X625344Y336199D01*
X634116Y336199D02*
X634116Y331617D01*
X625344Y331617D01*
X625344Y336199D01*
X625344Y332573D02*
X634116Y332573D01*
X634116Y333529D02*
X625344Y333529D01*
X625344Y334485D02*
X634116Y334485D01*
X634116Y335441D02*
X625344Y335441D01*
X625344Y345699D02*
X634116Y345699D01*
X634116Y341117D01*
X625344Y341117D01*
X625344Y345699D01*
X625344Y342073D02*
X634116Y342073D01*
X634116Y343029D02*
X625344Y343029D01*
X625344Y343985D02*
X634116Y343985D01*
X634116Y344941D02*
X625344Y344941D01*
X625344Y355199D02*
X634116Y355199D01*
X634116Y350617D01*
X625344Y350617D01*
X625344Y355199D01*
X625344Y351573D02*
X634116Y351573D01*
X634116Y352529D02*
X625344Y352529D01*
X625344Y353485D02*
X634116Y353485D01*
X634116Y354441D02*
X625344Y354441D01*
X911729Y355199D02*
X920501Y355199D01*
X920501Y350617D01*
X911729Y350617D01*
X911729Y355199D01*
X911729Y351573D02*
X920501Y351573D01*
X920501Y352529D02*
X911729Y352529D01*
X911729Y353485D02*
X920501Y353485D01*
X920501Y354441D02*
X911729Y354441D01*
X911729Y345699D02*
X920501Y345699D01*
X920501Y341117D01*
X911729Y341117D01*
X911729Y345699D01*
X911729Y342073D02*
X920501Y342073D01*
X920501Y343029D02*
X911729Y343029D01*
X911729Y343985D02*
X920501Y343985D01*
X920501Y344941D02*
X911729Y344941D01*
X911729Y336199D02*
X920501Y336199D01*
X920501Y331617D01*
X911729Y331617D01*
X911729Y336199D01*
X911729Y332573D02*
X920501Y332573D01*
X920501Y333529D02*
X911729Y333529D01*
X911729Y334485D02*
X920501Y334485D01*
X920501Y335441D02*
X911729Y335441D01*
X893196Y336199D02*
X884424Y336199D01*
X893196Y336199D02*
X893196Y331617D01*
X884424Y331617D01*
X884424Y336199D01*
X884424Y332573D02*
X893196Y332573D01*
X893196Y333529D02*
X884424Y333529D01*
X884424Y334485D02*
X893196Y334485D01*
X893196Y335441D02*
X884424Y335441D01*
X884424Y345699D02*
X893196Y345699D01*
X893196Y341117D01*
X884424Y341117D01*
X884424Y345699D01*
X884424Y342073D02*
X893196Y342073D01*
X893196Y343029D02*
X884424Y343029D01*
X884424Y343985D02*
X893196Y343985D01*
X893196Y344941D02*
X884424Y344941D01*
X884424Y355199D02*
X893196Y355199D01*
X893196Y350617D01*
X884424Y350617D01*
X884424Y355199D01*
X884424Y351573D02*
X893196Y351573D01*
X893196Y352529D02*
X884424Y352529D01*
X884424Y353485D02*
X893196Y353485D01*
X893196Y354441D02*
X884424Y354441D01*
X1170809Y355199D02*
X1179581Y355199D01*
X1179581Y350617D01*
X1170809Y350617D01*
X1170809Y355199D01*
X1170809Y351573D02*
X1179581Y351573D01*
X1179581Y352529D02*
X1170809Y352529D01*
X1170809Y353485D02*
X1179581Y353485D01*
X1179581Y354441D02*
X1170809Y354441D01*
X1170809Y345699D02*
X1179581Y345699D01*
X1179581Y341117D01*
X1170809Y341117D01*
X1170809Y345699D01*
X1170809Y342073D02*
X1179581Y342073D01*
X1179581Y343029D02*
X1170809Y343029D01*
X1170809Y343985D02*
X1179581Y343985D01*
X1179581Y344941D02*
X1170809Y344941D01*
X1170809Y336199D02*
X1179581Y336199D01*
X1179581Y331617D01*
X1170809Y331617D01*
X1170809Y336199D01*
X1170809Y332573D02*
X1179581Y332573D01*
X1179581Y333529D02*
X1170809Y333529D01*
X1170809Y334485D02*
X1179581Y334485D01*
X1179581Y335441D02*
X1170809Y335441D01*
X1152276Y336199D02*
X1143504Y336199D01*
X1152276Y336199D02*
X1152276Y331617D01*
X1143504Y331617D01*
X1143504Y336199D01*
X1143504Y332573D02*
X1152276Y332573D01*
X1152276Y333529D02*
X1143504Y333529D01*
X1143504Y334485D02*
X1152276Y334485D01*
X1152276Y335441D02*
X1143504Y335441D01*
X1143504Y345699D02*
X1152276Y345699D01*
X1152276Y341117D01*
X1143504Y341117D01*
X1143504Y345699D01*
X1143504Y342073D02*
X1152276Y342073D01*
X1152276Y343029D02*
X1143504Y343029D01*
X1143504Y343985D02*
X1152276Y343985D01*
X1152276Y344941D02*
X1143504Y344941D01*
X1143504Y355199D02*
X1152276Y355199D01*
X1152276Y350617D01*
X1143504Y350617D01*
X1143504Y355199D01*
X1143504Y351573D02*
X1152276Y351573D01*
X1152276Y352529D02*
X1143504Y352529D01*
X1143504Y353485D02*
X1152276Y353485D01*
X1152276Y354441D02*
X1143504Y354441D01*
X1429889Y355199D02*
X1438661Y355199D01*
X1438661Y350617D01*
X1429889Y350617D01*
X1429889Y355199D01*
X1429889Y351573D02*
X1438661Y351573D01*
X1438661Y352529D02*
X1429889Y352529D01*
X1429889Y353485D02*
X1438661Y353485D01*
X1438661Y354441D02*
X1429889Y354441D01*
X1429889Y345699D02*
X1438661Y345699D01*
X1438661Y341117D01*
X1429889Y341117D01*
X1429889Y345699D01*
X1429889Y342073D02*
X1438661Y342073D01*
X1438661Y343029D02*
X1429889Y343029D01*
X1429889Y343985D02*
X1438661Y343985D01*
X1438661Y344941D02*
X1429889Y344941D01*
X1429889Y336199D02*
X1438661Y336199D01*
X1438661Y331617D01*
X1429889Y331617D01*
X1429889Y336199D01*
X1429889Y332573D02*
X1438661Y332573D01*
X1438661Y333529D02*
X1429889Y333529D01*
X1429889Y334485D02*
X1438661Y334485D01*
X1438661Y335441D02*
X1429889Y335441D01*
X1411356Y336199D02*
X1402584Y336199D01*
X1411356Y336199D02*
X1411356Y331617D01*
X1402584Y331617D01*
X1402584Y336199D01*
X1402584Y332573D02*
X1411356Y332573D01*
X1411356Y333529D02*
X1402584Y333529D01*
X1402584Y334485D02*
X1411356Y334485D01*
X1411356Y335441D02*
X1402584Y335441D01*
X1402584Y345699D02*
X1411356Y345699D01*
X1411356Y341117D01*
X1402584Y341117D01*
X1402584Y345699D01*
X1402584Y342073D02*
X1411356Y342073D01*
X1411356Y343029D02*
X1402584Y343029D01*
X1402584Y343985D02*
X1411356Y343985D01*
X1411356Y344941D02*
X1402584Y344941D01*
X1402584Y355199D02*
X1411356Y355199D01*
X1411356Y350617D01*
X1402584Y350617D01*
X1402584Y355199D01*
X1402584Y351573D02*
X1411356Y351573D01*
X1411356Y352529D02*
X1402584Y352529D01*
X1402584Y353485D02*
X1411356Y353485D01*
X1411356Y354441D02*
X1402584Y354441D01*
X143261Y487279D02*
X134489Y487279D01*
X143261Y487279D02*
X143261Y482697D01*
X134489Y482697D01*
X134489Y487279D01*
X134489Y483653D02*
X143261Y483653D01*
X143261Y484609D02*
X134489Y484609D01*
X134489Y485565D02*
X143261Y485565D01*
X143261Y486521D02*
X134489Y486521D01*
X134489Y477779D02*
X143261Y477779D01*
X143261Y473197D01*
X134489Y473197D01*
X134489Y477779D01*
X134489Y474153D02*
X143261Y474153D01*
X143261Y475109D02*
X134489Y475109D01*
X134489Y476065D02*
X143261Y476065D01*
X143261Y477021D02*
X134489Y477021D01*
X134489Y468279D02*
X143261Y468279D01*
X143261Y463697D01*
X134489Y463697D01*
X134489Y468279D01*
X134489Y464653D02*
X143261Y464653D01*
X143261Y465609D02*
X134489Y465609D01*
X134489Y466565D02*
X143261Y466565D01*
X143261Y467521D02*
X134489Y467521D01*
X115956Y468279D02*
X107184Y468279D01*
X115956Y468279D02*
X115956Y463697D01*
X107184Y463697D01*
X107184Y468279D01*
X107184Y464653D02*
X115956Y464653D01*
X115956Y465609D02*
X107184Y465609D01*
X107184Y466565D02*
X115956Y466565D01*
X115956Y467521D02*
X107184Y467521D01*
X107184Y477779D02*
X115956Y477779D01*
X115956Y473197D01*
X107184Y473197D01*
X107184Y477779D01*
X107184Y474153D02*
X115956Y474153D01*
X115956Y475109D02*
X107184Y475109D01*
X107184Y476065D02*
X115956Y476065D01*
X115956Y477021D02*
X107184Y477021D01*
X107184Y487279D02*
X115956Y487279D01*
X115956Y482697D01*
X107184Y482697D01*
X107184Y487279D01*
X107184Y483653D02*
X115956Y483653D01*
X115956Y484609D02*
X107184Y484609D01*
X107184Y485565D02*
X115956Y485565D01*
X115956Y486521D02*
X107184Y486521D01*
X393569Y487279D02*
X402341Y487279D01*
X402341Y482697D01*
X393569Y482697D01*
X393569Y487279D01*
X393569Y483653D02*
X402341Y483653D01*
X402341Y484609D02*
X393569Y484609D01*
X393569Y485565D02*
X402341Y485565D01*
X402341Y486521D02*
X393569Y486521D01*
X393569Y477779D02*
X402341Y477779D01*
X402341Y473197D01*
X393569Y473197D01*
X393569Y477779D01*
X393569Y474153D02*
X402341Y474153D01*
X402341Y475109D02*
X393569Y475109D01*
X393569Y476065D02*
X402341Y476065D01*
X402341Y477021D02*
X393569Y477021D01*
X393569Y468279D02*
X402341Y468279D01*
X402341Y463697D01*
X393569Y463697D01*
X393569Y468279D01*
X393569Y464653D02*
X402341Y464653D01*
X402341Y465609D02*
X393569Y465609D01*
X393569Y466565D02*
X402341Y466565D01*
X402341Y467521D02*
X393569Y467521D01*
X375036Y468279D02*
X366264Y468279D01*
X375036Y468279D02*
X375036Y463697D01*
X366264Y463697D01*
X366264Y468279D01*
X366264Y464653D02*
X375036Y464653D01*
X375036Y465609D02*
X366264Y465609D01*
X366264Y466565D02*
X375036Y466565D01*
X375036Y467521D02*
X366264Y467521D01*
X366264Y477779D02*
X375036Y477779D01*
X375036Y473197D01*
X366264Y473197D01*
X366264Y477779D01*
X366264Y474153D02*
X375036Y474153D01*
X375036Y475109D02*
X366264Y475109D01*
X366264Y476065D02*
X375036Y476065D01*
X375036Y477021D02*
X366264Y477021D01*
X366264Y487279D02*
X375036Y487279D01*
X375036Y482697D01*
X366264Y482697D01*
X366264Y487279D01*
X366264Y483653D02*
X375036Y483653D01*
X375036Y484609D02*
X366264Y484609D01*
X366264Y485565D02*
X375036Y485565D01*
X375036Y486521D02*
X366264Y486521D01*
X652649Y487279D02*
X661421Y487279D01*
X661421Y482697D01*
X652649Y482697D01*
X652649Y487279D01*
X652649Y483653D02*
X661421Y483653D01*
X661421Y484609D02*
X652649Y484609D01*
X652649Y485565D02*
X661421Y485565D01*
X661421Y486521D02*
X652649Y486521D01*
X652649Y477779D02*
X661421Y477779D01*
X661421Y473197D01*
X652649Y473197D01*
X652649Y477779D01*
X652649Y474153D02*
X661421Y474153D01*
X661421Y475109D02*
X652649Y475109D01*
X652649Y476065D02*
X661421Y476065D01*
X661421Y477021D02*
X652649Y477021D01*
X652649Y468279D02*
X661421Y468279D01*
X661421Y463697D01*
X652649Y463697D01*
X652649Y468279D01*
X652649Y464653D02*
X661421Y464653D01*
X661421Y465609D02*
X652649Y465609D01*
X652649Y466565D02*
X661421Y466565D01*
X661421Y467521D02*
X652649Y467521D01*
X634116Y468279D02*
X625344Y468279D01*
X634116Y468279D02*
X634116Y463697D01*
X625344Y463697D01*
X625344Y468279D01*
X625344Y464653D02*
X634116Y464653D01*
X634116Y465609D02*
X625344Y465609D01*
X625344Y466565D02*
X634116Y466565D01*
X634116Y467521D02*
X625344Y467521D01*
X625344Y477779D02*
X634116Y477779D01*
X634116Y473197D01*
X625344Y473197D01*
X625344Y477779D01*
X625344Y474153D02*
X634116Y474153D01*
X634116Y475109D02*
X625344Y475109D01*
X625344Y476065D02*
X634116Y476065D01*
X634116Y477021D02*
X625344Y477021D01*
X625344Y487279D02*
X634116Y487279D01*
X634116Y482697D01*
X625344Y482697D01*
X625344Y487279D01*
X625344Y483653D02*
X634116Y483653D01*
X634116Y484609D02*
X625344Y484609D01*
X625344Y485565D02*
X634116Y485565D01*
X634116Y486521D02*
X625344Y486521D01*
X911729Y487279D02*
X920501Y487279D01*
X920501Y482697D01*
X911729Y482697D01*
X911729Y487279D01*
X911729Y483653D02*
X920501Y483653D01*
X920501Y484609D02*
X911729Y484609D01*
X911729Y485565D02*
X920501Y485565D01*
X920501Y486521D02*
X911729Y486521D01*
X911729Y477779D02*
X920501Y477779D01*
X920501Y473197D01*
X911729Y473197D01*
X911729Y477779D01*
X911729Y474153D02*
X920501Y474153D01*
X920501Y475109D02*
X911729Y475109D01*
X911729Y476065D02*
X920501Y476065D01*
X920501Y477021D02*
X911729Y477021D01*
X911729Y468279D02*
X920501Y468279D01*
X920501Y463697D01*
X911729Y463697D01*
X911729Y468279D01*
X911729Y464653D02*
X920501Y464653D01*
X920501Y465609D02*
X911729Y465609D01*
X911729Y466565D02*
X920501Y466565D01*
X920501Y467521D02*
X911729Y467521D01*
X893196Y468279D02*
X884424Y468279D01*
X893196Y468279D02*
X893196Y463697D01*
X884424Y463697D01*
X884424Y468279D01*
X884424Y464653D02*
X893196Y464653D01*
X893196Y465609D02*
X884424Y465609D01*
X884424Y466565D02*
X893196Y466565D01*
X893196Y467521D02*
X884424Y467521D01*
X884424Y477779D02*
X893196Y477779D01*
X893196Y473197D01*
X884424Y473197D01*
X884424Y477779D01*
X884424Y474153D02*
X893196Y474153D01*
X893196Y475109D02*
X884424Y475109D01*
X884424Y476065D02*
X893196Y476065D01*
X893196Y477021D02*
X884424Y477021D01*
X884424Y487279D02*
X893196Y487279D01*
X893196Y482697D01*
X884424Y482697D01*
X884424Y487279D01*
X884424Y483653D02*
X893196Y483653D01*
X893196Y484609D02*
X884424Y484609D01*
X884424Y485565D02*
X893196Y485565D01*
X893196Y486521D02*
X884424Y486521D01*
X1170809Y487279D02*
X1179581Y487279D01*
X1179581Y482697D01*
X1170809Y482697D01*
X1170809Y487279D01*
X1170809Y483653D02*
X1179581Y483653D01*
X1179581Y484609D02*
X1170809Y484609D01*
X1170809Y485565D02*
X1179581Y485565D01*
X1179581Y486521D02*
X1170809Y486521D01*
X1170809Y477779D02*
X1179581Y477779D01*
X1179581Y473197D01*
X1170809Y473197D01*
X1170809Y477779D01*
X1170809Y474153D02*
X1179581Y474153D01*
X1179581Y475109D02*
X1170809Y475109D01*
X1170809Y476065D02*
X1179581Y476065D01*
X1179581Y477021D02*
X1170809Y477021D01*
X1170809Y468279D02*
X1179581Y468279D01*
X1179581Y463697D01*
X1170809Y463697D01*
X1170809Y468279D01*
X1170809Y464653D02*
X1179581Y464653D01*
X1179581Y465609D02*
X1170809Y465609D01*
X1170809Y466565D02*
X1179581Y466565D01*
X1179581Y467521D02*
X1170809Y467521D01*
X1152276Y468279D02*
X1143504Y468279D01*
X1152276Y468279D02*
X1152276Y463697D01*
X1143504Y463697D01*
X1143504Y468279D01*
X1143504Y464653D02*
X1152276Y464653D01*
X1152276Y465609D02*
X1143504Y465609D01*
X1143504Y466565D02*
X1152276Y466565D01*
X1152276Y467521D02*
X1143504Y467521D01*
X1143504Y477779D02*
X1152276Y477779D01*
X1152276Y473197D01*
X1143504Y473197D01*
X1143504Y477779D01*
X1143504Y474153D02*
X1152276Y474153D01*
X1152276Y475109D02*
X1143504Y475109D01*
X1143504Y476065D02*
X1152276Y476065D01*
X1152276Y477021D02*
X1143504Y477021D01*
X1143504Y487279D02*
X1152276Y487279D01*
X1152276Y482697D01*
X1143504Y482697D01*
X1143504Y487279D01*
X1143504Y483653D02*
X1152276Y483653D01*
X1152276Y484609D02*
X1143504Y484609D01*
X1143504Y485565D02*
X1152276Y485565D01*
X1152276Y486521D02*
X1143504Y486521D01*
X1429889Y487279D02*
X1438661Y487279D01*
X1438661Y482697D01*
X1429889Y482697D01*
X1429889Y487279D01*
X1429889Y483653D02*
X1438661Y483653D01*
X1438661Y484609D02*
X1429889Y484609D01*
X1429889Y485565D02*
X1438661Y485565D01*
X1438661Y486521D02*
X1429889Y486521D01*
X1429889Y477779D02*
X1438661Y477779D01*
X1438661Y473197D01*
X1429889Y473197D01*
X1429889Y477779D01*
X1429889Y474153D02*
X1438661Y474153D01*
X1438661Y475109D02*
X1429889Y475109D01*
X1429889Y476065D02*
X1438661Y476065D01*
X1438661Y477021D02*
X1429889Y477021D01*
X1429889Y468279D02*
X1438661Y468279D01*
X1438661Y463697D01*
X1429889Y463697D01*
X1429889Y468279D01*
X1429889Y464653D02*
X1438661Y464653D01*
X1438661Y465609D02*
X1429889Y465609D01*
X1429889Y466565D02*
X1438661Y466565D01*
X1438661Y467521D02*
X1429889Y467521D01*
X1411356Y468279D02*
X1402584Y468279D01*
X1411356Y468279D02*
X1411356Y463697D01*
X1402584Y463697D01*
X1402584Y468279D01*
X1402584Y464653D02*
X1411356Y464653D01*
X1411356Y465609D02*
X1402584Y465609D01*
X1402584Y466565D02*
X1411356Y466565D01*
X1411356Y467521D02*
X1402584Y467521D01*
X1402584Y477779D02*
X1411356Y477779D01*
X1411356Y473197D01*
X1402584Y473197D01*
X1402584Y477779D01*
X1402584Y474153D02*
X1411356Y474153D01*
X1411356Y475109D02*
X1402584Y475109D01*
X1402584Y476065D02*
X1411356Y476065D01*
X1411356Y477021D02*
X1402584Y477021D01*
X1402584Y487279D02*
X1411356Y487279D01*
X1411356Y482697D01*
X1402584Y482697D01*
X1402584Y487279D01*
X1402584Y483653D02*
X1411356Y483653D01*
X1411356Y484609D02*
X1402584Y484609D01*
X1402584Y485565D02*
X1411356Y485565D01*
X1411356Y486521D02*
X1402584Y486521D01*
X143261Y619359D02*
X134489Y619359D01*
X143261Y619359D02*
X143261Y614777D01*
X134489Y614777D01*
X134489Y619359D01*
X134489Y615733D02*
X143261Y615733D01*
X143261Y616689D02*
X134489Y616689D01*
X134489Y617645D02*
X143261Y617645D01*
X143261Y618601D02*
X134489Y618601D01*
X134489Y609859D02*
X143261Y609859D01*
X143261Y605277D01*
X134489Y605277D01*
X134489Y609859D01*
X134489Y606233D02*
X143261Y606233D01*
X143261Y607189D02*
X134489Y607189D01*
X134489Y608145D02*
X143261Y608145D01*
X143261Y609101D02*
X134489Y609101D01*
X134489Y600359D02*
X143261Y600359D01*
X143261Y595777D01*
X134489Y595777D01*
X134489Y600359D01*
X134489Y596733D02*
X143261Y596733D01*
X143261Y597689D02*
X134489Y597689D01*
X134489Y598645D02*
X143261Y598645D01*
X143261Y599601D02*
X134489Y599601D01*
X115956Y600359D02*
X107184Y600359D01*
X115956Y600359D02*
X115956Y595777D01*
X107184Y595777D01*
X107184Y600359D01*
X107184Y596733D02*
X115956Y596733D01*
X115956Y597689D02*
X107184Y597689D01*
X107184Y598645D02*
X115956Y598645D01*
X115956Y599601D02*
X107184Y599601D01*
X107184Y609859D02*
X115956Y609859D01*
X115956Y605277D01*
X107184Y605277D01*
X107184Y609859D01*
X107184Y606233D02*
X115956Y606233D01*
X115956Y607189D02*
X107184Y607189D01*
X107184Y608145D02*
X115956Y608145D01*
X115956Y609101D02*
X107184Y609101D01*
X107184Y619359D02*
X115956Y619359D01*
X115956Y614777D01*
X107184Y614777D01*
X107184Y619359D01*
X107184Y615733D02*
X115956Y615733D01*
X115956Y616689D02*
X107184Y616689D01*
X107184Y617645D02*
X115956Y617645D01*
X115956Y618601D02*
X107184Y618601D01*
X393569Y619359D02*
X402341Y619359D01*
X402341Y614777D01*
X393569Y614777D01*
X393569Y619359D01*
X393569Y615733D02*
X402341Y615733D01*
X402341Y616689D02*
X393569Y616689D01*
X393569Y617645D02*
X402341Y617645D01*
X402341Y618601D02*
X393569Y618601D01*
X393569Y609859D02*
X402341Y609859D01*
X402341Y605277D01*
X393569Y605277D01*
X393569Y609859D01*
X393569Y606233D02*
X402341Y606233D01*
X402341Y607189D02*
X393569Y607189D01*
X393569Y608145D02*
X402341Y608145D01*
X402341Y609101D02*
X393569Y609101D01*
X393569Y600359D02*
X402341Y600359D01*
X402341Y595777D01*
X393569Y595777D01*
X393569Y600359D01*
X393569Y596733D02*
X402341Y596733D01*
X402341Y597689D02*
X393569Y597689D01*
X393569Y598645D02*
X402341Y598645D01*
X402341Y599601D02*
X393569Y599601D01*
X375036Y600359D02*
X366264Y600359D01*
X375036Y600359D02*
X375036Y595777D01*
X366264Y595777D01*
X366264Y600359D01*
X366264Y596733D02*
X375036Y596733D01*
X375036Y597689D02*
X366264Y597689D01*
X366264Y598645D02*
X375036Y598645D01*
X375036Y599601D02*
X366264Y599601D01*
X366264Y609859D02*
X375036Y609859D01*
X375036Y605277D01*
X366264Y605277D01*
X366264Y609859D01*
X366264Y606233D02*
X375036Y606233D01*
X375036Y607189D02*
X366264Y607189D01*
X366264Y608145D02*
X375036Y608145D01*
X375036Y609101D02*
X366264Y609101D01*
X366264Y619359D02*
X375036Y619359D01*
X375036Y614777D01*
X366264Y614777D01*
X366264Y619359D01*
X366264Y615733D02*
X375036Y615733D01*
X375036Y616689D02*
X366264Y616689D01*
X366264Y617645D02*
X375036Y617645D01*
X375036Y618601D02*
X366264Y618601D01*
X652649Y619359D02*
X661421Y619359D01*
X661421Y614777D01*
X652649Y614777D01*
X652649Y619359D01*
X652649Y615733D02*
X661421Y615733D01*
X661421Y616689D02*
X652649Y616689D01*
X652649Y617645D02*
X661421Y617645D01*
X661421Y618601D02*
X652649Y618601D01*
X652649Y609859D02*
X661421Y609859D01*
X661421Y605277D01*
X652649Y605277D01*
X652649Y609859D01*
X652649Y606233D02*
X661421Y606233D01*
X661421Y607189D02*
X652649Y607189D01*
X652649Y608145D02*
X661421Y608145D01*
X661421Y609101D02*
X652649Y609101D01*
X652649Y600359D02*
X661421Y600359D01*
X661421Y595777D01*
X652649Y595777D01*
X652649Y600359D01*
X652649Y596733D02*
X661421Y596733D01*
X661421Y597689D02*
X652649Y597689D01*
X652649Y598645D02*
X661421Y598645D01*
X661421Y599601D02*
X652649Y599601D01*
X634116Y600359D02*
X625344Y600359D01*
X634116Y600359D02*
X634116Y595777D01*
X625344Y595777D01*
X625344Y600359D01*
X625344Y596733D02*
X634116Y596733D01*
X634116Y597689D02*
X625344Y597689D01*
X625344Y598645D02*
X634116Y598645D01*
X634116Y599601D02*
X625344Y599601D01*
X625344Y609859D02*
X634116Y609859D01*
X634116Y605277D01*
X625344Y605277D01*
X625344Y609859D01*
X625344Y606233D02*
X634116Y606233D01*
X634116Y607189D02*
X625344Y607189D01*
X625344Y608145D02*
X634116Y608145D01*
X634116Y609101D02*
X625344Y609101D01*
X625344Y619359D02*
X634116Y619359D01*
X634116Y614777D01*
X625344Y614777D01*
X625344Y619359D01*
X625344Y615733D02*
X634116Y615733D01*
X634116Y616689D02*
X625344Y616689D01*
X625344Y617645D02*
X634116Y617645D01*
X634116Y618601D02*
X625344Y618601D01*
X911729Y619359D02*
X920501Y619359D01*
X920501Y614777D01*
X911729Y614777D01*
X911729Y619359D01*
X911729Y615733D02*
X920501Y615733D01*
X920501Y616689D02*
X911729Y616689D01*
X911729Y617645D02*
X920501Y617645D01*
X920501Y618601D02*
X911729Y618601D01*
X911729Y609859D02*
X920501Y609859D01*
X920501Y605277D01*
X911729Y605277D01*
X911729Y609859D01*
X911729Y606233D02*
X920501Y606233D01*
X920501Y607189D02*
X911729Y607189D01*
X911729Y608145D02*
X920501Y608145D01*
X920501Y609101D02*
X911729Y609101D01*
X911729Y600359D02*
X920501Y600359D01*
X920501Y595777D01*
X911729Y595777D01*
X911729Y600359D01*
X911729Y596733D02*
X920501Y596733D01*
X920501Y597689D02*
X911729Y597689D01*
X911729Y598645D02*
X920501Y598645D01*
X920501Y599601D02*
X911729Y599601D01*
X893196Y600359D02*
X884424Y600359D01*
X893196Y600359D02*
X893196Y595777D01*
X884424Y595777D01*
X884424Y600359D01*
X884424Y596733D02*
X893196Y596733D01*
X893196Y597689D02*
X884424Y597689D01*
X884424Y598645D02*
X893196Y598645D01*
X893196Y599601D02*
X884424Y599601D01*
X884424Y609859D02*
X893196Y609859D01*
X893196Y605277D01*
X884424Y605277D01*
X884424Y609859D01*
X884424Y606233D02*
X893196Y606233D01*
X893196Y607189D02*
X884424Y607189D01*
X884424Y608145D02*
X893196Y608145D01*
X893196Y609101D02*
X884424Y609101D01*
X884424Y619359D02*
X893196Y619359D01*
X893196Y614777D01*
X884424Y614777D01*
X884424Y619359D01*
X884424Y615733D02*
X893196Y615733D01*
X893196Y616689D02*
X884424Y616689D01*
X884424Y617645D02*
X893196Y617645D01*
X893196Y618601D02*
X884424Y618601D01*
X1170809Y619359D02*
X1179581Y619359D01*
X1179581Y614777D01*
X1170809Y614777D01*
X1170809Y619359D01*
X1170809Y615733D02*
X1179581Y615733D01*
X1179581Y616689D02*
X1170809Y616689D01*
X1170809Y617645D02*
X1179581Y617645D01*
X1179581Y618601D02*
X1170809Y618601D01*
X1170809Y609859D02*
X1179581Y609859D01*
X1179581Y605277D01*
X1170809Y605277D01*
X1170809Y609859D01*
X1170809Y606233D02*
X1179581Y606233D01*
X1179581Y607189D02*
X1170809Y607189D01*
X1170809Y608145D02*
X1179581Y608145D01*
X1179581Y609101D02*
X1170809Y609101D01*
X1170809Y600359D02*
X1179581Y600359D01*
X1179581Y595777D01*
X1170809Y595777D01*
X1170809Y600359D01*
X1170809Y596733D02*
X1179581Y596733D01*
X1179581Y597689D02*
X1170809Y597689D01*
X1170809Y598645D02*
X1179581Y598645D01*
X1179581Y599601D02*
X1170809Y599601D01*
X1152276Y600359D02*
X1143504Y600359D01*
X1152276Y600359D02*
X1152276Y595777D01*
X1143504Y595777D01*
X1143504Y600359D01*
X1143504Y596733D02*
X1152276Y596733D01*
X1152276Y597689D02*
X1143504Y597689D01*
X1143504Y598645D02*
X1152276Y598645D01*
X1152276Y599601D02*
X1143504Y599601D01*
X1143504Y609859D02*
X1152276Y609859D01*
X1152276Y605277D01*
X1143504Y605277D01*
X1143504Y609859D01*
X1143504Y606233D02*
X1152276Y606233D01*
X1152276Y607189D02*
X1143504Y607189D01*
X1143504Y608145D02*
X1152276Y608145D01*
X1152276Y609101D02*
X1143504Y609101D01*
X1143504Y619359D02*
X1152276Y619359D01*
X1152276Y614777D01*
X1143504Y614777D01*
X1143504Y619359D01*
X1143504Y615733D02*
X1152276Y615733D01*
X1152276Y616689D02*
X1143504Y616689D01*
X1143504Y617645D02*
X1152276Y617645D01*
X1152276Y618601D02*
X1143504Y618601D01*
X1429889Y619359D02*
X1438661Y619359D01*
X1438661Y614777D01*
X1429889Y614777D01*
X1429889Y619359D01*
X1429889Y615733D02*
X1438661Y615733D01*
X1438661Y616689D02*
X1429889Y616689D01*
X1429889Y617645D02*
X1438661Y617645D01*
X1438661Y618601D02*
X1429889Y618601D01*
X1429889Y609859D02*
X1438661Y609859D01*
X1438661Y605277D01*
X1429889Y605277D01*
X1429889Y609859D01*
X1429889Y606233D02*
X1438661Y606233D01*
X1438661Y607189D02*
X1429889Y607189D01*
X1429889Y608145D02*
X1438661Y608145D01*
X1438661Y609101D02*
X1429889Y609101D01*
X1429889Y600359D02*
X1438661Y600359D01*
X1438661Y595777D01*
X1429889Y595777D01*
X1429889Y600359D01*
X1429889Y596733D02*
X1438661Y596733D01*
X1438661Y597689D02*
X1429889Y597689D01*
X1429889Y598645D02*
X1438661Y598645D01*
X1438661Y599601D02*
X1429889Y599601D01*
X1411356Y600359D02*
X1402584Y600359D01*
X1411356Y600359D02*
X1411356Y595777D01*
X1402584Y595777D01*
X1402584Y600359D01*
X1402584Y596733D02*
X1411356Y596733D01*
X1411356Y597689D02*
X1402584Y597689D01*
X1402584Y598645D02*
X1411356Y598645D01*
X1411356Y599601D02*
X1402584Y599601D01*
X1402584Y609859D02*
X1411356Y609859D01*
X1411356Y605277D01*
X1402584Y605277D01*
X1402584Y609859D01*
X1402584Y606233D02*
X1411356Y606233D01*
X1411356Y607189D02*
X1402584Y607189D01*
X1402584Y608145D02*
X1411356Y608145D01*
X1411356Y609101D02*
X1402584Y609101D01*
X1402584Y619359D02*
X1411356Y619359D01*
X1411356Y614777D01*
X1402584Y614777D01*
X1402584Y619359D01*
X1402584Y615733D02*
X1411356Y615733D01*
X1411356Y616689D02*
X1402584Y616689D01*
X1402584Y617645D02*
X1411356Y617645D01*
X1411356Y618601D02*
X1402584Y618601D01*
X143261Y751439D02*
X134489Y751439D01*
X143261Y751439D02*
X143261Y746857D01*
X134489Y746857D01*
X134489Y751439D01*
X134489Y747813D02*
X143261Y747813D01*
X143261Y748769D02*
X134489Y748769D01*
X134489Y749725D02*
X143261Y749725D01*
X143261Y750681D02*
X134489Y750681D01*
X134489Y741939D02*
X143261Y741939D01*
X143261Y737357D01*
X134489Y737357D01*
X134489Y741939D01*
X134489Y738313D02*
X143261Y738313D01*
X143261Y739269D02*
X134489Y739269D01*
X134489Y740225D02*
X143261Y740225D01*
X143261Y741181D02*
X134489Y741181D01*
X134489Y732439D02*
X143261Y732439D01*
X143261Y727857D01*
X134489Y727857D01*
X134489Y732439D01*
X134489Y728813D02*
X143261Y728813D01*
X143261Y729769D02*
X134489Y729769D01*
X134489Y730725D02*
X143261Y730725D01*
X143261Y731681D02*
X134489Y731681D01*
X115956Y732439D02*
X107184Y732439D01*
X115956Y732439D02*
X115956Y727857D01*
X107184Y727857D01*
X107184Y732439D01*
X107184Y728813D02*
X115956Y728813D01*
X115956Y729769D02*
X107184Y729769D01*
X107184Y730725D02*
X115956Y730725D01*
X115956Y731681D02*
X107184Y731681D01*
X107184Y741939D02*
X115956Y741939D01*
X115956Y737357D01*
X107184Y737357D01*
X107184Y741939D01*
X107184Y738313D02*
X115956Y738313D01*
X115956Y739269D02*
X107184Y739269D01*
X107184Y740225D02*
X115956Y740225D01*
X115956Y741181D02*
X107184Y741181D01*
X107184Y751439D02*
X115956Y751439D01*
X115956Y746857D01*
X107184Y746857D01*
X107184Y751439D01*
X107184Y747813D02*
X115956Y747813D01*
X115956Y748769D02*
X107184Y748769D01*
X107184Y749725D02*
X115956Y749725D01*
X115956Y750681D02*
X107184Y750681D01*
X393569Y751439D02*
X402341Y751439D01*
X402341Y746857D01*
X393569Y746857D01*
X393569Y751439D01*
X393569Y747813D02*
X402341Y747813D01*
X402341Y748769D02*
X393569Y748769D01*
X393569Y749725D02*
X402341Y749725D01*
X402341Y750681D02*
X393569Y750681D01*
X393569Y741939D02*
X402341Y741939D01*
X402341Y737357D01*
X393569Y737357D01*
X393569Y741939D01*
X393569Y738313D02*
X402341Y738313D01*
X402341Y739269D02*
X393569Y739269D01*
X393569Y740225D02*
X402341Y740225D01*
X402341Y741181D02*
X393569Y741181D01*
X393569Y732439D02*
X402341Y732439D01*
X402341Y727857D01*
X393569Y727857D01*
X393569Y732439D01*
X393569Y728813D02*
X402341Y728813D01*
X402341Y729769D02*
X393569Y729769D01*
X393569Y730725D02*
X402341Y730725D01*
X402341Y731681D02*
X393569Y731681D01*
X375036Y732439D02*
X366264Y732439D01*
X375036Y732439D02*
X375036Y727857D01*
X366264Y727857D01*
X366264Y732439D01*
X366264Y728813D02*
X375036Y728813D01*
X375036Y729769D02*
X366264Y729769D01*
X366264Y730725D02*
X375036Y730725D01*
X375036Y731681D02*
X366264Y731681D01*
X366264Y741939D02*
X375036Y741939D01*
X375036Y737357D01*
X366264Y737357D01*
X366264Y741939D01*
X366264Y738313D02*
X375036Y738313D01*
X375036Y739269D02*
X366264Y739269D01*
X366264Y740225D02*
X375036Y740225D01*
X375036Y741181D02*
X366264Y741181D01*
X366264Y751439D02*
X375036Y751439D01*
X375036Y746857D01*
X366264Y746857D01*
X366264Y751439D01*
X366264Y747813D02*
X375036Y747813D01*
X375036Y748769D02*
X366264Y748769D01*
X366264Y749725D02*
X375036Y749725D01*
X375036Y750681D02*
X366264Y750681D01*
X652649Y751439D02*
X661421Y751439D01*
X661421Y746857D01*
X652649Y746857D01*
X652649Y751439D01*
X652649Y747813D02*
X661421Y747813D01*
X661421Y748769D02*
X652649Y748769D01*
X652649Y749725D02*
X661421Y749725D01*
X661421Y750681D02*
X652649Y750681D01*
X652649Y741939D02*
X661421Y741939D01*
X661421Y737357D01*
X652649Y737357D01*
X652649Y741939D01*
X652649Y738313D02*
X661421Y738313D01*
X661421Y739269D02*
X652649Y739269D01*
X652649Y740225D02*
X661421Y740225D01*
X661421Y741181D02*
X652649Y741181D01*
X652649Y732439D02*
X661421Y732439D01*
X661421Y727857D01*
X652649Y727857D01*
X652649Y732439D01*
X652649Y728813D02*
X661421Y728813D01*
X661421Y729769D02*
X652649Y729769D01*
X652649Y730725D02*
X661421Y730725D01*
X661421Y731681D02*
X652649Y731681D01*
X634116Y732439D02*
X625344Y732439D01*
X634116Y732439D02*
X634116Y727857D01*
X625344Y727857D01*
X625344Y732439D01*
X625344Y728813D02*
X634116Y728813D01*
X634116Y729769D02*
X625344Y729769D01*
X625344Y730725D02*
X634116Y730725D01*
X634116Y731681D02*
X625344Y731681D01*
X625344Y741939D02*
X634116Y741939D01*
X634116Y737357D01*
X625344Y737357D01*
X625344Y741939D01*
X625344Y738313D02*
X634116Y738313D01*
X634116Y739269D02*
X625344Y739269D01*
X625344Y740225D02*
X634116Y740225D01*
X634116Y741181D02*
X625344Y741181D01*
X625344Y751439D02*
X634116Y751439D01*
X634116Y746857D01*
X625344Y746857D01*
X625344Y751439D01*
X625344Y747813D02*
X634116Y747813D01*
X634116Y748769D02*
X625344Y748769D01*
X625344Y749725D02*
X634116Y749725D01*
X634116Y750681D02*
X625344Y750681D01*
X911729Y751439D02*
X920501Y751439D01*
X920501Y746857D01*
X911729Y746857D01*
X911729Y751439D01*
X911729Y747813D02*
X920501Y747813D01*
X920501Y748769D02*
X911729Y748769D01*
X911729Y749725D02*
X920501Y749725D01*
X920501Y750681D02*
X911729Y750681D01*
X911729Y741939D02*
X920501Y741939D01*
X920501Y737357D01*
X911729Y737357D01*
X911729Y741939D01*
X911729Y738313D02*
X920501Y738313D01*
X920501Y739269D02*
X911729Y739269D01*
X911729Y740225D02*
X920501Y740225D01*
X920501Y741181D02*
X911729Y741181D01*
X911729Y732439D02*
X920501Y732439D01*
X920501Y727857D01*
X911729Y727857D01*
X911729Y732439D01*
X911729Y728813D02*
X920501Y728813D01*
X920501Y729769D02*
X911729Y729769D01*
X911729Y730725D02*
X920501Y730725D01*
X920501Y731681D02*
X911729Y731681D01*
X893196Y732439D02*
X884424Y732439D01*
X893196Y732439D02*
X893196Y727857D01*
X884424Y727857D01*
X884424Y732439D01*
X884424Y728813D02*
X893196Y728813D01*
X893196Y729769D02*
X884424Y729769D01*
X884424Y730725D02*
X893196Y730725D01*
X893196Y731681D02*
X884424Y731681D01*
X884424Y741939D02*
X893196Y741939D01*
X893196Y737357D01*
X884424Y737357D01*
X884424Y741939D01*
X884424Y738313D02*
X893196Y738313D01*
X893196Y739269D02*
X884424Y739269D01*
X884424Y740225D02*
X893196Y740225D01*
X893196Y741181D02*
X884424Y741181D01*
X884424Y751439D02*
X893196Y751439D01*
X893196Y746857D01*
X884424Y746857D01*
X884424Y751439D01*
X884424Y747813D02*
X893196Y747813D01*
X893196Y748769D02*
X884424Y748769D01*
X884424Y749725D02*
X893196Y749725D01*
X893196Y750681D02*
X884424Y750681D01*
X1170809Y751439D02*
X1179581Y751439D01*
X1179581Y746857D01*
X1170809Y746857D01*
X1170809Y751439D01*
X1170809Y747813D02*
X1179581Y747813D01*
X1179581Y748769D02*
X1170809Y748769D01*
X1170809Y749725D02*
X1179581Y749725D01*
X1179581Y750681D02*
X1170809Y750681D01*
X1170809Y741939D02*
X1179581Y741939D01*
X1179581Y737357D01*
X1170809Y737357D01*
X1170809Y741939D01*
X1170809Y738313D02*
X1179581Y738313D01*
X1179581Y739269D02*
X1170809Y739269D01*
X1170809Y740225D02*
X1179581Y740225D01*
X1179581Y741181D02*
X1170809Y741181D01*
X1170809Y732439D02*
X1179581Y732439D01*
X1179581Y727857D01*
X1170809Y727857D01*
X1170809Y732439D01*
X1170809Y728813D02*
X1179581Y728813D01*
X1179581Y729769D02*
X1170809Y729769D01*
X1170809Y730725D02*
X1179581Y730725D01*
X1179581Y731681D02*
X1170809Y731681D01*
X1152276Y732439D02*
X1143504Y732439D01*
X1152276Y732439D02*
X1152276Y727857D01*
X1143504Y727857D01*
X1143504Y732439D01*
X1143504Y728813D02*
X1152276Y728813D01*
X1152276Y729769D02*
X1143504Y729769D01*
X1143504Y730725D02*
X1152276Y730725D01*
X1152276Y731681D02*
X1143504Y731681D01*
X1143504Y741939D02*
X1152276Y741939D01*
X1152276Y737357D01*
X1143504Y737357D01*
X1143504Y741939D01*
X1143504Y738313D02*
X1152276Y738313D01*
X1152276Y739269D02*
X1143504Y739269D01*
X1143504Y740225D02*
X1152276Y740225D01*
X1152276Y741181D02*
X1143504Y741181D01*
X1143504Y751439D02*
X1152276Y751439D01*
X1152276Y746857D01*
X1143504Y746857D01*
X1143504Y751439D01*
X1143504Y747813D02*
X1152276Y747813D01*
X1152276Y748769D02*
X1143504Y748769D01*
X1143504Y749725D02*
X1152276Y749725D01*
X1152276Y750681D02*
X1143504Y750681D01*
X1429889Y751439D02*
X1438661Y751439D01*
X1438661Y746857D01*
X1429889Y746857D01*
X1429889Y751439D01*
X1429889Y747813D02*
X1438661Y747813D01*
X1438661Y748769D02*
X1429889Y748769D01*
X1429889Y749725D02*
X1438661Y749725D01*
X1438661Y750681D02*
X1429889Y750681D01*
X1429889Y741939D02*
X1438661Y741939D01*
X1438661Y737357D01*
X1429889Y737357D01*
X1429889Y741939D01*
X1429889Y738313D02*
X1438661Y738313D01*
X1438661Y739269D02*
X1429889Y739269D01*
X1429889Y740225D02*
X1438661Y740225D01*
X1438661Y741181D02*
X1429889Y741181D01*
X1429889Y732439D02*
X1438661Y732439D01*
X1438661Y727857D01*
X1429889Y727857D01*
X1429889Y732439D01*
X1429889Y728813D02*
X1438661Y728813D01*
X1438661Y729769D02*
X1429889Y729769D01*
X1429889Y730725D02*
X1438661Y730725D01*
X1438661Y731681D02*
X1429889Y731681D01*
X1411356Y732439D02*
X1402584Y732439D01*
X1411356Y732439D02*
X1411356Y727857D01*
X1402584Y727857D01*
X1402584Y732439D01*
X1402584Y728813D02*
X1411356Y728813D01*
X1411356Y729769D02*
X1402584Y729769D01*
X1402584Y730725D02*
X1411356Y730725D01*
X1411356Y731681D02*
X1402584Y731681D01*
X1402584Y741939D02*
X1411356Y741939D01*
X1411356Y737357D01*
X1402584Y737357D01*
X1402584Y741939D01*
X1402584Y738313D02*
X1411356Y738313D01*
X1411356Y739269D02*
X1402584Y739269D01*
X1402584Y740225D02*
X1411356Y740225D01*
X1411356Y741181D02*
X1402584Y741181D01*
X1402584Y751439D02*
X1411356Y751439D01*
X1411356Y746857D01*
X1402584Y746857D01*
X1402584Y751439D01*
X1402584Y747813D02*
X1411356Y747813D01*
X1411356Y748769D02*
X1402584Y748769D01*
X1402584Y749725D02*
X1411356Y749725D01*
X1411356Y750681D02*
X1402584Y750681D01*
M02*
