M48
;GenerationSoftware,Autodesk,EAGLE,9.6.2*%
;CreationDate,2023-10-30T15:16:30Z*%
FMAT,2
ICI,OFF
METRIC,TZ,000.000
T4C0.305
T3C0.381
T2C1.016
T1C3.302
%
G90
M71
T1
X48768Y2540
X100584Y74676
X80264Y74676
X22860Y80264
X2540Y80264
X22860Y100584
X2540Y100584
X48768Y80264
X28448Y80264
X48768Y100584
X28448Y100584
X74676Y80264
X54356Y80264
X74676Y100584
X54356Y100584
X100584Y80264
X80264Y80264
X100584Y100584
X22860Y2540
X2540Y2540
X22860Y22860
X2540Y22860
X74676Y48768
X28448Y2540
X48768Y22860
X28448Y22860
X74676Y2540
X54356Y2540
X74676Y22860
X54356Y22860
X100584Y2540
X80264Y2540
X100584Y22860
X80264Y22860
X22860Y28448
X2540Y28448
X22860Y48768
X2540Y48768
X48768Y28448
X28448Y28448
X48768Y48768
X28448Y48768
X74676Y28448
X54356Y28448
X80264Y100584
X54356Y48768
X100584Y28448
X80264Y28448
X100584Y48768
X80264Y48768
X22860Y54356
X2540Y54356
X22860Y74676
X2540Y74676
X48768Y54356
X28448Y54356
X48768Y74676
X28448Y74676
X74676Y54356
X54356Y54356
X74676Y74676
X54356Y74676
X100584Y54356
X80264Y54356
T2
X96774Y78994
X34798Y78994
X37338Y78994
X39878Y78994
X42418Y78994
X44958Y78994
X58166Y78994
X60706Y78994
X63246Y78994
X65786Y78994
X68326Y78994
X70866Y78994
X84074Y78994
X86614Y78994
X89154Y78994
X60706Y1270
X91694Y78994
X94234Y78994
X6350Y1270
X8890Y1270
X11430Y1270
X13970Y1270
X16510Y1270
X19050Y1270
X32258Y1270
X34798Y1270
X37338Y1270
X39878Y1270
X42418Y1270
X44958Y1270
X58166Y1270
X63246Y1270
X65786Y1270
X68326Y1270
X70866Y1270
X84074Y1270
X86614Y1270
X89154Y1270
X91694Y1270
X94234Y1270
X96774Y1270
X6350Y27178
X8890Y27178
X11430Y27178
X13970Y27178
X16510Y27178
X19050Y27178
X32258Y27178
X34798Y27178
X37338Y27178
X39878Y27178
X42418Y27178
X44958Y27178
X58166Y27178
X60706Y27178
X63246Y27178
X65786Y27178
X68326Y27178
X70866Y27178
X84074Y27178
X86614Y27178
X89154Y27178
X91694Y27178
X94234Y27178
X96774Y27178
X6350Y53086
X8890Y53086
X11430Y53086
X13970Y53086
X16510Y53086
X19050Y53086
X32258Y53086
X34798Y53086
X37338Y53086
X39878Y53086
X42418Y53086
X44958Y53086
X58166Y53086
X60706Y53086
X63246Y53086
X65786Y53086
X68326Y53086
X70866Y53086
X84074Y53086
X86614Y53086
X89154Y53086
X91694Y53086
X94234Y53086
X96774Y53086
X6350Y78994
X8890Y78994
X11430Y78994
X13970Y78994
X16510Y78994
X19050Y78994
X32258Y78994
T3
X39497Y58293
X65405Y6477
X65405Y32385
X91313Y32385
X91313Y6477
X13589Y32385
X13589Y6477
X39497Y6477
X39497Y32385
X65405Y58293
X91313Y58293
X13589Y84201
X39497Y84201
X65405Y84201
X91313Y84201
X13589Y58293
T4
X29464Y37084
X44069Y39243
X40132Y41021
X29464Y38100
X44861Y38578
X28390Y45834
X44958Y42545
X35103Y43180
X36195Y42291
X41148Y37338
X42037Y45085
X34163Y38862
X42037Y34925
X41148Y38608
X54864Y39116
X73406Y38100
X56388Y35052
X72136Y34798
X70866Y46228
X62103Y38354
X58166Y46228
X66929Y41910
X67818Y46609
X60579Y44958
X74676Y32258
X75565Y37338
X64516Y43688
X53086Y37338
X67183Y32004
X63373Y40767
X55372Y37084
X69977Y39243
X66040Y41021
X55372Y38100
X70769Y38578
X54298Y45834
X70866Y42545
X61011Y43180
X62103Y42291
X67056Y37338
X67945Y45085
X60071Y38862
X67945Y34925
X67056Y38608
X80772Y39116
X99314Y38100
X82296Y35052
X98044Y34798
X96774Y46228
X88011Y38354
X84074Y46228
X92837Y41910
X93726Y46609
X86487Y44958
X100584Y32258
X101473Y37338
X90424Y43688
X78994Y37338
X93091Y32004
X89281Y40767
X81280Y37084
X95885Y39243
X91948Y41021
X81280Y38100
X96677Y38578
X80206Y45834
X96774Y42545
X86919Y43180
X88011Y42291
X92964Y37338
X93853Y45085
X85979Y38862
X93853Y34925
X92964Y38608
X3048Y65024
X21590Y64008
X4572Y60960
X20320Y60706
X19050Y72136
X10287Y64262
X6350Y72136
X15113Y67818
X16002Y72517
X8763Y70866
X22860Y58166
X23749Y63246
X12700Y69596
X1270Y63246
X15367Y57912
X11557Y66675
X3556Y62992
X18161Y65151
X14224Y66929
X3556Y64008
X18953Y64486
X2482Y71742
X19050Y68453
X9195Y69088
X10287Y68199
X15240Y63246
X16129Y70993
X8255Y64770
X16129Y60833
X15240Y64516
X28956Y65024
X47498Y64008
X30480Y60960
X46228Y60706
X44958Y72136
X36195Y64262
X32258Y72136
X41021Y67818
X41910Y72517
X34671Y70866
X48768Y58166
X49657Y63246
X38608Y69596
X27178Y63246
X41275Y57912
X37465Y66675
X29464Y62992
X44069Y65151
X40132Y66929
X29464Y64008
X44861Y64486
X28390Y71742
X44958Y68453
X35103Y69088
X36195Y68199
X41148Y63246
X42037Y70993
X34163Y64770
X42037Y60833
X41148Y64516
X54864Y65024
X73406Y64008
X56388Y60960
X72136Y60706
X70866Y72136
X62103Y64262
X58166Y72136
X66929Y67818
X67818Y72517
X60579Y70866
X74676Y58166
X75565Y63246
X64516Y69596
X53086Y63246
X67183Y57912
X63373Y66675
X55372Y62992
X69977Y65151
X70769Y12670
X55372Y64008
X70769Y64486
X54298Y71742
X70866Y68453
X61011Y69088
X62103Y68199
X67056Y63246
X67945Y70993
X60071Y64770
X67945Y60833
X67056Y64516
X3048Y13208
X80772Y65024
X99314Y64008
X82296Y60960
X98044Y60706
X96774Y72136
X88011Y64262
X84074Y72136
X92837Y67818
X93726Y72517
X86487Y70866
X100584Y58166
X101473Y63246
X90424Y69596
X78994Y63246
X93091Y57912
X89281Y66675
X81280Y62992
X95885Y65151
X91948Y66929
X81280Y64008
X96677Y64486
X80206Y71742
X96774Y68453
X86919Y69088
X88011Y68199
X92964Y63246
X93853Y70993
X85979Y64770
X93853Y60833
X92964Y64516
X21590Y12192
X3048Y90932
X21590Y89916
X4572Y86868
X20320Y86614
X19050Y98044
X10287Y90170
X6350Y98044
X15113Y93726
X16002Y98425
X8763Y96774
X22860Y84074
X23749Y89154
X12700Y95504
X1270Y89154
X15367Y83820
X11557Y92583
X3556Y88900
X18161Y91059
X14224Y92837
X3556Y89916
X18953Y90394
X2482Y97650
X19050Y94361
X9195Y94996
X10287Y94107
X15240Y89154
X16129Y96901
X8255Y90678
X16129Y86741
X15240Y90424
X4572Y9144
X28956Y90932
X47498Y89916
X30480Y86868
X46228Y86614
X44958Y98044
X36195Y90170
X32258Y98044
X41021Y93726
X41910Y98425
X34671Y96774
X48768Y84074
X49657Y89154
X38608Y95504
X27178Y89154
X41275Y83820
X37465Y92583
X29464Y88900
X44069Y91059
X40132Y92837
X29464Y89916
X44861Y90394
X28390Y97650
X44958Y94361
X35103Y94996
X36195Y94107
X41148Y89154
X42037Y96901
X34163Y90678
X42037Y86741
X41148Y90424
X20320Y8890
X54864Y90932
X73406Y89916
X56388Y86868
X72136Y86614
X70866Y98044
X62103Y90170
X58166Y98044
X66929Y93726
X67818Y98425
X60579Y96774
X74676Y84074
X75565Y89154
X64516Y95504
X53086Y89154
X67183Y83820
X63373Y92583
X55372Y88900
X69977Y91059
X66040Y92837
X55372Y89916
X70769Y90394
X54298Y97650
X70866Y94361
X61011Y94996
X62103Y94107
X67056Y89154
X67945Y96901
X60071Y90678
X67945Y86741
X67056Y90424
X19050Y20320
X80772Y90932
X99314Y89916
X82296Y86868
X98044Y86614
X96774Y98044
X88011Y90170
X84074Y98044
X92837Y93726
X93726Y98425
X86487Y96774
X100584Y84074
X101473Y89154
X90424Y95504
X78994Y89154
X93091Y83820
X89281Y92583
X81280Y88900
X95885Y91059
X91948Y92837
X81280Y89916
X96677Y90394
X80206Y97650
X96774Y94361
X86919Y94996
X88011Y94107
X92964Y89154
X10287Y12446
X85979Y90678
X93853Y86741
X92964Y90424
X6350Y20320
X15113Y16002
X16002Y20701
X8763Y19050
X22860Y6350
X23749Y11430
X12700Y17780
X1270Y11430
X15367Y6096
X11557Y14859
X3556Y11176
X18161Y13335
X14224Y15113
X3556Y12192
X18953Y12670
X2482Y19926
X19050Y16637
X9195Y17272
X10287Y16383
X15240Y11430
X16129Y19177
X8255Y12954
X16129Y9017
X15240Y12700
X28956Y13208
X47498Y12192
X30480Y9144
X46228Y8890
X44958Y20320
X36195Y12446
X32258Y20320
X41021Y16002
X41910Y20701
X34671Y19050
X48768Y6350
X49657Y11430
X38608Y17780
X27178Y11430
X41275Y6096
X37465Y14859
X29464Y11176
X44069Y13335
X40132Y15113
X29464Y12192
X44861Y12670
X28390Y19926
X44958Y16637
X35103Y17272
X36195Y16383
X41148Y11430
X42037Y19177
X34163Y12954
X42037Y9017
X41148Y12700
X54864Y13208
X73406Y12192
X56388Y9144
X72136Y8890
X70866Y20320
X62103Y12446
X58166Y20320
X66929Y16002
X67818Y20701
X60579Y19050
X74676Y6350
X75565Y11430
X64516Y17780
X53086Y11430
X67183Y6096
X63373Y14859
X55372Y11176
X69977Y13335
X66040Y15113
X55372Y12192
X54298Y19926
X70866Y16637
X61011Y17272
X62103Y16383
X66040Y66929
X67056Y11430
X67945Y19177
X60071Y12954
X67945Y9017
X67056Y12700
X80772Y13208
X99314Y12192
X82296Y9144
X98044Y8890
X96774Y20320
X88011Y12446
X84074Y20320
X92837Y16002
X93726Y20701
X86487Y19050
X100584Y6350
X101473Y11430
X90424Y17780
X78994Y11430
X93091Y6096
X89281Y14859
X81280Y11176
X95885Y13335
X91948Y15113
X81280Y12192
X96677Y12670
X80206Y19926
X96774Y16637
X86919Y17272
X88011Y16383
X92964Y11430
X93853Y19177
X85979Y12954
X93853Y9017
X92964Y12700
X3048Y39116
X21590Y38100
X4572Y35052
X20320Y34798
X19050Y46228
X10287Y38354
X6350Y46228
X15113Y41910
X16002Y46609
X8763Y44958
X22860Y32258
X23749Y37338
X12700Y43688
X1270Y37338
X15367Y32004
X11557Y40767
X3556Y37084
X18161Y39243
X14224Y41021
X3556Y38100
X18953Y38578
X2482Y45834
X19050Y42545
X9195Y43180
X10287Y42291
X15240Y37338
X16129Y45085
X8255Y38862
X16129Y34925
X15240Y38608
X28956Y39116
X47498Y38100
X30480Y35052
X46228Y34798
X44958Y46228
X36195Y38354
X32258Y46228
X41021Y41910
X41910Y46609
X34671Y44958
X48768Y32258
X49657Y37338
X38608Y43688
X27178Y37338
X41275Y32004
X37465Y40767
X93853Y96901
M30