G04 EAGLE Gerber RS-274X export*
G75*
%MOMM*%
%FSLAX34Y34*%
%LPD*%
%INSoldermask Bottom*%
%IPPOS*%
%AMOC8*
5,1,8,0,0,1.08239X$1,22.5*%
G01*
%ADD10C,1.152400*%
%ADD11C,3.454400*%
%ADD12C,0.251966*%
%ADD13C,2.032000*%
%ADD14C,1.270000*%
%ADD15C,1.652400*%

G36*
X901130Y876947D02*
X901130Y876947D01*
X901196Y876949D01*
X901239Y876967D01*
X901286Y876975D01*
X901343Y877009D01*
X901403Y877034D01*
X901438Y877065D01*
X901479Y877090D01*
X901521Y877141D01*
X901569Y877185D01*
X901591Y877227D01*
X901620Y877264D01*
X901641Y877326D01*
X901672Y877385D01*
X901680Y877439D01*
X901692Y877476D01*
X901691Y877516D01*
X901699Y877570D01*
X901699Y880110D01*
X901688Y880175D01*
X901686Y880241D01*
X901668Y880284D01*
X901660Y880331D01*
X901626Y880388D01*
X901601Y880448D01*
X901570Y880483D01*
X901545Y880524D01*
X901494Y880566D01*
X901450Y880614D01*
X901408Y880636D01*
X901371Y880665D01*
X901309Y880686D01*
X901250Y880717D01*
X901196Y880725D01*
X901159Y880737D01*
X901119Y880736D01*
X901065Y880744D01*
X897255Y880744D01*
X897190Y880733D01*
X897124Y880731D01*
X897081Y880713D01*
X897034Y880705D01*
X896977Y880671D01*
X896917Y880646D01*
X896882Y880615D01*
X896841Y880590D01*
X896800Y880539D01*
X896751Y880495D01*
X896729Y880453D01*
X896700Y880416D01*
X896679Y880354D01*
X896648Y880295D01*
X896640Y880241D01*
X896628Y880204D01*
X896628Y880201D01*
X896629Y880164D01*
X896621Y880110D01*
X896621Y877570D01*
X896632Y877505D01*
X896634Y877439D01*
X896652Y877396D01*
X896660Y877349D01*
X896694Y877292D01*
X896719Y877232D01*
X896750Y877197D01*
X896775Y877156D01*
X896826Y877115D01*
X896870Y877066D01*
X896912Y877044D01*
X896949Y877015D01*
X897011Y876994D01*
X897070Y876963D01*
X897124Y876955D01*
X897161Y876943D01*
X897201Y876944D01*
X897255Y876936D01*
X901065Y876936D01*
X901130Y876947D01*
G37*
G36*
X957010Y694067D02*
X957010Y694067D01*
X957076Y694069D01*
X957119Y694087D01*
X957166Y694095D01*
X957223Y694129D01*
X957283Y694154D01*
X957318Y694185D01*
X957359Y694210D01*
X957401Y694261D01*
X957449Y694305D01*
X957471Y694347D01*
X957500Y694384D01*
X957521Y694446D01*
X957552Y694505D01*
X957560Y694559D01*
X957572Y694596D01*
X957571Y694636D01*
X957579Y694690D01*
X957579Y697230D01*
X957568Y697295D01*
X957566Y697361D01*
X957548Y697404D01*
X957540Y697451D01*
X957506Y697508D01*
X957481Y697568D01*
X957450Y697603D01*
X957425Y697644D01*
X957374Y697686D01*
X957330Y697734D01*
X957288Y697756D01*
X957251Y697785D01*
X957189Y697806D01*
X957130Y697837D01*
X957076Y697845D01*
X957039Y697857D01*
X956999Y697856D01*
X956945Y697864D01*
X953135Y697864D01*
X953070Y697853D01*
X953004Y697851D01*
X952961Y697833D01*
X952914Y697825D01*
X952857Y697791D01*
X952797Y697766D01*
X952762Y697735D01*
X952721Y697710D01*
X952680Y697659D01*
X952631Y697615D01*
X952609Y697573D01*
X952580Y697536D01*
X952559Y697474D01*
X952528Y697415D01*
X952520Y697361D01*
X952508Y697324D01*
X952508Y697321D01*
X952509Y697284D01*
X952501Y697230D01*
X952501Y694690D01*
X952512Y694625D01*
X952514Y694559D01*
X952532Y694516D01*
X952540Y694469D01*
X952574Y694412D01*
X952599Y694352D01*
X952630Y694317D01*
X952655Y694276D01*
X952706Y694235D01*
X952750Y694186D01*
X952792Y694164D01*
X952829Y694135D01*
X952891Y694114D01*
X952950Y694083D01*
X953004Y694075D01*
X953041Y694063D01*
X953081Y694064D01*
X953135Y694056D01*
X956945Y694056D01*
X957010Y694067D01*
G37*
G36*
X438850Y694067D02*
X438850Y694067D01*
X438916Y694069D01*
X438959Y694087D01*
X439006Y694095D01*
X439063Y694129D01*
X439123Y694154D01*
X439158Y694185D01*
X439199Y694210D01*
X439241Y694261D01*
X439289Y694305D01*
X439311Y694347D01*
X439340Y694384D01*
X439361Y694446D01*
X439392Y694505D01*
X439400Y694559D01*
X439412Y694596D01*
X439411Y694636D01*
X439419Y694690D01*
X439419Y697230D01*
X439408Y697295D01*
X439406Y697361D01*
X439388Y697404D01*
X439380Y697451D01*
X439346Y697508D01*
X439321Y697568D01*
X439290Y697603D01*
X439265Y697644D01*
X439214Y697686D01*
X439170Y697734D01*
X439128Y697756D01*
X439091Y697785D01*
X439029Y697806D01*
X438970Y697837D01*
X438916Y697845D01*
X438879Y697857D01*
X438839Y697856D01*
X438785Y697864D01*
X434975Y697864D01*
X434910Y697853D01*
X434844Y697851D01*
X434801Y697833D01*
X434754Y697825D01*
X434697Y697791D01*
X434637Y697766D01*
X434602Y697735D01*
X434561Y697710D01*
X434520Y697659D01*
X434471Y697615D01*
X434449Y697573D01*
X434420Y697536D01*
X434399Y697474D01*
X434368Y697415D01*
X434360Y697361D01*
X434348Y697324D01*
X434348Y697321D01*
X434349Y697284D01*
X434341Y697230D01*
X434341Y694690D01*
X434352Y694625D01*
X434354Y694559D01*
X434372Y694516D01*
X434380Y694469D01*
X434414Y694412D01*
X434439Y694352D01*
X434470Y694317D01*
X434495Y694276D01*
X434546Y694235D01*
X434590Y694186D01*
X434632Y694164D01*
X434669Y694135D01*
X434731Y694114D01*
X434790Y694083D01*
X434844Y694075D01*
X434881Y694063D01*
X434921Y694064D01*
X434975Y694056D01*
X438785Y694056D01*
X438850Y694067D01*
G37*
G36*
X27370Y694067D02*
X27370Y694067D01*
X27436Y694069D01*
X27479Y694087D01*
X27526Y694095D01*
X27583Y694129D01*
X27643Y694154D01*
X27678Y694185D01*
X27719Y694210D01*
X27761Y694261D01*
X27809Y694305D01*
X27831Y694347D01*
X27860Y694384D01*
X27881Y694446D01*
X27912Y694505D01*
X27920Y694559D01*
X27932Y694596D01*
X27931Y694636D01*
X27939Y694690D01*
X27939Y697230D01*
X27928Y697295D01*
X27926Y697361D01*
X27908Y697404D01*
X27900Y697451D01*
X27866Y697508D01*
X27841Y697568D01*
X27810Y697603D01*
X27785Y697644D01*
X27734Y697686D01*
X27690Y697734D01*
X27648Y697756D01*
X27611Y697785D01*
X27549Y697806D01*
X27490Y697837D01*
X27436Y697845D01*
X27399Y697857D01*
X27359Y697856D01*
X27305Y697864D01*
X23495Y697864D01*
X23430Y697853D01*
X23364Y697851D01*
X23321Y697833D01*
X23274Y697825D01*
X23217Y697791D01*
X23157Y697766D01*
X23122Y697735D01*
X23081Y697710D01*
X23040Y697659D01*
X22991Y697615D01*
X22969Y697573D01*
X22940Y697536D01*
X22919Y697474D01*
X22888Y697415D01*
X22880Y697361D01*
X22868Y697324D01*
X22868Y697321D01*
X22869Y697284D01*
X22861Y697230D01*
X22861Y694690D01*
X22872Y694625D01*
X22874Y694559D01*
X22892Y694516D01*
X22900Y694469D01*
X22934Y694412D01*
X22959Y694352D01*
X22990Y694317D01*
X23015Y694276D01*
X23066Y694235D01*
X23110Y694186D01*
X23152Y694164D01*
X23189Y694135D01*
X23251Y694114D01*
X23310Y694083D01*
X23364Y694075D01*
X23401Y694063D01*
X23441Y694064D01*
X23495Y694056D01*
X27305Y694056D01*
X27370Y694067D01*
G37*
G36*
X286450Y694067D02*
X286450Y694067D01*
X286516Y694069D01*
X286559Y694087D01*
X286606Y694095D01*
X286663Y694129D01*
X286723Y694154D01*
X286758Y694185D01*
X286799Y694210D01*
X286841Y694261D01*
X286889Y694305D01*
X286911Y694347D01*
X286940Y694384D01*
X286961Y694446D01*
X286992Y694505D01*
X287000Y694559D01*
X287012Y694596D01*
X287011Y694636D01*
X287019Y694690D01*
X287019Y697230D01*
X287008Y697295D01*
X287006Y697361D01*
X286988Y697404D01*
X286980Y697451D01*
X286946Y697508D01*
X286921Y697568D01*
X286890Y697603D01*
X286865Y697644D01*
X286814Y697686D01*
X286770Y697734D01*
X286728Y697756D01*
X286691Y697785D01*
X286629Y697806D01*
X286570Y697837D01*
X286516Y697845D01*
X286479Y697857D01*
X286439Y697856D01*
X286385Y697864D01*
X282575Y697864D01*
X282510Y697853D01*
X282444Y697851D01*
X282401Y697833D01*
X282354Y697825D01*
X282297Y697791D01*
X282237Y697766D01*
X282202Y697735D01*
X282161Y697710D01*
X282120Y697659D01*
X282071Y697615D01*
X282049Y697573D01*
X282020Y697536D01*
X281999Y697474D01*
X281968Y697415D01*
X281960Y697361D01*
X281948Y697324D01*
X281948Y697321D01*
X281949Y697284D01*
X281941Y697230D01*
X281941Y694690D01*
X281952Y694625D01*
X281954Y694559D01*
X281972Y694516D01*
X281980Y694469D01*
X282014Y694412D01*
X282039Y694352D01*
X282070Y694317D01*
X282095Y694276D01*
X282146Y694235D01*
X282190Y694186D01*
X282232Y694164D01*
X282269Y694135D01*
X282331Y694114D01*
X282390Y694083D01*
X282444Y694075D01*
X282481Y694063D01*
X282521Y694064D01*
X282575Y694056D01*
X286385Y694056D01*
X286450Y694067D01*
G37*
G36*
X179770Y694067D02*
X179770Y694067D01*
X179836Y694069D01*
X179879Y694087D01*
X179926Y694095D01*
X179983Y694129D01*
X180043Y694154D01*
X180078Y694185D01*
X180119Y694210D01*
X180161Y694261D01*
X180209Y694305D01*
X180231Y694347D01*
X180260Y694384D01*
X180281Y694446D01*
X180312Y694505D01*
X180320Y694559D01*
X180332Y694596D01*
X180331Y694636D01*
X180339Y694690D01*
X180339Y697230D01*
X180328Y697295D01*
X180326Y697361D01*
X180308Y697404D01*
X180300Y697451D01*
X180266Y697508D01*
X180241Y697568D01*
X180210Y697603D01*
X180185Y697644D01*
X180134Y697686D01*
X180090Y697734D01*
X180048Y697756D01*
X180011Y697785D01*
X179949Y697806D01*
X179890Y697837D01*
X179836Y697845D01*
X179799Y697857D01*
X179759Y697856D01*
X179705Y697864D01*
X175895Y697864D01*
X175830Y697853D01*
X175764Y697851D01*
X175721Y697833D01*
X175674Y697825D01*
X175617Y697791D01*
X175557Y697766D01*
X175522Y697735D01*
X175481Y697710D01*
X175440Y697659D01*
X175391Y697615D01*
X175369Y697573D01*
X175340Y697536D01*
X175319Y697474D01*
X175288Y697415D01*
X175280Y697361D01*
X175268Y697324D01*
X175268Y697321D01*
X175269Y697284D01*
X175261Y697230D01*
X175261Y694690D01*
X175272Y694625D01*
X175274Y694559D01*
X175292Y694516D01*
X175300Y694469D01*
X175334Y694412D01*
X175359Y694352D01*
X175390Y694317D01*
X175415Y694276D01*
X175466Y694235D01*
X175510Y694186D01*
X175552Y694164D01*
X175589Y694135D01*
X175651Y694114D01*
X175710Y694083D01*
X175764Y694075D01*
X175801Y694063D01*
X175841Y694064D01*
X175895Y694056D01*
X179705Y694056D01*
X179770Y694067D01*
G37*
G36*
X804610Y694067D02*
X804610Y694067D01*
X804676Y694069D01*
X804719Y694087D01*
X804766Y694095D01*
X804823Y694129D01*
X804883Y694154D01*
X804918Y694185D01*
X804959Y694210D01*
X805001Y694261D01*
X805049Y694305D01*
X805071Y694347D01*
X805100Y694384D01*
X805121Y694446D01*
X805152Y694505D01*
X805160Y694559D01*
X805172Y694596D01*
X805171Y694636D01*
X805179Y694690D01*
X805179Y697230D01*
X805168Y697295D01*
X805166Y697361D01*
X805148Y697404D01*
X805140Y697451D01*
X805106Y697508D01*
X805081Y697568D01*
X805050Y697603D01*
X805025Y697644D01*
X804974Y697686D01*
X804930Y697734D01*
X804888Y697756D01*
X804851Y697785D01*
X804789Y697806D01*
X804730Y697837D01*
X804676Y697845D01*
X804639Y697857D01*
X804599Y697856D01*
X804545Y697864D01*
X800735Y697864D01*
X800670Y697853D01*
X800604Y697851D01*
X800561Y697833D01*
X800514Y697825D01*
X800457Y697791D01*
X800397Y697766D01*
X800362Y697735D01*
X800321Y697710D01*
X800280Y697659D01*
X800231Y697615D01*
X800209Y697573D01*
X800180Y697536D01*
X800159Y697474D01*
X800128Y697415D01*
X800120Y697361D01*
X800108Y697324D01*
X800108Y697321D01*
X800109Y697284D01*
X800101Y697230D01*
X800101Y694690D01*
X800112Y694625D01*
X800114Y694559D01*
X800132Y694516D01*
X800140Y694469D01*
X800174Y694412D01*
X800199Y694352D01*
X800230Y694317D01*
X800255Y694276D01*
X800306Y694235D01*
X800350Y694186D01*
X800392Y694164D01*
X800429Y694135D01*
X800491Y694114D01*
X800550Y694083D01*
X800604Y694075D01*
X800641Y694063D01*
X800681Y694064D01*
X800735Y694056D01*
X804545Y694056D01*
X804610Y694067D01*
G37*
G36*
X545530Y694067D02*
X545530Y694067D01*
X545596Y694069D01*
X545639Y694087D01*
X545686Y694095D01*
X545743Y694129D01*
X545803Y694154D01*
X545838Y694185D01*
X545879Y694210D01*
X545921Y694261D01*
X545969Y694305D01*
X545991Y694347D01*
X546020Y694384D01*
X546041Y694446D01*
X546072Y694505D01*
X546080Y694559D01*
X546092Y694596D01*
X546091Y694636D01*
X546099Y694690D01*
X546099Y697230D01*
X546088Y697295D01*
X546086Y697361D01*
X546068Y697404D01*
X546060Y697451D01*
X546026Y697508D01*
X546001Y697568D01*
X545970Y697603D01*
X545945Y697644D01*
X545894Y697686D01*
X545850Y697734D01*
X545808Y697756D01*
X545771Y697785D01*
X545709Y697806D01*
X545650Y697837D01*
X545596Y697845D01*
X545559Y697857D01*
X545519Y697856D01*
X545465Y697864D01*
X541655Y697864D01*
X541590Y697853D01*
X541524Y697851D01*
X541481Y697833D01*
X541434Y697825D01*
X541377Y697791D01*
X541317Y697766D01*
X541282Y697735D01*
X541241Y697710D01*
X541200Y697659D01*
X541151Y697615D01*
X541129Y697573D01*
X541100Y697536D01*
X541079Y697474D01*
X541048Y697415D01*
X541040Y697361D01*
X541028Y697324D01*
X541028Y697321D01*
X541029Y697284D01*
X541021Y697230D01*
X541021Y694690D01*
X541032Y694625D01*
X541034Y694559D01*
X541052Y694516D01*
X541060Y694469D01*
X541094Y694412D01*
X541119Y694352D01*
X541150Y694317D01*
X541175Y694276D01*
X541226Y694235D01*
X541270Y694186D01*
X541312Y694164D01*
X541349Y694135D01*
X541411Y694114D01*
X541470Y694083D01*
X541524Y694075D01*
X541561Y694063D01*
X541601Y694064D01*
X541655Y694056D01*
X545465Y694056D01*
X545530Y694067D01*
G37*
G36*
X697930Y694067D02*
X697930Y694067D01*
X697996Y694069D01*
X698039Y694087D01*
X698086Y694095D01*
X698143Y694129D01*
X698203Y694154D01*
X698238Y694185D01*
X698279Y694210D01*
X698321Y694261D01*
X698369Y694305D01*
X698391Y694347D01*
X698420Y694384D01*
X698441Y694446D01*
X698472Y694505D01*
X698480Y694559D01*
X698492Y694596D01*
X698491Y694636D01*
X698499Y694690D01*
X698499Y697230D01*
X698488Y697295D01*
X698486Y697361D01*
X698468Y697404D01*
X698460Y697451D01*
X698426Y697508D01*
X698401Y697568D01*
X698370Y697603D01*
X698345Y697644D01*
X698294Y697686D01*
X698250Y697734D01*
X698208Y697756D01*
X698171Y697785D01*
X698109Y697806D01*
X698050Y697837D01*
X697996Y697845D01*
X697959Y697857D01*
X697919Y697856D01*
X697865Y697864D01*
X694055Y697864D01*
X693990Y697853D01*
X693924Y697851D01*
X693881Y697833D01*
X693834Y697825D01*
X693777Y697791D01*
X693717Y697766D01*
X693682Y697735D01*
X693641Y697710D01*
X693600Y697659D01*
X693551Y697615D01*
X693529Y697573D01*
X693500Y697536D01*
X693479Y697474D01*
X693448Y697415D01*
X693440Y697361D01*
X693428Y697324D01*
X693428Y697321D01*
X693429Y697284D01*
X693421Y697230D01*
X693421Y694690D01*
X693432Y694625D01*
X693434Y694559D01*
X693452Y694516D01*
X693460Y694469D01*
X693494Y694412D01*
X693519Y694352D01*
X693550Y694317D01*
X693575Y694276D01*
X693626Y694235D01*
X693670Y694186D01*
X693712Y694164D01*
X693749Y694135D01*
X693811Y694114D01*
X693870Y694083D01*
X693924Y694075D01*
X693961Y694063D01*
X694001Y694064D01*
X694055Y694056D01*
X697865Y694056D01*
X697930Y694067D01*
G37*
G36*
X382970Y876947D02*
X382970Y876947D01*
X383036Y876949D01*
X383079Y876967D01*
X383126Y876975D01*
X383183Y877009D01*
X383243Y877034D01*
X383278Y877065D01*
X383319Y877090D01*
X383361Y877141D01*
X383409Y877185D01*
X383431Y877227D01*
X383460Y877264D01*
X383481Y877326D01*
X383512Y877385D01*
X383520Y877439D01*
X383532Y877476D01*
X383531Y877516D01*
X383539Y877570D01*
X383539Y880110D01*
X383528Y880175D01*
X383526Y880241D01*
X383508Y880284D01*
X383500Y880331D01*
X383466Y880388D01*
X383441Y880448D01*
X383410Y880483D01*
X383385Y880524D01*
X383334Y880566D01*
X383290Y880614D01*
X383248Y880636D01*
X383211Y880665D01*
X383149Y880686D01*
X383090Y880717D01*
X383036Y880725D01*
X382999Y880737D01*
X382959Y880736D01*
X382905Y880744D01*
X379095Y880744D01*
X379030Y880733D01*
X378964Y880731D01*
X378921Y880713D01*
X378874Y880705D01*
X378817Y880671D01*
X378757Y880646D01*
X378722Y880615D01*
X378681Y880590D01*
X378640Y880539D01*
X378591Y880495D01*
X378569Y880453D01*
X378540Y880416D01*
X378519Y880354D01*
X378488Y880295D01*
X378480Y880241D01*
X378468Y880204D01*
X378468Y880201D01*
X378469Y880164D01*
X378461Y880110D01*
X378461Y877570D01*
X378472Y877505D01*
X378474Y877439D01*
X378492Y877396D01*
X378500Y877349D01*
X378534Y877292D01*
X378559Y877232D01*
X378590Y877197D01*
X378615Y877156D01*
X378666Y877115D01*
X378710Y877066D01*
X378752Y877044D01*
X378789Y877015D01*
X378851Y876994D01*
X378910Y876963D01*
X378964Y876955D01*
X379001Y876943D01*
X379041Y876944D01*
X379095Y876936D01*
X382905Y876936D01*
X382970Y876947D01*
G37*
G36*
X652210Y876947D02*
X652210Y876947D01*
X652276Y876949D01*
X652319Y876967D01*
X652366Y876975D01*
X652423Y877009D01*
X652483Y877034D01*
X652518Y877065D01*
X652559Y877090D01*
X652601Y877141D01*
X652649Y877185D01*
X652671Y877227D01*
X652700Y877264D01*
X652721Y877326D01*
X652752Y877385D01*
X652760Y877439D01*
X652772Y877476D01*
X652771Y877516D01*
X652779Y877570D01*
X652779Y880110D01*
X652768Y880175D01*
X652766Y880241D01*
X652748Y880284D01*
X652740Y880331D01*
X652706Y880388D01*
X652681Y880448D01*
X652650Y880483D01*
X652625Y880524D01*
X652574Y880566D01*
X652530Y880614D01*
X652488Y880636D01*
X652451Y880665D01*
X652389Y880686D01*
X652330Y880717D01*
X652276Y880725D01*
X652239Y880737D01*
X652199Y880736D01*
X652145Y880744D01*
X648335Y880744D01*
X648270Y880733D01*
X648204Y880731D01*
X648161Y880713D01*
X648114Y880705D01*
X648057Y880671D01*
X647997Y880646D01*
X647962Y880615D01*
X647921Y880590D01*
X647880Y880539D01*
X647831Y880495D01*
X647809Y880453D01*
X647780Y880416D01*
X647759Y880354D01*
X647728Y880295D01*
X647720Y880241D01*
X647708Y880204D01*
X647708Y880201D01*
X647709Y880164D01*
X647701Y880110D01*
X647701Y877570D01*
X647712Y877505D01*
X647714Y877439D01*
X647732Y877396D01*
X647740Y877349D01*
X647774Y877292D01*
X647799Y877232D01*
X647830Y877197D01*
X647855Y877156D01*
X647906Y877115D01*
X647950Y877066D01*
X647992Y877044D01*
X648029Y877015D01*
X648091Y876994D01*
X648150Y876963D01*
X648204Y876955D01*
X648241Y876943D01*
X648281Y876944D01*
X648335Y876936D01*
X652145Y876936D01*
X652210Y876947D01*
G37*
G36*
X911290Y876947D02*
X911290Y876947D01*
X911356Y876949D01*
X911399Y876967D01*
X911446Y876975D01*
X911503Y877009D01*
X911563Y877034D01*
X911598Y877065D01*
X911639Y877090D01*
X911681Y877141D01*
X911729Y877185D01*
X911751Y877227D01*
X911780Y877264D01*
X911801Y877326D01*
X911832Y877385D01*
X911840Y877439D01*
X911852Y877476D01*
X911851Y877516D01*
X911859Y877570D01*
X911859Y880110D01*
X911848Y880175D01*
X911846Y880241D01*
X911828Y880284D01*
X911820Y880331D01*
X911786Y880388D01*
X911761Y880448D01*
X911730Y880483D01*
X911705Y880524D01*
X911654Y880566D01*
X911610Y880614D01*
X911568Y880636D01*
X911531Y880665D01*
X911469Y880686D01*
X911410Y880717D01*
X911356Y880725D01*
X911319Y880737D01*
X911279Y880736D01*
X911225Y880744D01*
X907415Y880744D01*
X907350Y880733D01*
X907284Y880731D01*
X907241Y880713D01*
X907194Y880705D01*
X907137Y880671D01*
X907077Y880646D01*
X907042Y880615D01*
X907001Y880590D01*
X906960Y880539D01*
X906911Y880495D01*
X906889Y880453D01*
X906860Y880416D01*
X906839Y880354D01*
X906808Y880295D01*
X906800Y880241D01*
X906788Y880204D01*
X906788Y880201D01*
X906789Y880164D01*
X906781Y880110D01*
X906781Y877570D01*
X906792Y877505D01*
X906794Y877439D01*
X906812Y877396D01*
X906820Y877349D01*
X906854Y877292D01*
X906879Y877232D01*
X906910Y877197D01*
X906935Y877156D01*
X906986Y877115D01*
X907030Y877066D01*
X907072Y877044D01*
X907109Y877015D01*
X907171Y876994D01*
X907230Y876963D01*
X907284Y876955D01*
X907321Y876943D01*
X907361Y876944D01*
X907415Y876936D01*
X911225Y876936D01*
X911290Y876947D01*
G37*
G36*
X123890Y876947D02*
X123890Y876947D01*
X123956Y876949D01*
X123999Y876967D01*
X124046Y876975D01*
X124103Y877009D01*
X124163Y877034D01*
X124198Y877065D01*
X124239Y877090D01*
X124281Y877141D01*
X124329Y877185D01*
X124351Y877227D01*
X124380Y877264D01*
X124401Y877326D01*
X124432Y877385D01*
X124440Y877439D01*
X124452Y877476D01*
X124451Y877516D01*
X124459Y877570D01*
X124459Y880110D01*
X124448Y880175D01*
X124446Y880241D01*
X124428Y880284D01*
X124420Y880331D01*
X124386Y880388D01*
X124361Y880448D01*
X124330Y880483D01*
X124305Y880524D01*
X124254Y880566D01*
X124210Y880614D01*
X124168Y880636D01*
X124131Y880665D01*
X124069Y880686D01*
X124010Y880717D01*
X123956Y880725D01*
X123919Y880737D01*
X123879Y880736D01*
X123825Y880744D01*
X120015Y880744D01*
X119950Y880733D01*
X119884Y880731D01*
X119841Y880713D01*
X119794Y880705D01*
X119737Y880671D01*
X119677Y880646D01*
X119642Y880615D01*
X119601Y880590D01*
X119560Y880539D01*
X119511Y880495D01*
X119489Y880453D01*
X119460Y880416D01*
X119439Y880354D01*
X119408Y880295D01*
X119400Y880241D01*
X119388Y880204D01*
X119388Y880201D01*
X119389Y880164D01*
X119381Y880110D01*
X119381Y877570D01*
X119392Y877505D01*
X119394Y877439D01*
X119412Y877396D01*
X119420Y877349D01*
X119454Y877292D01*
X119479Y877232D01*
X119510Y877197D01*
X119535Y877156D01*
X119586Y877115D01*
X119630Y877066D01*
X119672Y877044D01*
X119709Y877015D01*
X119771Y876994D01*
X119830Y876963D01*
X119884Y876955D01*
X119921Y876943D01*
X119961Y876944D01*
X120015Y876936D01*
X123825Y876936D01*
X123890Y876947D01*
G37*
G36*
X393130Y876947D02*
X393130Y876947D01*
X393196Y876949D01*
X393239Y876967D01*
X393286Y876975D01*
X393343Y877009D01*
X393403Y877034D01*
X393438Y877065D01*
X393479Y877090D01*
X393521Y877141D01*
X393569Y877185D01*
X393591Y877227D01*
X393620Y877264D01*
X393641Y877326D01*
X393672Y877385D01*
X393680Y877439D01*
X393692Y877476D01*
X393691Y877516D01*
X393699Y877570D01*
X393699Y880110D01*
X393688Y880175D01*
X393686Y880241D01*
X393668Y880284D01*
X393660Y880331D01*
X393626Y880388D01*
X393601Y880448D01*
X393570Y880483D01*
X393545Y880524D01*
X393494Y880566D01*
X393450Y880614D01*
X393408Y880636D01*
X393371Y880665D01*
X393309Y880686D01*
X393250Y880717D01*
X393196Y880725D01*
X393159Y880737D01*
X393119Y880736D01*
X393065Y880744D01*
X389255Y880744D01*
X389190Y880733D01*
X389124Y880731D01*
X389081Y880713D01*
X389034Y880705D01*
X388977Y880671D01*
X388917Y880646D01*
X388882Y880615D01*
X388841Y880590D01*
X388800Y880539D01*
X388751Y880495D01*
X388729Y880453D01*
X388700Y880416D01*
X388679Y880354D01*
X388648Y880295D01*
X388640Y880241D01*
X388628Y880204D01*
X388628Y880201D01*
X388629Y880164D01*
X388621Y880110D01*
X388621Y877570D01*
X388632Y877505D01*
X388634Y877439D01*
X388652Y877396D01*
X388660Y877349D01*
X388694Y877292D01*
X388719Y877232D01*
X388750Y877197D01*
X388775Y877156D01*
X388826Y877115D01*
X388870Y877066D01*
X388912Y877044D01*
X388949Y877015D01*
X389011Y876994D01*
X389070Y876963D01*
X389124Y876955D01*
X389161Y876943D01*
X389201Y876944D01*
X389255Y876936D01*
X393065Y876936D01*
X393130Y876947D01*
G37*
G36*
X134050Y876947D02*
X134050Y876947D01*
X134116Y876949D01*
X134159Y876967D01*
X134206Y876975D01*
X134263Y877009D01*
X134323Y877034D01*
X134358Y877065D01*
X134399Y877090D01*
X134441Y877141D01*
X134489Y877185D01*
X134511Y877227D01*
X134540Y877264D01*
X134561Y877326D01*
X134592Y877385D01*
X134600Y877439D01*
X134612Y877476D01*
X134611Y877516D01*
X134619Y877570D01*
X134619Y880110D01*
X134608Y880175D01*
X134606Y880241D01*
X134588Y880284D01*
X134580Y880331D01*
X134546Y880388D01*
X134521Y880448D01*
X134490Y880483D01*
X134465Y880524D01*
X134414Y880566D01*
X134370Y880614D01*
X134328Y880636D01*
X134291Y880665D01*
X134229Y880686D01*
X134170Y880717D01*
X134116Y880725D01*
X134079Y880737D01*
X134039Y880736D01*
X133985Y880744D01*
X130175Y880744D01*
X130110Y880733D01*
X130044Y880731D01*
X130001Y880713D01*
X129954Y880705D01*
X129897Y880671D01*
X129837Y880646D01*
X129802Y880615D01*
X129761Y880590D01*
X129720Y880539D01*
X129671Y880495D01*
X129649Y880453D01*
X129620Y880416D01*
X129599Y880354D01*
X129568Y880295D01*
X129560Y880241D01*
X129548Y880204D01*
X129548Y880201D01*
X129549Y880164D01*
X129541Y880110D01*
X129541Y877570D01*
X129552Y877505D01*
X129554Y877439D01*
X129572Y877396D01*
X129580Y877349D01*
X129614Y877292D01*
X129639Y877232D01*
X129670Y877197D01*
X129695Y877156D01*
X129746Y877115D01*
X129790Y877066D01*
X129832Y877044D01*
X129869Y877015D01*
X129931Y876994D01*
X129990Y876963D01*
X130044Y876955D01*
X130081Y876943D01*
X130121Y876944D01*
X130175Y876936D01*
X133985Y876936D01*
X134050Y876947D01*
G37*
G36*
X642050Y876947D02*
X642050Y876947D01*
X642116Y876949D01*
X642159Y876967D01*
X642206Y876975D01*
X642263Y877009D01*
X642323Y877034D01*
X642358Y877065D01*
X642399Y877090D01*
X642441Y877141D01*
X642489Y877185D01*
X642511Y877227D01*
X642540Y877264D01*
X642561Y877326D01*
X642592Y877385D01*
X642600Y877439D01*
X642612Y877476D01*
X642611Y877516D01*
X642619Y877570D01*
X642619Y880110D01*
X642608Y880175D01*
X642606Y880241D01*
X642588Y880284D01*
X642580Y880331D01*
X642546Y880388D01*
X642521Y880448D01*
X642490Y880483D01*
X642465Y880524D01*
X642414Y880566D01*
X642370Y880614D01*
X642328Y880636D01*
X642291Y880665D01*
X642229Y880686D01*
X642170Y880717D01*
X642116Y880725D01*
X642079Y880737D01*
X642039Y880736D01*
X641985Y880744D01*
X638175Y880744D01*
X638110Y880733D01*
X638044Y880731D01*
X638001Y880713D01*
X637954Y880705D01*
X637897Y880671D01*
X637837Y880646D01*
X637802Y880615D01*
X637761Y880590D01*
X637720Y880539D01*
X637671Y880495D01*
X637649Y880453D01*
X637620Y880416D01*
X637599Y880354D01*
X637568Y880295D01*
X637560Y880241D01*
X637548Y880204D01*
X637548Y880201D01*
X637549Y880164D01*
X637541Y880110D01*
X637541Y877570D01*
X637552Y877505D01*
X637554Y877439D01*
X637572Y877396D01*
X637580Y877349D01*
X637614Y877292D01*
X637639Y877232D01*
X637670Y877197D01*
X637695Y877156D01*
X637746Y877115D01*
X637790Y877066D01*
X637832Y877044D01*
X637869Y877015D01*
X637931Y876994D01*
X637990Y876963D01*
X638044Y876955D01*
X638081Y876943D01*
X638121Y876944D01*
X638175Y876936D01*
X641985Y876936D01*
X642050Y876947D01*
G37*
G36*
X438850Y953147D02*
X438850Y953147D01*
X438916Y953149D01*
X438959Y953167D01*
X439006Y953175D01*
X439063Y953209D01*
X439123Y953234D01*
X439158Y953265D01*
X439199Y953290D01*
X439241Y953341D01*
X439289Y953385D01*
X439311Y953427D01*
X439340Y953464D01*
X439361Y953526D01*
X439392Y953585D01*
X439400Y953639D01*
X439412Y953676D01*
X439411Y953716D01*
X439419Y953770D01*
X439419Y956310D01*
X439408Y956375D01*
X439406Y956441D01*
X439388Y956484D01*
X439380Y956531D01*
X439346Y956588D01*
X439321Y956648D01*
X439290Y956683D01*
X439265Y956724D01*
X439214Y956766D01*
X439170Y956814D01*
X439128Y956836D01*
X439091Y956865D01*
X439029Y956886D01*
X438970Y956917D01*
X438916Y956925D01*
X438879Y956937D01*
X438839Y956936D01*
X438785Y956944D01*
X434975Y956944D01*
X434910Y956933D01*
X434844Y956931D01*
X434801Y956913D01*
X434754Y956905D01*
X434697Y956871D01*
X434637Y956846D01*
X434602Y956815D01*
X434561Y956790D01*
X434520Y956739D01*
X434471Y956695D01*
X434449Y956653D01*
X434420Y956616D01*
X434399Y956554D01*
X434368Y956495D01*
X434360Y956441D01*
X434348Y956404D01*
X434348Y956401D01*
X434349Y956364D01*
X434341Y956310D01*
X434341Y953770D01*
X434352Y953705D01*
X434354Y953639D01*
X434372Y953596D01*
X434380Y953549D01*
X434414Y953492D01*
X434439Y953432D01*
X434470Y953397D01*
X434495Y953356D01*
X434546Y953315D01*
X434590Y953266D01*
X434632Y953244D01*
X434669Y953215D01*
X434731Y953194D01*
X434790Y953163D01*
X434844Y953155D01*
X434881Y953143D01*
X434921Y953144D01*
X434975Y953136D01*
X438785Y953136D01*
X438850Y953147D01*
G37*
G36*
X804610Y953147D02*
X804610Y953147D01*
X804676Y953149D01*
X804719Y953167D01*
X804766Y953175D01*
X804823Y953209D01*
X804883Y953234D01*
X804918Y953265D01*
X804959Y953290D01*
X805001Y953341D01*
X805049Y953385D01*
X805071Y953427D01*
X805100Y953464D01*
X805121Y953526D01*
X805152Y953585D01*
X805160Y953639D01*
X805172Y953676D01*
X805171Y953716D01*
X805179Y953770D01*
X805179Y956310D01*
X805168Y956375D01*
X805166Y956441D01*
X805148Y956484D01*
X805140Y956531D01*
X805106Y956588D01*
X805081Y956648D01*
X805050Y956683D01*
X805025Y956724D01*
X804974Y956766D01*
X804930Y956814D01*
X804888Y956836D01*
X804851Y956865D01*
X804789Y956886D01*
X804730Y956917D01*
X804676Y956925D01*
X804639Y956937D01*
X804599Y956936D01*
X804545Y956944D01*
X800735Y956944D01*
X800670Y956933D01*
X800604Y956931D01*
X800561Y956913D01*
X800514Y956905D01*
X800457Y956871D01*
X800397Y956846D01*
X800362Y956815D01*
X800321Y956790D01*
X800280Y956739D01*
X800231Y956695D01*
X800209Y956653D01*
X800180Y956616D01*
X800159Y956554D01*
X800128Y956495D01*
X800120Y956441D01*
X800108Y956404D01*
X800108Y956401D01*
X800109Y956364D01*
X800101Y956310D01*
X800101Y953770D01*
X800112Y953705D01*
X800114Y953639D01*
X800132Y953596D01*
X800140Y953549D01*
X800174Y953492D01*
X800199Y953432D01*
X800230Y953397D01*
X800255Y953356D01*
X800306Y953315D01*
X800350Y953266D01*
X800392Y953244D01*
X800429Y953215D01*
X800491Y953194D01*
X800550Y953163D01*
X800604Y953155D01*
X800641Y953143D01*
X800681Y953144D01*
X800735Y953136D01*
X804545Y953136D01*
X804610Y953147D01*
G37*
G36*
X27370Y953147D02*
X27370Y953147D01*
X27436Y953149D01*
X27479Y953167D01*
X27526Y953175D01*
X27583Y953209D01*
X27643Y953234D01*
X27678Y953265D01*
X27719Y953290D01*
X27761Y953341D01*
X27809Y953385D01*
X27831Y953427D01*
X27860Y953464D01*
X27881Y953526D01*
X27912Y953585D01*
X27920Y953639D01*
X27932Y953676D01*
X27931Y953716D01*
X27939Y953770D01*
X27939Y956310D01*
X27928Y956375D01*
X27926Y956441D01*
X27908Y956484D01*
X27900Y956531D01*
X27866Y956588D01*
X27841Y956648D01*
X27810Y956683D01*
X27785Y956724D01*
X27734Y956766D01*
X27690Y956814D01*
X27648Y956836D01*
X27611Y956865D01*
X27549Y956886D01*
X27490Y956917D01*
X27436Y956925D01*
X27399Y956937D01*
X27359Y956936D01*
X27305Y956944D01*
X23495Y956944D01*
X23430Y956933D01*
X23364Y956931D01*
X23321Y956913D01*
X23274Y956905D01*
X23217Y956871D01*
X23157Y956846D01*
X23122Y956815D01*
X23081Y956790D01*
X23040Y956739D01*
X22991Y956695D01*
X22969Y956653D01*
X22940Y956616D01*
X22919Y956554D01*
X22888Y956495D01*
X22880Y956441D01*
X22868Y956404D01*
X22868Y956401D01*
X22869Y956364D01*
X22861Y956310D01*
X22861Y953770D01*
X22872Y953705D01*
X22874Y953639D01*
X22892Y953596D01*
X22900Y953549D01*
X22934Y953492D01*
X22959Y953432D01*
X22990Y953397D01*
X23015Y953356D01*
X23066Y953315D01*
X23110Y953266D01*
X23152Y953244D01*
X23189Y953215D01*
X23251Y953194D01*
X23310Y953163D01*
X23364Y953155D01*
X23401Y953143D01*
X23441Y953144D01*
X23495Y953136D01*
X27305Y953136D01*
X27370Y953147D01*
G37*
G36*
X957010Y953147D02*
X957010Y953147D01*
X957076Y953149D01*
X957119Y953167D01*
X957166Y953175D01*
X957223Y953209D01*
X957283Y953234D01*
X957318Y953265D01*
X957359Y953290D01*
X957401Y953341D01*
X957449Y953385D01*
X957471Y953427D01*
X957500Y953464D01*
X957521Y953526D01*
X957552Y953585D01*
X957560Y953639D01*
X957572Y953676D01*
X957571Y953716D01*
X957579Y953770D01*
X957579Y956310D01*
X957568Y956375D01*
X957566Y956441D01*
X957548Y956484D01*
X957540Y956531D01*
X957506Y956588D01*
X957481Y956648D01*
X957450Y956683D01*
X957425Y956724D01*
X957374Y956766D01*
X957330Y956814D01*
X957288Y956836D01*
X957251Y956865D01*
X957189Y956886D01*
X957130Y956917D01*
X957076Y956925D01*
X957039Y956937D01*
X956999Y956936D01*
X956945Y956944D01*
X953135Y956944D01*
X953070Y956933D01*
X953004Y956931D01*
X952961Y956913D01*
X952914Y956905D01*
X952857Y956871D01*
X952797Y956846D01*
X952762Y956815D01*
X952721Y956790D01*
X952680Y956739D01*
X952631Y956695D01*
X952609Y956653D01*
X952580Y956616D01*
X952559Y956554D01*
X952528Y956495D01*
X952520Y956441D01*
X952508Y956404D01*
X952508Y956401D01*
X952509Y956364D01*
X952501Y956310D01*
X952501Y953770D01*
X952512Y953705D01*
X952514Y953639D01*
X952532Y953596D01*
X952540Y953549D01*
X952574Y953492D01*
X952599Y953432D01*
X952630Y953397D01*
X952655Y953356D01*
X952706Y953315D01*
X952750Y953266D01*
X952792Y953244D01*
X952829Y953215D01*
X952891Y953194D01*
X952950Y953163D01*
X953004Y953155D01*
X953041Y953143D01*
X953081Y953144D01*
X953135Y953136D01*
X956945Y953136D01*
X957010Y953147D01*
G37*
G36*
X545530Y953147D02*
X545530Y953147D01*
X545596Y953149D01*
X545639Y953167D01*
X545686Y953175D01*
X545743Y953209D01*
X545803Y953234D01*
X545838Y953265D01*
X545879Y953290D01*
X545921Y953341D01*
X545969Y953385D01*
X545991Y953427D01*
X546020Y953464D01*
X546041Y953526D01*
X546072Y953585D01*
X546080Y953639D01*
X546092Y953676D01*
X546091Y953716D01*
X546099Y953770D01*
X546099Y956310D01*
X546088Y956375D01*
X546086Y956441D01*
X546068Y956484D01*
X546060Y956531D01*
X546026Y956588D01*
X546001Y956648D01*
X545970Y956683D01*
X545945Y956724D01*
X545894Y956766D01*
X545850Y956814D01*
X545808Y956836D01*
X545771Y956865D01*
X545709Y956886D01*
X545650Y956917D01*
X545596Y956925D01*
X545559Y956937D01*
X545519Y956936D01*
X545465Y956944D01*
X541655Y956944D01*
X541590Y956933D01*
X541524Y956931D01*
X541481Y956913D01*
X541434Y956905D01*
X541377Y956871D01*
X541317Y956846D01*
X541282Y956815D01*
X541241Y956790D01*
X541200Y956739D01*
X541151Y956695D01*
X541129Y956653D01*
X541100Y956616D01*
X541079Y956554D01*
X541048Y956495D01*
X541040Y956441D01*
X541028Y956404D01*
X541028Y956401D01*
X541029Y956364D01*
X541021Y956310D01*
X541021Y953770D01*
X541032Y953705D01*
X541034Y953639D01*
X541052Y953596D01*
X541060Y953549D01*
X541094Y953492D01*
X541119Y953432D01*
X541150Y953397D01*
X541175Y953356D01*
X541226Y953315D01*
X541270Y953266D01*
X541312Y953244D01*
X541349Y953215D01*
X541411Y953194D01*
X541470Y953163D01*
X541524Y953155D01*
X541561Y953143D01*
X541601Y953144D01*
X541655Y953136D01*
X545465Y953136D01*
X545530Y953147D01*
G37*
G36*
X697930Y953147D02*
X697930Y953147D01*
X697996Y953149D01*
X698039Y953167D01*
X698086Y953175D01*
X698143Y953209D01*
X698203Y953234D01*
X698238Y953265D01*
X698279Y953290D01*
X698321Y953341D01*
X698369Y953385D01*
X698391Y953427D01*
X698420Y953464D01*
X698441Y953526D01*
X698472Y953585D01*
X698480Y953639D01*
X698492Y953676D01*
X698491Y953716D01*
X698499Y953770D01*
X698499Y956310D01*
X698488Y956375D01*
X698486Y956441D01*
X698468Y956484D01*
X698460Y956531D01*
X698426Y956588D01*
X698401Y956648D01*
X698370Y956683D01*
X698345Y956724D01*
X698294Y956766D01*
X698250Y956814D01*
X698208Y956836D01*
X698171Y956865D01*
X698109Y956886D01*
X698050Y956917D01*
X697996Y956925D01*
X697959Y956937D01*
X697919Y956936D01*
X697865Y956944D01*
X694055Y956944D01*
X693990Y956933D01*
X693924Y956931D01*
X693881Y956913D01*
X693834Y956905D01*
X693777Y956871D01*
X693717Y956846D01*
X693682Y956815D01*
X693641Y956790D01*
X693600Y956739D01*
X693551Y956695D01*
X693529Y956653D01*
X693500Y956616D01*
X693479Y956554D01*
X693448Y956495D01*
X693440Y956441D01*
X693428Y956404D01*
X693428Y956401D01*
X693429Y956364D01*
X693421Y956310D01*
X693421Y953770D01*
X693432Y953705D01*
X693434Y953639D01*
X693452Y953596D01*
X693460Y953549D01*
X693494Y953492D01*
X693519Y953432D01*
X693550Y953397D01*
X693575Y953356D01*
X693626Y953315D01*
X693670Y953266D01*
X693712Y953244D01*
X693749Y953215D01*
X693811Y953194D01*
X693870Y953163D01*
X693924Y953155D01*
X693961Y953143D01*
X694001Y953144D01*
X694055Y953136D01*
X697865Y953136D01*
X697930Y953147D01*
G37*
G36*
X179770Y953147D02*
X179770Y953147D01*
X179836Y953149D01*
X179879Y953167D01*
X179926Y953175D01*
X179983Y953209D01*
X180043Y953234D01*
X180078Y953265D01*
X180119Y953290D01*
X180161Y953341D01*
X180209Y953385D01*
X180231Y953427D01*
X180260Y953464D01*
X180281Y953526D01*
X180312Y953585D01*
X180320Y953639D01*
X180332Y953676D01*
X180331Y953716D01*
X180339Y953770D01*
X180339Y956310D01*
X180328Y956375D01*
X180326Y956441D01*
X180308Y956484D01*
X180300Y956531D01*
X180266Y956588D01*
X180241Y956648D01*
X180210Y956683D01*
X180185Y956724D01*
X180134Y956766D01*
X180090Y956814D01*
X180048Y956836D01*
X180011Y956865D01*
X179949Y956886D01*
X179890Y956917D01*
X179836Y956925D01*
X179799Y956937D01*
X179759Y956936D01*
X179705Y956944D01*
X175895Y956944D01*
X175830Y956933D01*
X175764Y956931D01*
X175721Y956913D01*
X175674Y956905D01*
X175617Y956871D01*
X175557Y956846D01*
X175522Y956815D01*
X175481Y956790D01*
X175440Y956739D01*
X175391Y956695D01*
X175369Y956653D01*
X175340Y956616D01*
X175319Y956554D01*
X175288Y956495D01*
X175280Y956441D01*
X175268Y956404D01*
X175268Y956401D01*
X175269Y956364D01*
X175261Y956310D01*
X175261Y953770D01*
X175272Y953705D01*
X175274Y953639D01*
X175292Y953596D01*
X175300Y953549D01*
X175334Y953492D01*
X175359Y953432D01*
X175390Y953397D01*
X175415Y953356D01*
X175466Y953315D01*
X175510Y953266D01*
X175552Y953244D01*
X175589Y953215D01*
X175651Y953194D01*
X175710Y953163D01*
X175764Y953155D01*
X175801Y953143D01*
X175841Y953144D01*
X175895Y953136D01*
X179705Y953136D01*
X179770Y953147D01*
G37*
G36*
X286450Y953147D02*
X286450Y953147D01*
X286516Y953149D01*
X286559Y953167D01*
X286606Y953175D01*
X286663Y953209D01*
X286723Y953234D01*
X286758Y953265D01*
X286799Y953290D01*
X286841Y953341D01*
X286889Y953385D01*
X286911Y953427D01*
X286940Y953464D01*
X286961Y953526D01*
X286992Y953585D01*
X287000Y953639D01*
X287012Y953676D01*
X287011Y953716D01*
X287019Y953770D01*
X287019Y956310D01*
X287008Y956375D01*
X287006Y956441D01*
X286988Y956484D01*
X286980Y956531D01*
X286946Y956588D01*
X286921Y956648D01*
X286890Y956683D01*
X286865Y956724D01*
X286814Y956766D01*
X286770Y956814D01*
X286728Y956836D01*
X286691Y956865D01*
X286629Y956886D01*
X286570Y956917D01*
X286516Y956925D01*
X286479Y956937D01*
X286439Y956936D01*
X286385Y956944D01*
X282575Y956944D01*
X282510Y956933D01*
X282444Y956931D01*
X282401Y956913D01*
X282354Y956905D01*
X282297Y956871D01*
X282237Y956846D01*
X282202Y956815D01*
X282161Y956790D01*
X282120Y956739D01*
X282071Y956695D01*
X282049Y956653D01*
X282020Y956616D01*
X281999Y956554D01*
X281968Y956495D01*
X281960Y956441D01*
X281948Y956404D01*
X281948Y956401D01*
X281949Y956364D01*
X281941Y956310D01*
X281941Y953770D01*
X281952Y953705D01*
X281954Y953639D01*
X281972Y953596D01*
X281980Y953549D01*
X282014Y953492D01*
X282039Y953432D01*
X282070Y953397D01*
X282095Y953356D01*
X282146Y953315D01*
X282190Y953266D01*
X282232Y953244D01*
X282269Y953215D01*
X282331Y953194D01*
X282390Y953163D01*
X282444Y953155D01*
X282481Y953143D01*
X282521Y953144D01*
X282575Y953136D01*
X286385Y953136D01*
X286450Y953147D01*
G37*
G36*
X901130Y617867D02*
X901130Y617867D01*
X901196Y617869D01*
X901239Y617887D01*
X901286Y617895D01*
X901343Y617929D01*
X901403Y617954D01*
X901438Y617985D01*
X901479Y618010D01*
X901521Y618061D01*
X901569Y618105D01*
X901591Y618147D01*
X901620Y618184D01*
X901641Y618246D01*
X901672Y618305D01*
X901680Y618359D01*
X901692Y618396D01*
X901691Y618436D01*
X901699Y618490D01*
X901699Y621030D01*
X901688Y621095D01*
X901686Y621161D01*
X901668Y621204D01*
X901660Y621251D01*
X901626Y621308D01*
X901601Y621368D01*
X901570Y621403D01*
X901545Y621444D01*
X901494Y621486D01*
X901450Y621534D01*
X901408Y621556D01*
X901371Y621585D01*
X901309Y621606D01*
X901250Y621637D01*
X901196Y621645D01*
X901159Y621657D01*
X901119Y621656D01*
X901065Y621664D01*
X897255Y621664D01*
X897190Y621653D01*
X897124Y621651D01*
X897081Y621633D01*
X897034Y621625D01*
X896977Y621591D01*
X896917Y621566D01*
X896882Y621535D01*
X896841Y621510D01*
X896800Y621459D01*
X896751Y621415D01*
X896729Y621373D01*
X896700Y621336D01*
X896679Y621274D01*
X896648Y621215D01*
X896640Y621161D01*
X896628Y621124D01*
X896628Y621121D01*
X896629Y621084D01*
X896621Y621030D01*
X896621Y618490D01*
X896632Y618425D01*
X896634Y618359D01*
X896652Y618316D01*
X896660Y618269D01*
X896694Y618212D01*
X896719Y618152D01*
X896750Y618117D01*
X896775Y618076D01*
X896826Y618035D01*
X896870Y617986D01*
X896912Y617964D01*
X896949Y617935D01*
X897011Y617914D01*
X897070Y617883D01*
X897124Y617875D01*
X897161Y617863D01*
X897201Y617864D01*
X897255Y617856D01*
X901065Y617856D01*
X901130Y617867D01*
G37*
G36*
X382970Y617867D02*
X382970Y617867D01*
X383036Y617869D01*
X383079Y617887D01*
X383126Y617895D01*
X383183Y617929D01*
X383243Y617954D01*
X383278Y617985D01*
X383319Y618010D01*
X383361Y618061D01*
X383409Y618105D01*
X383431Y618147D01*
X383460Y618184D01*
X383481Y618246D01*
X383512Y618305D01*
X383520Y618359D01*
X383532Y618396D01*
X383531Y618436D01*
X383539Y618490D01*
X383539Y621030D01*
X383528Y621095D01*
X383526Y621161D01*
X383508Y621204D01*
X383500Y621251D01*
X383466Y621308D01*
X383441Y621368D01*
X383410Y621403D01*
X383385Y621444D01*
X383334Y621486D01*
X383290Y621534D01*
X383248Y621556D01*
X383211Y621585D01*
X383149Y621606D01*
X383090Y621637D01*
X383036Y621645D01*
X382999Y621657D01*
X382959Y621656D01*
X382905Y621664D01*
X379095Y621664D01*
X379030Y621653D01*
X378964Y621651D01*
X378921Y621633D01*
X378874Y621625D01*
X378817Y621591D01*
X378757Y621566D01*
X378722Y621535D01*
X378681Y621510D01*
X378640Y621459D01*
X378591Y621415D01*
X378569Y621373D01*
X378540Y621336D01*
X378519Y621274D01*
X378488Y621215D01*
X378480Y621161D01*
X378468Y621124D01*
X378468Y621121D01*
X378469Y621084D01*
X378461Y621030D01*
X378461Y618490D01*
X378472Y618425D01*
X378474Y618359D01*
X378492Y618316D01*
X378500Y618269D01*
X378534Y618212D01*
X378559Y618152D01*
X378590Y618117D01*
X378615Y618076D01*
X378666Y618035D01*
X378710Y617986D01*
X378752Y617964D01*
X378789Y617935D01*
X378851Y617914D01*
X378910Y617883D01*
X378964Y617875D01*
X379001Y617863D01*
X379041Y617864D01*
X379095Y617856D01*
X382905Y617856D01*
X382970Y617867D01*
G37*
G36*
X134050Y617867D02*
X134050Y617867D01*
X134116Y617869D01*
X134159Y617887D01*
X134206Y617895D01*
X134263Y617929D01*
X134323Y617954D01*
X134358Y617985D01*
X134399Y618010D01*
X134441Y618061D01*
X134489Y618105D01*
X134511Y618147D01*
X134540Y618184D01*
X134561Y618246D01*
X134592Y618305D01*
X134600Y618359D01*
X134612Y618396D01*
X134611Y618436D01*
X134619Y618490D01*
X134619Y621030D01*
X134608Y621095D01*
X134606Y621161D01*
X134588Y621204D01*
X134580Y621251D01*
X134546Y621308D01*
X134521Y621368D01*
X134490Y621403D01*
X134465Y621444D01*
X134414Y621486D01*
X134370Y621534D01*
X134328Y621556D01*
X134291Y621585D01*
X134229Y621606D01*
X134170Y621637D01*
X134116Y621645D01*
X134079Y621657D01*
X134039Y621656D01*
X133985Y621664D01*
X130175Y621664D01*
X130110Y621653D01*
X130044Y621651D01*
X130001Y621633D01*
X129954Y621625D01*
X129897Y621591D01*
X129837Y621566D01*
X129802Y621535D01*
X129761Y621510D01*
X129720Y621459D01*
X129671Y621415D01*
X129649Y621373D01*
X129620Y621336D01*
X129599Y621274D01*
X129568Y621215D01*
X129560Y621161D01*
X129548Y621124D01*
X129548Y621121D01*
X129549Y621084D01*
X129541Y621030D01*
X129541Y618490D01*
X129552Y618425D01*
X129554Y618359D01*
X129572Y618316D01*
X129580Y618269D01*
X129614Y618212D01*
X129639Y618152D01*
X129670Y618117D01*
X129695Y618076D01*
X129746Y618035D01*
X129790Y617986D01*
X129832Y617964D01*
X129869Y617935D01*
X129931Y617914D01*
X129990Y617883D01*
X130044Y617875D01*
X130081Y617863D01*
X130121Y617864D01*
X130175Y617856D01*
X133985Y617856D01*
X134050Y617867D01*
G37*
G36*
X393130Y617867D02*
X393130Y617867D01*
X393196Y617869D01*
X393239Y617887D01*
X393286Y617895D01*
X393343Y617929D01*
X393403Y617954D01*
X393438Y617985D01*
X393479Y618010D01*
X393521Y618061D01*
X393569Y618105D01*
X393591Y618147D01*
X393620Y618184D01*
X393641Y618246D01*
X393672Y618305D01*
X393680Y618359D01*
X393692Y618396D01*
X393691Y618436D01*
X393699Y618490D01*
X393699Y621030D01*
X393688Y621095D01*
X393686Y621161D01*
X393668Y621204D01*
X393660Y621251D01*
X393626Y621308D01*
X393601Y621368D01*
X393570Y621403D01*
X393545Y621444D01*
X393494Y621486D01*
X393450Y621534D01*
X393408Y621556D01*
X393371Y621585D01*
X393309Y621606D01*
X393250Y621637D01*
X393196Y621645D01*
X393159Y621657D01*
X393119Y621656D01*
X393065Y621664D01*
X389255Y621664D01*
X389190Y621653D01*
X389124Y621651D01*
X389081Y621633D01*
X389034Y621625D01*
X388977Y621591D01*
X388917Y621566D01*
X388882Y621535D01*
X388841Y621510D01*
X388800Y621459D01*
X388751Y621415D01*
X388729Y621373D01*
X388700Y621336D01*
X388679Y621274D01*
X388648Y621215D01*
X388640Y621161D01*
X388628Y621124D01*
X388628Y621121D01*
X388629Y621084D01*
X388621Y621030D01*
X388621Y618490D01*
X388632Y618425D01*
X388634Y618359D01*
X388652Y618316D01*
X388660Y618269D01*
X388694Y618212D01*
X388719Y618152D01*
X388750Y618117D01*
X388775Y618076D01*
X388826Y618035D01*
X388870Y617986D01*
X388912Y617964D01*
X388949Y617935D01*
X389011Y617914D01*
X389070Y617883D01*
X389124Y617875D01*
X389161Y617863D01*
X389201Y617864D01*
X389255Y617856D01*
X393065Y617856D01*
X393130Y617867D01*
G37*
G36*
X911290Y617867D02*
X911290Y617867D01*
X911356Y617869D01*
X911399Y617887D01*
X911446Y617895D01*
X911503Y617929D01*
X911563Y617954D01*
X911598Y617985D01*
X911639Y618010D01*
X911681Y618061D01*
X911729Y618105D01*
X911751Y618147D01*
X911780Y618184D01*
X911801Y618246D01*
X911832Y618305D01*
X911840Y618359D01*
X911852Y618396D01*
X911851Y618436D01*
X911859Y618490D01*
X911859Y621030D01*
X911848Y621095D01*
X911846Y621161D01*
X911828Y621204D01*
X911820Y621251D01*
X911786Y621308D01*
X911761Y621368D01*
X911730Y621403D01*
X911705Y621444D01*
X911654Y621486D01*
X911610Y621534D01*
X911568Y621556D01*
X911531Y621585D01*
X911469Y621606D01*
X911410Y621637D01*
X911356Y621645D01*
X911319Y621657D01*
X911279Y621656D01*
X911225Y621664D01*
X907415Y621664D01*
X907350Y621653D01*
X907284Y621651D01*
X907241Y621633D01*
X907194Y621625D01*
X907137Y621591D01*
X907077Y621566D01*
X907042Y621535D01*
X907001Y621510D01*
X906960Y621459D01*
X906911Y621415D01*
X906889Y621373D01*
X906860Y621336D01*
X906839Y621274D01*
X906808Y621215D01*
X906800Y621161D01*
X906788Y621124D01*
X906788Y621121D01*
X906789Y621084D01*
X906781Y621030D01*
X906781Y618490D01*
X906792Y618425D01*
X906794Y618359D01*
X906812Y618316D01*
X906820Y618269D01*
X906854Y618212D01*
X906879Y618152D01*
X906910Y618117D01*
X906935Y618076D01*
X906986Y618035D01*
X907030Y617986D01*
X907072Y617964D01*
X907109Y617935D01*
X907171Y617914D01*
X907230Y617883D01*
X907284Y617875D01*
X907321Y617863D01*
X907361Y617864D01*
X907415Y617856D01*
X911225Y617856D01*
X911290Y617867D01*
G37*
G36*
X642050Y617867D02*
X642050Y617867D01*
X642116Y617869D01*
X642159Y617887D01*
X642206Y617895D01*
X642263Y617929D01*
X642323Y617954D01*
X642358Y617985D01*
X642399Y618010D01*
X642441Y618061D01*
X642489Y618105D01*
X642511Y618147D01*
X642540Y618184D01*
X642561Y618246D01*
X642592Y618305D01*
X642600Y618359D01*
X642612Y618396D01*
X642611Y618436D01*
X642619Y618490D01*
X642619Y621030D01*
X642608Y621095D01*
X642606Y621161D01*
X642588Y621204D01*
X642580Y621251D01*
X642546Y621308D01*
X642521Y621368D01*
X642490Y621403D01*
X642465Y621444D01*
X642414Y621486D01*
X642370Y621534D01*
X642328Y621556D01*
X642291Y621585D01*
X642229Y621606D01*
X642170Y621637D01*
X642116Y621645D01*
X642079Y621657D01*
X642039Y621656D01*
X641985Y621664D01*
X638175Y621664D01*
X638110Y621653D01*
X638044Y621651D01*
X638001Y621633D01*
X637954Y621625D01*
X637897Y621591D01*
X637837Y621566D01*
X637802Y621535D01*
X637761Y621510D01*
X637720Y621459D01*
X637671Y621415D01*
X637649Y621373D01*
X637620Y621336D01*
X637599Y621274D01*
X637568Y621215D01*
X637560Y621161D01*
X637548Y621124D01*
X637548Y621121D01*
X637549Y621084D01*
X637541Y621030D01*
X637541Y618490D01*
X637552Y618425D01*
X637554Y618359D01*
X637572Y618316D01*
X637580Y618269D01*
X637614Y618212D01*
X637639Y618152D01*
X637670Y618117D01*
X637695Y618076D01*
X637746Y618035D01*
X637790Y617986D01*
X637832Y617964D01*
X637869Y617935D01*
X637931Y617914D01*
X637990Y617883D01*
X638044Y617875D01*
X638081Y617863D01*
X638121Y617864D01*
X638175Y617856D01*
X641985Y617856D01*
X642050Y617867D01*
G37*
G36*
X123890Y617867D02*
X123890Y617867D01*
X123956Y617869D01*
X123999Y617887D01*
X124046Y617895D01*
X124103Y617929D01*
X124163Y617954D01*
X124198Y617985D01*
X124239Y618010D01*
X124281Y618061D01*
X124329Y618105D01*
X124351Y618147D01*
X124380Y618184D01*
X124401Y618246D01*
X124432Y618305D01*
X124440Y618359D01*
X124452Y618396D01*
X124451Y618436D01*
X124459Y618490D01*
X124459Y621030D01*
X124448Y621095D01*
X124446Y621161D01*
X124428Y621204D01*
X124420Y621251D01*
X124386Y621308D01*
X124361Y621368D01*
X124330Y621403D01*
X124305Y621444D01*
X124254Y621486D01*
X124210Y621534D01*
X124168Y621556D01*
X124131Y621585D01*
X124069Y621606D01*
X124010Y621637D01*
X123956Y621645D01*
X123919Y621657D01*
X123879Y621656D01*
X123825Y621664D01*
X120015Y621664D01*
X119950Y621653D01*
X119884Y621651D01*
X119841Y621633D01*
X119794Y621625D01*
X119737Y621591D01*
X119677Y621566D01*
X119642Y621535D01*
X119601Y621510D01*
X119560Y621459D01*
X119511Y621415D01*
X119489Y621373D01*
X119460Y621336D01*
X119439Y621274D01*
X119408Y621215D01*
X119400Y621161D01*
X119388Y621124D01*
X119388Y621121D01*
X119389Y621084D01*
X119381Y621030D01*
X119381Y618490D01*
X119392Y618425D01*
X119394Y618359D01*
X119412Y618316D01*
X119420Y618269D01*
X119454Y618212D01*
X119479Y618152D01*
X119510Y618117D01*
X119535Y618076D01*
X119586Y618035D01*
X119630Y617986D01*
X119672Y617964D01*
X119709Y617935D01*
X119771Y617914D01*
X119830Y617883D01*
X119884Y617875D01*
X119921Y617863D01*
X119961Y617864D01*
X120015Y617856D01*
X123825Y617856D01*
X123890Y617867D01*
G37*
G36*
X652210Y617867D02*
X652210Y617867D01*
X652276Y617869D01*
X652319Y617887D01*
X652366Y617895D01*
X652423Y617929D01*
X652483Y617954D01*
X652518Y617985D01*
X652559Y618010D01*
X652601Y618061D01*
X652649Y618105D01*
X652671Y618147D01*
X652700Y618184D01*
X652721Y618246D01*
X652752Y618305D01*
X652760Y618359D01*
X652772Y618396D01*
X652771Y618436D01*
X652779Y618490D01*
X652779Y621030D01*
X652768Y621095D01*
X652766Y621161D01*
X652748Y621204D01*
X652740Y621251D01*
X652706Y621308D01*
X652681Y621368D01*
X652650Y621403D01*
X652625Y621444D01*
X652574Y621486D01*
X652530Y621534D01*
X652488Y621556D01*
X652451Y621585D01*
X652389Y621606D01*
X652330Y621637D01*
X652276Y621645D01*
X652239Y621657D01*
X652199Y621656D01*
X652145Y621664D01*
X648335Y621664D01*
X648270Y621653D01*
X648204Y621651D01*
X648161Y621633D01*
X648114Y621625D01*
X648057Y621591D01*
X647997Y621566D01*
X647962Y621535D01*
X647921Y621510D01*
X647880Y621459D01*
X647831Y621415D01*
X647809Y621373D01*
X647780Y621336D01*
X647759Y621274D01*
X647728Y621215D01*
X647720Y621161D01*
X647708Y621124D01*
X647708Y621121D01*
X647709Y621084D01*
X647701Y621030D01*
X647701Y618490D01*
X647712Y618425D01*
X647714Y618359D01*
X647732Y618316D01*
X647740Y618269D01*
X647774Y618212D01*
X647799Y618152D01*
X647830Y618117D01*
X647855Y618076D01*
X647906Y618035D01*
X647950Y617986D01*
X647992Y617964D01*
X648029Y617935D01*
X648091Y617914D01*
X648150Y617883D01*
X648204Y617875D01*
X648241Y617863D01*
X648281Y617864D01*
X648335Y617856D01*
X652145Y617856D01*
X652210Y617867D01*
G37*
G36*
X179770Y434987D02*
X179770Y434987D01*
X179836Y434989D01*
X179879Y435007D01*
X179926Y435015D01*
X179983Y435049D01*
X180043Y435074D01*
X180078Y435105D01*
X180119Y435130D01*
X180161Y435181D01*
X180209Y435225D01*
X180231Y435267D01*
X180260Y435304D01*
X180281Y435366D01*
X180312Y435425D01*
X180320Y435479D01*
X180332Y435516D01*
X180331Y435556D01*
X180339Y435610D01*
X180339Y438150D01*
X180328Y438215D01*
X180326Y438281D01*
X180308Y438324D01*
X180300Y438371D01*
X180266Y438428D01*
X180241Y438488D01*
X180210Y438523D01*
X180185Y438564D01*
X180134Y438606D01*
X180090Y438654D01*
X180048Y438676D01*
X180011Y438705D01*
X179949Y438726D01*
X179890Y438757D01*
X179836Y438765D01*
X179799Y438777D01*
X179759Y438776D01*
X179705Y438784D01*
X175895Y438784D01*
X175830Y438773D01*
X175764Y438771D01*
X175721Y438753D01*
X175674Y438745D01*
X175617Y438711D01*
X175557Y438686D01*
X175522Y438655D01*
X175481Y438630D01*
X175440Y438579D01*
X175391Y438535D01*
X175369Y438493D01*
X175340Y438456D01*
X175319Y438394D01*
X175288Y438335D01*
X175280Y438281D01*
X175268Y438244D01*
X175268Y438241D01*
X175269Y438204D01*
X175261Y438150D01*
X175261Y435610D01*
X175272Y435545D01*
X175274Y435479D01*
X175292Y435436D01*
X175300Y435389D01*
X175334Y435332D01*
X175359Y435272D01*
X175390Y435237D01*
X175415Y435196D01*
X175466Y435155D01*
X175510Y435106D01*
X175552Y435084D01*
X175589Y435055D01*
X175651Y435034D01*
X175710Y435003D01*
X175764Y434995D01*
X175801Y434983D01*
X175841Y434984D01*
X175895Y434976D01*
X179705Y434976D01*
X179770Y434987D01*
G37*
G36*
X804610Y434987D02*
X804610Y434987D01*
X804676Y434989D01*
X804719Y435007D01*
X804766Y435015D01*
X804823Y435049D01*
X804883Y435074D01*
X804918Y435105D01*
X804959Y435130D01*
X805001Y435181D01*
X805049Y435225D01*
X805071Y435267D01*
X805100Y435304D01*
X805121Y435366D01*
X805152Y435425D01*
X805160Y435479D01*
X805172Y435516D01*
X805171Y435556D01*
X805179Y435610D01*
X805179Y438150D01*
X805168Y438215D01*
X805166Y438281D01*
X805148Y438324D01*
X805140Y438371D01*
X805106Y438428D01*
X805081Y438488D01*
X805050Y438523D01*
X805025Y438564D01*
X804974Y438606D01*
X804930Y438654D01*
X804888Y438676D01*
X804851Y438705D01*
X804789Y438726D01*
X804730Y438757D01*
X804676Y438765D01*
X804639Y438777D01*
X804599Y438776D01*
X804545Y438784D01*
X800735Y438784D01*
X800670Y438773D01*
X800604Y438771D01*
X800561Y438753D01*
X800514Y438745D01*
X800457Y438711D01*
X800397Y438686D01*
X800362Y438655D01*
X800321Y438630D01*
X800280Y438579D01*
X800231Y438535D01*
X800209Y438493D01*
X800180Y438456D01*
X800159Y438394D01*
X800128Y438335D01*
X800120Y438281D01*
X800108Y438244D01*
X800108Y438241D01*
X800109Y438204D01*
X800101Y438150D01*
X800101Y435610D01*
X800112Y435545D01*
X800114Y435479D01*
X800132Y435436D01*
X800140Y435389D01*
X800174Y435332D01*
X800199Y435272D01*
X800230Y435237D01*
X800255Y435196D01*
X800306Y435155D01*
X800350Y435106D01*
X800392Y435084D01*
X800429Y435055D01*
X800491Y435034D01*
X800550Y435003D01*
X800604Y434995D01*
X800641Y434983D01*
X800681Y434984D01*
X800735Y434976D01*
X804545Y434976D01*
X804610Y434987D01*
G37*
G36*
X286450Y434987D02*
X286450Y434987D01*
X286516Y434989D01*
X286559Y435007D01*
X286606Y435015D01*
X286663Y435049D01*
X286723Y435074D01*
X286758Y435105D01*
X286799Y435130D01*
X286841Y435181D01*
X286889Y435225D01*
X286911Y435267D01*
X286940Y435304D01*
X286961Y435366D01*
X286992Y435425D01*
X287000Y435479D01*
X287012Y435516D01*
X287011Y435556D01*
X287019Y435610D01*
X287019Y438150D01*
X287008Y438215D01*
X287006Y438281D01*
X286988Y438324D01*
X286980Y438371D01*
X286946Y438428D01*
X286921Y438488D01*
X286890Y438523D01*
X286865Y438564D01*
X286814Y438606D01*
X286770Y438654D01*
X286728Y438676D01*
X286691Y438705D01*
X286629Y438726D01*
X286570Y438757D01*
X286516Y438765D01*
X286479Y438777D01*
X286439Y438776D01*
X286385Y438784D01*
X282575Y438784D01*
X282510Y438773D01*
X282444Y438771D01*
X282401Y438753D01*
X282354Y438745D01*
X282297Y438711D01*
X282237Y438686D01*
X282202Y438655D01*
X282161Y438630D01*
X282120Y438579D01*
X282071Y438535D01*
X282049Y438493D01*
X282020Y438456D01*
X281999Y438394D01*
X281968Y438335D01*
X281960Y438281D01*
X281948Y438244D01*
X281948Y438241D01*
X281949Y438204D01*
X281941Y438150D01*
X281941Y435610D01*
X281952Y435545D01*
X281954Y435479D01*
X281972Y435436D01*
X281980Y435389D01*
X282014Y435332D01*
X282039Y435272D01*
X282070Y435237D01*
X282095Y435196D01*
X282146Y435155D01*
X282190Y435106D01*
X282232Y435084D01*
X282269Y435055D01*
X282331Y435034D01*
X282390Y435003D01*
X282444Y434995D01*
X282481Y434983D01*
X282521Y434984D01*
X282575Y434976D01*
X286385Y434976D01*
X286450Y434987D01*
G37*
G36*
X697930Y434987D02*
X697930Y434987D01*
X697996Y434989D01*
X698039Y435007D01*
X698086Y435015D01*
X698143Y435049D01*
X698203Y435074D01*
X698238Y435105D01*
X698279Y435130D01*
X698321Y435181D01*
X698369Y435225D01*
X698391Y435267D01*
X698420Y435304D01*
X698441Y435366D01*
X698472Y435425D01*
X698480Y435479D01*
X698492Y435516D01*
X698491Y435556D01*
X698499Y435610D01*
X698499Y438150D01*
X698488Y438215D01*
X698486Y438281D01*
X698468Y438324D01*
X698460Y438371D01*
X698426Y438428D01*
X698401Y438488D01*
X698370Y438523D01*
X698345Y438564D01*
X698294Y438606D01*
X698250Y438654D01*
X698208Y438676D01*
X698171Y438705D01*
X698109Y438726D01*
X698050Y438757D01*
X697996Y438765D01*
X697959Y438777D01*
X697919Y438776D01*
X697865Y438784D01*
X694055Y438784D01*
X693990Y438773D01*
X693924Y438771D01*
X693881Y438753D01*
X693834Y438745D01*
X693777Y438711D01*
X693717Y438686D01*
X693682Y438655D01*
X693641Y438630D01*
X693600Y438579D01*
X693551Y438535D01*
X693529Y438493D01*
X693500Y438456D01*
X693479Y438394D01*
X693448Y438335D01*
X693440Y438281D01*
X693428Y438244D01*
X693428Y438241D01*
X693429Y438204D01*
X693421Y438150D01*
X693421Y435610D01*
X693432Y435545D01*
X693434Y435479D01*
X693452Y435436D01*
X693460Y435389D01*
X693494Y435332D01*
X693519Y435272D01*
X693550Y435237D01*
X693575Y435196D01*
X693626Y435155D01*
X693670Y435106D01*
X693712Y435084D01*
X693749Y435055D01*
X693811Y435034D01*
X693870Y435003D01*
X693924Y434995D01*
X693961Y434983D01*
X694001Y434984D01*
X694055Y434976D01*
X697865Y434976D01*
X697930Y434987D01*
G37*
G36*
X957010Y434987D02*
X957010Y434987D01*
X957076Y434989D01*
X957119Y435007D01*
X957166Y435015D01*
X957223Y435049D01*
X957283Y435074D01*
X957318Y435105D01*
X957359Y435130D01*
X957401Y435181D01*
X957449Y435225D01*
X957471Y435267D01*
X957500Y435304D01*
X957521Y435366D01*
X957552Y435425D01*
X957560Y435479D01*
X957572Y435516D01*
X957571Y435556D01*
X957579Y435610D01*
X957579Y438150D01*
X957568Y438215D01*
X957566Y438281D01*
X957548Y438324D01*
X957540Y438371D01*
X957506Y438428D01*
X957481Y438488D01*
X957450Y438523D01*
X957425Y438564D01*
X957374Y438606D01*
X957330Y438654D01*
X957288Y438676D01*
X957251Y438705D01*
X957189Y438726D01*
X957130Y438757D01*
X957076Y438765D01*
X957039Y438777D01*
X956999Y438776D01*
X956945Y438784D01*
X953135Y438784D01*
X953070Y438773D01*
X953004Y438771D01*
X952961Y438753D01*
X952914Y438745D01*
X952857Y438711D01*
X952797Y438686D01*
X952762Y438655D01*
X952721Y438630D01*
X952680Y438579D01*
X952631Y438535D01*
X952609Y438493D01*
X952580Y438456D01*
X952559Y438394D01*
X952528Y438335D01*
X952520Y438281D01*
X952508Y438244D01*
X952508Y438241D01*
X952509Y438204D01*
X952501Y438150D01*
X952501Y435610D01*
X952512Y435545D01*
X952514Y435479D01*
X952532Y435436D01*
X952540Y435389D01*
X952574Y435332D01*
X952599Y435272D01*
X952630Y435237D01*
X952655Y435196D01*
X952706Y435155D01*
X952750Y435106D01*
X952792Y435084D01*
X952829Y435055D01*
X952891Y435034D01*
X952950Y435003D01*
X953004Y434995D01*
X953041Y434983D01*
X953081Y434984D01*
X953135Y434976D01*
X956945Y434976D01*
X957010Y434987D01*
G37*
G36*
X438850Y434987D02*
X438850Y434987D01*
X438916Y434989D01*
X438959Y435007D01*
X439006Y435015D01*
X439063Y435049D01*
X439123Y435074D01*
X439158Y435105D01*
X439199Y435130D01*
X439241Y435181D01*
X439289Y435225D01*
X439311Y435267D01*
X439340Y435304D01*
X439361Y435366D01*
X439392Y435425D01*
X439400Y435479D01*
X439412Y435516D01*
X439411Y435556D01*
X439419Y435610D01*
X439419Y438150D01*
X439408Y438215D01*
X439406Y438281D01*
X439388Y438324D01*
X439380Y438371D01*
X439346Y438428D01*
X439321Y438488D01*
X439290Y438523D01*
X439265Y438564D01*
X439214Y438606D01*
X439170Y438654D01*
X439128Y438676D01*
X439091Y438705D01*
X439029Y438726D01*
X438970Y438757D01*
X438916Y438765D01*
X438879Y438777D01*
X438839Y438776D01*
X438785Y438784D01*
X434975Y438784D01*
X434910Y438773D01*
X434844Y438771D01*
X434801Y438753D01*
X434754Y438745D01*
X434697Y438711D01*
X434637Y438686D01*
X434602Y438655D01*
X434561Y438630D01*
X434520Y438579D01*
X434471Y438535D01*
X434449Y438493D01*
X434420Y438456D01*
X434399Y438394D01*
X434368Y438335D01*
X434360Y438281D01*
X434348Y438244D01*
X434348Y438241D01*
X434349Y438204D01*
X434341Y438150D01*
X434341Y435610D01*
X434352Y435545D01*
X434354Y435479D01*
X434372Y435436D01*
X434380Y435389D01*
X434414Y435332D01*
X434439Y435272D01*
X434470Y435237D01*
X434495Y435196D01*
X434546Y435155D01*
X434590Y435106D01*
X434632Y435084D01*
X434669Y435055D01*
X434731Y435034D01*
X434790Y435003D01*
X434844Y434995D01*
X434881Y434983D01*
X434921Y434984D01*
X434975Y434976D01*
X438785Y434976D01*
X438850Y434987D01*
G37*
G36*
X27370Y434987D02*
X27370Y434987D01*
X27436Y434989D01*
X27479Y435007D01*
X27526Y435015D01*
X27583Y435049D01*
X27643Y435074D01*
X27678Y435105D01*
X27719Y435130D01*
X27761Y435181D01*
X27809Y435225D01*
X27831Y435267D01*
X27860Y435304D01*
X27881Y435366D01*
X27912Y435425D01*
X27920Y435479D01*
X27932Y435516D01*
X27931Y435556D01*
X27939Y435610D01*
X27939Y438150D01*
X27928Y438215D01*
X27926Y438281D01*
X27908Y438324D01*
X27900Y438371D01*
X27866Y438428D01*
X27841Y438488D01*
X27810Y438523D01*
X27785Y438564D01*
X27734Y438606D01*
X27690Y438654D01*
X27648Y438676D01*
X27611Y438705D01*
X27549Y438726D01*
X27490Y438757D01*
X27436Y438765D01*
X27399Y438777D01*
X27359Y438776D01*
X27305Y438784D01*
X23495Y438784D01*
X23430Y438773D01*
X23364Y438771D01*
X23321Y438753D01*
X23274Y438745D01*
X23217Y438711D01*
X23157Y438686D01*
X23122Y438655D01*
X23081Y438630D01*
X23040Y438579D01*
X22991Y438535D01*
X22969Y438493D01*
X22940Y438456D01*
X22919Y438394D01*
X22888Y438335D01*
X22880Y438281D01*
X22868Y438244D01*
X22868Y438241D01*
X22869Y438204D01*
X22861Y438150D01*
X22861Y435610D01*
X22872Y435545D01*
X22874Y435479D01*
X22892Y435436D01*
X22900Y435389D01*
X22934Y435332D01*
X22959Y435272D01*
X22990Y435237D01*
X23015Y435196D01*
X23066Y435155D01*
X23110Y435106D01*
X23152Y435084D01*
X23189Y435055D01*
X23251Y435034D01*
X23310Y435003D01*
X23364Y434995D01*
X23401Y434983D01*
X23441Y434984D01*
X23495Y434976D01*
X27305Y434976D01*
X27370Y434987D01*
G37*
G36*
X545530Y434987D02*
X545530Y434987D01*
X545596Y434989D01*
X545639Y435007D01*
X545686Y435015D01*
X545743Y435049D01*
X545803Y435074D01*
X545838Y435105D01*
X545879Y435130D01*
X545921Y435181D01*
X545969Y435225D01*
X545991Y435267D01*
X546020Y435304D01*
X546041Y435366D01*
X546072Y435425D01*
X546080Y435479D01*
X546092Y435516D01*
X546091Y435556D01*
X546099Y435610D01*
X546099Y438150D01*
X546088Y438215D01*
X546086Y438281D01*
X546068Y438324D01*
X546060Y438371D01*
X546026Y438428D01*
X546001Y438488D01*
X545970Y438523D01*
X545945Y438564D01*
X545894Y438606D01*
X545850Y438654D01*
X545808Y438676D01*
X545771Y438705D01*
X545709Y438726D01*
X545650Y438757D01*
X545596Y438765D01*
X545559Y438777D01*
X545519Y438776D01*
X545465Y438784D01*
X541655Y438784D01*
X541590Y438773D01*
X541524Y438771D01*
X541481Y438753D01*
X541434Y438745D01*
X541377Y438711D01*
X541317Y438686D01*
X541282Y438655D01*
X541241Y438630D01*
X541200Y438579D01*
X541151Y438535D01*
X541129Y438493D01*
X541100Y438456D01*
X541079Y438394D01*
X541048Y438335D01*
X541040Y438281D01*
X541028Y438244D01*
X541028Y438241D01*
X541029Y438204D01*
X541021Y438150D01*
X541021Y435610D01*
X541032Y435545D01*
X541034Y435479D01*
X541052Y435436D01*
X541060Y435389D01*
X541094Y435332D01*
X541119Y435272D01*
X541150Y435237D01*
X541175Y435196D01*
X541226Y435155D01*
X541270Y435106D01*
X541312Y435084D01*
X541349Y435055D01*
X541411Y435034D01*
X541470Y435003D01*
X541524Y434995D01*
X541561Y434983D01*
X541601Y434984D01*
X541655Y434976D01*
X545465Y434976D01*
X545530Y434987D01*
G37*
G36*
X901130Y358787D02*
X901130Y358787D01*
X901196Y358789D01*
X901239Y358807D01*
X901286Y358815D01*
X901343Y358849D01*
X901403Y358874D01*
X901438Y358905D01*
X901479Y358930D01*
X901521Y358981D01*
X901569Y359025D01*
X901591Y359067D01*
X901620Y359104D01*
X901641Y359166D01*
X901672Y359225D01*
X901680Y359279D01*
X901692Y359316D01*
X901691Y359356D01*
X901699Y359410D01*
X901699Y361950D01*
X901688Y362015D01*
X901686Y362081D01*
X901668Y362124D01*
X901660Y362171D01*
X901626Y362228D01*
X901601Y362288D01*
X901570Y362323D01*
X901545Y362364D01*
X901494Y362406D01*
X901450Y362454D01*
X901408Y362476D01*
X901371Y362505D01*
X901309Y362526D01*
X901250Y362557D01*
X901196Y362565D01*
X901159Y362577D01*
X901119Y362576D01*
X901065Y362584D01*
X897255Y362584D01*
X897190Y362573D01*
X897124Y362571D01*
X897081Y362553D01*
X897034Y362545D01*
X896977Y362511D01*
X896917Y362486D01*
X896882Y362455D01*
X896841Y362430D01*
X896800Y362379D01*
X896751Y362335D01*
X896729Y362293D01*
X896700Y362256D01*
X896679Y362194D01*
X896648Y362135D01*
X896640Y362081D01*
X896628Y362044D01*
X896628Y362041D01*
X896629Y362004D01*
X896621Y361950D01*
X896621Y359410D01*
X896632Y359345D01*
X896634Y359279D01*
X896652Y359236D01*
X896660Y359189D01*
X896694Y359132D01*
X896719Y359072D01*
X896750Y359037D01*
X896775Y358996D01*
X896826Y358955D01*
X896870Y358906D01*
X896912Y358884D01*
X896949Y358855D01*
X897011Y358834D01*
X897070Y358803D01*
X897124Y358795D01*
X897161Y358783D01*
X897201Y358784D01*
X897255Y358776D01*
X901065Y358776D01*
X901130Y358787D01*
G37*
G36*
X393130Y358787D02*
X393130Y358787D01*
X393196Y358789D01*
X393239Y358807D01*
X393286Y358815D01*
X393343Y358849D01*
X393403Y358874D01*
X393438Y358905D01*
X393479Y358930D01*
X393521Y358981D01*
X393569Y359025D01*
X393591Y359067D01*
X393620Y359104D01*
X393641Y359166D01*
X393672Y359225D01*
X393680Y359279D01*
X393692Y359316D01*
X393691Y359356D01*
X393699Y359410D01*
X393699Y361950D01*
X393688Y362015D01*
X393686Y362081D01*
X393668Y362124D01*
X393660Y362171D01*
X393626Y362228D01*
X393601Y362288D01*
X393570Y362323D01*
X393545Y362364D01*
X393494Y362406D01*
X393450Y362454D01*
X393408Y362476D01*
X393371Y362505D01*
X393309Y362526D01*
X393250Y362557D01*
X393196Y362565D01*
X393159Y362577D01*
X393119Y362576D01*
X393065Y362584D01*
X389255Y362584D01*
X389190Y362573D01*
X389124Y362571D01*
X389081Y362553D01*
X389034Y362545D01*
X388977Y362511D01*
X388917Y362486D01*
X388882Y362455D01*
X388841Y362430D01*
X388800Y362379D01*
X388751Y362335D01*
X388729Y362293D01*
X388700Y362256D01*
X388679Y362194D01*
X388648Y362135D01*
X388640Y362081D01*
X388628Y362044D01*
X388628Y362041D01*
X388629Y362004D01*
X388621Y361950D01*
X388621Y359410D01*
X388632Y359345D01*
X388634Y359279D01*
X388652Y359236D01*
X388660Y359189D01*
X388694Y359132D01*
X388719Y359072D01*
X388750Y359037D01*
X388775Y358996D01*
X388826Y358955D01*
X388870Y358906D01*
X388912Y358884D01*
X388949Y358855D01*
X389011Y358834D01*
X389070Y358803D01*
X389124Y358795D01*
X389161Y358783D01*
X389201Y358784D01*
X389255Y358776D01*
X393065Y358776D01*
X393130Y358787D01*
G37*
G36*
X134050Y358787D02*
X134050Y358787D01*
X134116Y358789D01*
X134159Y358807D01*
X134206Y358815D01*
X134263Y358849D01*
X134323Y358874D01*
X134358Y358905D01*
X134399Y358930D01*
X134441Y358981D01*
X134489Y359025D01*
X134511Y359067D01*
X134540Y359104D01*
X134561Y359166D01*
X134592Y359225D01*
X134600Y359279D01*
X134612Y359316D01*
X134611Y359356D01*
X134619Y359410D01*
X134619Y361950D01*
X134608Y362015D01*
X134606Y362081D01*
X134588Y362124D01*
X134580Y362171D01*
X134546Y362228D01*
X134521Y362288D01*
X134490Y362323D01*
X134465Y362364D01*
X134414Y362406D01*
X134370Y362454D01*
X134328Y362476D01*
X134291Y362505D01*
X134229Y362526D01*
X134170Y362557D01*
X134116Y362565D01*
X134079Y362577D01*
X134039Y362576D01*
X133985Y362584D01*
X130175Y362584D01*
X130110Y362573D01*
X130044Y362571D01*
X130001Y362553D01*
X129954Y362545D01*
X129897Y362511D01*
X129837Y362486D01*
X129802Y362455D01*
X129761Y362430D01*
X129720Y362379D01*
X129671Y362335D01*
X129649Y362293D01*
X129620Y362256D01*
X129599Y362194D01*
X129568Y362135D01*
X129560Y362081D01*
X129548Y362044D01*
X129548Y362041D01*
X129549Y362004D01*
X129541Y361950D01*
X129541Y359410D01*
X129552Y359345D01*
X129554Y359279D01*
X129572Y359236D01*
X129580Y359189D01*
X129614Y359132D01*
X129639Y359072D01*
X129670Y359037D01*
X129695Y358996D01*
X129746Y358955D01*
X129790Y358906D01*
X129832Y358884D01*
X129869Y358855D01*
X129931Y358834D01*
X129990Y358803D01*
X130044Y358795D01*
X130081Y358783D01*
X130121Y358784D01*
X130175Y358776D01*
X133985Y358776D01*
X134050Y358787D01*
G37*
G36*
X911290Y358787D02*
X911290Y358787D01*
X911356Y358789D01*
X911399Y358807D01*
X911446Y358815D01*
X911503Y358849D01*
X911563Y358874D01*
X911598Y358905D01*
X911639Y358930D01*
X911681Y358981D01*
X911729Y359025D01*
X911751Y359067D01*
X911780Y359104D01*
X911801Y359166D01*
X911832Y359225D01*
X911840Y359279D01*
X911852Y359316D01*
X911851Y359356D01*
X911859Y359410D01*
X911859Y361950D01*
X911848Y362015D01*
X911846Y362081D01*
X911828Y362124D01*
X911820Y362171D01*
X911786Y362228D01*
X911761Y362288D01*
X911730Y362323D01*
X911705Y362364D01*
X911654Y362406D01*
X911610Y362454D01*
X911568Y362476D01*
X911531Y362505D01*
X911469Y362526D01*
X911410Y362557D01*
X911356Y362565D01*
X911319Y362577D01*
X911279Y362576D01*
X911225Y362584D01*
X907415Y362584D01*
X907350Y362573D01*
X907284Y362571D01*
X907241Y362553D01*
X907194Y362545D01*
X907137Y362511D01*
X907077Y362486D01*
X907042Y362455D01*
X907001Y362430D01*
X906960Y362379D01*
X906911Y362335D01*
X906889Y362293D01*
X906860Y362256D01*
X906839Y362194D01*
X906808Y362135D01*
X906800Y362081D01*
X906788Y362044D01*
X906788Y362041D01*
X906789Y362004D01*
X906781Y361950D01*
X906781Y359410D01*
X906792Y359345D01*
X906794Y359279D01*
X906812Y359236D01*
X906820Y359189D01*
X906854Y359132D01*
X906879Y359072D01*
X906910Y359037D01*
X906935Y358996D01*
X906986Y358955D01*
X907030Y358906D01*
X907072Y358884D01*
X907109Y358855D01*
X907171Y358834D01*
X907230Y358803D01*
X907284Y358795D01*
X907321Y358783D01*
X907361Y358784D01*
X907415Y358776D01*
X911225Y358776D01*
X911290Y358787D01*
G37*
G36*
X642050Y358787D02*
X642050Y358787D01*
X642116Y358789D01*
X642159Y358807D01*
X642206Y358815D01*
X642263Y358849D01*
X642323Y358874D01*
X642358Y358905D01*
X642399Y358930D01*
X642441Y358981D01*
X642489Y359025D01*
X642511Y359067D01*
X642540Y359104D01*
X642561Y359166D01*
X642592Y359225D01*
X642600Y359279D01*
X642612Y359316D01*
X642611Y359356D01*
X642619Y359410D01*
X642619Y361950D01*
X642608Y362015D01*
X642606Y362081D01*
X642588Y362124D01*
X642580Y362171D01*
X642546Y362228D01*
X642521Y362288D01*
X642490Y362323D01*
X642465Y362364D01*
X642414Y362406D01*
X642370Y362454D01*
X642328Y362476D01*
X642291Y362505D01*
X642229Y362526D01*
X642170Y362557D01*
X642116Y362565D01*
X642079Y362577D01*
X642039Y362576D01*
X641985Y362584D01*
X638175Y362584D01*
X638110Y362573D01*
X638044Y362571D01*
X638001Y362553D01*
X637954Y362545D01*
X637897Y362511D01*
X637837Y362486D01*
X637802Y362455D01*
X637761Y362430D01*
X637720Y362379D01*
X637671Y362335D01*
X637649Y362293D01*
X637620Y362256D01*
X637599Y362194D01*
X637568Y362135D01*
X637560Y362081D01*
X637548Y362044D01*
X637548Y362041D01*
X637549Y362004D01*
X637541Y361950D01*
X637541Y359410D01*
X637552Y359345D01*
X637554Y359279D01*
X637572Y359236D01*
X637580Y359189D01*
X637614Y359132D01*
X637639Y359072D01*
X637670Y359037D01*
X637695Y358996D01*
X637746Y358955D01*
X637790Y358906D01*
X637832Y358884D01*
X637869Y358855D01*
X637931Y358834D01*
X637990Y358803D01*
X638044Y358795D01*
X638081Y358783D01*
X638121Y358784D01*
X638175Y358776D01*
X641985Y358776D01*
X642050Y358787D01*
G37*
G36*
X382970Y358787D02*
X382970Y358787D01*
X383036Y358789D01*
X383079Y358807D01*
X383126Y358815D01*
X383183Y358849D01*
X383243Y358874D01*
X383278Y358905D01*
X383319Y358930D01*
X383361Y358981D01*
X383409Y359025D01*
X383431Y359067D01*
X383460Y359104D01*
X383481Y359166D01*
X383512Y359225D01*
X383520Y359279D01*
X383532Y359316D01*
X383531Y359356D01*
X383539Y359410D01*
X383539Y361950D01*
X383528Y362015D01*
X383526Y362081D01*
X383508Y362124D01*
X383500Y362171D01*
X383466Y362228D01*
X383441Y362288D01*
X383410Y362323D01*
X383385Y362364D01*
X383334Y362406D01*
X383290Y362454D01*
X383248Y362476D01*
X383211Y362505D01*
X383149Y362526D01*
X383090Y362557D01*
X383036Y362565D01*
X382999Y362577D01*
X382959Y362576D01*
X382905Y362584D01*
X379095Y362584D01*
X379030Y362573D01*
X378964Y362571D01*
X378921Y362553D01*
X378874Y362545D01*
X378817Y362511D01*
X378757Y362486D01*
X378722Y362455D01*
X378681Y362430D01*
X378640Y362379D01*
X378591Y362335D01*
X378569Y362293D01*
X378540Y362256D01*
X378519Y362194D01*
X378488Y362135D01*
X378480Y362081D01*
X378468Y362044D01*
X378468Y362041D01*
X378469Y362004D01*
X378461Y361950D01*
X378461Y359410D01*
X378472Y359345D01*
X378474Y359279D01*
X378492Y359236D01*
X378500Y359189D01*
X378534Y359132D01*
X378559Y359072D01*
X378590Y359037D01*
X378615Y358996D01*
X378666Y358955D01*
X378710Y358906D01*
X378752Y358884D01*
X378789Y358855D01*
X378851Y358834D01*
X378910Y358803D01*
X378964Y358795D01*
X379001Y358783D01*
X379041Y358784D01*
X379095Y358776D01*
X382905Y358776D01*
X382970Y358787D01*
G37*
G36*
X123890Y358787D02*
X123890Y358787D01*
X123956Y358789D01*
X123999Y358807D01*
X124046Y358815D01*
X124103Y358849D01*
X124163Y358874D01*
X124198Y358905D01*
X124239Y358930D01*
X124281Y358981D01*
X124329Y359025D01*
X124351Y359067D01*
X124380Y359104D01*
X124401Y359166D01*
X124432Y359225D01*
X124440Y359279D01*
X124452Y359316D01*
X124451Y359356D01*
X124459Y359410D01*
X124459Y361950D01*
X124448Y362015D01*
X124446Y362081D01*
X124428Y362124D01*
X124420Y362171D01*
X124386Y362228D01*
X124361Y362288D01*
X124330Y362323D01*
X124305Y362364D01*
X124254Y362406D01*
X124210Y362454D01*
X124168Y362476D01*
X124131Y362505D01*
X124069Y362526D01*
X124010Y362557D01*
X123956Y362565D01*
X123919Y362577D01*
X123879Y362576D01*
X123825Y362584D01*
X120015Y362584D01*
X119950Y362573D01*
X119884Y362571D01*
X119841Y362553D01*
X119794Y362545D01*
X119737Y362511D01*
X119677Y362486D01*
X119642Y362455D01*
X119601Y362430D01*
X119560Y362379D01*
X119511Y362335D01*
X119489Y362293D01*
X119460Y362256D01*
X119439Y362194D01*
X119408Y362135D01*
X119400Y362081D01*
X119388Y362044D01*
X119388Y362041D01*
X119389Y362004D01*
X119381Y361950D01*
X119381Y359410D01*
X119392Y359345D01*
X119394Y359279D01*
X119412Y359236D01*
X119420Y359189D01*
X119454Y359132D01*
X119479Y359072D01*
X119510Y359037D01*
X119535Y358996D01*
X119586Y358955D01*
X119630Y358906D01*
X119672Y358884D01*
X119709Y358855D01*
X119771Y358834D01*
X119830Y358803D01*
X119884Y358795D01*
X119921Y358783D01*
X119961Y358784D01*
X120015Y358776D01*
X123825Y358776D01*
X123890Y358787D01*
G37*
G36*
X652210Y358787D02*
X652210Y358787D01*
X652276Y358789D01*
X652319Y358807D01*
X652366Y358815D01*
X652423Y358849D01*
X652483Y358874D01*
X652518Y358905D01*
X652559Y358930D01*
X652601Y358981D01*
X652649Y359025D01*
X652671Y359067D01*
X652700Y359104D01*
X652721Y359166D01*
X652752Y359225D01*
X652760Y359279D01*
X652772Y359316D01*
X652771Y359356D01*
X652779Y359410D01*
X652779Y361950D01*
X652768Y362015D01*
X652766Y362081D01*
X652748Y362124D01*
X652740Y362171D01*
X652706Y362228D01*
X652681Y362288D01*
X652650Y362323D01*
X652625Y362364D01*
X652574Y362406D01*
X652530Y362454D01*
X652488Y362476D01*
X652451Y362505D01*
X652389Y362526D01*
X652330Y362557D01*
X652276Y362565D01*
X652239Y362577D01*
X652199Y362576D01*
X652145Y362584D01*
X648335Y362584D01*
X648270Y362573D01*
X648204Y362571D01*
X648161Y362553D01*
X648114Y362545D01*
X648057Y362511D01*
X647997Y362486D01*
X647962Y362455D01*
X647921Y362430D01*
X647880Y362379D01*
X647831Y362335D01*
X647809Y362293D01*
X647780Y362256D01*
X647759Y362194D01*
X647728Y362135D01*
X647720Y362081D01*
X647708Y362044D01*
X647708Y362041D01*
X647709Y362004D01*
X647701Y361950D01*
X647701Y359410D01*
X647712Y359345D01*
X647714Y359279D01*
X647732Y359236D01*
X647740Y359189D01*
X647774Y359132D01*
X647799Y359072D01*
X647830Y359037D01*
X647855Y358996D01*
X647906Y358955D01*
X647950Y358906D01*
X647992Y358884D01*
X648029Y358855D01*
X648091Y358834D01*
X648150Y358803D01*
X648204Y358795D01*
X648241Y358783D01*
X648281Y358784D01*
X648335Y358776D01*
X652145Y358776D01*
X652210Y358787D01*
G37*
G36*
X438850Y175907D02*
X438850Y175907D01*
X438916Y175909D01*
X438959Y175927D01*
X439006Y175935D01*
X439063Y175969D01*
X439123Y175994D01*
X439158Y176025D01*
X439199Y176050D01*
X439241Y176101D01*
X439289Y176145D01*
X439311Y176187D01*
X439340Y176224D01*
X439361Y176286D01*
X439392Y176345D01*
X439400Y176399D01*
X439412Y176436D01*
X439411Y176476D01*
X439419Y176530D01*
X439419Y179070D01*
X439408Y179135D01*
X439406Y179201D01*
X439388Y179244D01*
X439380Y179291D01*
X439346Y179348D01*
X439321Y179408D01*
X439290Y179443D01*
X439265Y179484D01*
X439214Y179526D01*
X439170Y179574D01*
X439128Y179596D01*
X439091Y179625D01*
X439029Y179646D01*
X438970Y179677D01*
X438916Y179685D01*
X438879Y179697D01*
X438839Y179696D01*
X438785Y179704D01*
X434975Y179704D01*
X434910Y179693D01*
X434844Y179691D01*
X434801Y179673D01*
X434754Y179665D01*
X434697Y179631D01*
X434637Y179606D01*
X434602Y179575D01*
X434561Y179550D01*
X434520Y179499D01*
X434471Y179455D01*
X434449Y179413D01*
X434420Y179376D01*
X434399Y179314D01*
X434368Y179255D01*
X434360Y179201D01*
X434348Y179164D01*
X434348Y179161D01*
X434349Y179124D01*
X434341Y179070D01*
X434341Y176530D01*
X434352Y176465D01*
X434354Y176399D01*
X434372Y176356D01*
X434380Y176309D01*
X434414Y176252D01*
X434439Y176192D01*
X434470Y176157D01*
X434495Y176116D01*
X434546Y176075D01*
X434590Y176026D01*
X434632Y176004D01*
X434669Y175975D01*
X434731Y175954D01*
X434790Y175923D01*
X434844Y175915D01*
X434881Y175903D01*
X434921Y175904D01*
X434975Y175896D01*
X438785Y175896D01*
X438850Y175907D01*
G37*
G36*
X286450Y175907D02*
X286450Y175907D01*
X286516Y175909D01*
X286559Y175927D01*
X286606Y175935D01*
X286663Y175969D01*
X286723Y175994D01*
X286758Y176025D01*
X286799Y176050D01*
X286841Y176101D01*
X286889Y176145D01*
X286911Y176187D01*
X286940Y176224D01*
X286961Y176286D01*
X286992Y176345D01*
X287000Y176399D01*
X287012Y176436D01*
X287011Y176476D01*
X287019Y176530D01*
X287019Y179070D01*
X287008Y179135D01*
X287006Y179201D01*
X286988Y179244D01*
X286980Y179291D01*
X286946Y179348D01*
X286921Y179408D01*
X286890Y179443D01*
X286865Y179484D01*
X286814Y179526D01*
X286770Y179574D01*
X286728Y179596D01*
X286691Y179625D01*
X286629Y179646D01*
X286570Y179677D01*
X286516Y179685D01*
X286479Y179697D01*
X286439Y179696D01*
X286385Y179704D01*
X282575Y179704D01*
X282510Y179693D01*
X282444Y179691D01*
X282401Y179673D01*
X282354Y179665D01*
X282297Y179631D01*
X282237Y179606D01*
X282202Y179575D01*
X282161Y179550D01*
X282120Y179499D01*
X282071Y179455D01*
X282049Y179413D01*
X282020Y179376D01*
X281999Y179314D01*
X281968Y179255D01*
X281960Y179201D01*
X281948Y179164D01*
X281948Y179161D01*
X281949Y179124D01*
X281941Y179070D01*
X281941Y176530D01*
X281952Y176465D01*
X281954Y176399D01*
X281972Y176356D01*
X281980Y176309D01*
X282014Y176252D01*
X282039Y176192D01*
X282070Y176157D01*
X282095Y176116D01*
X282146Y176075D01*
X282190Y176026D01*
X282232Y176004D01*
X282269Y175975D01*
X282331Y175954D01*
X282390Y175923D01*
X282444Y175915D01*
X282481Y175903D01*
X282521Y175904D01*
X282575Y175896D01*
X286385Y175896D01*
X286450Y175907D01*
G37*
G36*
X545530Y175907D02*
X545530Y175907D01*
X545596Y175909D01*
X545639Y175927D01*
X545686Y175935D01*
X545743Y175969D01*
X545803Y175994D01*
X545838Y176025D01*
X545879Y176050D01*
X545921Y176101D01*
X545969Y176145D01*
X545991Y176187D01*
X546020Y176224D01*
X546041Y176286D01*
X546072Y176345D01*
X546080Y176399D01*
X546092Y176436D01*
X546091Y176476D01*
X546099Y176530D01*
X546099Y179070D01*
X546088Y179135D01*
X546086Y179201D01*
X546068Y179244D01*
X546060Y179291D01*
X546026Y179348D01*
X546001Y179408D01*
X545970Y179443D01*
X545945Y179484D01*
X545894Y179526D01*
X545850Y179574D01*
X545808Y179596D01*
X545771Y179625D01*
X545709Y179646D01*
X545650Y179677D01*
X545596Y179685D01*
X545559Y179697D01*
X545519Y179696D01*
X545465Y179704D01*
X541655Y179704D01*
X541590Y179693D01*
X541524Y179691D01*
X541481Y179673D01*
X541434Y179665D01*
X541377Y179631D01*
X541317Y179606D01*
X541282Y179575D01*
X541241Y179550D01*
X541200Y179499D01*
X541151Y179455D01*
X541129Y179413D01*
X541100Y179376D01*
X541079Y179314D01*
X541048Y179255D01*
X541040Y179201D01*
X541028Y179164D01*
X541028Y179161D01*
X541029Y179124D01*
X541021Y179070D01*
X541021Y176530D01*
X541032Y176465D01*
X541034Y176399D01*
X541052Y176356D01*
X541060Y176309D01*
X541094Y176252D01*
X541119Y176192D01*
X541150Y176157D01*
X541175Y176116D01*
X541226Y176075D01*
X541270Y176026D01*
X541312Y176004D01*
X541349Y175975D01*
X541411Y175954D01*
X541470Y175923D01*
X541524Y175915D01*
X541561Y175903D01*
X541601Y175904D01*
X541655Y175896D01*
X545465Y175896D01*
X545530Y175907D01*
G37*
G36*
X957010Y175907D02*
X957010Y175907D01*
X957076Y175909D01*
X957119Y175927D01*
X957166Y175935D01*
X957223Y175969D01*
X957283Y175994D01*
X957318Y176025D01*
X957359Y176050D01*
X957401Y176101D01*
X957449Y176145D01*
X957471Y176187D01*
X957500Y176224D01*
X957521Y176286D01*
X957552Y176345D01*
X957560Y176399D01*
X957572Y176436D01*
X957571Y176476D01*
X957579Y176530D01*
X957579Y179070D01*
X957568Y179135D01*
X957566Y179201D01*
X957548Y179244D01*
X957540Y179291D01*
X957506Y179348D01*
X957481Y179408D01*
X957450Y179443D01*
X957425Y179484D01*
X957374Y179526D01*
X957330Y179574D01*
X957288Y179596D01*
X957251Y179625D01*
X957189Y179646D01*
X957130Y179677D01*
X957076Y179685D01*
X957039Y179697D01*
X956999Y179696D01*
X956945Y179704D01*
X953135Y179704D01*
X953070Y179693D01*
X953004Y179691D01*
X952961Y179673D01*
X952914Y179665D01*
X952857Y179631D01*
X952797Y179606D01*
X952762Y179575D01*
X952721Y179550D01*
X952680Y179499D01*
X952631Y179455D01*
X952609Y179413D01*
X952580Y179376D01*
X952559Y179314D01*
X952528Y179255D01*
X952520Y179201D01*
X952508Y179164D01*
X952508Y179161D01*
X952509Y179124D01*
X952501Y179070D01*
X952501Y176530D01*
X952512Y176465D01*
X952514Y176399D01*
X952532Y176356D01*
X952540Y176309D01*
X952574Y176252D01*
X952599Y176192D01*
X952630Y176157D01*
X952655Y176116D01*
X952706Y176075D01*
X952750Y176026D01*
X952792Y176004D01*
X952829Y175975D01*
X952891Y175954D01*
X952950Y175923D01*
X953004Y175915D01*
X953041Y175903D01*
X953081Y175904D01*
X953135Y175896D01*
X956945Y175896D01*
X957010Y175907D01*
G37*
G36*
X697930Y175907D02*
X697930Y175907D01*
X697996Y175909D01*
X698039Y175927D01*
X698086Y175935D01*
X698143Y175969D01*
X698203Y175994D01*
X698238Y176025D01*
X698279Y176050D01*
X698321Y176101D01*
X698369Y176145D01*
X698391Y176187D01*
X698420Y176224D01*
X698441Y176286D01*
X698472Y176345D01*
X698480Y176399D01*
X698492Y176436D01*
X698491Y176476D01*
X698499Y176530D01*
X698499Y179070D01*
X698488Y179135D01*
X698486Y179201D01*
X698468Y179244D01*
X698460Y179291D01*
X698426Y179348D01*
X698401Y179408D01*
X698370Y179443D01*
X698345Y179484D01*
X698294Y179526D01*
X698250Y179574D01*
X698208Y179596D01*
X698171Y179625D01*
X698109Y179646D01*
X698050Y179677D01*
X697996Y179685D01*
X697959Y179697D01*
X697919Y179696D01*
X697865Y179704D01*
X694055Y179704D01*
X693990Y179693D01*
X693924Y179691D01*
X693881Y179673D01*
X693834Y179665D01*
X693777Y179631D01*
X693717Y179606D01*
X693682Y179575D01*
X693641Y179550D01*
X693600Y179499D01*
X693551Y179455D01*
X693529Y179413D01*
X693500Y179376D01*
X693479Y179314D01*
X693448Y179255D01*
X693440Y179201D01*
X693428Y179164D01*
X693428Y179161D01*
X693429Y179124D01*
X693421Y179070D01*
X693421Y176530D01*
X693432Y176465D01*
X693434Y176399D01*
X693452Y176356D01*
X693460Y176309D01*
X693494Y176252D01*
X693519Y176192D01*
X693550Y176157D01*
X693575Y176116D01*
X693626Y176075D01*
X693670Y176026D01*
X693712Y176004D01*
X693749Y175975D01*
X693811Y175954D01*
X693870Y175923D01*
X693924Y175915D01*
X693961Y175903D01*
X694001Y175904D01*
X694055Y175896D01*
X697865Y175896D01*
X697930Y175907D01*
G37*
G36*
X179770Y175907D02*
X179770Y175907D01*
X179836Y175909D01*
X179879Y175927D01*
X179926Y175935D01*
X179983Y175969D01*
X180043Y175994D01*
X180078Y176025D01*
X180119Y176050D01*
X180161Y176101D01*
X180209Y176145D01*
X180231Y176187D01*
X180260Y176224D01*
X180281Y176286D01*
X180312Y176345D01*
X180320Y176399D01*
X180332Y176436D01*
X180331Y176476D01*
X180339Y176530D01*
X180339Y179070D01*
X180328Y179135D01*
X180326Y179201D01*
X180308Y179244D01*
X180300Y179291D01*
X180266Y179348D01*
X180241Y179408D01*
X180210Y179443D01*
X180185Y179484D01*
X180134Y179526D01*
X180090Y179574D01*
X180048Y179596D01*
X180011Y179625D01*
X179949Y179646D01*
X179890Y179677D01*
X179836Y179685D01*
X179799Y179697D01*
X179759Y179696D01*
X179705Y179704D01*
X175895Y179704D01*
X175830Y179693D01*
X175764Y179691D01*
X175721Y179673D01*
X175674Y179665D01*
X175617Y179631D01*
X175557Y179606D01*
X175522Y179575D01*
X175481Y179550D01*
X175440Y179499D01*
X175391Y179455D01*
X175369Y179413D01*
X175340Y179376D01*
X175319Y179314D01*
X175288Y179255D01*
X175280Y179201D01*
X175268Y179164D01*
X175268Y179161D01*
X175269Y179124D01*
X175261Y179070D01*
X175261Y176530D01*
X175272Y176465D01*
X175274Y176399D01*
X175292Y176356D01*
X175300Y176309D01*
X175334Y176252D01*
X175359Y176192D01*
X175390Y176157D01*
X175415Y176116D01*
X175466Y176075D01*
X175510Y176026D01*
X175552Y176004D01*
X175589Y175975D01*
X175651Y175954D01*
X175710Y175923D01*
X175764Y175915D01*
X175801Y175903D01*
X175841Y175904D01*
X175895Y175896D01*
X179705Y175896D01*
X179770Y175907D01*
G37*
G36*
X27370Y175907D02*
X27370Y175907D01*
X27436Y175909D01*
X27479Y175927D01*
X27526Y175935D01*
X27583Y175969D01*
X27643Y175994D01*
X27678Y176025D01*
X27719Y176050D01*
X27761Y176101D01*
X27809Y176145D01*
X27831Y176187D01*
X27860Y176224D01*
X27881Y176286D01*
X27912Y176345D01*
X27920Y176399D01*
X27932Y176436D01*
X27931Y176476D01*
X27939Y176530D01*
X27939Y179070D01*
X27928Y179135D01*
X27926Y179201D01*
X27908Y179244D01*
X27900Y179291D01*
X27866Y179348D01*
X27841Y179408D01*
X27810Y179443D01*
X27785Y179484D01*
X27734Y179526D01*
X27690Y179574D01*
X27648Y179596D01*
X27611Y179625D01*
X27549Y179646D01*
X27490Y179677D01*
X27436Y179685D01*
X27399Y179697D01*
X27359Y179696D01*
X27305Y179704D01*
X23495Y179704D01*
X23430Y179693D01*
X23364Y179691D01*
X23321Y179673D01*
X23274Y179665D01*
X23217Y179631D01*
X23157Y179606D01*
X23122Y179575D01*
X23081Y179550D01*
X23040Y179499D01*
X22991Y179455D01*
X22969Y179413D01*
X22940Y179376D01*
X22919Y179314D01*
X22888Y179255D01*
X22880Y179201D01*
X22868Y179164D01*
X22868Y179161D01*
X22869Y179124D01*
X22861Y179070D01*
X22861Y176530D01*
X22872Y176465D01*
X22874Y176399D01*
X22892Y176356D01*
X22900Y176309D01*
X22934Y176252D01*
X22959Y176192D01*
X22990Y176157D01*
X23015Y176116D01*
X23066Y176075D01*
X23110Y176026D01*
X23152Y176004D01*
X23189Y175975D01*
X23251Y175954D01*
X23310Y175923D01*
X23364Y175915D01*
X23401Y175903D01*
X23441Y175904D01*
X23495Y175896D01*
X27305Y175896D01*
X27370Y175907D01*
G37*
G36*
X804610Y175907D02*
X804610Y175907D01*
X804676Y175909D01*
X804719Y175927D01*
X804766Y175935D01*
X804823Y175969D01*
X804883Y175994D01*
X804918Y176025D01*
X804959Y176050D01*
X805001Y176101D01*
X805049Y176145D01*
X805071Y176187D01*
X805100Y176224D01*
X805121Y176286D01*
X805152Y176345D01*
X805160Y176399D01*
X805172Y176436D01*
X805171Y176476D01*
X805179Y176530D01*
X805179Y179070D01*
X805168Y179135D01*
X805166Y179201D01*
X805148Y179244D01*
X805140Y179291D01*
X805106Y179348D01*
X805081Y179408D01*
X805050Y179443D01*
X805025Y179484D01*
X804974Y179526D01*
X804930Y179574D01*
X804888Y179596D01*
X804851Y179625D01*
X804789Y179646D01*
X804730Y179677D01*
X804676Y179685D01*
X804639Y179697D01*
X804599Y179696D01*
X804545Y179704D01*
X800735Y179704D01*
X800670Y179693D01*
X800604Y179691D01*
X800561Y179673D01*
X800514Y179665D01*
X800457Y179631D01*
X800397Y179606D01*
X800362Y179575D01*
X800321Y179550D01*
X800280Y179499D01*
X800231Y179455D01*
X800209Y179413D01*
X800180Y179376D01*
X800159Y179314D01*
X800128Y179255D01*
X800120Y179201D01*
X800108Y179164D01*
X800108Y179161D01*
X800109Y179124D01*
X800101Y179070D01*
X800101Y176530D01*
X800112Y176465D01*
X800114Y176399D01*
X800132Y176356D01*
X800140Y176309D01*
X800174Y176252D01*
X800199Y176192D01*
X800230Y176157D01*
X800255Y176116D01*
X800306Y176075D01*
X800350Y176026D01*
X800392Y176004D01*
X800429Y175975D01*
X800491Y175954D01*
X800550Y175923D01*
X800604Y175915D01*
X800641Y175903D01*
X800681Y175904D01*
X800735Y175896D01*
X804545Y175896D01*
X804610Y175907D01*
G37*
G36*
X911290Y99707D02*
X911290Y99707D01*
X911356Y99709D01*
X911399Y99727D01*
X911446Y99735D01*
X911503Y99769D01*
X911563Y99794D01*
X911598Y99825D01*
X911639Y99850D01*
X911681Y99901D01*
X911729Y99945D01*
X911751Y99987D01*
X911780Y100024D01*
X911801Y100086D01*
X911832Y100145D01*
X911840Y100199D01*
X911852Y100236D01*
X911851Y100276D01*
X911859Y100330D01*
X911859Y102870D01*
X911848Y102935D01*
X911846Y103001D01*
X911828Y103044D01*
X911820Y103091D01*
X911786Y103148D01*
X911761Y103208D01*
X911730Y103243D01*
X911705Y103284D01*
X911654Y103326D01*
X911610Y103374D01*
X911568Y103396D01*
X911531Y103425D01*
X911469Y103446D01*
X911410Y103477D01*
X911356Y103485D01*
X911319Y103497D01*
X911279Y103496D01*
X911225Y103504D01*
X907415Y103504D01*
X907350Y103493D01*
X907284Y103491D01*
X907241Y103473D01*
X907194Y103465D01*
X907137Y103431D01*
X907077Y103406D01*
X907042Y103375D01*
X907001Y103350D01*
X906960Y103299D01*
X906911Y103255D01*
X906889Y103213D01*
X906860Y103176D01*
X906839Y103114D01*
X906808Y103055D01*
X906800Y103001D01*
X906788Y102964D01*
X906788Y102961D01*
X906789Y102924D01*
X906781Y102870D01*
X906781Y100330D01*
X906792Y100265D01*
X906794Y100199D01*
X906812Y100156D01*
X906820Y100109D01*
X906854Y100052D01*
X906879Y99992D01*
X906910Y99957D01*
X906935Y99916D01*
X906986Y99875D01*
X907030Y99826D01*
X907072Y99804D01*
X907109Y99775D01*
X907171Y99754D01*
X907230Y99723D01*
X907284Y99715D01*
X907321Y99703D01*
X907361Y99704D01*
X907415Y99696D01*
X911225Y99696D01*
X911290Y99707D01*
G37*
G36*
X652210Y99707D02*
X652210Y99707D01*
X652276Y99709D01*
X652319Y99727D01*
X652366Y99735D01*
X652423Y99769D01*
X652483Y99794D01*
X652518Y99825D01*
X652559Y99850D01*
X652601Y99901D01*
X652649Y99945D01*
X652671Y99987D01*
X652700Y100024D01*
X652721Y100086D01*
X652752Y100145D01*
X652760Y100199D01*
X652772Y100236D01*
X652771Y100276D01*
X652779Y100330D01*
X652779Y102870D01*
X652768Y102935D01*
X652766Y103001D01*
X652748Y103044D01*
X652740Y103091D01*
X652706Y103148D01*
X652681Y103208D01*
X652650Y103243D01*
X652625Y103284D01*
X652574Y103326D01*
X652530Y103374D01*
X652488Y103396D01*
X652451Y103425D01*
X652389Y103446D01*
X652330Y103477D01*
X652276Y103485D01*
X652239Y103497D01*
X652199Y103496D01*
X652145Y103504D01*
X648335Y103504D01*
X648270Y103493D01*
X648204Y103491D01*
X648161Y103473D01*
X648114Y103465D01*
X648057Y103431D01*
X647997Y103406D01*
X647962Y103375D01*
X647921Y103350D01*
X647880Y103299D01*
X647831Y103255D01*
X647809Y103213D01*
X647780Y103176D01*
X647759Y103114D01*
X647728Y103055D01*
X647720Y103001D01*
X647708Y102964D01*
X647708Y102961D01*
X647709Y102924D01*
X647701Y102870D01*
X647701Y100330D01*
X647712Y100265D01*
X647714Y100199D01*
X647732Y100156D01*
X647740Y100109D01*
X647774Y100052D01*
X647799Y99992D01*
X647830Y99957D01*
X647855Y99916D01*
X647906Y99875D01*
X647950Y99826D01*
X647992Y99804D01*
X648029Y99775D01*
X648091Y99754D01*
X648150Y99723D01*
X648204Y99715D01*
X648241Y99703D01*
X648281Y99704D01*
X648335Y99696D01*
X652145Y99696D01*
X652210Y99707D01*
G37*
G36*
X901130Y99707D02*
X901130Y99707D01*
X901196Y99709D01*
X901239Y99727D01*
X901286Y99735D01*
X901343Y99769D01*
X901403Y99794D01*
X901438Y99825D01*
X901479Y99850D01*
X901521Y99901D01*
X901569Y99945D01*
X901591Y99987D01*
X901620Y100024D01*
X901641Y100086D01*
X901672Y100145D01*
X901680Y100199D01*
X901692Y100236D01*
X901691Y100276D01*
X901699Y100330D01*
X901699Y102870D01*
X901688Y102935D01*
X901686Y103001D01*
X901668Y103044D01*
X901660Y103091D01*
X901626Y103148D01*
X901601Y103208D01*
X901570Y103243D01*
X901545Y103284D01*
X901494Y103326D01*
X901450Y103374D01*
X901408Y103396D01*
X901371Y103425D01*
X901309Y103446D01*
X901250Y103477D01*
X901196Y103485D01*
X901159Y103497D01*
X901119Y103496D01*
X901065Y103504D01*
X897255Y103504D01*
X897190Y103493D01*
X897124Y103491D01*
X897081Y103473D01*
X897034Y103465D01*
X896977Y103431D01*
X896917Y103406D01*
X896882Y103375D01*
X896841Y103350D01*
X896800Y103299D01*
X896751Y103255D01*
X896729Y103213D01*
X896700Y103176D01*
X896679Y103114D01*
X896648Y103055D01*
X896640Y103001D01*
X896628Y102964D01*
X896628Y102961D01*
X896629Y102924D01*
X896621Y102870D01*
X896621Y100330D01*
X896632Y100265D01*
X896634Y100199D01*
X896652Y100156D01*
X896660Y100109D01*
X896694Y100052D01*
X896719Y99992D01*
X896750Y99957D01*
X896775Y99916D01*
X896826Y99875D01*
X896870Y99826D01*
X896912Y99804D01*
X896949Y99775D01*
X897011Y99754D01*
X897070Y99723D01*
X897124Y99715D01*
X897161Y99703D01*
X897201Y99704D01*
X897255Y99696D01*
X901065Y99696D01*
X901130Y99707D01*
G37*
G36*
X393130Y99707D02*
X393130Y99707D01*
X393196Y99709D01*
X393239Y99727D01*
X393286Y99735D01*
X393343Y99769D01*
X393403Y99794D01*
X393438Y99825D01*
X393479Y99850D01*
X393521Y99901D01*
X393569Y99945D01*
X393591Y99987D01*
X393620Y100024D01*
X393641Y100086D01*
X393672Y100145D01*
X393680Y100199D01*
X393692Y100236D01*
X393691Y100276D01*
X393699Y100330D01*
X393699Y102870D01*
X393688Y102935D01*
X393686Y103001D01*
X393668Y103044D01*
X393660Y103091D01*
X393626Y103148D01*
X393601Y103208D01*
X393570Y103243D01*
X393545Y103284D01*
X393494Y103326D01*
X393450Y103374D01*
X393408Y103396D01*
X393371Y103425D01*
X393309Y103446D01*
X393250Y103477D01*
X393196Y103485D01*
X393159Y103497D01*
X393119Y103496D01*
X393065Y103504D01*
X389255Y103504D01*
X389190Y103493D01*
X389124Y103491D01*
X389081Y103473D01*
X389034Y103465D01*
X388977Y103431D01*
X388917Y103406D01*
X388882Y103375D01*
X388841Y103350D01*
X388800Y103299D01*
X388751Y103255D01*
X388729Y103213D01*
X388700Y103176D01*
X388679Y103114D01*
X388648Y103055D01*
X388640Y103001D01*
X388628Y102964D01*
X388628Y102961D01*
X388629Y102924D01*
X388621Y102870D01*
X388621Y100330D01*
X388632Y100265D01*
X388634Y100199D01*
X388652Y100156D01*
X388660Y100109D01*
X388694Y100052D01*
X388719Y99992D01*
X388750Y99957D01*
X388775Y99916D01*
X388826Y99875D01*
X388870Y99826D01*
X388912Y99804D01*
X388949Y99775D01*
X389011Y99754D01*
X389070Y99723D01*
X389124Y99715D01*
X389161Y99703D01*
X389201Y99704D01*
X389255Y99696D01*
X393065Y99696D01*
X393130Y99707D01*
G37*
G36*
X382970Y99707D02*
X382970Y99707D01*
X383036Y99709D01*
X383079Y99727D01*
X383126Y99735D01*
X383183Y99769D01*
X383243Y99794D01*
X383278Y99825D01*
X383319Y99850D01*
X383361Y99901D01*
X383409Y99945D01*
X383431Y99987D01*
X383460Y100024D01*
X383481Y100086D01*
X383512Y100145D01*
X383520Y100199D01*
X383532Y100236D01*
X383531Y100276D01*
X383539Y100330D01*
X383539Y102870D01*
X383528Y102935D01*
X383526Y103001D01*
X383508Y103044D01*
X383500Y103091D01*
X383466Y103148D01*
X383441Y103208D01*
X383410Y103243D01*
X383385Y103284D01*
X383334Y103326D01*
X383290Y103374D01*
X383248Y103396D01*
X383211Y103425D01*
X383149Y103446D01*
X383090Y103477D01*
X383036Y103485D01*
X382999Y103497D01*
X382959Y103496D01*
X382905Y103504D01*
X379095Y103504D01*
X379030Y103493D01*
X378964Y103491D01*
X378921Y103473D01*
X378874Y103465D01*
X378817Y103431D01*
X378757Y103406D01*
X378722Y103375D01*
X378681Y103350D01*
X378640Y103299D01*
X378591Y103255D01*
X378569Y103213D01*
X378540Y103176D01*
X378519Y103114D01*
X378488Y103055D01*
X378480Y103001D01*
X378468Y102964D01*
X378468Y102961D01*
X378469Y102924D01*
X378461Y102870D01*
X378461Y100330D01*
X378472Y100265D01*
X378474Y100199D01*
X378492Y100156D01*
X378500Y100109D01*
X378534Y100052D01*
X378559Y99992D01*
X378590Y99957D01*
X378615Y99916D01*
X378666Y99875D01*
X378710Y99826D01*
X378752Y99804D01*
X378789Y99775D01*
X378851Y99754D01*
X378910Y99723D01*
X378964Y99715D01*
X379001Y99703D01*
X379041Y99704D01*
X379095Y99696D01*
X382905Y99696D01*
X382970Y99707D01*
G37*
G36*
X642050Y99707D02*
X642050Y99707D01*
X642116Y99709D01*
X642159Y99727D01*
X642206Y99735D01*
X642263Y99769D01*
X642323Y99794D01*
X642358Y99825D01*
X642399Y99850D01*
X642441Y99901D01*
X642489Y99945D01*
X642511Y99987D01*
X642540Y100024D01*
X642561Y100086D01*
X642592Y100145D01*
X642600Y100199D01*
X642612Y100236D01*
X642611Y100276D01*
X642619Y100330D01*
X642619Y102870D01*
X642608Y102935D01*
X642606Y103001D01*
X642588Y103044D01*
X642580Y103091D01*
X642546Y103148D01*
X642521Y103208D01*
X642490Y103243D01*
X642465Y103284D01*
X642414Y103326D01*
X642370Y103374D01*
X642328Y103396D01*
X642291Y103425D01*
X642229Y103446D01*
X642170Y103477D01*
X642116Y103485D01*
X642079Y103497D01*
X642039Y103496D01*
X641985Y103504D01*
X638175Y103504D01*
X638110Y103493D01*
X638044Y103491D01*
X638001Y103473D01*
X637954Y103465D01*
X637897Y103431D01*
X637837Y103406D01*
X637802Y103375D01*
X637761Y103350D01*
X637720Y103299D01*
X637671Y103255D01*
X637649Y103213D01*
X637620Y103176D01*
X637599Y103114D01*
X637568Y103055D01*
X637560Y103001D01*
X637548Y102964D01*
X637548Y102961D01*
X637549Y102924D01*
X637541Y102870D01*
X637541Y100330D01*
X637552Y100265D01*
X637554Y100199D01*
X637572Y100156D01*
X637580Y100109D01*
X637614Y100052D01*
X637639Y99992D01*
X637670Y99957D01*
X637695Y99916D01*
X637746Y99875D01*
X637790Y99826D01*
X637832Y99804D01*
X637869Y99775D01*
X637931Y99754D01*
X637990Y99723D01*
X638044Y99715D01*
X638081Y99703D01*
X638121Y99704D01*
X638175Y99696D01*
X641985Y99696D01*
X642050Y99707D01*
G37*
G36*
X134050Y99707D02*
X134050Y99707D01*
X134116Y99709D01*
X134159Y99727D01*
X134206Y99735D01*
X134263Y99769D01*
X134323Y99794D01*
X134358Y99825D01*
X134399Y99850D01*
X134441Y99901D01*
X134489Y99945D01*
X134511Y99987D01*
X134540Y100024D01*
X134561Y100086D01*
X134592Y100145D01*
X134600Y100199D01*
X134612Y100236D01*
X134611Y100276D01*
X134619Y100330D01*
X134619Y102870D01*
X134608Y102935D01*
X134606Y103001D01*
X134588Y103044D01*
X134580Y103091D01*
X134546Y103148D01*
X134521Y103208D01*
X134490Y103243D01*
X134465Y103284D01*
X134414Y103326D01*
X134370Y103374D01*
X134328Y103396D01*
X134291Y103425D01*
X134229Y103446D01*
X134170Y103477D01*
X134116Y103485D01*
X134079Y103497D01*
X134039Y103496D01*
X133985Y103504D01*
X130175Y103504D01*
X130110Y103493D01*
X130044Y103491D01*
X130001Y103473D01*
X129954Y103465D01*
X129897Y103431D01*
X129837Y103406D01*
X129802Y103375D01*
X129761Y103350D01*
X129720Y103299D01*
X129671Y103255D01*
X129649Y103213D01*
X129620Y103176D01*
X129599Y103114D01*
X129568Y103055D01*
X129560Y103001D01*
X129548Y102964D01*
X129548Y102961D01*
X129549Y102924D01*
X129541Y102870D01*
X129541Y100330D01*
X129552Y100265D01*
X129554Y100199D01*
X129572Y100156D01*
X129580Y100109D01*
X129614Y100052D01*
X129639Y99992D01*
X129670Y99957D01*
X129695Y99916D01*
X129746Y99875D01*
X129790Y99826D01*
X129832Y99804D01*
X129869Y99775D01*
X129931Y99754D01*
X129990Y99723D01*
X130044Y99715D01*
X130081Y99703D01*
X130121Y99704D01*
X130175Y99696D01*
X133985Y99696D01*
X134050Y99707D01*
G37*
G36*
X123890Y99707D02*
X123890Y99707D01*
X123956Y99709D01*
X123999Y99727D01*
X124046Y99735D01*
X124103Y99769D01*
X124163Y99794D01*
X124198Y99825D01*
X124239Y99850D01*
X124281Y99901D01*
X124329Y99945D01*
X124351Y99987D01*
X124380Y100024D01*
X124401Y100086D01*
X124432Y100145D01*
X124440Y100199D01*
X124452Y100236D01*
X124451Y100276D01*
X124459Y100330D01*
X124459Y102870D01*
X124448Y102935D01*
X124446Y103001D01*
X124428Y103044D01*
X124420Y103091D01*
X124386Y103148D01*
X124361Y103208D01*
X124330Y103243D01*
X124305Y103284D01*
X124254Y103326D01*
X124210Y103374D01*
X124168Y103396D01*
X124131Y103425D01*
X124069Y103446D01*
X124010Y103477D01*
X123956Y103485D01*
X123919Y103497D01*
X123879Y103496D01*
X123825Y103504D01*
X120015Y103504D01*
X119950Y103493D01*
X119884Y103491D01*
X119841Y103473D01*
X119794Y103465D01*
X119737Y103431D01*
X119677Y103406D01*
X119642Y103375D01*
X119601Y103350D01*
X119560Y103299D01*
X119511Y103255D01*
X119489Y103213D01*
X119460Y103176D01*
X119439Y103114D01*
X119408Y103055D01*
X119400Y103001D01*
X119388Y102964D01*
X119388Y102961D01*
X119389Y102924D01*
X119381Y102870D01*
X119381Y100330D01*
X119392Y100265D01*
X119394Y100199D01*
X119412Y100156D01*
X119420Y100109D01*
X119454Y100052D01*
X119479Y99992D01*
X119510Y99957D01*
X119535Y99916D01*
X119586Y99875D01*
X119630Y99826D01*
X119672Y99804D01*
X119709Y99775D01*
X119771Y99754D01*
X119830Y99723D01*
X119884Y99715D01*
X119921Y99703D01*
X119961Y99704D01*
X120015Y99696D01*
X123825Y99696D01*
X123890Y99707D01*
G37*
D10*
X50800Y50800D03*
X203200Y241300D03*
D11*
X228600Y25400D03*
X25400Y25400D03*
X228600Y228600D03*
X25400Y228600D03*
D12*
X134610Y107452D02*
X140218Y107452D01*
X140218Y95748D01*
X134610Y95748D01*
X134610Y107452D01*
X134610Y98142D02*
X140218Y98142D01*
X140218Y100536D02*
X134610Y100536D01*
X134610Y102930D02*
X140218Y102930D01*
X140218Y105324D02*
X134610Y105324D01*
X129804Y107452D02*
X124196Y107452D01*
X129804Y107452D02*
X129804Y95748D01*
X124196Y95748D01*
X124196Y107452D01*
X124196Y98142D02*
X129804Y98142D01*
X129804Y100536D02*
X124196Y100536D01*
X124196Y102930D02*
X129804Y102930D01*
X129804Y105324D02*
X124196Y105324D01*
X119390Y107452D02*
X113782Y107452D01*
X119390Y107452D02*
X119390Y95748D01*
X113782Y95748D01*
X113782Y107452D01*
X113782Y98142D02*
X119390Y98142D01*
X119390Y100536D02*
X113782Y100536D01*
X113782Y102930D02*
X119390Y102930D01*
X119390Y105324D02*
X113782Y105324D01*
X180203Y183652D02*
X185811Y183652D01*
X185811Y171948D01*
X180203Y171948D01*
X180203Y183652D01*
X180203Y174342D02*
X185811Y174342D01*
X185811Y176736D02*
X180203Y176736D01*
X180203Y179130D02*
X185811Y179130D01*
X185811Y181524D02*
X180203Y181524D01*
X175397Y183652D02*
X169789Y183652D01*
X175397Y183652D02*
X175397Y171948D01*
X169789Y171948D01*
X169789Y183652D01*
X169789Y174342D02*
X175397Y174342D01*
X175397Y176736D02*
X169789Y176736D01*
X169789Y179130D02*
X175397Y179130D01*
X175397Y181524D02*
X169789Y181524D01*
X33411Y183652D02*
X27803Y183652D01*
X33411Y183652D02*
X33411Y171948D01*
X27803Y171948D01*
X27803Y183652D01*
X27803Y174342D02*
X33411Y174342D01*
X33411Y176736D02*
X27803Y176736D01*
X27803Y179130D02*
X33411Y179130D01*
X33411Y181524D02*
X27803Y181524D01*
X22997Y183652D02*
X17389Y183652D01*
X22997Y183652D02*
X22997Y171948D01*
X17389Y171948D01*
X17389Y183652D01*
X17389Y174342D02*
X22997Y174342D01*
X22997Y176736D02*
X17389Y176736D01*
X17389Y179130D02*
X22997Y179130D01*
X22997Y181524D02*
X17389Y181524D01*
D13*
X63500Y12700D03*
X88900Y12700D03*
X114300Y12700D03*
X139700Y12700D03*
X165100Y12700D03*
X190500Y12700D03*
D10*
X309880Y50800D03*
X462280Y241300D03*
D11*
X487680Y25400D03*
X284480Y25400D03*
X487680Y228600D03*
X284480Y228600D03*
D12*
X393690Y107452D02*
X399298Y107452D01*
X399298Y95748D01*
X393690Y95748D01*
X393690Y107452D01*
X393690Y98142D02*
X399298Y98142D01*
X399298Y100536D02*
X393690Y100536D01*
X393690Y102930D02*
X399298Y102930D01*
X399298Y105324D02*
X393690Y105324D01*
X388884Y107452D02*
X383276Y107452D01*
X388884Y107452D02*
X388884Y95748D01*
X383276Y95748D01*
X383276Y107452D01*
X383276Y98142D02*
X388884Y98142D01*
X388884Y100536D02*
X383276Y100536D01*
X383276Y102930D02*
X388884Y102930D01*
X388884Y105324D02*
X383276Y105324D01*
X378470Y107452D02*
X372862Y107452D01*
X378470Y107452D02*
X378470Y95748D01*
X372862Y95748D01*
X372862Y107452D01*
X372862Y98142D02*
X378470Y98142D01*
X378470Y100536D02*
X372862Y100536D01*
X372862Y102930D02*
X378470Y102930D01*
X378470Y105324D02*
X372862Y105324D01*
X439283Y183652D02*
X444891Y183652D01*
X444891Y171948D01*
X439283Y171948D01*
X439283Y183652D01*
X439283Y174342D02*
X444891Y174342D01*
X444891Y176736D02*
X439283Y176736D01*
X439283Y179130D02*
X444891Y179130D01*
X444891Y181524D02*
X439283Y181524D01*
X434477Y183652D02*
X428869Y183652D01*
X434477Y183652D02*
X434477Y171948D01*
X428869Y171948D01*
X428869Y183652D01*
X428869Y174342D02*
X434477Y174342D01*
X434477Y176736D02*
X428869Y176736D01*
X428869Y179130D02*
X434477Y179130D01*
X434477Y181524D02*
X428869Y181524D01*
X292491Y183652D02*
X286883Y183652D01*
X292491Y183652D02*
X292491Y171948D01*
X286883Y171948D01*
X286883Y183652D01*
X286883Y174342D02*
X292491Y174342D01*
X292491Y176736D02*
X286883Y176736D01*
X286883Y179130D02*
X292491Y179130D01*
X292491Y181524D02*
X286883Y181524D01*
X282077Y183652D02*
X276469Y183652D01*
X282077Y183652D02*
X282077Y171948D01*
X276469Y171948D01*
X276469Y183652D01*
X276469Y174342D02*
X282077Y174342D01*
X282077Y176736D02*
X276469Y176736D01*
X276469Y179130D02*
X282077Y179130D01*
X282077Y181524D02*
X276469Y181524D01*
D13*
X322580Y12700D03*
X347980Y12700D03*
X373380Y12700D03*
X398780Y12700D03*
X424180Y12700D03*
X449580Y12700D03*
D10*
X568960Y50800D03*
X721360Y241300D03*
D11*
X746760Y25400D03*
X543560Y25400D03*
X746760Y228600D03*
X543560Y228600D03*
D12*
X652770Y107452D02*
X658378Y107452D01*
X658378Y95748D01*
X652770Y95748D01*
X652770Y107452D01*
X652770Y98142D02*
X658378Y98142D01*
X658378Y100536D02*
X652770Y100536D01*
X652770Y102930D02*
X658378Y102930D01*
X658378Y105324D02*
X652770Y105324D01*
X647964Y107452D02*
X642356Y107452D01*
X647964Y107452D02*
X647964Y95748D01*
X642356Y95748D01*
X642356Y107452D01*
X642356Y98142D02*
X647964Y98142D01*
X647964Y100536D02*
X642356Y100536D01*
X642356Y102930D02*
X647964Y102930D01*
X647964Y105324D02*
X642356Y105324D01*
X637550Y107452D02*
X631942Y107452D01*
X637550Y107452D02*
X637550Y95748D01*
X631942Y95748D01*
X631942Y107452D01*
X631942Y98142D02*
X637550Y98142D01*
X637550Y100536D02*
X631942Y100536D01*
X631942Y102930D02*
X637550Y102930D01*
X637550Y105324D02*
X631942Y105324D01*
X698363Y183652D02*
X703971Y183652D01*
X703971Y171948D01*
X698363Y171948D01*
X698363Y183652D01*
X698363Y174342D02*
X703971Y174342D01*
X703971Y176736D02*
X698363Y176736D01*
X698363Y179130D02*
X703971Y179130D01*
X703971Y181524D02*
X698363Y181524D01*
X693557Y183652D02*
X687949Y183652D01*
X693557Y183652D02*
X693557Y171948D01*
X687949Y171948D01*
X687949Y183652D01*
X687949Y174342D02*
X693557Y174342D01*
X693557Y176736D02*
X687949Y176736D01*
X687949Y179130D02*
X693557Y179130D01*
X693557Y181524D02*
X687949Y181524D01*
X551571Y183652D02*
X545963Y183652D01*
X551571Y183652D02*
X551571Y171948D01*
X545963Y171948D01*
X545963Y183652D01*
X545963Y174342D02*
X551571Y174342D01*
X551571Y176736D02*
X545963Y176736D01*
X545963Y179130D02*
X551571Y179130D01*
X551571Y181524D02*
X545963Y181524D01*
X541157Y183652D02*
X535549Y183652D01*
X541157Y183652D02*
X541157Y171948D01*
X535549Y171948D01*
X535549Y183652D01*
X535549Y174342D02*
X541157Y174342D01*
X541157Y176736D02*
X535549Y176736D01*
X535549Y179130D02*
X541157Y179130D01*
X541157Y181524D02*
X535549Y181524D01*
D13*
X581660Y12700D03*
X607060Y12700D03*
X632460Y12700D03*
X657860Y12700D03*
X683260Y12700D03*
X708660Y12700D03*
D10*
X828040Y50800D03*
X980440Y241300D03*
D11*
X1005840Y25400D03*
X802640Y25400D03*
X1005840Y228600D03*
X802640Y228600D03*
D12*
X911850Y107452D02*
X917458Y107452D01*
X917458Y95748D01*
X911850Y95748D01*
X911850Y107452D01*
X911850Y98142D02*
X917458Y98142D01*
X917458Y100536D02*
X911850Y100536D01*
X911850Y102930D02*
X917458Y102930D01*
X917458Y105324D02*
X911850Y105324D01*
X907044Y107452D02*
X901436Y107452D01*
X907044Y107452D02*
X907044Y95748D01*
X901436Y95748D01*
X901436Y107452D01*
X901436Y98142D02*
X907044Y98142D01*
X907044Y100536D02*
X901436Y100536D01*
X901436Y102930D02*
X907044Y102930D01*
X907044Y105324D02*
X901436Y105324D01*
X896630Y107452D02*
X891022Y107452D01*
X896630Y107452D02*
X896630Y95748D01*
X891022Y95748D01*
X891022Y107452D01*
X891022Y98142D02*
X896630Y98142D01*
X896630Y100536D02*
X891022Y100536D01*
X891022Y102930D02*
X896630Y102930D01*
X896630Y105324D02*
X891022Y105324D01*
X957443Y183652D02*
X963051Y183652D01*
X963051Y171948D01*
X957443Y171948D01*
X957443Y183652D01*
X957443Y174342D02*
X963051Y174342D01*
X963051Y176736D02*
X957443Y176736D01*
X957443Y179130D02*
X963051Y179130D01*
X963051Y181524D02*
X957443Y181524D01*
X952637Y183652D02*
X947029Y183652D01*
X952637Y183652D02*
X952637Y171948D01*
X947029Y171948D01*
X947029Y183652D01*
X947029Y174342D02*
X952637Y174342D01*
X952637Y176736D02*
X947029Y176736D01*
X947029Y179130D02*
X952637Y179130D01*
X952637Y181524D02*
X947029Y181524D01*
X810651Y183652D02*
X805043Y183652D01*
X810651Y183652D02*
X810651Y171948D01*
X805043Y171948D01*
X805043Y183652D01*
X805043Y174342D02*
X810651Y174342D01*
X810651Y176736D02*
X805043Y176736D01*
X805043Y179130D02*
X810651Y179130D01*
X810651Y181524D02*
X805043Y181524D01*
X800237Y183652D02*
X794629Y183652D01*
X800237Y183652D02*
X800237Y171948D01*
X794629Y171948D01*
X794629Y183652D01*
X794629Y174342D02*
X800237Y174342D01*
X800237Y176736D02*
X794629Y176736D01*
X794629Y179130D02*
X800237Y179130D01*
X800237Y181524D02*
X794629Y181524D01*
D13*
X840740Y12700D03*
X866140Y12700D03*
X891540Y12700D03*
X916940Y12700D03*
X942340Y12700D03*
X967740Y12700D03*
D10*
X50800Y309880D03*
X203200Y500380D03*
D11*
X228600Y284480D03*
X25400Y284480D03*
X228600Y487680D03*
X25400Y487680D03*
D12*
X134610Y366532D02*
X140218Y366532D01*
X140218Y354828D01*
X134610Y354828D01*
X134610Y366532D01*
X134610Y357222D02*
X140218Y357222D01*
X140218Y359616D02*
X134610Y359616D01*
X134610Y362010D02*
X140218Y362010D01*
X140218Y364404D02*
X134610Y364404D01*
X129804Y366532D02*
X124196Y366532D01*
X129804Y366532D02*
X129804Y354828D01*
X124196Y354828D01*
X124196Y366532D01*
X124196Y357222D02*
X129804Y357222D01*
X129804Y359616D02*
X124196Y359616D01*
X124196Y362010D02*
X129804Y362010D01*
X129804Y364404D02*
X124196Y364404D01*
X119390Y366532D02*
X113782Y366532D01*
X119390Y366532D02*
X119390Y354828D01*
X113782Y354828D01*
X113782Y366532D01*
X113782Y357222D02*
X119390Y357222D01*
X119390Y359616D02*
X113782Y359616D01*
X113782Y362010D02*
X119390Y362010D01*
X119390Y364404D02*
X113782Y364404D01*
X180203Y442732D02*
X185811Y442732D01*
X185811Y431028D01*
X180203Y431028D01*
X180203Y442732D01*
X180203Y433422D02*
X185811Y433422D01*
X185811Y435816D02*
X180203Y435816D01*
X180203Y438210D02*
X185811Y438210D01*
X185811Y440604D02*
X180203Y440604D01*
X175397Y442732D02*
X169789Y442732D01*
X175397Y442732D02*
X175397Y431028D01*
X169789Y431028D01*
X169789Y442732D01*
X169789Y433422D02*
X175397Y433422D01*
X175397Y435816D02*
X169789Y435816D01*
X169789Y438210D02*
X175397Y438210D01*
X175397Y440604D02*
X169789Y440604D01*
X33411Y442732D02*
X27803Y442732D01*
X33411Y442732D02*
X33411Y431028D01*
X27803Y431028D01*
X27803Y442732D01*
X27803Y433422D02*
X33411Y433422D01*
X33411Y435816D02*
X27803Y435816D01*
X27803Y438210D02*
X33411Y438210D01*
X33411Y440604D02*
X27803Y440604D01*
X22997Y442732D02*
X17389Y442732D01*
X22997Y442732D02*
X22997Y431028D01*
X17389Y431028D01*
X17389Y442732D01*
X17389Y433422D02*
X22997Y433422D01*
X22997Y435816D02*
X17389Y435816D01*
X17389Y438210D02*
X22997Y438210D01*
X22997Y440604D02*
X17389Y440604D01*
D13*
X63500Y271780D03*
X88900Y271780D03*
X114300Y271780D03*
X139700Y271780D03*
X165100Y271780D03*
X190500Y271780D03*
D10*
X309880Y309880D03*
X462280Y500380D03*
D11*
X487680Y284480D03*
X284480Y284480D03*
X487680Y487680D03*
X284480Y487680D03*
D12*
X393690Y366532D02*
X399298Y366532D01*
X399298Y354828D01*
X393690Y354828D01*
X393690Y366532D01*
X393690Y357222D02*
X399298Y357222D01*
X399298Y359616D02*
X393690Y359616D01*
X393690Y362010D02*
X399298Y362010D01*
X399298Y364404D02*
X393690Y364404D01*
X388884Y366532D02*
X383276Y366532D01*
X388884Y366532D02*
X388884Y354828D01*
X383276Y354828D01*
X383276Y366532D01*
X383276Y357222D02*
X388884Y357222D01*
X388884Y359616D02*
X383276Y359616D01*
X383276Y362010D02*
X388884Y362010D01*
X388884Y364404D02*
X383276Y364404D01*
X378470Y366532D02*
X372862Y366532D01*
X378470Y366532D02*
X378470Y354828D01*
X372862Y354828D01*
X372862Y366532D01*
X372862Y357222D02*
X378470Y357222D01*
X378470Y359616D02*
X372862Y359616D01*
X372862Y362010D02*
X378470Y362010D01*
X378470Y364404D02*
X372862Y364404D01*
X439283Y442732D02*
X444891Y442732D01*
X444891Y431028D01*
X439283Y431028D01*
X439283Y442732D01*
X439283Y433422D02*
X444891Y433422D01*
X444891Y435816D02*
X439283Y435816D01*
X439283Y438210D02*
X444891Y438210D01*
X444891Y440604D02*
X439283Y440604D01*
X434477Y442732D02*
X428869Y442732D01*
X434477Y442732D02*
X434477Y431028D01*
X428869Y431028D01*
X428869Y442732D01*
X428869Y433422D02*
X434477Y433422D01*
X434477Y435816D02*
X428869Y435816D01*
X428869Y438210D02*
X434477Y438210D01*
X434477Y440604D02*
X428869Y440604D01*
X292491Y442732D02*
X286883Y442732D01*
X292491Y442732D02*
X292491Y431028D01*
X286883Y431028D01*
X286883Y442732D01*
X286883Y433422D02*
X292491Y433422D01*
X292491Y435816D02*
X286883Y435816D01*
X286883Y438210D02*
X292491Y438210D01*
X292491Y440604D02*
X286883Y440604D01*
X282077Y442732D02*
X276469Y442732D01*
X282077Y442732D02*
X282077Y431028D01*
X276469Y431028D01*
X276469Y442732D01*
X276469Y433422D02*
X282077Y433422D01*
X282077Y435816D02*
X276469Y435816D01*
X276469Y438210D02*
X282077Y438210D01*
X282077Y440604D02*
X276469Y440604D01*
D13*
X322580Y271780D03*
X347980Y271780D03*
X373380Y271780D03*
X398780Y271780D03*
X424180Y271780D03*
X449580Y271780D03*
D10*
X568960Y309880D03*
X721360Y500380D03*
D11*
X746760Y284480D03*
X543560Y284480D03*
X746760Y487680D03*
X543560Y487680D03*
D12*
X652770Y366532D02*
X658378Y366532D01*
X658378Y354828D01*
X652770Y354828D01*
X652770Y366532D01*
X652770Y357222D02*
X658378Y357222D01*
X658378Y359616D02*
X652770Y359616D01*
X652770Y362010D02*
X658378Y362010D01*
X658378Y364404D02*
X652770Y364404D01*
X647964Y366532D02*
X642356Y366532D01*
X647964Y366532D02*
X647964Y354828D01*
X642356Y354828D01*
X642356Y366532D01*
X642356Y357222D02*
X647964Y357222D01*
X647964Y359616D02*
X642356Y359616D01*
X642356Y362010D02*
X647964Y362010D01*
X647964Y364404D02*
X642356Y364404D01*
X637550Y366532D02*
X631942Y366532D01*
X637550Y366532D02*
X637550Y354828D01*
X631942Y354828D01*
X631942Y366532D01*
X631942Y357222D02*
X637550Y357222D01*
X637550Y359616D02*
X631942Y359616D01*
X631942Y362010D02*
X637550Y362010D01*
X637550Y364404D02*
X631942Y364404D01*
X698363Y442732D02*
X703971Y442732D01*
X703971Y431028D01*
X698363Y431028D01*
X698363Y442732D01*
X698363Y433422D02*
X703971Y433422D01*
X703971Y435816D02*
X698363Y435816D01*
X698363Y438210D02*
X703971Y438210D01*
X703971Y440604D02*
X698363Y440604D01*
X693557Y442732D02*
X687949Y442732D01*
X693557Y442732D02*
X693557Y431028D01*
X687949Y431028D01*
X687949Y442732D01*
X687949Y433422D02*
X693557Y433422D01*
X693557Y435816D02*
X687949Y435816D01*
X687949Y438210D02*
X693557Y438210D01*
X693557Y440604D02*
X687949Y440604D01*
X551571Y442732D02*
X545963Y442732D01*
X551571Y442732D02*
X551571Y431028D01*
X545963Y431028D01*
X545963Y442732D01*
X545963Y433422D02*
X551571Y433422D01*
X551571Y435816D02*
X545963Y435816D01*
X545963Y438210D02*
X551571Y438210D01*
X551571Y440604D02*
X545963Y440604D01*
X541157Y442732D02*
X535549Y442732D01*
X541157Y442732D02*
X541157Y431028D01*
X535549Y431028D01*
X535549Y442732D01*
X535549Y433422D02*
X541157Y433422D01*
X541157Y435816D02*
X535549Y435816D01*
X535549Y438210D02*
X541157Y438210D01*
X541157Y440604D02*
X535549Y440604D01*
D13*
X581660Y271780D03*
X607060Y271780D03*
X632460Y271780D03*
X657860Y271780D03*
X683260Y271780D03*
X708660Y271780D03*
D10*
X828040Y309880D03*
X980440Y500380D03*
D11*
X1005840Y284480D03*
X802640Y284480D03*
X1005840Y487680D03*
X802640Y487680D03*
D12*
X911850Y366532D02*
X917458Y366532D01*
X917458Y354828D01*
X911850Y354828D01*
X911850Y366532D01*
X911850Y357222D02*
X917458Y357222D01*
X917458Y359616D02*
X911850Y359616D01*
X911850Y362010D02*
X917458Y362010D01*
X917458Y364404D02*
X911850Y364404D01*
X907044Y366532D02*
X901436Y366532D01*
X907044Y366532D02*
X907044Y354828D01*
X901436Y354828D01*
X901436Y366532D01*
X901436Y357222D02*
X907044Y357222D01*
X907044Y359616D02*
X901436Y359616D01*
X901436Y362010D02*
X907044Y362010D01*
X907044Y364404D02*
X901436Y364404D01*
X896630Y366532D02*
X891022Y366532D01*
X896630Y366532D02*
X896630Y354828D01*
X891022Y354828D01*
X891022Y366532D01*
X891022Y357222D02*
X896630Y357222D01*
X896630Y359616D02*
X891022Y359616D01*
X891022Y362010D02*
X896630Y362010D01*
X896630Y364404D02*
X891022Y364404D01*
X957443Y442732D02*
X963051Y442732D01*
X963051Y431028D01*
X957443Y431028D01*
X957443Y442732D01*
X957443Y433422D02*
X963051Y433422D01*
X963051Y435816D02*
X957443Y435816D01*
X957443Y438210D02*
X963051Y438210D01*
X963051Y440604D02*
X957443Y440604D01*
X952637Y442732D02*
X947029Y442732D01*
X952637Y442732D02*
X952637Y431028D01*
X947029Y431028D01*
X947029Y442732D01*
X947029Y433422D02*
X952637Y433422D01*
X952637Y435816D02*
X947029Y435816D01*
X947029Y438210D02*
X952637Y438210D01*
X952637Y440604D02*
X947029Y440604D01*
X810651Y442732D02*
X805043Y442732D01*
X810651Y442732D02*
X810651Y431028D01*
X805043Y431028D01*
X805043Y442732D01*
X805043Y433422D02*
X810651Y433422D01*
X810651Y435816D02*
X805043Y435816D01*
X805043Y438210D02*
X810651Y438210D01*
X810651Y440604D02*
X805043Y440604D01*
X800237Y442732D02*
X794629Y442732D01*
X800237Y442732D02*
X800237Y431028D01*
X794629Y431028D01*
X794629Y442732D01*
X794629Y433422D02*
X800237Y433422D01*
X800237Y435816D02*
X794629Y435816D01*
X794629Y438210D02*
X800237Y438210D01*
X800237Y440604D02*
X794629Y440604D01*
D13*
X840740Y271780D03*
X866140Y271780D03*
X891540Y271780D03*
X916940Y271780D03*
X942340Y271780D03*
X967740Y271780D03*
D10*
X50800Y568960D03*
X203200Y759460D03*
D11*
X228600Y543560D03*
X25400Y543560D03*
X228600Y746760D03*
X25400Y746760D03*
D12*
X134610Y625612D02*
X140218Y625612D01*
X140218Y613908D01*
X134610Y613908D01*
X134610Y625612D01*
X134610Y616302D02*
X140218Y616302D01*
X140218Y618696D02*
X134610Y618696D01*
X134610Y621090D02*
X140218Y621090D01*
X140218Y623484D02*
X134610Y623484D01*
X129804Y625612D02*
X124196Y625612D01*
X129804Y625612D02*
X129804Y613908D01*
X124196Y613908D01*
X124196Y625612D01*
X124196Y616302D02*
X129804Y616302D01*
X129804Y618696D02*
X124196Y618696D01*
X124196Y621090D02*
X129804Y621090D01*
X129804Y623484D02*
X124196Y623484D01*
X119390Y625612D02*
X113782Y625612D01*
X119390Y625612D02*
X119390Y613908D01*
X113782Y613908D01*
X113782Y625612D01*
X113782Y616302D02*
X119390Y616302D01*
X119390Y618696D02*
X113782Y618696D01*
X113782Y621090D02*
X119390Y621090D01*
X119390Y623484D02*
X113782Y623484D01*
X180203Y701812D02*
X185811Y701812D01*
X185811Y690108D01*
X180203Y690108D01*
X180203Y701812D01*
X180203Y692502D02*
X185811Y692502D01*
X185811Y694896D02*
X180203Y694896D01*
X180203Y697290D02*
X185811Y697290D01*
X185811Y699684D02*
X180203Y699684D01*
X175397Y701812D02*
X169789Y701812D01*
X175397Y701812D02*
X175397Y690108D01*
X169789Y690108D01*
X169789Y701812D01*
X169789Y692502D02*
X175397Y692502D01*
X175397Y694896D02*
X169789Y694896D01*
X169789Y697290D02*
X175397Y697290D01*
X175397Y699684D02*
X169789Y699684D01*
X33411Y701812D02*
X27803Y701812D01*
X33411Y701812D02*
X33411Y690108D01*
X27803Y690108D01*
X27803Y701812D01*
X27803Y692502D02*
X33411Y692502D01*
X33411Y694896D02*
X27803Y694896D01*
X27803Y697290D02*
X33411Y697290D01*
X33411Y699684D02*
X27803Y699684D01*
X22997Y701812D02*
X17389Y701812D01*
X22997Y701812D02*
X22997Y690108D01*
X17389Y690108D01*
X17389Y701812D01*
X17389Y692502D02*
X22997Y692502D01*
X22997Y694896D02*
X17389Y694896D01*
X17389Y697290D02*
X22997Y697290D01*
X22997Y699684D02*
X17389Y699684D01*
D13*
X63500Y530860D03*
X88900Y530860D03*
X114300Y530860D03*
X139700Y530860D03*
X165100Y530860D03*
X190500Y530860D03*
D10*
X309880Y568960D03*
X462280Y759460D03*
D11*
X487680Y543560D03*
X284480Y543560D03*
X487680Y746760D03*
X284480Y746760D03*
D12*
X393690Y625612D02*
X399298Y625612D01*
X399298Y613908D01*
X393690Y613908D01*
X393690Y625612D01*
X393690Y616302D02*
X399298Y616302D01*
X399298Y618696D02*
X393690Y618696D01*
X393690Y621090D02*
X399298Y621090D01*
X399298Y623484D02*
X393690Y623484D01*
X388884Y625612D02*
X383276Y625612D01*
X388884Y625612D02*
X388884Y613908D01*
X383276Y613908D01*
X383276Y625612D01*
X383276Y616302D02*
X388884Y616302D01*
X388884Y618696D02*
X383276Y618696D01*
X383276Y621090D02*
X388884Y621090D01*
X388884Y623484D02*
X383276Y623484D01*
X378470Y625612D02*
X372862Y625612D01*
X378470Y625612D02*
X378470Y613908D01*
X372862Y613908D01*
X372862Y625612D01*
X372862Y616302D02*
X378470Y616302D01*
X378470Y618696D02*
X372862Y618696D01*
X372862Y621090D02*
X378470Y621090D01*
X378470Y623484D02*
X372862Y623484D01*
X439283Y701812D02*
X444891Y701812D01*
X444891Y690108D01*
X439283Y690108D01*
X439283Y701812D01*
X439283Y692502D02*
X444891Y692502D01*
X444891Y694896D02*
X439283Y694896D01*
X439283Y697290D02*
X444891Y697290D01*
X444891Y699684D02*
X439283Y699684D01*
X434477Y701812D02*
X428869Y701812D01*
X434477Y701812D02*
X434477Y690108D01*
X428869Y690108D01*
X428869Y701812D01*
X428869Y692502D02*
X434477Y692502D01*
X434477Y694896D02*
X428869Y694896D01*
X428869Y697290D02*
X434477Y697290D01*
X434477Y699684D02*
X428869Y699684D01*
X292491Y701812D02*
X286883Y701812D01*
X292491Y701812D02*
X292491Y690108D01*
X286883Y690108D01*
X286883Y701812D01*
X286883Y692502D02*
X292491Y692502D01*
X292491Y694896D02*
X286883Y694896D01*
X286883Y697290D02*
X292491Y697290D01*
X292491Y699684D02*
X286883Y699684D01*
X282077Y701812D02*
X276469Y701812D01*
X282077Y701812D02*
X282077Y690108D01*
X276469Y690108D01*
X276469Y701812D01*
X276469Y692502D02*
X282077Y692502D01*
X282077Y694896D02*
X276469Y694896D01*
X276469Y697290D02*
X282077Y697290D01*
X282077Y699684D02*
X276469Y699684D01*
D13*
X322580Y530860D03*
X347980Y530860D03*
X373380Y530860D03*
X398780Y530860D03*
X424180Y530860D03*
X449580Y530860D03*
D10*
X568960Y568960D03*
X721360Y759460D03*
D11*
X746760Y543560D03*
X543560Y543560D03*
X746760Y746760D03*
X543560Y746760D03*
D12*
X652770Y625612D02*
X658378Y625612D01*
X658378Y613908D01*
X652770Y613908D01*
X652770Y625612D01*
X652770Y616302D02*
X658378Y616302D01*
X658378Y618696D02*
X652770Y618696D01*
X652770Y621090D02*
X658378Y621090D01*
X658378Y623484D02*
X652770Y623484D01*
X647964Y625612D02*
X642356Y625612D01*
X647964Y625612D02*
X647964Y613908D01*
X642356Y613908D01*
X642356Y625612D01*
X642356Y616302D02*
X647964Y616302D01*
X647964Y618696D02*
X642356Y618696D01*
X642356Y621090D02*
X647964Y621090D01*
X647964Y623484D02*
X642356Y623484D01*
X637550Y625612D02*
X631942Y625612D01*
X637550Y625612D02*
X637550Y613908D01*
X631942Y613908D01*
X631942Y625612D01*
X631942Y616302D02*
X637550Y616302D01*
X637550Y618696D02*
X631942Y618696D01*
X631942Y621090D02*
X637550Y621090D01*
X637550Y623484D02*
X631942Y623484D01*
X698363Y701812D02*
X703971Y701812D01*
X703971Y690108D01*
X698363Y690108D01*
X698363Y701812D01*
X698363Y692502D02*
X703971Y692502D01*
X703971Y694896D02*
X698363Y694896D01*
X698363Y697290D02*
X703971Y697290D01*
X703971Y699684D02*
X698363Y699684D01*
X693557Y701812D02*
X687949Y701812D01*
X693557Y701812D02*
X693557Y690108D01*
X687949Y690108D01*
X687949Y701812D01*
X687949Y692502D02*
X693557Y692502D01*
X693557Y694896D02*
X687949Y694896D01*
X687949Y697290D02*
X693557Y697290D01*
X693557Y699684D02*
X687949Y699684D01*
X551571Y701812D02*
X545963Y701812D01*
X551571Y701812D02*
X551571Y690108D01*
X545963Y690108D01*
X545963Y701812D01*
X545963Y692502D02*
X551571Y692502D01*
X551571Y694896D02*
X545963Y694896D01*
X545963Y697290D02*
X551571Y697290D01*
X551571Y699684D02*
X545963Y699684D01*
X541157Y701812D02*
X535549Y701812D01*
X541157Y701812D02*
X541157Y690108D01*
X535549Y690108D01*
X535549Y701812D01*
X535549Y692502D02*
X541157Y692502D01*
X541157Y694896D02*
X535549Y694896D01*
X535549Y697290D02*
X541157Y697290D01*
X541157Y699684D02*
X535549Y699684D01*
D13*
X581660Y530860D03*
X607060Y530860D03*
X632460Y530860D03*
X657860Y530860D03*
X683260Y530860D03*
X708660Y530860D03*
D10*
X828040Y568960D03*
X980440Y759460D03*
D11*
X1005840Y543560D03*
X802640Y543560D03*
X1005840Y746760D03*
X802640Y746760D03*
D12*
X911850Y625612D02*
X917458Y625612D01*
X917458Y613908D01*
X911850Y613908D01*
X911850Y625612D01*
X911850Y616302D02*
X917458Y616302D01*
X917458Y618696D02*
X911850Y618696D01*
X911850Y621090D02*
X917458Y621090D01*
X917458Y623484D02*
X911850Y623484D01*
X907044Y625612D02*
X901436Y625612D01*
X907044Y625612D02*
X907044Y613908D01*
X901436Y613908D01*
X901436Y625612D01*
X901436Y616302D02*
X907044Y616302D01*
X907044Y618696D02*
X901436Y618696D01*
X901436Y621090D02*
X907044Y621090D01*
X907044Y623484D02*
X901436Y623484D01*
X896630Y625612D02*
X891022Y625612D01*
X896630Y625612D02*
X896630Y613908D01*
X891022Y613908D01*
X891022Y625612D01*
X891022Y616302D02*
X896630Y616302D01*
X896630Y618696D02*
X891022Y618696D01*
X891022Y621090D02*
X896630Y621090D01*
X896630Y623484D02*
X891022Y623484D01*
X957443Y701812D02*
X963051Y701812D01*
X963051Y690108D01*
X957443Y690108D01*
X957443Y701812D01*
X957443Y692502D02*
X963051Y692502D01*
X963051Y694896D02*
X957443Y694896D01*
X957443Y697290D02*
X963051Y697290D01*
X963051Y699684D02*
X957443Y699684D01*
X952637Y701812D02*
X947029Y701812D01*
X952637Y701812D02*
X952637Y690108D01*
X947029Y690108D01*
X947029Y701812D01*
X947029Y692502D02*
X952637Y692502D01*
X952637Y694896D02*
X947029Y694896D01*
X947029Y697290D02*
X952637Y697290D01*
X952637Y699684D02*
X947029Y699684D01*
X810651Y701812D02*
X805043Y701812D01*
X810651Y701812D02*
X810651Y690108D01*
X805043Y690108D01*
X805043Y701812D01*
X805043Y692502D02*
X810651Y692502D01*
X810651Y694896D02*
X805043Y694896D01*
X805043Y697290D02*
X810651Y697290D01*
X810651Y699684D02*
X805043Y699684D01*
X800237Y701812D02*
X794629Y701812D01*
X800237Y701812D02*
X800237Y690108D01*
X794629Y690108D01*
X794629Y701812D01*
X794629Y692502D02*
X800237Y692502D01*
X800237Y694896D02*
X794629Y694896D01*
X794629Y697290D02*
X800237Y697290D01*
X800237Y699684D02*
X794629Y699684D01*
D13*
X840740Y530860D03*
X866140Y530860D03*
X891540Y530860D03*
X916940Y530860D03*
X942340Y530860D03*
X967740Y530860D03*
D10*
X50800Y828040D03*
X203200Y1018540D03*
D11*
X228600Y802640D03*
X25400Y802640D03*
X228600Y1005840D03*
X25400Y1005840D03*
D12*
X134610Y884692D02*
X140218Y884692D01*
X140218Y872988D01*
X134610Y872988D01*
X134610Y884692D01*
X134610Y875382D02*
X140218Y875382D01*
X140218Y877776D02*
X134610Y877776D01*
X134610Y880170D02*
X140218Y880170D01*
X140218Y882564D02*
X134610Y882564D01*
X129804Y884692D02*
X124196Y884692D01*
X129804Y884692D02*
X129804Y872988D01*
X124196Y872988D01*
X124196Y884692D01*
X124196Y875382D02*
X129804Y875382D01*
X129804Y877776D02*
X124196Y877776D01*
X124196Y880170D02*
X129804Y880170D01*
X129804Y882564D02*
X124196Y882564D01*
X119390Y884692D02*
X113782Y884692D01*
X119390Y884692D02*
X119390Y872988D01*
X113782Y872988D01*
X113782Y884692D01*
X113782Y875382D02*
X119390Y875382D01*
X119390Y877776D02*
X113782Y877776D01*
X113782Y880170D02*
X119390Y880170D01*
X119390Y882564D02*
X113782Y882564D01*
X180203Y960892D02*
X185811Y960892D01*
X185811Y949188D01*
X180203Y949188D01*
X180203Y960892D01*
X180203Y951582D02*
X185811Y951582D01*
X185811Y953976D02*
X180203Y953976D01*
X180203Y956370D02*
X185811Y956370D01*
X185811Y958764D02*
X180203Y958764D01*
X175397Y960892D02*
X169789Y960892D01*
X175397Y960892D02*
X175397Y949188D01*
X169789Y949188D01*
X169789Y960892D01*
X169789Y951582D02*
X175397Y951582D01*
X175397Y953976D02*
X169789Y953976D01*
X169789Y956370D02*
X175397Y956370D01*
X175397Y958764D02*
X169789Y958764D01*
X33411Y960892D02*
X27803Y960892D01*
X33411Y960892D02*
X33411Y949188D01*
X27803Y949188D01*
X27803Y960892D01*
X27803Y951582D02*
X33411Y951582D01*
X33411Y953976D02*
X27803Y953976D01*
X27803Y956370D02*
X33411Y956370D01*
X33411Y958764D02*
X27803Y958764D01*
X22997Y960892D02*
X17389Y960892D01*
X22997Y960892D02*
X22997Y949188D01*
X17389Y949188D01*
X17389Y960892D01*
X17389Y951582D02*
X22997Y951582D01*
X22997Y953976D02*
X17389Y953976D01*
X17389Y956370D02*
X22997Y956370D01*
X22997Y958764D02*
X17389Y958764D01*
D13*
X63500Y789940D03*
X88900Y789940D03*
X114300Y789940D03*
X139700Y789940D03*
X165100Y789940D03*
X190500Y789940D03*
D10*
X309880Y828040D03*
X462280Y1018540D03*
D11*
X487680Y802640D03*
X284480Y802640D03*
X487680Y1005840D03*
X284480Y1005840D03*
D12*
X393690Y884692D02*
X399298Y884692D01*
X399298Y872988D01*
X393690Y872988D01*
X393690Y884692D01*
X393690Y875382D02*
X399298Y875382D01*
X399298Y877776D02*
X393690Y877776D01*
X393690Y880170D02*
X399298Y880170D01*
X399298Y882564D02*
X393690Y882564D01*
X388884Y884692D02*
X383276Y884692D01*
X388884Y884692D02*
X388884Y872988D01*
X383276Y872988D01*
X383276Y884692D01*
X383276Y875382D02*
X388884Y875382D01*
X388884Y877776D02*
X383276Y877776D01*
X383276Y880170D02*
X388884Y880170D01*
X388884Y882564D02*
X383276Y882564D01*
X378470Y884692D02*
X372862Y884692D01*
X378470Y884692D02*
X378470Y872988D01*
X372862Y872988D01*
X372862Y884692D01*
X372862Y875382D02*
X378470Y875382D01*
X378470Y877776D02*
X372862Y877776D01*
X372862Y880170D02*
X378470Y880170D01*
X378470Y882564D02*
X372862Y882564D01*
X439283Y960892D02*
X444891Y960892D01*
X444891Y949188D01*
X439283Y949188D01*
X439283Y960892D01*
X439283Y951582D02*
X444891Y951582D01*
X444891Y953976D02*
X439283Y953976D01*
X439283Y956370D02*
X444891Y956370D01*
X444891Y958764D02*
X439283Y958764D01*
X434477Y960892D02*
X428869Y960892D01*
X434477Y960892D02*
X434477Y949188D01*
X428869Y949188D01*
X428869Y960892D01*
X428869Y951582D02*
X434477Y951582D01*
X434477Y953976D02*
X428869Y953976D01*
X428869Y956370D02*
X434477Y956370D01*
X434477Y958764D02*
X428869Y958764D01*
X292491Y960892D02*
X286883Y960892D01*
X292491Y960892D02*
X292491Y949188D01*
X286883Y949188D01*
X286883Y960892D01*
X286883Y951582D02*
X292491Y951582D01*
X292491Y953976D02*
X286883Y953976D01*
X286883Y956370D02*
X292491Y956370D01*
X292491Y958764D02*
X286883Y958764D01*
X282077Y960892D02*
X276469Y960892D01*
X282077Y960892D02*
X282077Y949188D01*
X276469Y949188D01*
X276469Y960892D01*
X276469Y951582D02*
X282077Y951582D01*
X282077Y953976D02*
X276469Y953976D01*
X276469Y956370D02*
X282077Y956370D01*
X282077Y958764D02*
X276469Y958764D01*
D13*
X322580Y789940D03*
X347980Y789940D03*
X373380Y789940D03*
X398780Y789940D03*
X424180Y789940D03*
X449580Y789940D03*
D10*
X568960Y828040D03*
X721360Y1018540D03*
D11*
X746760Y802640D03*
X543560Y802640D03*
X746760Y1005840D03*
X543560Y1005840D03*
D12*
X652770Y884692D02*
X658378Y884692D01*
X658378Y872988D01*
X652770Y872988D01*
X652770Y884692D01*
X652770Y875382D02*
X658378Y875382D01*
X658378Y877776D02*
X652770Y877776D01*
X652770Y880170D02*
X658378Y880170D01*
X658378Y882564D02*
X652770Y882564D01*
X647964Y884692D02*
X642356Y884692D01*
X647964Y884692D02*
X647964Y872988D01*
X642356Y872988D01*
X642356Y884692D01*
X642356Y875382D02*
X647964Y875382D01*
X647964Y877776D02*
X642356Y877776D01*
X642356Y880170D02*
X647964Y880170D01*
X647964Y882564D02*
X642356Y882564D01*
X637550Y884692D02*
X631942Y884692D01*
X637550Y884692D02*
X637550Y872988D01*
X631942Y872988D01*
X631942Y884692D01*
X631942Y875382D02*
X637550Y875382D01*
X637550Y877776D02*
X631942Y877776D01*
X631942Y880170D02*
X637550Y880170D01*
X637550Y882564D02*
X631942Y882564D01*
X698363Y960892D02*
X703971Y960892D01*
X703971Y949188D01*
X698363Y949188D01*
X698363Y960892D01*
X698363Y951582D02*
X703971Y951582D01*
X703971Y953976D02*
X698363Y953976D01*
X698363Y956370D02*
X703971Y956370D01*
X703971Y958764D02*
X698363Y958764D01*
X693557Y960892D02*
X687949Y960892D01*
X693557Y960892D02*
X693557Y949188D01*
X687949Y949188D01*
X687949Y960892D01*
X687949Y951582D02*
X693557Y951582D01*
X693557Y953976D02*
X687949Y953976D01*
X687949Y956370D02*
X693557Y956370D01*
X693557Y958764D02*
X687949Y958764D01*
X551571Y960892D02*
X545963Y960892D01*
X551571Y960892D02*
X551571Y949188D01*
X545963Y949188D01*
X545963Y960892D01*
X545963Y951582D02*
X551571Y951582D01*
X551571Y953976D02*
X545963Y953976D01*
X545963Y956370D02*
X551571Y956370D01*
X551571Y958764D02*
X545963Y958764D01*
X541157Y960892D02*
X535549Y960892D01*
X541157Y960892D02*
X541157Y949188D01*
X535549Y949188D01*
X535549Y960892D01*
X535549Y951582D02*
X541157Y951582D01*
X541157Y953976D02*
X535549Y953976D01*
X535549Y956370D02*
X541157Y956370D01*
X541157Y958764D02*
X535549Y958764D01*
D13*
X581660Y789940D03*
X607060Y789940D03*
X632460Y789940D03*
X657860Y789940D03*
X683260Y789940D03*
X708660Y789940D03*
D10*
X828040Y828040D03*
X980440Y1018540D03*
D11*
X1005840Y802640D03*
X802640Y802640D03*
X1005840Y1005840D03*
X802640Y1005840D03*
D12*
X911850Y884692D02*
X917458Y884692D01*
X917458Y872988D01*
X911850Y872988D01*
X911850Y884692D01*
X911850Y875382D02*
X917458Y875382D01*
X917458Y877776D02*
X911850Y877776D01*
X911850Y880170D02*
X917458Y880170D01*
X917458Y882564D02*
X911850Y882564D01*
X907044Y884692D02*
X901436Y884692D01*
X907044Y884692D02*
X907044Y872988D01*
X901436Y872988D01*
X901436Y884692D01*
X901436Y875382D02*
X907044Y875382D01*
X907044Y877776D02*
X901436Y877776D01*
X901436Y880170D02*
X907044Y880170D01*
X907044Y882564D02*
X901436Y882564D01*
X896630Y884692D02*
X891022Y884692D01*
X896630Y884692D02*
X896630Y872988D01*
X891022Y872988D01*
X891022Y884692D01*
X891022Y875382D02*
X896630Y875382D01*
X896630Y877776D02*
X891022Y877776D01*
X891022Y880170D02*
X896630Y880170D01*
X896630Y882564D02*
X891022Y882564D01*
X957443Y960892D02*
X963051Y960892D01*
X963051Y949188D01*
X957443Y949188D01*
X957443Y960892D01*
X957443Y951582D02*
X963051Y951582D01*
X963051Y953976D02*
X957443Y953976D01*
X957443Y956370D02*
X963051Y956370D01*
X963051Y958764D02*
X957443Y958764D01*
X952637Y960892D02*
X947029Y960892D01*
X952637Y960892D02*
X952637Y949188D01*
X947029Y949188D01*
X947029Y960892D01*
X947029Y951582D02*
X952637Y951582D01*
X952637Y953976D02*
X947029Y953976D01*
X947029Y956370D02*
X952637Y956370D01*
X952637Y958764D02*
X947029Y958764D01*
X810651Y960892D02*
X805043Y960892D01*
X810651Y960892D02*
X810651Y949188D01*
X805043Y949188D01*
X805043Y960892D01*
X805043Y951582D02*
X810651Y951582D01*
X810651Y953976D02*
X805043Y953976D01*
X805043Y956370D02*
X810651Y956370D01*
X810651Y958764D02*
X805043Y958764D01*
X800237Y960892D02*
X794629Y960892D01*
X800237Y960892D02*
X800237Y949188D01*
X794629Y949188D01*
X794629Y960892D01*
X794629Y951582D02*
X800237Y951582D01*
X800237Y953976D02*
X794629Y953976D01*
X794629Y956370D02*
X800237Y956370D01*
X800237Y958764D02*
X794629Y958764D01*
D13*
X840740Y789940D03*
X866140Y789940D03*
X891540Y789940D03*
X916940Y789940D03*
X942340Y789940D03*
X967740Y789940D03*
D10*
X-26238Y1004570D03*
X1057478Y1004570D03*
D14*
X-35293Y63500D02*
X-35290Y63722D01*
X-35282Y63944D01*
X-35268Y64166D01*
X-35249Y64388D01*
X-35225Y64608D01*
X-35195Y64829D01*
X-35160Y65048D01*
X-35119Y65267D01*
X-35073Y65484D01*
X-35022Y65700D01*
X-34965Y65915D01*
X-34903Y66129D01*
X-34836Y66340D01*
X-34764Y66551D01*
X-34686Y66759D01*
X-34604Y66965D01*
X-34516Y67169D01*
X-34424Y67372D01*
X-34326Y67571D01*
X-34224Y67768D01*
X-34117Y67963D01*
X-34005Y68155D01*
X-33888Y68344D01*
X-33767Y68531D01*
X-33641Y68714D01*
X-33511Y68894D01*
X-33376Y69071D01*
X-33238Y69244D01*
X-33095Y69414D01*
X-32947Y69581D01*
X-32796Y69744D01*
X-32641Y69903D01*
X-32482Y70058D01*
X-32319Y70209D01*
X-32152Y70357D01*
X-31982Y70500D01*
X-31809Y70638D01*
X-31632Y70773D01*
X-31452Y70903D01*
X-31269Y71029D01*
X-31082Y71150D01*
X-30893Y71267D01*
X-30701Y71379D01*
X-30506Y71486D01*
X-30309Y71588D01*
X-30110Y71686D01*
X-29907Y71778D01*
X-29703Y71866D01*
X-29497Y71948D01*
X-29289Y72026D01*
X-29078Y72098D01*
X-28867Y72165D01*
X-28653Y72227D01*
X-28438Y72284D01*
X-28222Y72335D01*
X-28005Y72381D01*
X-27786Y72422D01*
X-27567Y72457D01*
X-27346Y72487D01*
X-27126Y72511D01*
X-26904Y72530D01*
X-26682Y72544D01*
X-26460Y72552D01*
X-26238Y72555D01*
X-26016Y72552D01*
X-25794Y72544D01*
X-25572Y72530D01*
X-25350Y72511D01*
X-25130Y72487D01*
X-24909Y72457D01*
X-24690Y72422D01*
X-24471Y72381D01*
X-24254Y72335D01*
X-24038Y72284D01*
X-23823Y72227D01*
X-23609Y72165D01*
X-23398Y72098D01*
X-23187Y72026D01*
X-22979Y71948D01*
X-22773Y71866D01*
X-22569Y71778D01*
X-22366Y71686D01*
X-22167Y71588D01*
X-21970Y71486D01*
X-21775Y71379D01*
X-21583Y71267D01*
X-21394Y71150D01*
X-21207Y71029D01*
X-21024Y70903D01*
X-20844Y70773D01*
X-20667Y70638D01*
X-20494Y70500D01*
X-20324Y70357D01*
X-20157Y70209D01*
X-19994Y70058D01*
X-19835Y69903D01*
X-19680Y69744D01*
X-19529Y69581D01*
X-19381Y69414D01*
X-19238Y69244D01*
X-19100Y69071D01*
X-18965Y68894D01*
X-18835Y68714D01*
X-18709Y68531D01*
X-18588Y68344D01*
X-18471Y68155D01*
X-18359Y67963D01*
X-18252Y67768D01*
X-18150Y67571D01*
X-18052Y67372D01*
X-17960Y67169D01*
X-17872Y66965D01*
X-17790Y66759D01*
X-17712Y66551D01*
X-17640Y66340D01*
X-17573Y66129D01*
X-17511Y65915D01*
X-17454Y65700D01*
X-17403Y65484D01*
X-17357Y65267D01*
X-17316Y65048D01*
X-17281Y64829D01*
X-17251Y64608D01*
X-17227Y64388D01*
X-17208Y64166D01*
X-17194Y63944D01*
X-17186Y63722D01*
X-17183Y63500D01*
X-17186Y63278D01*
X-17194Y63056D01*
X-17208Y62834D01*
X-17227Y62612D01*
X-17251Y62392D01*
X-17281Y62171D01*
X-17316Y61952D01*
X-17357Y61733D01*
X-17403Y61516D01*
X-17454Y61300D01*
X-17511Y61085D01*
X-17573Y60871D01*
X-17640Y60660D01*
X-17712Y60449D01*
X-17790Y60241D01*
X-17872Y60035D01*
X-17960Y59831D01*
X-18052Y59628D01*
X-18150Y59429D01*
X-18252Y59232D01*
X-18359Y59037D01*
X-18471Y58845D01*
X-18588Y58656D01*
X-18709Y58469D01*
X-18835Y58286D01*
X-18965Y58106D01*
X-19100Y57929D01*
X-19238Y57756D01*
X-19381Y57586D01*
X-19529Y57419D01*
X-19680Y57256D01*
X-19835Y57097D01*
X-19994Y56942D01*
X-20157Y56791D01*
X-20324Y56643D01*
X-20494Y56500D01*
X-20667Y56362D01*
X-20844Y56227D01*
X-21024Y56097D01*
X-21207Y55971D01*
X-21394Y55850D01*
X-21583Y55733D01*
X-21775Y55621D01*
X-21970Y55514D01*
X-22167Y55412D01*
X-22366Y55314D01*
X-22569Y55222D01*
X-22773Y55134D01*
X-22979Y55052D01*
X-23187Y54974D01*
X-23398Y54902D01*
X-23609Y54835D01*
X-23823Y54773D01*
X-24038Y54716D01*
X-24254Y54665D01*
X-24471Y54619D01*
X-24690Y54578D01*
X-24909Y54543D01*
X-25130Y54513D01*
X-25350Y54489D01*
X-25572Y54470D01*
X-25794Y54456D01*
X-26016Y54448D01*
X-26238Y54445D01*
X-26460Y54448D01*
X-26682Y54456D01*
X-26904Y54470D01*
X-27126Y54489D01*
X-27346Y54513D01*
X-27567Y54543D01*
X-27786Y54578D01*
X-28005Y54619D01*
X-28222Y54665D01*
X-28438Y54716D01*
X-28653Y54773D01*
X-28867Y54835D01*
X-29078Y54902D01*
X-29289Y54974D01*
X-29497Y55052D01*
X-29703Y55134D01*
X-29907Y55222D01*
X-30110Y55314D01*
X-30309Y55412D01*
X-30506Y55514D01*
X-30701Y55621D01*
X-30893Y55733D01*
X-31082Y55850D01*
X-31269Y55971D01*
X-31452Y56097D01*
X-31632Y56227D01*
X-31809Y56362D01*
X-31982Y56500D01*
X-32152Y56643D01*
X-32319Y56791D01*
X-32482Y56942D01*
X-32641Y57097D01*
X-32796Y57256D01*
X-32947Y57419D01*
X-33095Y57586D01*
X-33238Y57756D01*
X-33376Y57929D01*
X-33511Y58106D01*
X-33641Y58286D01*
X-33767Y58469D01*
X-33888Y58656D01*
X-34005Y58845D01*
X-34117Y59037D01*
X-34224Y59232D01*
X-34326Y59429D01*
X-34424Y59628D01*
X-34516Y59831D01*
X-34604Y60035D01*
X-34686Y60241D01*
X-34764Y60449D01*
X-34836Y60660D01*
X-34903Y60871D01*
X-34965Y61085D01*
X-35022Y61300D01*
X-35073Y61516D01*
X-35119Y61733D01*
X-35160Y61952D01*
X-35195Y62171D01*
X-35225Y62392D01*
X-35249Y62612D01*
X-35268Y62834D01*
X-35282Y63056D01*
X-35290Y63278D01*
X-35293Y63500D01*
D15*
X-26238Y63500D03*
M02*
