M48
;GenerationSoftware,Autodesk,EAGLE,9.6.2*%
;CreationDate,2023-11-01T16:20:45Z*%
FMAT,2
ICI,OFF
METRIC,TZ,000.000
T3C0.305
T2C1.016
T1C3.302
%
G90
M71
T1
X22860Y48768
X80264Y100584
X22860Y2540
X2540Y2540
X22860Y22860
X2540Y22860
X48768Y2540
X28448Y2540
X48768Y22860
X28448Y22860
X74676Y2540
X54356Y2540
X74676Y22860
X54356Y22860
X100584Y2540
X80264Y2540
X100584Y22860
X80264Y22860
X22860Y28448
X2540Y28448
X48768Y74676
X2540Y48768
X48768Y28448
X28448Y28448
X48768Y48768
X28448Y48768
X74676Y28448
X54356Y28448
X74676Y48768
X54356Y48768
X100584Y28448
X80264Y28448
X100584Y48768
X80264Y48768
X22860Y54356
X2540Y54356
X22860Y74676
X2540Y74676
X48768Y54356
X28448Y54356
X100584Y100584
X28448Y74676
X74676Y54356
X54356Y54356
X74676Y74676
X54356Y74676
X100584Y54356
X80264Y54356
X100584Y74676
X80264Y74676
X22860Y80264
X2540Y80264
X22860Y100584
X2540Y100584
X48768Y80264
X28448Y80264
X48768Y100584
X28448Y100584
X74676Y80264
X54356Y80264
X74676Y100584
X54356Y100584
X100584Y80264
X80264Y80264
T2
X96774Y78994
X6350Y1270
X8890Y1270
X11430Y1270
X13970Y1270
X16510Y1270
X19050Y1270
X32258Y1270
X34798Y1270
X37338Y1270
X39878Y1270
X42418Y1270
X44958Y1270
X58166Y1270
X60706Y1270
X63246Y1270
X65786Y1270
X68326Y1270
X70866Y1270
X84074Y1270
X86614Y1270
X89154Y1270
X91694Y1270
X94234Y1270
X96774Y1270
X6350Y27178
X8890Y27178
X11430Y27178
X13970Y27178
X16510Y27178
X19050Y27178
X32258Y27178
X34798Y27178
X37338Y27178
X39878Y27178
X42418Y27178
X44958Y27178
X58166Y27178
X60706Y27178
X63246Y27178
X65786Y27178
X68326Y27178
X70866Y27178
X84074Y27178
X86614Y27178
X89154Y27178
X91694Y27178
X94234Y27178
X96774Y27178
X6350Y53086
X8890Y53086
X11430Y53086
X13970Y53086
X16510Y53086
X19050Y53086
X32258Y53086
X34798Y53086
X37338Y53086
X39878Y53086
X42418Y53086
X44958Y53086
X58166Y53086
X60706Y53086
X63246Y53086
X65786Y53086
X68326Y53086
X70866Y53086
X84074Y53086
X86614Y53086
X89154Y53086
X91694Y53086
X94234Y53086
X96774Y53086
X6350Y78994
X8890Y78994
X11430Y78994
X13970Y78994
X16510Y78994
X19050Y78994
X32258Y78994
X34798Y78994
X37338Y78994
X39878Y78994
X42418Y78994
X44958Y78994
X58166Y78994
X60706Y78994
X63246Y78994
X65786Y78994
X68326Y78994
X70866Y78994
X84074Y78994
X86614Y78994
X89154Y78994
X91694Y78994
X94234Y78994
T3
X16002Y46609
X8763Y44958
X22860Y32258
X23749Y37338
X12700Y43688
X1270Y38608
X15367Y32004
X17018Y38608
X3175Y31115
X22860Y44958
X17780Y50038
X6350Y50038
X10160Y30988
X15240Y44450
X11557Y40767
X3556Y37084
X18161Y39497
X14224Y41021
X3556Y38100
X18953Y38578
X2482Y45834
X19431Y44704
X9195Y43180
X10287Y42291
X15240Y37338
X8255Y38862
X16383Y44831
X17780Y34544
X15240Y38608
X13589Y32385
X47498Y38100
X28575Y39116
X30988Y34798
X46228Y34798
X44958Y46228
X36195Y38354
X32258Y46228
X41021Y41910
X41910Y46609
X34671Y44958
X48768Y32258
X49657Y37338
X38608Y43688
X27178Y38608
X41275Y32004
X42926Y38608
X29083Y31115
X48768Y44958
X43688Y50038
X32258Y50038
X36068Y30988
X41148Y44450
X37465Y40767
X29464Y37084
X44069Y39497
X40132Y41021
X29464Y38100
X44861Y38578
X28390Y45834
X45339Y44704
X35103Y43180
X36195Y42291
X41148Y37338
X34163Y38862
X42291Y44831
X43688Y34544
X41148Y38608
X39497Y32385
X73406Y38100
X54483Y39116
X56896Y34798
X72136Y34798
X70866Y46228
X62103Y38354
X58166Y46228
X66929Y41910
X67818Y46609
X60579Y44958
X74676Y32258
X75565Y37338
X64516Y43688
X53086Y38608
X67183Y32004
X68834Y38608
X54991Y31115
X74676Y44958
X69596Y50038
X58166Y50038
X61976Y30988
X67056Y44450
X63373Y40767
X55372Y37084
X69977Y39497
X66040Y41021
X55372Y38100
X70769Y38578
X54298Y45834
X71247Y44704
X61011Y43180
X62103Y42291
X67056Y37338
X60071Y38862
X68199Y44831
X69596Y34544
X67056Y38608
X65405Y32385
X99314Y38100
X80391Y39116
X82804Y34798
X98044Y34798
X96774Y46228
X88011Y38354
X84074Y46228
X92837Y41910
X93726Y46609
X86487Y44958
X100584Y32258
X101473Y37338
X90424Y43688
X78994Y38608
X93091Y32004
X94742Y38608
X80899Y31115
X100584Y44958
X95504Y50038
X84074Y50038
X87884Y30988
X92964Y44450
X89281Y40767
X81280Y37084
X95885Y39497
X91948Y41021
X81280Y38100
X96677Y38578
X80206Y45834
X97155Y44704
X86919Y43180
X88011Y42291
X92964Y37338
X85979Y38862
X94107Y44831
X95504Y34544
X92964Y38608
X91313Y32385
X21590Y64008
X2667Y65024
X5080Y60706
X20320Y60706
X19050Y72136
X10287Y64262
X6350Y72136
X15113Y67818
X16002Y72517
X8763Y70866
X22860Y58166
X23749Y63246
X12700Y69596
X1270Y64516
X15367Y57912
X17018Y64516
X3175Y57023
X22860Y70866
X17780Y75946
X6350Y75946
X10160Y56896
X15240Y70358
X11557Y66675
X3556Y62992
X18161Y65405
X14224Y66929
X3556Y64008
X18953Y64486
X2482Y71742
X19431Y70612
X9195Y69088
X10287Y68199
X15240Y63246
X8255Y64770
X16383Y70739
X17780Y60452
X15240Y64516
X13589Y58293
X47498Y64008
X28575Y65024
X30988Y60706
X46228Y60706
X44958Y72136
X36195Y64262
X32258Y72136
X41021Y67818
X41910Y72517
X34671Y70866
X48768Y58166
X49657Y63246
X38608Y69596
X27178Y64516
X41275Y57912
X42926Y64516
X29083Y57023
X48768Y70866
X43688Y75946
X32258Y75946
X36068Y56896
X41148Y70358
X37465Y66675
X29464Y62992
X44069Y65405
X40132Y66929
X29464Y64008
X44861Y64486
X28390Y71742
X45339Y70612
X35103Y69088
X36195Y68199
X41148Y63246
X34163Y64770
X42291Y70739
X43688Y60452
X41148Y64516
X39497Y58293
X73406Y64008
X54483Y65024
X56896Y60706
X72136Y60706
X61976Y5080
X62103Y64262
X58166Y72136
X66929Y67818
X67818Y72517
X60579Y70866
X74676Y58166
X75565Y63246
X64516Y69596
X53086Y64516
X67183Y57912
X68834Y64516
X54991Y57023
X74676Y70866
X69596Y75946
X58166Y75946
X61976Y56896
X67056Y70358
X63373Y66675
X55372Y62992
X69977Y65405
X66040Y66929
X55372Y64008
X70769Y64486
X54298Y71742
X71247Y70612
X61011Y69088
X62103Y68199
X67056Y63246
X60071Y64770
X68199Y70739
X69596Y60452
X67056Y64516
X65405Y58293
X99314Y64008
X80391Y65024
X82804Y60706
X98044Y60706
X96774Y72136
X88011Y64262
X84074Y72136
X92837Y67818
X93726Y72517
X86487Y70866
X100584Y58166
X101473Y63246
X90424Y69596
X78994Y64516
X93091Y57912
X94742Y64516
X80899Y57023
X100584Y70866
X95504Y75946
X84074Y75946
X87884Y56896
X92964Y70358
X89281Y66675
X81280Y62992
X95885Y65405
X91948Y66929
X81280Y64008
X96677Y64486
X80206Y71742
X97155Y70612
X86919Y69088
X88011Y68199
X92964Y63246
X85979Y64770
X94107Y70739
X95504Y60452
X92964Y64516
X91313Y58293
X21590Y89916
X2667Y90932
X5080Y86614
X20320Y86614
X19050Y98044
X10287Y90170
X6350Y98044
X15113Y93726
X16002Y98425
X8763Y96774
X22860Y84074
X23749Y89154
X12700Y95504
X1270Y90424
X15367Y83820
X17018Y90424
X3175Y82931
X22860Y96774
X17780Y101854
X6350Y101854
X10160Y82804
X15240Y96266
X11557Y92583
X3556Y88900
X18161Y91313
X14224Y92837
X3556Y89916
X18953Y90394
X2482Y97650
X19431Y96520
X9195Y94996
X10287Y94107
X15240Y89154
X8255Y90678
X16383Y96647
X17780Y86360
X15240Y90424
X13589Y84201
X47498Y89916
X28575Y90932
X30988Y86614
X46228Y86614
X44958Y98044
X36195Y90170
X32258Y98044
X41021Y93726
X41910Y98425
X34671Y96774
X48768Y84074
X49657Y89154
X38608Y95504
X27178Y90424
X41275Y83820
X42926Y90424
X29083Y82931
X48768Y96774
X43688Y101854
X32258Y101854
X36068Y82804
X41148Y96266
X37465Y92583
X29464Y88900
X44069Y91313
X40132Y92837
X29464Y89916
X44861Y90394
X28390Y97650
X45339Y96520
X35103Y94996
X36195Y94107
X41148Y89154
X34163Y90678
X42291Y96647
X43688Y86360
X41148Y90424
X39497Y84201
X73406Y89916
X54483Y90932
X56896Y86614
X72136Y86614
X70866Y98044
X62103Y90170
X58166Y98044
X66929Y93726
X67818Y98425
X60579Y96774
X74676Y84074
X75565Y89154
X64516Y95504
X53086Y90424
X67183Y83820
X68834Y90424
X54991Y82931
X74676Y96774
X69596Y101854
X58166Y101854
X61976Y82804
X67056Y96266
X63373Y92583
X55372Y88900
X69977Y91313
X66040Y92837
X55372Y89916
X70769Y90394
X54298Y97650
X71247Y96520
X61011Y94996
X62103Y94107
X67056Y89154
X60071Y90678
X68199Y96647
X69596Y86360
X67056Y90424
X65405Y84201
X99314Y89916
X80391Y90932
X82804Y86614
X98044Y86614
X96774Y98044
X21590Y12192
X84074Y98044
X92837Y93726
X93726Y98425
X86487Y96774
X100584Y84074
X101473Y89154
X90424Y95504
X78994Y90424
X93091Y83820
X94742Y90424
X80899Y82931
X100584Y96774
X95504Y101854
X84074Y101854
X87884Y82804
X92964Y96266
X89281Y92583
X81280Y88900
X95885Y91313
X91948Y92837
X81280Y89916
X96677Y90394
X80206Y97650
X97155Y96520
X86919Y94996
X88011Y94107
X92964Y89154
X85979Y90678
X94107Y96647
X95504Y86360
X92964Y90424
X91313Y84201
X2667Y13208
X5080Y8890
X20320Y8890
X19050Y20320
X10287Y12446
X6350Y20320
X15113Y16002
X16002Y20701
X8763Y19050
X22860Y6350
X23749Y11430
X12700Y17780
X1270Y12700
X15367Y6096
X17018Y12700
X3175Y5207
X22860Y19050
X17780Y24130
X6350Y24130
X10160Y5080
X15240Y18542
X11557Y14859
X3556Y11176
X18161Y13589
X14224Y15113
X3556Y12192
X18953Y12670
X2482Y19926
X19431Y18796
X9195Y17272
X10287Y16383
X15240Y11430
X8255Y12954
X16383Y18923
X17780Y8636
X15240Y12700
X13589Y6477
X47498Y12192
X28575Y13208
X30988Y8890
X46228Y8890
X44958Y20320
X36195Y12446
X32258Y20320
X41021Y16002
X41910Y20701
X34671Y19050
X48768Y6350
X49657Y11430
X38608Y17780
X27178Y12700
X41275Y6096
X42926Y12700
X29083Y5207
X48768Y19050
X43688Y24130
X32258Y24130
X36068Y5080
X41148Y18542
X37465Y14859
X29464Y11176
X44069Y13589
X40132Y15113
X70866Y72136
X29464Y12192
X44861Y12670
X28390Y19926
X45339Y18796
X35103Y17272
X36195Y16383
X41148Y11430
X34163Y12954
X42291Y18923
X43688Y8636
X41148Y12700
X39497Y6477
X73406Y12192
X54483Y13208
X56896Y8890
X72136Y8890
X70866Y20320
X62103Y12446
X58166Y20320
X66929Y16002
X67818Y20701
X60579Y19050
X74676Y6350
X75565Y11430
X64516Y17780
X53086Y12700
X67183Y6096
X68834Y12700
X54991Y5207
X74676Y19050
X69596Y24130
X58166Y24130
X67056Y18542
X63373Y14859
X55372Y11176
X69977Y13589
X66040Y15113
X55372Y12192
X70769Y12670
X54298Y19926
X71247Y18796
X61011Y17272
X62103Y16383
X67056Y11430
X60071Y12954
X68199Y18923
X69596Y8636
X67056Y12700
X65405Y6477
X99314Y12192
X80391Y13208
X82804Y8890
X98044Y8890
X96774Y20320
X88011Y12446
X84074Y20320
X92837Y16002
X93726Y20701
X86487Y19050
X100584Y6350
X101473Y11430
X90424Y17780
X78994Y12700
X93091Y6096
X94742Y12700
X80899Y5207
X100584Y19050
X95504Y24130
X84074Y24130
X87884Y5080
X92964Y18542
X89281Y14859
X81280Y11176
X95885Y13589
X91948Y15113
X81280Y12192
X96677Y12670
X80206Y19926
X97155Y18796
X86919Y17272
X88011Y16383
X92964Y11430
X85979Y12954
X94107Y18923
X95504Y8636
X92964Y12700
X91313Y6477
X21590Y38100
X2667Y39116
X5080Y34798
X20320Y34798
X19050Y46228
X10287Y38354
X6350Y46228
X15113Y41910
X88011Y90170
M30