G04 EAGLE Gerber RS-274X export*
G75*
%MOMM*%
%FSLAX34Y34*%
%LPD*%
%INSilkscreen Bottom*%
%IPPOS*%
%AMOC8*
5,1,8,0,0,1.08239X$1,22.5*%
G01*
%ADD10C,0.152400*%
%ADD11C,0.254000*%

G36*
X171947Y19697D02*
X171947Y19697D01*
X171942Y19704D01*
X171949Y19710D01*
X171949Y86110D01*
X171946Y86115D01*
X171949Y86118D01*
X171849Y86718D01*
X171749Y87417D01*
X171649Y88117D01*
X171641Y88125D01*
X171644Y88132D01*
X171346Y88729D01*
X171147Y89326D01*
X171139Y89331D01*
X171141Y89337D01*
X170741Y89937D01*
X170738Y89938D01*
X170738Y89941D01*
X170338Y90441D01*
X170334Y90442D01*
X170335Y90445D01*
X169335Y91445D01*
X169331Y91445D01*
X169331Y91448D01*
X168831Y91848D01*
X168823Y91849D01*
X168822Y91854D01*
X167622Y92454D01*
X167615Y92453D01*
X167614Y92457D01*
X166915Y92657D01*
X166316Y92857D01*
X166309Y92855D01*
X166307Y92859D01*
X165607Y92959D01*
X165602Y92956D01*
X165600Y92959D01*
X164900Y92959D01*
X164895Y92956D01*
X164892Y92959D01*
X164292Y92859D01*
X163593Y92759D01*
X163589Y92755D01*
X163586Y92757D01*
X162886Y92557D01*
X162885Y92556D01*
X162884Y92557D01*
X162284Y92357D01*
X162281Y92352D01*
X162278Y92354D01*
X161678Y92054D01*
X161676Y92050D01*
X161673Y92051D01*
X161073Y91651D01*
X161072Y91648D01*
X161069Y91648D01*
X160569Y91248D01*
X160568Y91244D01*
X160565Y91245D01*
X160065Y90745D01*
X160065Y90741D01*
X160062Y90741D01*
X159662Y90241D01*
X159661Y90237D01*
X159659Y90237D01*
X159259Y89637D01*
X159259Y89633D01*
X159256Y89632D01*
X158656Y88432D01*
X158657Y88429D01*
X158654Y88427D01*
X158656Y88425D01*
X158653Y88424D01*
X158626Y88329D01*
X158583Y88181D01*
X158569Y88132D01*
X158527Y87984D01*
X158485Y87836D01*
X158471Y87787D01*
X158453Y87724D01*
X158454Y87720D01*
X158451Y87718D01*
X158351Y87118D01*
X158352Y87117D01*
X158351Y87117D01*
X158251Y86417D01*
X158254Y86412D01*
X158251Y86410D01*
X158251Y19710D01*
X158287Y19663D01*
X158294Y19668D01*
X158300Y19661D01*
X171900Y19661D01*
X171947Y19697D01*
G37*
G36*
X120718Y20534D02*
X120718Y20534D01*
X120730Y20531D01*
X121130Y20831D01*
X121134Y20847D01*
X121141Y20852D01*
X121137Y20858D01*
X121139Y20862D01*
X121149Y20870D01*
X121149Y54670D01*
X121146Y54674D01*
X121149Y54677D01*
X121049Y55373D01*
X121049Y56070D01*
X121042Y56079D01*
X121047Y56086D01*
X120847Y56685D01*
X120647Y57384D01*
X120642Y57388D01*
X120644Y57392D01*
X120344Y57992D01*
X120340Y57994D01*
X120341Y57997D01*
X119941Y58597D01*
X119938Y58598D01*
X119938Y58601D01*
X119138Y59601D01*
X119134Y59602D01*
X119135Y59605D01*
X118635Y60105D01*
X118628Y60106D01*
X118627Y60111D01*
X118027Y60511D01*
X118026Y60511D01*
X118025Y60512D01*
X117525Y60812D01*
X117520Y60812D01*
X117519Y60815D01*
X116819Y61115D01*
X116816Y61115D01*
X116816Y61117D01*
X115616Y61517D01*
X115609Y61515D01*
X115607Y61519D01*
X114907Y61619D01*
X114902Y61616D01*
X114900Y61619D01*
X114200Y61619D01*
X114196Y61616D01*
X114193Y61619D01*
X113493Y61519D01*
X113492Y61518D01*
X113492Y61519D01*
X112892Y61419D01*
X112193Y61319D01*
X112185Y61311D01*
X112178Y61314D01*
X110978Y60714D01*
X110976Y60710D01*
X110973Y60711D01*
X110373Y60311D01*
X110372Y60308D01*
X110369Y60308D01*
X109369Y59508D01*
X109368Y59504D01*
X109365Y59505D01*
X108865Y59005D01*
X108864Y58993D01*
X108856Y58992D01*
X108557Y58395D01*
X108159Y57797D01*
X108160Y57788D01*
X108153Y57786D01*
X107953Y57186D01*
X107954Y57184D01*
X107953Y57184D01*
X107951Y57176D01*
X107908Y57028D01*
X107894Y56979D01*
X107852Y56831D01*
X107810Y56684D01*
X107796Y56634D01*
X107754Y56487D01*
X107753Y56485D01*
X107553Y55886D01*
X107555Y55879D01*
X107551Y55877D01*
X107451Y55177D01*
X107454Y55172D01*
X107451Y55170D01*
X107451Y20970D01*
X107464Y20952D01*
X107461Y20940D01*
X107761Y20540D01*
X107792Y20532D01*
X107800Y20521D01*
X120700Y20521D01*
X120718Y20534D01*
G37*
G36*
X70347Y20457D02*
X70347Y20457D01*
X70342Y20464D01*
X70349Y20470D01*
X70349Y57670D01*
X70346Y57675D01*
X70349Y57678D01*
X70249Y58278D01*
X70205Y58319D01*
X70203Y58316D01*
X70200Y58319D01*
X56700Y58319D01*
X56653Y58283D01*
X56658Y58276D01*
X56651Y58270D01*
X56651Y54970D01*
X56671Y54944D01*
X56671Y54930D01*
X56700Y54909D01*
X56669Y54908D01*
X56670Y54884D01*
X56651Y54870D01*
X56651Y21070D01*
X56654Y21065D01*
X56651Y21062D01*
X56751Y20462D01*
X56795Y20421D01*
X56798Y20424D01*
X56800Y20421D01*
X70300Y20421D01*
X70347Y20457D01*
G37*
G36*
X95105Y20724D02*
X95105Y20724D01*
X95108Y20721D01*
X95708Y20821D01*
X95749Y20865D01*
X95746Y20868D01*
X95749Y20870D01*
X95749Y57470D01*
X95741Y57481D01*
X95746Y57488D01*
X95546Y57988D01*
X95505Y58013D01*
X95500Y58019D01*
X82600Y58019D01*
X82589Y58011D01*
X82582Y58016D01*
X82082Y57816D01*
X82057Y57775D01*
X82051Y57770D01*
X82051Y21370D01*
X82054Y21365D01*
X82051Y21362D01*
X82151Y20762D01*
X82195Y20721D01*
X82198Y20724D01*
X82200Y20721D01*
X95100Y20721D01*
X95105Y20724D01*
G37*
G36*
X146338Y20680D02*
X146338Y20680D01*
X146346Y20682D01*
X146546Y21182D01*
X146542Y21195D01*
X146549Y21200D01*
X146549Y52400D01*
X146546Y52404D01*
X146549Y52407D01*
X146349Y53807D01*
X146344Y53812D01*
X146347Y53816D01*
X146147Y54416D01*
X146142Y54419D01*
X146144Y54422D01*
X145544Y55622D01*
X145540Y55624D01*
X145541Y55627D01*
X145141Y56227D01*
X145138Y56228D01*
X145138Y56231D01*
X144738Y56731D01*
X144734Y56732D01*
X144735Y56735D01*
X144235Y57235D01*
X144228Y57236D01*
X144227Y57241D01*
X143629Y57640D01*
X143131Y58038D01*
X143123Y58039D01*
X143122Y58044D01*
X142522Y58344D01*
X142515Y58343D01*
X142514Y58347D01*
X141815Y58547D01*
X141216Y58747D01*
X141209Y58745D01*
X141207Y58749D01*
X139807Y58949D01*
X139797Y58943D01*
X139792Y58949D01*
X139196Y58849D01*
X138500Y58849D01*
X138492Y58843D01*
X138486Y58847D01*
X137786Y58647D01*
X137785Y58646D01*
X137784Y58647D01*
X137184Y58447D01*
X137181Y58442D01*
X137178Y58444D01*
X135978Y57844D01*
X135976Y57840D01*
X135973Y57841D01*
X135373Y57441D01*
X135370Y57434D01*
X135365Y57435D01*
X134865Y56935D01*
X134865Y56931D01*
X134862Y56931D01*
X134062Y55931D01*
X134061Y55927D01*
X134059Y55927D01*
X133659Y55327D01*
X133659Y55323D01*
X133656Y55322D01*
X133356Y54722D01*
X133357Y54715D01*
X133353Y54714D01*
X133334Y54647D01*
X133291Y54499D01*
X133277Y54450D01*
X133235Y54302D01*
X133193Y54154D01*
X133179Y54105D01*
X133153Y54015D01*
X132953Y53416D01*
X132953Y53415D01*
X132957Y53405D01*
X132951Y53400D01*
X132951Y52704D01*
X132851Y52108D01*
X132854Y52103D01*
X132851Y52100D01*
X132851Y20900D01*
X132880Y20862D01*
X132882Y20854D01*
X133382Y20654D01*
X133395Y20658D01*
X133400Y20651D01*
X146300Y20651D01*
X146338Y20680D01*
G37*
G36*
X197247Y20517D02*
X197247Y20517D01*
X197245Y20520D01*
X197249Y20522D01*
X197349Y21122D01*
X197346Y21127D01*
X197349Y21130D01*
X197349Y50230D01*
X197346Y50234D01*
X197349Y50237D01*
X197249Y50937D01*
X197244Y50942D01*
X197247Y50946D01*
X197047Y51545D01*
X196847Y52244D01*
X196842Y52248D01*
X196844Y52252D01*
X196244Y53452D01*
X196237Y53455D01*
X196238Y53461D01*
X195438Y54461D01*
X195434Y54462D01*
X195435Y54465D01*
X194935Y54965D01*
X194928Y54966D01*
X194927Y54971D01*
X193727Y55771D01*
X193718Y55770D01*
X193716Y55777D01*
X193119Y55976D01*
X192522Y56274D01*
X192511Y56272D01*
X192507Y56279D01*
X191808Y56379D01*
X191208Y56479D01*
X191207Y56478D01*
X191207Y56479D01*
X190507Y56579D01*
X190498Y56574D01*
X190493Y56579D01*
X189793Y56479D01*
X189792Y56478D01*
X189792Y56479D01*
X189192Y56379D01*
X188493Y56279D01*
X188485Y56271D01*
X188478Y56274D01*
X186678Y55374D01*
X186676Y55370D01*
X186673Y55371D01*
X186073Y54971D01*
X186070Y54964D01*
X186065Y54965D01*
X185565Y54465D01*
X185565Y54461D01*
X185562Y54461D01*
X184762Y53461D01*
X184761Y53453D01*
X184756Y53452D01*
X184156Y52252D01*
X184157Y52245D01*
X184153Y52244D01*
X184129Y52162D01*
X184115Y52113D01*
X184073Y51965D01*
X184031Y51817D01*
X184017Y51768D01*
X183975Y51620D01*
X183953Y51545D01*
X183753Y50946D01*
X183755Y50939D01*
X183751Y50937D01*
X183651Y50237D01*
X183654Y50232D01*
X183651Y50230D01*
X183651Y20630D01*
X183687Y20583D01*
X183690Y20585D01*
X183692Y20581D01*
X184292Y20481D01*
X184297Y20484D01*
X184300Y20481D01*
X197200Y20481D01*
X197247Y20517D01*
G37*
G36*
X241870Y67237D02*
X241870Y67237D01*
X241872Y67237D01*
X242400Y67260D01*
X242402Y67261D01*
X242404Y67260D01*
X243458Y67366D01*
X243462Y67369D01*
X243470Y67368D01*
X244483Y67677D01*
X244485Y67680D01*
X244490Y67680D01*
X244973Y67889D01*
X244975Y67891D01*
X244979Y67892D01*
X245900Y68412D01*
X245903Y68417D01*
X245910Y68418D01*
X246727Y69093D01*
X246728Y69097D01*
X246735Y69100D01*
X247421Y69905D01*
X247421Y69909D01*
X247425Y69911D01*
X247722Y70347D01*
X247722Y70350D01*
X247725Y70353D01*
X248219Y71289D01*
X248220Y71289D01*
X248219Y71294D01*
X248224Y71299D01*
X248538Y72311D01*
X248537Y72315D01*
X248540Y72320D01*
X248623Y72841D01*
X248623Y72842D01*
X248624Y72844D01*
X248677Y73371D01*
X248676Y73373D01*
X248677Y73374D01*
X248706Y73901D01*
X248704Y73905D01*
X248706Y73911D01*
X248599Y74965D01*
X248597Y74969D01*
X248598Y74974D01*
X248467Y75486D01*
X248465Y75487D01*
X248466Y75489D01*
X248309Y75994D01*
X248307Y75996D01*
X248307Y75999D01*
X248117Y76490D01*
X248114Y76493D01*
X248114Y76498D01*
X247608Y77429D01*
X247604Y77432D01*
X247602Y77439D01*
X246929Y78257D01*
X246928Y78258D01*
X246927Y78259D01*
X246925Y78260D01*
X246924Y78263D01*
X246542Y78626D01*
X246540Y78627D01*
X246539Y78629D01*
X246130Y78966D01*
X246128Y78967D01*
X246127Y78968D01*
X245703Y79282D01*
X245699Y79282D01*
X245695Y79286D01*
X244764Y79792D01*
X244759Y79791D01*
X244753Y79796D01*
X243745Y80119D01*
X243742Y80118D01*
X243738Y80120D01*
X243221Y80224D01*
X243219Y80223D01*
X243215Y80225D01*
X242161Y80330D01*
X242158Y80328D01*
X242155Y80330D01*
X215139Y80330D01*
X215137Y80328D01*
X215133Y80330D01*
X214944Y80311D01*
X213890Y80204D01*
X213885Y80201D01*
X213878Y80202D01*
X212864Y79901D01*
X212862Y79898D01*
X212857Y79898D01*
X212371Y79696D01*
X212369Y79693D01*
X212364Y79693D01*
X211439Y79178D01*
X211437Y79174D01*
X211430Y79172D01*
X210613Y78498D01*
X210611Y78494D01*
X210606Y78491D01*
X210252Y78100D01*
X210252Y78098D01*
X210250Y78098D01*
X209913Y77689D01*
X209912Y77687D01*
X209910Y77685D01*
X209607Y77253D01*
X209607Y77250D01*
X209604Y77247D01*
X209103Y76314D01*
X209103Y76308D01*
X209098Y76303D01*
X208784Y75291D01*
X208785Y75287D01*
X208782Y75283D01*
X208691Y74764D01*
X208692Y74761D01*
X208691Y74758D01*
X208601Y73704D01*
X208604Y73699D01*
X208602Y73692D01*
X208708Y72638D01*
X208710Y72635D01*
X208709Y72630D01*
X208833Y72117D01*
X208835Y72116D01*
X208834Y72113D01*
X208991Y71608D01*
X208992Y71607D01*
X208992Y71604D01*
X209176Y71110D01*
X209179Y71107D01*
X209179Y71101D01*
X209685Y70170D01*
X209689Y70168D01*
X209691Y70161D01*
X210358Y69338D01*
X210361Y69337D01*
X210363Y69333D01*
X210740Y68965D01*
X210743Y68964D01*
X210745Y68960D01*
X211574Y68304D01*
X211579Y68303D01*
X211583Y68298D01*
X212514Y67793D01*
X212519Y67793D01*
X212525Y67788D01*
X213530Y67459D01*
X213533Y67460D01*
X213537Y67458D01*
X214052Y67346D01*
X214055Y67348D01*
X214059Y67345D01*
X215113Y67239D01*
X215115Y67240D01*
X215119Y67239D01*
X237697Y67237D01*
X237715Y67248D01*
X237736Y67250D01*
X237745Y67268D01*
X237754Y67274D01*
X237753Y67283D01*
X237760Y67296D01*
X237769Y67486D01*
X237769Y67488D01*
X237770Y67489D01*
X237789Y77117D01*
X237790Y77117D01*
X237789Y77124D01*
X237792Y77125D01*
X237791Y77132D01*
X237797Y77147D01*
X237793Y77393D01*
X240093Y77393D01*
X240104Y77167D01*
X240104Y76562D01*
X240108Y76556D01*
X240105Y76549D01*
X240125Y76529D01*
X240140Y76505D01*
X240148Y76506D01*
X240154Y76501D01*
X240204Y76512D01*
X240448Y76697D01*
X240448Y76698D01*
X240450Y76699D01*
X240855Y77028D01*
X241313Y77265D01*
X241808Y77414D01*
X242323Y77470D01*
X242842Y77437D01*
X243354Y77349D01*
X243847Y77190D01*
X244300Y76938D01*
X244700Y76611D01*
X245043Y76223D01*
X245324Y75788D01*
X245540Y75316D01*
X245672Y74812D01*
X245755Y74296D01*
X245795Y73775D01*
X245759Y73254D01*
X245686Y72736D01*
X245561Y72230D01*
X245354Y71754D01*
X245089Y71308D01*
X244764Y70904D01*
X244378Y70559D01*
X243929Y70302D01*
X243445Y70117D01*
X242940Y69999D01*
X242422Y69951D01*
X241905Y69985D01*
X241402Y70105D01*
X240937Y70327D01*
X240526Y70642D01*
X240209Y70940D01*
X240198Y70942D01*
X240192Y70951D01*
X240167Y70947D01*
X240142Y70952D01*
X240136Y70943D01*
X240125Y70941D01*
X240106Y70900D01*
X240104Y70896D01*
X240104Y70895D01*
X240104Y70894D01*
X240104Y67715D01*
X240104Y67714D01*
X240116Y67298D01*
X240128Y67280D01*
X240131Y67258D01*
X240148Y67250D01*
X240154Y67242D01*
X240164Y67243D01*
X240178Y67237D01*
X241869Y67237D01*
X241870Y67237D01*
G37*
G36*
X33086Y53208D02*
X33086Y53208D01*
X33152Y53213D01*
X33170Y53224D01*
X33191Y53229D01*
X33276Y53289D01*
X33300Y53303D01*
X33303Y53308D01*
X33308Y53312D01*
X35508Y55612D01*
X35516Y55625D01*
X35529Y55635D01*
X35560Y55699D01*
X35596Y55761D01*
X35597Y55777D01*
X35604Y55791D01*
X35603Y55862D01*
X35609Y55933D01*
X35603Y55948D01*
X35602Y55964D01*
X35545Y56089D01*
X35543Y56093D01*
X35543Y56094D01*
X33675Y58709D01*
X33677Y58720D01*
X33686Y58733D01*
X33697Y58791D01*
X33706Y58812D01*
X33706Y58834D01*
X33712Y58867D01*
X33713Y58872D01*
X33713Y58873D01*
X33713Y58874D01*
X33713Y58884D01*
X33746Y58949D01*
X33802Y59006D01*
X33813Y59024D01*
X33825Y59033D01*
X33833Y59051D01*
X33873Y59104D01*
X33946Y59249D01*
X34002Y59306D01*
X34042Y59370D01*
X34086Y59433D01*
X34088Y59445D01*
X34093Y59453D01*
X34097Y59488D01*
X34113Y59574D01*
X34113Y59623D01*
X34142Y59670D01*
X34186Y59733D01*
X34188Y59745D01*
X34193Y59753D01*
X34197Y59788D01*
X34213Y59874D01*
X34213Y59984D01*
X34246Y60049D01*
X34302Y60106D01*
X34342Y60170D01*
X34386Y60233D01*
X34388Y60245D01*
X34393Y60253D01*
X34397Y60288D01*
X34403Y60321D01*
X34406Y60329D01*
X34406Y60337D01*
X34413Y60374D01*
X34413Y60423D01*
X34442Y60470D01*
X34486Y60533D01*
X34488Y60545D01*
X34493Y60553D01*
X34497Y60588D01*
X34513Y60674D01*
X34513Y60784D01*
X34542Y60842D01*
X37798Y61400D01*
X37816Y61407D01*
X37835Y61408D01*
X37895Y61441D01*
X37957Y61467D01*
X37970Y61482D01*
X37987Y61491D01*
X38026Y61547D01*
X38070Y61598D01*
X38075Y61617D01*
X38086Y61633D01*
X38108Y61744D01*
X38113Y61766D01*
X38112Y61770D01*
X38113Y61774D01*
X38113Y64974D01*
X38109Y64993D01*
X38111Y65012D01*
X38100Y65046D01*
X38099Y65052D01*
X38094Y65063D01*
X38089Y65076D01*
X38074Y65142D01*
X38061Y65157D01*
X38055Y65175D01*
X38007Y65223D01*
X37964Y65276D01*
X37946Y65283D01*
X37932Y65297D01*
X37826Y65337D01*
X37806Y65346D01*
X37802Y65346D01*
X37798Y65348D01*
X34586Y65898D01*
X34575Y65937D01*
X34574Y65942D01*
X34573Y65943D01*
X34513Y66063D01*
X34513Y66074D01*
X34510Y66089D01*
X34512Y66105D01*
X34492Y66175D01*
X34492Y66190D01*
X34484Y66204D01*
X34475Y66237D01*
X34474Y66242D01*
X34473Y66243D01*
X34413Y66363D01*
X34413Y66374D01*
X34410Y66389D01*
X34412Y66405D01*
X34375Y66537D01*
X34374Y66542D01*
X34373Y66543D01*
X34213Y66863D01*
X34213Y66874D01*
X34210Y66889D01*
X34212Y66905D01*
X34175Y67037D01*
X34174Y67042D01*
X34173Y67043D01*
X34073Y67243D01*
X34050Y67271D01*
X34013Y67325D01*
X34013Y67374D01*
X33996Y67448D01*
X33982Y67523D01*
X33976Y67533D01*
X33974Y67542D01*
X33951Y67570D01*
X33902Y67642D01*
X33846Y67698D01*
X33773Y67843D01*
X33750Y67871D01*
X33713Y67925D01*
X33713Y67974D01*
X33696Y68048D01*
X33692Y68070D01*
X35546Y70758D01*
X35552Y70774D01*
X35564Y70787D01*
X35584Y70854D01*
X35609Y70919D01*
X35608Y70937D01*
X35613Y70953D01*
X35600Y71022D01*
X35594Y71092D01*
X35585Y71106D01*
X35582Y71123D01*
X35511Y71229D01*
X35504Y71240D01*
X35503Y71240D01*
X35502Y71242D01*
X33302Y73442D01*
X33288Y73451D01*
X33277Y73465D01*
X33215Y73496D01*
X33155Y73533D01*
X33138Y73535D01*
X33123Y73542D01*
X33053Y73543D01*
X32983Y73549D01*
X32967Y73543D01*
X32950Y73543D01*
X32832Y73492D01*
X32821Y73488D01*
X32820Y73487D01*
X32819Y73486D01*
X30120Y71624D01*
X30102Y71642D01*
X30037Y71682D01*
X29975Y71726D01*
X29963Y71728D01*
X29955Y71733D01*
X29920Y71736D01*
X29834Y71753D01*
X29784Y71753D01*
X29772Y71761D01*
X29704Y71813D01*
X29559Y71885D01*
X29502Y71942D01*
X29437Y71982D01*
X29375Y72026D01*
X29363Y72028D01*
X29355Y72033D01*
X29320Y72036D01*
X29234Y72053D01*
X29184Y72053D01*
X29172Y72061D01*
X29104Y72113D01*
X28904Y72213D01*
X28888Y72217D01*
X28875Y72226D01*
X28741Y72252D01*
X28735Y72253D01*
X28734Y72253D01*
X28724Y72253D01*
X28604Y72313D01*
X28588Y72317D01*
X28575Y72326D01*
X28441Y72352D01*
X28435Y72353D01*
X28434Y72353D01*
X28384Y72353D01*
X28337Y72382D01*
X28275Y72426D01*
X28263Y72428D01*
X28255Y72433D01*
X28220Y72436D01*
X28134Y72453D01*
X28024Y72453D01*
X27966Y72482D01*
X27408Y75738D01*
X27400Y75756D01*
X27399Y75775D01*
X27367Y75834D01*
X27340Y75897D01*
X27326Y75910D01*
X27316Y75927D01*
X27261Y75966D01*
X27209Y76010D01*
X27190Y76015D01*
X27175Y76026D01*
X27064Y76047D01*
X27042Y76053D01*
X27038Y76052D01*
X27034Y76053D01*
X23834Y76053D01*
X23815Y76049D01*
X23796Y76051D01*
X23732Y76029D01*
X23666Y76013D01*
X23651Y76001D01*
X23632Y75995D01*
X23585Y75947D01*
X23532Y75903D01*
X23524Y75886D01*
X23511Y75872D01*
X23471Y75766D01*
X23462Y75745D01*
X23462Y75742D01*
X23460Y75738D01*
X22910Y72526D01*
X22871Y72515D01*
X22866Y72513D01*
X22865Y72513D01*
X22864Y72513D01*
X22744Y72453D01*
X22734Y72453D01*
X22718Y72449D01*
X22702Y72452D01*
X22571Y72415D01*
X22566Y72413D01*
X22565Y72413D01*
X22564Y72413D01*
X22444Y72353D01*
X22434Y72353D01*
X22418Y72349D01*
X22402Y72352D01*
X22271Y72315D01*
X22266Y72313D01*
X22265Y72313D01*
X22264Y72313D01*
X22144Y72253D01*
X22034Y72253D01*
X21960Y72236D01*
X21884Y72222D01*
X21875Y72216D01*
X21866Y72213D01*
X21838Y72191D01*
X21766Y72142D01*
X21709Y72085D01*
X21644Y72053D01*
X21634Y72053D01*
X21618Y72049D01*
X21602Y72052D01*
X21471Y72015D01*
X21466Y72013D01*
X21465Y72013D01*
X21464Y72013D01*
X21264Y71913D01*
X21237Y71890D01*
X21166Y71842D01*
X21109Y71785D01*
X21044Y71753D01*
X21034Y71753D01*
X21018Y71749D01*
X21002Y71752D01*
X20871Y71715D01*
X20866Y71713D01*
X20865Y71713D01*
X20864Y71713D01*
X20723Y71642D01*
X18049Y73486D01*
X18037Y73491D01*
X18028Y73500D01*
X17957Y73522D01*
X17888Y73549D01*
X17875Y73548D01*
X17863Y73552D01*
X17790Y73540D01*
X17716Y73534D01*
X17705Y73527D01*
X17692Y73525D01*
X17572Y73448D01*
X15272Y71248D01*
X15258Y71226D01*
X15238Y71210D01*
X15211Y71154D01*
X15177Y71103D01*
X15174Y71077D01*
X15163Y71054D01*
X15164Y70992D01*
X15157Y70931D01*
X15166Y70907D01*
X15166Y70881D01*
X15204Y70801D01*
X15215Y70768D01*
X15222Y70762D01*
X15227Y70751D01*
X17162Y68078D01*
X17122Y67998D01*
X17066Y67942D01*
X17026Y67877D01*
X16982Y67814D01*
X16980Y67803D01*
X16975Y67795D01*
X16971Y67760D01*
X16955Y67674D01*
X16955Y67624D01*
X16947Y67611D01*
X16895Y67543D01*
X16822Y67398D01*
X16766Y67342D01*
X16726Y67277D01*
X16682Y67214D01*
X16680Y67203D01*
X16675Y67195D01*
X16671Y67160D01*
X16655Y67074D01*
X16655Y67024D01*
X16626Y66977D01*
X16582Y66914D01*
X16580Y66903D01*
X16575Y66895D01*
X16571Y66860D01*
X16555Y66774D01*
X16555Y66663D01*
X16522Y66598D01*
X16466Y66542D01*
X16426Y66477D01*
X16382Y66414D01*
X16380Y66403D01*
X16375Y66395D01*
X16371Y66360D01*
X16355Y66274D01*
X16355Y66224D01*
X16326Y66177D01*
X16282Y66114D01*
X16280Y66103D01*
X16275Y66095D01*
X16271Y66060D01*
X16255Y65974D01*
X16255Y65895D01*
X12972Y65348D01*
X12953Y65340D01*
X12933Y65339D01*
X12874Y65307D01*
X12812Y65281D01*
X12799Y65266D01*
X12781Y65256D01*
X12743Y65201D01*
X12699Y65151D01*
X12693Y65131D01*
X12682Y65114D01*
X12666Y65033D01*
X12662Y65023D01*
X12662Y65011D01*
X12661Y65008D01*
X12655Y64983D01*
X12656Y64979D01*
X12655Y64974D01*
X12655Y61774D01*
X12659Y61755D01*
X12657Y61736D01*
X12679Y61671D01*
X12694Y61605D01*
X12707Y61590D01*
X12713Y61572D01*
X12761Y61524D01*
X12804Y61472D01*
X12822Y61464D01*
X12836Y61450D01*
X12942Y61410D01*
X12962Y61401D01*
X12966Y61401D01*
X12970Y61400D01*
X16258Y60836D01*
X16293Y60711D01*
X16294Y60705D01*
X16295Y60705D01*
X16295Y60704D01*
X16355Y60584D01*
X16355Y60574D01*
X16358Y60558D01*
X16356Y60542D01*
X16393Y60411D01*
X16394Y60405D01*
X16395Y60405D01*
X16395Y60404D01*
X16455Y60284D01*
X16455Y60274D01*
X16458Y60258D01*
X16456Y60242D01*
X16493Y60111D01*
X16494Y60105D01*
X16495Y60105D01*
X16495Y60104D01*
X16655Y59784D01*
X16655Y59774D01*
X16658Y59758D01*
X16656Y59742D01*
X16693Y59611D01*
X16694Y59605D01*
X16695Y59605D01*
X16695Y59604D01*
X16795Y59404D01*
X16818Y59376D01*
X16866Y59306D01*
X16922Y59249D01*
X16955Y59184D01*
X16955Y59174D01*
X16958Y59158D01*
X16956Y59142D01*
X16993Y59011D01*
X16994Y59005D01*
X16995Y59005D01*
X16995Y59004D01*
X17095Y58804D01*
X17118Y58776D01*
X17166Y58706D01*
X17176Y58695D01*
X15231Y56101D01*
X15221Y56079D01*
X15204Y56060D01*
X15186Y56000D01*
X15161Y55943D01*
X15162Y55918D01*
X15155Y55894D01*
X15166Y55833D01*
X15169Y55770D01*
X15181Y55748D01*
X15186Y55724D01*
X15237Y55649D01*
X15253Y55619D01*
X15260Y55614D01*
X15266Y55606D01*
X17566Y53306D01*
X17580Y53297D01*
X17591Y53283D01*
X17653Y53251D01*
X17713Y53214D01*
X17730Y53213D01*
X17745Y53205D01*
X17816Y53205D01*
X17885Y53198D01*
X17901Y53204D01*
X17918Y53204D01*
X18036Y53256D01*
X18047Y53260D01*
X18048Y53261D01*
X18049Y53261D01*
X20748Y55123D01*
X20766Y55106D01*
X20831Y55065D01*
X20893Y55021D01*
X20905Y55019D01*
X20913Y55014D01*
X20948Y55011D01*
X20963Y55008D01*
X20966Y55006D01*
X21031Y54965D01*
X21093Y54921D01*
X21105Y54919D01*
X21113Y54914D01*
X21148Y54911D01*
X21234Y54894D01*
X21284Y54894D01*
X21331Y54865D01*
X21393Y54821D01*
X21405Y54819D01*
X21413Y54814D01*
X21448Y54811D01*
X21463Y54808D01*
X21466Y54806D01*
X21531Y54765D01*
X21593Y54721D01*
X21605Y54719D01*
X21613Y54714D01*
X21648Y54711D01*
X21663Y54708D01*
X21666Y54706D01*
X21731Y54665D01*
X21793Y54621D01*
X21805Y54619D01*
X21813Y54614D01*
X21848Y54611D01*
X21877Y54605D01*
X21904Y54572D01*
X21923Y54564D01*
X21938Y54549D01*
X22001Y54529D01*
X22062Y54501D01*
X22083Y54502D01*
X22102Y54496D01*
X22168Y54506D01*
X22235Y54508D01*
X22253Y54518D01*
X22273Y54521D01*
X22328Y54559D01*
X22387Y54591D01*
X22399Y54608D01*
X22415Y54620D01*
X22472Y54712D01*
X22486Y54733D01*
X22487Y54738D01*
X22490Y54742D01*
X24490Y60142D01*
X24494Y60173D01*
X24506Y60201D01*
X24504Y60257D01*
X24511Y60314D01*
X24501Y60343D01*
X24500Y60374D01*
X24473Y60424D01*
X24454Y60477D01*
X24432Y60499D01*
X24417Y60526D01*
X24357Y60572D01*
X24330Y60598D01*
X24317Y60602D01*
X24304Y60613D01*
X23759Y60885D01*
X23602Y61042D01*
X23572Y61061D01*
X23504Y61113D01*
X23359Y61185D01*
X23046Y61498D01*
X22973Y61643D01*
X22950Y61671D01*
X22902Y61742D01*
X22746Y61898D01*
X22685Y62019D01*
X22594Y62294D01*
X22582Y62313D01*
X22573Y62343D01*
X22513Y62463D01*
X22513Y62574D01*
X22505Y62609D01*
X22494Y62694D01*
X22413Y62935D01*
X22413Y63712D01*
X22494Y63954D01*
X22497Y63990D01*
X22513Y64074D01*
X22513Y64259D01*
X22650Y64463D01*
X22663Y64498D01*
X22694Y64554D01*
X22778Y64806D01*
X23129Y65332D01*
X23476Y65679D01*
X24002Y66030D01*
X24254Y66114D01*
X24272Y66125D01*
X24286Y66128D01*
X24299Y66139D01*
X24344Y66158D01*
X24549Y66294D01*
X24734Y66294D01*
X24769Y66303D01*
X24854Y66314D01*
X25096Y66394D01*
X25687Y66394D01*
X26042Y66306D01*
X26078Y66305D01*
X26134Y66294D01*
X26319Y66294D01*
X26524Y66158D01*
X26559Y66145D01*
X26608Y66117D01*
X26610Y66116D01*
X26611Y66116D01*
X26614Y66114D01*
X26866Y66030D01*
X27093Y65879D01*
X27266Y65706D01*
X27292Y65689D01*
X27324Y65658D01*
X27593Y65479D01*
X27739Y65332D01*
X28090Y64806D01*
X28455Y63712D01*
X28455Y63235D01*
X28374Y62994D01*
X28371Y62958D01*
X28355Y62874D01*
X28355Y62663D01*
X28195Y62343D01*
X28189Y62321D01*
X28174Y62294D01*
X28083Y62019D01*
X27922Y61698D01*
X27766Y61542D01*
X27747Y61511D01*
X27695Y61443D01*
X27622Y61298D01*
X27509Y61185D01*
X27364Y61113D01*
X27337Y61090D01*
X27266Y61042D01*
X27109Y60885D01*
X26788Y60725D01*
X26514Y60633D01*
X26465Y60603D01*
X26412Y60581D01*
X26392Y60559D01*
X26367Y60543D01*
X26336Y60494D01*
X26299Y60451D01*
X26291Y60422D01*
X26275Y60396D01*
X26269Y60339D01*
X26255Y60283D01*
X26261Y60249D01*
X26258Y60224D01*
X26270Y60192D01*
X26278Y60142D01*
X28278Y54742D01*
X28304Y54704D01*
X28320Y54661D01*
X28351Y54633D01*
X28374Y54598D01*
X28414Y54575D01*
X28447Y54544D01*
X28487Y54532D01*
X28524Y54511D01*
X28569Y54508D01*
X28613Y54495D01*
X28654Y54502D01*
X28696Y54500D01*
X28739Y54517D01*
X28784Y54525D01*
X28825Y54553D01*
X28856Y54566D01*
X28873Y54586D01*
X28886Y54594D01*
X28934Y54594D01*
X29008Y54612D01*
X29084Y54625D01*
X29093Y54632D01*
X29102Y54634D01*
X29130Y54657D01*
X29202Y54706D01*
X29209Y54712D01*
X29284Y54725D01*
X29293Y54732D01*
X29302Y54734D01*
X29330Y54757D01*
X29402Y54806D01*
X29409Y54812D01*
X29484Y54825D01*
X29493Y54832D01*
X29502Y54834D01*
X29530Y54857D01*
X29602Y54906D01*
X29609Y54912D01*
X29684Y54925D01*
X29693Y54932D01*
X29702Y54934D01*
X29730Y54957D01*
X29802Y55006D01*
X29809Y55012D01*
X29884Y55025D01*
X29893Y55032D01*
X29902Y55034D01*
X29930Y55057D01*
X30002Y55106D01*
X30009Y55112D01*
X30084Y55125D01*
X30093Y55132D01*
X30102Y55134D01*
X30103Y55134D01*
X32819Y53261D01*
X32839Y53254D01*
X32855Y53240D01*
X32918Y53222D01*
X32980Y53198D01*
X33001Y53200D01*
X33022Y53195D01*
X33086Y53208D01*
G37*
%LPC*%
G36*
X164308Y77359D02*
X164308Y77359D01*
X163116Y77757D01*
X163059Y77738D01*
X163060Y77734D01*
X163057Y77733D01*
X163041Y77704D01*
X163033Y77746D01*
X163026Y77745D01*
X163025Y77752D01*
X162526Y78052D01*
X161931Y78448D01*
X161438Y78941D01*
X161043Y79535D01*
X160746Y80129D01*
X160547Y80725D01*
X160349Y81417D01*
X160349Y84507D01*
X160445Y85180D01*
X160914Y85461D01*
X168297Y85561D01*
X169088Y85462D01*
X169562Y85272D01*
X169751Y84801D01*
X169751Y81317D01*
X169728Y81237D01*
X169714Y81187D01*
X169672Y81040D01*
X169629Y80892D01*
X169615Y80843D01*
X169573Y80695D01*
X169553Y80625D01*
X169354Y80029D01*
X169059Y79439D01*
X168067Y78447D01*
X167573Y78052D01*
X166981Y77756D01*
X166385Y77557D01*
X165693Y77359D01*
X164308Y77359D01*
G37*
%LPD*%
%LPC*%
G36*
X62407Y25419D02*
X62407Y25419D01*
X61718Y25616D01*
X61127Y25912D01*
X60631Y26308D01*
X60135Y26705D01*
X59640Y27299D01*
X59343Y27793D01*
X59046Y28388D01*
X58848Y29081D01*
X58749Y29674D01*
X58749Y32956D01*
X59031Y33425D01*
X59604Y33521D01*
X67097Y33521D01*
X67773Y33424D01*
X68053Y33051D01*
X68151Y32367D01*
X68151Y29673D01*
X68052Y28981D01*
X67854Y28389D01*
X67557Y27795D01*
X67160Y27199D01*
X66765Y26705D01*
X66171Y26210D01*
X65677Y25913D01*
X65082Y25616D01*
X64393Y25419D01*
X62407Y25419D01*
G37*
%LPD*%
%LPC*%
G36*
X113503Y37119D02*
X113503Y37119D01*
X112815Y37218D01*
X112222Y37514D01*
X111627Y37812D01*
X111133Y38207D01*
X110638Y38701D01*
X110243Y39295D01*
X109946Y39889D01*
X109549Y41078D01*
X109549Y44263D01*
X109572Y44344D01*
X109573Y44344D01*
X109572Y44344D01*
X109615Y44492D01*
X109629Y44541D01*
X109671Y44689D01*
X109713Y44837D01*
X109727Y44886D01*
X109743Y44941D01*
X110116Y45221D01*
X118291Y45221D01*
X118761Y45033D01*
X118951Y44462D01*
X118951Y40978D01*
X118753Y40386D01*
X118555Y39792D01*
X118159Y39197D01*
X117763Y38604D01*
X117269Y38208D01*
X116773Y37812D01*
X116179Y37515D01*
X115486Y37218D01*
X114896Y37119D01*
X113503Y37119D01*
G37*
%LPD*%
%LPC*%
G36*
X166703Y42959D02*
X166703Y42959D01*
X166011Y43058D01*
X165422Y43255D01*
X164827Y43651D01*
X164789Y43649D01*
X164778Y43654D01*
X164382Y43456D01*
X163693Y43259D01*
X162412Y43259D01*
X161825Y43553D01*
X161234Y43947D01*
X160842Y44437D01*
X160546Y45029D01*
X160349Y45618D01*
X160349Y49796D01*
X160631Y50265D01*
X161204Y50361D01*
X168697Y50361D01*
X169373Y50264D01*
X169653Y49891D01*
X169751Y49107D01*
X169751Y45714D01*
X169652Y45122D01*
X169455Y44532D01*
X169062Y43941D01*
X168571Y43451D01*
X167981Y43156D01*
X167392Y42959D01*
X166703Y42959D01*
G37*
%LPD*%
G36*
X216469Y109558D02*
X216469Y109558D01*
X216476Y109553D01*
X217076Y109753D01*
X217093Y109778D01*
X217106Y109782D01*
X217306Y110282D01*
X217303Y110290D01*
X217309Y110293D01*
X217409Y110993D01*
X217406Y110998D01*
X217409Y111000D01*
X217409Y114943D01*
X218920Y112772D01*
X218921Y112771D01*
X218921Y112770D01*
X219221Y112370D01*
X219232Y112367D01*
X219233Y112359D01*
X219833Y111959D01*
X219858Y111961D01*
X219867Y111951D01*
X220567Y112051D01*
X220580Y112064D01*
X220591Y112062D01*
X221091Y112462D01*
X221093Y112470D01*
X221099Y112470D01*
X222892Y114861D01*
X223011Y114920D01*
X223011Y110200D01*
X223019Y110189D01*
X223014Y110182D01*
X223214Y109682D01*
X223247Y109662D01*
X223253Y109651D01*
X223953Y109551D01*
X223958Y109554D01*
X223960Y109551D01*
X224760Y109551D01*
X224785Y109570D01*
X224798Y109569D01*
X225198Y110069D01*
X225199Y110077D01*
X225201Y110079D01*
X225199Y110083D01*
X225199Y110087D01*
X225209Y110092D01*
X225309Y110692D01*
X225306Y110697D01*
X225309Y110700D01*
X225309Y118200D01*
X225302Y118209D01*
X225307Y118216D01*
X225107Y118816D01*
X225087Y118829D01*
X225085Y118842D01*
X224585Y119142D01*
X224567Y119140D01*
X224560Y119149D01*
X223760Y119149D01*
X223747Y119140D01*
X223738Y119144D01*
X223138Y118844D01*
X223131Y118831D01*
X223122Y118831D01*
X222722Y118331D01*
X222722Y118330D01*
X222721Y118330D01*
X220342Y115158D01*
X219790Y115342D01*
X218299Y117330D01*
X217099Y118930D01*
X217079Y118935D01*
X217076Y118947D01*
X216476Y119147D01*
X216461Y119142D01*
X216455Y119149D01*
X215555Y119049D01*
X215541Y119036D01*
X215530Y119039D01*
X215130Y118739D01*
X215123Y118714D01*
X215111Y118708D01*
X215011Y118108D01*
X215014Y118103D01*
X215011Y118100D01*
X215011Y110600D01*
X215014Y110596D01*
X215011Y110593D01*
X215111Y109893D01*
X215133Y109871D01*
X215135Y109858D01*
X215635Y109558D01*
X215653Y109560D01*
X215660Y109551D01*
X216460Y109551D01*
X216469Y109558D01*
G37*
G36*
X58981Y93222D02*
X58981Y93222D01*
X59009Y93221D01*
X59045Y93244D01*
X59086Y93259D01*
X59104Y93281D01*
X59127Y93295D01*
X59146Y93335D01*
X59173Y93369D01*
X59183Y93412D01*
X59187Y93422D01*
X59186Y93428D01*
X59189Y93441D01*
X59233Y93982D01*
X59232Y93988D01*
X59234Y94002D01*
X59234Y99294D01*
X59232Y99298D01*
X59233Y99308D01*
X59196Y99968D01*
X59194Y99972D01*
X59195Y99975D01*
X59192Y99980D01*
X59185Y100029D01*
X58986Y100657D01*
X58978Y100668D01*
X58977Y100681D01*
X58937Y100744D01*
X58509Y101241D01*
X58496Y101250D01*
X58487Y101263D01*
X58425Y101304D01*
X57829Y101581D01*
X57822Y101582D01*
X57817Y101586D01*
X57745Y101604D01*
X57089Y101659D01*
X57030Y101647D01*
X56971Y101640D01*
X56958Y101632D01*
X56952Y101631D01*
X56944Y101623D01*
X56907Y101601D01*
X56689Y101417D01*
X56671Y101391D01*
X56647Y101372D01*
X56634Y101334D01*
X56611Y101300D01*
X56611Y101269D01*
X56600Y101240D01*
X56609Y101201D01*
X56609Y101161D01*
X56625Y101134D01*
X56632Y101104D01*
X56678Y101045D01*
X57038Y100703D01*
X56939Y100339D01*
X56521Y100111D01*
X56002Y100127D01*
X55589Y100392D01*
X55456Y100831D01*
X55665Y101300D01*
X56099Y101736D01*
X56103Y101743D01*
X56117Y101756D01*
X56530Y102272D01*
X56533Y102281D01*
X56560Y102320D01*
X56802Y102828D01*
X56844Y102915D01*
X56845Y102926D01*
X56852Y102935D01*
X56867Y103008D01*
X56905Y103662D01*
X56900Y103687D01*
X56903Y103712D01*
X56882Y103783D01*
X56602Y104376D01*
X56595Y104385D01*
X56592Y104396D01*
X56545Y104454D01*
X56057Y104897D01*
X56053Y104899D01*
X56000Y104936D01*
X55409Y105228D01*
X55406Y105229D01*
X55403Y105231D01*
X55332Y105252D01*
X54679Y105339D01*
X54677Y105338D01*
X54675Y105339D01*
X54601Y105337D01*
X53953Y105217D01*
X53946Y105214D01*
X53891Y105197D01*
X53295Y104913D01*
X53286Y104905D01*
X53275Y104902D01*
X53234Y104859D01*
X53191Y104820D01*
X53187Y104808D01*
X53179Y104799D01*
X53169Y104742D01*
X53153Y104685D01*
X53156Y104674D01*
X53154Y104662D01*
X53173Y104590D01*
X53238Y104437D01*
X53242Y104432D01*
X53244Y104425D01*
X53286Y104378D01*
X53327Y104329D01*
X53333Y104327D01*
X53338Y104322D01*
X53407Y104293D01*
X53959Y104155D01*
X54238Y103806D01*
X54147Y103364D01*
X53769Y102971D01*
X53302Y102724D01*
X52956Y102798D01*
X52896Y103260D01*
X52874Y103310D01*
X52858Y103363D01*
X52846Y103373D01*
X52840Y103388D01*
X52794Y103418D01*
X52753Y103454D01*
X52737Y103457D01*
X52724Y103466D01*
X52669Y103467D01*
X52614Y103475D01*
X52593Y103468D01*
X52584Y103468D01*
X52575Y103463D01*
X52570Y103462D01*
X52566Y103461D01*
X52561Y103459D01*
X52543Y103454D01*
X52532Y103448D01*
X52524Y103442D01*
X52499Y103430D01*
X51954Y103066D01*
X51951Y103062D01*
X51946Y103060D01*
X51893Y103008D01*
X51498Y102479D01*
X51495Y102469D01*
X51471Y102433D01*
X51198Y101831D01*
X51197Y101821D01*
X51183Y101789D01*
X51022Y101149D01*
X51023Y101138D01*
X51015Y101105D01*
X50970Y100445D01*
X50973Y100435D01*
X50971Y100405D01*
X51033Y99747D01*
X51037Y99737D01*
X51041Y99705D01*
X51215Y99068D01*
X51220Y99059D01*
X51229Y99029D01*
X51505Y98429D01*
X51511Y98421D01*
X51523Y98395D01*
X51888Y97844D01*
X51895Y97838D01*
X51909Y97817D01*
X52347Y97321D01*
X52355Y97316D01*
X52375Y97295D01*
X52884Y96873D01*
X52893Y96869D01*
X52919Y96849D01*
X53494Y96522D01*
X53504Y96520D01*
X53535Y96504D01*
X54159Y96287D01*
X54170Y96286D01*
X54202Y96276D01*
X54854Y96172D01*
X54864Y96174D01*
X54893Y96169D01*
X55533Y96167D01*
X56101Y96072D01*
X56568Y95736D01*
X57894Y94300D01*
X58752Y93299D01*
X58788Y93275D01*
X58819Y93244D01*
X58846Y93238D01*
X58869Y93223D01*
X58912Y93222D01*
X58955Y93212D01*
X58981Y93222D01*
G37*
G36*
X113981Y109567D02*
X113981Y109567D01*
X113995Y109565D01*
X114395Y109965D01*
X114396Y109977D01*
X114401Y109981D01*
X114398Y109986D01*
X114409Y109992D01*
X114509Y110592D01*
X114506Y110597D01*
X114509Y110600D01*
X114509Y118100D01*
X114503Y118108D01*
X114507Y118114D01*
X114307Y118814D01*
X114287Y118829D01*
X114285Y118842D01*
X113785Y119142D01*
X113767Y119140D01*
X113760Y119149D01*
X107660Y119149D01*
X107645Y119138D01*
X107635Y119142D01*
X107135Y118842D01*
X107125Y118818D01*
X107113Y118814D01*
X107101Y118774D01*
X107087Y118725D01*
X107045Y118577D01*
X107003Y118429D01*
X106989Y118380D01*
X106947Y118232D01*
X106913Y118114D01*
X106918Y118101D01*
X106911Y118095D01*
X107011Y117195D01*
X107030Y117174D01*
X107030Y117161D01*
X107430Y116861D01*
X107448Y116861D01*
X107453Y116851D01*
X108153Y116751D01*
X108158Y116754D01*
X108160Y116751D01*
X111556Y116751D01*
X112111Y116658D01*
X112111Y116005D01*
X112020Y115549D01*
X109260Y115549D01*
X109249Y115541D01*
X109242Y115546D01*
X108742Y115346D01*
X108730Y115327D01*
X108718Y115325D01*
X108418Y114825D01*
X108420Y114807D01*
X108411Y114800D01*
X108411Y113900D01*
X108422Y113885D01*
X108418Y113875D01*
X108718Y113375D01*
X108738Y113366D01*
X108742Y113354D01*
X109242Y113154D01*
X109251Y113157D01*
X109254Y113151D01*
X110054Y113051D01*
X110058Y113053D01*
X110060Y113051D01*
X112018Y113051D01*
X112111Y112496D01*
X112111Y111949D01*
X108060Y111949D01*
X108056Y111946D01*
X108053Y111949D01*
X107353Y111849D01*
X107331Y111827D01*
X107318Y111825D01*
X107018Y111325D01*
X107019Y111311D01*
X107011Y111306D01*
X106911Y110506D01*
X106918Y110494D01*
X106913Y110486D01*
X107113Y109786D01*
X107138Y109767D01*
X107142Y109754D01*
X107642Y109554D01*
X107655Y109558D01*
X107660Y109551D01*
X113960Y109551D01*
X113981Y109567D01*
G37*
G36*
X197769Y109558D02*
X197769Y109558D01*
X197776Y109553D01*
X198376Y109753D01*
X198379Y109758D01*
X198382Y109756D01*
X198982Y110056D01*
X198984Y110060D01*
X198987Y110059D01*
X199587Y110459D01*
X199588Y110462D01*
X199591Y110462D01*
X200091Y110862D01*
X200092Y110866D01*
X200095Y110865D01*
X200595Y111365D01*
X200596Y111372D01*
X200601Y111373D01*
X201001Y111973D01*
X201001Y111977D01*
X201004Y111978D01*
X201304Y112578D01*
X201303Y112583D01*
X201307Y112584D01*
X201507Y113184D01*
X201505Y113191D01*
X201509Y113193D01*
X201609Y113893D01*
X201606Y113898D01*
X201609Y113900D01*
X201609Y115300D01*
X201606Y115305D01*
X201609Y115308D01*
X201509Y115908D01*
X201502Y115914D01*
X201505Y115919D01*
X201205Y116619D01*
X201201Y116622D01*
X201202Y116625D01*
X200902Y117125D01*
X200901Y117126D01*
X200901Y117127D01*
X200501Y117727D01*
X200494Y117730D01*
X200495Y117735D01*
X199995Y118235D01*
X199991Y118235D01*
X199991Y118238D01*
X199491Y118638D01*
X199483Y118639D01*
X199482Y118644D01*
X198282Y119244D01*
X198271Y119242D01*
X198267Y119249D01*
X196867Y119449D01*
X196862Y119446D01*
X196860Y119449D01*
X196260Y119449D01*
X196252Y119443D01*
X196246Y119447D01*
X195546Y119247D01*
X195545Y119246D01*
X195544Y119247D01*
X194944Y119047D01*
X194941Y119042D01*
X194938Y119044D01*
X194338Y118744D01*
X194336Y118740D01*
X194333Y118741D01*
X193733Y118341D01*
X193727Y118324D01*
X193716Y118322D01*
X193416Y117722D01*
X193422Y117690D01*
X193416Y117678D01*
X193716Y117078D01*
X193726Y117073D01*
X193725Y117065D01*
X194325Y116465D01*
X194344Y116463D01*
X194348Y116452D01*
X194748Y116352D01*
X194769Y116361D01*
X194781Y116355D01*
X196074Y116952D01*
X196760Y117050D01*
X197449Y116952D01*
X198036Y116756D01*
X198525Y116365D01*
X198917Y115874D01*
X199211Y115190D01*
X199211Y113812D01*
X198918Y113227D01*
X198523Y112733D01*
X198031Y112241D01*
X197448Y111949D01*
X196074Y111949D01*
X195609Y112228D01*
X195609Y113454D01*
X196864Y113551D01*
X196879Y113565D01*
X196891Y113562D01*
X197391Y113962D01*
X197398Y113992D01*
X197409Y114000D01*
X197409Y114700D01*
X197400Y114713D01*
X197404Y114722D01*
X197104Y115322D01*
X197080Y115334D01*
X197076Y115347D01*
X196476Y115547D01*
X196465Y115543D01*
X196460Y115549D01*
X194460Y115549D01*
X194453Y115544D01*
X194448Y115548D01*
X193648Y115348D01*
X193639Y115337D01*
X193630Y115339D01*
X193230Y115039D01*
X193223Y115014D01*
X193211Y115007D01*
X193111Y114307D01*
X193114Y114302D01*
X193111Y114300D01*
X193111Y111500D01*
X193118Y111491D01*
X193113Y111484D01*
X193313Y110884D01*
X193327Y110875D01*
X193325Y110865D01*
X193825Y110365D01*
X193834Y110364D01*
X193835Y110358D01*
X194335Y110058D01*
X194338Y110058D01*
X194338Y110056D01*
X194938Y109756D01*
X194949Y109758D01*
X194952Y109751D01*
X195552Y109651D01*
X195553Y109652D01*
X195554Y109651D01*
X196354Y109551D01*
X196358Y109553D01*
X196360Y109551D01*
X197760Y109551D01*
X197769Y109558D01*
G37*
%LPC*%
G36*
X188303Y36579D02*
X188303Y36579D01*
X187620Y36677D01*
X187146Y37056D01*
X187050Y37725D01*
X187244Y38307D01*
X187528Y38685D01*
X188104Y38781D01*
X192200Y38781D01*
X192209Y38788D01*
X192216Y38783D01*
X192516Y38883D01*
X192521Y38891D01*
X192531Y38892D01*
X192531Y38905D01*
X192549Y38932D01*
X192529Y38946D01*
X192528Y38970D01*
X190828Y40170D01*
X188230Y42069D01*
X187437Y42664D01*
X187147Y43147D01*
X187050Y43827D01*
X187074Y43910D01*
X187088Y43960D01*
X187130Y44107D01*
X187131Y44107D01*
X187130Y44107D01*
X187173Y44255D01*
X187187Y44304D01*
X187229Y44452D01*
X187242Y44498D01*
X187714Y44781D01*
X195891Y44781D01*
X196359Y44593D01*
X196550Y43926D01*
X196453Y43153D01*
X196076Y42776D01*
X195496Y42679D01*
X191400Y42679D01*
X191379Y42663D01*
X191365Y42665D01*
X191265Y42565D01*
X191257Y42506D01*
X191270Y42504D01*
X191271Y42491D01*
X196358Y38700D01*
X196551Y38122D01*
X196551Y37244D01*
X196266Y36770D01*
X195791Y36579D01*
X188303Y36579D01*
G37*
%LPD*%
%LPC*%
G36*
X67049Y35572D02*
X67049Y35572D01*
X67011Y35618D01*
X67005Y35613D01*
X67000Y35619D01*
X60303Y35619D01*
X59512Y35718D01*
X59034Y35910D01*
X58749Y36384D01*
X58749Y37150D01*
X59420Y37821D01*
X64200Y37821D01*
X64211Y37829D01*
X64224Y37827D01*
X64226Y37840D01*
X64247Y37857D01*
X64231Y37878D01*
X64235Y37905D01*
X64035Y38105D01*
X64030Y38106D01*
X64030Y38109D01*
X63230Y38709D01*
X59531Y41509D01*
X58942Y41999D01*
X58749Y42578D01*
X58749Y43255D01*
X59129Y43825D01*
X59704Y43921D01*
X67196Y43921D01*
X67776Y43824D01*
X68151Y43450D01*
X68151Y42578D01*
X67959Y42003D01*
X67486Y41719D01*
X62800Y41719D01*
X62787Y41709D01*
X62770Y41709D01*
X62770Y41697D01*
X62753Y41683D01*
X62770Y41660D01*
X62770Y41631D01*
X67568Y38033D01*
X68151Y37450D01*
X68151Y36873D01*
X68053Y36093D01*
X67676Y35716D01*
X67092Y35619D01*
X67051Y35575D01*
X67054Y35573D01*
X67051Y35570D01*
X67051Y35541D01*
X67049Y35572D01*
G37*
%LPD*%
%LPC*%
G36*
X227214Y70043D02*
X227214Y70043D01*
X226885Y70050D01*
X224326Y77125D01*
X224235Y77387D01*
X224419Y77393D01*
X226493Y77393D01*
X226595Y77054D01*
X227995Y72431D01*
X228009Y72418D01*
X228015Y72401D01*
X228033Y72398D01*
X228047Y72387D01*
X228064Y72395D01*
X228082Y72392D01*
X228098Y72410D01*
X228108Y72416D01*
X228110Y72425D01*
X228116Y72432D01*
X228214Y72788D01*
X229563Y77395D01*
X229965Y77393D01*
X231553Y77393D01*
X231850Y77384D01*
X233190Y72646D01*
X233197Y72639D01*
X233197Y72629D01*
X233240Y72602D01*
X233241Y72601D01*
X233390Y72580D01*
X233406Y72587D01*
X233425Y72585D01*
X233440Y72603D01*
X233451Y72608D01*
X233451Y72616D01*
X233459Y72624D01*
X234808Y77197D01*
X234865Y77393D01*
X237201Y77393D01*
X237129Y77202D01*
X237134Y77176D01*
X234542Y70048D01*
X234181Y70043D01*
X232594Y70043D01*
X232208Y70062D01*
X230935Y74143D01*
X230934Y74144D01*
X230935Y74145D01*
X230777Y74582D01*
X230764Y74592D01*
X230760Y74608D01*
X230739Y74611D01*
X230723Y74623D01*
X230709Y74616D01*
X230693Y74618D01*
X230674Y74597D01*
X230663Y74591D01*
X230663Y74584D01*
X230658Y74579D01*
X229266Y70066D01*
X228800Y70043D01*
X227214Y70043D01*
G37*
%LPD*%
G36*
X80050Y81550D02*
X80050Y81550D01*
X80077Y81552D01*
X80142Y81587D01*
X80591Y81925D01*
X80594Y81930D01*
X80606Y81938D01*
X81595Y82817D01*
X81600Y82825D01*
X81635Y82863D01*
X81981Y83369D01*
X81992Y83405D01*
X82013Y83436D01*
X82022Y83497D01*
X82024Y83502D01*
X82023Y83505D01*
X82024Y83510D01*
X82024Y88803D01*
X82023Y91437D01*
X82010Y91479D01*
X82007Y91523D01*
X81986Y91561D01*
X81984Y91571D01*
X81979Y91576D01*
X81972Y91589D01*
X81665Y91990D01*
X81621Y92022D01*
X81581Y92060D01*
X81559Y92068D01*
X81552Y92073D01*
X81542Y92074D01*
X81510Y92084D01*
X80213Y92315D01*
X80195Y92313D01*
X80177Y92319D01*
X80127Y92305D01*
X80074Y92300D01*
X80060Y92288D01*
X80042Y92284D01*
X80006Y92245D01*
X79965Y92212D01*
X79960Y92195D01*
X79947Y92181D01*
X79924Y92110D01*
X79879Y91840D01*
X79482Y92163D01*
X79479Y92164D01*
X79477Y92167D01*
X79412Y92203D01*
X78799Y92434D01*
X78793Y92435D01*
X78733Y92449D01*
X78079Y92509D01*
X78069Y92507D01*
X78028Y92509D01*
X77375Y92434D01*
X77365Y92430D01*
X77320Y92421D01*
X76701Y92202D01*
X76695Y92197D01*
X76644Y92173D01*
X76101Y91804D01*
X76096Y91798D01*
X76054Y91762D01*
X75621Y91268D01*
X75616Y91259D01*
X75589Y91222D01*
X75277Y90643D01*
X75274Y90633D01*
X75259Y90601D01*
X75058Y89975D01*
X75057Y89965D01*
X75049Y89937D01*
X74946Y89287D01*
X74950Y89254D01*
X74944Y89222D01*
X74963Y89150D01*
X75036Y88982D01*
X75013Y88947D01*
X74978Y88907D01*
X74976Y88890D01*
X74966Y88875D01*
X74955Y88801D01*
X74959Y88174D01*
X74962Y88164D01*
X74964Y88125D01*
X75100Y87478D01*
X75105Y87469D01*
X75112Y87438D01*
X75355Y86823D01*
X75362Y86815D01*
X75378Y86779D01*
X75739Y86225D01*
X75746Y86219D01*
X75776Y86180D01*
X76256Y85728D01*
X76262Y85724D01*
X76309Y85689D01*
X76890Y85377D01*
X76898Y85375D01*
X76949Y85354D01*
X77591Y85199D01*
X77601Y85199D01*
X77647Y85192D01*
X78307Y85186D01*
X78316Y85189D01*
X78369Y85194D01*
X79009Y85350D01*
X79013Y85352D01*
X79075Y85376D01*
X79646Y85705D01*
X79648Y85707D01*
X79703Y85750D01*
X79742Y85791D01*
X79743Y85752D01*
X79743Y81786D01*
X79750Y81760D01*
X79748Y81734D01*
X79769Y81695D01*
X79782Y81652D01*
X79802Y81634D01*
X79815Y81611D01*
X79854Y81589D01*
X79887Y81560D01*
X79914Y81556D01*
X79937Y81543D01*
X79981Y81546D01*
X80025Y81539D01*
X80050Y81550D01*
G37*
G36*
X144868Y109557D02*
X144868Y109557D01*
X144874Y109553D01*
X145574Y109753D01*
X145593Y109778D01*
X145606Y109782D01*
X145806Y110282D01*
X145802Y110295D01*
X145809Y110300D01*
X145809Y112980D01*
X146180Y113351D01*
X148840Y113351D01*
X149211Y112980D01*
X149211Y110300D01*
X149219Y110289D01*
X149214Y110282D01*
X149414Y109782D01*
X149442Y109765D01*
X149446Y109753D01*
X150146Y109553D01*
X150156Y109556D01*
X150160Y109551D01*
X151060Y109551D01*
X151081Y109567D01*
X151095Y109565D01*
X151495Y109965D01*
X151496Y109977D01*
X151501Y109981D01*
X151498Y109986D01*
X151509Y109992D01*
X151609Y110592D01*
X151606Y110597D01*
X151609Y110600D01*
X151609Y118100D01*
X151606Y118104D01*
X151609Y118107D01*
X151509Y118807D01*
X151487Y118829D01*
X151485Y118842D01*
X150985Y119142D01*
X150967Y119140D01*
X150960Y119149D01*
X150060Y119149D01*
X150051Y119142D01*
X150044Y119147D01*
X149444Y118947D01*
X149426Y118920D01*
X149413Y118916D01*
X149213Y118316D01*
X149217Y118305D01*
X149211Y118300D01*
X149211Y115620D01*
X148840Y115249D01*
X146176Y115249D01*
X145809Y115525D01*
X145809Y118300D01*
X145802Y118309D01*
X145807Y118316D01*
X145607Y118916D01*
X145580Y118934D01*
X145576Y118947D01*
X144976Y119147D01*
X144965Y119143D01*
X144960Y119149D01*
X144260Y119149D01*
X144247Y119140D01*
X144238Y119144D01*
X143638Y118844D01*
X143626Y118820D01*
X143613Y118816D01*
X143413Y118216D01*
X143417Y118205D01*
X143411Y118200D01*
X143411Y110600D01*
X143418Y110591D01*
X143413Y110584D01*
X143613Y109984D01*
X143627Y109975D01*
X143625Y109965D01*
X144025Y109565D01*
X144052Y109562D01*
X144060Y109551D01*
X144860Y109551D01*
X144868Y109557D01*
G37*
%LPC*%
G36*
X168116Y24758D02*
X168116Y24758D01*
X167645Y25040D01*
X167549Y25713D01*
X167549Y29710D01*
X167513Y29757D01*
X167506Y29752D01*
X167500Y29759D01*
X166800Y29759D01*
X166797Y29757D01*
X166792Y29757D01*
X166790Y29758D01*
X166290Y29658D01*
X166271Y29637D01*
X166253Y29623D01*
X166255Y29619D01*
X166251Y29614D01*
X166253Y29612D01*
X166251Y29610D01*
X166251Y27613D01*
X166152Y26822D01*
X165961Y26346D01*
X165391Y26061D01*
X164616Y26158D01*
X164141Y26443D01*
X163949Y27018D01*
X163949Y29710D01*
X163913Y29757D01*
X163906Y29752D01*
X163900Y29759D01*
X162600Y29759D01*
X162553Y29723D01*
X162554Y29722D01*
X162553Y29721D01*
X162557Y29715D01*
X162551Y29710D01*
X162551Y25714D01*
X162454Y25134D01*
X162077Y24757D01*
X161304Y24660D01*
X160632Y24852D01*
X160349Y25324D01*
X160349Y31396D01*
X160630Y31865D01*
X161303Y31961D01*
X169376Y31961D01*
X169751Y31493D01*
X169751Y25319D01*
X169563Y24851D01*
X168896Y24660D01*
X168116Y24758D01*
G37*
%LPD*%
G36*
X182081Y109567D02*
X182081Y109567D01*
X182095Y109565D01*
X182595Y110065D01*
X182596Y110077D01*
X182600Y110079D01*
X182598Y110082D01*
X182607Y110084D01*
X182807Y110684D01*
X182801Y110700D01*
X182809Y110708D01*
X182709Y111308D01*
X182701Y111315D01*
X182704Y111322D01*
X182404Y111922D01*
X182397Y111925D01*
X182398Y111931D01*
X181998Y112431D01*
X181988Y112433D01*
X181987Y112441D01*
X181387Y112841D01*
X179687Y113941D01*
X179091Y114338D01*
X178698Y114731D01*
X178305Y115322D01*
X178113Y115896D01*
X178398Y116466D01*
X178975Y116851D01*
X179643Y116851D01*
X180121Y116468D01*
X180411Y115888D01*
X180411Y115300D01*
X180422Y115285D01*
X180418Y115275D01*
X180718Y114775D01*
X180740Y114766D01*
X180744Y114753D01*
X181344Y114553D01*
X181355Y114557D01*
X181360Y114551D01*
X182260Y114551D01*
X182281Y114567D01*
X182295Y114565D01*
X182695Y114965D01*
X182698Y114986D01*
X182709Y114992D01*
X182809Y115592D01*
X182807Y115595D01*
X182806Y115597D01*
X182809Y115600D01*
X182809Y116300D01*
X182802Y116309D01*
X182807Y116316D01*
X182607Y116916D01*
X182602Y116919D01*
X182604Y116922D01*
X182304Y117522D01*
X182300Y117524D01*
X182301Y117527D01*
X181901Y118127D01*
X181898Y118128D01*
X181898Y118131D01*
X181498Y118631D01*
X181484Y118634D01*
X181482Y118644D01*
X180882Y118944D01*
X180877Y118943D01*
X180876Y118947D01*
X180276Y119147D01*
X180269Y119145D01*
X180267Y119149D01*
X179567Y119249D01*
X179562Y119246D01*
X179560Y119249D01*
X178860Y119249D01*
X178856Y119246D01*
X178853Y119249D01*
X178153Y119149D01*
X178145Y119141D01*
X178138Y119144D01*
X177538Y118844D01*
X177535Y118837D01*
X177529Y118838D01*
X177029Y118438D01*
X177028Y118434D01*
X177025Y118435D01*
X176525Y117935D01*
X176524Y117926D01*
X176518Y117925D01*
X176218Y117425D01*
X176218Y117422D01*
X176216Y117422D01*
X175916Y116822D01*
X175918Y116811D01*
X175911Y116807D01*
X175711Y115407D01*
X175719Y115393D01*
X175713Y115384D01*
X175913Y114785D01*
X176113Y114086D01*
X176124Y114078D01*
X176122Y114069D01*
X176522Y113569D01*
X176526Y113568D01*
X176525Y113565D01*
X177025Y113065D01*
X177029Y113065D01*
X177028Y113062D01*
X177628Y112562D01*
X177634Y112562D01*
X177635Y112558D01*
X178581Y111990D01*
X178540Y111949D01*
X176560Y111949D01*
X176556Y111946D01*
X176553Y111949D01*
X175853Y111849D01*
X175835Y111830D01*
X175822Y111831D01*
X175422Y111331D01*
X175421Y111312D01*
X175411Y111307D01*
X175311Y110607D01*
X175316Y110599D01*
X175315Y110598D01*
X175316Y110597D01*
X175311Y110592D01*
X175411Y109992D01*
X175430Y109975D01*
X175429Y109962D01*
X175929Y109562D01*
X175952Y109561D01*
X175960Y109551D01*
X182060Y109551D01*
X182081Y109567D01*
G37*
%LPC*%
G36*
X63603Y46219D02*
X63603Y46219D01*
X62920Y46317D01*
X62543Y46600D01*
X62349Y47277D01*
X62349Y49462D01*
X62539Y50031D01*
X63108Y50221D01*
X63780Y50221D01*
X64152Y49848D01*
X64251Y48467D01*
X64290Y48422D01*
X64296Y48427D01*
X64300Y48421D01*
X65600Y48421D01*
X65633Y48446D01*
X65644Y48448D01*
X65944Y49048D01*
X65941Y49064D01*
X65949Y49070D01*
X65949Y49770D01*
X65946Y49775D01*
X65949Y49778D01*
X65849Y50378D01*
X65844Y50382D01*
X65847Y50386D01*
X65647Y50986D01*
X65636Y50993D01*
X65638Y51002D01*
X65138Y51602D01*
X65131Y51603D01*
X65131Y51608D01*
X64631Y52008D01*
X64618Y52009D01*
X64616Y52017D01*
X64016Y52217D01*
X64009Y52215D01*
X64007Y52219D01*
X63307Y52319D01*
X63298Y52314D01*
X63293Y52319D01*
X62593Y52219D01*
X62589Y52215D01*
X62586Y52217D01*
X61886Y52017D01*
X61878Y52006D01*
X61869Y52008D01*
X61369Y51608D01*
X61367Y51601D01*
X61362Y51601D01*
X60962Y51101D01*
X60961Y51087D01*
X60953Y51084D01*
X60934Y51018D01*
X60892Y50871D01*
X60878Y50821D01*
X60836Y50674D01*
X60793Y50526D01*
X60779Y50477D01*
X60753Y50384D01*
X60754Y50380D01*
X60752Y50378D01*
X60751Y50377D01*
X60651Y49677D01*
X60657Y49667D01*
X60651Y49662D01*
X60751Y49062D01*
X60758Y49055D01*
X60755Y49049D01*
X61349Y47764D01*
X61255Y47297D01*
X60673Y46812D01*
X60096Y46523D01*
X59532Y46711D01*
X59143Y47295D01*
X58846Y47889D01*
X58648Y48481D01*
X58549Y49177D01*
X58450Y49869D01*
X58549Y50462D01*
X58548Y50463D01*
X58549Y50463D01*
X58648Y51155D01*
X58944Y51748D01*
X59242Y52343D01*
X59637Y52837D01*
X60133Y53333D01*
X60629Y53730D01*
X61222Y54125D01*
X61811Y54322D01*
X63203Y54521D01*
X63896Y54521D01*
X64489Y54422D01*
X65182Y54224D01*
X65773Y53928D01*
X66267Y53533D01*
X67262Y52539D01*
X67657Y51945D01*
X67953Y51355D01*
X68051Y50762D01*
X68151Y50067D01*
X68151Y49373D01*
X68051Y48577D01*
X67953Y47985D01*
X67657Y47393D01*
X67361Y46901D01*
X66873Y46413D01*
X66292Y46219D01*
X63603Y46219D01*
G37*
%LPD*%
G36*
X205478Y109565D02*
X205478Y109565D01*
X205491Y109562D01*
X205991Y109962D01*
X205995Y109977D01*
X205996Y109977D01*
X206005Y109979D01*
X206603Y111275D01*
X206899Y111670D01*
X206899Y111678D01*
X206905Y111679D01*
X206918Y111707D01*
X206918Y111706D01*
X206929Y111661D01*
X206948Y111666D01*
X206960Y111651D01*
X210330Y111651D01*
X210916Y110478D01*
X211216Y109878D01*
X211233Y109869D01*
X211235Y109858D01*
X211735Y109558D01*
X211758Y109560D01*
X211767Y109551D01*
X212467Y109651D01*
X212479Y109663D01*
X212489Y109660D01*
X213189Y110160D01*
X213194Y110177D01*
X213195Y110178D01*
X213194Y110178D01*
X213194Y110179D01*
X213206Y110182D01*
X213406Y110682D01*
X213399Y110705D01*
X213407Y110716D01*
X213207Y111316D01*
X213203Y111318D01*
X213204Y111322D01*
X209904Y118122D01*
X209604Y118722D01*
X209588Y118730D01*
X209587Y118741D01*
X208987Y119141D01*
X208973Y119140D01*
X208968Y119149D01*
X208368Y119249D01*
X208349Y119239D01*
X208338Y119244D01*
X207738Y118944D01*
X207733Y118934D01*
X207725Y118935D01*
X207425Y118635D01*
X207424Y118623D01*
X207416Y118621D01*
X203816Y111121D01*
X203817Y111112D01*
X203812Y111110D01*
X203712Y110610D01*
X203723Y110587D01*
X203718Y110575D01*
X204018Y110075D01*
X204033Y110069D01*
X204034Y110058D01*
X204834Y109558D01*
X204853Y109560D01*
X204860Y109551D01*
X205460Y109551D01*
X205478Y109565D01*
G37*
G36*
X161464Y109554D02*
X161464Y109554D01*
X161467Y109551D01*
X162167Y109651D01*
X162175Y109659D01*
X162182Y109656D01*
X162782Y109956D01*
X162783Y109959D01*
X162785Y109958D01*
X163285Y110258D01*
X163289Y110266D01*
X163295Y110265D01*
X163795Y110765D01*
X163796Y110772D01*
X163801Y110773D01*
X164201Y111373D01*
X164200Y111382D01*
X164207Y111384D01*
X164407Y111984D01*
X164405Y111991D01*
X164409Y111993D01*
X164509Y112693D01*
X164496Y112717D01*
X164499Y112730D01*
X164199Y113130D01*
X164178Y113136D01*
X164174Y113147D01*
X163474Y113347D01*
X163462Y113343D01*
X163460Y113343D01*
X163454Y113349D01*
X162654Y113249D01*
X162641Y113236D01*
X162630Y113239D01*
X162230Y112939D01*
X162226Y112923D01*
X162224Y112922D01*
X162215Y112919D01*
X161922Y112236D01*
X161345Y111948D01*
X160663Y111850D01*
X159986Y112044D01*
X159609Y112420D01*
X159609Y112980D01*
X160083Y113453D01*
X160866Y113551D01*
X160868Y113553D01*
X160870Y113552D01*
X161370Y113652D01*
X161383Y113667D01*
X161395Y113665D01*
X161795Y114065D01*
X161798Y114088D01*
X161809Y114095D01*
X161909Y114995D01*
X161901Y115008D01*
X161907Y115016D01*
X161707Y115616D01*
X161682Y115633D01*
X161678Y115646D01*
X161178Y115846D01*
X161169Y115843D01*
X161166Y115849D01*
X160371Y115948D01*
X159809Y116136D01*
X159809Y116676D01*
X160277Y117051D01*
X160948Y117051D01*
X161528Y116761D01*
X161922Y116269D01*
X161929Y116267D01*
X161929Y116262D01*
X162429Y115862D01*
X162450Y115861D01*
X162455Y115855D01*
X162465Y115855D01*
X162468Y115851D01*
X163068Y115951D01*
X163077Y115961D01*
X163084Y115957D01*
X163784Y116357D01*
X163791Y116373D01*
X163802Y116375D01*
X164102Y116875D01*
X164100Y116900D01*
X164108Y116910D01*
X164008Y117410D01*
X164000Y117417D01*
X164003Y117424D01*
X163603Y118124D01*
X163594Y118128D01*
X163595Y118135D01*
X163095Y118635D01*
X163091Y118635D01*
X163091Y118638D01*
X162591Y119038D01*
X162577Y119039D01*
X162574Y119047D01*
X161875Y119247D01*
X161276Y119447D01*
X161265Y119443D01*
X161260Y119449D01*
X159160Y119449D01*
X159137Y119432D01*
X159123Y119433D01*
X158224Y118434D01*
X157725Y117935D01*
X157723Y117919D01*
X157713Y117916D01*
X157513Y117316D01*
X157514Y117314D01*
X157513Y117314D01*
X157508Y117296D01*
X157466Y117149D01*
X157423Y117001D01*
X157409Y116952D01*
X157367Y116804D01*
X157325Y116656D01*
X157313Y116614D01*
X157315Y116608D01*
X157314Y116607D01*
X157317Y116602D01*
X157318Y116600D01*
X157311Y116593D01*
X157411Y115893D01*
X157416Y115888D01*
X157413Y115884D01*
X157613Y115284D01*
X157630Y115273D01*
X157629Y115262D01*
X158111Y114876D01*
X158111Y114520D01*
X157625Y114035D01*
X157624Y114028D01*
X157619Y114027D01*
X157219Y113427D01*
X157220Y113413D01*
X157211Y113408D01*
X157111Y112808D01*
X157117Y112798D01*
X157111Y112793D01*
X157211Y112093D01*
X157216Y112088D01*
X157213Y112084D01*
X157413Y111484D01*
X157418Y111481D01*
X157416Y111478D01*
X157716Y110878D01*
X157726Y110873D01*
X157725Y110865D01*
X158225Y110365D01*
X158234Y110364D01*
X158235Y110358D01*
X158735Y110058D01*
X158738Y110058D01*
X158738Y110056D01*
X159338Y109756D01*
X159345Y109757D01*
X159346Y109753D01*
X160046Y109553D01*
X160056Y109556D01*
X160060Y109551D01*
X161460Y109551D01*
X161464Y109554D01*
G37*
%LPC*%
G36*
X117419Y26016D02*
X117419Y26016D01*
X110049Y29501D01*
X110049Y29570D01*
X110030Y29595D01*
X110031Y29608D01*
X109546Y29996D01*
X109450Y30665D01*
X109642Y31241D01*
X110126Y31628D01*
X116820Y34825D01*
X117519Y35125D01*
X117549Y35176D01*
X117538Y35183D01*
X117543Y35194D01*
X117526Y35224D01*
X118086Y35318D01*
X118562Y34937D01*
X118951Y34257D01*
X118951Y33687D01*
X118569Y33210D01*
X117279Y32615D01*
X117273Y32604D01*
X117265Y32605D01*
X116865Y32205D01*
X116862Y32178D01*
X116851Y32170D01*
X116851Y28770D01*
X116876Y28737D01*
X116878Y28726D01*
X118078Y28126D01*
X118665Y27832D01*
X118948Y27360D01*
X118853Y26787D01*
X118464Y26106D01*
X117994Y25824D01*
X117419Y26016D01*
G37*
%LPD*%
%LPC*%
G36*
X167920Y53155D02*
X167920Y53155D01*
X161222Y56354D01*
X160634Y56648D01*
X160249Y57225D01*
X160249Y57795D01*
X160635Y58373D01*
X161124Y58667D01*
X167820Y61965D01*
X168505Y62259D01*
X168976Y62165D01*
X169458Y61682D01*
X169749Y61004D01*
X169655Y60437D01*
X169175Y60053D01*
X167882Y59556D01*
X167866Y59530D01*
X167853Y59526D01*
X167653Y58926D01*
X167657Y58915D01*
X167651Y58910D01*
X167651Y56210D01*
X167659Y56199D01*
X167654Y56192D01*
X167854Y55692D01*
X167876Y55679D01*
X167878Y55666D01*
X169073Y55068D01*
X169558Y54681D01*
X169748Y54109D01*
X169732Y54051D01*
X169718Y54001D01*
X169676Y53854D01*
X169633Y53706D01*
X169619Y53657D01*
X169577Y53509D01*
X169556Y53436D01*
X169076Y52955D01*
X168605Y52861D01*
X167920Y53155D01*
G37*
%LPD*%
G36*
X188564Y109554D02*
X188564Y109554D01*
X188567Y109551D01*
X189267Y109651D01*
X189272Y109656D01*
X189276Y109653D01*
X189876Y109853D01*
X189879Y109858D01*
X189882Y109856D01*
X190482Y110156D01*
X190487Y110166D01*
X190495Y110165D01*
X190995Y110665D01*
X190996Y110674D01*
X191002Y110675D01*
X191302Y111175D01*
X191300Y111199D01*
X191309Y111208D01*
X191209Y111808D01*
X191193Y111823D01*
X191195Y111835D01*
X190595Y112435D01*
X190581Y112437D01*
X190578Y112446D01*
X190078Y112646D01*
X190055Y112639D01*
X190044Y112647D01*
X189444Y112447D01*
X189437Y112436D01*
X189429Y112438D01*
X188940Y112047D01*
X188165Y111950D01*
X187595Y112140D01*
X187311Y112708D01*
X187405Y113367D01*
X187972Y113651D01*
X188643Y113651D01*
X189129Y113262D01*
X189147Y113261D01*
X189152Y113251D01*
X189752Y113151D01*
X189769Y113161D01*
X189779Y113155D01*
X190479Y113455D01*
X190483Y113461D01*
X190487Y113459D01*
X191087Y113859D01*
X191096Y113883D01*
X191108Y113888D01*
X191208Y114288D01*
X191203Y114300D01*
X191209Y114306D01*
X190709Y118206D01*
X190706Y118209D01*
X190708Y118212D01*
X190608Y118612D01*
X190596Y118621D01*
X190598Y118631D01*
X190198Y119131D01*
X190178Y119136D01*
X190174Y119147D01*
X189474Y119347D01*
X189464Y119344D01*
X189460Y119349D01*
X186060Y119349D01*
X186051Y119342D01*
X186044Y119347D01*
X185444Y119147D01*
X185431Y119127D01*
X185418Y119125D01*
X185118Y118625D01*
X185120Y118607D01*
X185111Y118600D01*
X185111Y117700D01*
X185122Y117685D01*
X185118Y117675D01*
X185418Y117175D01*
X185438Y117166D01*
X185442Y117154D01*
X185942Y116954D01*
X185955Y116958D01*
X185960Y116951D01*
X188055Y116951D01*
X188511Y116860D01*
X188511Y116149D01*
X187860Y116149D01*
X187851Y116142D01*
X187844Y116147D01*
X186644Y115747D01*
X186639Y115739D01*
X186633Y115741D01*
X186033Y115341D01*
X186029Y115331D01*
X186022Y115332D01*
X185522Y114732D01*
X185522Y114726D01*
X185518Y114725D01*
X185218Y114225D01*
X185219Y114216D01*
X185213Y114214D01*
X185179Y114095D01*
X185165Y114046D01*
X185123Y113898D01*
X185080Y113750D01*
X185066Y113701D01*
X185024Y113553D01*
X185013Y113514D01*
X185014Y113510D01*
X185011Y113508D01*
X184911Y112908D01*
X184917Y112898D01*
X184911Y112893D01*
X185011Y112193D01*
X185015Y112189D01*
X185013Y112186D01*
X185213Y111486D01*
X185218Y111482D01*
X185216Y111478D01*
X185516Y110878D01*
X185526Y110873D01*
X185525Y110865D01*
X186025Y110365D01*
X186029Y110365D01*
X186029Y110362D01*
X186529Y109962D01*
X186537Y109961D01*
X186538Y109956D01*
X187138Y109656D01*
X187149Y109658D01*
X187153Y109651D01*
X187853Y109551D01*
X187858Y109554D01*
X187860Y109551D01*
X188560Y109551D01*
X188564Y109554D01*
G37*
G36*
X59868Y109557D02*
X59868Y109557D01*
X59874Y109553D01*
X60574Y109753D01*
X60582Y109764D01*
X60591Y109762D01*
X61089Y110160D01*
X61687Y110559D01*
X61690Y110566D01*
X61695Y110565D01*
X62095Y110965D01*
X62097Y110978D01*
X62105Y110981D01*
X62405Y111681D01*
X62400Y111701D01*
X62403Y111704D01*
X62404Y111704D01*
X62404Y111705D01*
X62408Y111710D01*
X62308Y112210D01*
X62295Y112221D01*
X62298Y112232D01*
X61798Y112832D01*
X61774Y112837D01*
X61768Y112849D01*
X61168Y112949D01*
X61164Y112946D01*
X61162Y112949D01*
X61159Y112949D01*
X61149Y112941D01*
X61142Y112946D01*
X60642Y112746D01*
X60636Y112736D01*
X60628Y112738D01*
X60030Y112239D01*
X59442Y111847D01*
X58767Y111751D01*
X58098Y112037D01*
X57911Y112505D01*
X58004Y113067D01*
X58575Y113352D01*
X59267Y113451D01*
X59272Y113456D01*
X59276Y113453D01*
X59876Y113653D01*
X59877Y113656D01*
X59879Y113655D01*
X60579Y113955D01*
X60581Y113957D01*
X60582Y113956D01*
X61182Y114256D01*
X61185Y114263D01*
X61191Y114262D01*
X61691Y114662D01*
X61694Y114674D01*
X61702Y114675D01*
X62002Y115175D01*
X62002Y115180D01*
X62005Y115181D01*
X62305Y115881D01*
X62304Y115888D01*
X62307Y115891D01*
X62304Y115896D01*
X62309Y115900D01*
X62309Y116600D01*
X62306Y116605D01*
X62309Y116608D01*
X62209Y117208D01*
X62204Y117212D01*
X62207Y117216D01*
X62007Y117816D01*
X61999Y117821D01*
X62001Y117827D01*
X61601Y118427D01*
X61591Y118431D01*
X61591Y118438D01*
X61091Y118838D01*
X61086Y118839D01*
X61085Y118842D01*
X60585Y119142D01*
X60576Y119141D01*
X60574Y119147D01*
X59874Y119347D01*
X59869Y119346D01*
X59867Y119349D01*
X59167Y119449D01*
X59158Y119444D01*
X59153Y119449D01*
X57753Y119249D01*
X57749Y119245D01*
X57746Y119247D01*
X57046Y119047D01*
X57038Y119036D01*
X57029Y119038D01*
X56529Y118638D01*
X56528Y118634D01*
X56525Y118635D01*
X56025Y118135D01*
X56020Y118100D01*
X56012Y118090D01*
X56112Y117590D01*
X56120Y117583D01*
X56117Y117576D01*
X56517Y116876D01*
X56533Y116869D01*
X56535Y116858D01*
X57035Y116558D01*
X57053Y116560D01*
X57060Y116551D01*
X57660Y116551D01*
X57679Y116565D01*
X57692Y116562D01*
X58284Y117056D01*
X58865Y117250D01*
X59534Y117154D01*
X59905Y116690D01*
X59718Y116129D01*
X59238Y115745D01*
X57949Y115448D01*
X57948Y115446D01*
X57946Y115447D01*
X57246Y115247D01*
X57242Y115242D01*
X57238Y115244D01*
X56638Y114944D01*
X56635Y114937D01*
X56629Y114938D01*
X56129Y114538D01*
X56127Y114531D01*
X56122Y114531D01*
X55722Y114031D01*
X55721Y114018D01*
X55713Y114016D01*
X55513Y113416D01*
X55516Y113409D01*
X55511Y113406D01*
X55411Y112606D01*
X55416Y112598D01*
X55411Y112593D01*
X55511Y111893D01*
X55516Y111888D01*
X55513Y111884D01*
X55713Y111284D01*
X55721Y111279D01*
X55719Y111273D01*
X56119Y110673D01*
X56129Y110669D01*
X56129Y110662D01*
X56629Y110262D01*
X56637Y110261D01*
X56638Y110256D01*
X57838Y109656D01*
X57849Y109658D01*
X57852Y109651D01*
X58452Y109551D01*
X58457Y109554D01*
X58460Y109551D01*
X59860Y109551D01*
X59868Y109557D01*
G37*
%LPC*%
G36*
X89818Y26017D02*
X89818Y26017D01*
X89231Y26408D01*
X88735Y26905D01*
X88708Y26909D01*
X88700Y26919D01*
X88300Y26919D01*
X88275Y26900D01*
X88262Y26901D01*
X87871Y26412D01*
X87289Y26218D01*
X86603Y26120D01*
X85918Y26316D01*
X85327Y26612D01*
X84833Y27007D01*
X83849Y27990D01*
X83849Y29866D01*
X83948Y30456D01*
X84244Y31148D01*
X84539Y31640D01*
X85031Y32132D01*
X85622Y32525D01*
X86200Y32718D01*
X86767Y32529D01*
X87153Y31853D01*
X87248Y31280D01*
X86962Y30803D01*
X86469Y30408D01*
X86467Y30398D01*
X86459Y30397D01*
X86059Y29797D01*
X86060Y29777D01*
X86051Y29770D01*
X86051Y29070D01*
X86062Y29055D01*
X86058Y29045D01*
X86358Y28545D01*
X86386Y28534D01*
X86392Y28521D01*
X86992Y28421D01*
X87035Y28444D01*
X87042Y28445D01*
X87342Y28945D01*
X87341Y28959D01*
X87349Y28964D01*
X87449Y29762D01*
X87544Y30237D01*
X88109Y30519D01*
X88984Y30422D01*
X89456Y30139D01*
X89551Y29662D01*
X89651Y28864D01*
X89664Y28850D01*
X89662Y28839D01*
X90062Y28339D01*
X90081Y28334D01*
X90084Y28323D01*
X90684Y28123D01*
X90724Y28137D01*
X90735Y28135D01*
X91235Y28635D01*
X91237Y28651D01*
X91247Y28654D01*
X91447Y29254D01*
X91443Y29265D01*
X91449Y29270D01*
X91449Y29970D01*
X91437Y29986D01*
X91441Y29997D01*
X91041Y30597D01*
X91024Y30603D01*
X91022Y30614D01*
X90429Y30911D01*
X90047Y31293D01*
X89950Y32066D01*
X89955Y32084D01*
X89997Y32232D01*
X89998Y32232D01*
X89997Y32232D01*
X90040Y32380D01*
X90054Y32429D01*
X90096Y32577D01*
X90138Y32724D01*
X90144Y32744D01*
X90517Y33117D01*
X91089Y33022D01*
X91779Y32825D01*
X92369Y32432D01*
X92762Y32039D01*
X93155Y31448D01*
X93353Y30854D01*
X93551Y30262D01*
X93551Y28778D01*
X93353Y28186D01*
X93155Y27592D01*
X92762Y27001D01*
X92270Y26509D01*
X91780Y26216D01*
X91090Y26018D01*
X90401Y25920D01*
X89818Y26017D01*
G37*
%LPD*%
%LPC*%
G36*
X90108Y47019D02*
X90108Y47019D01*
X89524Y47214D01*
X89035Y47605D01*
X88538Y48202D01*
X88480Y48215D01*
X88477Y48200D01*
X88462Y48201D01*
X88065Y47705D01*
X87580Y47317D01*
X86897Y47219D01*
X86308Y47219D01*
X85722Y47415D01*
X85131Y47808D01*
X84137Y48802D01*
X83849Y49186D01*
X83849Y50467D01*
X83949Y51163D01*
X84048Y51855D01*
X84342Y52443D01*
X84735Y52935D01*
X85327Y53429D01*
X85912Y53721D01*
X86483Y53721D01*
X86960Y53339D01*
X87251Y52660D01*
X87251Y52096D01*
X86673Y51711D01*
X86670Y51704D01*
X86665Y51705D01*
X86165Y51205D01*
X86162Y51184D01*
X86151Y51178D01*
X86051Y50578D01*
X86057Y50568D01*
X86051Y50563D01*
X86151Y49863D01*
X86170Y49845D01*
X86169Y49832D01*
X86669Y49432D01*
X86708Y49431D01*
X86718Y49424D01*
X87218Y49624D01*
X87239Y49658D01*
X87249Y49664D01*
X87349Y50463D01*
X87446Y51147D01*
X87725Y51425D01*
X88598Y51619D01*
X89268Y51428D01*
X89551Y50956D01*
X89551Y50370D01*
X89557Y50362D01*
X89553Y50356D01*
X89753Y49656D01*
X89772Y49642D01*
X89773Y49629D01*
X90373Y49229D01*
X90404Y49231D01*
X90416Y49223D01*
X91016Y49423D01*
X91029Y49443D01*
X91042Y49445D01*
X91342Y49945D01*
X91341Y49956D01*
X91348Y49962D01*
X91349Y49963D01*
X91449Y50663D01*
X91442Y50676D01*
X91447Y50684D01*
X91247Y51384D01*
X91233Y51394D01*
X91235Y51405D01*
X90835Y51805D01*
X90828Y51806D01*
X90827Y51811D01*
X90237Y52205D01*
X89951Y52681D01*
X90048Y53459D01*
X90237Y54026D01*
X90800Y54120D01*
X91386Y54022D01*
X92074Y53727D01*
X92565Y53335D01*
X92958Y52843D01*
X93254Y52251D01*
X93452Y51659D01*
X93551Y50967D01*
X93551Y50273D01*
X93452Y49580D01*
X93442Y49545D01*
X93400Y49398D01*
X93357Y49250D01*
X93343Y49201D01*
X93301Y49053D01*
X93259Y48905D01*
X93254Y48890D01*
X92960Y48398D01*
X92563Y47903D01*
X92071Y47411D01*
X91485Y47118D01*
X90797Y47019D01*
X90108Y47019D01*
G37*
%LPD*%
G36*
X136169Y109558D02*
X136169Y109558D01*
X136176Y109553D01*
X136776Y109753D01*
X136789Y109773D01*
X136802Y109775D01*
X137066Y110214D01*
X137422Y109769D01*
X137442Y109764D01*
X137446Y109753D01*
X138146Y109553D01*
X138156Y109556D01*
X138160Y109551D01*
X138860Y109551D01*
X138865Y109554D01*
X138868Y109551D01*
X139468Y109651D01*
X139475Y109659D01*
X139482Y109656D01*
X140082Y109956D01*
X140087Y109966D01*
X140095Y109965D01*
X141095Y110965D01*
X141096Y110977D01*
X141104Y110978D01*
X141404Y111578D01*
X141403Y111583D01*
X141407Y111584D01*
X141607Y112184D01*
X141605Y112191D01*
X141609Y112193D01*
X141709Y112893D01*
X141706Y112898D01*
X141709Y112900D01*
X141709Y113600D01*
X141702Y113609D01*
X141707Y113616D01*
X141507Y114216D01*
X141502Y114219D01*
X141504Y114222D01*
X141204Y114822D01*
X141200Y114824D01*
X141201Y114827D01*
X140801Y115427D01*
X140791Y115431D01*
X140792Y115438D01*
X140192Y115938D01*
X140183Y115938D01*
X140182Y115944D01*
X139582Y116244D01*
X139577Y116243D01*
X139576Y116247D01*
X138976Y116447D01*
X138971Y116445D01*
X138971Y116446D01*
X138963Y116446D01*
X138960Y116449D01*
X138260Y116449D01*
X138255Y116446D01*
X138250Y116446D01*
X138248Y116444D01*
X138244Y116447D01*
X137644Y116247D01*
X137637Y116236D01*
X137629Y116238D01*
X137129Y115838D01*
X137128Y115834D01*
X137125Y115835D01*
X137070Y115779D01*
X136802Y116225D01*
X136780Y116234D01*
X136776Y116247D01*
X136176Y116447D01*
X136171Y116445D01*
X136171Y116446D01*
X136163Y116446D01*
X136160Y116449D01*
X135360Y116449D01*
X135342Y116435D01*
X135329Y116438D01*
X134829Y116038D01*
X134825Y116023D01*
X134816Y116016D01*
X134819Y116012D01*
X134811Y116008D01*
X134711Y115408D01*
X134714Y115403D01*
X134711Y115400D01*
X134711Y110600D01*
X134714Y110596D01*
X134711Y110593D01*
X134811Y109893D01*
X134833Y109871D01*
X134835Y109858D01*
X135335Y109558D01*
X135353Y109560D01*
X135360Y109551D01*
X136160Y109551D01*
X136169Y109558D01*
G37*
G36*
X24764Y109554D02*
X24764Y109554D01*
X24767Y109551D01*
X25467Y109651D01*
X25472Y109656D01*
X25476Y109653D01*
X26076Y109853D01*
X26081Y109861D01*
X26087Y109859D01*
X26687Y110259D01*
X26688Y110262D01*
X26691Y110262D01*
X27191Y110662D01*
X27193Y110672D01*
X27201Y110673D01*
X27601Y111273D01*
X27601Y111277D01*
X27604Y111278D01*
X27904Y111878D01*
X27903Y111885D01*
X27907Y111886D01*
X27926Y111951D01*
X27940Y112000D01*
X27982Y112148D01*
X28024Y112295D01*
X28038Y112345D01*
X28080Y112492D01*
X28081Y112492D01*
X28080Y112492D01*
X28107Y112586D01*
X28106Y112590D01*
X28107Y112591D01*
X28104Y112596D01*
X28109Y112600D01*
X28109Y114700D01*
X28092Y114723D01*
X28093Y114737D01*
X27094Y115636D01*
X26595Y116135D01*
X26583Y116136D01*
X26582Y116144D01*
X25982Y116444D01*
X25975Y116443D01*
X25974Y116447D01*
X25274Y116647D01*
X25270Y116646D01*
X25268Y116649D01*
X24668Y116749D01*
X24658Y116743D01*
X24653Y116749D01*
X23253Y116549D01*
X23245Y116541D01*
X23238Y116544D01*
X22638Y116244D01*
X22635Y116237D01*
X22629Y116238D01*
X22129Y115838D01*
X22128Y115834D01*
X22125Y115835D01*
X21625Y115335D01*
X21624Y115328D01*
X21619Y115327D01*
X21219Y114727D01*
X21220Y114718D01*
X21213Y114716D01*
X21013Y114116D01*
X21015Y114109D01*
X21011Y114107D01*
X20911Y113407D01*
X20914Y113402D01*
X20911Y113400D01*
X20911Y112700D01*
X20917Y112692D01*
X20913Y112686D01*
X21113Y111986D01*
X21114Y111985D01*
X21113Y111984D01*
X21313Y111384D01*
X21321Y111379D01*
X21319Y111373D01*
X21719Y110773D01*
X21729Y110769D01*
X21729Y110762D01*
X22729Y109962D01*
X22739Y109961D01*
X22741Y109955D01*
X23441Y109655D01*
X23449Y109657D01*
X23452Y109651D01*
X24052Y109551D01*
X24057Y109554D01*
X24060Y109551D01*
X24760Y109551D01*
X24764Y109554D01*
G37*
%LPC*%
G36*
X140511Y44948D02*
X140511Y44948D01*
X139927Y45143D01*
X139437Y45633D01*
X139044Y46124D01*
X138847Y46714D01*
X138247Y48714D01*
X138236Y48722D01*
X138238Y48731D01*
X137838Y49231D01*
X137808Y49238D01*
X137800Y49249D01*
X137200Y49249D01*
X137179Y49233D01*
X137165Y49235D01*
X136765Y48835D01*
X136762Y48812D01*
X136751Y48806D01*
X136651Y48006D01*
X136663Y47986D01*
X136658Y47974D01*
X137351Y46886D01*
X137351Y46320D01*
X136869Y45838D01*
X136290Y45452D01*
X135827Y45545D01*
X135340Y46129D01*
X135044Y46622D01*
X134748Y47314D01*
X134649Y48003D01*
X134649Y48697D01*
X134748Y49389D01*
X134945Y49978D01*
X135337Y50566D01*
X135831Y50962D01*
X136323Y51355D01*
X137007Y51551D01*
X137696Y51551D01*
X138286Y51452D01*
X138974Y51157D01*
X139465Y50765D01*
X139856Y50276D01*
X140053Y49684D01*
X140056Y49683D01*
X140055Y49681D01*
X140352Y48987D01*
X140451Y48293D01*
X140456Y48288D01*
X140453Y48284D01*
X140653Y47684D01*
X140664Y47677D01*
X140662Y47669D01*
X141062Y47169D01*
X141092Y47162D01*
X141100Y47151D01*
X141700Y47151D01*
X141721Y47167D01*
X141735Y47165D01*
X142135Y47565D01*
X142136Y47576D01*
X142138Y47577D01*
X142137Y47579D01*
X142137Y47584D01*
X142148Y47588D01*
X142348Y48388D01*
X142338Y48410D01*
X142344Y48422D01*
X142044Y49022D01*
X142038Y49025D01*
X142039Y49030D01*
X141149Y50216D01*
X141149Y50685D01*
X141537Y51266D01*
X142017Y51651D01*
X142584Y51651D01*
X142968Y51363D01*
X143363Y50967D01*
X143859Y50373D01*
X144154Y49782D01*
X144351Y49093D01*
X144351Y47704D01*
X144253Y47115D01*
X143659Y45929D01*
X143171Y45441D01*
X142581Y45146D01*
X141989Y44948D01*
X141200Y44850D01*
X140511Y44948D01*
G37*
%LPD*%
%LPC*%
G36*
X115603Y47619D02*
X115603Y47619D01*
X114917Y47717D01*
X114426Y48012D01*
X113838Y48404D01*
X113546Y48989D01*
X113347Y49585D01*
X113148Y50281D01*
X113049Y50878D01*
X113042Y50884D01*
X113045Y50889D01*
X112745Y51589D01*
X112734Y51596D01*
X112735Y51605D01*
X112335Y52005D01*
X112303Y52009D01*
X112293Y52019D01*
X111593Y51919D01*
X111569Y51894D01*
X111556Y51892D01*
X111256Y51292D01*
X111260Y51272D01*
X111251Y51263D01*
X111351Y50563D01*
X111364Y50550D01*
X111362Y50539D01*
X111757Y50044D01*
X112047Y49369D01*
X111859Y48900D01*
X111273Y48412D01*
X110702Y48126D01*
X110233Y48408D01*
X109842Y48897D01*
X109546Y49488D01*
X109348Y50180D01*
X109249Y50873D01*
X109249Y51563D01*
X109255Y51584D01*
X109297Y51732D01*
X109298Y51732D01*
X109297Y51732D01*
X109340Y51880D01*
X109354Y51929D01*
X109396Y52077D01*
X109438Y52224D01*
X109447Y52255D01*
X109644Y52846D01*
X110037Y53337D01*
X110529Y53829D01*
X111115Y54123D01*
X111704Y54221D01*
X112397Y54221D01*
X113085Y54122D01*
X113671Y53829D01*
X114161Y53340D01*
X114456Y52848D01*
X114754Y52153D01*
X114952Y51459D01*
X115051Y50862D01*
X115056Y50858D01*
X115053Y50854D01*
X115253Y50254D01*
X115270Y50243D01*
X115269Y50232D01*
X115769Y49832D01*
X115790Y49831D01*
X115795Y49825D01*
X115804Y49825D01*
X115807Y49821D01*
X116507Y49921D01*
X116529Y49943D01*
X116542Y49945D01*
X116842Y50445D01*
X116842Y50449D01*
X116844Y50451D01*
X116841Y50456D01*
X116841Y50459D01*
X116849Y50463D01*
X116949Y51163D01*
X116938Y51183D01*
X116943Y51194D01*
X116543Y51894D01*
X116537Y51897D01*
X116538Y51901D01*
X116140Y52399D01*
X115749Y52985D01*
X115749Y53552D01*
X116233Y54132D01*
X116706Y54416D01*
X117277Y54226D01*
X117668Y53933D01*
X118162Y53439D01*
X118557Y52845D01*
X118852Y52255D01*
X118951Y51567D01*
X118951Y50277D01*
X118924Y50183D01*
X118910Y50133D01*
X118868Y49986D01*
X118825Y49838D01*
X118811Y49789D01*
X118769Y49641D01*
X118754Y49588D01*
X118458Y48997D01*
X118063Y48503D01*
X117571Y48011D01*
X116985Y47717D01*
X116396Y47619D01*
X115603Y47619D01*
G37*
%LPD*%
%LPC*%
G36*
X166307Y64259D02*
X166307Y64259D01*
X165620Y64456D01*
X165131Y64749D01*
X164639Y65241D01*
X164346Y65730D01*
X164147Y66424D01*
X163747Y67724D01*
X163746Y67725D01*
X163747Y67726D01*
X163547Y68326D01*
X163528Y68338D01*
X163527Y68351D01*
X162927Y68751D01*
X162889Y68749D01*
X162878Y68754D01*
X162278Y68454D01*
X162266Y68430D01*
X162253Y68426D01*
X162053Y67826D01*
X162058Y67810D01*
X162051Y67803D01*
X162151Y67103D01*
X162164Y67090D01*
X162162Y67079D01*
X162558Y66583D01*
X162845Y66010D01*
X162561Y65441D01*
X161978Y64956D01*
X161510Y64862D01*
X160931Y65248D01*
X160542Y65638D01*
X160248Y66323D01*
X160149Y67017D01*
X160050Y67710D01*
X160149Y68403D01*
X160248Y69095D01*
X160542Y69683D01*
X160935Y70175D01*
X161427Y70568D01*
X162015Y70862D01*
X162703Y70961D01*
X163392Y70961D01*
X163978Y70765D01*
X164571Y70370D01*
X165061Y69978D01*
X165354Y69392D01*
X165553Y68696D01*
X165554Y68695D01*
X165553Y68694D01*
X165753Y68095D01*
X165953Y67396D01*
X165954Y67395D01*
X165953Y67394D01*
X166153Y66794D01*
X166175Y66779D01*
X166178Y66766D01*
X166778Y66466D01*
X166804Y66471D01*
X166816Y66463D01*
X167416Y66663D01*
X167434Y66690D01*
X167447Y66694D01*
X167647Y67294D01*
X167643Y67305D01*
X167649Y67310D01*
X167649Y68010D01*
X167641Y68021D01*
X167645Y68029D01*
X167345Y68729D01*
X167334Y68736D01*
X167335Y68745D01*
X166841Y69239D01*
X166551Y69818D01*
X166646Y70386D01*
X167128Y70868D01*
X167618Y71064D01*
X167631Y71085D01*
X167644Y71087D01*
X167659Y71117D01*
X167666Y71074D01*
X167678Y71076D01*
X167682Y71064D01*
X168176Y70867D01*
X168568Y70573D01*
X169062Y70079D01*
X169455Y69489D01*
X169652Y68799D01*
X169751Y68206D01*
X169751Y66818D01*
X169555Y66232D01*
X169159Y65637D01*
X168763Y65044D01*
X168276Y64654D01*
X167685Y64457D01*
X166993Y64259D01*
X166307Y64259D01*
G37*
%LPD*%
G36*
X72624Y85178D02*
X72624Y85178D01*
X72661Y85179D01*
X73311Y85279D01*
X73317Y85282D01*
X73373Y85297D01*
X73974Y85562D01*
X73979Y85566D01*
X73986Y85568D01*
X74047Y85611D01*
X74516Y86067D01*
X74523Y86078D01*
X74533Y86085D01*
X74572Y86148D01*
X74829Y86750D01*
X74830Y86753D01*
X74832Y86756D01*
X74849Y86829D01*
X74899Y87483D01*
X74896Y87501D01*
X74900Y87519D01*
X74882Y87568D01*
X74871Y87620D01*
X74858Y87633D01*
X74852Y87650D01*
X74799Y87703D01*
X74744Y87743D01*
X74770Y87759D01*
X74788Y87795D01*
X74814Y87825D01*
X74818Y87856D01*
X74832Y87884D01*
X74828Y87924D01*
X74834Y87964D01*
X74818Y88015D01*
X74817Y88023D01*
X74815Y88026D01*
X74812Y88035D01*
X74530Y88630D01*
X74519Y88642D01*
X74515Y88658D01*
X74466Y88714D01*
X73962Y89139D01*
X73959Y89140D01*
X73957Y89143D01*
X73893Y89180D01*
X73278Y89425D01*
X73267Y89426D01*
X73236Y89437D01*
X72586Y89571D01*
X72580Y89570D01*
X72568Y89574D01*
X71275Y89743D01*
X70776Y89906D01*
X70614Y90274D01*
X70787Y90658D01*
X71262Y90811D01*
X71818Y90787D01*
X72250Y90540D01*
X72438Y90010D01*
X72465Y89974D01*
X72483Y89933D01*
X72505Y89918D01*
X72520Y89897D01*
X72562Y89880D01*
X72599Y89856D01*
X72641Y89849D01*
X72650Y89845D01*
X72657Y89847D01*
X72673Y89844D01*
X73997Y89841D01*
X74014Y89846D01*
X74031Y89843D01*
X74102Y89864D01*
X74542Y90067D01*
X74552Y90076D01*
X74561Y90078D01*
X74580Y90100D01*
X74593Y90112D01*
X74645Y90156D01*
X74645Y90158D01*
X74647Y90159D01*
X74666Y90224D01*
X74686Y90289D01*
X74686Y90292D01*
X74686Y90293D01*
X74685Y90297D01*
X74676Y90363D01*
X74492Y90998D01*
X74490Y91001D01*
X74490Y91006D01*
X74456Y91072D01*
X74075Y91611D01*
X74072Y91613D01*
X74071Y91617D01*
X74018Y91669D01*
X73482Y92057D01*
X73475Y92060D01*
X73427Y92088D01*
X72810Y92330D01*
X72800Y92331D01*
X72767Y92342D01*
X72116Y92469D01*
X72107Y92468D01*
X72083Y92473D01*
X71420Y92511D01*
X71413Y92509D01*
X71395Y92511D01*
X70735Y92481D01*
X70727Y92479D01*
X70707Y92478D01*
X70052Y92374D01*
X70042Y92369D01*
X70009Y92363D01*
X69384Y92143D01*
X69383Y92143D01*
X69317Y92108D01*
X68789Y91713D01*
X68779Y91699D01*
X68764Y91691D01*
X68719Y91632D01*
X68405Y91054D01*
X68402Y91042D01*
X68395Y91032D01*
X68376Y90960D01*
X68309Y90303D01*
X68310Y90295D01*
X68308Y90277D01*
X68308Y88286D01*
X68309Y88281D01*
X68308Y88275D01*
X68310Y88263D01*
X68310Y88261D01*
X68311Y88258D01*
X68322Y88202D01*
X68397Y87990D01*
X68366Y87944D01*
X68329Y87902D01*
X68327Y87887D01*
X68318Y87874D01*
X68306Y87801D01*
X68285Y86502D01*
X68181Y85871D01*
X68185Y85844D01*
X68178Y85818D01*
X68193Y85776D01*
X68198Y85732D01*
X68215Y85711D01*
X68224Y85686D01*
X68276Y85633D01*
X68581Y85398D01*
X68623Y85382D01*
X68660Y85358D01*
X68702Y85351D01*
X68712Y85348D01*
X68718Y85349D01*
X68733Y85347D01*
X70051Y85347D01*
X70092Y85359D01*
X70136Y85362D01*
X70158Y85378D01*
X70185Y85386D01*
X70214Y85418D01*
X70248Y85444D01*
X70270Y85484D01*
X70277Y85491D01*
X70278Y85497D01*
X70284Y85509D01*
X70384Y85776D01*
X70586Y85645D01*
X70596Y85642D01*
X70620Y85626D01*
X71219Y85356D01*
X71229Y85354D01*
X71271Y85339D01*
X71915Y85205D01*
X71925Y85206D01*
X71956Y85200D01*
X72614Y85176D01*
X72624Y85178D01*
G37*
%LPC*%
G36*
X135735Y35035D02*
X135735Y35035D01*
X135342Y35527D01*
X135046Y36118D01*
X134848Y36810D01*
X134749Y37503D01*
X134749Y38097D01*
X134849Y38792D01*
X134948Y39386D01*
X135245Y40079D01*
X135542Y40673D01*
X135937Y41167D01*
X136433Y41663D01*
X136926Y42057D01*
X137618Y42354D01*
X138216Y42553D01*
X138808Y42751D01*
X140200Y42751D01*
X140247Y42787D01*
X140244Y42791D01*
X140249Y42793D01*
X140252Y42816D01*
X140251Y42805D01*
X140282Y42754D01*
X140284Y42755D01*
X140284Y42753D01*
X141481Y42354D01*
X142075Y42057D01*
X142669Y41662D01*
X143163Y41167D01*
X143558Y40673D01*
X143856Y40078D01*
X144152Y39485D01*
X144251Y38793D01*
X144351Y38097D01*
X144351Y37503D01*
X144252Y36810D01*
X144054Y36019D01*
X143760Y35528D01*
X143367Y35038D01*
X142875Y34742D01*
X142860Y34705D01*
X142854Y34700D01*
X142855Y34699D01*
X142851Y34696D01*
X142852Y34680D01*
X142849Y34706D01*
X142819Y34737D01*
X142816Y34747D01*
X142224Y34944D01*
X141641Y35430D01*
X141454Y35898D01*
X141944Y36878D01*
X141943Y36883D01*
X141947Y36884D01*
X142147Y37484D01*
X142143Y37495D01*
X142149Y37500D01*
X142149Y38200D01*
X142146Y38205D01*
X142149Y38208D01*
X142049Y38808D01*
X142039Y38817D01*
X142043Y38824D01*
X141643Y39524D01*
X141637Y39527D01*
X141638Y39531D01*
X141238Y40031D01*
X141224Y40034D01*
X141222Y40044D01*
X140622Y40344D01*
X140617Y40343D01*
X140616Y40347D01*
X140016Y40547D01*
X140007Y40544D01*
X140005Y40548D01*
X140001Y40548D01*
X140000Y40549D01*
X139300Y40549D01*
X139298Y40548D01*
X139294Y40548D01*
X139293Y40549D01*
X138593Y40449D01*
X138582Y40438D01*
X138573Y40441D01*
X137973Y40041D01*
X137972Y40038D01*
X137969Y40038D01*
X137469Y39638D01*
X137465Y39622D01*
X137455Y39619D01*
X137155Y38919D01*
X137156Y38916D01*
X137153Y38916D01*
X136953Y38316D01*
X136957Y38305D01*
X136951Y38300D01*
X136951Y37600D01*
X136957Y37592D01*
X136953Y37586D01*
X137153Y36886D01*
X137160Y36881D01*
X137158Y36875D01*
X137455Y36379D01*
X137648Y35802D01*
X137459Y35330D01*
X136876Y34844D01*
X136211Y34654D01*
X135735Y35035D01*
G37*
%LPD*%
G36*
X58287Y85362D02*
X58287Y85362D01*
X58343Y85371D01*
X58360Y85383D01*
X58367Y85385D01*
X58375Y85393D01*
X58404Y85413D01*
X58840Y85819D01*
X58843Y85824D01*
X58882Y85871D01*
X60190Y88000D01*
X60357Y87989D01*
X60644Y87653D01*
X60644Y85759D01*
X60657Y85713D01*
X60662Y85665D01*
X60677Y85647D01*
X60683Y85625D01*
X60719Y85593D01*
X60749Y85555D01*
X60780Y85540D01*
X60788Y85533D01*
X60797Y85532D01*
X60816Y85522D01*
X61315Y85359D01*
X61317Y85359D01*
X61319Y85358D01*
X61392Y85347D01*
X62054Y85347D01*
X62059Y85348D01*
X62071Y85347D01*
X62692Y85388D01*
X62701Y85391D01*
X62709Y85389D01*
X62766Y85415D01*
X62824Y85436D01*
X62829Y85443D01*
X62837Y85446D01*
X62871Y85498D01*
X62908Y85547D01*
X62909Y85556D01*
X62914Y85563D01*
X62925Y85636D01*
X62925Y93582D01*
X62921Y93595D01*
X62923Y93605D01*
X62918Y93615D01*
X62920Y93632D01*
X62911Y93649D01*
X62910Y93669D01*
X62889Y93706D01*
X62886Y93716D01*
X62881Y93721D01*
X62874Y93734D01*
X62873Y93734D01*
X62861Y93743D01*
X62855Y93756D01*
X62795Y93801D01*
X61054Y94756D01*
X60985Y94771D01*
X60918Y94786D01*
X60917Y94786D01*
X60855Y94763D01*
X60786Y94738D01*
X60742Y94680D01*
X60701Y94627D01*
X60701Y94626D01*
X60685Y94555D01*
X60644Y93962D01*
X60645Y93956D01*
X60644Y93945D01*
X60644Y90369D01*
X58931Y92150D01*
X58896Y92170D01*
X58866Y92198D01*
X58818Y92215D01*
X58810Y92219D01*
X58805Y92219D01*
X58795Y92222D01*
X58180Y92332D01*
X58169Y92331D01*
X58136Y92336D01*
X56812Y92336D01*
X56795Y92331D01*
X56777Y92334D01*
X56729Y92312D01*
X56678Y92297D01*
X56666Y92283D01*
X56650Y92276D01*
X56621Y92232D01*
X56586Y92192D01*
X56583Y92174D01*
X56573Y92159D01*
X56563Y92086D01*
X56564Y91816D01*
X56568Y91803D01*
X56566Y91794D01*
X56579Y91764D01*
X56581Y91757D01*
X56594Y91698D01*
X56602Y91687D01*
X56604Y91682D01*
X56611Y91675D01*
X56639Y91638D01*
X58485Y89840D01*
X58564Y89516D01*
X56062Y85745D01*
X56056Y85727D01*
X56044Y85713D01*
X56036Y85661D01*
X56020Y85611D01*
X56025Y85593D01*
X56022Y85575D01*
X56043Y85527D01*
X56057Y85477D01*
X56071Y85464D01*
X56078Y85447D01*
X56122Y85418D01*
X56160Y85383D01*
X56179Y85380D01*
X56194Y85369D01*
X56268Y85358D01*
X58233Y85346D01*
X58287Y85362D01*
G37*
G36*
X50364Y109554D02*
X50364Y109554D01*
X50367Y109551D01*
X51067Y109651D01*
X51072Y109656D01*
X51076Y109653D01*
X51676Y109853D01*
X51681Y109861D01*
X51687Y109859D01*
X52287Y110259D01*
X52290Y110266D01*
X52295Y110265D01*
X52795Y110765D01*
X52796Y110777D01*
X52804Y110778D01*
X53404Y111978D01*
X53402Y111989D01*
X53409Y111993D01*
X53509Y112693D01*
X53506Y112698D01*
X53509Y112700D01*
X53509Y113400D01*
X53506Y113404D01*
X53509Y113407D01*
X53409Y114107D01*
X53404Y114112D01*
X53407Y114116D01*
X53207Y114716D01*
X53202Y114719D01*
X53204Y114722D01*
X52904Y115322D01*
X52891Y115329D01*
X52891Y115338D01*
X51891Y116138D01*
X51883Y116139D01*
X51882Y116144D01*
X51282Y116444D01*
X51275Y116443D01*
X51274Y116447D01*
X50574Y116647D01*
X50569Y116646D01*
X50567Y116649D01*
X49867Y116749D01*
X49858Y116744D01*
X49853Y116749D01*
X48453Y116549D01*
X48445Y116541D01*
X48438Y116544D01*
X47838Y116244D01*
X47833Y116234D01*
X47825Y116235D01*
X47325Y115735D01*
X47325Y115731D01*
X47322Y115731D01*
X46922Y115231D01*
X46921Y115218D01*
X46913Y115216D01*
X46713Y114616D01*
X46715Y114609D01*
X46711Y114607D01*
X46611Y113907D01*
X46614Y113902D01*
X46611Y113900D01*
X46611Y113100D01*
X46630Y113075D01*
X46629Y113062D01*
X47129Y112662D01*
X47137Y112661D01*
X47138Y112656D01*
X47738Y112356D01*
X47749Y112358D01*
X47755Y112358D01*
X47760Y112351D01*
X50551Y112351D01*
X50972Y112182D01*
X50533Y111743D01*
X49952Y111549D01*
X49168Y111549D01*
X47976Y111947D01*
X47947Y111937D01*
X47935Y111942D01*
X47435Y111642D01*
X47428Y111626D01*
X47417Y111624D01*
X47017Y110924D01*
X47020Y110907D01*
X47011Y110900D01*
X47011Y110400D01*
X47027Y110379D01*
X47025Y110365D01*
X47325Y110065D01*
X47334Y110064D01*
X47335Y110058D01*
X47835Y109758D01*
X47845Y109759D01*
X47848Y109752D01*
X48648Y109552D01*
X48656Y109556D01*
X48660Y109551D01*
X50360Y109551D01*
X50364Y109554D01*
G37*
G36*
X87065Y109554D02*
X87065Y109554D01*
X87068Y109551D01*
X87668Y109651D01*
X87671Y109655D01*
X87674Y109653D01*
X88374Y109853D01*
X88380Y109862D01*
X88387Y109859D01*
X88987Y110259D01*
X88991Y110269D01*
X88998Y110269D01*
X89398Y110769D01*
X89399Y110773D01*
X89401Y110773D01*
X89801Y111373D01*
X89800Y111382D01*
X89807Y111384D01*
X90007Y111984D01*
X90005Y111991D01*
X90009Y111993D01*
X90209Y113393D01*
X90202Y113406D01*
X90207Y113414D01*
X90007Y114114D01*
X90006Y114115D01*
X90007Y114116D01*
X89807Y114716D01*
X89802Y114719D01*
X89804Y114722D01*
X89504Y115322D01*
X89494Y115327D01*
X89495Y115335D01*
X89095Y115735D01*
X89088Y115736D01*
X89087Y115741D01*
X88487Y116141D01*
X88483Y116141D01*
X88482Y116144D01*
X87882Y116444D01*
X87877Y116443D01*
X87876Y116447D01*
X87276Y116647D01*
X87269Y116645D01*
X87267Y116649D01*
X86567Y116749D01*
X86559Y116744D01*
X86554Y116749D01*
X85754Y116649D01*
X85753Y116648D01*
X85752Y116649D01*
X85152Y116549D01*
X85145Y116541D01*
X85138Y116544D01*
X84538Y116244D01*
X84533Y116234D01*
X84525Y116235D01*
X84025Y115735D01*
X84025Y115731D01*
X84022Y115731D01*
X83622Y115231D01*
X83621Y115218D01*
X83613Y115216D01*
X83413Y114616D01*
X83415Y114609D01*
X83411Y114607D01*
X83311Y113907D01*
X83314Y113902D01*
X83311Y113900D01*
X83311Y113100D01*
X83330Y113075D01*
X83329Y113062D01*
X83829Y112662D01*
X83837Y112661D01*
X83838Y112656D01*
X84438Y112356D01*
X84449Y112358D01*
X84455Y112358D01*
X84460Y112351D01*
X87151Y112351D01*
X87580Y112179D01*
X87231Y111743D01*
X86553Y111549D01*
X85868Y111549D01*
X85276Y111747D01*
X85274Y111746D01*
X85274Y111747D01*
X84574Y111947D01*
X84547Y111937D01*
X84535Y111942D01*
X84035Y111642D01*
X84028Y111626D01*
X84017Y111624D01*
X83617Y110924D01*
X83620Y110900D01*
X83612Y110890D01*
X83712Y110390D01*
X83722Y110381D01*
X83719Y110373D01*
X83919Y110073D01*
X83936Y110067D01*
X83938Y110056D01*
X84538Y109756D01*
X84545Y109757D01*
X84546Y109753D01*
X85246Y109553D01*
X85256Y109556D01*
X85260Y109551D01*
X87060Y109551D01*
X87065Y109554D01*
G37*
%LPC*%
G36*
X84820Y35419D02*
X84820Y35419D01*
X84342Y35898D01*
X84149Y36379D01*
X84149Y36953D01*
X84529Y37428D01*
X85116Y37623D01*
X85118Y37627D01*
X85121Y37625D01*
X90121Y39925D01*
X90127Y39936D01*
X90135Y39935D01*
X90435Y40235D01*
X90435Y40237D01*
X90436Y40237D01*
X90436Y40241D01*
X90438Y40257D01*
X90441Y40260D01*
X90439Y40263D01*
X90443Y40294D01*
X90425Y40297D01*
X90422Y40314D01*
X89822Y40614D01*
X89820Y40614D01*
X89820Y40615D01*
X85221Y42614D01*
X84626Y42912D01*
X84242Y43200D01*
X84053Y43768D01*
X84342Y44442D01*
X84820Y44921D01*
X85300Y44921D01*
X85335Y44947D01*
X85345Y44950D01*
X85357Y44977D01*
X85370Y44931D01*
X85377Y44933D01*
X85378Y44926D01*
X85978Y44626D01*
X92678Y41326D01*
X93263Y41033D01*
X93551Y40458D01*
X93551Y39784D01*
X93263Y39305D01*
X92675Y38913D01*
X85982Y35616D01*
X85293Y35419D01*
X84820Y35419D01*
G37*
%LPD*%
G36*
X232678Y109565D02*
X232678Y109565D01*
X232691Y109562D01*
X233191Y109962D01*
X233195Y109977D01*
X233200Y109981D01*
X233197Y109985D01*
X233197Y109986D01*
X233209Y109992D01*
X233309Y110592D01*
X233306Y110597D01*
X233309Y110600D01*
X233309Y116788D01*
X233490Y117151D01*
X235560Y117151D01*
X235564Y117154D01*
X235567Y117151D01*
X236267Y117251D01*
X236282Y117267D01*
X236295Y117265D01*
X236695Y117665D01*
X236699Y117692D01*
X236709Y117700D01*
X236709Y118400D01*
X236702Y118409D01*
X236707Y118416D01*
X236507Y119016D01*
X236472Y119039D01*
X236467Y119049D01*
X235767Y119149D01*
X235762Y119146D01*
X235760Y119149D01*
X228160Y119149D01*
X228145Y119138D01*
X228135Y119142D01*
X227635Y118842D01*
X227621Y118808D01*
X227611Y118800D01*
X227611Y118100D01*
X227614Y118095D01*
X227611Y118092D01*
X227711Y117492D01*
X227733Y117471D01*
X227735Y117458D01*
X228235Y117158D01*
X228253Y117160D01*
X228260Y117151D01*
X230356Y117151D01*
X230911Y117058D01*
X230911Y111000D01*
X230914Y110996D01*
X230911Y110993D01*
X231011Y110293D01*
X231016Y110288D01*
X231013Y110284D01*
X231213Y109684D01*
X231248Y109661D01*
X231253Y109651D01*
X231953Y109551D01*
X231958Y109554D01*
X231960Y109551D01*
X232660Y109551D01*
X232678Y109565D01*
G37*
G36*
X171164Y109554D02*
X171164Y109554D01*
X171167Y109551D01*
X171867Y109651D01*
X171889Y109673D01*
X171902Y109675D01*
X172202Y110175D01*
X172202Y110178D01*
X172200Y110193D01*
X172209Y110200D01*
X172209Y110900D01*
X172206Y110905D01*
X172209Y110908D01*
X172109Y111508D01*
X172105Y111511D01*
X172107Y111514D01*
X171707Y112914D01*
X171702Y112918D01*
X171704Y112922D01*
X171404Y113522D01*
X171401Y113523D01*
X171402Y113525D01*
X171103Y114023D01*
X170804Y114622D01*
X170800Y114624D01*
X170801Y114627D01*
X170401Y115227D01*
X170400Y115228D01*
X170400Y115229D01*
X169606Y116320D01*
X169520Y116751D01*
X172860Y116751D01*
X172875Y116762D01*
X172885Y116758D01*
X173385Y117058D01*
X173397Y117086D01*
X173409Y117093D01*
X173509Y117793D01*
X173506Y117798D01*
X173509Y117800D01*
X173509Y118500D01*
X173495Y118518D01*
X173498Y118531D01*
X173098Y119031D01*
X173074Y119037D01*
X173068Y119049D01*
X172468Y119149D01*
X172463Y119146D01*
X172460Y119149D01*
X167760Y119149D01*
X167756Y119146D01*
X167753Y119149D01*
X167053Y119049D01*
X167035Y119030D01*
X167022Y119031D01*
X166622Y118531D01*
X166621Y118513D01*
X166611Y118508D01*
X166511Y117908D01*
X166517Y117898D01*
X166511Y117892D01*
X166611Y117292D01*
X166618Y117286D01*
X166615Y117281D01*
X166915Y116581D01*
X166917Y116579D01*
X166916Y116578D01*
X167516Y115378D01*
X167518Y115377D01*
X167517Y115375D01*
X168917Y112975D01*
X169316Y112278D01*
X169613Y111585D01*
X169712Y111090D01*
X169811Y110592D01*
X169911Y109893D01*
X169933Y109871D01*
X169935Y109858D01*
X170435Y109558D01*
X170453Y109560D01*
X170460Y109551D01*
X171160Y109551D01*
X171164Y109554D01*
G37*
G36*
X39069Y109558D02*
X39069Y109558D01*
X39076Y109553D01*
X39676Y109753D01*
X39693Y109778D01*
X39706Y109782D01*
X39906Y110282D01*
X39903Y110290D01*
X39909Y110293D01*
X40009Y110993D01*
X40006Y110998D01*
X40009Y111000D01*
X40009Y112997D01*
X40106Y113674D01*
X40577Y114051D01*
X41248Y114051D01*
X41823Y113763D01*
X42113Y113185D01*
X42211Y112596D01*
X42211Y110500D01*
X42214Y110495D01*
X42211Y110492D01*
X42311Y109892D01*
X42333Y109871D01*
X42335Y109858D01*
X42835Y109558D01*
X42853Y109560D01*
X42860Y109551D01*
X43760Y109551D01*
X43771Y109559D01*
X43778Y109554D01*
X44278Y109754D01*
X44293Y109778D01*
X44296Y109781D01*
X44307Y109784D01*
X44507Y110384D01*
X44503Y110395D01*
X44509Y110400D01*
X44509Y115900D01*
X44493Y115921D01*
X44495Y115935D01*
X44095Y116335D01*
X44073Y116338D01*
X44067Y116349D01*
X43367Y116449D01*
X43362Y116446D01*
X43357Y116446D01*
X43354Y116449D01*
X42554Y116349D01*
X42531Y116327D01*
X42518Y116325D01*
X42237Y115857D01*
X41882Y115945D01*
X41391Y116338D01*
X41372Y116339D01*
X41367Y116349D01*
X40667Y116449D01*
X40662Y116446D01*
X40656Y116446D01*
X40653Y116449D01*
X39953Y116349D01*
X39948Y116344D01*
X39944Y116347D01*
X39344Y116147D01*
X39337Y116136D01*
X39329Y116138D01*
X38829Y115738D01*
X38828Y115734D01*
X38825Y115735D01*
X38325Y115235D01*
X38325Y115231D01*
X38322Y115231D01*
X37922Y114731D01*
X37921Y114717D01*
X37913Y114714D01*
X37905Y114686D01*
X37891Y114637D01*
X37849Y114489D01*
X37806Y114341D01*
X37792Y114292D01*
X37750Y114144D01*
X37713Y114014D01*
X37714Y114010D01*
X37711Y114008D01*
X37611Y113408D01*
X37613Y113406D01*
X37613Y113405D01*
X37614Y113403D01*
X37611Y113400D01*
X37611Y110600D01*
X37614Y110595D01*
X37611Y110592D01*
X37711Y109992D01*
X37727Y109977D01*
X37725Y109965D01*
X38125Y109565D01*
X38152Y109562D01*
X38160Y109551D01*
X39060Y109551D01*
X39069Y109558D01*
G37*
G36*
X40036Y85365D02*
X40036Y85365D01*
X40101Y85382D01*
X40103Y85385D01*
X40105Y85385D01*
X40108Y85389D01*
X40158Y85430D01*
X40469Y85782D01*
X40492Y85830D01*
X40521Y85874D01*
X40525Y85900D01*
X40529Y85909D01*
X40528Y85919D01*
X40532Y85947D01*
X40532Y89257D01*
X40582Y89867D01*
X40789Y90353D01*
X41226Y90586D01*
X41761Y90571D01*
X42217Y90327D01*
X42464Y89849D01*
X42549Y89252D01*
X42556Y85950D01*
X42570Y85901D01*
X42577Y85850D01*
X42593Y85826D01*
X42595Y85816D01*
X42603Y85810D01*
X42617Y85788D01*
X42925Y85432D01*
X42982Y85395D01*
X43040Y85357D01*
X43042Y85357D01*
X43042Y85356D01*
X43045Y85356D01*
X43113Y85346D01*
X44441Y85346D01*
X44492Y85361D01*
X44544Y85368D01*
X44558Y85380D01*
X44575Y85385D01*
X44610Y85425D01*
X44650Y85459D01*
X44661Y85483D01*
X44667Y85490D01*
X44669Y85500D01*
X44681Y85526D01*
X44829Y86042D01*
X44829Y86047D01*
X44838Y86111D01*
X44838Y92086D01*
X44836Y92094D01*
X44838Y92103D01*
X44835Y92115D01*
X44836Y92120D01*
X44832Y92129D01*
X44822Y92176D01*
X44806Y92196D01*
X44799Y92220D01*
X44786Y92232D01*
X44779Y92248D01*
X44755Y92264D01*
X44737Y92288D01*
X44712Y92297D01*
X44694Y92312D01*
X44678Y92315D01*
X44662Y92325D01*
X44615Y92332D01*
X44606Y92336D01*
X44600Y92334D01*
X44589Y92336D01*
X43261Y92336D01*
X43215Y92323D01*
X43168Y92318D01*
X43137Y92300D01*
X43127Y92297D01*
X43121Y92291D01*
X43104Y92281D01*
X42737Y91983D01*
X42702Y91932D01*
X42663Y91882D01*
X42661Y91872D01*
X42658Y91868D01*
X42658Y91859D01*
X42648Y91817D01*
X42608Y91864D01*
X42607Y91864D01*
X42607Y91865D01*
X42551Y91913D01*
X41992Y92267D01*
X41990Y92268D01*
X41927Y92296D01*
X41290Y92477D01*
X41282Y92477D01*
X41228Y92486D01*
X40565Y92500D01*
X40555Y92497D01*
X40518Y92496D01*
X39865Y92386D01*
X39861Y92384D01*
X39799Y92365D01*
X39203Y92080D01*
X39195Y92073D01*
X39184Y92070D01*
X39126Y92023D01*
X38683Y91535D01*
X38680Y91529D01*
X38674Y91524D01*
X38636Y91460D01*
X38390Y90846D01*
X38389Y90837D01*
X38375Y90792D01*
X38273Y90137D01*
X38274Y90128D01*
X38270Y90106D01*
X38251Y89442D01*
X38251Y89440D01*
X38251Y89435D01*
X38251Y86116D01*
X38252Y86110D01*
X38259Y86050D01*
X38403Y85529D01*
X38431Y85483D01*
X38453Y85434D01*
X38467Y85425D01*
X38476Y85410D01*
X38525Y85387D01*
X38570Y85357D01*
X38594Y85353D01*
X38602Y85349D01*
X38613Y85350D01*
X38643Y85346D01*
X39971Y85346D01*
X40036Y85365D01*
G37*
G36*
X49606Y85185D02*
X49606Y85185D01*
X49642Y85186D01*
X50296Y85296D01*
X50300Y85298D01*
X50362Y85317D01*
X50958Y85601D01*
X50966Y85609D01*
X50977Y85611D01*
X51035Y85658D01*
X51479Y86146D01*
X51482Y86152D01*
X51488Y86157D01*
X51526Y86221D01*
X51772Y86835D01*
X51773Y86844D01*
X51787Y86889D01*
X51890Y87544D01*
X51888Y87553D01*
X51892Y87575D01*
X51912Y88239D01*
X51911Y88241D01*
X51912Y88246D01*
X51912Y91565D01*
X51910Y91572D01*
X51903Y91631D01*
X51761Y92153D01*
X51733Y92199D01*
X51711Y92249D01*
X51697Y92258D01*
X51688Y92272D01*
X51640Y92296D01*
X51594Y92326D01*
X51571Y92329D01*
X51563Y92333D01*
X51552Y92332D01*
X51521Y92337D01*
X50193Y92337D01*
X50129Y92318D01*
X50065Y92301D01*
X50061Y92298D01*
X50059Y92298D01*
X50055Y92293D01*
X50007Y92254D01*
X49694Y91904D01*
X49670Y91856D01*
X49641Y91811D01*
X49637Y91786D01*
X49633Y91778D01*
X49634Y91768D01*
X49630Y91738D01*
X49630Y88428D01*
X49581Y87817D01*
X49375Y87331D01*
X48938Y87098D01*
X48402Y87113D01*
X47946Y87355D01*
X47698Y87832D01*
X47613Y88429D01*
X47606Y91731D01*
X47592Y91780D01*
X47585Y91830D01*
X47570Y91855D01*
X47567Y91865D01*
X47559Y91871D01*
X47546Y91893D01*
X47238Y92250D01*
X47180Y92287D01*
X47123Y92325D01*
X47121Y92325D01*
X47121Y92326D01*
X47118Y92326D01*
X47049Y92336D01*
X45722Y92336D01*
X45671Y92321D01*
X45619Y92314D01*
X45605Y92302D01*
X45587Y92297D01*
X45553Y92257D01*
X45513Y92223D01*
X45502Y92199D01*
X45495Y92192D01*
X45494Y92182D01*
X45482Y92155D01*
X45334Y91640D01*
X45334Y91635D01*
X45324Y91571D01*
X45324Y85596D01*
X45329Y85580D01*
X45326Y85562D01*
X45349Y85512D01*
X45364Y85462D01*
X45376Y85451D01*
X45383Y85435D01*
X45429Y85404D01*
X45469Y85370D01*
X45486Y85367D01*
X45500Y85358D01*
X45573Y85346D01*
X46901Y85346D01*
X46946Y85360D01*
X46993Y85364D01*
X47025Y85383D01*
X47035Y85386D01*
X47041Y85392D01*
X47058Y85402D01*
X47425Y85698D01*
X47462Y85750D01*
X47501Y85800D01*
X47503Y85809D01*
X47505Y85812D01*
X47506Y85821D01*
X47516Y85864D01*
X47554Y85820D01*
X47554Y85819D01*
X47610Y85770D01*
X48169Y85416D01*
X48171Y85415D01*
X48234Y85387D01*
X48870Y85206D01*
X48878Y85206D01*
X48933Y85197D01*
X49596Y85182D01*
X49606Y85185D01*
G37*
G36*
X86132Y85212D02*
X86132Y85212D01*
X86141Y85215D01*
X86167Y85216D01*
X86817Y85347D01*
X86826Y85352D01*
X86861Y85360D01*
X87475Y85608D01*
X87481Y85613D01*
X87530Y85640D01*
X88061Y86034D01*
X88063Y86036D01*
X88066Y86038D01*
X88117Y86092D01*
X88494Y86634D01*
X88495Y86637D01*
X88497Y86639D01*
X88529Y86707D01*
X88713Y87341D01*
X88713Y87375D01*
X88723Y87408D01*
X88715Y87437D01*
X88717Y87448D01*
X88713Y87456D01*
X88713Y87481D01*
X88695Y87510D01*
X88686Y87542D01*
X88662Y87570D01*
X88660Y87576D01*
X88654Y87580D01*
X88638Y87598D01*
X88638Y87599D01*
X88637Y87599D01*
X88297Y87895D01*
X88250Y87916D01*
X88207Y87945D01*
X88179Y87949D01*
X88170Y87953D01*
X88160Y87952D01*
X88133Y87956D01*
X86806Y87956D01*
X86779Y87948D01*
X86750Y87949D01*
X86729Y87938D01*
X86711Y87936D01*
X86696Y87924D01*
X86672Y87917D01*
X86653Y87895D01*
X86628Y87881D01*
X86617Y87861D01*
X86602Y87848D01*
X86588Y87821D01*
X86580Y87811D01*
X86578Y87801D01*
X86569Y87782D01*
X86396Y87243D01*
X85973Y86952D01*
X85420Y86866D01*
X84890Y86971D01*
X84579Y87277D01*
X84649Y87647D01*
X85098Y87892D01*
X85703Y88061D01*
X86344Y88202D01*
X86347Y88204D01*
X86354Y88205D01*
X86996Y88374D01*
X87004Y88379D01*
X87027Y88385D01*
X87640Y88638D01*
X87642Y88640D01*
X87701Y88674D01*
X88214Y89088D01*
X88227Y89106D01*
X88245Y89118D01*
X88285Y89180D01*
X88553Y89780D01*
X88555Y89795D01*
X88563Y89808D01*
X88574Y89881D01*
X88574Y90542D01*
X88574Y90544D01*
X88574Y90545D01*
X88562Y90619D01*
X88360Y91247D01*
X88353Y91256D01*
X88352Y91267D01*
X88314Y91330D01*
X87891Y91836D01*
X87885Y91840D01*
X87882Y91847D01*
X87823Y91893D01*
X87250Y92221D01*
X87241Y92223D01*
X87193Y92244D01*
X86555Y92423D01*
X86545Y92423D01*
X86515Y92431D01*
X85856Y92503D01*
X85848Y92502D01*
X85827Y92505D01*
X85164Y92501D01*
X85155Y92499D01*
X85133Y92499D01*
X84475Y92411D01*
X84466Y92407D01*
X84432Y92401D01*
X83802Y92199D01*
X83795Y92194D01*
X83744Y92171D01*
X83649Y92111D01*
X83259Y91862D01*
X83187Y91816D01*
X83183Y91812D01*
X83179Y91811D01*
X83125Y91760D01*
X82717Y91241D01*
X82715Y91236D01*
X82711Y91234D01*
X82677Y91168D01*
X82463Y90542D01*
X82461Y90495D01*
X82450Y90448D01*
X82458Y90426D01*
X82457Y90402D01*
X82480Y90361D01*
X82496Y90317D01*
X82521Y90290D01*
X82527Y90281D01*
X82534Y90277D01*
X82548Y90263D01*
X82902Y89993D01*
X82943Y89977D01*
X82980Y89953D01*
X83023Y89947D01*
X83033Y89943D01*
X83039Y89944D01*
X83053Y89942D01*
X83717Y89942D01*
X83720Y89943D01*
X83726Y89942D01*
X84368Y89966D01*
X84396Y89975D01*
X84426Y89975D01*
X84461Y89997D01*
X84501Y90010D01*
X84519Y90033D01*
X84545Y90049D01*
X84585Y90111D01*
X84672Y90301D01*
X84814Y90610D01*
X85283Y90801D01*
X85841Y90803D01*
X86225Y90621D01*
X86217Y90300D01*
X85804Y90056D01*
X83907Y89589D01*
X83899Y89584D01*
X83872Y89578D01*
X83259Y89325D01*
X83255Y89322D01*
X83201Y89291D01*
X82681Y88886D01*
X82670Y88872D01*
X82655Y88863D01*
X82612Y88803D01*
X82313Y88217D01*
X82310Y88203D01*
X82302Y88191D01*
X82286Y88118D01*
X82249Y87458D01*
X82249Y87456D01*
X82255Y87387D01*
X82407Y86744D01*
X82410Y86739D01*
X82410Y86734D01*
X82440Y86666D01*
X82798Y86111D01*
X82802Y86108D01*
X82804Y86102D01*
X82855Y86049D01*
X83379Y85646D01*
X83385Y85643D01*
X83436Y85613D01*
X84049Y85361D01*
X84060Y85360D01*
X84094Y85347D01*
X84744Y85216D01*
X84754Y85217D01*
X84779Y85212D01*
X85441Y85172D01*
X85449Y85174D01*
X85471Y85172D01*
X86132Y85212D01*
G37*
%LPC*%
G36*
X185004Y23979D02*
X185004Y23979D01*
X184449Y24072D01*
X184449Y49681D01*
X185291Y49681D01*
X185751Y49497D01*
X185751Y24534D01*
X185658Y23979D01*
X185004Y23979D01*
G37*
%LPD*%
G36*
X103064Y109554D02*
X103064Y109554D01*
X103067Y109551D01*
X103767Y109651D01*
X103789Y109673D01*
X103802Y109675D01*
X104102Y110175D01*
X104102Y110178D01*
X104100Y110193D01*
X104109Y110200D01*
X104109Y113596D01*
X104202Y114151D01*
X104860Y114151D01*
X104885Y114170D01*
X104898Y114169D01*
X105298Y114669D01*
X105299Y114692D01*
X105309Y114700D01*
X105309Y115500D01*
X105302Y115509D01*
X105307Y115516D01*
X105107Y116116D01*
X105082Y116133D01*
X105078Y116146D01*
X104582Y116344D01*
X104109Y116628D01*
X104109Y117200D01*
X104106Y117204D01*
X104109Y117207D01*
X104009Y117907D01*
X104001Y117915D01*
X104004Y117922D01*
X103704Y118522D01*
X103694Y118527D01*
X103695Y118535D01*
X103195Y119035D01*
X103191Y119035D01*
X103191Y119038D01*
X102691Y119438D01*
X102678Y119439D01*
X102676Y119447D01*
X102076Y119647D01*
X102069Y119644D01*
X102069Y119645D01*
X102066Y119649D01*
X101266Y119749D01*
X101260Y119746D01*
X101249Y119746D01*
X101248Y119745D01*
X101244Y119747D01*
X100644Y119547D01*
X100635Y119533D01*
X100625Y119535D01*
X100225Y119135D01*
X100224Y119123D01*
X100218Y119119D01*
X100222Y119113D01*
X100222Y119112D01*
X100211Y119106D01*
X100111Y118306D01*
X100119Y118293D01*
X100113Y118284D01*
X100313Y117684D01*
X100333Y117671D01*
X100335Y117658D01*
X100835Y117358D01*
X100849Y117359D01*
X100853Y117351D01*
X101530Y117255D01*
X101805Y116796D01*
X101629Y116354D01*
X100967Y116449D01*
X100962Y116446D01*
X100951Y116446D01*
X100948Y116448D01*
X100148Y116248D01*
X100133Y116230D01*
X100121Y116230D01*
X99821Y115830D01*
X99821Y115822D01*
X99817Y115819D01*
X99821Y115814D01*
X99821Y115812D01*
X99811Y115807D01*
X99711Y115107D01*
X99719Y115093D01*
X99713Y115084D01*
X99913Y114484D01*
X99932Y114472D01*
X99933Y114459D01*
X100533Y114059D01*
X100553Y114060D01*
X100560Y114051D01*
X101811Y114051D01*
X101811Y110700D01*
X101814Y110696D01*
X101811Y110693D01*
X101911Y109993D01*
X101927Y109978D01*
X101925Y109965D01*
X102325Y109565D01*
X102352Y109562D01*
X102360Y109551D01*
X103060Y109551D01*
X103064Y109554D01*
G37*
G36*
X95564Y109554D02*
X95564Y109554D01*
X95567Y109551D01*
X96267Y109651D01*
X96289Y109673D01*
X96302Y109675D01*
X96602Y110175D01*
X96602Y110178D01*
X96600Y110193D01*
X96609Y110200D01*
X96609Y113596D01*
X96702Y114151D01*
X97360Y114151D01*
X97390Y114173D01*
X97402Y114175D01*
X97702Y114675D01*
X97701Y114689D01*
X97709Y114694D01*
X97809Y115494D01*
X97801Y115507D01*
X97807Y115516D01*
X97607Y116116D01*
X97580Y116134D01*
X97576Y116147D01*
X96983Y116344D01*
X96609Y116625D01*
X96609Y117200D01*
X96603Y117208D01*
X96607Y117214D01*
X96407Y117914D01*
X96402Y117918D01*
X96404Y117922D01*
X96104Y118522D01*
X96097Y118525D01*
X96098Y118531D01*
X95698Y119031D01*
X95691Y119033D01*
X95691Y119038D01*
X95191Y119438D01*
X95178Y119439D01*
X95176Y119447D01*
X94576Y119647D01*
X94569Y119644D01*
X94569Y119645D01*
X94566Y119649D01*
X93766Y119749D01*
X93760Y119746D01*
X93749Y119746D01*
X93748Y119745D01*
X93744Y119747D01*
X93144Y119547D01*
X93135Y119533D01*
X93125Y119535D01*
X92725Y119135D01*
X92724Y119123D01*
X92718Y119119D01*
X92722Y119113D01*
X92722Y119112D01*
X92711Y119106D01*
X92611Y118306D01*
X92619Y118293D01*
X92613Y118284D01*
X92813Y117684D01*
X92833Y117671D01*
X92835Y117658D01*
X93335Y117358D01*
X93349Y117359D01*
X93353Y117351D01*
X94030Y117255D01*
X94305Y116796D01*
X94129Y116354D01*
X93467Y116449D01*
X93462Y116446D01*
X93451Y116446D01*
X93448Y116448D01*
X92648Y116248D01*
X92633Y116230D01*
X92621Y116230D01*
X92321Y115830D01*
X92321Y115822D01*
X92317Y115819D01*
X92321Y115814D01*
X92321Y115812D01*
X92311Y115807D01*
X92211Y115107D01*
X92219Y115093D01*
X92213Y115084D01*
X92413Y114484D01*
X92432Y114472D01*
X92433Y114459D01*
X93033Y114059D01*
X93053Y114060D01*
X93060Y114051D01*
X94311Y114051D01*
X94311Y110000D01*
X94330Y109975D01*
X94329Y109962D01*
X94829Y109562D01*
X94852Y109561D01*
X94860Y109551D01*
X95560Y109551D01*
X95564Y109554D01*
G37*
%LPC*%
G36*
X187240Y25969D02*
X187240Y25969D01*
X187049Y26637D01*
X187049Y33427D01*
X187147Y34307D01*
X187523Y34684D01*
X188195Y34780D01*
X188756Y34593D01*
X188851Y33927D01*
X188851Y31930D01*
X188858Y31921D01*
X188853Y31914D01*
X189053Y31314D01*
X189097Y31284D01*
X189100Y31281D01*
X195891Y31281D01*
X196361Y31093D01*
X196551Y30522D01*
X196551Y29747D01*
X196174Y29276D01*
X195497Y29179D01*
X189400Y29179D01*
X189389Y29171D01*
X189382Y29176D01*
X188882Y28976D01*
X188857Y28935D01*
X188851Y28930D01*
X188851Y26250D01*
X188477Y25876D01*
X187805Y25780D01*
X187240Y25969D01*
G37*
%LPD*%
G36*
X33664Y109554D02*
X33664Y109554D01*
X33667Y109551D01*
X34367Y109651D01*
X34375Y109659D01*
X34382Y109656D01*
X35582Y110256D01*
X35594Y110280D01*
X35607Y110284D01*
X35807Y110884D01*
X35799Y110907D01*
X35806Y110918D01*
X35606Y111418D01*
X35596Y111424D01*
X35598Y111432D01*
X35098Y112032D01*
X35068Y112038D01*
X35060Y112049D01*
X34460Y112049D01*
X34444Y112037D01*
X34433Y112041D01*
X33839Y111645D01*
X33157Y111450D01*
X32489Y111546D01*
X32337Y111774D01*
X32875Y111953D01*
X33574Y112153D01*
X33575Y112154D01*
X33576Y112153D01*
X34176Y112353D01*
X34179Y112358D01*
X34182Y112356D01*
X34782Y112656D01*
X34789Y112669D01*
X34798Y112669D01*
X35198Y113169D01*
X35199Y113178D01*
X35200Y113179D01*
X35205Y113181D01*
X35505Y113881D01*
X35503Y113889D01*
X35509Y113892D01*
X35609Y114492D01*
X35606Y114497D01*
X35609Y114500D01*
X35609Y115200D01*
X35601Y115211D01*
X35606Y115218D01*
X35406Y115718D01*
X35394Y115726D01*
X35395Y115735D01*
X34995Y116135D01*
X34983Y116136D01*
X34982Y116144D01*
X34382Y116444D01*
X34375Y116443D01*
X34374Y116447D01*
X33674Y116647D01*
X33668Y116645D01*
X33666Y116649D01*
X32866Y116749D01*
X32858Y116744D01*
X32853Y116749D01*
X31453Y116549D01*
X31449Y116544D01*
X31448Y116544D01*
X31444Y116547D01*
X30844Y116347D01*
X30835Y116333D01*
X30825Y116335D01*
X30325Y115835D01*
X30324Y115823D01*
X30318Y115819D01*
X30322Y115813D01*
X30320Y115794D01*
X30313Y115784D01*
X30513Y115184D01*
X30521Y115179D01*
X30519Y115173D01*
X30919Y114573D01*
X30952Y114561D01*
X30960Y114551D01*
X31460Y114551D01*
X31468Y114557D01*
X31474Y114553D01*
X32170Y114752D01*
X32955Y114850D01*
X33491Y114671D01*
X33326Y114342D01*
X32550Y114148D01*
X31952Y114049D01*
X31949Y114045D01*
X31946Y114047D01*
X31246Y113847D01*
X31238Y113836D01*
X31229Y113838D01*
X30729Y113438D01*
X30727Y113431D01*
X30722Y113431D01*
X30322Y112931D01*
X30321Y112920D01*
X30318Y112917D01*
X30313Y112916D01*
X30113Y112316D01*
X30117Y112305D01*
X30111Y112300D01*
X30111Y111600D01*
X30114Y111596D01*
X30111Y111593D01*
X30211Y110893D01*
X30221Y110883D01*
X30218Y110875D01*
X30518Y110375D01*
X30526Y110371D01*
X30525Y110365D01*
X31025Y109865D01*
X31041Y109863D01*
X31044Y109853D01*
X31644Y109653D01*
X31650Y109655D01*
X31652Y109651D01*
X32252Y109551D01*
X32257Y109554D01*
X32260Y109551D01*
X33660Y109551D01*
X33664Y109554D01*
G37*
G36*
X70268Y109557D02*
X70268Y109557D01*
X70274Y109553D01*
X70974Y109753D01*
X70979Y109760D01*
X70985Y109758D01*
X71485Y110058D01*
X71490Y110070D01*
X71499Y110070D01*
X71799Y110470D01*
X71799Y110477D01*
X71804Y110478D01*
X72104Y111078D01*
X72102Y111089D01*
X72109Y111093D01*
X72209Y111793D01*
X72206Y111798D01*
X72209Y111800D01*
X72209Y113867D01*
X73178Y114254D01*
X73194Y114280D01*
X73207Y114284D01*
X73407Y114884D01*
X73403Y114895D01*
X73409Y114900D01*
X73409Y115700D01*
X73398Y115715D01*
X73402Y115725D01*
X73102Y116225D01*
X73080Y116234D01*
X73076Y116247D01*
X72487Y116443D01*
X72209Y116720D01*
X72209Y118100D01*
X72201Y118111D01*
X72206Y118118D01*
X72006Y118618D01*
X71978Y118635D01*
X71974Y118647D01*
X71274Y118847D01*
X71260Y118842D01*
X71254Y118849D01*
X70454Y118749D01*
X70438Y118733D01*
X70425Y118735D01*
X70025Y118335D01*
X70022Y118314D01*
X70011Y118308D01*
X69911Y117708D01*
X69914Y117703D01*
X69911Y117700D01*
X69911Y116357D01*
X69267Y116449D01*
X69262Y116446D01*
X69260Y116449D01*
X68560Y116449D01*
X68555Y116446D01*
X68542Y116436D01*
X68530Y116439D01*
X68130Y116139D01*
X68126Y116123D01*
X68114Y116114D01*
X68113Y116114D01*
X68099Y116065D01*
X68085Y116016D01*
X68043Y115868D01*
X68000Y115720D01*
X67986Y115671D01*
X67944Y115523D01*
X67913Y115414D01*
X67918Y115401D01*
X67911Y115395D01*
X68011Y114495D01*
X68030Y114474D01*
X68030Y114461D01*
X68430Y114161D01*
X68448Y114161D01*
X68453Y114151D01*
X69153Y114051D01*
X69163Y114057D01*
X69168Y114051D01*
X69727Y114145D01*
X69911Y113592D01*
X69911Y112314D01*
X69630Y111845D01*
X68953Y111749D01*
X68943Y111739D01*
X68935Y111742D01*
X68435Y111442D01*
X68425Y111418D01*
X68413Y111414D01*
X68391Y111337D01*
X68377Y111288D01*
X68335Y111140D01*
X68292Y110992D01*
X68278Y110943D01*
X68236Y110795D01*
X68213Y110714D01*
X68219Y110698D01*
X68217Y110697D01*
X68219Y110695D01*
X68213Y110686D01*
X68413Y109986D01*
X68427Y109976D01*
X68425Y109965D01*
X68825Y109565D01*
X68852Y109562D01*
X68860Y109551D01*
X70260Y109551D01*
X70268Y109557D01*
G37*
G36*
X78065Y109554D02*
X78065Y109554D01*
X78068Y109551D01*
X78668Y109651D01*
X78671Y109655D01*
X78674Y109653D01*
X79374Y109853D01*
X79380Y109862D01*
X79387Y109859D01*
X79987Y110259D01*
X79990Y110266D01*
X79995Y110265D01*
X80495Y110765D01*
X80495Y110769D01*
X80498Y110769D01*
X80898Y111269D01*
X80899Y111277D01*
X80904Y111278D01*
X81204Y111878D01*
X81202Y111889D01*
X81209Y111893D01*
X81309Y112593D01*
X81306Y112598D01*
X81309Y112600D01*
X81309Y113300D01*
X81306Y113304D01*
X81309Y113307D01*
X81209Y114007D01*
X81204Y114012D01*
X81207Y114016D01*
X81007Y114616D01*
X80999Y114621D01*
X81001Y114627D01*
X80601Y115227D01*
X80598Y115228D01*
X80598Y115231D01*
X80198Y115731D01*
X80188Y115733D01*
X80187Y115741D01*
X79587Y116141D01*
X79578Y116140D01*
X79576Y116147D01*
X78976Y116347D01*
X78974Y116346D01*
X78974Y116347D01*
X78274Y116547D01*
X78266Y116544D01*
X78264Y116544D01*
X78260Y116549D01*
X77660Y116549D01*
X77656Y116546D01*
X77653Y116549D01*
X76953Y116449D01*
X76950Y116446D01*
X76949Y116446D01*
X76946Y116447D01*
X76246Y116247D01*
X76240Y116239D01*
X76233Y116241D01*
X75633Y115841D01*
X75629Y115831D01*
X75622Y115831D01*
X75222Y115331D01*
X75221Y115302D01*
X75211Y115292D01*
X75311Y114692D01*
X75323Y114681D01*
X75320Y114671D01*
X75820Y113971D01*
X75834Y113967D01*
X75835Y113958D01*
X76335Y113658D01*
X76367Y113661D01*
X76378Y113654D01*
X76878Y113854D01*
X76879Y113855D01*
X77570Y114151D01*
X78243Y114151D01*
X78718Y113771D01*
X78912Y113189D01*
X79007Y112520D01*
X78439Y112046D01*
X77863Y111950D01*
X77178Y112146D01*
X76582Y112444D01*
X76553Y112439D01*
X76542Y112446D01*
X76042Y112246D01*
X76033Y112231D01*
X76022Y112232D01*
X75522Y111632D01*
X75522Y111623D01*
X75516Y111622D01*
X75216Y111022D01*
X75221Y110993D01*
X75214Y110982D01*
X75414Y110482D01*
X75429Y110473D01*
X75428Y110462D01*
X76028Y109962D01*
X76037Y109962D01*
X76038Y109956D01*
X76638Y109656D01*
X76649Y109658D01*
X76653Y109651D01*
X77353Y109551D01*
X77358Y109554D01*
X77360Y109551D01*
X78060Y109551D01*
X78065Y109554D01*
G37*
%LPC*%
G36*
X168420Y34159D02*
X168420Y34159D01*
X168046Y34533D01*
X167949Y35213D01*
X167949Y37910D01*
X167933Y37931D01*
X167935Y37945D01*
X167335Y38545D01*
X167309Y38548D01*
X167301Y38559D01*
X161205Y38659D01*
X160631Y38755D01*
X160349Y39224D01*
X160349Y40102D01*
X160539Y40671D01*
X161108Y40861D01*
X168536Y40861D01*
X168552Y40798D01*
X168599Y40761D01*
X168600Y40761D01*
X169284Y40761D01*
X169654Y40483D01*
X169751Y39807D01*
X169751Y35013D01*
X169656Y34347D01*
X169092Y34159D01*
X168420Y34159D01*
G37*
%LPD*%
%LPC*%
G36*
X143117Y25649D02*
X143117Y25649D01*
X142646Y26026D01*
X142549Y26703D01*
X142549Y30100D01*
X142513Y30147D01*
X142506Y30142D01*
X142500Y30149D01*
X135904Y30149D01*
X135331Y30245D01*
X135048Y30716D01*
X134950Y31495D01*
X135141Y32067D01*
X135614Y32351D01*
X143097Y32351D01*
X143787Y32252D01*
X144255Y32065D01*
X144351Y31397D01*
X144351Y26603D01*
X144255Y25930D01*
X143786Y25649D01*
X143117Y25649D01*
G37*
%LPD*%
G36*
X54543Y85345D02*
X54543Y85345D01*
X54549Y85344D01*
X55186Y85367D01*
X55198Y85371D01*
X55210Y85369D01*
X55263Y85393D01*
X55318Y85411D01*
X55326Y85421D01*
X55338Y85426D01*
X55370Y85475D01*
X55406Y85520D01*
X55408Y85532D01*
X55415Y85543D01*
X55426Y85616D01*
X55426Y90645D01*
X56495Y90645D01*
X56520Y90652D01*
X56545Y90650D01*
X56615Y90676D01*
X56897Y90830D01*
X56935Y90867D01*
X56977Y90899D01*
X56984Y90916D01*
X56996Y90929D01*
X57008Y90980D01*
X57026Y91030D01*
X57023Y91048D01*
X57026Y91065D01*
X57008Y91115D01*
X56997Y91167D01*
X56982Y91187D01*
X56978Y91196D01*
X56970Y91203D01*
X56952Y91227D01*
X56011Y92150D01*
X55979Y92168D01*
X55952Y92193D01*
X55892Y92214D01*
X55888Y92216D01*
X55886Y92216D01*
X55882Y92217D01*
X55457Y92297D01*
X55422Y92719D01*
X55420Y92726D01*
X55419Y92743D01*
X55301Y93390D01*
X55299Y93395D01*
X55299Y93401D01*
X55272Y93470D01*
X54943Y94037D01*
X54934Y94045D01*
X54930Y94057D01*
X54879Y94110D01*
X54358Y94508D01*
X54353Y94510D01*
X54350Y94514D01*
X54283Y94547D01*
X53658Y94749D01*
X53648Y94749D01*
X53599Y94760D01*
X52943Y94808D01*
X52933Y94806D01*
X52909Y94808D01*
X52251Y94767D01*
X52224Y94757D01*
X52195Y94757D01*
X52159Y94733D01*
X52119Y94719D01*
X52102Y94696D01*
X52078Y94680D01*
X52038Y94618D01*
X51835Y94151D01*
X51833Y94137D01*
X51825Y94125D01*
X51814Y94052D01*
X51814Y93392D01*
X51825Y93355D01*
X51826Y93316D01*
X51844Y93289D01*
X51853Y93258D01*
X51882Y93232D01*
X51904Y93200D01*
X51953Y93171D01*
X51958Y93166D01*
X51962Y93166D01*
X51968Y93162D01*
X52409Y92979D01*
X52417Y92978D01*
X52470Y92962D01*
X52973Y92893D01*
X53121Y92542D01*
X53069Y92428D01*
X53027Y92334D01*
X52529Y92334D01*
X52483Y92320D01*
X52436Y92316D01*
X52405Y92298D01*
X52394Y92295D01*
X52389Y92288D01*
X52381Y92284D01*
X52372Y92278D01*
X52007Y91983D01*
X52006Y91981D01*
X52003Y91980D01*
X51966Y91923D01*
X51928Y91868D01*
X51927Y91865D01*
X51926Y91863D01*
X51915Y91789D01*
X51915Y91130D01*
X51921Y91107D01*
X51919Y91083D01*
X51941Y91041D01*
X51954Y90996D01*
X51972Y90980D01*
X51983Y90959D01*
X52041Y90913D01*
X52463Y90675D01*
X52489Y90669D01*
X52512Y90654D01*
X52585Y90643D01*
X53058Y90643D01*
X53145Y90346D01*
X53145Y85765D01*
X53157Y85722D01*
X53161Y85677D01*
X53176Y85656D01*
X53184Y85631D01*
X53218Y85601D01*
X53245Y85565D01*
X53281Y85546D01*
X53289Y85539D01*
X53296Y85538D01*
X53311Y85530D01*
X53798Y85358D01*
X53803Y85358D01*
X53807Y85355D01*
X53881Y85344D01*
X54540Y85344D01*
X54543Y85345D01*
G37*
G36*
X130363Y109553D02*
X130363Y109553D01*
X130365Y109551D01*
X131265Y109651D01*
X131275Y109660D01*
X131282Y109656D01*
X131882Y109956D01*
X131887Y109966D01*
X131895Y109965D01*
X132295Y110365D01*
X132298Y110385D01*
X132308Y110390D01*
X132408Y110890D01*
X132407Y110892D01*
X132409Y110893D01*
X132509Y111593D01*
X132508Y111594D01*
X132509Y111594D01*
X132609Y112394D01*
X132607Y112398D01*
X132609Y112400D01*
X132609Y118500D01*
X132606Y118504D01*
X132609Y118507D01*
X132509Y119207D01*
X132496Y119219D01*
X132499Y119230D01*
X132199Y119630D01*
X132172Y119637D01*
X132165Y119649D01*
X131265Y119749D01*
X131260Y119746D01*
X131249Y119746D01*
X131246Y119747D01*
X130546Y119547D01*
X130531Y119527D01*
X130518Y119525D01*
X130218Y119025D01*
X130218Y119021D01*
X130217Y119020D01*
X130219Y119017D01*
X130220Y119007D01*
X130211Y119000D01*
X130211Y112216D01*
X129931Y111843D01*
X129246Y111647D01*
X129229Y111625D01*
X129216Y111622D01*
X129016Y111222D01*
X129019Y111206D01*
X129011Y111200D01*
X129011Y110300D01*
X129018Y110291D01*
X129013Y110284D01*
X129213Y109684D01*
X129243Y109664D01*
X129248Y109652D01*
X129648Y109552D01*
X129656Y109556D01*
X129660Y109551D01*
X130360Y109551D01*
X130363Y109553D01*
G37*
G36*
X124863Y109553D02*
X124863Y109553D01*
X124865Y109551D01*
X125765Y109651D01*
X125775Y109660D01*
X125782Y109656D01*
X126382Y109956D01*
X126389Y109970D01*
X126399Y109970D01*
X126699Y110370D01*
X126699Y110380D01*
X126706Y110382D01*
X126906Y110882D01*
X126903Y110890D01*
X126909Y110893D01*
X127009Y111593D01*
X127006Y111598D01*
X127009Y111600D01*
X127009Y119200D01*
X126993Y119221D01*
X126995Y119235D01*
X126595Y119635D01*
X126572Y119638D01*
X126566Y119649D01*
X125766Y119749D01*
X125760Y119746D01*
X125749Y119746D01*
X125746Y119747D01*
X125046Y119547D01*
X125031Y119527D01*
X125018Y119525D01*
X124718Y119025D01*
X124718Y119021D01*
X124717Y119020D01*
X124719Y119017D01*
X124720Y119007D01*
X124711Y119000D01*
X124711Y112220D01*
X124333Y111843D01*
X123744Y111647D01*
X123733Y111630D01*
X123721Y111630D01*
X123421Y111230D01*
X123421Y111208D01*
X123411Y111200D01*
X123411Y110300D01*
X123418Y110291D01*
X123413Y110284D01*
X123613Y109684D01*
X123643Y109664D01*
X123648Y109652D01*
X124048Y109552D01*
X124056Y109556D01*
X124060Y109551D01*
X124860Y109551D01*
X124863Y109553D01*
G37*
G36*
X17762Y109556D02*
X17762Y109556D01*
X17767Y109551D01*
X18467Y109651D01*
X18489Y109673D01*
X18502Y109675D01*
X18802Y110175D01*
X18802Y110178D01*
X18800Y110193D01*
X18809Y110200D01*
X18809Y115600D01*
X18802Y115609D01*
X18807Y115616D01*
X18607Y116216D01*
X18580Y116234D01*
X18576Y116247D01*
X17976Y116447D01*
X17971Y116445D01*
X17971Y116446D01*
X17963Y116446D01*
X17960Y116449D01*
X17060Y116449D01*
X17055Y116446D01*
X17054Y116446D01*
X17044Y116438D01*
X17035Y116442D01*
X16535Y116142D01*
X16529Y116128D01*
X16519Y116127D01*
X16349Y115872D01*
X15891Y116238D01*
X15881Y116239D01*
X15879Y116245D01*
X15179Y116545D01*
X15172Y116544D01*
X15158Y116544D01*
X15153Y116549D01*
X14453Y116449D01*
X14452Y116448D01*
X14452Y116449D01*
X13852Y116349D01*
X13830Y116325D01*
X13829Y116324D01*
X13816Y116322D01*
X13516Y115722D01*
X13516Y115720D01*
X13519Y115706D01*
X13511Y115700D01*
X13511Y115100D01*
X13519Y115089D01*
X13515Y115081D01*
X13815Y114381D01*
X13830Y114372D01*
X13829Y114362D01*
X14329Y113962D01*
X14365Y113961D01*
X14376Y113953D01*
X14971Y114152D01*
X15652Y114249D01*
X16220Y113965D01*
X16411Y113392D01*
X16411Y110700D01*
X16414Y110696D01*
X16411Y110693D01*
X16511Y109993D01*
X16530Y109974D01*
X16530Y109961D01*
X16930Y109661D01*
X16948Y109661D01*
X16954Y109651D01*
X17754Y109551D01*
X17762Y109556D01*
G37*
G36*
X67222Y85360D02*
X67222Y85360D01*
X67267Y85363D01*
X67303Y85383D01*
X67313Y85386D01*
X67318Y85392D01*
X67332Y85400D01*
X67700Y85687D01*
X67703Y85691D01*
X67708Y85694D01*
X67744Y85748D01*
X67782Y85801D01*
X67782Y85806D01*
X67785Y85810D01*
X67796Y85884D01*
X67796Y91785D01*
X67782Y91834D01*
X67776Y91884D01*
X67764Y91898D01*
X67761Y91910D01*
X67759Y91911D01*
X67757Y91919D01*
X67719Y91953D01*
X67686Y91992D01*
X67669Y91997D01*
X67660Y92006D01*
X67656Y92007D01*
X67652Y92011D01*
X67639Y92013D01*
X67589Y92030D01*
X66299Y92260D01*
X66263Y92256D01*
X66229Y92263D01*
X66163Y92246D01*
X66160Y92245D01*
X66159Y92245D01*
X66157Y92244D01*
X65753Y92071D01*
X65724Y92047D01*
X65689Y92032D01*
X65671Y92004D01*
X65645Y91983D01*
X65633Y91947D01*
X65612Y91916D01*
X65603Y91855D01*
X65602Y91850D01*
X65602Y91847D01*
X65601Y91842D01*
X65601Y91655D01*
X65452Y91834D01*
X65449Y91836D01*
X65399Y91881D01*
X64857Y92245D01*
X64853Y92246D01*
X64793Y92276D01*
X64170Y92473D01*
X64167Y92473D01*
X64164Y92475D01*
X64090Y92485D01*
X63439Y92471D01*
X63375Y92451D01*
X63310Y92432D01*
X63308Y92430D01*
X63306Y92429D01*
X63262Y92377D01*
X63218Y92326D01*
X63217Y92324D01*
X63216Y92322D01*
X63216Y92318D01*
X63197Y92255D01*
X63119Y91659D01*
X63120Y91650D01*
X63116Y91626D01*
X63116Y90971D01*
X63124Y90944D01*
X63123Y90915D01*
X63150Y90846D01*
X63375Y90455D01*
X63391Y90440D01*
X63400Y90420D01*
X63403Y90419D01*
X63405Y90414D01*
X63443Y90390D01*
X63476Y90358D01*
X63501Y90353D01*
X63502Y90353D01*
X63517Y90343D01*
X63523Y90340D01*
X63597Y90330D01*
X64215Y90344D01*
X64757Y90198D01*
X65171Y89850D01*
X65412Y89343D01*
X65508Y88751D01*
X65515Y86149D01*
X65518Y86138D01*
X65519Y86104D01*
X65622Y85551D01*
X65651Y85494D01*
X65677Y85435D01*
X65682Y85432D01*
X65685Y85426D01*
X65741Y85394D01*
X65794Y85358D01*
X65802Y85357D01*
X65806Y85355D01*
X65814Y85355D01*
X65867Y85347D01*
X67179Y85347D01*
X67222Y85360D01*
G37*
%LPC*%
G36*
X168641Y73006D02*
X168641Y73006D01*
X168634Y73046D01*
X168613Y73042D01*
X168600Y73059D01*
X161204Y73059D01*
X160633Y73154D01*
X160349Y73722D01*
X160349Y74596D01*
X160634Y75070D01*
X161109Y75261D01*
X168597Y75261D01*
X169281Y75163D01*
X169654Y74883D01*
X169750Y74210D01*
X169653Y73433D01*
X169280Y73059D01*
X168700Y73059D01*
X168668Y73035D01*
X168656Y73033D01*
X168641Y73005D01*
X168641Y73006D01*
G37*
%LPD*%
%LPC*%
G36*
X188104Y46979D02*
X188104Y46979D01*
X187524Y47076D01*
X187149Y47450D01*
X187149Y48326D01*
X187244Y48897D01*
X187812Y49181D01*
X195197Y49181D01*
X195887Y49082D01*
X196361Y48893D01*
X196550Y48325D01*
X196453Y47449D01*
X196172Y47075D01*
X195596Y46979D01*
X188104Y46979D01*
G37*
%LPD*%
%LPC*%
G36*
X213746Y71790D02*
X213746Y71790D01*
X213988Y71827D01*
X213989Y71828D01*
X213989Y71827D01*
X214509Y71918D01*
X214516Y71924D01*
X214529Y71925D01*
X214981Y72178D01*
X214985Y72187D01*
X214999Y72193D01*
X215326Y72595D01*
X215327Y72603D01*
X215333Y72607D01*
X215333Y72609D01*
X215336Y72611D01*
X215531Y73096D01*
X215530Y73103D01*
X215535Y73111D01*
X215612Y73635D01*
X215609Y73641D01*
X215612Y73651D01*
X215550Y74175D01*
X215546Y74180D01*
X215547Y74187D01*
X215385Y74684D01*
X215379Y74688D01*
X215377Y74700D01*
X215083Y75129D01*
X215074Y75133D01*
X215067Y75145D01*
X214636Y75443D01*
X214626Y75443D01*
X214614Y75453D01*
X214096Y75565D01*
X214089Y75562D01*
X214077Y75566D01*
X213746Y75536D01*
X213746Y77055D01*
X213746Y77056D01*
X213741Y77456D01*
X214276Y77455D01*
X215312Y77274D01*
X215807Y77149D01*
X216686Y76586D01*
X216964Y76320D01*
X216964Y76317D01*
X217616Y75361D01*
X217758Y74873D01*
X217939Y73840D01*
X217904Y73330D01*
X217721Y72299D01*
X217494Y71845D01*
X216921Y70975D01*
X216040Y70418D01*
X215581Y70200D01*
X214547Y70022D01*
X214024Y69963D01*
X214022Y69963D01*
X213746Y69922D01*
X213746Y71790D01*
G37*
%LPD*%
%LPC*%
G36*
X218589Y70043D02*
X218589Y70043D01*
X218535Y70043D01*
X218535Y77109D01*
X218534Y77110D01*
X218535Y77112D01*
X218528Y77122D01*
X218527Y77393D01*
X220849Y77393D01*
X220845Y77252D01*
X220846Y77251D01*
X220856Y70053D01*
X220705Y70043D01*
X218589Y70043D01*
G37*
%LPD*%
%LPC*%
G36*
X221776Y70043D02*
X221776Y70043D01*
X221478Y70049D01*
X221488Y77342D01*
X221488Y77345D01*
X221483Y77393D01*
X223357Y77393D01*
X223733Y77373D01*
X223735Y77374D01*
X223739Y77373D01*
X223799Y77374D01*
X223799Y70071D01*
X223362Y70043D01*
X221776Y70043D01*
G37*
%LPD*%
G36*
X165408Y79567D02*
X165408Y79567D01*
X165414Y79563D01*
X166114Y79763D01*
X166122Y79774D01*
X166131Y79772D01*
X167131Y80572D01*
X167134Y80586D01*
X167144Y80588D01*
X167544Y81388D01*
X167541Y81404D01*
X167549Y81410D01*
X167549Y82810D01*
X167541Y82821D01*
X167546Y82828D01*
X167346Y83328D01*
X167305Y83353D01*
X167300Y83359D01*
X163200Y83359D01*
X163195Y83356D01*
X163192Y83359D01*
X162592Y83259D01*
X162558Y83223D01*
X162553Y83219D01*
X162553Y83218D01*
X162551Y83215D01*
X162554Y83213D01*
X162551Y83210D01*
X162551Y81910D01*
X162554Y81906D01*
X162551Y81903D01*
X162651Y81203D01*
X162659Y81195D01*
X162656Y81188D01*
X162956Y80588D01*
X162966Y80583D01*
X162965Y80575D01*
X163465Y80075D01*
X163477Y80074D01*
X163478Y80066D01*
X164078Y79766D01*
X164083Y79767D01*
X164084Y79763D01*
X164684Y79563D01*
X164695Y79567D01*
X164700Y79561D01*
X165400Y79561D01*
X165408Y79567D01*
G37*
G36*
X64207Y27621D02*
X64207Y27621D01*
X64215Y27629D01*
X64222Y27626D01*
X64822Y27926D01*
X64827Y27936D01*
X64835Y27935D01*
X65835Y28935D01*
X65836Y28947D01*
X65844Y28948D01*
X65944Y29148D01*
X65941Y29164D01*
X65949Y29170D01*
X65949Y31170D01*
X65913Y31217D01*
X65910Y31215D01*
X65908Y31219D01*
X65308Y31319D01*
X65303Y31316D01*
X65300Y31319D01*
X61300Y31319D01*
X61274Y31300D01*
X61261Y31300D01*
X60961Y30900D01*
X60961Y30889D01*
X60953Y30883D01*
X60958Y30876D01*
X60951Y30870D01*
X60951Y29470D01*
X60960Y29457D01*
X60956Y29448D01*
X61256Y28848D01*
X61263Y28845D01*
X61262Y28839D01*
X61662Y28339D01*
X61669Y28337D01*
X61669Y28332D01*
X62169Y27932D01*
X62177Y27931D01*
X62178Y27926D01*
X62778Y27626D01*
X62789Y27628D01*
X62793Y27621D01*
X63493Y27521D01*
X63502Y27526D01*
X63507Y27521D01*
X64207Y27621D01*
G37*
G36*
X114709Y39328D02*
X114709Y39328D01*
X114716Y39323D01*
X115316Y39523D01*
X115321Y39531D01*
X115327Y39529D01*
X115927Y39929D01*
X115930Y39936D01*
X115935Y39935D01*
X116335Y40335D01*
X116337Y40348D01*
X116345Y40350D01*
X116745Y41250D01*
X116742Y41264D01*
X116749Y41270D01*
X116749Y42570D01*
X116740Y42583D01*
X116744Y42592D01*
X116544Y42992D01*
X116507Y43011D01*
X116500Y43019D01*
X111800Y43019D01*
X111753Y42983D01*
X111755Y42980D01*
X111753Y42979D01*
X111756Y42974D01*
X111751Y42970D01*
X111751Y41570D01*
X111754Y41566D01*
X111751Y41563D01*
X111851Y40863D01*
X111864Y40850D01*
X111862Y40839D01*
X112662Y39839D01*
X112672Y39837D01*
X112673Y39829D01*
X113273Y39429D01*
X113288Y39430D01*
X113293Y39421D01*
X113993Y39321D01*
X113998Y39324D01*
X114000Y39321D01*
X114700Y39321D01*
X114709Y39328D01*
G37*
G36*
X167021Y45177D02*
X167021Y45177D01*
X167035Y45175D01*
X167435Y45575D01*
X167436Y45587D01*
X167441Y45591D01*
X167438Y45596D01*
X167449Y45602D01*
X167549Y46202D01*
X167546Y46207D01*
X167549Y46210D01*
X167549Y47610D01*
X167545Y47616D01*
X167548Y47620D01*
X167448Y48120D01*
X167404Y48159D01*
X167402Y48157D01*
X167400Y48159D01*
X162600Y48159D01*
X162553Y48123D01*
X162558Y48116D01*
X162551Y48110D01*
X162551Y46110D01*
X162560Y46097D01*
X162556Y46088D01*
X162856Y45488D01*
X162893Y45470D01*
X162900Y45461D01*
X163600Y45461D01*
X163626Y45480D01*
X163639Y45480D01*
X163939Y45880D01*
X163939Y45886D01*
X163940Y45886D01*
X163939Y45886D01*
X163939Y45898D01*
X163949Y45903D01*
X164047Y46593D01*
X164328Y47061D01*
X165091Y47061D01*
X165559Y46873D01*
X165752Y46200D01*
X165851Y45503D01*
X165873Y45481D01*
X165875Y45468D01*
X166375Y45168D01*
X166393Y45170D01*
X166400Y45161D01*
X167000Y45161D01*
X167021Y45177D01*
G37*
G36*
X121075Y113262D02*
X121075Y113262D01*
X121085Y113258D01*
X121585Y113558D01*
X121593Y113577D01*
X121600Y113582D01*
X121597Y113586D01*
X121609Y113593D01*
X121709Y114293D01*
X121704Y114302D01*
X121709Y114307D01*
X121609Y115007D01*
X121587Y115029D01*
X121585Y115042D01*
X121085Y115342D01*
X121067Y115340D01*
X121060Y115349D01*
X117660Y115349D01*
X117656Y115346D01*
X117653Y115349D01*
X116953Y115249D01*
X116929Y115224D01*
X116916Y115222D01*
X116616Y114622D01*
X116619Y114606D01*
X116611Y114600D01*
X116611Y113900D01*
X116620Y113887D01*
X116616Y113878D01*
X116916Y113278D01*
X116953Y113260D01*
X116960Y113251D01*
X121060Y113251D01*
X121075Y113262D01*
G37*
G36*
X242146Y71832D02*
X242146Y71832D01*
X242153Y71837D01*
X242165Y71836D01*
X242637Y72033D01*
X242642Y72040D01*
X242655Y72044D01*
X243038Y72389D01*
X243040Y72398D01*
X243051Y72405D01*
X243306Y72862D01*
X243306Y72871D01*
X243313Y72882D01*
X243405Y73395D01*
X243403Y73400D01*
X243406Y73406D01*
X243412Y73923D01*
X243409Y73927D01*
X243411Y73933D01*
X243331Y74451D01*
X243325Y74458D01*
X243324Y74472D01*
X243069Y74929D01*
X243062Y74933D01*
X243058Y74944D01*
X242686Y75299D01*
X242677Y75301D01*
X242669Y75311D01*
X242203Y75522D01*
X242195Y75521D01*
X242185Y75527D01*
X241672Y75590D01*
X241664Y75586D01*
X241652Y75589D01*
X241139Y75483D01*
X241132Y75476D01*
X241115Y75473D01*
X240690Y75174D01*
X240687Y75166D01*
X240675Y75159D01*
X240375Y74741D01*
X240375Y74734D01*
X240367Y74726D01*
X240189Y74242D01*
X240191Y74237D01*
X240186Y74230D01*
X240107Y73713D01*
X240111Y73706D01*
X240107Y73694D01*
X240181Y73177D01*
X240184Y73173D01*
X240183Y73165D01*
X240350Y72678D01*
X240355Y72673D01*
X240357Y72663D01*
X240646Y72235D01*
X240654Y72232D01*
X240660Y72220D01*
X241078Y71905D01*
X241088Y71904D01*
X241103Y71893D01*
X241615Y71786D01*
X241623Y71789D01*
X241634Y71785D01*
X242146Y71832D01*
G37*
%LPC*%
G36*
X77954Y87128D02*
X77954Y87128D01*
X77544Y87472D01*
X77306Y87988D01*
X77208Y88606D01*
X77205Y88612D01*
X77206Y88618D01*
X77176Y88674D01*
X77148Y88732D01*
X77143Y88736D01*
X77140Y88741D01*
X77081Y88786D01*
X77015Y88822D01*
X77181Y89069D01*
X77184Y89079D01*
X77191Y89087D01*
X77217Y89156D01*
X77346Y89764D01*
X77613Y90261D01*
X78041Y90581D01*
X78575Y90667D01*
X79094Y90532D01*
X79485Y90165D01*
X79709Y89639D01*
X79801Y89020D01*
X79825Y88966D01*
X79859Y88893D01*
X79916Y88845D01*
X79987Y88801D01*
X79908Y88751D01*
X79865Y88702D01*
X79820Y88654D01*
X79818Y88648D01*
X79816Y88645D01*
X79815Y88638D01*
X79797Y88584D01*
X79689Y87968D01*
X79440Y87459D01*
X79022Y87122D01*
X78487Y87018D01*
X77954Y87128D01*
G37*
%LPD*%
%LPC*%
G36*
X24368Y111949D02*
X24368Y111949D01*
X23789Y112142D01*
X23407Y112620D01*
X23311Y113391D01*
X23599Y113968D01*
X24077Y114351D01*
X24748Y114351D01*
X25325Y114062D01*
X25613Y113583D01*
X25709Y112908D01*
X25421Y112332D01*
X24943Y111949D01*
X24368Y111949D01*
G37*
%LPD*%
%LPC*%
G36*
X137780Y111949D02*
X137780Y111949D01*
X137306Y112424D01*
X137210Y112997D01*
X137221Y113034D01*
X137263Y113182D01*
X137277Y113231D01*
X137319Y113379D01*
X137320Y113379D01*
X137319Y113379D01*
X137362Y113527D01*
X137376Y113576D01*
X137403Y113671D01*
X137877Y114051D01*
X138546Y114051D01*
X139022Y113765D01*
X139312Y113185D01*
X139407Y112522D01*
X139034Y112242D01*
X138448Y111949D01*
X137780Y111949D01*
G37*
%LPD*%
%LPC*%
G36*
X71297Y86930D02*
X71297Y86930D01*
X70856Y87207D01*
X70610Y87730D01*
X70569Y87777D01*
X70530Y87827D01*
X70521Y87831D01*
X70517Y87835D01*
X70509Y87838D01*
X70464Y87861D01*
X70432Y87871D01*
X70536Y88005D01*
X70549Y88039D01*
X70572Y88069D01*
X70585Y88131D01*
X70587Y88136D01*
X70587Y88137D01*
X70588Y88141D01*
X70605Y88395D01*
X70915Y88285D01*
X70926Y88284D01*
X70962Y88273D01*
X71607Y88177D01*
X72181Y88037D01*
X72624Y87653D01*
X72661Y87636D01*
X72624Y87371D01*
X72352Y86979D01*
X71850Y86867D01*
X71297Y86930D01*
G37*
%LPD*%
G36*
X165681Y56667D02*
X165681Y56667D01*
X165736Y56677D01*
X165733Y56694D01*
X165749Y56702D01*
X165849Y57302D01*
X165846Y57307D01*
X165849Y57310D01*
X165849Y57910D01*
X165840Y57923D01*
X165844Y57932D01*
X165644Y58332D01*
X165591Y58358D01*
X165587Y58351D01*
X165579Y58355D01*
X164279Y57755D01*
X164251Y57702D01*
X164261Y57697D01*
X164256Y57688D01*
X164456Y57288D01*
X164476Y57278D01*
X164478Y57266D01*
X165678Y56666D01*
X165679Y56666D01*
X165679Y56665D01*
X165681Y56667D01*
G37*
G36*
X114716Y29833D02*
X114716Y29833D01*
X114727Y29829D01*
X115027Y30029D01*
X115033Y30046D01*
X115043Y30054D01*
X115038Y30060D01*
X115039Y30062D01*
X115049Y30070D01*
X115049Y31370D01*
X115048Y31372D01*
X115049Y31375D01*
X115043Y31378D01*
X115013Y31417D01*
X114998Y31406D01*
X114982Y31416D01*
X113682Y30916D01*
X113669Y30894D01*
X113656Y30892D01*
X113456Y30492D01*
X113467Y30434D01*
X113476Y30435D01*
X113478Y30426D01*
X114678Y29826D01*
X114716Y29833D01*
G37*
%LPC*%
G36*
X207828Y113649D02*
X207828Y113649D01*
X208006Y114182D01*
X208553Y115366D01*
X208613Y115184D01*
X208618Y115181D01*
X208616Y115178D01*
X209205Y114000D01*
X209030Y113649D01*
X207828Y113649D01*
G37*
%LPD*%
%LPC*%
G36*
X49474Y113649D02*
X49474Y113649D01*
X49019Y113922D01*
X49197Y114456D01*
X49855Y114550D01*
X50433Y114357D01*
X50897Y113894D01*
X50734Y113649D01*
X49474Y113649D01*
G37*
%LPD*%
%LPC*%
G36*
X87381Y113645D02*
X87381Y113645D01*
X87368Y113638D01*
X87360Y113649D01*
X86074Y113649D01*
X85624Y113919D01*
X85893Y114456D01*
X86456Y114549D01*
X87033Y114357D01*
X87504Y113887D01*
X87413Y113616D01*
X87414Y113613D01*
X87412Y113612D01*
X87408Y113594D01*
X87381Y113645D01*
G37*
%LPD*%
D10*
X135382Y62738D02*
X115062Y62738D01*
X115062Y95758D02*
X135382Y95758D01*
D11*
X139192Y100838D02*
X139194Y100909D01*
X139200Y100980D01*
X139210Y101051D01*
X139224Y101121D01*
X139242Y101190D01*
X139263Y101257D01*
X139289Y101324D01*
X139318Y101389D01*
X139350Y101452D01*
X139387Y101514D01*
X139426Y101573D01*
X139469Y101630D01*
X139515Y101684D01*
X139564Y101736D01*
X139616Y101785D01*
X139670Y101831D01*
X139727Y101874D01*
X139786Y101913D01*
X139848Y101950D01*
X139911Y101982D01*
X139976Y102011D01*
X140043Y102037D01*
X140110Y102058D01*
X140179Y102076D01*
X140249Y102090D01*
X140320Y102100D01*
X140391Y102106D01*
X140462Y102108D01*
X140533Y102106D01*
X140604Y102100D01*
X140675Y102090D01*
X140745Y102076D01*
X140814Y102058D01*
X140881Y102037D01*
X140948Y102011D01*
X141013Y101982D01*
X141076Y101950D01*
X141138Y101913D01*
X141197Y101874D01*
X141254Y101831D01*
X141308Y101785D01*
X141360Y101736D01*
X141409Y101684D01*
X141455Y101630D01*
X141498Y101573D01*
X141537Y101514D01*
X141574Y101452D01*
X141606Y101389D01*
X141635Y101324D01*
X141661Y101257D01*
X141682Y101190D01*
X141700Y101121D01*
X141714Y101051D01*
X141724Y100980D01*
X141730Y100909D01*
X141732Y100838D01*
X141730Y100767D01*
X141724Y100696D01*
X141714Y100625D01*
X141700Y100555D01*
X141682Y100486D01*
X141661Y100419D01*
X141635Y100352D01*
X141606Y100287D01*
X141574Y100224D01*
X141537Y100162D01*
X141498Y100103D01*
X141455Y100046D01*
X141409Y99992D01*
X141360Y99940D01*
X141308Y99891D01*
X141254Y99845D01*
X141197Y99802D01*
X141138Y99763D01*
X141076Y99726D01*
X141013Y99694D01*
X140948Y99665D01*
X140881Y99639D01*
X140814Y99618D01*
X140745Y99600D01*
X140675Y99586D01*
X140604Y99576D01*
X140533Y99570D01*
X140462Y99568D01*
X140391Y99570D01*
X140320Y99576D01*
X140249Y99586D01*
X140179Y99600D01*
X140110Y99618D01*
X140043Y99639D01*
X139976Y99665D01*
X139911Y99694D01*
X139848Y99726D01*
X139786Y99763D01*
X139727Y99802D01*
X139670Y99845D01*
X139616Y99891D01*
X139564Y99940D01*
X139515Y99992D01*
X139469Y100046D01*
X139426Y100103D01*
X139387Y100162D01*
X139350Y100224D01*
X139318Y100287D01*
X139289Y100352D01*
X139263Y100419D01*
X139242Y100486D01*
X139224Y100555D01*
X139210Y100625D01*
X139200Y100696D01*
X139194Y100767D01*
X139192Y100838D01*
M02*
