G04 EAGLE Gerber RS-274X export*
G75*
%MOMM*%
%FSLAX34Y34*%
%LPD*%
%INSolderpaste Bottom*%
%IPPOS*%
%AMOC8*
5,1,8,0,0,1.08239X$1,22.5*%
G01*
%ADD10C,0.100581*%


D10*
X134489Y91039D02*
X143261Y91039D01*
X143261Y86457D01*
X134489Y86457D01*
X134489Y91039D01*
X134489Y87413D02*
X143261Y87413D01*
X143261Y88369D02*
X134489Y88369D01*
X134489Y89325D02*
X143261Y89325D01*
X143261Y90281D02*
X134489Y90281D01*
X134489Y81539D02*
X143261Y81539D01*
X143261Y76957D01*
X134489Y76957D01*
X134489Y81539D01*
X134489Y77913D02*
X143261Y77913D01*
X143261Y78869D02*
X134489Y78869D01*
X134489Y79825D02*
X143261Y79825D01*
X143261Y80781D02*
X134489Y80781D01*
X134489Y72039D02*
X143261Y72039D01*
X143261Y67457D01*
X134489Y67457D01*
X134489Y72039D01*
X134489Y68413D02*
X143261Y68413D01*
X143261Y69369D02*
X134489Y69369D01*
X134489Y70325D02*
X143261Y70325D01*
X143261Y71281D02*
X134489Y71281D01*
X115956Y72039D02*
X107184Y72039D01*
X115956Y72039D02*
X115956Y67457D01*
X107184Y67457D01*
X107184Y72039D01*
X107184Y68413D02*
X115956Y68413D01*
X115956Y69369D02*
X107184Y69369D01*
X107184Y70325D02*
X115956Y70325D01*
X115956Y71281D02*
X107184Y71281D01*
X107184Y81539D02*
X115956Y81539D01*
X115956Y76957D01*
X107184Y76957D01*
X107184Y81539D01*
X107184Y77913D02*
X115956Y77913D01*
X115956Y78869D02*
X107184Y78869D01*
X107184Y79825D02*
X115956Y79825D01*
X115956Y80781D02*
X107184Y80781D01*
X107184Y91039D02*
X115956Y91039D01*
X115956Y86457D01*
X107184Y86457D01*
X107184Y91039D01*
X107184Y87413D02*
X115956Y87413D01*
X115956Y88369D02*
X107184Y88369D01*
X107184Y89325D02*
X115956Y89325D01*
X115956Y90281D02*
X107184Y90281D01*
M02*
