G04 EAGLE Gerber RS-274X export*
G75*
%MOMM*%
%FSLAX34Y34*%
%LPD*%
%INSolderpaste Top*%
%IPPOS*%
%AMOC8*
5,1,8,0,0,1.08239X$1,22.5*%
G01*
%ADD10C,0.100000*%
%ADD11C,0.102000*%
%ADD12C,0.096000*%
%ADD13C,0.300000*%
%ADD14C,0.104000*%


D10*
X136200Y98370D02*
X126200Y98370D01*
X126200Y107370D01*
X136200Y107370D01*
X136200Y98370D01*
X136200Y99320D02*
X126200Y99320D01*
X126200Y100270D02*
X136200Y100270D01*
X136200Y101220D02*
X126200Y101220D01*
X126200Y102170D02*
X136200Y102170D01*
X136200Y103120D02*
X126200Y103120D01*
X126200Y104070D02*
X136200Y104070D01*
X136200Y105020D02*
X126200Y105020D01*
X126200Y105970D02*
X136200Y105970D01*
X136200Y106920D02*
X126200Y106920D01*
X143200Y98370D02*
X153200Y98370D01*
X143200Y98370D02*
X143200Y107370D01*
X153200Y107370D01*
X153200Y98370D01*
X153200Y99320D02*
X143200Y99320D01*
X143200Y100270D02*
X153200Y100270D01*
X153200Y101220D02*
X143200Y101220D01*
X143200Y102170D02*
X153200Y102170D01*
X153200Y103120D02*
X143200Y103120D01*
X143200Y104070D02*
X153200Y104070D01*
X153200Y105020D02*
X143200Y105020D01*
X143200Y105970D02*
X153200Y105970D01*
X153200Y106920D02*
X143200Y106920D01*
X106990Y41220D02*
X96990Y41220D01*
X96990Y50220D01*
X106990Y50220D01*
X106990Y41220D01*
X106990Y42170D02*
X96990Y42170D01*
X96990Y43120D02*
X106990Y43120D01*
X106990Y44070D02*
X96990Y44070D01*
X96990Y45020D02*
X106990Y45020D01*
X106990Y45970D02*
X96990Y45970D01*
X96990Y46920D02*
X106990Y46920D01*
X106990Y47870D02*
X96990Y47870D01*
X96990Y48820D02*
X106990Y48820D01*
X106990Y49770D02*
X96990Y49770D01*
X113990Y41220D02*
X123990Y41220D01*
X113990Y41220D02*
X113990Y50220D01*
X123990Y50220D01*
X123990Y41220D01*
X123990Y42170D02*
X113990Y42170D01*
X113990Y43120D02*
X123990Y43120D01*
X123990Y44070D02*
X113990Y44070D01*
X113990Y45020D02*
X123990Y45020D01*
X123990Y45970D02*
X113990Y45970D01*
X113990Y46920D02*
X123990Y46920D01*
X123990Y47870D02*
X113990Y47870D01*
X113990Y48820D02*
X123990Y48820D01*
X123990Y49770D02*
X113990Y49770D01*
X143200Y88320D02*
X153200Y88320D01*
X153200Y79320D01*
X143200Y79320D01*
X143200Y88320D01*
X143200Y80270D02*
X153200Y80270D01*
X153200Y81220D02*
X143200Y81220D01*
X143200Y82170D02*
X153200Y82170D01*
X153200Y83120D02*
X143200Y83120D01*
X143200Y84070D02*
X153200Y84070D01*
X153200Y85020D02*
X143200Y85020D01*
X143200Y85970D02*
X153200Y85970D01*
X153200Y86920D02*
X143200Y86920D01*
X143200Y87870D02*
X153200Y87870D01*
X136200Y88320D02*
X126200Y88320D01*
X136200Y88320D02*
X136200Y79320D01*
X126200Y79320D01*
X126200Y88320D01*
X126200Y80270D02*
X136200Y80270D01*
X136200Y81220D02*
X126200Y81220D01*
X126200Y82170D02*
X136200Y82170D01*
X136200Y83120D02*
X126200Y83120D01*
X126200Y84070D02*
X136200Y84070D01*
X136200Y85020D02*
X126200Y85020D01*
X126200Y85970D02*
X136200Y85970D01*
X136200Y86920D02*
X126200Y86920D01*
X126200Y87870D02*
X136200Y87870D01*
D11*
X46480Y76390D02*
X46480Y71410D01*
X32000Y71410D01*
X32000Y76390D01*
X46480Y76390D01*
X46480Y72379D02*
X32000Y72379D01*
X32000Y73348D02*
X46480Y73348D01*
X46480Y74317D02*
X32000Y74317D01*
X32000Y75286D02*
X46480Y75286D01*
X46480Y76255D02*
X32000Y76255D01*
X46480Y81410D02*
X46480Y86390D01*
X46480Y81410D02*
X32000Y81410D01*
X32000Y86390D01*
X46480Y86390D01*
X46480Y82379D02*
X32000Y82379D01*
X32000Y83348D02*
X46480Y83348D01*
X46480Y84317D02*
X32000Y84317D01*
X32000Y85286D02*
X46480Y85286D01*
X46480Y86255D02*
X32000Y86255D01*
X46480Y91410D02*
X46480Y96390D01*
X46480Y91410D02*
X32000Y91410D01*
X32000Y96390D01*
X46480Y96390D01*
X46480Y92379D02*
X32000Y92379D01*
X32000Y93348D02*
X46480Y93348D01*
X46480Y94317D02*
X32000Y94317D01*
X32000Y95286D02*
X46480Y95286D01*
X46480Y96255D02*
X32000Y96255D01*
X46480Y101410D02*
X46480Y106390D01*
X46480Y101410D02*
X32000Y101410D01*
X32000Y106390D01*
X46480Y106390D01*
X46480Y102379D02*
X32000Y102379D01*
X32000Y103348D02*
X46480Y103348D01*
X46480Y104317D02*
X32000Y104317D01*
X32000Y105286D02*
X46480Y105286D01*
X46480Y106255D02*
X32000Y106255D01*
D12*
X24510Y66420D02*
X24510Y55380D01*
X5470Y55380D01*
X5470Y66420D01*
X24510Y66420D01*
X24510Y56292D02*
X5470Y56292D01*
X5470Y57204D02*
X24510Y57204D01*
X24510Y58116D02*
X5470Y58116D01*
X5470Y59028D02*
X24510Y59028D01*
X24510Y59940D02*
X5470Y59940D01*
X5470Y60852D02*
X24510Y60852D01*
X24510Y61764D02*
X5470Y61764D01*
X5470Y62676D02*
X24510Y62676D01*
X24510Y63588D02*
X5470Y63588D01*
X5470Y64500D02*
X24510Y64500D01*
X24510Y65412D02*
X5470Y65412D01*
X5470Y66324D02*
X24510Y66324D01*
X24510Y111380D02*
X24510Y122420D01*
X24510Y111380D02*
X5470Y111380D01*
X5470Y122420D01*
X24510Y122420D01*
X24510Y112292D02*
X5470Y112292D01*
X5470Y113204D02*
X24510Y113204D01*
X24510Y114116D02*
X5470Y114116D01*
X5470Y115028D02*
X24510Y115028D01*
X24510Y115940D02*
X5470Y115940D01*
X5470Y116852D02*
X24510Y116852D01*
X24510Y117764D02*
X5470Y117764D01*
X5470Y118676D02*
X24510Y118676D01*
X24510Y119588D02*
X5470Y119588D01*
X5470Y120500D02*
X24510Y120500D01*
X24510Y121412D02*
X5470Y121412D01*
X5470Y122324D02*
X24510Y122324D01*
D11*
X207520Y106390D02*
X207520Y101410D01*
X207520Y106390D02*
X222000Y106390D01*
X222000Y101410D01*
X207520Y101410D01*
X207520Y102379D02*
X222000Y102379D01*
X222000Y103348D02*
X207520Y103348D01*
X207520Y104317D02*
X222000Y104317D01*
X222000Y105286D02*
X207520Y105286D01*
X207520Y106255D02*
X222000Y106255D01*
X207520Y96390D02*
X207520Y91410D01*
X207520Y96390D02*
X222000Y96390D01*
X222000Y91410D01*
X207520Y91410D01*
X207520Y92379D02*
X222000Y92379D01*
X222000Y93348D02*
X207520Y93348D01*
X207520Y94317D02*
X222000Y94317D01*
X222000Y95286D02*
X207520Y95286D01*
X207520Y96255D02*
X222000Y96255D01*
X207520Y86390D02*
X207520Y81410D01*
X207520Y86390D02*
X222000Y86390D01*
X222000Y81410D01*
X207520Y81410D01*
X207520Y82379D02*
X222000Y82379D01*
X222000Y83348D02*
X207520Y83348D01*
X207520Y84317D02*
X222000Y84317D01*
X222000Y85286D02*
X207520Y85286D01*
X207520Y86255D02*
X222000Y86255D01*
X207520Y76390D02*
X207520Y71410D01*
X207520Y76390D02*
X222000Y76390D01*
X222000Y71410D01*
X207520Y71410D01*
X207520Y72379D02*
X222000Y72379D01*
X222000Y73348D02*
X207520Y73348D01*
X207520Y74317D02*
X222000Y74317D01*
X222000Y75286D02*
X207520Y75286D01*
X207520Y76255D02*
X222000Y76255D01*
D12*
X229490Y111380D02*
X229490Y122420D01*
X248530Y122420D01*
X248530Y111380D01*
X229490Y111380D01*
X229490Y112292D02*
X248530Y112292D01*
X248530Y113204D02*
X229490Y113204D01*
X229490Y114116D02*
X248530Y114116D01*
X248530Y115028D02*
X229490Y115028D01*
X229490Y115940D02*
X248530Y115940D01*
X248530Y116852D02*
X229490Y116852D01*
X229490Y117764D02*
X248530Y117764D01*
X248530Y118676D02*
X229490Y118676D01*
X229490Y119588D02*
X248530Y119588D01*
X248530Y120500D02*
X229490Y120500D01*
X229490Y121412D02*
X248530Y121412D01*
X248530Y122324D02*
X229490Y122324D01*
X229490Y66420D02*
X229490Y55380D01*
X229490Y66420D02*
X248530Y66420D01*
X248530Y55380D01*
X229490Y55380D01*
X229490Y56292D02*
X248530Y56292D01*
X248530Y57204D02*
X229490Y57204D01*
X229490Y58116D02*
X248530Y58116D01*
X248530Y59028D02*
X229490Y59028D01*
X229490Y59940D02*
X248530Y59940D01*
X248530Y60852D02*
X229490Y60852D01*
X229490Y61764D02*
X248530Y61764D01*
X248530Y62676D02*
X229490Y62676D01*
X229490Y63588D02*
X248530Y63588D01*
X248530Y64500D02*
X229490Y64500D01*
X229490Y65412D02*
X248530Y65412D01*
X248530Y66324D02*
X229490Y66324D01*
D10*
X123500Y60270D02*
X113500Y60270D01*
X113500Y69270D01*
X123500Y69270D01*
X123500Y60270D01*
X123500Y61220D02*
X113500Y61220D01*
X113500Y62170D02*
X123500Y62170D01*
X123500Y63120D02*
X113500Y63120D01*
X113500Y64070D02*
X123500Y64070D01*
X123500Y65020D02*
X113500Y65020D01*
X113500Y65970D02*
X123500Y65970D01*
X123500Y66920D02*
X113500Y66920D01*
X113500Y67870D02*
X123500Y67870D01*
X123500Y68820D02*
X113500Y68820D01*
X130500Y60270D02*
X140500Y60270D01*
X130500Y60270D02*
X130500Y69270D01*
X140500Y69270D01*
X140500Y60270D01*
X140500Y61220D02*
X130500Y61220D01*
X130500Y62170D02*
X140500Y62170D01*
X140500Y63120D02*
X130500Y63120D01*
X130500Y64070D02*
X140500Y64070D01*
X140500Y65020D02*
X130500Y65020D01*
X130500Y65970D02*
X140500Y65970D01*
X140500Y66920D02*
X130500Y66920D01*
X130500Y67870D02*
X140500Y67870D01*
X140500Y68820D02*
X130500Y68820D01*
D13*
X167950Y83630D02*
X174950Y83630D01*
X174950Y76630D01*
X167950Y76630D01*
X167950Y83630D01*
X167950Y79480D02*
X174950Y79480D01*
X174950Y82330D02*
X167950Y82330D01*
X167950Y101170D02*
X174950Y101170D01*
X174950Y94170D01*
X167950Y94170D01*
X167950Y101170D01*
X167950Y97020D02*
X174950Y97020D01*
X174950Y99870D02*
X167950Y99870D01*
D10*
X183460Y102400D02*
X183460Y92400D01*
X183460Y102400D02*
X192460Y102400D01*
X192460Y92400D01*
X183460Y92400D01*
X183460Y93350D02*
X192460Y93350D01*
X192460Y94300D02*
X183460Y94300D01*
X183460Y95250D02*
X192460Y95250D01*
X192460Y96200D02*
X183460Y96200D01*
X183460Y97150D02*
X192460Y97150D01*
X192460Y98100D02*
X183460Y98100D01*
X183460Y99050D02*
X192460Y99050D01*
X192460Y100000D02*
X183460Y100000D01*
X183460Y100950D02*
X192460Y100950D01*
X192460Y101900D02*
X183460Y101900D01*
X183460Y85400D02*
X183460Y75400D01*
X183460Y85400D02*
X192460Y85400D01*
X192460Y75400D01*
X183460Y75400D01*
X183460Y76350D02*
X192460Y76350D01*
X192460Y77300D02*
X183460Y77300D01*
X183460Y78250D02*
X192460Y78250D01*
X192460Y79200D02*
X183460Y79200D01*
X183460Y80150D02*
X192460Y80150D01*
X192460Y81100D02*
X183460Y81100D01*
X183460Y82050D02*
X192460Y82050D01*
X192460Y83000D02*
X183460Y83000D01*
X183460Y83950D02*
X192460Y83950D01*
X192460Y84900D02*
X183460Y84900D01*
D14*
X62220Y82220D02*
X62220Y89180D01*
X70180Y89180D01*
X70180Y82220D01*
X62220Y82220D01*
X62220Y83208D02*
X70180Y83208D01*
X70180Y84196D02*
X62220Y84196D01*
X62220Y85184D02*
X70180Y85184D01*
X70180Y86172D02*
X62220Y86172D01*
X62220Y87160D02*
X70180Y87160D01*
X70180Y88148D02*
X62220Y88148D01*
X62220Y89136D02*
X70180Y89136D01*
X62220Y70180D02*
X62220Y63220D01*
X62220Y70180D02*
X70180Y70180D01*
X70180Y63220D01*
X62220Y63220D01*
X62220Y64208D02*
X70180Y64208D01*
X70180Y65196D02*
X62220Y65196D01*
X62220Y66184D02*
X70180Y66184D01*
X70180Y67172D02*
X62220Y67172D01*
X62220Y68160D02*
X70180Y68160D01*
X70180Y69148D02*
X62220Y69148D01*
X62220Y70136D02*
X70180Y70136D01*
X83220Y72720D02*
X83220Y79680D01*
X91180Y79680D01*
X91180Y72720D01*
X83220Y72720D01*
X83220Y73708D02*
X91180Y73708D01*
X91180Y74696D02*
X83220Y74696D01*
X83220Y75684D02*
X91180Y75684D01*
X91180Y76672D02*
X83220Y76672D01*
X83220Y77660D02*
X91180Y77660D01*
X91180Y78648D02*
X83220Y78648D01*
X83220Y79636D02*
X91180Y79636D01*
D10*
X68890Y97100D02*
X58890Y97100D01*
X58890Y106100D01*
X68890Y106100D01*
X68890Y97100D01*
X68890Y98050D02*
X58890Y98050D01*
X58890Y99000D02*
X68890Y99000D01*
X68890Y99950D02*
X58890Y99950D01*
X58890Y100900D02*
X68890Y100900D01*
X68890Y101850D02*
X58890Y101850D01*
X58890Y102800D02*
X68890Y102800D01*
X68890Y103750D02*
X58890Y103750D01*
X58890Y104700D02*
X68890Y104700D01*
X68890Y105650D02*
X58890Y105650D01*
X75890Y97100D02*
X85890Y97100D01*
X75890Y97100D02*
X75890Y106100D01*
X85890Y106100D01*
X85890Y97100D01*
X85890Y98050D02*
X75890Y98050D01*
X75890Y99000D02*
X85890Y99000D01*
X85890Y99950D02*
X75890Y99950D01*
X75890Y100900D02*
X85890Y100900D01*
X85890Y101850D02*
X75890Y101850D01*
X75890Y102800D02*
X85890Y102800D01*
X85890Y103750D02*
X75890Y103750D01*
X75890Y104700D02*
X85890Y104700D01*
X85890Y105650D02*
X75890Y105650D01*
M02*
