G04 EAGLE Gerber RS-274X export*
G75*
%MOMM*%
%FSLAX34Y34*%
%LPD*%
%IN*%
%IPPOS*%
%AMOC8*
5,1,8,0,0,1.08239X$1,22.5*%
G01*
%ADD10C,0.203200*%
%ADD11C,0.000000*%
%ADD12C,0.254000*%


D10*
X0Y0D02*
X254000Y0D01*
X254000Y127000D01*
X0Y127000D01*
X0Y0D01*
D11*
X212090Y25400D02*
X212095Y25805D01*
X212110Y26210D01*
X212135Y26615D01*
X212170Y27018D01*
X212214Y27421D01*
X212269Y27823D01*
X212333Y28223D01*
X212407Y28621D01*
X212491Y29017D01*
X212585Y29412D01*
X212688Y29803D01*
X212801Y30193D01*
X212923Y30579D01*
X213055Y30962D01*
X213196Y31342D01*
X213347Y31718D01*
X213506Y32091D01*
X213675Y32459D01*
X213853Y32823D01*
X214039Y33183D01*
X214235Y33538D01*
X214439Y33888D01*
X214651Y34233D01*
X214872Y34572D01*
X215102Y34907D01*
X215339Y35235D01*
X215584Y35557D01*
X215838Y35874D01*
X216098Y36184D01*
X216367Y36487D01*
X216643Y36784D01*
X216926Y37074D01*
X217216Y37357D01*
X217513Y37633D01*
X217816Y37902D01*
X218126Y38162D01*
X218443Y38416D01*
X218765Y38661D01*
X219093Y38898D01*
X219428Y39128D01*
X219767Y39349D01*
X220112Y39561D01*
X220462Y39765D01*
X220817Y39961D01*
X221177Y40147D01*
X221541Y40325D01*
X221909Y40494D01*
X222282Y40653D01*
X222658Y40804D01*
X223038Y40945D01*
X223421Y41077D01*
X223807Y41199D01*
X224197Y41312D01*
X224588Y41415D01*
X224983Y41509D01*
X225379Y41593D01*
X225777Y41667D01*
X226177Y41731D01*
X226579Y41786D01*
X226982Y41830D01*
X227385Y41865D01*
X227790Y41890D01*
X228195Y41905D01*
X228600Y41910D01*
X229005Y41905D01*
X229410Y41890D01*
X229815Y41865D01*
X230218Y41830D01*
X230621Y41786D01*
X231023Y41731D01*
X231423Y41667D01*
X231821Y41593D01*
X232217Y41509D01*
X232612Y41415D01*
X233003Y41312D01*
X233393Y41199D01*
X233779Y41077D01*
X234162Y40945D01*
X234542Y40804D01*
X234918Y40653D01*
X235291Y40494D01*
X235659Y40325D01*
X236023Y40147D01*
X236383Y39961D01*
X236738Y39765D01*
X237088Y39561D01*
X237433Y39349D01*
X237772Y39128D01*
X238107Y38898D01*
X238435Y38661D01*
X238757Y38416D01*
X239074Y38162D01*
X239384Y37902D01*
X239687Y37633D01*
X239984Y37357D01*
X240274Y37074D01*
X240557Y36784D01*
X240833Y36487D01*
X241102Y36184D01*
X241362Y35874D01*
X241616Y35557D01*
X241861Y35235D01*
X242098Y34907D01*
X242328Y34572D01*
X242549Y34233D01*
X242761Y33888D01*
X242965Y33538D01*
X243161Y33183D01*
X243347Y32823D01*
X243525Y32459D01*
X243694Y32091D01*
X243853Y31718D01*
X244004Y31342D01*
X244145Y30962D01*
X244277Y30579D01*
X244399Y30193D01*
X244512Y29803D01*
X244615Y29412D01*
X244709Y29017D01*
X244793Y28621D01*
X244867Y28223D01*
X244931Y27823D01*
X244986Y27421D01*
X245030Y27018D01*
X245065Y26615D01*
X245090Y26210D01*
X245105Y25805D01*
X245110Y25400D01*
X245105Y24995D01*
X245090Y24590D01*
X245065Y24185D01*
X245030Y23782D01*
X244986Y23379D01*
X244931Y22977D01*
X244867Y22577D01*
X244793Y22179D01*
X244709Y21783D01*
X244615Y21388D01*
X244512Y20997D01*
X244399Y20607D01*
X244277Y20221D01*
X244145Y19838D01*
X244004Y19458D01*
X243853Y19082D01*
X243694Y18709D01*
X243525Y18341D01*
X243347Y17977D01*
X243161Y17617D01*
X242965Y17262D01*
X242761Y16912D01*
X242549Y16567D01*
X242328Y16228D01*
X242098Y15893D01*
X241861Y15565D01*
X241616Y15243D01*
X241362Y14926D01*
X241102Y14616D01*
X240833Y14313D01*
X240557Y14016D01*
X240274Y13726D01*
X239984Y13443D01*
X239687Y13167D01*
X239384Y12898D01*
X239074Y12638D01*
X238757Y12384D01*
X238435Y12139D01*
X238107Y11902D01*
X237772Y11672D01*
X237433Y11451D01*
X237088Y11239D01*
X236738Y11035D01*
X236383Y10839D01*
X236023Y10653D01*
X235659Y10475D01*
X235291Y10306D01*
X234918Y10147D01*
X234542Y9996D01*
X234162Y9855D01*
X233779Y9723D01*
X233393Y9601D01*
X233003Y9488D01*
X232612Y9385D01*
X232217Y9291D01*
X231821Y9207D01*
X231423Y9133D01*
X231023Y9069D01*
X230621Y9014D01*
X230218Y8970D01*
X229815Y8935D01*
X229410Y8910D01*
X229005Y8895D01*
X228600Y8890D01*
X228195Y8895D01*
X227790Y8910D01*
X227385Y8935D01*
X226982Y8970D01*
X226579Y9014D01*
X226177Y9069D01*
X225777Y9133D01*
X225379Y9207D01*
X224983Y9291D01*
X224588Y9385D01*
X224197Y9488D01*
X223807Y9601D01*
X223421Y9723D01*
X223038Y9855D01*
X222658Y9996D01*
X222282Y10147D01*
X221909Y10306D01*
X221541Y10475D01*
X221177Y10653D01*
X220817Y10839D01*
X220462Y11035D01*
X220112Y11239D01*
X219767Y11451D01*
X219428Y11672D01*
X219093Y11902D01*
X218765Y12139D01*
X218443Y12384D01*
X218126Y12638D01*
X217816Y12898D01*
X217513Y13167D01*
X217216Y13443D01*
X216926Y13726D01*
X216643Y14016D01*
X216367Y14313D01*
X216098Y14616D01*
X215838Y14926D01*
X215584Y15243D01*
X215339Y15565D01*
X215102Y15893D01*
X214872Y16228D01*
X214651Y16567D01*
X214439Y16912D01*
X214235Y17262D01*
X214039Y17617D01*
X213853Y17977D01*
X213675Y18341D01*
X213506Y18709D01*
X213347Y19082D01*
X213196Y19458D01*
X213055Y19838D01*
X212923Y20221D01*
X212801Y20607D01*
X212688Y20997D01*
X212585Y21388D01*
X212491Y21783D01*
X212407Y22179D01*
X212333Y22577D01*
X212269Y22977D01*
X212214Y23379D01*
X212170Y23782D01*
X212135Y24185D01*
X212110Y24590D01*
X212095Y24995D01*
X212090Y25400D01*
X8890Y25400D02*
X8895Y25805D01*
X8910Y26210D01*
X8935Y26615D01*
X8970Y27018D01*
X9014Y27421D01*
X9069Y27823D01*
X9133Y28223D01*
X9207Y28621D01*
X9291Y29017D01*
X9385Y29412D01*
X9488Y29803D01*
X9601Y30193D01*
X9723Y30579D01*
X9855Y30962D01*
X9996Y31342D01*
X10147Y31718D01*
X10306Y32091D01*
X10475Y32459D01*
X10653Y32823D01*
X10839Y33183D01*
X11035Y33538D01*
X11239Y33888D01*
X11451Y34233D01*
X11672Y34572D01*
X11902Y34907D01*
X12139Y35235D01*
X12384Y35557D01*
X12638Y35874D01*
X12898Y36184D01*
X13167Y36487D01*
X13443Y36784D01*
X13726Y37074D01*
X14016Y37357D01*
X14313Y37633D01*
X14616Y37902D01*
X14926Y38162D01*
X15243Y38416D01*
X15565Y38661D01*
X15893Y38898D01*
X16228Y39128D01*
X16567Y39349D01*
X16912Y39561D01*
X17262Y39765D01*
X17617Y39961D01*
X17977Y40147D01*
X18341Y40325D01*
X18709Y40494D01*
X19082Y40653D01*
X19458Y40804D01*
X19838Y40945D01*
X20221Y41077D01*
X20607Y41199D01*
X20997Y41312D01*
X21388Y41415D01*
X21783Y41509D01*
X22179Y41593D01*
X22577Y41667D01*
X22977Y41731D01*
X23379Y41786D01*
X23782Y41830D01*
X24185Y41865D01*
X24590Y41890D01*
X24995Y41905D01*
X25400Y41910D01*
X25805Y41905D01*
X26210Y41890D01*
X26615Y41865D01*
X27018Y41830D01*
X27421Y41786D01*
X27823Y41731D01*
X28223Y41667D01*
X28621Y41593D01*
X29017Y41509D01*
X29412Y41415D01*
X29803Y41312D01*
X30193Y41199D01*
X30579Y41077D01*
X30962Y40945D01*
X31342Y40804D01*
X31718Y40653D01*
X32091Y40494D01*
X32459Y40325D01*
X32823Y40147D01*
X33183Y39961D01*
X33538Y39765D01*
X33888Y39561D01*
X34233Y39349D01*
X34572Y39128D01*
X34907Y38898D01*
X35235Y38661D01*
X35557Y38416D01*
X35874Y38162D01*
X36184Y37902D01*
X36487Y37633D01*
X36784Y37357D01*
X37074Y37074D01*
X37357Y36784D01*
X37633Y36487D01*
X37902Y36184D01*
X38162Y35874D01*
X38416Y35557D01*
X38661Y35235D01*
X38898Y34907D01*
X39128Y34572D01*
X39349Y34233D01*
X39561Y33888D01*
X39765Y33538D01*
X39961Y33183D01*
X40147Y32823D01*
X40325Y32459D01*
X40494Y32091D01*
X40653Y31718D01*
X40804Y31342D01*
X40945Y30962D01*
X41077Y30579D01*
X41199Y30193D01*
X41312Y29803D01*
X41415Y29412D01*
X41509Y29017D01*
X41593Y28621D01*
X41667Y28223D01*
X41731Y27823D01*
X41786Y27421D01*
X41830Y27018D01*
X41865Y26615D01*
X41890Y26210D01*
X41905Y25805D01*
X41910Y25400D01*
X41905Y24995D01*
X41890Y24590D01*
X41865Y24185D01*
X41830Y23782D01*
X41786Y23379D01*
X41731Y22977D01*
X41667Y22577D01*
X41593Y22179D01*
X41509Y21783D01*
X41415Y21388D01*
X41312Y20997D01*
X41199Y20607D01*
X41077Y20221D01*
X40945Y19838D01*
X40804Y19458D01*
X40653Y19082D01*
X40494Y18709D01*
X40325Y18341D01*
X40147Y17977D01*
X39961Y17617D01*
X39765Y17262D01*
X39561Y16912D01*
X39349Y16567D01*
X39128Y16228D01*
X38898Y15893D01*
X38661Y15565D01*
X38416Y15243D01*
X38162Y14926D01*
X37902Y14616D01*
X37633Y14313D01*
X37357Y14016D01*
X37074Y13726D01*
X36784Y13443D01*
X36487Y13167D01*
X36184Y12898D01*
X35874Y12638D01*
X35557Y12384D01*
X35235Y12139D01*
X34907Y11902D01*
X34572Y11672D01*
X34233Y11451D01*
X33888Y11239D01*
X33538Y11035D01*
X33183Y10839D01*
X32823Y10653D01*
X32459Y10475D01*
X32091Y10306D01*
X31718Y10147D01*
X31342Y9996D01*
X30962Y9855D01*
X30579Y9723D01*
X30193Y9601D01*
X29803Y9488D01*
X29412Y9385D01*
X29017Y9291D01*
X28621Y9207D01*
X28223Y9133D01*
X27823Y9069D01*
X27421Y9014D01*
X27018Y8970D01*
X26615Y8935D01*
X26210Y8910D01*
X25805Y8895D01*
X25400Y8890D01*
X24995Y8895D01*
X24590Y8910D01*
X24185Y8935D01*
X23782Y8970D01*
X23379Y9014D01*
X22977Y9069D01*
X22577Y9133D01*
X22179Y9207D01*
X21783Y9291D01*
X21388Y9385D01*
X20997Y9488D01*
X20607Y9601D01*
X20221Y9723D01*
X19838Y9855D01*
X19458Y9996D01*
X19082Y10147D01*
X18709Y10306D01*
X18341Y10475D01*
X17977Y10653D01*
X17617Y10839D01*
X17262Y11035D01*
X16912Y11239D01*
X16567Y11451D01*
X16228Y11672D01*
X15893Y11902D01*
X15565Y12139D01*
X15243Y12384D01*
X14926Y12638D01*
X14616Y12898D01*
X14313Y13167D01*
X14016Y13443D01*
X13726Y13726D01*
X13443Y14016D01*
X13167Y14313D01*
X12898Y14616D01*
X12638Y14926D01*
X12384Y15243D01*
X12139Y15565D01*
X11902Y15893D01*
X11672Y16228D01*
X11451Y16567D01*
X11239Y16912D01*
X11035Y17262D01*
X10839Y17617D01*
X10653Y17977D01*
X10475Y18341D01*
X10306Y18709D01*
X10147Y19082D01*
X9996Y19458D01*
X9855Y19838D01*
X9723Y20221D01*
X9601Y20607D01*
X9488Y20997D01*
X9385Y21388D01*
X9291Y21783D01*
X9207Y22179D01*
X9133Y22577D01*
X9069Y22977D01*
X9014Y23379D01*
X8970Y23782D01*
X8935Y24185D01*
X8910Y24590D01*
X8895Y24995D01*
X8890Y25400D01*
D12*
X0Y0D02*
X254000Y0D01*
X254000Y127000D01*
X0Y127000D01*
X0Y0D01*
X245110Y24860D02*
X245039Y23781D01*
X244898Y22709D01*
X244687Y21649D01*
X244408Y20605D01*
X244060Y19581D01*
X243646Y18583D01*
X243168Y17613D01*
X242628Y16677D01*
X242027Y15778D01*
X241369Y14921D01*
X240657Y14108D01*
X239892Y13344D01*
X239079Y12631D01*
X238222Y11973D01*
X237323Y11372D01*
X236387Y10832D01*
X235417Y10354D01*
X234419Y9940D01*
X233395Y9592D01*
X232351Y9313D01*
X231291Y9102D01*
X230219Y8961D01*
X229140Y8890D01*
X228060Y8890D01*
X226981Y8961D01*
X225909Y9102D01*
X224849Y9313D01*
X223805Y9592D01*
X222781Y9940D01*
X221783Y10354D01*
X220813Y10832D01*
X219877Y11372D01*
X218978Y11973D01*
X218121Y12631D01*
X217308Y13344D01*
X216544Y14108D01*
X215831Y14921D01*
X215173Y15778D01*
X214572Y16677D01*
X214032Y17613D01*
X213554Y18583D01*
X213140Y19581D01*
X212792Y20605D01*
X212513Y21649D01*
X212302Y22709D01*
X212161Y23781D01*
X212090Y24860D01*
X212090Y25940D01*
X212161Y27019D01*
X212302Y28091D01*
X212513Y29151D01*
X212792Y30195D01*
X213140Y31219D01*
X213554Y32217D01*
X214032Y33187D01*
X214572Y34123D01*
X215173Y35022D01*
X215831Y35879D01*
X216544Y36692D01*
X217308Y37457D01*
X218121Y38169D01*
X218978Y38827D01*
X219877Y39428D01*
X220813Y39968D01*
X221783Y40446D01*
X222781Y40860D01*
X223805Y41208D01*
X224849Y41487D01*
X225909Y41698D01*
X226981Y41839D01*
X228060Y41910D01*
X229140Y41910D01*
X230219Y41839D01*
X231291Y41698D01*
X232351Y41487D01*
X233395Y41208D01*
X234419Y40860D01*
X235417Y40446D01*
X236387Y39968D01*
X237323Y39428D01*
X238222Y38827D01*
X239079Y38169D01*
X239892Y37457D01*
X240657Y36692D01*
X241369Y35879D01*
X242027Y35022D01*
X242628Y34123D01*
X243168Y33187D01*
X243646Y32217D01*
X244060Y31219D01*
X244408Y30195D01*
X244687Y29151D01*
X244898Y28091D01*
X245039Y27019D01*
X245110Y25940D01*
X245110Y24860D01*
X41910Y24860D02*
X41839Y23781D01*
X41698Y22709D01*
X41487Y21649D01*
X41208Y20605D01*
X40860Y19581D01*
X40446Y18583D01*
X39968Y17613D01*
X39428Y16677D01*
X38827Y15778D01*
X38169Y14921D01*
X37457Y14108D01*
X36692Y13344D01*
X35879Y12631D01*
X35022Y11973D01*
X34123Y11372D01*
X33187Y10832D01*
X32217Y10354D01*
X31219Y9940D01*
X30195Y9592D01*
X29151Y9313D01*
X28091Y9102D01*
X27019Y8961D01*
X25940Y8890D01*
X24860Y8890D01*
X23781Y8961D01*
X22709Y9102D01*
X21649Y9313D01*
X20605Y9592D01*
X19581Y9940D01*
X18583Y10354D01*
X17613Y10832D01*
X16677Y11372D01*
X15778Y11973D01*
X14921Y12631D01*
X14108Y13344D01*
X13344Y14108D01*
X12631Y14921D01*
X11973Y15778D01*
X11372Y16677D01*
X10832Y17613D01*
X10354Y18583D01*
X9940Y19581D01*
X9592Y20605D01*
X9313Y21649D01*
X9102Y22709D01*
X8961Y23781D01*
X8890Y24860D01*
X8890Y25940D01*
X8961Y27019D01*
X9102Y28091D01*
X9313Y29151D01*
X9592Y30195D01*
X9940Y31219D01*
X10354Y32217D01*
X10832Y33187D01*
X11372Y34123D01*
X11973Y35022D01*
X12631Y35879D01*
X13344Y36692D01*
X14108Y37457D01*
X14921Y38169D01*
X15778Y38827D01*
X16677Y39428D01*
X17613Y39968D01*
X18583Y40446D01*
X19581Y40860D01*
X20605Y41208D01*
X21649Y41487D01*
X22709Y41698D01*
X23781Y41839D01*
X24860Y41910D01*
X25940Y41910D01*
X27019Y41839D01*
X28091Y41698D01*
X29151Y41487D01*
X30195Y41208D01*
X31219Y40860D01*
X32217Y40446D01*
X33187Y39968D01*
X34123Y39428D01*
X35022Y38827D01*
X35879Y38169D01*
X36692Y37457D01*
X37457Y36692D01*
X38169Y35879D01*
X38827Y35022D01*
X39428Y34123D01*
X39968Y33187D01*
X40446Y32217D01*
X40860Y31219D01*
X41208Y30195D01*
X41487Y29151D01*
X41698Y28091D01*
X41839Y27019D01*
X41910Y25940D01*
X41910Y24860D01*
M02*
