G04 EAGLE Gerber RS-274X export*
G75*
%MOMM*%
%FSLAX34Y34*%
%LPD*%
%INSoldermask Top*%
%IPPOS*%
%AMOC8*
5,1,8,0,0,1.08239X$1,22.5*%
G01*
%ADD10C,1.127000*%
%ADD11C,3.429000*%
%ADD12C,0.228344*%
%ADD13C,0.225400*%
%ADD14C,0.225369*%
%ADD15C,0.225588*%
%ADD16C,2.006600*%
%ADD17C,0.428259*%
%ADD18C,0.231750*%

G36*
X160720Y60337D02*
X160720Y60337D01*
X160786Y60339D01*
X160829Y60357D01*
X160876Y60365D01*
X160933Y60399D01*
X160993Y60424D01*
X161028Y60455D01*
X161069Y60480D01*
X161111Y60531D01*
X161159Y60575D01*
X161181Y60617D01*
X161210Y60654D01*
X161231Y60716D01*
X161262Y60775D01*
X161270Y60829D01*
X161282Y60866D01*
X161281Y60906D01*
X161289Y60960D01*
X161289Y63500D01*
X161278Y63565D01*
X161276Y63631D01*
X161258Y63674D01*
X161250Y63721D01*
X161216Y63778D01*
X161191Y63838D01*
X161160Y63873D01*
X161135Y63914D01*
X161084Y63956D01*
X161040Y64004D01*
X160998Y64026D01*
X160961Y64055D01*
X160899Y64076D01*
X160840Y64107D01*
X160786Y64115D01*
X160749Y64127D01*
X160709Y64126D01*
X160655Y64134D01*
X156845Y64134D01*
X156780Y64123D01*
X156714Y64121D01*
X156671Y64103D01*
X156624Y64095D01*
X156567Y64061D01*
X156507Y64036D01*
X156472Y64005D01*
X156431Y63980D01*
X156390Y63929D01*
X156341Y63885D01*
X156319Y63843D01*
X156290Y63806D01*
X156269Y63744D01*
X156238Y63685D01*
X156230Y63631D01*
X156218Y63594D01*
X156218Y63591D01*
X156219Y63554D01*
X156211Y63500D01*
X156211Y60960D01*
X156222Y60895D01*
X156224Y60829D01*
X156242Y60786D01*
X156250Y60739D01*
X156284Y60682D01*
X156309Y60622D01*
X156340Y60587D01*
X156365Y60546D01*
X156416Y60505D01*
X156460Y60456D01*
X156502Y60434D01*
X156539Y60405D01*
X156601Y60384D01*
X156660Y60353D01*
X156714Y60345D01*
X156751Y60333D01*
X156791Y60334D01*
X156845Y60326D01*
X160655Y60326D01*
X160720Y60337D01*
G37*
G36*
X142940Y36207D02*
X142940Y36207D01*
X143006Y36209D01*
X143049Y36227D01*
X143096Y36235D01*
X143153Y36269D01*
X143213Y36294D01*
X143248Y36325D01*
X143289Y36350D01*
X143331Y36401D01*
X143379Y36445D01*
X143401Y36487D01*
X143430Y36524D01*
X143451Y36586D01*
X143482Y36645D01*
X143490Y36699D01*
X143502Y36736D01*
X143501Y36776D01*
X143509Y36830D01*
X143509Y39370D01*
X143498Y39435D01*
X143496Y39501D01*
X143478Y39544D01*
X143470Y39591D01*
X143436Y39648D01*
X143411Y39708D01*
X143380Y39743D01*
X143355Y39784D01*
X143304Y39826D01*
X143260Y39874D01*
X143218Y39896D01*
X143181Y39925D01*
X143119Y39946D01*
X143060Y39977D01*
X143006Y39985D01*
X142969Y39997D01*
X142929Y39996D01*
X142875Y40004D01*
X139065Y40004D01*
X139000Y39993D01*
X138934Y39991D01*
X138891Y39973D01*
X138844Y39965D01*
X138787Y39931D01*
X138727Y39906D01*
X138692Y39875D01*
X138651Y39850D01*
X138610Y39799D01*
X138561Y39755D01*
X138539Y39713D01*
X138510Y39676D01*
X138489Y39614D01*
X138458Y39555D01*
X138450Y39501D01*
X138438Y39464D01*
X138438Y39461D01*
X138439Y39424D01*
X138431Y39370D01*
X138431Y36830D01*
X138442Y36765D01*
X138444Y36699D01*
X138462Y36656D01*
X138470Y36609D01*
X138504Y36552D01*
X138529Y36492D01*
X138560Y36457D01*
X138585Y36416D01*
X138636Y36375D01*
X138680Y36326D01*
X138722Y36304D01*
X138759Y36275D01*
X138821Y36254D01*
X138880Y36223D01*
X138934Y36215D01*
X138971Y36203D01*
X139011Y36204D01*
X139065Y36196D01*
X142875Y36196D01*
X142940Y36207D01*
G37*
G36*
X153100Y36207D02*
X153100Y36207D01*
X153166Y36209D01*
X153209Y36227D01*
X153256Y36235D01*
X153313Y36269D01*
X153373Y36294D01*
X153408Y36325D01*
X153449Y36350D01*
X153491Y36401D01*
X153539Y36445D01*
X153561Y36487D01*
X153590Y36524D01*
X153611Y36586D01*
X153642Y36645D01*
X153650Y36699D01*
X153662Y36736D01*
X153661Y36776D01*
X153669Y36830D01*
X153669Y39370D01*
X153658Y39435D01*
X153656Y39501D01*
X153638Y39544D01*
X153630Y39591D01*
X153596Y39648D01*
X153571Y39708D01*
X153540Y39743D01*
X153515Y39784D01*
X153464Y39826D01*
X153420Y39874D01*
X153378Y39896D01*
X153341Y39925D01*
X153279Y39946D01*
X153220Y39977D01*
X153166Y39985D01*
X153129Y39997D01*
X153089Y39996D01*
X153035Y40004D01*
X149225Y40004D01*
X149160Y39993D01*
X149094Y39991D01*
X149051Y39973D01*
X149004Y39965D01*
X148947Y39931D01*
X148887Y39906D01*
X148852Y39875D01*
X148811Y39850D01*
X148770Y39799D01*
X148721Y39755D01*
X148699Y39713D01*
X148670Y39676D01*
X148649Y39614D01*
X148618Y39555D01*
X148610Y39501D01*
X148598Y39464D01*
X148598Y39461D01*
X148599Y39424D01*
X148591Y39370D01*
X148591Y36830D01*
X148602Y36765D01*
X148604Y36699D01*
X148622Y36656D01*
X148630Y36609D01*
X148664Y36552D01*
X148689Y36492D01*
X148720Y36457D01*
X148745Y36416D01*
X148796Y36375D01*
X148840Y36326D01*
X148882Y36304D01*
X148919Y36275D01*
X148981Y36254D01*
X149040Y36223D01*
X149094Y36215D01*
X149131Y36203D01*
X149171Y36204D01*
X149225Y36196D01*
X153035Y36196D01*
X153100Y36207D01*
G37*
G36*
X65470Y33667D02*
X65470Y33667D01*
X65536Y33669D01*
X65579Y33687D01*
X65626Y33695D01*
X65683Y33729D01*
X65743Y33754D01*
X65778Y33785D01*
X65819Y33810D01*
X65861Y33861D01*
X65909Y33905D01*
X65931Y33947D01*
X65960Y33984D01*
X65981Y34046D01*
X66012Y34105D01*
X66020Y34159D01*
X66032Y34196D01*
X66031Y34236D01*
X66039Y34290D01*
X66039Y36830D01*
X66028Y36895D01*
X66026Y36961D01*
X66008Y37004D01*
X66000Y37051D01*
X65966Y37108D01*
X65941Y37168D01*
X65910Y37203D01*
X65885Y37244D01*
X65834Y37286D01*
X65790Y37334D01*
X65748Y37356D01*
X65711Y37385D01*
X65649Y37406D01*
X65590Y37437D01*
X65536Y37445D01*
X65499Y37457D01*
X65459Y37456D01*
X65405Y37464D01*
X61595Y37464D01*
X61530Y37453D01*
X61464Y37451D01*
X61421Y37433D01*
X61374Y37425D01*
X61317Y37391D01*
X61257Y37366D01*
X61222Y37335D01*
X61181Y37310D01*
X61140Y37259D01*
X61091Y37215D01*
X61069Y37173D01*
X61040Y37136D01*
X61019Y37074D01*
X60988Y37015D01*
X60980Y36961D01*
X60968Y36924D01*
X60968Y36921D01*
X60969Y36884D01*
X60961Y36830D01*
X60961Y34290D01*
X60972Y34225D01*
X60974Y34159D01*
X60992Y34116D01*
X61000Y34069D01*
X61034Y34012D01*
X61059Y33952D01*
X61090Y33917D01*
X61115Y33876D01*
X61166Y33835D01*
X61210Y33786D01*
X61252Y33764D01*
X61289Y33735D01*
X61351Y33714D01*
X61410Y33683D01*
X61464Y33675D01*
X61501Y33663D01*
X61541Y33664D01*
X61595Y33656D01*
X65405Y33656D01*
X65470Y33667D01*
G37*
D10*
X241300Y101600D03*
X12700Y76200D03*
D11*
X228600Y25400D03*
X25400Y25400D03*
D12*
X132840Y32256D02*
X138432Y32256D01*
X132840Y32256D02*
X132840Y43944D01*
X138432Y43944D01*
X138432Y32256D01*
X138432Y34425D02*
X132840Y34425D01*
X132840Y36594D02*
X138432Y36594D01*
X138432Y38763D02*
X132840Y38763D01*
X132840Y40932D02*
X138432Y40932D01*
X138432Y43101D02*
X132840Y43101D01*
X143254Y32256D02*
X148846Y32256D01*
X143254Y32256D02*
X143254Y43944D01*
X148846Y43944D01*
X148846Y32256D01*
X148846Y34425D02*
X143254Y34425D01*
X143254Y36594D02*
X148846Y36594D01*
X148846Y38763D02*
X143254Y38763D01*
X143254Y40932D02*
X148846Y40932D01*
X148846Y43101D02*
X143254Y43101D01*
X153668Y32256D02*
X159260Y32256D01*
X153668Y32256D02*
X153668Y43944D01*
X159260Y43944D01*
X159260Y32256D01*
X159260Y34425D02*
X153668Y34425D01*
X153668Y36594D02*
X159260Y36594D01*
X159260Y38763D02*
X153668Y38763D01*
X153668Y40932D02*
X159260Y40932D01*
X159260Y43101D02*
X153668Y43101D01*
X61089Y29716D02*
X55497Y29716D01*
X55497Y41404D01*
X61089Y41404D01*
X61089Y29716D01*
X61089Y31885D02*
X55497Y31885D01*
X55497Y34054D02*
X61089Y34054D01*
X61089Y36223D02*
X55497Y36223D01*
X55497Y38392D02*
X61089Y38392D01*
X61089Y40561D02*
X55497Y40561D01*
X65911Y29716D02*
X71503Y29716D01*
X65911Y29716D02*
X65911Y41404D01*
X71503Y41404D01*
X71503Y29716D01*
X71503Y31885D02*
X65911Y31885D01*
X65911Y34054D02*
X71503Y34054D01*
X71503Y36223D02*
X65911Y36223D01*
X65911Y38392D02*
X71503Y38392D01*
X71503Y40561D02*
X65911Y40561D01*
X150747Y56386D02*
X156339Y56386D01*
X150747Y56386D02*
X150747Y68074D01*
X156339Y68074D01*
X156339Y56386D01*
X156339Y58555D02*
X150747Y58555D01*
X150747Y60724D02*
X156339Y60724D01*
X156339Y62893D02*
X150747Y62893D01*
X150747Y65062D02*
X156339Y65062D01*
X156339Y67231D02*
X150747Y67231D01*
X161161Y56386D02*
X166753Y56386D01*
X161161Y56386D02*
X161161Y68074D01*
X166753Y68074D01*
X166753Y56386D01*
X166753Y58555D02*
X161161Y58555D01*
X161161Y60724D02*
X166753Y60724D01*
X166753Y62893D02*
X161161Y62893D01*
X161161Y65062D02*
X166753Y65062D01*
X166753Y67231D02*
X161161Y67231D01*
D13*
X136208Y98362D02*
X126192Y98362D01*
X126192Y107378D01*
X136208Y107378D01*
X136208Y98362D01*
X136208Y100503D02*
X126192Y100503D01*
X126192Y102644D02*
X136208Y102644D01*
X136208Y104785D02*
X126192Y104785D01*
X126192Y106926D02*
X136208Y106926D01*
X143192Y98362D02*
X153208Y98362D01*
X143192Y98362D02*
X143192Y107378D01*
X153208Y107378D01*
X153208Y98362D01*
X153208Y100503D02*
X143192Y100503D01*
X143192Y102644D02*
X153208Y102644D01*
X153208Y104785D02*
X143192Y104785D01*
X143192Y106926D02*
X153208Y106926D01*
X106998Y41212D02*
X96982Y41212D01*
X96982Y50228D01*
X106998Y50228D01*
X106998Y41212D01*
X106998Y43353D02*
X96982Y43353D01*
X96982Y45494D02*
X106998Y45494D01*
X106998Y47635D02*
X96982Y47635D01*
X96982Y49776D02*
X106998Y49776D01*
X113982Y41212D02*
X123998Y41212D01*
X113982Y41212D02*
X113982Y50228D01*
X123998Y50228D01*
X123998Y41212D01*
X123998Y43353D02*
X113982Y43353D01*
X113982Y45494D02*
X123998Y45494D01*
X123998Y47635D02*
X113982Y47635D01*
X113982Y49776D02*
X123998Y49776D01*
X143192Y88328D02*
X153208Y88328D01*
X153208Y79312D01*
X143192Y79312D01*
X143192Y88328D01*
X143192Y81453D02*
X153208Y81453D01*
X153208Y83594D02*
X143192Y83594D01*
X143192Y85735D02*
X153208Y85735D01*
X153208Y87876D02*
X143192Y87876D01*
X136208Y88328D02*
X126192Y88328D01*
X136208Y88328D02*
X136208Y79312D01*
X126192Y79312D01*
X126192Y88328D01*
X126192Y81453D02*
X136208Y81453D01*
X136208Y83594D02*
X126192Y83594D01*
X126192Y85735D02*
X136208Y85735D01*
X136208Y87876D02*
X126192Y87876D01*
D14*
X46498Y76408D02*
X46498Y71392D01*
X31982Y71392D01*
X31982Y76408D01*
X46498Y76408D01*
X46498Y73533D02*
X31982Y73533D01*
X31982Y75674D02*
X46498Y75674D01*
X46498Y81392D02*
X46498Y86408D01*
X46498Y81392D02*
X31982Y81392D01*
X31982Y86408D01*
X46498Y86408D01*
X46498Y83533D02*
X31982Y83533D01*
X31982Y85674D02*
X46498Y85674D01*
X46498Y91392D02*
X46498Y96408D01*
X46498Y91392D02*
X31982Y91392D01*
X31982Y96408D01*
X46498Y96408D01*
X46498Y93533D02*
X31982Y93533D01*
X31982Y95674D02*
X46498Y95674D01*
X46498Y101392D02*
X46498Y106408D01*
X46498Y101392D02*
X31982Y101392D01*
X31982Y106408D01*
X46498Y106408D01*
X46498Y103533D02*
X31982Y103533D01*
X31982Y105674D02*
X46498Y105674D01*
D15*
X24497Y66407D02*
X24497Y55393D01*
X5483Y55393D01*
X5483Y66407D01*
X24497Y66407D01*
X24497Y57536D02*
X5483Y57536D01*
X5483Y59679D02*
X24497Y59679D01*
X24497Y61822D02*
X5483Y61822D01*
X5483Y63965D02*
X24497Y63965D01*
X24497Y66108D02*
X5483Y66108D01*
X24497Y111393D02*
X24497Y122407D01*
X24497Y111393D02*
X5483Y111393D01*
X5483Y122407D01*
X24497Y122407D01*
X24497Y113536D02*
X5483Y113536D01*
X5483Y115679D02*
X24497Y115679D01*
X24497Y117822D02*
X5483Y117822D01*
X5483Y119965D02*
X24497Y119965D01*
X24497Y122108D02*
X5483Y122108D01*
D14*
X207502Y106408D02*
X207502Y101392D01*
X207502Y106408D02*
X222018Y106408D01*
X222018Y101392D01*
X207502Y101392D01*
X207502Y103533D02*
X222018Y103533D01*
X222018Y105674D02*
X207502Y105674D01*
X207502Y96408D02*
X207502Y91392D01*
X207502Y96408D02*
X222018Y96408D01*
X222018Y91392D01*
X207502Y91392D01*
X207502Y93533D02*
X222018Y93533D01*
X222018Y95674D02*
X207502Y95674D01*
X207502Y86408D02*
X207502Y81392D01*
X207502Y86408D02*
X222018Y86408D01*
X222018Y81392D01*
X207502Y81392D01*
X207502Y83533D02*
X222018Y83533D01*
X222018Y85674D02*
X207502Y85674D01*
X207502Y76408D02*
X207502Y71392D01*
X207502Y76408D02*
X222018Y76408D01*
X222018Y71392D01*
X207502Y71392D01*
X207502Y73533D02*
X222018Y73533D01*
X222018Y75674D02*
X207502Y75674D01*
D15*
X229503Y111393D02*
X229503Y122407D01*
X248517Y122407D01*
X248517Y111393D01*
X229503Y111393D01*
X229503Y113536D02*
X248517Y113536D01*
X248517Y115679D02*
X229503Y115679D01*
X229503Y117822D02*
X248517Y117822D01*
X248517Y119965D02*
X229503Y119965D01*
X229503Y122108D02*
X248517Y122108D01*
X229503Y66407D02*
X229503Y55393D01*
X229503Y66407D02*
X248517Y66407D01*
X248517Y55393D01*
X229503Y55393D01*
X229503Y57536D02*
X248517Y57536D01*
X248517Y59679D02*
X229503Y59679D01*
X229503Y61822D02*
X248517Y61822D01*
X248517Y63965D02*
X229503Y63965D01*
X229503Y66108D02*
X248517Y66108D01*
D13*
X123508Y60262D02*
X113492Y60262D01*
X113492Y69278D01*
X123508Y69278D01*
X123508Y60262D01*
X123508Y62403D02*
X113492Y62403D01*
X113492Y64544D02*
X123508Y64544D01*
X123508Y66685D02*
X113492Y66685D01*
X113492Y68826D02*
X123508Y68826D01*
X130492Y60262D02*
X140508Y60262D01*
X130492Y60262D02*
X130492Y69278D01*
X140508Y69278D01*
X140508Y60262D01*
X140508Y62403D02*
X130492Y62403D01*
X130492Y64544D02*
X140508Y64544D01*
X140508Y66685D02*
X130492Y66685D01*
X130492Y68826D02*
X140508Y68826D01*
D16*
X63500Y12700D03*
X88900Y12700D03*
X114300Y12700D03*
X139700Y12700D03*
X165100Y12700D03*
X190500Y12700D03*
D17*
X174944Y83624D02*
X167956Y83624D01*
X174944Y83624D02*
X174944Y76636D01*
X167956Y76636D01*
X167956Y83624D01*
X167956Y80705D02*
X174944Y80705D01*
X174944Y101164D02*
X167956Y101164D01*
X174944Y101164D02*
X174944Y94176D01*
X167956Y94176D01*
X167956Y101164D01*
X167956Y98245D02*
X174944Y98245D01*
D13*
X183452Y102408D02*
X183452Y92392D01*
X183452Y102408D02*
X192468Y102408D01*
X192468Y92392D01*
X183452Y92392D01*
X183452Y94533D02*
X192468Y94533D01*
X192468Y96674D02*
X183452Y96674D01*
X183452Y98815D02*
X192468Y98815D01*
X192468Y100956D02*
X183452Y100956D01*
X183452Y85408D02*
X183452Y75392D01*
X183452Y85408D02*
X192468Y85408D01*
X192468Y75392D01*
X183452Y75392D01*
X183452Y77533D02*
X192468Y77533D01*
X192468Y79674D02*
X183452Y79674D01*
X183452Y81815D02*
X192468Y81815D01*
X192468Y83956D02*
X183452Y83956D01*
D18*
X62224Y82224D02*
X62224Y89176D01*
X70176Y89176D01*
X70176Y82224D01*
X62224Y82224D01*
X62224Y84426D02*
X70176Y84426D01*
X70176Y86628D02*
X62224Y86628D01*
X62224Y88830D02*
X70176Y88830D01*
X62224Y70176D02*
X62224Y63224D01*
X62224Y70176D02*
X70176Y70176D01*
X70176Y63224D01*
X62224Y63224D01*
X62224Y65426D02*
X70176Y65426D01*
X70176Y67628D02*
X62224Y67628D01*
X62224Y69830D02*
X70176Y69830D01*
X83224Y72724D02*
X83224Y79676D01*
X91176Y79676D01*
X91176Y72724D01*
X83224Y72724D01*
X83224Y74926D02*
X91176Y74926D01*
X91176Y77128D02*
X83224Y77128D01*
X83224Y79330D02*
X91176Y79330D01*
D13*
X68898Y97092D02*
X58882Y97092D01*
X58882Y106108D01*
X68898Y106108D01*
X68898Y97092D01*
X68898Y99233D02*
X58882Y99233D01*
X58882Y101374D02*
X68898Y101374D01*
X68898Y103515D02*
X58882Y103515D01*
X58882Y105656D02*
X68898Y105656D01*
X75882Y97092D02*
X85898Y97092D01*
X75882Y97092D02*
X75882Y106108D01*
X85898Y106108D01*
X85898Y97092D01*
X85898Y99233D02*
X75882Y99233D01*
X75882Y101374D02*
X85898Y101374D01*
X85898Y103515D02*
X75882Y103515D01*
X75882Y105656D02*
X85898Y105656D01*
M02*
