G04 EAGLE Gerber RS-274X export*
G75*
%MOMM*%
%FSLAX34Y34*%
%LPD*%
%INSilkscreen Top*%
%IPPOS*%
%AMOC8*
5,1,8,0,0,1.08239X$1,22.5*%
G01*
%ADD10C,0.203200*%
%ADD11C,0.254000*%

G36*
X202765Y52844D02*
X202765Y52844D01*
X202768Y52841D01*
X203368Y52941D01*
X203371Y52945D01*
X203374Y52943D01*
X204074Y53143D01*
X204075Y53144D01*
X204076Y53143D01*
X204676Y53343D01*
X204679Y53348D01*
X204682Y53346D01*
X205882Y53946D01*
X205884Y53950D01*
X205887Y53949D01*
X206487Y54349D01*
X206488Y54352D01*
X206491Y54352D01*
X206991Y54752D01*
X206992Y54756D01*
X206995Y54755D01*
X207495Y55255D01*
X207496Y55262D01*
X207501Y55263D01*
X207901Y55863D01*
X207901Y55865D01*
X207902Y55865D01*
X208202Y56365D01*
X208202Y56368D01*
X208204Y56368D01*
X208504Y56968D01*
X208504Y56970D01*
X208505Y56971D01*
X208805Y57671D01*
X208803Y57679D01*
X208809Y57682D01*
X208909Y58282D01*
X208908Y58283D01*
X208909Y58283D01*
X209109Y59683D01*
X209103Y59693D01*
X209109Y59698D01*
X209009Y60298D01*
X208909Y60997D01*
X208809Y61697D01*
X208801Y61705D01*
X208804Y61712D01*
X208506Y62309D01*
X208307Y62906D01*
X208299Y62911D01*
X208301Y62917D01*
X207901Y63517D01*
X207898Y63518D01*
X207898Y63521D01*
X207498Y64021D01*
X207494Y64022D01*
X207495Y64025D01*
X206495Y65025D01*
X206491Y65025D01*
X206491Y65028D01*
X205991Y65428D01*
X205983Y65429D01*
X205982Y65434D01*
X204782Y66034D01*
X204775Y66033D01*
X204774Y66037D01*
X204075Y66237D01*
X203476Y66437D01*
X203469Y66435D01*
X203467Y66439D01*
X202767Y66539D01*
X202762Y66536D01*
X202760Y66539D01*
X170360Y66539D01*
X170313Y66503D01*
X170316Y66499D01*
X170311Y66497D01*
X170211Y65797D01*
X170214Y65792D01*
X170211Y65790D01*
X170211Y52990D01*
X170247Y52943D01*
X170250Y52945D01*
X170252Y52941D01*
X170852Y52841D01*
X170857Y52844D01*
X170860Y52841D01*
X202760Y52841D01*
X202765Y52844D01*
G37*
G36*
X104744Y28714D02*
X104744Y28714D01*
X104747Y28711D01*
X105447Y28811D01*
X105448Y28812D01*
X105448Y28811D01*
X106048Y28911D01*
X106054Y28918D01*
X106059Y28915D01*
X106758Y29214D01*
X107356Y29413D01*
X107359Y29418D01*
X107362Y29416D01*
X107962Y29716D01*
X107965Y29723D01*
X107971Y29722D01*
X108471Y30122D01*
X108472Y30126D01*
X108475Y30125D01*
X109475Y31125D01*
X109475Y31129D01*
X109478Y31129D01*
X109878Y31629D01*
X109879Y31633D01*
X109881Y31633D01*
X110281Y32233D01*
X110281Y32237D01*
X110284Y32238D01*
X110584Y32838D01*
X110583Y32843D01*
X110587Y32844D01*
X110787Y33444D01*
X110786Y33446D01*
X110787Y33446D01*
X110987Y34146D01*
X110986Y34150D01*
X110989Y34152D01*
X111089Y34752D01*
X111088Y34753D01*
X111089Y34753D01*
X111189Y35453D01*
X111186Y35458D01*
X111189Y35460D01*
X111189Y36160D01*
X111186Y36165D01*
X111189Y36168D01*
X111089Y36768D01*
X111085Y36771D01*
X111087Y36774D01*
X110887Y37474D01*
X110886Y37475D01*
X110887Y37476D01*
X110687Y38076D01*
X110684Y38077D01*
X110685Y38079D01*
X110385Y38779D01*
X110381Y38782D01*
X110382Y38785D01*
X110082Y39285D01*
X110081Y39286D01*
X110081Y39287D01*
X109681Y39887D01*
X109674Y39890D01*
X109675Y39895D01*
X109175Y40395D01*
X109171Y40395D01*
X109171Y40398D01*
X108171Y41198D01*
X108167Y41199D01*
X108167Y41201D01*
X107567Y41601D01*
X107563Y41601D01*
X107562Y41604D01*
X106962Y41904D01*
X106955Y41903D01*
X106954Y41907D01*
X106255Y42107D01*
X105656Y42307D01*
X105647Y42304D01*
X105644Y42304D01*
X105640Y42309D01*
X104943Y42309D01*
X104247Y42409D01*
X104242Y42406D01*
X104240Y42409D01*
X75340Y42409D01*
X75302Y42380D01*
X75294Y42378D01*
X75094Y41878D01*
X75095Y41876D01*
X75093Y41874D01*
X75097Y41868D01*
X75098Y41865D01*
X75091Y41860D01*
X75091Y28960D01*
X75120Y28922D01*
X75122Y28914D01*
X75622Y28714D01*
X75635Y28718D01*
X75640Y28711D01*
X104740Y28711D01*
X104744Y28714D01*
G37*
G36*
X190304Y27444D02*
X190304Y27444D01*
X190307Y27441D01*
X191007Y27541D01*
X191012Y27546D01*
X191016Y27543D01*
X191615Y27743D01*
X192314Y27943D01*
X192318Y27948D01*
X192322Y27946D01*
X193522Y28546D01*
X193525Y28553D01*
X193531Y28552D01*
X194031Y28952D01*
X194032Y28956D01*
X194035Y28955D01*
X195035Y29955D01*
X195035Y29959D01*
X195038Y29959D01*
X195438Y30459D01*
X195439Y30467D01*
X195444Y30468D01*
X196344Y32268D01*
X196342Y32279D01*
X196349Y32283D01*
X196449Y32982D01*
X196549Y33582D01*
X196548Y33583D01*
X196549Y33583D01*
X196649Y34283D01*
X196644Y34292D01*
X196649Y34297D01*
X196449Y35697D01*
X196448Y35698D01*
X196449Y35698D01*
X196349Y36298D01*
X196342Y36304D01*
X196345Y36309D01*
X196045Y37009D01*
X196043Y37011D01*
X196044Y37012D01*
X195444Y38212D01*
X195434Y38217D01*
X195435Y38225D01*
X194937Y38723D01*
X194538Y39221D01*
X194531Y39223D01*
X194531Y39228D01*
X194031Y39628D01*
X194027Y39629D01*
X194027Y39631D01*
X192827Y40431D01*
X192818Y40430D01*
X192816Y40437D01*
X191616Y40837D01*
X191614Y40836D01*
X191614Y40837D01*
X190914Y41037D01*
X190909Y41036D01*
X190907Y41039D01*
X190207Y41139D01*
X190202Y41136D01*
X190200Y41139D01*
X163100Y41139D01*
X163096Y41136D01*
X163093Y41139D01*
X162393Y41039D01*
X162351Y40996D01*
X162355Y40993D01*
X162351Y40990D01*
X162351Y28190D01*
X162354Y28186D01*
X162351Y28183D01*
X162451Y27483D01*
X162494Y27441D01*
X162497Y27445D01*
X162500Y27441D01*
X190300Y27441D01*
X190304Y27444D01*
G37*
G36*
X119180Y106730D02*
X119180Y106730D01*
X119185Y106729D01*
X119244Y106755D01*
X119305Y106780D01*
X119308Y106784D01*
X119312Y106786D01*
X119348Y106840D01*
X119386Y106893D01*
X119387Y106898D01*
X119389Y106902D01*
X119401Y106976D01*
X119401Y112755D01*
X119535Y112611D01*
X119544Y112606D01*
X119576Y112576D01*
X120116Y112204D01*
X120126Y112200D01*
X120161Y112179D01*
X120767Y111926D01*
X120778Y111925D01*
X120813Y111912D01*
X121457Y111781D01*
X121467Y111782D01*
X121501Y111776D01*
X122157Y111762D01*
X122167Y111765D01*
X122196Y111764D01*
X122846Y111852D01*
X122856Y111856D01*
X122888Y111861D01*
X123514Y112057D01*
X123523Y112063D01*
X123556Y112075D01*
X124136Y112383D01*
X124144Y112390D01*
X124176Y112409D01*
X124687Y112821D01*
X124693Y112830D01*
X124718Y112852D01*
X125148Y113348D01*
X125153Y113357D01*
X125172Y113380D01*
X125517Y113939D01*
X125519Y113948D01*
X125533Y113971D01*
X125794Y114574D01*
X125795Y114583D01*
X125805Y114603D01*
X125988Y115234D01*
X125988Y115243D01*
X125994Y115262D01*
X126105Y115909D01*
X126104Y115917D01*
X126108Y115935D01*
X126150Y116591D01*
X126136Y116653D01*
X126125Y116716D01*
X126120Y116721D01*
X126119Y116727D01*
X126099Y116748D01*
X126108Y116766D01*
X126139Y116821D01*
X126140Y116831D01*
X126142Y116835D01*
X126141Y116844D01*
X126145Y116895D01*
X126102Y117560D01*
X126099Y117567D01*
X126099Y117585D01*
X125990Y118242D01*
X125987Y118250D01*
X125984Y118269D01*
X125804Y118911D01*
X125799Y118918D01*
X125794Y118940D01*
X125536Y119554D01*
X125530Y119562D01*
X125520Y119586D01*
X125176Y120157D01*
X125168Y120164D01*
X125152Y120190D01*
X124981Y120390D01*
X124981Y120391D01*
X124769Y120640D01*
X124720Y120697D01*
X124711Y120703D01*
X124687Y120729D01*
X124170Y121148D01*
X124160Y121153D01*
X124131Y121175D01*
X123544Y121490D01*
X123534Y121492D01*
X123502Y121507D01*
X122868Y121711D01*
X122858Y121711D01*
X122849Y121713D01*
X122849Y121714D01*
X122847Y121714D01*
X122828Y121720D01*
X122169Y121817D01*
X122160Y121815D01*
X122134Y121819D01*
X121467Y121821D01*
X121457Y121819D01*
X121427Y121818D01*
X120769Y121712D01*
X120760Y121707D01*
X120720Y121699D01*
X120098Y121462D01*
X120091Y121456D01*
X120051Y121437D01*
X120049Y121436D01*
X120047Y121435D01*
X119497Y121061D01*
X119491Y121054D01*
X119452Y121023D01*
X119278Y120831D01*
X119278Y121252D01*
X119276Y121260D01*
X119272Y121272D01*
X119275Y121293D01*
X119253Y121338D01*
X119239Y121386D01*
X119223Y121400D01*
X119214Y121419D01*
X119172Y121445D01*
X119134Y121478D01*
X119113Y121481D01*
X119095Y121492D01*
X119022Y121501D01*
X118448Y121484D01*
X118439Y121481D01*
X118412Y121480D01*
X117099Y121246D01*
X117097Y121245D01*
X117095Y121246D01*
X117025Y121221D01*
X116538Y120962D01*
X116519Y120943D01*
X116494Y120932D01*
X116470Y120895D01*
X116438Y120864D01*
X116432Y120838D01*
X116417Y120815D01*
X116406Y120742D01*
X116406Y116740D01*
X116406Y109510D01*
X116409Y109501D01*
X116414Y109449D01*
X116562Y108858D01*
X116581Y108826D01*
X116591Y108790D01*
X116630Y108743D01*
X116633Y108738D01*
X116635Y108736D01*
X116638Y108733D01*
X118603Y106985D01*
X118610Y106982D01*
X118655Y106950D01*
X119038Y106754D01*
X119043Y106753D01*
X119047Y106750D01*
X119111Y106740D01*
X119175Y106728D01*
X119180Y106730D01*
G37*
G36*
X130354Y111789D02*
X130354Y111789D01*
X130362Y111792D01*
X130383Y111792D01*
X131036Y111904D01*
X131044Y111908D01*
X131070Y111912D01*
X131700Y112116D01*
X131709Y112122D01*
X131740Y112132D01*
X132324Y112441D01*
X132332Y112449D01*
X132365Y112468D01*
X132581Y112643D01*
X132625Y112480D01*
X132652Y112436D01*
X132672Y112389D01*
X132692Y112370D01*
X132698Y112361D01*
X132707Y112357D01*
X132726Y112339D01*
X133166Y112044D01*
X133201Y112033D01*
X133231Y112012D01*
X133294Y112003D01*
X133299Y112001D01*
X133301Y112002D01*
X133305Y112001D01*
X135292Y112001D01*
X135303Y112005D01*
X135315Y112002D01*
X135369Y112024D01*
X135426Y112040D01*
X135434Y112049D01*
X135445Y112054D01*
X135479Y112101D01*
X135518Y112146D01*
X135520Y112157D01*
X135526Y112167D01*
X135541Y112240D01*
X135559Y112682D01*
X135557Y112693D01*
X135556Y112733D01*
X135453Y113374D01*
X135415Y114015D01*
X135412Y115332D01*
X135407Y115349D01*
X135410Y115365D01*
X135388Y115415D01*
X135372Y115466D01*
X135360Y115477D01*
X135353Y115493D01*
X135321Y115514D01*
X135366Y115578D01*
X135379Y115615D01*
X135400Y115648D01*
X135409Y115703D01*
X135411Y115710D01*
X135410Y115714D01*
X135411Y115722D01*
X135411Y119052D01*
X135408Y119061D01*
X135409Y119085D01*
X135406Y119103D01*
X135372Y119352D01*
X135372Y119353D01*
X135339Y119602D01*
X135320Y119743D01*
X135319Y119745D01*
X135300Y119812D01*
X135027Y120417D01*
X135024Y120419D01*
X135024Y120423D01*
X134990Y120472D01*
X134988Y120477D01*
X134985Y120479D01*
X134982Y120484D01*
X134529Y120969D01*
X134525Y120971D01*
X134475Y121012D01*
X133905Y121354D01*
X133895Y121357D01*
X133860Y121375D01*
X133233Y121596D01*
X133223Y121597D01*
X133200Y121606D01*
X132548Y121738D01*
X132540Y121738D01*
X132523Y121742D01*
X131861Y121810D01*
X131855Y121809D01*
X131843Y121811D01*
X131179Y121832D01*
X131174Y121831D01*
X131161Y121832D01*
X130496Y121806D01*
X130489Y121804D01*
X130473Y121804D01*
X129813Y121717D01*
X129806Y121714D01*
X129787Y121712D01*
X129140Y121555D01*
X129132Y121550D01*
X129108Y121545D01*
X128489Y121302D01*
X128481Y121295D01*
X128450Y121282D01*
X127883Y120936D01*
X127876Y120929D01*
X127840Y120903D01*
X127360Y120443D01*
X127356Y120436D01*
X127322Y120396D01*
X126969Y119833D01*
X126966Y119824D01*
X126943Y119779D01*
X126734Y119149D01*
X126733Y119131D01*
X126726Y119116D01*
X126723Y119041D01*
X126785Y118513D01*
X126786Y118511D01*
X126785Y118508D01*
X126813Y118446D01*
X126839Y118384D01*
X126841Y118383D01*
X126842Y118381D01*
X126899Y118343D01*
X126955Y118305D01*
X126957Y118305D01*
X126959Y118304D01*
X127032Y118292D01*
X129030Y118292D01*
X129069Y118304D01*
X129109Y118305D01*
X129156Y118329D01*
X129164Y118332D01*
X129167Y118335D01*
X129175Y118339D01*
X129588Y118635D01*
X129605Y118655D01*
X129627Y118669D01*
X129669Y118731D01*
X129921Y119265D01*
X130366Y119563D01*
X130941Y119662D01*
X131544Y119636D01*
X132063Y119464D01*
X132361Y119061D01*
X132400Y118566D01*
X132117Y118187D01*
X131584Y117999D01*
X130954Y117894D01*
X129637Y117733D01*
X129633Y117731D01*
X129624Y117731D01*
X128968Y117615D01*
X128961Y117611D01*
X128945Y117609D01*
X128304Y117430D01*
X128295Y117425D01*
X128267Y117417D01*
X127662Y117140D01*
X127655Y117134D01*
X127612Y117109D01*
X127091Y116698D01*
X127090Y116697D01*
X127039Y116643D01*
X126665Y116095D01*
X126665Y116092D01*
X126663Y116091D01*
X126632Y116023D01*
X126452Y115400D01*
X126452Y115349D01*
X126444Y115298D01*
X126452Y115280D01*
X126452Y115260D01*
X126464Y115242D01*
X126376Y114776D01*
X126376Y114773D01*
X126372Y114706D01*
X126435Y114048D01*
X126439Y114039D01*
X126447Y113992D01*
X126657Y113366D01*
X126659Y113362D01*
X126687Y113304D01*
X127060Y112760D01*
X127062Y112758D01*
X127108Y112707D01*
X127620Y112290D01*
X127627Y112287D01*
X127672Y112257D01*
X128272Y111980D01*
X128283Y111978D01*
X128320Y111963D01*
X128963Y111812D01*
X128973Y111812D01*
X129002Y111806D01*
X129662Y111756D01*
X129671Y111758D01*
X129693Y111756D01*
X130354Y111789D01*
G37*
G36*
X145394Y112002D02*
X145394Y112002D01*
X145395Y112001D01*
X145469Y112014D01*
X145967Y112174D01*
X146007Y112202D01*
X146051Y112221D01*
X146064Y112240D01*
X146082Y112253D01*
X146102Y112298D01*
X146128Y112338D01*
X146133Y112372D01*
X146138Y112381D01*
X146136Y112390D01*
X146139Y112412D01*
X146139Y114997D01*
X146336Y115462D01*
X146699Y115812D01*
X146874Y115808D01*
X148872Y112554D01*
X148880Y112548D01*
X148905Y112512D01*
X149321Y112078D01*
X149375Y112047D01*
X149427Y112013D01*
X149438Y112011D01*
X149442Y112008D01*
X149451Y112009D01*
X149501Y112001D01*
X152136Y112001D01*
X152151Y112006D01*
X152166Y112003D01*
X152217Y112025D01*
X152271Y112041D01*
X152281Y112052D01*
X152295Y112058D01*
X152326Y112104D01*
X152363Y112146D01*
X152365Y112161D01*
X152374Y112174D01*
X152386Y112247D01*
X152391Y112598D01*
X152381Y112634D01*
X152380Y112672D01*
X152355Y112727D01*
X152353Y112733D01*
X152351Y112735D01*
X152349Y112739D01*
X149083Y117660D01*
X148937Y118015D01*
X152120Y121117D01*
X152137Y121149D01*
X152163Y121174D01*
X152171Y121208D01*
X152188Y121239D01*
X152186Y121275D01*
X152194Y121310D01*
X152183Y121343D01*
X152181Y121379D01*
X152160Y121408D01*
X152148Y121442D01*
X152120Y121463D01*
X152099Y121492D01*
X152066Y121505D01*
X152037Y121528D01*
X151973Y121542D01*
X151969Y121544D01*
X151968Y121544D01*
X151965Y121544D01*
X151411Y121587D01*
X151405Y121586D01*
X151392Y121588D01*
X149415Y121588D01*
X149410Y121586D01*
X149405Y121587D01*
X149332Y121573D01*
X148759Y121371D01*
X148742Y121359D01*
X148721Y121354D01*
X148662Y121309D01*
X146139Y118686D01*
X146139Y124352D01*
X146132Y124375D01*
X146135Y124399D01*
X146110Y124469D01*
X145925Y124816D01*
X145912Y124829D01*
X145906Y124847D01*
X145864Y124879D01*
X145827Y124916D01*
X145809Y124920D01*
X145794Y124932D01*
X145742Y124936D01*
X145691Y124948D01*
X145673Y124942D01*
X145655Y124943D01*
X145585Y124917D01*
X143274Y123650D01*
X143268Y123644D01*
X143260Y123641D01*
X143248Y123628D01*
X143233Y123622D01*
X143208Y123584D01*
X143175Y123551D01*
X143174Y123543D01*
X143168Y123536D01*
X143165Y123519D01*
X143156Y123505D01*
X143145Y123431D01*
X143145Y112889D01*
X143146Y112886D01*
X143145Y112880D01*
X143166Y112242D01*
X143170Y112230D01*
X143168Y112217D01*
X143192Y112164D01*
X143210Y112110D01*
X143220Y112101D01*
X143225Y112090D01*
X143274Y112058D01*
X143318Y112021D01*
X143331Y112020D01*
X143342Y112013D01*
X143415Y112001D01*
X145392Y112001D01*
X145394Y112002D01*
G37*
%LPC*%
G36*
X193763Y55039D02*
X193763Y55039D01*
X192979Y55137D01*
X192606Y55417D01*
X192509Y56093D01*
X192509Y63582D01*
X192702Y64160D01*
X193076Y64441D01*
X196357Y64441D01*
X197049Y64342D01*
X197641Y64144D01*
X198831Y63549D01*
X199821Y62560D01*
X200117Y62067D01*
X200414Y61472D01*
X200612Y60780D01*
X200711Y60087D01*
X200711Y59394D01*
X200612Y58801D01*
X200413Y58105D01*
X200216Y57514D01*
X199822Y57021D01*
X199821Y57017D01*
X199819Y57017D01*
X199423Y56423D01*
X198831Y55930D01*
X198337Y55633D01*
X197741Y55336D01*
X197149Y55138D01*
X196457Y55039D01*
X193763Y55039D01*
G37*
%LPD*%
G36*
X162479Y111773D02*
X162479Y111773D01*
X162490Y111776D01*
X162524Y111777D01*
X163176Y111905D01*
X163186Y111910D01*
X163224Y111919D01*
X163838Y112174D01*
X163846Y112180D01*
X163884Y112199D01*
X164431Y112576D01*
X164437Y112583D01*
X164472Y112611D01*
X164714Y112871D01*
X164714Y112539D01*
X164716Y112533D01*
X164714Y112527D01*
X164735Y112466D01*
X164753Y112405D01*
X164758Y112401D01*
X164760Y112395D01*
X164812Y112341D01*
X165188Y112052D01*
X165230Y112036D01*
X165267Y112012D01*
X165309Y112006D01*
X165319Y112002D01*
X165325Y112003D01*
X165340Y112001D01*
X167337Y112001D01*
X167341Y112002D01*
X167345Y112001D01*
X167358Y112005D01*
X167370Y112003D01*
X167418Y112025D01*
X167471Y112040D01*
X167474Y112043D01*
X167478Y112044D01*
X167486Y112055D01*
X167498Y112060D01*
X167527Y112104D01*
X167563Y112145D01*
X167564Y112149D01*
X167566Y112152D01*
X167568Y112166D01*
X167575Y112177D01*
X167586Y112250D01*
X167586Y120904D01*
X167579Y120928D01*
X167582Y120952D01*
X167557Y121022D01*
X167324Y121456D01*
X167306Y121474D01*
X167295Y121499D01*
X167258Y121523D01*
X167226Y121555D01*
X167200Y121561D01*
X167178Y121576D01*
X167105Y121587D01*
X165108Y121587D01*
X165094Y121583D01*
X165080Y121585D01*
X165028Y121564D01*
X164973Y121548D01*
X164964Y121537D01*
X164951Y121531D01*
X164900Y121476D01*
X164633Y121078D01*
X164622Y121043D01*
X164602Y121013D01*
X164593Y120949D01*
X164591Y120945D01*
X164592Y120943D01*
X164591Y120940D01*
X164585Y116291D01*
X164526Y115661D01*
X164369Y115078D01*
X164063Y114605D01*
X163588Y114320D01*
X163012Y114227D01*
X162439Y114284D01*
X161976Y114554D01*
X161704Y115035D01*
X161585Y115628D01*
X161558Y116269D01*
X161558Y120923D01*
X161549Y120953D01*
X161551Y120984D01*
X161522Y121052D01*
X161271Y121467D01*
X161256Y121481D01*
X161248Y121499D01*
X161206Y121527D01*
X161168Y121562D01*
X161148Y121565D01*
X161131Y121576D01*
X161058Y121587D01*
X159061Y121587D01*
X159041Y121581D01*
X159020Y121584D01*
X158975Y121562D01*
X158927Y121548D01*
X158913Y121532D01*
X158894Y121523D01*
X158847Y121466D01*
X158598Y121049D01*
X158590Y121020D01*
X158574Y120995D01*
X158563Y120921D01*
X158564Y115595D01*
X158565Y115592D01*
X158564Y115583D01*
X158598Y114918D01*
X158600Y114911D01*
X158600Y114894D01*
X158698Y114236D01*
X158702Y114227D01*
X158703Y114224D01*
X158703Y114223D01*
X158703Y114222D01*
X158706Y114201D01*
X158899Y113564D01*
X158904Y113556D01*
X158919Y113515D01*
X159242Y112935D01*
X159246Y112932D01*
X159284Y112880D01*
X159752Y112411D01*
X159756Y112409D01*
X159809Y112369D01*
X160390Y112049D01*
X160400Y112047D01*
X160443Y112027D01*
X161083Y111848D01*
X161093Y111848D01*
X161122Y111840D01*
X161783Y111765D01*
X161792Y111767D01*
X161814Y111764D01*
X162479Y111773D01*
G37*
G36*
X170958Y112005D02*
X170958Y112005D01*
X170972Y112003D01*
X171024Y112024D01*
X171079Y112040D01*
X171088Y112051D01*
X171101Y112056D01*
X171151Y112111D01*
X171420Y112508D01*
X171431Y112543D01*
X171451Y112574D01*
X171461Y112636D01*
X171462Y112641D01*
X171462Y112643D01*
X171462Y112647D01*
X171468Y117295D01*
X171527Y117925D01*
X171683Y118509D01*
X171989Y118983D01*
X172464Y119268D01*
X173039Y119362D01*
X173612Y119305D01*
X174075Y119036D01*
X174349Y118555D01*
X174468Y117962D01*
X174495Y117322D01*
X174495Y112668D01*
X174504Y112639D01*
X174502Y112609D01*
X174530Y112540D01*
X174779Y112123D01*
X174794Y112109D01*
X174803Y112089D01*
X174844Y112062D01*
X174881Y112028D01*
X174902Y112024D01*
X174919Y112012D01*
X174993Y112001D01*
X176990Y112001D01*
X177009Y112007D01*
X177029Y112004D01*
X177075Y112026D01*
X177124Y112040D01*
X177137Y112056D01*
X177156Y112064D01*
X177203Y112121D01*
X177454Y112536D01*
X177462Y112566D01*
X177479Y112592D01*
X177490Y112665D01*
X177489Y117991D01*
X177487Y117995D01*
X177488Y118003D01*
X177455Y118668D01*
X177452Y118675D01*
X177452Y118692D01*
X177442Y118764D01*
X177367Y119263D01*
X177354Y119350D01*
X177350Y119359D01*
X177347Y119386D01*
X177154Y120022D01*
X177149Y120031D01*
X177134Y120071D01*
X176811Y120651D01*
X176808Y120655D01*
X176770Y120706D01*
X176302Y121176D01*
X176298Y121178D01*
X176245Y121218D01*
X175664Y121539D01*
X175654Y121541D01*
X175611Y121560D01*
X174971Y121740D01*
X174961Y121740D01*
X174932Y121748D01*
X174271Y121823D01*
X174262Y121821D01*
X174240Y121824D01*
X173575Y121816D01*
X173565Y121813D01*
X173530Y121811D01*
X172878Y121684D01*
X172869Y121679D01*
X172831Y121670D01*
X172217Y121416D01*
X172208Y121409D01*
X172171Y121391D01*
X171623Y121014D01*
X171617Y121006D01*
X171582Y120979D01*
X171337Y120716D01*
X171337Y121048D01*
X171335Y121053D01*
X171337Y121059D01*
X171316Y121120D01*
X171298Y121182D01*
X171294Y121186D01*
X171292Y121191D01*
X171240Y121245D01*
X170865Y121535D01*
X170823Y121551D01*
X170786Y121576D01*
X170745Y121582D01*
X170735Y121586D01*
X170728Y121585D01*
X170712Y121587D01*
X168715Y121587D01*
X168699Y121582D01*
X168682Y121585D01*
X168634Y121563D01*
X168581Y121548D01*
X168570Y121535D01*
X168555Y121528D01*
X168526Y121485D01*
X168489Y121443D01*
X168487Y121425D01*
X168478Y121411D01*
X168467Y121338D01*
X168467Y112684D01*
X168473Y112661D01*
X168471Y112637D01*
X168496Y112567D01*
X168728Y112133D01*
X168747Y112114D01*
X168758Y112089D01*
X168795Y112065D01*
X168826Y112033D01*
X168852Y112027D01*
X168874Y112012D01*
X168948Y112001D01*
X170945Y112001D01*
X170958Y112005D01*
G37*
G36*
X111652Y74825D02*
X111652Y74825D01*
X111654Y74824D01*
X111697Y74844D01*
X111741Y74862D01*
X111741Y74864D01*
X111743Y74865D01*
X111776Y74950D01*
X111776Y74998D01*
X111839Y75061D01*
X111841Y75064D01*
X111843Y75065D01*
X111869Y75131D01*
X111897Y75144D01*
X111941Y75162D01*
X111941Y75164D01*
X111943Y75165D01*
X111969Y75231D01*
X111997Y75244D01*
X112041Y75262D01*
X112041Y75264D01*
X112043Y75265D01*
X112069Y75331D01*
X112097Y75344D01*
X112141Y75362D01*
X112141Y75364D01*
X112143Y75365D01*
X112169Y75431D01*
X112197Y75444D01*
X112241Y75462D01*
X112241Y75464D01*
X112243Y75465D01*
X112276Y75550D01*
X112276Y75598D01*
X112439Y75761D01*
X112441Y75764D01*
X112443Y75765D01*
X112469Y75831D01*
X112497Y75844D01*
X112541Y75862D01*
X112541Y75864D01*
X112543Y75865D01*
X112569Y75931D01*
X112597Y75944D01*
X112641Y75962D01*
X112641Y75964D01*
X112643Y75965D01*
X112669Y76031D01*
X112697Y76044D01*
X112741Y76062D01*
X112741Y76064D01*
X112743Y76065D01*
X112769Y76131D01*
X112797Y76144D01*
X112841Y76162D01*
X112841Y76164D01*
X112843Y76165D01*
X112869Y76231D01*
X112897Y76244D01*
X112941Y76262D01*
X112941Y76264D01*
X112943Y76265D01*
X112969Y76331D01*
X112997Y76344D01*
X113041Y76362D01*
X113041Y76364D01*
X113043Y76365D01*
X113069Y76431D01*
X113097Y76444D01*
X113141Y76462D01*
X113141Y76464D01*
X113143Y76465D01*
X113176Y76550D01*
X113176Y76598D01*
X113439Y76861D01*
X113441Y76864D01*
X113443Y76865D01*
X113469Y76931D01*
X113497Y76944D01*
X113541Y76962D01*
X113541Y76964D01*
X113543Y76965D01*
X113569Y77031D01*
X113597Y77044D01*
X113641Y77062D01*
X113641Y77064D01*
X113643Y77065D01*
X113669Y77131D01*
X113697Y77144D01*
X113741Y77162D01*
X113741Y77164D01*
X113743Y77165D01*
X113769Y77231D01*
X113797Y77244D01*
X113841Y77262D01*
X113841Y77264D01*
X113843Y77265D01*
X113869Y77331D01*
X113897Y77344D01*
X113941Y77362D01*
X113941Y77364D01*
X113943Y77365D01*
X113969Y77431D01*
X113997Y77444D01*
X114041Y77462D01*
X114041Y77464D01*
X114043Y77465D01*
X114069Y77531D01*
X114097Y77544D01*
X114141Y77562D01*
X114141Y77564D01*
X114143Y77565D01*
X114169Y77631D01*
X114197Y77644D01*
X114241Y77662D01*
X114241Y77664D01*
X114243Y77665D01*
X114269Y77731D01*
X114297Y77744D01*
X114341Y77762D01*
X114341Y77764D01*
X114343Y77765D01*
X114366Y77824D01*
X114450Y77824D01*
X114452Y77825D01*
X114454Y77824D01*
X114497Y77844D01*
X114541Y77862D01*
X114541Y77864D01*
X114543Y77865D01*
X114566Y77924D01*
X114650Y77924D01*
X114652Y77925D01*
X114654Y77924D01*
X114697Y77944D01*
X114741Y77962D01*
X114741Y77964D01*
X114743Y77965D01*
X114766Y78024D01*
X114950Y78024D01*
X114953Y78025D01*
X114956Y78024D01*
X115039Y78061D01*
X115102Y78124D01*
X115198Y78124D01*
X115261Y78061D01*
X115264Y78060D01*
X115265Y78057D01*
X115350Y78024D01*
X115950Y78024D01*
X115952Y78025D01*
X115954Y78024D01*
X115997Y78044D01*
X116041Y78062D01*
X116041Y78064D01*
X116043Y78065D01*
X116066Y78124D01*
X116650Y78124D01*
X116652Y78125D01*
X116654Y78124D01*
X116697Y78144D01*
X116741Y78162D01*
X116741Y78164D01*
X116743Y78165D01*
X116766Y78224D01*
X116950Y78224D01*
X116953Y78225D01*
X116956Y78224D01*
X117039Y78261D01*
X117102Y78324D01*
X117250Y78324D01*
X117252Y78325D01*
X117254Y78324D01*
X117297Y78344D01*
X117341Y78362D01*
X117341Y78364D01*
X117343Y78365D01*
X117366Y78424D01*
X117450Y78424D01*
X117453Y78425D01*
X117456Y78424D01*
X117539Y78461D01*
X117602Y78524D01*
X117650Y78524D01*
X117652Y78525D01*
X117654Y78524D01*
X117697Y78544D01*
X117741Y78562D01*
X117741Y78564D01*
X117743Y78565D01*
X117766Y78624D01*
X117850Y78624D01*
X117852Y78625D01*
X117854Y78624D01*
X117897Y78644D01*
X117941Y78662D01*
X117941Y78664D01*
X117943Y78665D01*
X117966Y78724D01*
X118050Y78724D01*
X118052Y78725D01*
X118054Y78724D01*
X118097Y78744D01*
X118141Y78762D01*
X118141Y78764D01*
X118143Y78765D01*
X118169Y78831D01*
X118197Y78844D01*
X118241Y78862D01*
X118241Y78864D01*
X118243Y78865D01*
X118269Y78931D01*
X118297Y78944D01*
X118341Y78962D01*
X118341Y78964D01*
X118343Y78965D01*
X118368Y79029D01*
X118439Y79061D01*
X118939Y79561D01*
X118941Y79564D01*
X118943Y79565D01*
X118969Y79631D01*
X118997Y79644D01*
X119041Y79662D01*
X119041Y79664D01*
X119043Y79665D01*
X119069Y79731D01*
X119097Y79744D01*
X119141Y79762D01*
X119141Y79764D01*
X119143Y79765D01*
X119169Y79831D01*
X119197Y79844D01*
X119241Y79862D01*
X119241Y79864D01*
X119243Y79865D01*
X119276Y79950D01*
X119276Y80034D01*
X119297Y80044D01*
X119341Y80062D01*
X119341Y80064D01*
X119343Y80065D01*
X119376Y80150D01*
X119376Y80198D01*
X119539Y80361D01*
X119541Y80364D01*
X119543Y80365D01*
X119576Y80450D01*
X119576Y80498D01*
X119639Y80561D01*
X119641Y80564D01*
X119643Y80565D01*
X119676Y80650D01*
X119676Y80698D01*
X119739Y80761D01*
X119741Y80764D01*
X119743Y80765D01*
X119776Y80850D01*
X119776Y80898D01*
X119839Y80961D01*
X119841Y80964D01*
X119843Y80965D01*
X119876Y81050D01*
X119876Y81198D01*
X119939Y81261D01*
X119941Y81264D01*
X119943Y81265D01*
X119976Y81350D01*
X119976Y81534D01*
X119997Y81544D01*
X120041Y81562D01*
X120041Y81564D01*
X120043Y81565D01*
X120076Y81650D01*
X120076Y82134D01*
X120097Y82144D01*
X120141Y82162D01*
X120141Y82164D01*
X120143Y82165D01*
X120176Y82250D01*
X120176Y82850D01*
X120175Y82853D01*
X120176Y82856D01*
X120139Y82939D01*
X120076Y83002D01*
X120076Y83550D01*
X120075Y83552D01*
X120076Y83554D01*
X120056Y83597D01*
X120038Y83641D01*
X120036Y83641D01*
X120035Y83643D01*
X119976Y83666D01*
X119976Y83950D01*
X119975Y83952D01*
X119976Y83954D01*
X119956Y83997D01*
X119938Y84041D01*
X119936Y84041D01*
X119935Y84043D01*
X119876Y84066D01*
X119876Y84150D01*
X119875Y84153D01*
X119876Y84156D01*
X119839Y84239D01*
X119776Y84302D01*
X119776Y84350D01*
X119775Y84353D01*
X119776Y84356D01*
X119739Y84439D01*
X119676Y84502D01*
X119676Y84550D01*
X119675Y84553D01*
X119676Y84556D01*
X119639Y84639D01*
X119576Y84702D01*
X119576Y84750D01*
X119575Y84753D01*
X119576Y84756D01*
X119539Y84839D01*
X119476Y84902D01*
X119476Y84950D01*
X119475Y84952D01*
X119476Y84954D01*
X119456Y84997D01*
X119438Y85041D01*
X119436Y85041D01*
X119435Y85043D01*
X119369Y85069D01*
X119356Y85097D01*
X119338Y85141D01*
X119336Y85141D01*
X119335Y85143D01*
X119269Y85169D01*
X119256Y85197D01*
X119238Y85241D01*
X119236Y85241D01*
X119235Y85243D01*
X119169Y85269D01*
X119156Y85297D01*
X119138Y85341D01*
X119136Y85341D01*
X119135Y85343D01*
X119069Y85369D01*
X119056Y85397D01*
X119038Y85441D01*
X119036Y85441D01*
X119035Y85443D01*
X118969Y85469D01*
X118956Y85497D01*
X118938Y85541D01*
X118936Y85541D01*
X118935Y85543D01*
X118850Y85576D01*
X118802Y85576D01*
X118739Y85639D01*
X118736Y85641D01*
X118735Y85643D01*
X118650Y85676D01*
X118602Y85676D01*
X118539Y85739D01*
X118538Y85740D01*
X118538Y85741D01*
X118492Y85758D01*
X118448Y85776D01*
X118447Y85776D01*
X118446Y85776D01*
X118402Y85756D01*
X118358Y85736D01*
X118358Y85735D01*
X118357Y85735D01*
X118324Y85650D01*
X118324Y85066D01*
X118303Y85056D01*
X118259Y85038D01*
X118259Y85036D01*
X118257Y85035D01*
X118231Y84969D01*
X118203Y84956D01*
X118159Y84938D01*
X118159Y84936D01*
X118157Y84935D01*
X118134Y84876D01*
X117766Y84876D01*
X117756Y84897D01*
X117738Y84941D01*
X117736Y84941D01*
X117735Y84943D01*
X117650Y84976D01*
X117502Y84976D01*
X117439Y85039D01*
X117436Y85041D01*
X117435Y85043D01*
X117369Y85069D01*
X117356Y85097D01*
X117338Y85141D01*
X117336Y85141D01*
X117335Y85143D01*
X117250Y85176D01*
X117166Y85176D01*
X117156Y85197D01*
X117138Y85241D01*
X117136Y85241D01*
X117135Y85243D01*
X117069Y85269D01*
X117056Y85297D01*
X117038Y85341D01*
X117036Y85341D01*
X117035Y85343D01*
X116969Y85369D01*
X116956Y85397D01*
X116938Y85441D01*
X116936Y85441D01*
X116935Y85443D01*
X116869Y85469D01*
X116856Y85497D01*
X116838Y85541D01*
X116836Y85541D01*
X116835Y85543D01*
X116771Y85568D01*
X116739Y85639D01*
X116676Y85702D01*
X116676Y85750D01*
X116675Y85752D01*
X116676Y85754D01*
X116656Y85797D01*
X116638Y85841D01*
X116636Y85841D01*
X116635Y85843D01*
X116576Y85866D01*
X116576Y86334D01*
X116597Y86344D01*
X116641Y86362D01*
X116641Y86364D01*
X116643Y86365D01*
X116676Y86450D01*
X116676Y86534D01*
X116697Y86544D01*
X116741Y86562D01*
X116741Y86564D01*
X116743Y86565D01*
X116769Y86631D01*
X116797Y86644D01*
X116841Y86662D01*
X116841Y86664D01*
X116843Y86665D01*
X116866Y86724D01*
X116950Y86724D01*
X116952Y86725D01*
X116954Y86724D01*
X116997Y86744D01*
X117041Y86762D01*
X117041Y86764D01*
X117043Y86765D01*
X117066Y86824D01*
X117250Y86824D01*
X117252Y86825D01*
X117254Y86824D01*
X117297Y86844D01*
X117341Y86862D01*
X117341Y86864D01*
X117343Y86865D01*
X117366Y86924D01*
X117734Y86924D01*
X117744Y86903D01*
X117762Y86859D01*
X117764Y86859D01*
X117765Y86857D01*
X117850Y86824D01*
X117950Y86824D01*
X117951Y86824D01*
X117952Y86824D01*
X117996Y86843D01*
X118041Y86862D01*
X118041Y86863D01*
X118042Y86864D01*
X118059Y86909D01*
X118076Y86954D01*
X118076Y86955D01*
X118076Y86956D01*
X118039Y87039D01*
X117939Y87139D01*
X117938Y87140D01*
X117938Y87141D01*
X117936Y87141D01*
X117935Y87143D01*
X117869Y87169D01*
X117856Y87197D01*
X117838Y87241D01*
X117836Y87241D01*
X117835Y87243D01*
X117769Y87269D01*
X117756Y87297D01*
X117738Y87341D01*
X117736Y87341D01*
X117735Y87343D01*
X117650Y87376D01*
X117566Y87376D01*
X117556Y87397D01*
X117538Y87441D01*
X117536Y87441D01*
X117535Y87443D01*
X117450Y87476D01*
X117366Y87476D01*
X117356Y87497D01*
X117338Y87541D01*
X117336Y87541D01*
X117335Y87543D01*
X117250Y87576D01*
X117066Y87576D01*
X117056Y87597D01*
X117038Y87641D01*
X117036Y87641D01*
X117035Y87643D01*
X116950Y87676D01*
X116666Y87676D01*
X116656Y87697D01*
X116638Y87741D01*
X116636Y87741D01*
X116635Y87743D01*
X116550Y87776D01*
X115850Y87776D01*
X115848Y87775D01*
X115846Y87776D01*
X115803Y87756D01*
X115759Y87738D01*
X115759Y87736D01*
X115757Y87735D01*
X115734Y87676D01*
X115450Y87676D01*
X115448Y87675D01*
X115446Y87676D01*
X115403Y87656D01*
X115359Y87638D01*
X115359Y87636D01*
X115357Y87635D01*
X115334Y87576D01*
X115250Y87576D01*
X115248Y87575D01*
X115246Y87576D01*
X115203Y87556D01*
X115159Y87538D01*
X115159Y87536D01*
X115157Y87535D01*
X115134Y87476D01*
X115050Y87476D01*
X115048Y87475D01*
X115046Y87476D01*
X115003Y87456D01*
X114959Y87438D01*
X114959Y87436D01*
X114957Y87435D01*
X114932Y87371D01*
X114861Y87339D01*
X114798Y87276D01*
X114750Y87276D01*
X114748Y87275D01*
X114746Y87276D01*
X114703Y87256D01*
X114659Y87238D01*
X114659Y87236D01*
X114657Y87235D01*
X114631Y87169D01*
X114603Y87156D01*
X114559Y87138D01*
X114559Y87136D01*
X114557Y87135D01*
X114531Y87069D01*
X114503Y87056D01*
X114459Y87038D01*
X114459Y87036D01*
X114457Y87035D01*
X114431Y86969D01*
X114403Y86956D01*
X114359Y86938D01*
X114359Y86936D01*
X114357Y86935D01*
X114331Y86869D01*
X114303Y86856D01*
X114259Y86838D01*
X114259Y86836D01*
X114257Y86835D01*
X114224Y86750D01*
X114224Y86702D01*
X114161Y86639D01*
X114160Y86636D01*
X114157Y86635D01*
X114131Y86569D01*
X114103Y86556D01*
X114059Y86538D01*
X114059Y86536D01*
X114057Y86535D01*
X114024Y86450D01*
X114024Y86266D01*
X114003Y86256D01*
X113959Y86238D01*
X113959Y86236D01*
X113957Y86235D01*
X113924Y86150D01*
X113924Y85550D01*
X113925Y85547D01*
X113924Y85544D01*
X113961Y85461D01*
X114024Y85398D01*
X114024Y85250D01*
X114025Y85247D01*
X114024Y85244D01*
X114061Y85161D01*
X114124Y85098D01*
X114124Y84950D01*
X114125Y84948D01*
X114124Y84946D01*
X114144Y84903D01*
X114162Y84859D01*
X114164Y84859D01*
X114165Y84857D01*
X114229Y84832D01*
X114261Y84761D01*
X114324Y84698D01*
X114324Y84650D01*
X114325Y84648D01*
X114324Y84646D01*
X114344Y84603D01*
X114362Y84559D01*
X114364Y84559D01*
X114365Y84557D01*
X114431Y84531D01*
X114444Y84503D01*
X114462Y84459D01*
X114464Y84459D01*
X114465Y84457D01*
X114524Y84434D01*
X114524Y84350D01*
X114525Y84348D01*
X114524Y84346D01*
X114544Y84303D01*
X114562Y84259D01*
X114564Y84259D01*
X114565Y84257D01*
X114631Y84231D01*
X114644Y84203D01*
X114662Y84159D01*
X114664Y84159D01*
X114665Y84157D01*
X114731Y84131D01*
X114744Y84103D01*
X114762Y84059D01*
X114764Y84059D01*
X114765Y84057D01*
X114831Y84031D01*
X114844Y84003D01*
X114862Y83959D01*
X114864Y83959D01*
X114865Y83957D01*
X114931Y83931D01*
X114944Y83903D01*
X114962Y83859D01*
X114964Y83859D01*
X114965Y83857D01*
X115031Y83831D01*
X115044Y83803D01*
X115062Y83759D01*
X115064Y83759D01*
X115065Y83757D01*
X115131Y83731D01*
X115144Y83703D01*
X115162Y83659D01*
X115164Y83659D01*
X115165Y83657D01*
X115231Y83631D01*
X115244Y83603D01*
X115262Y83559D01*
X115264Y83559D01*
X115265Y83557D01*
X115331Y83531D01*
X115344Y83503D01*
X115362Y83459D01*
X115364Y83459D01*
X115365Y83457D01*
X115424Y83434D01*
X115424Y83350D01*
X115425Y83348D01*
X115424Y83346D01*
X115444Y83303D01*
X115462Y83259D01*
X115464Y83259D01*
X115465Y83257D01*
X115524Y83234D01*
X115524Y82666D01*
X115503Y82656D01*
X115459Y82638D01*
X115459Y82636D01*
X115457Y82635D01*
X115424Y82550D01*
X115424Y82466D01*
X115403Y82456D01*
X115359Y82438D01*
X115359Y82436D01*
X115357Y82435D01*
X115331Y82369D01*
X115303Y82356D01*
X115259Y82338D01*
X115259Y82336D01*
X115257Y82335D01*
X115232Y82271D01*
X115161Y82239D01*
X115098Y82176D01*
X115050Y82176D01*
X115047Y82175D01*
X115044Y82176D01*
X114961Y82139D01*
X114898Y82076D01*
X114550Y82076D01*
X114548Y82075D01*
X114546Y82076D01*
X114503Y82056D01*
X114502Y82056D01*
X114450Y82076D01*
X114066Y82076D01*
X114056Y82097D01*
X114038Y82141D01*
X114036Y82141D01*
X114035Y82143D01*
X113950Y82176D01*
X113866Y82176D01*
X113856Y82197D01*
X113838Y82241D01*
X113836Y82241D01*
X113835Y82243D01*
X113769Y82269D01*
X113756Y82297D01*
X113738Y82341D01*
X113736Y82341D01*
X113735Y82343D01*
X113669Y82369D01*
X113656Y82397D01*
X113638Y82441D01*
X113636Y82441D01*
X113635Y82443D01*
X113576Y82466D01*
X113576Y82550D01*
X113575Y82552D01*
X113576Y82554D01*
X113556Y82597D01*
X113538Y82641D01*
X113536Y82641D01*
X113535Y82643D01*
X113476Y82666D01*
X113476Y82934D01*
X113497Y82944D01*
X113541Y82962D01*
X113541Y82964D01*
X113543Y82965D01*
X113569Y83031D01*
X113597Y83044D01*
X113641Y83062D01*
X113641Y83064D01*
X113643Y83065D01*
X113669Y83131D01*
X113697Y83144D01*
X113741Y83162D01*
X113741Y83164D01*
X113743Y83165D01*
X113766Y83224D01*
X113850Y83224D01*
X113852Y83225D01*
X113854Y83224D01*
X113897Y83244D01*
X113941Y83262D01*
X113941Y83264D01*
X113943Y83265D01*
X113966Y83324D01*
X114050Y83324D01*
X114052Y83325D01*
X114054Y83324D01*
X114097Y83344D01*
X114141Y83362D01*
X114141Y83364D01*
X114143Y83365D01*
X114169Y83432D01*
X114241Y83462D01*
X114276Y83554D01*
X114235Y83643D01*
X114150Y83676D01*
X114066Y83676D01*
X114056Y83697D01*
X114038Y83741D01*
X114036Y83741D01*
X114035Y83743D01*
X113950Y83776D01*
X113050Y83776D01*
X113048Y83775D01*
X113046Y83776D01*
X113003Y83756D01*
X112959Y83738D01*
X112959Y83736D01*
X112957Y83735D01*
X112934Y83676D01*
X112650Y83676D01*
X112648Y83675D01*
X112646Y83676D01*
X112603Y83656D01*
X112559Y83638D01*
X112559Y83636D01*
X112557Y83635D01*
X112534Y83576D01*
X112450Y83576D01*
X112448Y83575D01*
X112446Y83576D01*
X112403Y83556D01*
X112359Y83538D01*
X112359Y83536D01*
X112357Y83535D01*
X112331Y83469D01*
X112303Y83456D01*
X112259Y83438D01*
X112259Y83436D01*
X112257Y83435D01*
X112234Y83376D01*
X112150Y83376D01*
X112148Y83375D01*
X112146Y83376D01*
X112103Y83356D01*
X112059Y83338D01*
X112059Y83336D01*
X112057Y83335D01*
X112031Y83269D01*
X112003Y83256D01*
X111959Y83238D01*
X111959Y83236D01*
X111957Y83235D01*
X111931Y83169D01*
X111903Y83156D01*
X111859Y83138D01*
X111859Y83136D01*
X111857Y83135D01*
X111824Y83050D01*
X111824Y82966D01*
X111803Y82956D01*
X111759Y82938D01*
X111759Y82936D01*
X111757Y82935D01*
X111724Y82850D01*
X111724Y82802D01*
X111661Y82739D01*
X111659Y82736D01*
X111657Y82735D01*
X111624Y82650D01*
X111624Y82566D01*
X111603Y82556D01*
X111559Y82538D01*
X111559Y82536D01*
X111557Y82535D01*
X111524Y82450D01*
X111524Y82166D01*
X111503Y82156D01*
X111459Y82138D01*
X111459Y82136D01*
X111457Y82135D01*
X111424Y82050D01*
X111424Y74950D01*
X111425Y74948D01*
X111424Y74946D01*
X111444Y74903D01*
X111462Y74859D01*
X111464Y74859D01*
X111465Y74857D01*
X111550Y74824D01*
X111650Y74824D01*
X111652Y74825D01*
G37*
G36*
X111705Y111760D02*
X111705Y111760D01*
X111720Y111758D01*
X112377Y111803D01*
X112384Y111805D01*
X112401Y111805D01*
X113050Y111913D01*
X113058Y111917D01*
X113079Y111920D01*
X113711Y112104D01*
X113719Y112109D01*
X113746Y112117D01*
X114343Y112393D01*
X114351Y112400D01*
X114384Y112417D01*
X114917Y112801D01*
X114923Y112809D01*
X114960Y112841D01*
X115389Y113339D01*
X115392Y113346D01*
X115424Y113391D01*
X115713Y113981D01*
X115715Y113990D01*
X115733Y114036D01*
X115877Y114677D01*
X115876Y114688D01*
X115883Y114726D01*
X115900Y115383D01*
X115897Y115392D01*
X115894Y115444D01*
X115750Y116084D01*
X115749Y116087D01*
X115749Y116091D01*
X115720Y116159D01*
X115378Y116719D01*
X115377Y116720D01*
X115376Y116722D01*
X115328Y116778D01*
X114829Y117205D01*
X114820Y117209D01*
X114782Y117237D01*
X114199Y117541D01*
X114190Y117543D01*
X114167Y117555D01*
X113546Y117774D01*
X113540Y117775D01*
X113526Y117781D01*
X112889Y117947D01*
X112886Y117947D01*
X112880Y117949D01*
X111599Y118231D01*
X110989Y118395D01*
X110476Y118631D01*
X110224Y119006D01*
X110338Y119400D01*
X110780Y119616D01*
X111365Y119664D01*
X111955Y119604D01*
X112448Y119380D01*
X112769Y118900D01*
X112777Y118894D01*
X112801Y118861D01*
X113162Y118505D01*
X113214Y118477D01*
X113264Y118445D01*
X113279Y118442D01*
X113285Y118439D01*
X113296Y118440D01*
X113337Y118434D01*
X115313Y118434D01*
X115327Y118438D01*
X115341Y118435D01*
X115393Y118457D01*
X115447Y118473D01*
X115457Y118484D01*
X115470Y118489D01*
X115502Y118535D01*
X115539Y118578D01*
X115541Y118592D01*
X115549Y118604D01*
X115562Y118677D01*
X115575Y119228D01*
X115573Y119236D01*
X115575Y119244D01*
X115571Y119263D01*
X115572Y119269D01*
X115568Y119277D01*
X115561Y119317D01*
X115341Y119936D01*
X115335Y119944D01*
X115314Y119989D01*
X114956Y120539D01*
X114949Y120544D01*
X114915Y120587D01*
X114430Y121030D01*
X114421Y121035D01*
X114385Y121063D01*
X113814Y121387D01*
X113803Y121390D01*
X113773Y121406D01*
X113151Y121623D01*
X113142Y121623D01*
X113118Y121632D01*
X112472Y121760D01*
X112465Y121760D01*
X112446Y121764D01*
X111791Y121823D01*
X111784Y121822D01*
X111769Y121824D01*
X111111Y121827D01*
X111105Y121826D01*
X111092Y121827D01*
X110435Y121779D01*
X110428Y121776D01*
X110411Y121776D01*
X109762Y121664D01*
X109754Y121661D01*
X109731Y121657D01*
X109102Y121465D01*
X109094Y121459D01*
X109062Y121448D01*
X108476Y121151D01*
X108469Y121144D01*
X108428Y121119D01*
X107927Y120695D01*
X107924Y120690D01*
X107881Y120644D01*
X107514Y120100D01*
X107512Y120095D01*
X107484Y120039D01*
X107277Y119415D01*
X107277Y119405D01*
X107266Y119361D01*
X107203Y118707D01*
X107204Y118697D01*
X107204Y118650D01*
X107289Y118000D01*
X107291Y117995D01*
X107290Y117991D01*
X107313Y117920D01*
X107608Y117335D01*
X107612Y117330D01*
X107614Y117324D01*
X107659Y117266D01*
X108137Y116816D01*
X108144Y116812D01*
X108188Y116779D01*
X108764Y116463D01*
X108774Y116460D01*
X108799Y116447D01*
X109418Y116222D01*
X109424Y116221D01*
X109438Y116215D01*
X110074Y116044D01*
X110077Y116044D01*
X110084Y116042D01*
X111362Y115754D01*
X111974Y115581D01*
X112518Y115348D01*
X112861Y114998D01*
X112848Y114548D01*
X112524Y114172D01*
X112005Y113973D01*
X111416Y113927D01*
X110833Y114021D01*
X110324Y114267D01*
X110203Y114411D01*
X110202Y114411D01*
X110202Y114412D01*
X109994Y114661D01*
X109993Y114661D01*
X109979Y114678D01*
X109855Y115256D01*
X109829Y115304D01*
X109802Y115365D01*
X109793Y115371D01*
X109789Y115379D01*
X109739Y115407D01*
X109685Y115442D01*
X109671Y115444D01*
X109666Y115447D01*
X109657Y115446D01*
X109612Y115453D01*
X107636Y115453D01*
X107599Y115442D01*
X107561Y115441D01*
X107509Y115416D01*
X107502Y115414D01*
X107500Y115412D01*
X107494Y115409D01*
X107116Y115146D01*
X107093Y115118D01*
X107063Y115097D01*
X107050Y115065D01*
X107028Y115038D01*
X107024Y115002D01*
X107010Y114968D01*
X107013Y114904D01*
X107013Y114899D01*
X107013Y114897D01*
X107014Y114894D01*
X107140Y114248D01*
X107145Y114239D01*
X107156Y114198D01*
X107416Y113594D01*
X107422Y113587D01*
X107446Y113543D01*
X107840Y113018D01*
X107848Y113012D01*
X107880Y112976D01*
X108386Y112556D01*
X108395Y112552D01*
X108427Y112528D01*
X109006Y112216D01*
X109016Y112214D01*
X109042Y112200D01*
X109664Y111985D01*
X109673Y111985D01*
X109695Y111977D01*
X110339Y111842D01*
X110347Y111842D01*
X110364Y111838D01*
X111019Y111770D01*
X111026Y111771D01*
X111041Y111769D01*
X111699Y111758D01*
X111705Y111760D01*
G37*
%LPC*%
G36*
X90148Y29509D02*
X90148Y29509D01*
X89570Y29702D01*
X85780Y34789D01*
X85722Y34806D01*
X85719Y34793D01*
X85705Y34795D01*
X85605Y34695D01*
X85604Y34684D01*
X85603Y34683D01*
X85603Y34682D01*
X85602Y34668D01*
X85591Y34660D01*
X85591Y30564D01*
X85494Y29984D01*
X85117Y29607D01*
X84344Y29510D01*
X83677Y29701D01*
X83489Y30169D01*
X83489Y38346D01*
X83772Y38818D01*
X84443Y39010D01*
X85123Y38913D01*
X85606Y38623D01*
X86201Y37830D01*
X88100Y35232D01*
X89300Y33532D01*
X89309Y33529D01*
X89312Y33519D01*
X89325Y33524D01*
X89356Y33514D01*
X89364Y33537D01*
X89387Y33544D01*
X89487Y33844D01*
X89483Y33855D01*
X89489Y33860D01*
X89489Y37956D01*
X89585Y38532D01*
X89963Y38816D01*
X90545Y39010D01*
X91214Y38914D01*
X91593Y38440D01*
X91691Y37757D01*
X91691Y30269D01*
X91500Y29794D01*
X91026Y29509D01*
X90148Y29509D01*
G37*
%LPD*%
%LPC*%
G36*
X183576Y55039D02*
X183576Y55039D01*
X183205Y55318D01*
X183109Y55894D01*
X183109Y63387D01*
X183206Y64063D01*
X183580Y64343D01*
X184263Y64441D01*
X189746Y64441D01*
X190219Y64157D01*
X190410Y63585D01*
X190313Y62709D01*
X190032Y62335D01*
X189456Y62239D01*
X185360Y62239D01*
X185313Y62203D01*
X185318Y62196D01*
X185311Y62190D01*
X185311Y60890D01*
X185347Y60843D01*
X185354Y60848D01*
X185360Y60841D01*
X187953Y60841D01*
X188631Y60647D01*
X188913Y60271D01*
X189009Y59497D01*
X188723Y58828D01*
X188247Y58638D01*
X187557Y58539D01*
X185560Y58539D01*
X185527Y58514D01*
X185516Y58512D01*
X185316Y58112D01*
X185319Y58096D01*
X185311Y58090D01*
X185311Y57390D01*
X185347Y57343D01*
X185350Y57345D01*
X185352Y57341D01*
X185952Y57241D01*
X185957Y57244D01*
X185960Y57241D01*
X189356Y57241D01*
X189936Y57144D01*
X190313Y56767D01*
X190410Y55994D01*
X190217Y55320D01*
X189844Y55039D01*
X183576Y55039D01*
G37*
%LPD*%
G36*
X156390Y112010D02*
X156390Y112010D01*
X156406Y112014D01*
X156422Y112012D01*
X156472Y112034D01*
X156524Y112049D01*
X156535Y112062D01*
X156550Y112069D01*
X156580Y112114D01*
X156616Y112155D01*
X156618Y112172D01*
X156627Y112185D01*
X156638Y112259D01*
X156638Y119341D01*
X156950Y119418D01*
X157582Y119418D01*
X157590Y119420D01*
X157643Y119425D01*
X158171Y119558D01*
X158220Y119587D01*
X158272Y119610D01*
X158280Y119622D01*
X158292Y119629D01*
X158317Y119679D01*
X158349Y119727D01*
X158352Y119746D01*
X158355Y119754D01*
X158354Y119764D01*
X158360Y119800D01*
X158360Y121123D01*
X158351Y121155D01*
X158351Y121187D01*
X158331Y121220D01*
X158321Y121258D01*
X158296Y121279D01*
X158279Y121307D01*
X158218Y121348D01*
X157769Y121562D01*
X157751Y121565D01*
X157736Y121575D01*
X157662Y121586D01*
X157011Y121586D01*
X156640Y121616D01*
X156643Y122008D01*
X156795Y122481D01*
X157235Y122663D01*
X157844Y122653D01*
X157871Y122660D01*
X157898Y122658D01*
X157968Y122683D01*
X158371Y122902D01*
X158389Y122920D01*
X158413Y122931D01*
X158438Y122969D01*
X158470Y123001D01*
X158476Y123026D01*
X158490Y123048D01*
X158501Y123121D01*
X158501Y124445D01*
X158501Y124447D01*
X158501Y124449D01*
X158481Y124513D01*
X158462Y124579D01*
X158460Y124580D01*
X158459Y124583D01*
X158409Y124638D01*
X158033Y124944D01*
X157996Y124960D01*
X157964Y124984D01*
X157912Y124995D01*
X157904Y124999D01*
X157900Y124998D01*
X157891Y125000D01*
X157231Y125042D01*
X157225Y125041D01*
X157212Y125042D01*
X156551Y125035D01*
X156542Y125032D01*
X156516Y125032D01*
X155863Y124931D01*
X155853Y124927D01*
X155817Y124920D01*
X155195Y124698D01*
X155188Y124693D01*
X155144Y124672D01*
X155143Y124672D01*
X155142Y124672D01*
X155141Y124671D01*
X154591Y124307D01*
X154588Y124304D01*
X154539Y124261D01*
X154111Y123759D01*
X154109Y123755D01*
X154074Y123701D01*
X153801Y123100D01*
X153800Y123091D01*
X153783Y123043D01*
X153661Y122394D01*
X153662Y122384D01*
X153657Y122353D01*
X153646Y121784D01*
X153446Y121561D01*
X152919Y121430D01*
X152894Y121415D01*
X152865Y121410D01*
X152805Y121366D01*
X151389Y119976D01*
X151388Y119975D01*
X151356Y119918D01*
X151320Y119854D01*
X151320Y119853D01*
X151324Y119784D01*
X151328Y119714D01*
X151329Y119714D01*
X151370Y119656D01*
X151410Y119601D01*
X151411Y119601D01*
X151411Y119600D01*
X151476Y119564D01*
X151820Y119435D01*
X151828Y119434D01*
X151835Y119430D01*
X151908Y119419D01*
X153644Y119419D01*
X153644Y112389D01*
X153659Y112337D01*
X153668Y112283D01*
X153678Y112271D01*
X153683Y112255D01*
X153724Y112219D01*
X153760Y112179D01*
X153781Y112169D01*
X153788Y112163D01*
X153799Y112162D01*
X153828Y112149D01*
X154349Y112008D01*
X154355Y112008D01*
X154415Y111999D01*
X156390Y112010D01*
G37*
%LPC*%
G36*
X171607Y29639D02*
X171607Y29639D01*
X170929Y29833D01*
X170549Y30307D01*
X170549Y30982D01*
X170745Y31568D01*
X171138Y32159D01*
X171629Y32649D01*
X172222Y32946D01*
X172223Y32948D01*
X172225Y32947D01*
X173425Y33647D01*
X173427Y33653D01*
X173431Y33652D01*
X173929Y34050D01*
X174527Y34449D01*
X174532Y34462D01*
X174541Y34463D01*
X174941Y35063D01*
X174940Y35072D01*
X174947Y35074D01*
X175147Y35674D01*
X175141Y35690D01*
X175149Y35698D01*
X175049Y36298D01*
X175036Y36310D01*
X175038Y36321D01*
X174638Y36821D01*
X174613Y36827D01*
X174607Y36839D01*
X173907Y36939D01*
X173893Y36931D01*
X173884Y36937D01*
X173284Y36737D01*
X173273Y36720D01*
X173262Y36721D01*
X172862Y36221D01*
X172861Y36202D01*
X172851Y36197D01*
X172752Y35501D01*
X172559Y34923D01*
X172086Y34639D01*
X171308Y34639D01*
X170737Y34830D01*
X170549Y35299D01*
X170549Y36086D01*
X170648Y36676D01*
X170944Y37368D01*
X171239Y37860D01*
X171733Y38353D01*
X172227Y38748D01*
X172815Y39042D01*
X173503Y39141D01*
X174297Y39141D01*
X174989Y39042D01*
X175576Y38846D01*
X176069Y38452D01*
X176563Y38056D01*
X176957Y37465D01*
X177252Y36875D01*
X177351Y36183D01*
X177352Y36182D01*
X177351Y36182D01*
X177451Y35582D01*
X177484Y35551D01*
X177488Y35542D01*
X177508Y35537D01*
X177456Y35513D01*
X177461Y35503D01*
X177451Y35498D01*
X177353Y34905D01*
X176759Y33719D01*
X176267Y33227D01*
X175669Y32728D01*
X175175Y32333D01*
X174682Y32136D01*
X174669Y32114D01*
X174656Y32112D01*
X174556Y31912D01*
X174557Y31907D01*
X174553Y31903D01*
X174559Y31895D01*
X174567Y31854D01*
X174587Y31857D01*
X174600Y31841D01*
X176692Y31841D01*
X177563Y31551D01*
X177752Y31078D01*
X177849Y30299D01*
X177567Y29734D01*
X176996Y29639D01*
X171607Y29639D01*
G37*
%LPD*%
%LPC*%
G36*
X184107Y29639D02*
X184107Y29639D01*
X183415Y29837D01*
X182819Y30036D01*
X182225Y30333D01*
X181631Y30728D01*
X181137Y31223D01*
X180742Y31717D01*
X180445Y32311D01*
X180148Y33004D01*
X180049Y33598D01*
X179949Y34293D01*
X179949Y34987D01*
X180048Y35679D01*
X180246Y36271D01*
X180543Y36865D01*
X180938Y37459D01*
X181433Y37953D01*
X181927Y38348D01*
X182522Y38646D01*
X183118Y38944D01*
X183811Y39142D01*
X184404Y39241D01*
X185097Y39241D01*
X185790Y39142D01*
X186485Y38943D01*
X187076Y38746D01*
X187567Y38353D01*
X188047Y37873D01*
X187953Y37309D01*
X187466Y36627D01*
X186991Y36342D01*
X186519Y36436D01*
X185927Y36831D01*
X185916Y36830D01*
X185914Y36837D01*
X185214Y37037D01*
X185204Y37034D01*
X185200Y37039D01*
X184500Y37039D01*
X184495Y37036D01*
X184492Y37039D01*
X183892Y36939D01*
X183882Y36928D01*
X183873Y36931D01*
X183273Y36531D01*
X183272Y36528D01*
X183269Y36528D01*
X182769Y36128D01*
X182767Y36118D01*
X182759Y36117D01*
X182359Y35517D01*
X182360Y35508D01*
X182353Y35506D01*
X182153Y34906D01*
X182157Y34895D01*
X182151Y34890D01*
X182151Y34190D01*
X182154Y34186D01*
X182151Y34183D01*
X182251Y33483D01*
X182259Y33475D01*
X182256Y33468D01*
X182556Y32868D01*
X182566Y32863D01*
X182565Y32855D01*
X183065Y32355D01*
X183077Y32354D01*
X183078Y32346D01*
X183678Y32046D01*
X183685Y32047D01*
X183686Y32043D01*
X184386Y31843D01*
X184396Y31846D01*
X184400Y31841D01*
X185000Y31841D01*
X185004Y31844D01*
X185007Y31841D01*
X185707Y31941D01*
X185715Y31949D01*
X185722Y31946D01*
X186122Y32146D01*
X186124Y32150D01*
X186127Y32149D01*
X186710Y32538D01*
X187176Y32445D01*
X187658Y31962D01*
X187947Y31288D01*
X187758Y30719D01*
X187272Y30330D01*
X186778Y30034D01*
X186087Y29738D01*
X185397Y29639D01*
X184107Y29639D01*
G37*
%LPD*%
G36*
X138546Y112005D02*
X138546Y112005D01*
X138596Y112009D01*
X139130Y112139D01*
X139180Y112167D01*
X139233Y112191D01*
X139240Y112202D01*
X139251Y112208D01*
X139278Y112259D01*
X139310Y112307D01*
X139312Y112325D01*
X139316Y112332D01*
X139315Y112343D01*
X139321Y112381D01*
X139321Y116358D01*
X139360Y116994D01*
X139489Y117598D01*
X139734Y118144D01*
X140116Y118582D01*
X140622Y118868D01*
X141206Y118998D01*
X142430Y118999D01*
X142446Y119004D01*
X142463Y119001D01*
X142512Y119023D01*
X142564Y119038D01*
X142575Y119051D01*
X142591Y119058D01*
X142620Y119103D01*
X142656Y119143D01*
X142658Y119160D01*
X142668Y119175D01*
X142679Y119248D01*
X142679Y121240D01*
X142679Y121241D01*
X142676Y121252D01*
X142677Y121258D01*
X142669Y121276D01*
X142659Y121307D01*
X142640Y121375D01*
X142639Y121375D01*
X142590Y121431D01*
X142191Y121768D01*
X142139Y121791D01*
X142090Y121819D01*
X142070Y121821D01*
X142063Y121824D01*
X142052Y121823D01*
X142016Y121826D01*
X141355Y121788D01*
X141345Y121785D01*
X141300Y121779D01*
X140663Y121596D01*
X140654Y121591D01*
X140615Y121577D01*
X140029Y121267D01*
X140022Y121260D01*
X139987Y121239D01*
X139476Y120817D01*
X139470Y120808D01*
X139440Y120780D01*
X139198Y120477D01*
X139198Y121092D01*
X139188Y121129D01*
X139187Y121167D01*
X139168Y121195D01*
X139159Y121226D01*
X139130Y121252D01*
X139109Y121284D01*
X139059Y121314D01*
X139054Y121318D01*
X139051Y121319D01*
X139045Y121322D01*
X138634Y121495D01*
X138599Y121498D01*
X138568Y121512D01*
X138496Y121510D01*
X138495Y121510D01*
X138494Y121510D01*
X138493Y121510D01*
X136545Y121162D01*
X136542Y121162D01*
X136539Y121161D01*
X136532Y121160D01*
X136498Y121143D01*
X136491Y121139D01*
X136438Y121123D01*
X136428Y121111D01*
X136414Y121105D01*
X136410Y121099D01*
X136407Y121097D01*
X136386Y121062D01*
X136384Y121059D01*
X136348Y121016D01*
X136346Y121001D01*
X136337Y120989D01*
X136336Y120979D01*
X136335Y120978D01*
X136335Y120973D01*
X136326Y120915D01*
X136326Y112282D01*
X136329Y112272D01*
X136327Y112261D01*
X136349Y112205D01*
X136366Y112148D01*
X136374Y112141D01*
X136378Y112131D01*
X136426Y112095D01*
X136471Y112056D01*
X136482Y112054D01*
X136491Y112048D01*
X136564Y112033D01*
X137197Y112002D01*
X137201Y112003D01*
X137209Y112002D01*
X138537Y112002D01*
X138546Y112005D01*
G37*
%LPC*%
G36*
X79059Y40309D02*
X79059Y40309D01*
X78762Y41611D01*
X104198Y41611D01*
X104291Y41056D01*
X104291Y40402D01*
X103736Y40309D01*
X79059Y40309D01*
G37*
%LPD*%
%LPC*%
G36*
X97748Y29509D02*
X97748Y29509D01*
X97177Y29700D01*
X96989Y30169D01*
X96989Y36960D01*
X96957Y37003D01*
X96956Y37007D01*
X96356Y37207D01*
X96345Y37203D01*
X96340Y37209D01*
X94343Y37209D01*
X93677Y37304D01*
X93490Y37865D01*
X93586Y38537D01*
X93963Y38913D01*
X94843Y39011D01*
X101633Y39011D01*
X102302Y38820D01*
X102490Y38255D01*
X102394Y37583D01*
X102020Y37209D01*
X99340Y37209D01*
X99302Y37180D01*
X99294Y37178D01*
X99094Y36678D01*
X99098Y36665D01*
X99091Y36660D01*
X99091Y30563D01*
X98994Y29886D01*
X98523Y29509D01*
X97748Y29509D01*
G37*
%LPD*%
%LPC*%
G36*
X175463Y55039D02*
X175463Y55039D01*
X174679Y55137D01*
X174309Y55415D01*
X174309Y63586D01*
X174405Y64160D01*
X174874Y64441D01*
X175748Y64441D01*
X176316Y64157D01*
X176411Y63682D01*
X176511Y62987D01*
X176511Y56890D01*
X176547Y56843D01*
X176554Y56848D01*
X176560Y56841D01*
X179757Y56841D01*
X180443Y56743D01*
X180911Y56462D01*
X180911Y55797D01*
X180721Y55133D01*
X180156Y55039D01*
X175463Y55039D01*
G37*
%LPD*%
%LPC*%
G36*
X167014Y29639D02*
X167014Y29639D01*
X166545Y29921D01*
X166449Y30494D01*
X166449Y38574D01*
X166727Y38944D01*
X167500Y39040D01*
X168270Y38944D01*
X168553Y38473D01*
X168651Y37886D01*
X168651Y31093D01*
X168552Y30302D01*
X168362Y29828D01*
X167891Y29639D01*
X167014Y29639D01*
G37*
%LPD*%
%LPC*%
G36*
X79377Y29700D02*
X79377Y29700D01*
X79188Y30173D01*
X79089Y30863D01*
X79089Y38248D01*
X79373Y38816D01*
X79944Y38911D01*
X80820Y38911D01*
X81194Y38536D01*
X81291Y37956D01*
X81291Y30464D01*
X81195Y29888D01*
X80821Y29607D01*
X79945Y29510D01*
X79377Y29700D01*
G37*
%LPD*%
%LPC*%
G36*
X120759Y114192D02*
X120759Y114192D01*
X120237Y114416D01*
X119828Y114812D01*
X119549Y115330D01*
X119388Y115916D01*
X119319Y116549D01*
X119313Y116566D01*
X119313Y116583D01*
X119286Y116629D01*
X119266Y116678D01*
X119252Y116689D01*
X119243Y116704D01*
X119181Y116746D01*
X119156Y116759D01*
X119201Y116786D01*
X119205Y116790D01*
X119210Y116792D01*
X119251Y116842D01*
X119294Y116891D01*
X119295Y116896D01*
X119298Y116901D01*
X119317Y116973D01*
X119382Y117617D01*
X119537Y118217D01*
X119808Y118751D01*
X120214Y119163D01*
X120739Y119397D01*
X121323Y119451D01*
X121895Y119337D01*
X122384Y119035D01*
X122747Y118575D01*
X122985Y118016D01*
X123114Y117405D01*
X123156Y116758D01*
X123155Y116755D01*
X123116Y116116D01*
X122993Y115515D01*
X122760Y114967D01*
X122397Y114524D01*
X121908Y114243D01*
X121339Y114140D01*
X120759Y114192D01*
G37*
%LPD*%
G36*
X196973Y57250D02*
X196973Y57250D01*
X196982Y57246D01*
X197182Y57346D01*
X197187Y57356D01*
X197195Y57355D01*
X197695Y57855D01*
X197695Y57859D01*
X197698Y57859D01*
X198098Y58359D01*
X198099Y58367D01*
X198104Y58368D01*
X198404Y58968D01*
X198402Y58979D01*
X198409Y58983D01*
X198509Y59683D01*
X198505Y59690D01*
X198506Y59690D01*
X198504Y59692D01*
X198509Y59697D01*
X198409Y60397D01*
X198404Y60402D01*
X198407Y60406D01*
X198207Y61006D01*
X198196Y61013D01*
X198198Y61021D01*
X197798Y61521D01*
X197788Y61523D01*
X197787Y61531D01*
X197187Y61931D01*
X197183Y61931D01*
X197182Y61934D01*
X196582Y62234D01*
X196566Y62231D01*
X196560Y62239D01*
X195160Y62239D01*
X195142Y62226D01*
X195130Y62229D01*
X194730Y61929D01*
X194722Y61898D01*
X194711Y61890D01*
X194711Y57890D01*
X194714Y57885D01*
X194711Y57882D01*
X194811Y57282D01*
X194855Y57241D01*
X194858Y57244D01*
X194860Y57241D01*
X196960Y57241D01*
X196973Y57250D01*
G37*
%LPC*%
G36*
X130164Y113965D02*
X130164Y113965D01*
X129666Y114166D01*
X129400Y114583D01*
X129405Y115165D01*
X129393Y115206D01*
X129391Y115244D01*
X129443Y115279D01*
X129884Y115691D01*
X130441Y115883D01*
X131735Y116089D01*
X131742Y116093D01*
X131759Y116094D01*
X132337Y116245D01*
X132416Y116223D01*
X132416Y115747D01*
X132423Y115723D01*
X132421Y115699D01*
X132446Y115629D01*
X132548Y115439D01*
X132526Y115437D01*
X132488Y115406D01*
X132446Y115382D01*
X132435Y115362D01*
X132418Y115348D01*
X132385Y115282D01*
X132201Y114698D01*
X131849Y114268D01*
X131344Y114015D01*
X130757Y113927D01*
X130164Y113965D01*
G37*
%LPD*%
%LPC*%
G36*
X78773Y40309D02*
X78773Y40309D01*
X78589Y40769D01*
X78589Y41611D01*
X78661Y41611D01*
X78958Y40309D01*
X78773Y40309D01*
G37*
%LPD*%
D10*
X158750Y27940D02*
X133350Y27940D01*
X158750Y48260D02*
X158883Y48258D01*
X159016Y48252D01*
X159148Y48243D01*
X159281Y48229D01*
X159413Y48212D01*
X159544Y48191D01*
X159675Y48166D01*
X159804Y48137D01*
X159933Y48104D01*
X160061Y48068D01*
X160188Y48028D01*
X160314Y47984D01*
X160438Y47937D01*
X160561Y47886D01*
X160682Y47832D01*
X160802Y47774D01*
X160920Y47712D01*
X161036Y47647D01*
X161150Y47579D01*
X161262Y47508D01*
X161372Y47433D01*
X161480Y47355D01*
X161586Y47274D01*
X161689Y47190D01*
X161789Y47103D01*
X161887Y47014D01*
X161983Y46921D01*
X162076Y46825D01*
X162165Y46727D01*
X162252Y46627D01*
X162336Y46524D01*
X162417Y46418D01*
X162495Y46310D01*
X162570Y46200D01*
X162641Y46088D01*
X162709Y45974D01*
X162774Y45858D01*
X162836Y45740D01*
X162894Y45620D01*
X162948Y45499D01*
X162999Y45376D01*
X163046Y45252D01*
X163090Y45126D01*
X163130Y44999D01*
X163166Y44871D01*
X163199Y44742D01*
X163228Y44613D01*
X163253Y44482D01*
X163274Y44351D01*
X163291Y44219D01*
X163305Y44086D01*
X163314Y43954D01*
X163320Y43821D01*
X163322Y43688D01*
X133350Y48260D02*
X133217Y48258D01*
X133084Y48252D01*
X132952Y48243D01*
X132819Y48229D01*
X132687Y48212D01*
X132556Y48191D01*
X132425Y48166D01*
X132296Y48137D01*
X132167Y48104D01*
X132039Y48068D01*
X131912Y48028D01*
X131786Y47984D01*
X131662Y47937D01*
X131539Y47886D01*
X131418Y47832D01*
X131298Y47774D01*
X131180Y47712D01*
X131064Y47647D01*
X130950Y47579D01*
X130838Y47508D01*
X130728Y47433D01*
X130620Y47355D01*
X130514Y47274D01*
X130411Y47190D01*
X130311Y47103D01*
X130213Y47014D01*
X130117Y46921D01*
X130024Y46825D01*
X129935Y46727D01*
X129848Y46627D01*
X129764Y46524D01*
X129683Y46418D01*
X129605Y46310D01*
X129530Y46200D01*
X129459Y46088D01*
X129391Y45974D01*
X129326Y45858D01*
X129264Y45740D01*
X129206Y45620D01*
X129152Y45499D01*
X129101Y45376D01*
X129054Y45252D01*
X129010Y45126D01*
X128970Y44999D01*
X128934Y44871D01*
X128901Y44742D01*
X128872Y44613D01*
X128847Y44482D01*
X128826Y44351D01*
X128809Y44219D01*
X128795Y44086D01*
X128786Y43954D01*
X128780Y43821D01*
X128778Y43688D01*
X128778Y32512D02*
X128780Y32379D01*
X128786Y32246D01*
X128795Y32114D01*
X128809Y31981D01*
X128826Y31849D01*
X128847Y31718D01*
X128872Y31587D01*
X128901Y31458D01*
X128934Y31329D01*
X128970Y31201D01*
X129010Y31074D01*
X129054Y30948D01*
X129101Y30824D01*
X129152Y30701D01*
X129206Y30580D01*
X129264Y30460D01*
X129326Y30342D01*
X129391Y30226D01*
X129459Y30112D01*
X129530Y30000D01*
X129605Y29890D01*
X129683Y29782D01*
X129764Y29676D01*
X129848Y29573D01*
X129935Y29473D01*
X130024Y29375D01*
X130117Y29279D01*
X130213Y29186D01*
X130311Y29097D01*
X130411Y29010D01*
X130514Y28926D01*
X130620Y28845D01*
X130728Y28767D01*
X130838Y28692D01*
X130950Y28621D01*
X131064Y28553D01*
X131180Y28488D01*
X131298Y28426D01*
X131418Y28368D01*
X131539Y28314D01*
X131662Y28263D01*
X131786Y28216D01*
X131912Y28172D01*
X132039Y28132D01*
X132167Y28096D01*
X132296Y28063D01*
X132425Y28034D01*
X132556Y28009D01*
X132687Y27988D01*
X132819Y27971D01*
X132952Y27957D01*
X133084Y27948D01*
X133217Y27942D01*
X133350Y27940D01*
X158750Y27940D02*
X158883Y27942D01*
X159016Y27948D01*
X159148Y27957D01*
X159281Y27971D01*
X159413Y27988D01*
X159544Y28009D01*
X159675Y28034D01*
X159804Y28063D01*
X159933Y28096D01*
X160061Y28132D01*
X160188Y28172D01*
X160314Y28216D01*
X160438Y28263D01*
X160561Y28314D01*
X160682Y28368D01*
X160802Y28426D01*
X160920Y28488D01*
X161036Y28553D01*
X161150Y28621D01*
X161262Y28692D01*
X161372Y28767D01*
X161480Y28845D01*
X161586Y28926D01*
X161689Y29010D01*
X161789Y29097D01*
X161887Y29186D01*
X161983Y29279D01*
X162076Y29375D01*
X162165Y29473D01*
X162252Y29573D01*
X162336Y29676D01*
X162417Y29782D01*
X162495Y29890D01*
X162570Y30000D01*
X162641Y30112D01*
X162709Y30226D01*
X162774Y30342D01*
X162836Y30460D01*
X162894Y30580D01*
X162948Y30701D01*
X162999Y30824D01*
X163046Y30948D01*
X163090Y31074D01*
X163130Y31201D01*
X163166Y31329D01*
X163199Y31458D01*
X163228Y31587D01*
X163253Y31718D01*
X163274Y31849D01*
X163291Y31981D01*
X163305Y32114D01*
X163314Y32246D01*
X163320Y32379D01*
X163322Y32512D01*
X163322Y43688D01*
X128778Y43688D02*
X128778Y32512D01*
X133350Y48260D02*
X158750Y48260D01*
X71120Y25400D02*
X55880Y25400D01*
X75692Y41148D02*
X75690Y41281D01*
X75684Y41414D01*
X75675Y41546D01*
X75661Y41679D01*
X75644Y41811D01*
X75623Y41942D01*
X75598Y42073D01*
X75569Y42202D01*
X75536Y42331D01*
X75500Y42459D01*
X75460Y42586D01*
X75416Y42712D01*
X75369Y42836D01*
X75318Y42959D01*
X75264Y43080D01*
X75206Y43200D01*
X75144Y43318D01*
X75079Y43434D01*
X75011Y43548D01*
X74940Y43660D01*
X74865Y43770D01*
X74787Y43878D01*
X74706Y43984D01*
X74622Y44087D01*
X74535Y44187D01*
X74446Y44285D01*
X74353Y44381D01*
X74257Y44474D01*
X74159Y44563D01*
X74059Y44650D01*
X73956Y44734D01*
X73850Y44815D01*
X73742Y44893D01*
X73632Y44968D01*
X73520Y45039D01*
X73406Y45107D01*
X73290Y45172D01*
X73172Y45234D01*
X73052Y45292D01*
X72931Y45346D01*
X72808Y45397D01*
X72684Y45444D01*
X72558Y45488D01*
X72431Y45528D01*
X72303Y45564D01*
X72174Y45597D01*
X72045Y45626D01*
X71914Y45651D01*
X71783Y45672D01*
X71651Y45689D01*
X71518Y45703D01*
X71386Y45712D01*
X71253Y45718D01*
X71120Y45720D01*
X55880Y45720D02*
X55747Y45718D01*
X55614Y45712D01*
X55482Y45703D01*
X55349Y45689D01*
X55217Y45672D01*
X55086Y45651D01*
X54955Y45626D01*
X54826Y45597D01*
X54697Y45564D01*
X54569Y45528D01*
X54442Y45488D01*
X54316Y45444D01*
X54192Y45397D01*
X54069Y45346D01*
X53948Y45292D01*
X53828Y45234D01*
X53710Y45172D01*
X53594Y45107D01*
X53480Y45039D01*
X53368Y44968D01*
X53258Y44893D01*
X53150Y44815D01*
X53044Y44734D01*
X52941Y44650D01*
X52841Y44563D01*
X52743Y44474D01*
X52647Y44381D01*
X52554Y44285D01*
X52465Y44187D01*
X52378Y44087D01*
X52294Y43984D01*
X52213Y43878D01*
X52135Y43770D01*
X52060Y43660D01*
X51989Y43548D01*
X51921Y43434D01*
X51856Y43318D01*
X51794Y43200D01*
X51736Y43080D01*
X51682Y42959D01*
X51631Y42836D01*
X51584Y42712D01*
X51540Y42586D01*
X51500Y42459D01*
X51464Y42331D01*
X51431Y42202D01*
X51402Y42073D01*
X51377Y41942D01*
X51356Y41811D01*
X51339Y41679D01*
X51325Y41546D01*
X51316Y41414D01*
X51310Y41281D01*
X51308Y41148D01*
X51308Y29972D02*
X51310Y29839D01*
X51316Y29706D01*
X51325Y29574D01*
X51339Y29441D01*
X51356Y29309D01*
X51377Y29178D01*
X51402Y29047D01*
X51431Y28918D01*
X51464Y28789D01*
X51500Y28661D01*
X51540Y28534D01*
X51584Y28408D01*
X51631Y28284D01*
X51682Y28161D01*
X51736Y28040D01*
X51794Y27920D01*
X51856Y27802D01*
X51921Y27686D01*
X51989Y27572D01*
X52060Y27460D01*
X52135Y27350D01*
X52213Y27242D01*
X52294Y27136D01*
X52378Y27033D01*
X52465Y26933D01*
X52554Y26835D01*
X52647Y26739D01*
X52743Y26646D01*
X52841Y26557D01*
X52941Y26470D01*
X53044Y26386D01*
X53150Y26305D01*
X53258Y26227D01*
X53368Y26152D01*
X53480Y26081D01*
X53594Y26013D01*
X53710Y25948D01*
X53828Y25886D01*
X53948Y25828D01*
X54069Y25774D01*
X54192Y25723D01*
X54316Y25676D01*
X54442Y25632D01*
X54569Y25592D01*
X54697Y25556D01*
X54826Y25523D01*
X54955Y25494D01*
X55086Y25469D01*
X55217Y25448D01*
X55349Y25431D01*
X55482Y25417D01*
X55614Y25408D01*
X55747Y25402D01*
X55880Y25400D01*
X71120Y25400D02*
X71253Y25402D01*
X71386Y25408D01*
X71518Y25417D01*
X71651Y25431D01*
X71783Y25448D01*
X71914Y25469D01*
X72045Y25494D01*
X72174Y25523D01*
X72303Y25556D01*
X72431Y25592D01*
X72558Y25632D01*
X72684Y25676D01*
X72808Y25723D01*
X72931Y25774D01*
X73052Y25828D01*
X73172Y25886D01*
X73290Y25948D01*
X73406Y26013D01*
X73520Y26081D01*
X73632Y26152D01*
X73742Y26227D01*
X73850Y26305D01*
X73956Y26386D01*
X74059Y26470D01*
X74159Y26557D01*
X74257Y26646D01*
X74353Y26739D01*
X74446Y26835D01*
X74535Y26933D01*
X74622Y27033D01*
X74706Y27136D01*
X74787Y27242D01*
X74865Y27350D01*
X74940Y27460D01*
X75011Y27572D01*
X75079Y27686D01*
X75144Y27802D01*
X75206Y27920D01*
X75264Y28040D01*
X75318Y28161D01*
X75369Y28284D01*
X75416Y28408D01*
X75460Y28534D01*
X75500Y28661D01*
X75536Y28789D01*
X75569Y28918D01*
X75598Y29047D01*
X75623Y29178D01*
X75644Y29309D01*
X75661Y29441D01*
X75675Y29574D01*
X75684Y29706D01*
X75690Y29839D01*
X75692Y29972D01*
X75692Y41148D01*
X51308Y41148D02*
X51308Y29972D01*
X55880Y45720D02*
X71120Y45720D01*
X151130Y52070D02*
X166370Y52070D01*
X170942Y67818D02*
X170940Y67951D01*
X170934Y68084D01*
X170925Y68216D01*
X170911Y68349D01*
X170894Y68481D01*
X170873Y68612D01*
X170848Y68743D01*
X170819Y68872D01*
X170786Y69001D01*
X170750Y69129D01*
X170710Y69256D01*
X170666Y69382D01*
X170619Y69506D01*
X170568Y69629D01*
X170514Y69750D01*
X170456Y69870D01*
X170394Y69988D01*
X170329Y70104D01*
X170261Y70218D01*
X170190Y70330D01*
X170115Y70440D01*
X170037Y70548D01*
X169956Y70654D01*
X169872Y70757D01*
X169785Y70857D01*
X169696Y70955D01*
X169603Y71051D01*
X169507Y71144D01*
X169409Y71233D01*
X169309Y71320D01*
X169206Y71404D01*
X169100Y71485D01*
X168992Y71563D01*
X168882Y71638D01*
X168770Y71709D01*
X168656Y71777D01*
X168540Y71842D01*
X168422Y71904D01*
X168302Y71962D01*
X168181Y72016D01*
X168058Y72067D01*
X167934Y72114D01*
X167808Y72158D01*
X167681Y72198D01*
X167553Y72234D01*
X167424Y72267D01*
X167295Y72296D01*
X167164Y72321D01*
X167033Y72342D01*
X166901Y72359D01*
X166768Y72373D01*
X166636Y72382D01*
X166503Y72388D01*
X166370Y72390D01*
X151130Y72390D02*
X150997Y72388D01*
X150864Y72382D01*
X150732Y72373D01*
X150599Y72359D01*
X150467Y72342D01*
X150336Y72321D01*
X150205Y72296D01*
X150076Y72267D01*
X149947Y72234D01*
X149819Y72198D01*
X149692Y72158D01*
X149566Y72114D01*
X149442Y72067D01*
X149319Y72016D01*
X149198Y71962D01*
X149078Y71904D01*
X148960Y71842D01*
X148844Y71777D01*
X148730Y71709D01*
X148618Y71638D01*
X148508Y71563D01*
X148400Y71485D01*
X148294Y71404D01*
X148191Y71320D01*
X148091Y71233D01*
X147993Y71144D01*
X147897Y71051D01*
X147804Y70955D01*
X147715Y70857D01*
X147628Y70757D01*
X147544Y70654D01*
X147463Y70548D01*
X147385Y70440D01*
X147310Y70330D01*
X147239Y70218D01*
X147171Y70104D01*
X147106Y69988D01*
X147044Y69870D01*
X146986Y69750D01*
X146932Y69629D01*
X146881Y69506D01*
X146834Y69382D01*
X146790Y69256D01*
X146750Y69129D01*
X146714Y69001D01*
X146681Y68872D01*
X146652Y68743D01*
X146627Y68612D01*
X146606Y68481D01*
X146589Y68349D01*
X146575Y68216D01*
X146566Y68084D01*
X146560Y67951D01*
X146558Y67818D01*
X146558Y56642D02*
X146560Y56509D01*
X146566Y56376D01*
X146575Y56244D01*
X146589Y56111D01*
X146606Y55979D01*
X146627Y55848D01*
X146652Y55717D01*
X146681Y55588D01*
X146714Y55459D01*
X146750Y55331D01*
X146790Y55204D01*
X146834Y55078D01*
X146881Y54954D01*
X146932Y54831D01*
X146986Y54710D01*
X147044Y54590D01*
X147106Y54472D01*
X147171Y54356D01*
X147239Y54242D01*
X147310Y54130D01*
X147385Y54020D01*
X147463Y53912D01*
X147544Y53806D01*
X147628Y53703D01*
X147715Y53603D01*
X147804Y53505D01*
X147897Y53409D01*
X147993Y53316D01*
X148091Y53227D01*
X148191Y53140D01*
X148294Y53056D01*
X148400Y52975D01*
X148508Y52897D01*
X148618Y52822D01*
X148730Y52751D01*
X148844Y52683D01*
X148960Y52618D01*
X149078Y52556D01*
X149198Y52498D01*
X149319Y52444D01*
X149442Y52393D01*
X149566Y52346D01*
X149692Y52302D01*
X149819Y52262D01*
X149947Y52226D01*
X150076Y52193D01*
X150205Y52164D01*
X150336Y52139D01*
X150467Y52118D01*
X150599Y52101D01*
X150732Y52087D01*
X150864Y52078D01*
X150997Y52072D01*
X151130Y52070D01*
X166370Y52070D02*
X166503Y52072D01*
X166636Y52078D01*
X166768Y52087D01*
X166901Y52101D01*
X167033Y52118D01*
X167164Y52139D01*
X167295Y52164D01*
X167424Y52193D01*
X167553Y52226D01*
X167681Y52262D01*
X167808Y52302D01*
X167934Y52346D01*
X168058Y52393D01*
X168181Y52444D01*
X168302Y52498D01*
X168422Y52556D01*
X168540Y52618D01*
X168656Y52683D01*
X168770Y52751D01*
X168882Y52822D01*
X168992Y52897D01*
X169100Y52975D01*
X169206Y53056D01*
X169309Y53140D01*
X169409Y53227D01*
X169507Y53316D01*
X169603Y53409D01*
X169696Y53505D01*
X169785Y53603D01*
X169872Y53703D01*
X169956Y53806D01*
X170037Y53912D01*
X170115Y54020D01*
X170190Y54130D01*
X170261Y54242D01*
X170329Y54356D01*
X170394Y54472D01*
X170456Y54590D01*
X170514Y54710D01*
X170568Y54831D01*
X170619Y54954D01*
X170666Y55078D01*
X170710Y55204D01*
X170750Y55331D01*
X170786Y55459D01*
X170819Y55588D01*
X170848Y55717D01*
X170873Y55848D01*
X170894Y55979D01*
X170911Y56111D01*
X170925Y56244D01*
X170934Y56376D01*
X170940Y56509D01*
X170942Y56642D01*
X170942Y67818D01*
X146558Y67818D02*
X146558Y56642D01*
X151130Y72390D02*
X166370Y72390D01*
D11*
X7620Y69850D02*
X7620Y107950D01*
X33020Y57150D02*
X40640Y57150D01*
X40640Y64770D01*
X40640Y120650D02*
X33020Y120650D01*
X40640Y120650D02*
X40640Y113030D01*
X246380Y107950D02*
X246380Y69850D01*
X220980Y120650D02*
X213360Y120650D01*
X213360Y113030D01*
X213360Y57150D02*
X220980Y57150D01*
X213360Y57150D02*
X213360Y64770D01*
D10*
X176213Y73025D02*
X166688Y73025D01*
X83200Y84200D02*
X83200Y90200D01*
X75200Y90200D01*
X83200Y68200D02*
X83200Y62200D01*
X75200Y62200D01*
M02*
