M48
;GenerationSoftware,Autodesk,EAGLE,9.6.2*%
;CreationDate,2023-10-18T15:49:39Z*%
FMAT,2
ICI,OFF
METRIC,TZ,000.000
T4C0.305
T3C0.381
T2C1.016
T1C3.302
%
G90
M71
T1
X2540Y2540
X22860Y2540
T2
X19050Y1270
X16510Y1270
X13970Y1270
X11430Y1270
X8890Y1270
X6350Y1270
T3
X10160Y5715
X8763Y6731
X10160Y7305
T4
X22860Y10160
X1270Y10541
X4445Y6604
X4826Y12065
X9144Y11176
X12446Y9398
X21844Y6223
X9144Y9779
X1778Y9779
X12065Y3556
X12700Y7366
X7620Y4318
X15873Y7495
X17399Y4318
X10033Y8255
X4953Y4572
X16239Y10541
X22860Y8382
X11303Y10287
X2540Y9398
X20193Y7366
X15621Y9254
X15113Y7366
M30