G04 EAGLE Gerber RS-274X export*
G75*
%MOMM*%
%FSLAX34Y34*%
%LPD*%
%INTop Copper*%
%IPPOS*%
%AMOC8*
5,1,8,0,0,1.08239X$1,22.5*%
G01*
%ADD10C,1.000000*%
%ADD11C,0.099059*%
%ADD12C,0.100000*%
%ADD13C,0.102000*%
%ADD14C,0.096000*%
%ADD15C,1.879600*%
%ADD16C,0.300000*%
%ADD17C,0.104000*%
%ADD18C,0.635000*%
%ADD19C,0.558800*%
%ADD20C,0.254000*%
%ADD21C,0.635000*%

G36*
X216140Y4075D02*
X216140Y4075D01*
X216214Y4075D01*
X216280Y4095D01*
X216349Y4105D01*
X216416Y4135D01*
X216486Y4155D01*
X216545Y4192D01*
X216608Y4221D01*
X216664Y4268D01*
X216726Y4308D01*
X216772Y4360D01*
X216825Y4404D01*
X216866Y4466D01*
X216915Y4521D01*
X216944Y4583D01*
X216983Y4641D01*
X217005Y4711D01*
X217036Y4778D01*
X217048Y4846D01*
X217068Y4912D01*
X217070Y4986D01*
X217082Y5058D01*
X217074Y5127D01*
X217076Y5196D01*
X217057Y5267D01*
X217048Y5341D01*
X217021Y5404D01*
X217004Y5471D01*
X216966Y5535D01*
X216938Y5602D01*
X216899Y5647D01*
X216859Y5716D01*
X216769Y5800D01*
X216720Y5858D01*
X211015Y10644D01*
X207029Y17549D01*
X205645Y25400D01*
X207029Y33251D01*
X211015Y40155D01*
X217122Y45280D01*
X224614Y48007D01*
X232586Y48007D01*
X240078Y45280D01*
X246185Y40156D01*
X248041Y36941D01*
X248053Y36926D01*
X248061Y36908D01*
X248140Y36814D01*
X248216Y36717D01*
X248232Y36706D01*
X248245Y36691D01*
X248347Y36622D01*
X248446Y36551D01*
X248465Y36544D01*
X248481Y36533D01*
X248599Y36496D01*
X248714Y36454D01*
X248734Y36453D01*
X248752Y36447D01*
X248875Y36444D01*
X248998Y36436D01*
X249017Y36441D01*
X249036Y36440D01*
X249155Y36471D01*
X249275Y36498D01*
X249293Y36507D01*
X249311Y36512D01*
X249417Y36574D01*
X249525Y36633D01*
X249539Y36647D01*
X249556Y36657D01*
X249640Y36747D01*
X249727Y36833D01*
X249737Y36850D01*
X249750Y36864D01*
X249806Y36974D01*
X249866Y37081D01*
X249871Y37100D01*
X249880Y37118D01*
X249892Y37190D01*
X249931Y37358D01*
X249929Y37409D01*
X249935Y37449D01*
X249935Y50836D01*
X249927Y50894D01*
X249929Y50952D01*
X249907Y51034D01*
X249895Y51118D01*
X249872Y51171D01*
X249857Y51227D01*
X249814Y51300D01*
X249779Y51377D01*
X249741Y51422D01*
X249712Y51472D01*
X249650Y51530D01*
X249596Y51594D01*
X249547Y51626D01*
X249504Y51666D01*
X249429Y51705D01*
X249359Y51752D01*
X249303Y51769D01*
X249251Y51796D01*
X249183Y51807D01*
X249088Y51837D01*
X248988Y51840D01*
X248920Y51851D01*
X228028Y51851D01*
X225961Y53918D01*
X225961Y67887D01*
X225957Y67917D01*
X225960Y67946D01*
X225937Y68057D01*
X225921Y68169D01*
X225909Y68196D01*
X225904Y68224D01*
X225851Y68325D01*
X225805Y68428D01*
X225786Y68451D01*
X225773Y68477D01*
X225695Y68559D01*
X225622Y68645D01*
X225597Y68662D01*
X225577Y68683D01*
X225479Y68740D01*
X225385Y68803D01*
X225357Y68812D01*
X225332Y68827D01*
X225222Y68855D01*
X225114Y68889D01*
X225084Y68889D01*
X225056Y68897D01*
X224943Y68893D01*
X224830Y68896D01*
X224801Y68889D01*
X224772Y68888D01*
X224664Y68853D01*
X224555Y68824D01*
X224529Y68809D01*
X224501Y68800D01*
X224437Y68755D01*
X224310Y68679D01*
X224267Y68633D01*
X224228Y68605D01*
X223474Y67851D01*
X206046Y67851D01*
X205685Y68213D01*
X205683Y68214D01*
X205682Y68215D01*
X205569Y68300D01*
X205457Y68384D01*
X205456Y68384D01*
X205455Y68385D01*
X205324Y68434D01*
X205192Y68485D01*
X205190Y68485D01*
X205189Y68485D01*
X205045Y68497D01*
X204908Y68508D01*
X204907Y68508D01*
X204905Y68508D01*
X204889Y68505D01*
X204630Y68452D01*
X204602Y68438D01*
X204578Y68433D01*
X203092Y67817D01*
X200768Y67817D01*
X198620Y68707D01*
X196977Y70350D01*
X196226Y72162D01*
X196168Y72261D01*
X196115Y72363D01*
X196096Y72383D01*
X196082Y72407D01*
X195998Y72486D01*
X195919Y72569D01*
X195895Y72583D01*
X195875Y72602D01*
X195773Y72655D01*
X195674Y72713D01*
X195647Y72720D01*
X195622Y72733D01*
X195509Y72755D01*
X195398Y72783D01*
X195371Y72782D01*
X195343Y72788D01*
X195229Y72778D01*
X195114Y72774D01*
X195088Y72765D01*
X195060Y72763D01*
X194953Y72722D01*
X194844Y72687D01*
X194823Y72672D01*
X194795Y72661D01*
X194582Y72500D01*
X194570Y72492D01*
X194481Y72402D01*
X194428Y72332D01*
X194369Y72269D01*
X194343Y72219D01*
X194310Y72175D01*
X194279Y72093D01*
X194239Y72016D01*
X194231Y71968D01*
X194209Y71909D01*
X194197Y71762D01*
X194184Y71685D01*
X194184Y56357D01*
X193236Y54069D01*
X191343Y52176D01*
X186584Y47417D01*
X184691Y45524D01*
X182403Y44576D01*
X180848Y44576D01*
X180790Y44568D01*
X180732Y44570D01*
X180650Y44548D01*
X180566Y44536D01*
X180513Y44513D01*
X180457Y44498D01*
X180384Y44455D01*
X180307Y44420D01*
X180262Y44382D01*
X180212Y44353D01*
X180154Y44291D01*
X180090Y44237D01*
X180058Y44188D01*
X180018Y44145D01*
X179979Y44070D01*
X179932Y44000D01*
X179915Y43944D01*
X179888Y43892D01*
X179877Y43824D01*
X179847Y43729D01*
X179844Y43629D01*
X179833Y43561D01*
X179833Y42018D01*
X178943Y39870D01*
X177300Y38227D01*
X175152Y37337D01*
X174675Y37337D01*
X174589Y37325D01*
X174501Y37322D01*
X174449Y37305D01*
X174394Y37297D01*
X174314Y37262D01*
X174231Y37235D01*
X174192Y37207D01*
X174135Y37181D01*
X174021Y37085D01*
X173958Y37040D01*
X173526Y36609D01*
X173526Y36608D01*
X172179Y35262D01*
X172162Y35238D01*
X172139Y35219D01*
X172077Y35125D01*
X172009Y35035D01*
X171998Y35007D01*
X171982Y34983D01*
X171948Y34875D01*
X171907Y34769D01*
X171905Y34740D01*
X171896Y34712D01*
X171893Y34598D01*
X171884Y34486D01*
X171890Y34457D01*
X171889Y34428D01*
X171917Y34318D01*
X171940Y34207D01*
X171953Y34181D01*
X171961Y34153D01*
X172018Y34055D01*
X172071Y33955D01*
X172091Y33933D01*
X172106Y33908D01*
X172188Y33831D01*
X172266Y33749D01*
X172292Y33734D01*
X172313Y33714D01*
X172414Y33662D01*
X172512Y33605D01*
X172540Y33598D01*
X172566Y33584D01*
X172644Y33571D01*
X172787Y33535D01*
X172850Y33537D01*
X172897Y33529D01*
X175779Y33529D01*
X184813Y24495D01*
X184814Y24494D01*
X184815Y24493D01*
X184933Y24404D01*
X185040Y24324D01*
X185041Y24323D01*
X185043Y24322D01*
X185176Y24272D01*
X185306Y24223D01*
X185307Y24223D01*
X185309Y24222D01*
X185453Y24210D01*
X185589Y24199D01*
X185590Y24199D01*
X185592Y24199D01*
X185608Y24203D01*
X185868Y24255D01*
X185895Y24269D01*
X185919Y24275D01*
X188024Y25147D01*
X192976Y25147D01*
X197551Y23252D01*
X201052Y19751D01*
X202947Y15176D01*
X202947Y10224D01*
X200977Y5469D01*
X200948Y5357D01*
X200914Y5248D01*
X200913Y5220D01*
X200906Y5193D01*
X200909Y5079D01*
X200906Y4964D01*
X200913Y4937D01*
X200914Y4909D01*
X200949Y4800D01*
X200978Y4689D01*
X200992Y4665D01*
X201001Y4638D01*
X201065Y4543D01*
X201123Y4444D01*
X201144Y4425D01*
X201159Y4402D01*
X201247Y4328D01*
X201331Y4250D01*
X201355Y4237D01*
X201377Y4219D01*
X201481Y4173D01*
X201584Y4120D01*
X201608Y4116D01*
X201636Y4104D01*
X201900Y4067D01*
X201915Y4065D01*
X216067Y4065D01*
X216140Y4075D01*
G37*
G36*
X53115Y4078D02*
X53115Y4078D01*
X53207Y4081D01*
X53256Y4097D01*
X53306Y4105D01*
X53390Y4142D01*
X53477Y4171D01*
X53519Y4200D01*
X53565Y4221D01*
X53635Y4280D01*
X53711Y4332D01*
X53743Y4372D01*
X53782Y4404D01*
X53833Y4481D01*
X53892Y4552D01*
X53912Y4599D01*
X53940Y4641D01*
X53968Y4729D01*
X54004Y4813D01*
X54010Y4864D01*
X54026Y4912D01*
X54028Y5004D01*
X54039Y5095D01*
X54032Y5146D01*
X54033Y5196D01*
X54010Y5285D01*
X53995Y5376D01*
X53975Y5416D01*
X53961Y5471D01*
X53880Y5608D01*
X53846Y5677D01*
X53289Y6443D01*
X52436Y8117D01*
X51855Y9904D01*
X51734Y10669D01*
X62484Y10669D01*
X62542Y10677D01*
X62600Y10675D01*
X62682Y10697D01*
X62765Y10709D01*
X62819Y10733D01*
X62875Y10747D01*
X62948Y10790D01*
X63025Y10825D01*
X63069Y10863D01*
X63120Y10893D01*
X63177Y10954D01*
X63242Y11009D01*
X63274Y11057D01*
X63314Y11100D01*
X63353Y11175D01*
X63399Y11245D01*
X63417Y11301D01*
X63444Y11353D01*
X63455Y11421D01*
X63485Y11516D01*
X63488Y11616D01*
X63499Y11684D01*
X63499Y13716D01*
X63491Y13774D01*
X63492Y13832D01*
X63471Y13914D01*
X63459Y13997D01*
X63435Y14051D01*
X63421Y14107D01*
X63378Y14180D01*
X63343Y14257D01*
X63305Y14302D01*
X63275Y14352D01*
X63214Y14410D01*
X63159Y14474D01*
X63111Y14506D01*
X63068Y14546D01*
X62993Y14585D01*
X62923Y14631D01*
X62867Y14649D01*
X62815Y14676D01*
X62747Y14687D01*
X62652Y14717D01*
X62552Y14720D01*
X62484Y14731D01*
X51734Y14731D01*
X51855Y15496D01*
X52436Y17283D01*
X53289Y18957D01*
X54394Y20478D01*
X55722Y21806D01*
X57243Y22911D01*
X58917Y23764D01*
X60199Y24180D01*
X60311Y24236D01*
X60426Y24287D01*
X60439Y24298D01*
X60454Y24305D01*
X60547Y24389D01*
X60643Y24471D01*
X60652Y24485D01*
X60665Y24496D01*
X60731Y24603D01*
X60800Y24707D01*
X60806Y24723D01*
X60815Y24738D01*
X60848Y24859D01*
X60886Y24978D01*
X60887Y24995D01*
X60891Y25012D01*
X60890Y25137D01*
X60894Y25262D01*
X60889Y25279D01*
X60889Y25296D01*
X60853Y25417D01*
X60822Y25537D01*
X60813Y25552D01*
X60808Y25568D01*
X60740Y25674D01*
X60676Y25782D01*
X60664Y25793D01*
X60655Y25808D01*
X60561Y25891D01*
X60469Y25976D01*
X60454Y25984D01*
X60441Y25995D01*
X60327Y26049D01*
X60216Y26106D01*
X60201Y26108D01*
X60184Y26116D01*
X59903Y26161D01*
X59894Y26160D01*
X59885Y26161D01*
X54018Y26161D01*
X51942Y28237D01*
X51942Y38050D01*
X51930Y38136D01*
X51927Y38224D01*
X51910Y38276D01*
X51902Y38331D01*
X51867Y38411D01*
X51840Y38494D01*
X51812Y38533D01*
X51786Y38590D01*
X51690Y38704D01*
X51645Y38767D01*
X50832Y39580D01*
X50763Y39632D01*
X50699Y39692D01*
X50649Y39718D01*
X50605Y39751D01*
X50524Y39782D01*
X50446Y39822D01*
X50398Y39830D01*
X50340Y39852D01*
X50192Y39864D01*
X50115Y39877D01*
X48368Y39877D01*
X46220Y40767D01*
X44577Y42410D01*
X43687Y44558D01*
X43687Y46882D01*
X44577Y49030D01*
X46220Y50673D01*
X48368Y51563D01*
X50692Y51563D01*
X51514Y51222D01*
X51597Y51201D01*
X51677Y51170D01*
X51734Y51166D01*
X51789Y51152D01*
X51875Y51154D01*
X51960Y51147D01*
X52016Y51158D01*
X52073Y51160D01*
X52155Y51186D01*
X52239Y51203D01*
X52290Y51229D01*
X52344Y51246D01*
X52415Y51294D01*
X52491Y51334D01*
X52533Y51373D01*
X52580Y51405D01*
X52635Y51470D01*
X52698Y51530D01*
X52726Y51579D01*
X52763Y51622D01*
X52798Y51701D01*
X52841Y51775D01*
X52855Y51830D01*
X52878Y51882D01*
X52890Y51967D01*
X52911Y52050D01*
X52910Y52107D01*
X52917Y52164D01*
X52905Y52249D01*
X52902Y52334D01*
X52885Y52389D01*
X52877Y52445D01*
X52841Y52523D01*
X52815Y52605D01*
X52786Y52645D01*
X52760Y52704D01*
X52665Y52815D01*
X52620Y52878D01*
X48064Y57435D01*
X47116Y59722D01*
X47116Y67344D01*
X47108Y67402D01*
X47110Y67460D01*
X47088Y67542D01*
X47076Y67626D01*
X47053Y67679D01*
X47038Y67735D01*
X46995Y67808D01*
X46960Y67885D01*
X46922Y67930D01*
X46893Y67980D01*
X46831Y68038D01*
X46777Y68102D01*
X46728Y68134D01*
X46685Y68174D01*
X46610Y68213D01*
X46540Y68260D01*
X46484Y68277D01*
X46432Y68304D01*
X46364Y68315D01*
X46269Y68345D01*
X46169Y68348D01*
X46101Y68359D01*
X40739Y68359D01*
X40739Y73416D01*
X40731Y73474D01*
X40733Y73532D01*
X40711Y73614D01*
X40699Y73697D01*
X40676Y73751D01*
X40661Y73807D01*
X40618Y73880D01*
X40583Y73957D01*
X40545Y74001D01*
X40516Y74052D01*
X40454Y74109D01*
X40400Y74174D01*
X40351Y74206D01*
X40308Y74246D01*
X40233Y74285D01*
X40163Y74331D01*
X40107Y74349D01*
X40055Y74376D01*
X39987Y74387D01*
X39892Y74417D01*
X39792Y74420D01*
X39765Y74424D01*
X39763Y74442D01*
X39764Y74500D01*
X39743Y74582D01*
X39731Y74666D01*
X39707Y74719D01*
X39693Y74775D01*
X39649Y74848D01*
X39615Y74925D01*
X39577Y74970D01*
X39547Y75020D01*
X39486Y75078D01*
X39431Y75142D01*
X39383Y75174D01*
X39340Y75214D01*
X39265Y75253D01*
X39195Y75300D01*
X39139Y75317D01*
X39087Y75344D01*
X39019Y75355D01*
X38924Y75385D01*
X38824Y75388D01*
X38756Y75399D01*
X28949Y75399D01*
X28949Y76792D01*
X29157Y77568D01*
X29373Y77941D01*
X29398Y78004D01*
X29432Y78063D01*
X29451Y78135D01*
X29479Y78204D01*
X29486Y78272D01*
X29503Y78338D01*
X29500Y78413D01*
X29508Y78487D01*
X29496Y78554D01*
X29493Y78622D01*
X29471Y78693D01*
X29457Y78767D01*
X29427Y78828D01*
X29406Y78893D01*
X29370Y78944D01*
X29331Y79022D01*
X29254Y79106D01*
X29211Y79166D01*
X28441Y79936D01*
X28441Y87396D01*
X28425Y87510D01*
X28415Y87624D01*
X28405Y87650D01*
X28401Y87678D01*
X28355Y87782D01*
X28313Y87890D01*
X28296Y87912D01*
X28285Y87937D01*
X28211Y88025D01*
X28142Y88116D01*
X28119Y88133D01*
X28102Y88154D01*
X28006Y88218D01*
X27914Y88287D01*
X27888Y88296D01*
X27865Y88312D01*
X27755Y88346D01*
X27648Y88387D01*
X27620Y88389D01*
X27594Y88397D01*
X27479Y88400D01*
X27365Y88410D01*
X27340Y88404D01*
X27310Y88405D01*
X27053Y88338D01*
X27037Y88334D01*
X26562Y88137D01*
X24238Y88137D01*
X22090Y89027D01*
X20447Y90670D01*
X20164Y91354D01*
X20134Y91405D01*
X20113Y91459D01*
X20062Y91526D01*
X20019Y91599D01*
X19977Y91639D01*
X19941Y91686D01*
X19874Y91736D01*
X19812Y91794D01*
X19760Y91821D01*
X19714Y91856D01*
X19635Y91886D01*
X19560Y91924D01*
X19502Y91936D01*
X19448Y91956D01*
X19363Y91963D01*
X19281Y91979D01*
X19222Y91974D01*
X19164Y91979D01*
X19097Y91964D01*
X18997Y91955D01*
X18977Y91947D01*
X16618Y91947D01*
X14470Y92837D01*
X12827Y94480D01*
X11937Y96628D01*
X11937Y98952D01*
X12827Y101100D01*
X14470Y102743D01*
X16618Y103633D01*
X17095Y103633D01*
X17181Y103645D01*
X17269Y103648D01*
X17321Y103665D01*
X17376Y103673D01*
X17456Y103708D01*
X17539Y103735D01*
X17578Y103763D01*
X17635Y103789D01*
X17749Y103885D01*
X17812Y103930D01*
X18531Y104649D01*
X27426Y104649D01*
X27484Y104657D01*
X27542Y104655D01*
X27624Y104677D01*
X27708Y104689D01*
X27761Y104712D01*
X27817Y104727D01*
X27890Y104770D01*
X27967Y104805D01*
X28012Y104843D01*
X28062Y104872D01*
X28120Y104934D01*
X28184Y104988D01*
X28216Y105037D01*
X28256Y105080D01*
X28295Y105155D01*
X28342Y105225D01*
X28359Y105281D01*
X28386Y105333D01*
X28397Y105401D01*
X28427Y105496D01*
X28430Y105596D01*
X28441Y105664D01*
X28441Y107870D01*
X28437Y107899D01*
X28440Y107928D01*
X28417Y108039D01*
X28401Y108151D01*
X28389Y108178D01*
X28384Y108207D01*
X28331Y108308D01*
X28285Y108411D01*
X28266Y108433D01*
X28253Y108459D01*
X28175Y108541D01*
X28102Y108628D01*
X28077Y108644D01*
X28057Y108665D01*
X27959Y108723D01*
X27865Y108785D01*
X27837Y108794D01*
X27812Y108809D01*
X27702Y108837D01*
X27594Y108871D01*
X27564Y108872D01*
X27536Y108879D01*
X27423Y108876D01*
X27310Y108878D01*
X27281Y108871D01*
X27252Y108870D01*
X27144Y108835D01*
X27035Y108807D01*
X27009Y108792D01*
X26981Y108783D01*
X26917Y108737D01*
X26790Y108661D01*
X26747Y108616D01*
X26708Y108588D01*
X25972Y107851D01*
X5080Y107851D01*
X5022Y107843D01*
X4964Y107845D01*
X4882Y107823D01*
X4798Y107811D01*
X4745Y107788D01*
X4689Y107773D01*
X4616Y107730D01*
X4539Y107695D01*
X4494Y107657D01*
X4444Y107628D01*
X4386Y107566D01*
X4322Y107512D01*
X4290Y107463D01*
X4250Y107420D01*
X4211Y107345D01*
X4164Y107275D01*
X4147Y107219D01*
X4120Y107167D01*
X4109Y107099D01*
X4079Y107004D01*
X4076Y106904D01*
X4065Y106836D01*
X4065Y81398D01*
X4069Y81369D01*
X4066Y81340D01*
X4089Y81229D01*
X4105Y81117D01*
X4117Y81090D01*
X4122Y81061D01*
X4175Y80961D01*
X4221Y80857D01*
X4240Y80835D01*
X4253Y80809D01*
X4331Y80727D01*
X4404Y80640D01*
X4429Y80624D01*
X4449Y80603D01*
X4547Y80546D01*
X4641Y80483D01*
X4669Y80474D01*
X4694Y80459D01*
X4804Y80431D01*
X4912Y80397D01*
X4942Y80396D01*
X4970Y80389D01*
X5083Y80393D01*
X5196Y80390D01*
X5225Y80397D01*
X5254Y80398D01*
X5362Y80433D01*
X5471Y80462D01*
X5497Y80477D01*
X5525Y80486D01*
X5588Y80531D01*
X5716Y80607D01*
X5759Y80652D01*
X5798Y80680D01*
X8141Y83023D01*
X11099Y84249D01*
X14301Y84249D01*
X17259Y83023D01*
X19523Y80759D01*
X20749Y77801D01*
X20749Y74599D01*
X19520Y71633D01*
X19462Y71545D01*
X19394Y71455D01*
X19383Y71427D01*
X19367Y71403D01*
X19333Y71295D01*
X19292Y71189D01*
X19290Y71160D01*
X19281Y71132D01*
X19278Y71019D01*
X19269Y70906D01*
X19275Y70877D01*
X19274Y70848D01*
X19302Y70738D01*
X19325Y70627D01*
X19338Y70601D01*
X19346Y70573D01*
X19403Y70475D01*
X19456Y70375D01*
X19476Y70353D01*
X19491Y70328D01*
X19573Y70251D01*
X19651Y70169D01*
X19677Y70154D01*
X19698Y70134D01*
X19799Y70082D01*
X19897Y70025D01*
X19925Y70018D01*
X19951Y70004D01*
X20029Y69991D01*
X20172Y69955D01*
X20235Y69957D01*
X20282Y69949D01*
X25972Y69949D01*
X28039Y67882D01*
X28039Y53918D01*
X25972Y51851D01*
X5080Y51851D01*
X5022Y51843D01*
X4964Y51845D01*
X4882Y51823D01*
X4798Y51811D01*
X4745Y51788D01*
X4689Y51773D01*
X4616Y51730D01*
X4539Y51695D01*
X4494Y51657D01*
X4444Y51628D01*
X4386Y51566D01*
X4322Y51512D01*
X4290Y51463D01*
X4250Y51420D01*
X4211Y51345D01*
X4164Y51275D01*
X4147Y51219D01*
X4120Y51167D01*
X4109Y51099D01*
X4079Y51004D01*
X4076Y50904D01*
X4065Y50836D01*
X4065Y37449D01*
X4067Y37429D01*
X4065Y37410D01*
X4087Y37289D01*
X4105Y37167D01*
X4113Y37149D01*
X4116Y37130D01*
X4171Y37020D01*
X4221Y36908D01*
X4233Y36893D01*
X4242Y36875D01*
X4325Y36784D01*
X4404Y36691D01*
X4421Y36680D01*
X4434Y36665D01*
X4539Y36601D01*
X4641Y36533D01*
X4660Y36527D01*
X4676Y36517D01*
X4795Y36484D01*
X4912Y36447D01*
X4932Y36447D01*
X4951Y36442D01*
X5073Y36443D01*
X5196Y36440D01*
X5215Y36445D01*
X5235Y36445D01*
X5353Y36481D01*
X5471Y36512D01*
X5488Y36522D01*
X5507Y36528D01*
X5610Y36594D01*
X5716Y36657D01*
X5729Y36671D01*
X5746Y36682D01*
X5792Y36739D01*
X5910Y36864D01*
X5934Y36910D01*
X5959Y36941D01*
X7815Y40156D01*
X13922Y45280D01*
X21414Y48007D01*
X29386Y48007D01*
X36878Y45280D01*
X42985Y40156D01*
X46971Y33251D01*
X48355Y25400D01*
X46971Y17549D01*
X42985Y10645D01*
X37280Y5858D01*
X37231Y5803D01*
X37175Y5755D01*
X37136Y5698D01*
X37090Y5646D01*
X37058Y5580D01*
X37017Y5519D01*
X36996Y5453D01*
X36966Y5390D01*
X36954Y5318D01*
X36932Y5248D01*
X36930Y5179D01*
X36918Y5110D01*
X36926Y5037D01*
X36924Y4964D01*
X36942Y4897D01*
X36949Y4828D01*
X36977Y4760D01*
X36996Y4689D01*
X37031Y4629D01*
X37058Y4565D01*
X37104Y4507D01*
X37141Y4444D01*
X37192Y4397D01*
X37235Y4343D01*
X37295Y4300D01*
X37349Y4250D01*
X37410Y4218D01*
X37467Y4178D01*
X37536Y4154D01*
X37602Y4120D01*
X37660Y4110D01*
X37735Y4084D01*
X37857Y4077D01*
X37933Y4065D01*
X53024Y4065D01*
X53115Y4078D01*
G37*
G36*
X109871Y71006D02*
X109871Y71006D01*
X109959Y71009D01*
X110011Y71026D01*
X110066Y71034D01*
X110146Y71069D01*
X110229Y71096D01*
X110268Y71124D01*
X110325Y71150D01*
X110439Y71246D01*
X110502Y71291D01*
X112030Y72819D01*
X120142Y72819D01*
X120200Y72827D01*
X120258Y72825D01*
X120340Y72847D01*
X120424Y72859D01*
X120477Y72882D01*
X120533Y72897D01*
X120606Y72940D01*
X120683Y72975D01*
X120728Y73013D01*
X120778Y73042D01*
X120836Y73104D01*
X120900Y73158D01*
X120932Y73207D01*
X120972Y73250D01*
X121011Y73325D01*
X121058Y73395D01*
X121075Y73451D01*
X121102Y73503D01*
X121113Y73571D01*
X121143Y73666D01*
X121146Y73766D01*
X121157Y73834D01*
X121157Y74822D01*
X122047Y76970D01*
X122354Y77277D01*
X122406Y77347D01*
X122466Y77410D01*
X122492Y77460D01*
X122525Y77504D01*
X122556Y77586D01*
X122596Y77664D01*
X122604Y77711D01*
X122626Y77770D01*
X122638Y77918D01*
X122651Y77995D01*
X122651Y89790D01*
X124730Y91869D01*
X137670Y91869D01*
X138982Y90557D01*
X139029Y90521D01*
X139069Y90479D01*
X139142Y90436D01*
X139209Y90386D01*
X139264Y90365D01*
X139314Y90335D01*
X139396Y90315D01*
X139475Y90284D01*
X139533Y90280D01*
X139590Y90265D01*
X139674Y90268D01*
X139758Y90261D01*
X139816Y90272D01*
X139874Y90274D01*
X139954Y90300D01*
X140037Y90317D01*
X140089Y90344D01*
X140145Y90362D01*
X140201Y90402D01*
X140289Y90448D01*
X140362Y90516D01*
X140418Y90557D01*
X141730Y91869D01*
X149352Y91869D01*
X149410Y91877D01*
X149468Y91875D01*
X149550Y91897D01*
X149634Y91909D01*
X149687Y91932D01*
X149743Y91947D01*
X149816Y91990D01*
X149893Y92025D01*
X149938Y92063D01*
X149988Y92092D01*
X150046Y92154D01*
X150110Y92208D01*
X150142Y92257D01*
X150182Y92300D01*
X150221Y92375D01*
X150268Y92445D01*
X150285Y92501D01*
X150312Y92553D01*
X150323Y92621D01*
X150353Y92716D01*
X150356Y92816D01*
X150367Y92884D01*
X150367Y93806D01*
X150359Y93864D01*
X150361Y93922D01*
X150339Y94004D01*
X150327Y94088D01*
X150304Y94141D01*
X150289Y94197D01*
X150246Y94270D01*
X150211Y94347D01*
X150173Y94392D01*
X150144Y94442D01*
X150082Y94500D01*
X150028Y94564D01*
X149979Y94596D01*
X149936Y94636D01*
X149861Y94675D01*
X149791Y94722D01*
X149735Y94739D01*
X149683Y94766D01*
X149615Y94777D01*
X149520Y94807D01*
X149420Y94810D01*
X149352Y94821D01*
X141730Y94821D01*
X140418Y96133D01*
X140371Y96169D01*
X140331Y96211D01*
X140258Y96254D01*
X140191Y96304D01*
X140136Y96325D01*
X140086Y96355D01*
X140004Y96375D01*
X139925Y96406D01*
X139867Y96410D01*
X139810Y96425D01*
X139726Y96422D01*
X139642Y96429D01*
X139584Y96418D01*
X139526Y96416D01*
X139446Y96390D01*
X139363Y96373D01*
X139311Y96346D01*
X139255Y96328D01*
X139199Y96288D01*
X139111Y96242D01*
X139038Y96174D01*
X138982Y96133D01*
X137670Y94821D01*
X124730Y94821D01*
X122651Y96900D01*
X122651Y97536D01*
X122645Y97583D01*
X122645Y97584D01*
X122644Y97585D01*
X122643Y97594D01*
X122645Y97652D01*
X122623Y97734D01*
X122611Y97818D01*
X122588Y97871D01*
X122573Y97927D01*
X122530Y98000D01*
X122495Y98077D01*
X122457Y98122D01*
X122428Y98172D01*
X122366Y98230D01*
X122312Y98294D01*
X122263Y98326D01*
X122220Y98366D01*
X122145Y98405D01*
X122075Y98452D01*
X122019Y98469D01*
X121967Y98496D01*
X121899Y98507D01*
X121804Y98537D01*
X121704Y98540D01*
X121636Y98551D01*
X117395Y98551D01*
X117308Y98539D01*
X117221Y98536D01*
X117168Y98519D01*
X117113Y98511D01*
X117033Y98476D01*
X116950Y98449D01*
X116911Y98421D01*
X116854Y98395D01*
X116740Y98299D01*
X116677Y98254D01*
X116340Y97917D01*
X114192Y97027D01*
X111868Y97027D01*
X109720Y97917D01*
X108077Y99560D01*
X107187Y101708D01*
X107187Y104032D01*
X108077Y106180D01*
X108414Y106517D01*
X108466Y106587D01*
X108526Y106650D01*
X108552Y106700D01*
X108585Y106744D01*
X108616Y106826D01*
X108656Y106904D01*
X108664Y106951D01*
X108686Y107010D01*
X108698Y107158D01*
X108711Y107235D01*
X108711Y108469D01*
X110396Y110153D01*
X110413Y110177D01*
X110436Y110196D01*
X110498Y110290D01*
X110566Y110380D01*
X110577Y110408D01*
X110593Y110432D01*
X110627Y110540D01*
X110668Y110646D01*
X110670Y110675D01*
X110679Y110703D01*
X110682Y110817D01*
X110691Y110929D01*
X110685Y110958D01*
X110686Y110987D01*
X110658Y111097D01*
X110635Y111208D01*
X110622Y111234D01*
X110614Y111262D01*
X110557Y111360D01*
X110504Y111460D01*
X110484Y111482D01*
X110469Y111507D01*
X110387Y111584D01*
X110309Y111666D01*
X110283Y111681D01*
X110262Y111701D01*
X110161Y111753D01*
X110063Y111810D01*
X110035Y111817D01*
X110009Y111831D01*
X109931Y111844D01*
X109788Y111880D01*
X109725Y111878D01*
X109678Y111886D01*
X100362Y111886D01*
X98074Y112834D01*
X97154Y113754D01*
X97085Y113806D01*
X97021Y113866D01*
X96971Y113892D01*
X96927Y113925D01*
X96846Y113956D01*
X96768Y113996D01*
X96720Y114004D01*
X96662Y114026D01*
X96514Y114038D01*
X96437Y114051D01*
X64853Y114051D01*
X64767Y114039D01*
X64679Y114036D01*
X64627Y114019D01*
X64572Y114011D01*
X64492Y113976D01*
X64409Y113949D01*
X64370Y113921D01*
X64313Y113895D01*
X64199Y113799D01*
X64136Y113754D01*
X61256Y110874D01*
X61238Y110850D01*
X61216Y110831D01*
X61153Y110737D01*
X61085Y110647D01*
X61074Y110619D01*
X61058Y110595D01*
X61024Y110487D01*
X60983Y110381D01*
X60981Y110352D01*
X60972Y110324D01*
X60969Y110210D01*
X60960Y110098D01*
X60966Y110069D01*
X60965Y110040D01*
X60993Y109930D01*
X61016Y109819D01*
X61029Y109793D01*
X61037Y109765D01*
X61095Y109667D01*
X61147Y109567D01*
X61167Y109545D01*
X61182Y109520D01*
X61264Y109443D01*
X61343Y109361D01*
X61368Y109346D01*
X61389Y109326D01*
X61490Y109274D01*
X61588Y109217D01*
X61616Y109210D01*
X61642Y109196D01*
X61720Y109183D01*
X61859Y109148D01*
X61859Y102616D01*
X61867Y102558D01*
X61865Y102500D01*
X61887Y102418D01*
X61899Y102335D01*
X61923Y102281D01*
X61937Y102225D01*
X61980Y102152D01*
X62015Y102075D01*
X62053Y102031D01*
X62083Y101980D01*
X62144Y101923D01*
X62199Y101858D01*
X62247Y101826D01*
X62290Y101786D01*
X62365Y101747D01*
X62435Y101701D01*
X62491Y101683D01*
X62543Y101656D01*
X62611Y101645D01*
X62706Y101615D01*
X62806Y101612D01*
X62874Y101601D01*
X64906Y101601D01*
X64964Y101609D01*
X65022Y101608D01*
X65104Y101629D01*
X65187Y101641D01*
X65241Y101665D01*
X65297Y101679D01*
X65370Y101722D01*
X65447Y101757D01*
X65491Y101795D01*
X65542Y101825D01*
X65599Y101886D01*
X65664Y101941D01*
X65696Y101989D01*
X65736Y102032D01*
X65775Y102107D01*
X65821Y102177D01*
X65839Y102233D01*
X65866Y102285D01*
X65877Y102353D01*
X65907Y102448D01*
X65910Y102548D01*
X65921Y102616D01*
X65921Y109141D01*
X69290Y109141D01*
X70064Y108934D01*
X70757Y108533D01*
X71313Y107977D01*
X71360Y107942D01*
X71400Y107900D01*
X71473Y107857D01*
X71540Y107806D01*
X71595Y107786D01*
X71645Y107756D01*
X71727Y107735D01*
X71806Y107705D01*
X71864Y107700D01*
X71921Y107686D01*
X72005Y107689D01*
X72089Y107682D01*
X72146Y107693D01*
X72205Y107695D01*
X72285Y107721D01*
X72368Y107738D01*
X72420Y107765D01*
X72475Y107782D01*
X72531Y107823D01*
X72620Y107869D01*
X72693Y107937D01*
X72749Y107977D01*
X74420Y109649D01*
X87360Y109649D01*
X89439Y107570D01*
X89439Y95630D01*
X87360Y93551D01*
X86224Y93551D01*
X86166Y93543D01*
X86108Y93545D01*
X86026Y93523D01*
X85942Y93511D01*
X85889Y93488D01*
X85833Y93473D01*
X85760Y93430D01*
X85683Y93395D01*
X85638Y93357D01*
X85588Y93328D01*
X85530Y93266D01*
X85466Y93212D01*
X85434Y93163D01*
X85394Y93120D01*
X85355Y93045D01*
X85308Y92975D01*
X85291Y92919D01*
X85264Y92867D01*
X85253Y92799D01*
X85223Y92704D01*
X85220Y92604D01*
X85209Y92536D01*
X85209Y91801D01*
X80816Y87408D01*
X80764Y87339D01*
X80704Y87275D01*
X80678Y87225D01*
X80645Y87181D01*
X80614Y87100D01*
X80574Y87022D01*
X80566Y86974D01*
X80544Y86916D01*
X80532Y86768D01*
X80519Y86691D01*
X80519Y84264D01*
X80527Y84207D01*
X80525Y84153D01*
X80526Y84153D01*
X80525Y84148D01*
X80547Y84066D01*
X80559Y83982D01*
X80582Y83929D01*
X80597Y83873D01*
X80640Y83800D01*
X80675Y83723D01*
X80713Y83678D01*
X80742Y83628D01*
X80804Y83570D01*
X80858Y83506D01*
X80907Y83474D01*
X80950Y83434D01*
X81025Y83395D01*
X81095Y83348D01*
X81151Y83331D01*
X81203Y83304D01*
X81271Y83293D01*
X81366Y83263D01*
X81466Y83260D01*
X81534Y83249D01*
X92658Y83249D01*
X92754Y83153D01*
X92778Y83135D01*
X92797Y83113D01*
X92891Y83050D01*
X92981Y82982D01*
X93009Y82971D01*
X93033Y82955D01*
X93141Y82921D01*
X93247Y82881D01*
X93276Y82878D01*
X93304Y82869D01*
X93417Y82867D01*
X93530Y82857D01*
X93559Y82863D01*
X93588Y82862D01*
X93698Y82891D01*
X93809Y82913D01*
X93835Y82927D01*
X93863Y82934D01*
X93961Y82992D01*
X94061Y83044D01*
X94083Y83064D01*
X94108Y83079D01*
X94185Y83162D01*
X94267Y83240D01*
X94282Y83265D01*
X94302Y83287D01*
X94354Y83387D01*
X94411Y83485D01*
X94418Y83514D01*
X94432Y83540D01*
X94443Y83604D01*
X95377Y85860D01*
X97020Y87503D01*
X99168Y88393D01*
X101492Y88393D01*
X103640Y87503D01*
X105283Y85860D01*
X106173Y83712D01*
X106173Y81388D01*
X105229Y79109D01*
X105228Y79108D01*
X105228Y79106D01*
X105194Y78973D01*
X105158Y78834D01*
X105158Y78832D01*
X105158Y78831D01*
X105162Y78690D01*
X105166Y78550D01*
X105167Y78548D01*
X105167Y78547D01*
X105210Y78411D01*
X105253Y78279D01*
X105254Y78278D01*
X105254Y78276D01*
X105263Y78264D01*
X105411Y78043D01*
X105434Y78023D01*
X105449Y78003D01*
X106876Y76575D01*
X107824Y74288D01*
X107824Y72009D01*
X107832Y71951D01*
X107830Y71893D01*
X107852Y71811D01*
X107864Y71727D01*
X107887Y71674D01*
X107902Y71618D01*
X107945Y71545D01*
X107980Y71468D01*
X108018Y71423D01*
X108047Y71373D01*
X108109Y71315D01*
X108163Y71251D01*
X108212Y71219D01*
X108255Y71179D01*
X108330Y71140D01*
X108400Y71093D01*
X108456Y71076D01*
X108508Y71049D01*
X108576Y71038D01*
X108671Y71008D01*
X108771Y71005D01*
X108839Y70994D01*
X109785Y70994D01*
X109871Y71006D01*
G37*
G36*
X226577Y68924D02*
X226577Y68924D01*
X226690Y68922D01*
X226719Y68929D01*
X226748Y68930D01*
X226856Y68965D01*
X226965Y68993D01*
X226991Y69008D01*
X227019Y69017D01*
X227083Y69063D01*
X227210Y69139D01*
X227253Y69184D01*
X227292Y69212D01*
X228028Y69949D01*
X248920Y69949D01*
X248978Y69957D01*
X249036Y69955D01*
X249118Y69977D01*
X249202Y69989D01*
X249255Y70012D01*
X249311Y70027D01*
X249384Y70070D01*
X249461Y70105D01*
X249506Y70143D01*
X249556Y70172D01*
X249614Y70234D01*
X249678Y70288D01*
X249710Y70337D01*
X249750Y70380D01*
X249789Y70455D01*
X249836Y70525D01*
X249853Y70581D01*
X249880Y70633D01*
X249891Y70701D01*
X249921Y70796D01*
X249924Y70896D01*
X249935Y70964D01*
X249935Y96402D01*
X249931Y96431D01*
X249934Y96460D01*
X249911Y96571D01*
X249895Y96683D01*
X249883Y96710D01*
X249878Y96739D01*
X249825Y96839D01*
X249779Y96943D01*
X249760Y96965D01*
X249747Y96991D01*
X249669Y97073D01*
X249596Y97160D01*
X249571Y97176D01*
X249551Y97197D01*
X249453Y97254D01*
X249359Y97317D01*
X249331Y97326D01*
X249306Y97341D01*
X249196Y97369D01*
X249088Y97403D01*
X249058Y97404D01*
X249030Y97411D01*
X248917Y97407D01*
X248804Y97410D01*
X248775Y97403D01*
X248746Y97402D01*
X248638Y97367D01*
X248529Y97338D01*
X248503Y97323D01*
X248475Y97314D01*
X248412Y97269D01*
X248284Y97193D01*
X248241Y97148D01*
X248202Y97120D01*
X245859Y94777D01*
X242901Y93551D01*
X239699Y93551D01*
X236741Y94777D01*
X234477Y97041D01*
X233251Y99999D01*
X233251Y103201D01*
X234480Y106167D01*
X234538Y106255D01*
X234606Y106345D01*
X234617Y106373D01*
X234633Y106397D01*
X234667Y106505D01*
X234708Y106611D01*
X234710Y106640D01*
X234719Y106668D01*
X234722Y106781D01*
X234731Y106894D01*
X234725Y106923D01*
X234726Y106952D01*
X234698Y107061D01*
X234675Y107173D01*
X234662Y107199D01*
X234654Y107227D01*
X234597Y107325D01*
X234544Y107425D01*
X234524Y107447D01*
X234509Y107472D01*
X234427Y107549D01*
X234349Y107631D01*
X234323Y107646D01*
X234302Y107666D01*
X234201Y107718D01*
X234103Y107775D01*
X234075Y107782D01*
X234049Y107796D01*
X233971Y107809D01*
X233828Y107845D01*
X233765Y107843D01*
X233718Y107851D01*
X228028Y107851D01*
X225961Y109918D01*
X225961Y121920D01*
X225953Y121978D01*
X225955Y122036D01*
X225933Y122118D01*
X225921Y122202D01*
X225898Y122255D01*
X225883Y122311D01*
X225840Y122384D01*
X225805Y122461D01*
X225767Y122506D01*
X225738Y122556D01*
X225676Y122614D01*
X225622Y122678D01*
X225573Y122710D01*
X225530Y122750D01*
X225455Y122789D01*
X225385Y122836D01*
X225329Y122853D01*
X225277Y122880D01*
X225209Y122891D01*
X225114Y122921D01*
X225014Y122924D01*
X224946Y122935D01*
X196927Y122935D01*
X196898Y122931D01*
X196869Y122934D01*
X196758Y122911D01*
X196646Y122895D01*
X196619Y122883D01*
X196590Y122878D01*
X196490Y122826D01*
X196387Y122779D01*
X196364Y122760D01*
X196338Y122747D01*
X196256Y122669D01*
X196170Y122596D01*
X196153Y122571D01*
X196132Y122551D01*
X196075Y122453D01*
X196012Y122359D01*
X196003Y122331D01*
X195988Y122306D01*
X195960Y122196D01*
X195926Y122088D01*
X195925Y122058D01*
X195918Y122030D01*
X195922Y121917D01*
X195919Y121804D01*
X195926Y121775D01*
X195927Y121746D01*
X195962Y121638D01*
X195991Y121529D01*
X196006Y121503D01*
X196015Y121475D01*
X196060Y121412D01*
X196136Y121284D01*
X196182Y121241D01*
X196210Y121202D01*
X204666Y112745D01*
X205614Y110458D01*
X205614Y110361D01*
X205621Y110312D01*
X205618Y110264D01*
X205640Y110172D01*
X205654Y110079D01*
X205673Y110035D01*
X205685Y109987D01*
X205731Y109905D01*
X205770Y109820D01*
X205801Y109783D01*
X205825Y109740D01*
X205893Y109674D01*
X205953Y109603D01*
X205994Y109576D01*
X206029Y109542D01*
X206112Y109497D01*
X206190Y109445D01*
X206237Y109430D01*
X206280Y109407D01*
X206371Y109388D01*
X206461Y109359D01*
X206510Y109358D01*
X206558Y109348D01*
X206632Y109355D01*
X206745Y109352D01*
X206829Y109374D01*
X206892Y109380D01*
X207118Y109441D01*
X213261Y109441D01*
X213261Y104384D01*
X213269Y104326D01*
X213267Y104268D01*
X213289Y104186D01*
X213301Y104103D01*
X213324Y104049D01*
X213339Y103993D01*
X213382Y103920D01*
X213417Y103843D01*
X213455Y103799D01*
X213484Y103748D01*
X213546Y103691D01*
X213600Y103626D01*
X213649Y103594D01*
X213692Y103554D01*
X213767Y103515D01*
X213837Y103469D01*
X213893Y103451D01*
X213945Y103424D01*
X214013Y103413D01*
X214108Y103383D01*
X214208Y103380D01*
X214235Y103376D01*
X214237Y103358D01*
X214236Y103300D01*
X214257Y103218D01*
X214269Y103134D01*
X214293Y103081D01*
X214307Y103025D01*
X214351Y102952D01*
X214385Y102875D01*
X214423Y102830D01*
X214453Y102780D01*
X214514Y102722D01*
X214569Y102658D01*
X214617Y102626D01*
X214660Y102586D01*
X214735Y102547D01*
X214805Y102500D01*
X214861Y102483D01*
X214913Y102456D01*
X214981Y102445D01*
X215076Y102415D01*
X215176Y102412D01*
X215244Y102401D01*
X225051Y102401D01*
X225051Y101008D01*
X224843Y100232D01*
X224627Y99860D01*
X224602Y99796D01*
X224568Y99737D01*
X224549Y99665D01*
X224521Y99596D01*
X224514Y99528D01*
X224497Y99462D01*
X224500Y99387D01*
X224492Y99313D01*
X224504Y99246D01*
X224506Y99178D01*
X224529Y99107D01*
X224543Y99033D01*
X224573Y98972D01*
X224594Y98907D01*
X224630Y98856D01*
X224669Y98778D01*
X224746Y98694D01*
X224789Y98634D01*
X225559Y97864D01*
X225559Y90404D01*
X225575Y90290D01*
X225585Y90176D01*
X225595Y90150D01*
X225599Y90122D01*
X225645Y90018D01*
X225687Y89910D01*
X225704Y89888D01*
X225715Y89863D01*
X225789Y89775D01*
X225858Y89684D01*
X225881Y89667D01*
X225898Y89646D01*
X225994Y89582D01*
X226086Y89513D01*
X226112Y89504D01*
X226135Y89488D01*
X226245Y89454D01*
X226352Y89413D01*
X226380Y89411D01*
X226406Y89403D01*
X226521Y89400D01*
X226635Y89390D01*
X226660Y89396D01*
X226690Y89395D01*
X226947Y89462D01*
X226963Y89466D01*
X227438Y89663D01*
X229762Y89663D01*
X231910Y88773D01*
X233553Y87130D01*
X234443Y84982D01*
X234443Y82658D01*
X233553Y80510D01*
X231910Y78867D01*
X229762Y77977D01*
X227438Y77977D01*
X226963Y78174D01*
X226851Y78203D01*
X226742Y78237D01*
X226714Y78238D01*
X226687Y78245D01*
X226573Y78242D01*
X226458Y78245D01*
X226431Y78238D01*
X226403Y78237D01*
X226294Y78202D01*
X226183Y78173D01*
X226159Y78159D01*
X226132Y78150D01*
X226037Y78086D01*
X225938Y78028D01*
X225919Y78007D01*
X225896Y77992D01*
X225822Y77904D01*
X225744Y77820D01*
X225731Y77796D01*
X225713Y77774D01*
X225666Y77669D01*
X225614Y77567D01*
X225610Y77543D01*
X225598Y77515D01*
X225561Y77251D01*
X225559Y77236D01*
X225559Y69930D01*
X225563Y69901D01*
X225560Y69872D01*
X225583Y69761D01*
X225599Y69649D01*
X225611Y69622D01*
X225616Y69593D01*
X225669Y69492D01*
X225715Y69389D01*
X225734Y69367D01*
X225747Y69341D01*
X225825Y69259D01*
X225898Y69172D01*
X225923Y69156D01*
X225943Y69135D01*
X226041Y69077D01*
X226135Y69015D01*
X226163Y69006D01*
X226188Y68991D01*
X226298Y68963D01*
X226406Y68929D01*
X226436Y68928D01*
X226464Y68921D01*
X226577Y68924D01*
G37*
G36*
X29057Y108907D02*
X29057Y108907D01*
X29170Y108904D01*
X29199Y108911D01*
X29228Y108912D01*
X29336Y108947D01*
X29445Y108976D01*
X29471Y108991D01*
X29499Y109000D01*
X29563Y109045D01*
X29690Y109121D01*
X29733Y109167D01*
X29772Y109195D01*
X30526Y109949D01*
X46101Y109949D01*
X46159Y109957D01*
X46217Y109955D01*
X46299Y109977D01*
X46383Y109989D01*
X46436Y110012D01*
X46492Y110027D01*
X46565Y110070D01*
X46642Y110105D01*
X46687Y110143D01*
X46737Y110172D01*
X46795Y110234D01*
X46859Y110288D01*
X46891Y110337D01*
X46931Y110380D01*
X46970Y110455D01*
X47017Y110525D01*
X47034Y110581D01*
X47061Y110633D01*
X47072Y110701D01*
X47102Y110796D01*
X47105Y110896D01*
X47116Y110964D01*
X47116Y112998D01*
X48064Y115286D01*
X49957Y117179D01*
X53980Y121202D01*
X53998Y121226D01*
X54020Y121245D01*
X54083Y121339D01*
X54151Y121429D01*
X54162Y121457D01*
X54178Y121481D01*
X54212Y121589D01*
X54253Y121695D01*
X54255Y121724D01*
X54264Y121752D01*
X54267Y121866D01*
X54276Y121978D01*
X54270Y122007D01*
X54271Y122036D01*
X54243Y122146D01*
X54220Y122257D01*
X54207Y122283D01*
X54199Y122311D01*
X54141Y122409D01*
X54089Y122509D01*
X54069Y122531D01*
X54054Y122556D01*
X53972Y122633D01*
X53893Y122715D01*
X53868Y122730D01*
X53847Y122750D01*
X53746Y122802D01*
X53648Y122859D01*
X53620Y122866D01*
X53594Y122880D01*
X53516Y122893D01*
X53373Y122929D01*
X53310Y122927D01*
X53263Y122935D01*
X29054Y122935D01*
X28996Y122927D01*
X28938Y122929D01*
X28856Y122907D01*
X28772Y122895D01*
X28719Y122872D01*
X28663Y122857D01*
X28590Y122814D01*
X28513Y122779D01*
X28468Y122741D01*
X28418Y122712D01*
X28360Y122650D01*
X28296Y122596D01*
X28264Y122547D01*
X28224Y122504D01*
X28185Y122429D01*
X28138Y122359D01*
X28121Y122303D01*
X28094Y122251D01*
X28083Y122183D01*
X28053Y122088D01*
X28050Y121988D01*
X28039Y121920D01*
X28039Y109913D01*
X28043Y109883D01*
X28040Y109854D01*
X28063Y109743D01*
X28079Y109631D01*
X28091Y109604D01*
X28096Y109576D01*
X28149Y109475D01*
X28195Y109372D01*
X28214Y109349D01*
X28227Y109323D01*
X28305Y109241D01*
X28378Y109155D01*
X28403Y109138D01*
X28423Y109117D01*
X28521Y109060D01*
X28615Y108997D01*
X28643Y108988D01*
X28668Y108973D01*
X28778Y108945D01*
X28886Y108911D01*
X28916Y108911D01*
X28944Y108903D01*
X29057Y108907D01*
G37*
G36*
X146743Y57032D02*
X146743Y57032D01*
X146801Y57030D01*
X146883Y57052D01*
X146966Y57064D01*
X147020Y57087D01*
X147076Y57102D01*
X147149Y57145D01*
X147226Y57180D01*
X147271Y57218D01*
X147321Y57247D01*
X147379Y57309D01*
X147443Y57363D01*
X147475Y57412D01*
X147515Y57455D01*
X147554Y57530D01*
X147600Y57600D01*
X147618Y57656D01*
X147645Y57708D01*
X147656Y57776D01*
X147686Y57871D01*
X147689Y57971D01*
X147700Y58039D01*
X147700Y60580D01*
X152908Y60580D01*
X152966Y60588D01*
X153024Y60586D01*
X153106Y60608D01*
X153189Y60620D01*
X153243Y60643D01*
X153299Y60658D01*
X153372Y60701D01*
X153449Y60736D01*
X153493Y60774D01*
X153544Y60803D01*
X153601Y60865D01*
X153639Y60897D01*
X165735Y60897D01*
X165754Y60909D01*
X165776Y60913D01*
X165783Y60928D01*
X165792Y60934D01*
X165791Y60944D01*
X165798Y60960D01*
X165798Y63500D01*
X165786Y63519D01*
X165782Y63541D01*
X165767Y63548D01*
X165761Y63557D01*
X165751Y63556D01*
X165735Y63563D01*
X153634Y63563D01*
X153583Y63623D01*
X153535Y63655D01*
X153492Y63695D01*
X153417Y63734D01*
X153347Y63781D01*
X153291Y63798D01*
X153239Y63825D01*
X153171Y63836D01*
X153076Y63866D01*
X152976Y63869D01*
X152908Y63880D01*
X147700Y63880D01*
X147700Y68484D01*
X147907Y69257D01*
X148307Y69949D01*
X148872Y70514D01*
X149564Y70914D01*
X150337Y71121D01*
X152472Y71121D01*
X152585Y71137D01*
X152700Y71147D01*
X152726Y71157D01*
X152753Y71161D01*
X152858Y71208D01*
X152965Y71249D01*
X152987Y71265D01*
X153012Y71277D01*
X153100Y71351D01*
X153192Y71420D01*
X153208Y71443D01*
X153229Y71460D01*
X153293Y71556D01*
X153362Y71648D01*
X153372Y71674D01*
X153387Y71697D01*
X153422Y71807D01*
X153462Y71914D01*
X153464Y71942D01*
X153473Y71968D01*
X153476Y72083D01*
X153485Y72197D01*
X153479Y72222D01*
X153480Y72252D01*
X153413Y72509D01*
X153410Y72525D01*
X152886Y73790D01*
X152886Y74756D01*
X152877Y74814D01*
X152879Y74872D01*
X152858Y74954D01*
X152846Y75038D01*
X152822Y75091D01*
X152807Y75147D01*
X152764Y75220D01*
X152729Y75297D01*
X152692Y75342D01*
X152662Y75392D01*
X152600Y75450D01*
X152546Y75514D01*
X152497Y75546D01*
X152454Y75586D01*
X152379Y75625D01*
X152309Y75672D01*
X152253Y75689D01*
X152201Y75716D01*
X152133Y75727D01*
X152038Y75757D01*
X151938Y75760D01*
X151870Y75771D01*
X141730Y75771D01*
X140418Y77083D01*
X140371Y77119D01*
X140331Y77161D01*
X140258Y77204D01*
X140191Y77254D01*
X140136Y77275D01*
X140086Y77305D01*
X140004Y77325D01*
X139925Y77356D01*
X139867Y77360D01*
X139810Y77375D01*
X139726Y77372D01*
X139642Y77379D01*
X139584Y77368D01*
X139526Y77366D01*
X139446Y77340D01*
X139363Y77323D01*
X139311Y77296D01*
X139255Y77278D01*
X139199Y77238D01*
X139111Y77192D01*
X139038Y77123D01*
X138982Y77083D01*
X137670Y75771D01*
X136534Y75771D01*
X136476Y75763D01*
X136418Y75765D01*
X136336Y75743D01*
X136252Y75731D01*
X136199Y75708D01*
X136143Y75693D01*
X136070Y75650D01*
X135993Y75615D01*
X135948Y75577D01*
X135898Y75548D01*
X135840Y75486D01*
X135776Y75432D01*
X135744Y75383D01*
X135704Y75340D01*
X135665Y75265D01*
X135618Y75195D01*
X135601Y75139D01*
X135574Y75087D01*
X135563Y75019D01*
X135533Y74924D01*
X135530Y74824D01*
X135528Y74810D01*
X133766Y73049D01*
X133714Y72979D01*
X133654Y72915D01*
X133629Y72866D01*
X133595Y72821D01*
X133564Y72740D01*
X133524Y72662D01*
X133516Y72614D01*
X133494Y72556D01*
X133482Y72408D01*
X133469Y72331D01*
X133469Y65786D01*
X133477Y65728D01*
X133475Y65670D01*
X133497Y65588D01*
X133509Y65505D01*
X133533Y65451D01*
X133547Y65395D01*
X133590Y65322D01*
X133625Y65245D01*
X133663Y65201D01*
X133693Y65150D01*
X133754Y65093D01*
X133809Y65028D01*
X133857Y64996D01*
X133900Y64956D01*
X133975Y64917D01*
X134045Y64871D01*
X134101Y64853D01*
X134153Y64826D01*
X134221Y64815D01*
X134316Y64785D01*
X134416Y64782D01*
X134484Y64771D01*
X135501Y64771D01*
X135501Y63754D01*
X135509Y63696D01*
X135508Y63638D01*
X135529Y63556D01*
X135541Y63473D01*
X135565Y63419D01*
X135579Y63363D01*
X135622Y63290D01*
X135657Y63213D01*
X135695Y63168D01*
X135725Y63118D01*
X135786Y63060D01*
X135841Y62996D01*
X135889Y62964D01*
X135932Y62924D01*
X136007Y62885D01*
X136077Y62839D01*
X136133Y62821D01*
X136185Y62794D01*
X136253Y62783D01*
X136348Y62753D01*
X136448Y62750D01*
X136516Y62739D01*
X143541Y62739D01*
X143541Y59870D01*
X143333Y59096D01*
X143016Y58547D01*
X143002Y58510D01*
X142980Y58478D01*
X142949Y58379D01*
X142910Y58283D01*
X142906Y58244D01*
X142894Y58207D01*
X142891Y58103D01*
X142881Y58000D01*
X142888Y57962D01*
X142887Y57923D01*
X142913Y57822D01*
X142931Y57720D01*
X142949Y57685D01*
X142959Y57648D01*
X143011Y57559D01*
X143058Y57466D01*
X143084Y57437D01*
X143104Y57403D01*
X143180Y57332D01*
X143249Y57256D01*
X143283Y57235D01*
X143311Y57209D01*
X143404Y57161D01*
X143492Y57107D01*
X143529Y57097D01*
X143564Y57079D01*
X143641Y57066D01*
X143766Y57032D01*
X143840Y57033D01*
X143895Y57024D01*
X146685Y57024D01*
X146743Y57032D01*
G37*
G36*
X158388Y36779D02*
X158388Y36779D01*
X158410Y36783D01*
X158417Y36798D01*
X158426Y36804D01*
X158425Y36814D01*
X158432Y36830D01*
X158432Y39370D01*
X158420Y39389D01*
X158416Y39411D01*
X158401Y39418D01*
X158395Y39427D01*
X158385Y39426D01*
X158369Y39433D01*
X133731Y39433D01*
X133712Y39421D01*
X133690Y39417D01*
X133683Y39402D01*
X133674Y39396D01*
X133675Y39386D01*
X133668Y39370D01*
X133668Y36830D01*
X133680Y36811D01*
X133684Y36789D01*
X133699Y36782D01*
X133705Y36773D01*
X133715Y36774D01*
X133731Y36767D01*
X158369Y36767D01*
X158388Y36779D01*
G37*
G36*
X70504Y34239D02*
X70504Y34239D01*
X70526Y34243D01*
X70533Y34258D01*
X70542Y34264D01*
X70541Y34274D01*
X70548Y34290D01*
X70548Y36830D01*
X70536Y36849D01*
X70532Y36871D01*
X70517Y36878D01*
X70511Y36887D01*
X70501Y36886D01*
X70485Y36893D01*
X56515Y36893D01*
X56496Y36881D01*
X56474Y36877D01*
X56467Y36862D01*
X56458Y36856D01*
X56459Y36846D01*
X56452Y36830D01*
X56452Y34290D01*
X56464Y34271D01*
X56468Y34249D01*
X56483Y34242D01*
X56489Y34233D01*
X56499Y34234D01*
X56515Y34227D01*
X70485Y34227D01*
X70504Y34239D01*
G37*
%LPC*%
G36*
X216259Y105399D02*
X216259Y105399D01*
X216259Y109441D01*
X222402Y109441D01*
X223178Y109233D01*
X223873Y108831D01*
X224441Y108263D01*
X224843Y107568D01*
X225051Y106792D01*
X225051Y105399D01*
X216259Y105399D01*
G37*
%LPD*%
%LPC*%
G36*
X31598Y68359D02*
X31598Y68359D01*
X30822Y68567D01*
X30127Y68969D01*
X29559Y69537D01*
X29157Y70232D01*
X28949Y71008D01*
X28949Y72401D01*
X37741Y72401D01*
X37741Y68359D01*
X31598Y68359D01*
G37*
%LPD*%
%LPC*%
G36*
X137531Y66801D02*
X137531Y66801D01*
X137531Y72311D01*
X140900Y72311D01*
X141674Y72104D01*
X142367Y71703D01*
X142933Y71137D01*
X143334Y70444D01*
X143541Y69670D01*
X143541Y66801D01*
X137531Y66801D01*
G37*
%LPD*%
D10*
X241300Y101600D03*
X12700Y76200D03*
D11*
X132829Y32245D02*
X138443Y32245D01*
X132829Y32245D02*
X132829Y43955D01*
X138443Y43955D01*
X138443Y32245D01*
X138443Y33186D02*
X132829Y33186D01*
X132829Y34127D02*
X138443Y34127D01*
X138443Y35068D02*
X132829Y35068D01*
X132829Y36009D02*
X138443Y36009D01*
X138443Y36950D02*
X132829Y36950D01*
X132829Y37891D02*
X138443Y37891D01*
X138443Y38832D02*
X132829Y38832D01*
X132829Y39773D02*
X138443Y39773D01*
X138443Y40714D02*
X132829Y40714D01*
X132829Y41655D02*
X138443Y41655D01*
X138443Y42596D02*
X132829Y42596D01*
X132829Y43537D02*
X138443Y43537D01*
X143243Y32245D02*
X148857Y32245D01*
X143243Y32245D02*
X143243Y43955D01*
X148857Y43955D01*
X148857Y32245D01*
X148857Y33186D02*
X143243Y33186D01*
X143243Y34127D02*
X148857Y34127D01*
X148857Y35068D02*
X143243Y35068D01*
X143243Y36009D02*
X148857Y36009D01*
X148857Y36950D02*
X143243Y36950D01*
X143243Y37891D02*
X148857Y37891D01*
X148857Y38832D02*
X143243Y38832D01*
X143243Y39773D02*
X148857Y39773D01*
X148857Y40714D02*
X143243Y40714D01*
X143243Y41655D02*
X148857Y41655D01*
X148857Y42596D02*
X143243Y42596D01*
X143243Y43537D02*
X148857Y43537D01*
X153657Y32245D02*
X159271Y32245D01*
X153657Y32245D02*
X153657Y43955D01*
X159271Y43955D01*
X159271Y32245D01*
X159271Y33186D02*
X153657Y33186D01*
X153657Y34127D02*
X159271Y34127D01*
X159271Y35068D02*
X153657Y35068D01*
X153657Y36009D02*
X159271Y36009D01*
X159271Y36950D02*
X153657Y36950D01*
X153657Y37891D02*
X159271Y37891D01*
X159271Y38832D02*
X153657Y38832D01*
X153657Y39773D02*
X159271Y39773D01*
X159271Y40714D02*
X153657Y40714D01*
X153657Y41655D02*
X159271Y41655D01*
X159271Y42596D02*
X153657Y42596D01*
X153657Y43537D02*
X159271Y43537D01*
X61100Y29705D02*
X55486Y29705D01*
X55486Y41415D01*
X61100Y41415D01*
X61100Y29705D01*
X61100Y30646D02*
X55486Y30646D01*
X55486Y31587D02*
X61100Y31587D01*
X61100Y32528D02*
X55486Y32528D01*
X55486Y33469D02*
X61100Y33469D01*
X61100Y34410D02*
X55486Y34410D01*
X55486Y35351D02*
X61100Y35351D01*
X61100Y36292D02*
X55486Y36292D01*
X55486Y37233D02*
X61100Y37233D01*
X61100Y38174D02*
X55486Y38174D01*
X55486Y39115D02*
X61100Y39115D01*
X61100Y40056D02*
X55486Y40056D01*
X55486Y40997D02*
X61100Y40997D01*
X65900Y29705D02*
X71514Y29705D01*
X65900Y29705D02*
X65900Y41415D01*
X71514Y41415D01*
X71514Y29705D01*
X71514Y30646D02*
X65900Y30646D01*
X65900Y31587D02*
X71514Y31587D01*
X71514Y32528D02*
X65900Y32528D01*
X65900Y33469D02*
X71514Y33469D01*
X71514Y34410D02*
X65900Y34410D01*
X65900Y35351D02*
X71514Y35351D01*
X71514Y36292D02*
X65900Y36292D01*
X65900Y37233D02*
X71514Y37233D01*
X71514Y38174D02*
X65900Y38174D01*
X65900Y39115D02*
X71514Y39115D01*
X71514Y40056D02*
X65900Y40056D01*
X65900Y40997D02*
X71514Y40997D01*
X150736Y56375D02*
X156350Y56375D01*
X150736Y56375D02*
X150736Y68085D01*
X156350Y68085D01*
X156350Y56375D01*
X156350Y57316D02*
X150736Y57316D01*
X150736Y58257D02*
X156350Y58257D01*
X156350Y59198D02*
X150736Y59198D01*
X150736Y60139D02*
X156350Y60139D01*
X156350Y61080D02*
X150736Y61080D01*
X150736Y62021D02*
X156350Y62021D01*
X156350Y62962D02*
X150736Y62962D01*
X150736Y63903D02*
X156350Y63903D01*
X156350Y64844D02*
X150736Y64844D01*
X150736Y65785D02*
X156350Y65785D01*
X156350Y66726D02*
X150736Y66726D01*
X150736Y67667D02*
X156350Y67667D01*
X161150Y56375D02*
X166764Y56375D01*
X161150Y56375D02*
X161150Y68085D01*
X166764Y68085D01*
X166764Y56375D01*
X166764Y57316D02*
X161150Y57316D01*
X161150Y58257D02*
X166764Y58257D01*
X166764Y59198D02*
X161150Y59198D01*
X161150Y60139D02*
X166764Y60139D01*
X166764Y61080D02*
X161150Y61080D01*
X161150Y62021D02*
X166764Y62021D01*
X166764Y62962D02*
X161150Y62962D01*
X161150Y63903D02*
X166764Y63903D01*
X166764Y64844D02*
X161150Y64844D01*
X161150Y65785D02*
X166764Y65785D01*
X166764Y66726D02*
X161150Y66726D01*
X161150Y67667D02*
X166764Y67667D01*
D12*
X136200Y98370D02*
X126200Y98370D01*
X126200Y107370D01*
X136200Y107370D01*
X136200Y98370D01*
X136200Y99320D02*
X126200Y99320D01*
X126200Y100270D02*
X136200Y100270D01*
X136200Y101220D02*
X126200Y101220D01*
X126200Y102170D02*
X136200Y102170D01*
X136200Y103120D02*
X126200Y103120D01*
X126200Y104070D02*
X136200Y104070D01*
X136200Y105020D02*
X126200Y105020D01*
X126200Y105970D02*
X136200Y105970D01*
X136200Y106920D02*
X126200Y106920D01*
X143200Y98370D02*
X153200Y98370D01*
X143200Y98370D02*
X143200Y107370D01*
X153200Y107370D01*
X153200Y98370D01*
X153200Y99320D02*
X143200Y99320D01*
X143200Y100270D02*
X153200Y100270D01*
X153200Y101220D02*
X143200Y101220D01*
X143200Y102170D02*
X153200Y102170D01*
X153200Y103120D02*
X143200Y103120D01*
X143200Y104070D02*
X153200Y104070D01*
X153200Y105020D02*
X143200Y105020D01*
X143200Y105970D02*
X153200Y105970D01*
X153200Y106920D02*
X143200Y106920D01*
X106990Y41220D02*
X96990Y41220D01*
X96990Y50220D01*
X106990Y50220D01*
X106990Y41220D01*
X106990Y42170D02*
X96990Y42170D01*
X96990Y43120D02*
X106990Y43120D01*
X106990Y44070D02*
X96990Y44070D01*
X96990Y45020D02*
X106990Y45020D01*
X106990Y45970D02*
X96990Y45970D01*
X96990Y46920D02*
X106990Y46920D01*
X106990Y47870D02*
X96990Y47870D01*
X96990Y48820D02*
X106990Y48820D01*
X106990Y49770D02*
X96990Y49770D01*
X113990Y41220D02*
X123990Y41220D01*
X113990Y41220D02*
X113990Y50220D01*
X123990Y50220D01*
X123990Y41220D01*
X123990Y42170D02*
X113990Y42170D01*
X113990Y43120D02*
X123990Y43120D01*
X123990Y44070D02*
X113990Y44070D01*
X113990Y45020D02*
X123990Y45020D01*
X123990Y45970D02*
X113990Y45970D01*
X113990Y46920D02*
X123990Y46920D01*
X123990Y47870D02*
X113990Y47870D01*
X113990Y48820D02*
X123990Y48820D01*
X123990Y49770D02*
X113990Y49770D01*
X143200Y88320D02*
X153200Y88320D01*
X153200Y79320D01*
X143200Y79320D01*
X143200Y88320D01*
X143200Y80270D02*
X153200Y80270D01*
X153200Y81220D02*
X143200Y81220D01*
X143200Y82170D02*
X153200Y82170D01*
X153200Y83120D02*
X143200Y83120D01*
X143200Y84070D02*
X153200Y84070D01*
X153200Y85020D02*
X143200Y85020D01*
X143200Y85970D02*
X153200Y85970D01*
X153200Y86920D02*
X143200Y86920D01*
X143200Y87870D02*
X153200Y87870D01*
X136200Y88320D02*
X126200Y88320D01*
X136200Y88320D02*
X136200Y79320D01*
X126200Y79320D01*
X126200Y88320D01*
X126200Y80270D02*
X136200Y80270D01*
X136200Y81220D02*
X126200Y81220D01*
X126200Y82170D02*
X136200Y82170D01*
X136200Y83120D02*
X126200Y83120D01*
X126200Y84070D02*
X136200Y84070D01*
X136200Y85020D02*
X126200Y85020D01*
X126200Y85970D02*
X136200Y85970D01*
X136200Y86920D02*
X126200Y86920D01*
X126200Y87870D02*
X136200Y87870D01*
D13*
X46480Y76390D02*
X46480Y71410D01*
X32000Y71410D01*
X32000Y76390D01*
X46480Y76390D01*
X46480Y72379D02*
X32000Y72379D01*
X32000Y73348D02*
X46480Y73348D01*
X46480Y74317D02*
X32000Y74317D01*
X32000Y75286D02*
X46480Y75286D01*
X46480Y76255D02*
X32000Y76255D01*
X46480Y81410D02*
X46480Y86390D01*
X46480Y81410D02*
X32000Y81410D01*
X32000Y86390D01*
X46480Y86390D01*
X46480Y82379D02*
X32000Y82379D01*
X32000Y83348D02*
X46480Y83348D01*
X46480Y84317D02*
X32000Y84317D01*
X32000Y85286D02*
X46480Y85286D01*
X46480Y86255D02*
X32000Y86255D01*
X46480Y91410D02*
X46480Y96390D01*
X46480Y91410D02*
X32000Y91410D01*
X32000Y96390D01*
X46480Y96390D01*
X46480Y92379D02*
X32000Y92379D01*
X32000Y93348D02*
X46480Y93348D01*
X46480Y94317D02*
X32000Y94317D01*
X32000Y95286D02*
X46480Y95286D01*
X46480Y96255D02*
X32000Y96255D01*
X46480Y101410D02*
X46480Y106390D01*
X46480Y101410D02*
X32000Y101410D01*
X32000Y106390D01*
X46480Y106390D01*
X46480Y102379D02*
X32000Y102379D01*
X32000Y103348D02*
X46480Y103348D01*
X46480Y104317D02*
X32000Y104317D01*
X32000Y105286D02*
X46480Y105286D01*
X46480Y106255D02*
X32000Y106255D01*
D14*
X24510Y66420D02*
X24510Y55380D01*
X5470Y55380D01*
X5470Y66420D01*
X24510Y66420D01*
X24510Y56292D02*
X5470Y56292D01*
X5470Y57204D02*
X24510Y57204D01*
X24510Y58116D02*
X5470Y58116D01*
X5470Y59028D02*
X24510Y59028D01*
X24510Y59940D02*
X5470Y59940D01*
X5470Y60852D02*
X24510Y60852D01*
X24510Y61764D02*
X5470Y61764D01*
X5470Y62676D02*
X24510Y62676D01*
X24510Y63588D02*
X5470Y63588D01*
X5470Y64500D02*
X24510Y64500D01*
X24510Y65412D02*
X5470Y65412D01*
X5470Y66324D02*
X24510Y66324D01*
X24510Y111380D02*
X24510Y122420D01*
X24510Y111380D02*
X5470Y111380D01*
X5470Y122420D01*
X24510Y122420D01*
X24510Y112292D02*
X5470Y112292D01*
X5470Y113204D02*
X24510Y113204D01*
X24510Y114116D02*
X5470Y114116D01*
X5470Y115028D02*
X24510Y115028D01*
X24510Y115940D02*
X5470Y115940D01*
X5470Y116852D02*
X24510Y116852D01*
X24510Y117764D02*
X5470Y117764D01*
X5470Y118676D02*
X24510Y118676D01*
X24510Y119588D02*
X5470Y119588D01*
X5470Y120500D02*
X24510Y120500D01*
X24510Y121412D02*
X5470Y121412D01*
X5470Y122324D02*
X24510Y122324D01*
D13*
X207520Y106390D02*
X207520Y101410D01*
X207520Y106390D02*
X222000Y106390D01*
X222000Y101410D01*
X207520Y101410D01*
X207520Y102379D02*
X222000Y102379D01*
X222000Y103348D02*
X207520Y103348D01*
X207520Y104317D02*
X222000Y104317D01*
X222000Y105286D02*
X207520Y105286D01*
X207520Y106255D02*
X222000Y106255D01*
X207520Y96390D02*
X207520Y91410D01*
X207520Y96390D02*
X222000Y96390D01*
X222000Y91410D01*
X207520Y91410D01*
X207520Y92379D02*
X222000Y92379D01*
X222000Y93348D02*
X207520Y93348D01*
X207520Y94317D02*
X222000Y94317D01*
X222000Y95286D02*
X207520Y95286D01*
X207520Y96255D02*
X222000Y96255D01*
X207520Y86390D02*
X207520Y81410D01*
X207520Y86390D02*
X222000Y86390D01*
X222000Y81410D01*
X207520Y81410D01*
X207520Y82379D02*
X222000Y82379D01*
X222000Y83348D02*
X207520Y83348D01*
X207520Y84317D02*
X222000Y84317D01*
X222000Y85286D02*
X207520Y85286D01*
X207520Y86255D02*
X222000Y86255D01*
X207520Y76390D02*
X207520Y71410D01*
X207520Y76390D02*
X222000Y76390D01*
X222000Y71410D01*
X207520Y71410D01*
X207520Y72379D02*
X222000Y72379D01*
X222000Y73348D02*
X207520Y73348D01*
X207520Y74317D02*
X222000Y74317D01*
X222000Y75286D02*
X207520Y75286D01*
X207520Y76255D02*
X222000Y76255D01*
D14*
X229490Y111380D02*
X229490Y122420D01*
X248530Y122420D01*
X248530Y111380D01*
X229490Y111380D01*
X229490Y112292D02*
X248530Y112292D01*
X248530Y113204D02*
X229490Y113204D01*
X229490Y114116D02*
X248530Y114116D01*
X248530Y115028D02*
X229490Y115028D01*
X229490Y115940D02*
X248530Y115940D01*
X248530Y116852D02*
X229490Y116852D01*
X229490Y117764D02*
X248530Y117764D01*
X248530Y118676D02*
X229490Y118676D01*
X229490Y119588D02*
X248530Y119588D01*
X248530Y120500D02*
X229490Y120500D01*
X229490Y121412D02*
X248530Y121412D01*
X248530Y122324D02*
X229490Y122324D01*
X229490Y66420D02*
X229490Y55380D01*
X229490Y66420D02*
X248530Y66420D01*
X248530Y55380D01*
X229490Y55380D01*
X229490Y56292D02*
X248530Y56292D01*
X248530Y57204D02*
X229490Y57204D01*
X229490Y58116D02*
X248530Y58116D01*
X248530Y59028D02*
X229490Y59028D01*
X229490Y59940D02*
X248530Y59940D01*
X248530Y60852D02*
X229490Y60852D01*
X229490Y61764D02*
X248530Y61764D01*
X248530Y62676D02*
X229490Y62676D01*
X229490Y63588D02*
X248530Y63588D01*
X248530Y64500D02*
X229490Y64500D01*
X229490Y65412D02*
X248530Y65412D01*
X248530Y66324D02*
X229490Y66324D01*
D12*
X123500Y60270D02*
X113500Y60270D01*
X113500Y69270D01*
X123500Y69270D01*
X123500Y60270D01*
X123500Y61220D02*
X113500Y61220D01*
X113500Y62170D02*
X123500Y62170D01*
X123500Y63120D02*
X113500Y63120D01*
X113500Y64070D02*
X123500Y64070D01*
X123500Y65020D02*
X113500Y65020D01*
X113500Y65970D02*
X123500Y65970D01*
X123500Y66920D02*
X113500Y66920D01*
X113500Y67870D02*
X123500Y67870D01*
X123500Y68820D02*
X113500Y68820D01*
X130500Y60270D02*
X140500Y60270D01*
X130500Y60270D02*
X130500Y69270D01*
X140500Y69270D01*
X140500Y60270D01*
X140500Y61220D02*
X130500Y61220D01*
X130500Y62170D02*
X140500Y62170D01*
X140500Y63120D02*
X130500Y63120D01*
X130500Y64070D02*
X140500Y64070D01*
X140500Y65020D02*
X130500Y65020D01*
X130500Y65970D02*
X140500Y65970D01*
X140500Y66920D02*
X130500Y66920D01*
X130500Y67870D02*
X140500Y67870D01*
X140500Y68820D02*
X130500Y68820D01*
D15*
X63500Y12700D03*
X88900Y12700D03*
X114300Y12700D03*
X139700Y12700D03*
X165100Y12700D03*
X190500Y12700D03*
D16*
X174950Y83630D02*
X167950Y83630D01*
X174950Y83630D02*
X174950Y76630D01*
X167950Y76630D01*
X167950Y83630D01*
X167950Y79480D02*
X174950Y79480D01*
X174950Y82330D02*
X167950Y82330D01*
X167950Y101170D02*
X174950Y101170D01*
X174950Y94170D01*
X167950Y94170D01*
X167950Y101170D01*
X167950Y97020D02*
X174950Y97020D01*
X174950Y99870D02*
X167950Y99870D01*
D12*
X183460Y102400D02*
X183460Y92400D01*
X183460Y102400D02*
X192460Y102400D01*
X192460Y92400D01*
X183460Y92400D01*
X183460Y93350D02*
X192460Y93350D01*
X192460Y94300D02*
X183460Y94300D01*
X183460Y95250D02*
X192460Y95250D01*
X192460Y96200D02*
X183460Y96200D01*
X183460Y97150D02*
X192460Y97150D01*
X192460Y98100D02*
X183460Y98100D01*
X183460Y99050D02*
X192460Y99050D01*
X192460Y100000D02*
X183460Y100000D01*
X183460Y100950D02*
X192460Y100950D01*
X192460Y101900D02*
X183460Y101900D01*
X183460Y85400D02*
X183460Y75400D01*
X183460Y85400D02*
X192460Y85400D01*
X192460Y75400D01*
X183460Y75400D01*
X183460Y76350D02*
X192460Y76350D01*
X192460Y77300D02*
X183460Y77300D01*
X183460Y78250D02*
X192460Y78250D01*
X192460Y79200D02*
X183460Y79200D01*
X183460Y80150D02*
X192460Y80150D01*
X192460Y81100D02*
X183460Y81100D01*
X183460Y82050D02*
X192460Y82050D01*
X192460Y83000D02*
X183460Y83000D01*
X183460Y83950D02*
X192460Y83950D01*
X192460Y84900D02*
X183460Y84900D01*
D17*
X62220Y82220D02*
X62220Y89180D01*
X70180Y89180D01*
X70180Y82220D01*
X62220Y82220D01*
X62220Y83208D02*
X70180Y83208D01*
X70180Y84196D02*
X62220Y84196D01*
X62220Y85184D02*
X70180Y85184D01*
X70180Y86172D02*
X62220Y86172D01*
X62220Y87160D02*
X70180Y87160D01*
X70180Y88148D02*
X62220Y88148D01*
X62220Y89136D02*
X70180Y89136D01*
X62220Y70180D02*
X62220Y63220D01*
X62220Y70180D02*
X70180Y70180D01*
X70180Y63220D01*
X62220Y63220D01*
X62220Y64208D02*
X70180Y64208D01*
X70180Y65196D02*
X62220Y65196D01*
X62220Y66184D02*
X70180Y66184D01*
X70180Y67172D02*
X62220Y67172D01*
X62220Y68160D02*
X70180Y68160D01*
X70180Y69148D02*
X62220Y69148D01*
X62220Y70136D02*
X70180Y70136D01*
X83220Y72720D02*
X83220Y79680D01*
X91180Y79680D01*
X91180Y72720D01*
X83220Y72720D01*
X83220Y73708D02*
X91180Y73708D01*
X91180Y74696D02*
X83220Y74696D01*
X83220Y75684D02*
X91180Y75684D01*
X91180Y76672D02*
X83220Y76672D01*
X83220Y77660D02*
X91180Y77660D01*
X91180Y78648D02*
X83220Y78648D01*
X83220Y79636D02*
X91180Y79636D01*
D12*
X68890Y97100D02*
X58890Y97100D01*
X58890Y106100D01*
X68890Y106100D01*
X68890Y97100D01*
X68890Y98050D02*
X58890Y98050D01*
X58890Y99000D02*
X68890Y99000D01*
X68890Y99950D02*
X58890Y99950D01*
X58890Y100900D02*
X68890Y100900D01*
X68890Y101850D02*
X58890Y101850D01*
X58890Y102800D02*
X68890Y102800D01*
X68890Y103750D02*
X58890Y103750D01*
X58890Y104700D02*
X68890Y104700D01*
X68890Y105650D02*
X58890Y105650D01*
X75890Y97100D02*
X85890Y97100D01*
X75890Y97100D02*
X75890Y106100D01*
X85890Y106100D01*
X85890Y97100D01*
X85890Y98050D02*
X75890Y98050D01*
X75890Y99000D02*
X85890Y99000D01*
X85890Y99950D02*
X75890Y99950D01*
X75890Y100900D02*
X85890Y100900D01*
X85890Y101850D02*
X75890Y101850D01*
X75890Y102800D02*
X85890Y102800D01*
X85890Y103750D02*
X75890Y103750D01*
X75890Y104700D02*
X85890Y104700D01*
X85890Y105650D02*
X75890Y105650D01*
D18*
X88900Y27940D02*
X88900Y12700D01*
X88900Y27940D02*
X83820Y33020D01*
X53340Y60960D02*
X53340Y83900D01*
X53340Y60960D02*
X58420Y55880D01*
X199390Y97790D02*
X199390Y109220D01*
X199390Y97790D02*
X203280Y93900D01*
X214760Y93900D01*
X190500Y118110D02*
X101600Y118110D01*
X190500Y118110D02*
X199390Y109220D01*
X53340Y83900D02*
X39240Y83900D01*
X53340Y111760D02*
X61855Y120275D01*
X53340Y111760D02*
X53340Y83900D01*
X61855Y120275D02*
X99435Y120275D01*
X101600Y118110D01*
X79356Y55880D02*
X83820Y51416D01*
X66040Y55880D02*
X58420Y55880D01*
X66040Y55880D02*
X79356Y55880D01*
X83820Y51416D02*
X83820Y33020D01*
X66200Y56040D02*
X66200Y66700D01*
X66200Y56040D02*
X66040Y55880D01*
D19*
X151130Y73660D03*
X228600Y101600D03*
X12700Y105410D03*
X44450Y66040D03*
X48260Y120650D03*
X91440Y111760D03*
X124460Y93980D03*
D20*
X24130Y105410D02*
X12700Y105410D01*
X39370Y120650D02*
X48260Y120650D01*
X39370Y120650D02*
X24130Y105410D01*
D19*
X218440Y62230D03*
X91440Y97790D03*
D20*
X39240Y103900D02*
X34050Y103900D01*
X30480Y100330D01*
X20320Y100330D01*
X17780Y97790D01*
D19*
X17780Y97790D03*
X156210Y92536D03*
D20*
X156210Y91830D01*
X148200Y83820D01*
X202170Y73900D02*
X214760Y73900D01*
X202170Y73900D02*
X201930Y73660D01*
D19*
X201930Y73660D03*
D20*
X39240Y93900D02*
X25480Y93900D01*
X25400Y93980D01*
D19*
X25400Y93980D03*
D20*
X113030Y102870D02*
X131200Y102870D01*
D19*
X113030Y102870D03*
D20*
X214760Y83900D02*
X228520Y83900D01*
X228600Y83820D01*
D19*
X228600Y83820D03*
X162386Y105410D03*
D20*
X157306Y110490D01*
X116840Y110490D01*
X113030Y106680D01*
X113030Y102870D01*
X171450Y97670D02*
X187690Y97670D01*
X187960Y97400D01*
X163957Y72637D02*
X163957Y62230D01*
X163957Y72637D02*
X171450Y80130D01*
X58293Y38227D02*
X58293Y35560D01*
X58293Y38227D02*
X50800Y45720D01*
X49530Y45720D01*
D19*
X49530Y45720D03*
D20*
X117720Y45720D02*
X118990Y45720D01*
X117720Y45720D02*
X106290Y57150D01*
X101600Y57150D01*
D21*
X101600Y57150D03*
D20*
X148200Y102870D02*
X156210Y102870D01*
X162560Y96520D01*
X162560Y86403D02*
X158728Y82572D01*
X158728Y74952D01*
D19*
X158728Y74952D03*
X173990Y43180D03*
D20*
X168910Y38100D01*
X156464Y38100D01*
X162560Y86403D02*
X162560Y96520D01*
X135636Y38100D02*
X129286Y38100D01*
X126746Y35560D01*
X120650Y35560D01*
D19*
X120650Y35560D03*
X127000Y73660D03*
D20*
X131200Y76590D02*
X131200Y83820D01*
X131200Y76590D02*
X128270Y73660D01*
X127000Y73660D01*
D18*
X118500Y64770D02*
X105410Y64770D01*
X118500Y64770D02*
X132470Y50800D01*
X181165Y50800D02*
X187960Y57595D01*
X146050Y50800D02*
X132470Y50800D01*
X146050Y50800D02*
X181165Y50800D01*
X146050Y50800D02*
X146050Y38100D01*
X76200Y43053D02*
X68707Y35560D01*
X76200Y43053D02*
X76200Y43180D01*
D19*
X76200Y43180D03*
D18*
X187960Y57595D02*
X187960Y80400D01*
X87200Y76200D02*
X87200Y67740D01*
X87630Y67310D01*
D21*
X87630Y67310D03*
D18*
X101600Y68580D02*
X105410Y64770D01*
X101600Y68580D02*
X101600Y73050D01*
D21*
X101600Y73050D03*
D19*
X100330Y82550D03*
D20*
X95250Y77470D01*
X95250Y52460D01*
X101990Y45720D01*
X173990Y29210D02*
X190500Y12700D01*
X173990Y29210D02*
X118500Y29210D01*
X101990Y45720D01*
X120382Y25400D02*
X120352Y25370D01*
X120382Y25400D02*
X152400Y25400D01*
X101630Y25370D02*
X90170Y36830D01*
X101630Y25370D02*
X120352Y25370D01*
X90170Y36830D02*
X90170Y55880D01*
X76200Y69850D01*
X76200Y85090D01*
X76200Y88900D01*
X80890Y93590D01*
X75590Y85700D02*
X76200Y85090D01*
X152400Y25400D02*
X165100Y12700D01*
X80890Y93590D02*
X80890Y101600D01*
X75590Y85700D02*
X66200Y85700D01*
M02*
