G04 EAGLE Gerber RS-274X export*
G75*
%MOMM*%
%FSLAX34Y34*%
%LPD*%
%INSoldermask Bottom*%
%IPPOS*%
%AMOC8*
5,1,8,0,0,1.08239X$1,22.5*%
G01*
%ADD10C,1.127000*%
%ADD11C,3.429000*%
%ADD12C,0.226312*%
%ADD13C,2.006600*%


D10*
X12700Y76200D03*
X241300Y101600D03*
D11*
X228600Y25400D03*
X25400Y25400D03*
D12*
X134482Y91046D02*
X143268Y91046D01*
X143268Y86450D01*
X134482Y86450D01*
X134482Y91046D01*
X134482Y88600D02*
X143268Y88600D01*
X143268Y90750D02*
X134482Y90750D01*
X134482Y81546D02*
X143268Y81546D01*
X143268Y76950D01*
X134482Y76950D01*
X134482Y81546D01*
X134482Y79100D02*
X143268Y79100D01*
X143268Y81250D02*
X134482Y81250D01*
X134482Y72046D02*
X143268Y72046D01*
X143268Y67450D01*
X134482Y67450D01*
X134482Y72046D01*
X134482Y69600D02*
X143268Y69600D01*
X143268Y71750D02*
X134482Y71750D01*
X115963Y72046D02*
X107177Y72046D01*
X115963Y72046D02*
X115963Y67450D01*
X107177Y67450D01*
X107177Y72046D01*
X107177Y69600D02*
X115963Y69600D01*
X115963Y71750D02*
X107177Y71750D01*
X107177Y81546D02*
X115963Y81546D01*
X115963Y76950D01*
X107177Y76950D01*
X107177Y81546D01*
X107177Y79100D02*
X115963Y79100D01*
X115963Y81250D02*
X107177Y81250D01*
X107177Y91046D02*
X115963Y91046D01*
X115963Y86450D01*
X107177Y86450D01*
X107177Y91046D01*
X107177Y88600D02*
X115963Y88600D01*
X115963Y90750D02*
X107177Y90750D01*
D13*
X63500Y12700D03*
X88900Y12700D03*
X114300Y12700D03*
X139700Y12700D03*
X165100Y12700D03*
X190500Y12700D03*
M02*
