G04 EAGLE Gerber RS-274X export*
G75*
%MOMM*%
%FSLAX34Y34*%
%LPD*%
%INSolderpaste Top*%
%IPPOS*%
%AMOC8*
5,1,8,0,0,1.08239X$1,22.5*%
G01*
%ADD10C,0.096000*%
%ADD11C,0.102000*%
%ADD12C,0.100000*%
%ADD13C,0.100581*%
%ADD14C,0.104000*%
%ADD15C,0.300000*%
%ADD16C,0.099000*%


D10*
X4530Y149480D02*
X4530Y160520D01*
X23570Y160520D01*
X23570Y149480D01*
X4530Y149480D01*
X4530Y150392D02*
X23570Y150392D01*
X23570Y151304D02*
X4530Y151304D01*
X4530Y152216D02*
X23570Y152216D01*
X23570Y153128D02*
X4530Y153128D01*
X4530Y154040D02*
X23570Y154040D01*
X23570Y154952D02*
X4530Y154952D01*
X4530Y155864D02*
X23570Y155864D01*
X23570Y156776D02*
X4530Y156776D01*
X4530Y157688D02*
X23570Y157688D01*
X23570Y158600D02*
X4530Y158600D01*
X4530Y159512D02*
X23570Y159512D01*
X23570Y160424D02*
X4530Y160424D01*
X4530Y104520D02*
X4530Y93480D01*
X4530Y104520D02*
X23570Y104520D01*
X23570Y93480D01*
X4530Y93480D01*
X4530Y94392D02*
X23570Y94392D01*
X23570Y95304D02*
X4530Y95304D01*
X4530Y96216D02*
X23570Y96216D01*
X23570Y97128D02*
X4530Y97128D01*
X4530Y98040D02*
X23570Y98040D01*
X23570Y98952D02*
X4530Y98952D01*
X4530Y99864D02*
X23570Y99864D01*
X23570Y100776D02*
X4530Y100776D01*
X4530Y101688D02*
X23570Y101688D01*
X23570Y102600D02*
X4530Y102600D01*
X4530Y103512D02*
X23570Y103512D01*
X23570Y104424D02*
X4530Y104424D01*
D11*
X44560Y139510D02*
X44560Y144490D01*
X57040Y144490D01*
X57040Y139510D01*
X44560Y139510D01*
X44560Y140479D02*
X57040Y140479D01*
X57040Y141448D02*
X44560Y141448D01*
X44560Y142417D02*
X57040Y142417D01*
X57040Y143386D02*
X44560Y143386D01*
X44560Y144355D02*
X57040Y144355D01*
X44560Y134490D02*
X44560Y129510D01*
X44560Y134490D02*
X57040Y134490D01*
X57040Y129510D01*
X44560Y129510D01*
X44560Y130479D02*
X57040Y130479D01*
X57040Y131448D02*
X44560Y131448D01*
X44560Y132417D02*
X57040Y132417D01*
X57040Y133386D02*
X44560Y133386D01*
X44560Y134355D02*
X57040Y134355D01*
X44560Y124490D02*
X44560Y119510D01*
X44560Y124490D02*
X57040Y124490D01*
X57040Y119510D01*
X44560Y119510D01*
X44560Y120479D02*
X57040Y120479D01*
X57040Y121448D02*
X44560Y121448D01*
X44560Y122417D02*
X57040Y122417D01*
X57040Y123386D02*
X44560Y123386D01*
X44560Y124355D02*
X57040Y124355D01*
X44560Y114490D02*
X44560Y109510D01*
X44560Y114490D02*
X57040Y114490D01*
X57040Y109510D01*
X44560Y109510D01*
X44560Y110479D02*
X57040Y110479D01*
X57040Y111448D02*
X44560Y111448D01*
X44560Y112417D02*
X57040Y112417D01*
X57040Y113386D02*
X44560Y113386D01*
X44560Y114355D02*
X57040Y114355D01*
D10*
X249470Y104520D02*
X249470Y93480D01*
X230430Y93480D01*
X230430Y104520D01*
X249470Y104520D01*
X249470Y94392D02*
X230430Y94392D01*
X230430Y95304D02*
X249470Y95304D01*
X249470Y96216D02*
X230430Y96216D01*
X230430Y97128D02*
X249470Y97128D01*
X249470Y98040D02*
X230430Y98040D01*
X230430Y98952D02*
X249470Y98952D01*
X249470Y99864D02*
X230430Y99864D01*
X230430Y100776D02*
X249470Y100776D01*
X249470Y101688D02*
X230430Y101688D01*
X230430Y102600D02*
X249470Y102600D01*
X249470Y103512D02*
X230430Y103512D01*
X230430Y104424D02*
X249470Y104424D01*
X249470Y149480D02*
X249470Y160520D01*
X249470Y149480D02*
X230430Y149480D01*
X230430Y160520D01*
X249470Y160520D01*
X249470Y150392D02*
X230430Y150392D01*
X230430Y151304D02*
X249470Y151304D01*
X249470Y152216D02*
X230430Y152216D01*
X230430Y153128D02*
X249470Y153128D01*
X249470Y154040D02*
X230430Y154040D01*
X230430Y154952D02*
X249470Y154952D01*
X249470Y155864D02*
X230430Y155864D01*
X230430Y156776D02*
X249470Y156776D01*
X249470Y157688D02*
X230430Y157688D01*
X230430Y158600D02*
X249470Y158600D01*
X249470Y159512D02*
X230430Y159512D01*
X230430Y160424D02*
X249470Y160424D01*
D11*
X209440Y114490D02*
X209440Y109510D01*
X196960Y109510D01*
X196960Y114490D01*
X209440Y114490D01*
X209440Y110479D02*
X196960Y110479D01*
X196960Y111448D02*
X209440Y111448D01*
X209440Y112417D02*
X196960Y112417D01*
X196960Y113386D02*
X209440Y113386D01*
X209440Y114355D02*
X196960Y114355D01*
X209440Y119510D02*
X209440Y124490D01*
X209440Y119510D02*
X196960Y119510D01*
X196960Y124490D01*
X209440Y124490D01*
X209440Y120479D02*
X196960Y120479D01*
X196960Y121448D02*
X209440Y121448D01*
X209440Y122417D02*
X196960Y122417D01*
X196960Y123386D02*
X209440Y123386D01*
X209440Y124355D02*
X196960Y124355D01*
X209440Y129510D02*
X209440Y134490D01*
X209440Y129510D02*
X196960Y129510D01*
X196960Y134490D01*
X209440Y134490D01*
X209440Y130479D02*
X196960Y130479D01*
X196960Y131448D02*
X209440Y131448D01*
X209440Y132417D02*
X196960Y132417D01*
X196960Y133386D02*
X209440Y133386D01*
X209440Y134355D02*
X196960Y134355D01*
X209440Y139510D02*
X209440Y144490D01*
X209440Y139510D02*
X196960Y139510D01*
X196960Y144490D01*
X209440Y144490D01*
X209440Y140479D02*
X196960Y140479D01*
X196960Y141448D02*
X209440Y141448D01*
X209440Y142417D02*
X196960Y142417D01*
X196960Y143386D02*
X209440Y143386D01*
X209440Y144355D02*
X196960Y144355D01*
D12*
X144200Y157950D02*
X144200Y167950D01*
X144200Y157950D02*
X135200Y157950D01*
X135200Y167950D01*
X144200Y167950D01*
X144200Y158900D02*
X135200Y158900D01*
X135200Y159850D02*
X144200Y159850D01*
X144200Y160800D02*
X135200Y160800D01*
X135200Y161750D02*
X144200Y161750D01*
X144200Y162700D02*
X135200Y162700D01*
X135200Y163650D02*
X144200Y163650D01*
X144200Y164600D02*
X135200Y164600D01*
X135200Y165550D02*
X144200Y165550D01*
X144200Y166500D02*
X135200Y166500D01*
X135200Y167450D02*
X144200Y167450D01*
X144200Y174950D02*
X144200Y184950D01*
X144200Y174950D02*
X135200Y174950D01*
X135200Y184950D01*
X144200Y184950D01*
X144200Y175900D02*
X135200Y175900D01*
X135200Y176850D02*
X144200Y176850D01*
X144200Y177800D02*
X135200Y177800D01*
X135200Y178750D02*
X144200Y178750D01*
X144200Y179700D02*
X135200Y179700D01*
X135200Y180650D02*
X144200Y180650D01*
X144200Y181600D02*
X135200Y181600D01*
X135200Y182550D02*
X144200Y182550D01*
X144200Y183500D02*
X135200Y183500D01*
X135200Y184450D02*
X144200Y184450D01*
X182300Y104450D02*
X182300Y94450D01*
X173300Y94450D01*
X173300Y104450D01*
X182300Y104450D01*
X182300Y95400D02*
X173300Y95400D01*
X173300Y96350D02*
X182300Y96350D01*
X182300Y97300D02*
X173300Y97300D01*
X173300Y98250D02*
X182300Y98250D01*
X182300Y99200D02*
X173300Y99200D01*
X173300Y100150D02*
X182300Y100150D01*
X182300Y101100D02*
X173300Y101100D01*
X173300Y102050D02*
X182300Y102050D01*
X182300Y103000D02*
X173300Y103000D01*
X173300Y103950D02*
X182300Y103950D01*
X182300Y111450D02*
X182300Y121450D01*
X182300Y111450D02*
X173300Y111450D01*
X173300Y121450D01*
X182300Y121450D01*
X182300Y112400D02*
X173300Y112400D01*
X173300Y113350D02*
X182300Y113350D01*
X182300Y114300D02*
X173300Y114300D01*
X173300Y115250D02*
X182300Y115250D01*
X182300Y116200D02*
X173300Y116200D01*
X173300Y117150D02*
X182300Y117150D01*
X182300Y118100D02*
X173300Y118100D01*
X173300Y119050D02*
X182300Y119050D01*
X182300Y120000D02*
X173300Y120000D01*
X173300Y120950D02*
X182300Y120950D01*
X118800Y157950D02*
X118800Y167950D01*
X118800Y157950D02*
X109800Y157950D01*
X109800Y167950D01*
X118800Y167950D01*
X118800Y158900D02*
X109800Y158900D01*
X109800Y159850D02*
X118800Y159850D01*
X118800Y160800D02*
X109800Y160800D01*
X109800Y161750D02*
X118800Y161750D01*
X118800Y162700D02*
X109800Y162700D01*
X109800Y163650D02*
X118800Y163650D01*
X118800Y164600D02*
X109800Y164600D01*
X109800Y165550D02*
X118800Y165550D01*
X118800Y166500D02*
X109800Y166500D01*
X109800Y167450D02*
X118800Y167450D01*
X118800Y174950D02*
X118800Y184950D01*
X118800Y174950D02*
X109800Y174950D01*
X109800Y184950D01*
X118800Y184950D01*
X118800Y175900D02*
X109800Y175900D01*
X109800Y176850D02*
X118800Y176850D01*
X118800Y177800D02*
X109800Y177800D01*
X109800Y178750D02*
X118800Y178750D01*
X118800Y179700D02*
X109800Y179700D01*
X109800Y180650D02*
X118800Y180650D01*
X118800Y181600D02*
X109800Y181600D01*
X109800Y182550D02*
X118800Y182550D01*
X118800Y183500D02*
X109800Y183500D01*
X109800Y184450D02*
X118800Y184450D01*
D13*
X119512Y137511D02*
X110740Y137511D01*
X110740Y142093D01*
X119512Y142093D01*
X119512Y137511D01*
X119512Y138467D02*
X110740Y138467D01*
X110740Y139423D02*
X119512Y139423D01*
X119512Y140379D02*
X110740Y140379D01*
X110740Y141335D02*
X119512Y141335D01*
X119512Y128011D02*
X110740Y128011D01*
X110740Y132593D01*
X119512Y132593D01*
X119512Y128011D01*
X119512Y128967D02*
X110740Y128967D01*
X110740Y129923D02*
X119512Y129923D01*
X119512Y130879D02*
X110740Y130879D01*
X110740Y131835D02*
X119512Y131835D01*
X119512Y118511D02*
X110740Y118511D01*
X110740Y123093D01*
X119512Y123093D01*
X119512Y118511D01*
X119512Y119467D02*
X110740Y119467D01*
X110740Y120423D02*
X119512Y120423D01*
X119512Y121379D02*
X110740Y121379D01*
X110740Y122335D02*
X119512Y122335D01*
X138045Y118511D02*
X146817Y118511D01*
X138045Y118511D02*
X138045Y123093D01*
X146817Y123093D01*
X146817Y118511D01*
X146817Y119467D02*
X138045Y119467D01*
X138045Y120423D02*
X146817Y120423D01*
X146817Y121379D02*
X138045Y121379D01*
X138045Y122335D02*
X146817Y122335D01*
X146817Y128011D02*
X138045Y128011D01*
X138045Y132593D01*
X146817Y132593D01*
X146817Y128011D01*
X146817Y128967D02*
X138045Y128967D01*
X138045Y129923D02*
X146817Y129923D01*
X146817Y130879D02*
X138045Y130879D01*
X138045Y131835D02*
X146817Y131835D01*
X146817Y137511D02*
X138045Y137511D01*
X138045Y142093D01*
X146817Y142093D01*
X146817Y137511D01*
X146817Y138467D02*
X138045Y138467D01*
X138045Y139423D02*
X146817Y139423D01*
X146817Y140379D02*
X138045Y140379D01*
X138045Y141335D02*
X146817Y141335D01*
D12*
X140500Y106100D02*
X130500Y106100D01*
X140500Y106100D02*
X140500Y97100D01*
X130500Y97100D01*
X130500Y106100D01*
X130500Y98050D02*
X140500Y98050D01*
X140500Y99000D02*
X130500Y99000D01*
X130500Y99950D02*
X140500Y99950D01*
X140500Y100900D02*
X130500Y100900D01*
X130500Y101850D02*
X140500Y101850D01*
X140500Y102800D02*
X130500Y102800D01*
X130500Y103750D02*
X140500Y103750D01*
X140500Y104700D02*
X130500Y104700D01*
X130500Y105650D02*
X140500Y105650D01*
X123500Y106100D02*
X113500Y106100D01*
X123500Y106100D02*
X123500Y97100D01*
X113500Y97100D01*
X113500Y106100D01*
X113500Y98050D02*
X123500Y98050D01*
X123500Y99000D02*
X113500Y99000D01*
X113500Y99950D02*
X123500Y99950D01*
X123500Y100900D02*
X113500Y100900D01*
X113500Y101850D02*
X123500Y101850D01*
X123500Y102800D02*
X113500Y102800D01*
X113500Y103750D02*
X123500Y103750D01*
X123500Y104700D02*
X113500Y104700D01*
X113500Y105650D02*
X123500Y105650D01*
D14*
X95530Y139710D02*
X88570Y139710D01*
X95530Y139710D02*
X95530Y131750D01*
X88570Y131750D01*
X88570Y139710D01*
X88570Y132738D02*
X95530Y132738D01*
X95530Y133726D02*
X88570Y133726D01*
X88570Y134714D02*
X95530Y134714D01*
X95530Y135702D02*
X88570Y135702D01*
X88570Y136690D02*
X95530Y136690D01*
X95530Y137678D02*
X88570Y137678D01*
X88570Y138666D02*
X95530Y138666D01*
X95530Y139654D02*
X88570Y139654D01*
X76530Y139710D02*
X69570Y139710D01*
X76530Y139710D02*
X76530Y131750D01*
X69570Y131750D01*
X69570Y139710D01*
X69570Y132738D02*
X76530Y132738D01*
X76530Y133726D02*
X69570Y133726D01*
X69570Y134714D02*
X76530Y134714D01*
X76530Y135702D02*
X69570Y135702D01*
X69570Y136690D02*
X76530Y136690D01*
X76530Y137678D02*
X69570Y137678D01*
X69570Y138666D02*
X76530Y138666D01*
X76530Y139654D02*
X69570Y139654D01*
X79070Y118710D02*
X86030Y118710D01*
X86030Y110750D01*
X79070Y110750D01*
X79070Y118710D01*
X79070Y111738D02*
X86030Y111738D01*
X86030Y112726D02*
X79070Y112726D01*
X79070Y113714D02*
X86030Y113714D01*
X86030Y114702D02*
X79070Y114702D01*
X79070Y115690D02*
X86030Y115690D01*
X86030Y116678D02*
X79070Y116678D01*
X79070Y117666D02*
X86030Y117666D01*
X86030Y118654D02*
X79070Y118654D01*
D15*
X20130Y187000D02*
X20130Y194000D01*
X20130Y187000D02*
X13130Y187000D01*
X13130Y194000D01*
X20130Y194000D01*
X20130Y189850D02*
X13130Y189850D01*
X13130Y192700D02*
X20130Y192700D01*
X37670Y194000D02*
X37670Y187000D01*
X30670Y187000D01*
X30670Y194000D01*
X37670Y194000D01*
X37670Y189850D02*
X30670Y189850D01*
X30670Y192700D02*
X37670Y192700D01*
D12*
X21900Y170760D02*
X11900Y170760D01*
X11900Y179760D01*
X21900Y179760D01*
X21900Y170760D01*
X21900Y171710D02*
X11900Y171710D01*
X11900Y172660D02*
X21900Y172660D01*
X21900Y173610D02*
X11900Y173610D01*
X11900Y174560D02*
X21900Y174560D01*
X21900Y175510D02*
X11900Y175510D01*
X11900Y176460D02*
X21900Y176460D01*
X21900Y177410D02*
X11900Y177410D01*
X11900Y178360D02*
X21900Y178360D01*
X21900Y179310D02*
X11900Y179310D01*
X28900Y170760D02*
X38900Y170760D01*
X28900Y170760D02*
X28900Y179760D01*
X38900Y179760D01*
X38900Y170760D01*
X38900Y171710D02*
X28900Y171710D01*
X28900Y172660D02*
X38900Y172660D01*
X38900Y173610D02*
X28900Y173610D01*
X28900Y174560D02*
X38900Y174560D01*
X38900Y175510D02*
X28900Y175510D01*
X28900Y176460D02*
X38900Y176460D01*
X38900Y177410D02*
X28900Y177410D01*
X28900Y178360D02*
X38900Y178360D01*
X38900Y179310D02*
X28900Y179310D01*
X113500Y71700D02*
X123500Y71700D01*
X113500Y71700D02*
X113500Y80700D01*
X123500Y80700D01*
X123500Y71700D01*
X123500Y72650D02*
X113500Y72650D01*
X113500Y73600D02*
X123500Y73600D01*
X123500Y74550D02*
X113500Y74550D01*
X113500Y75500D02*
X123500Y75500D01*
X123500Y76450D02*
X113500Y76450D01*
X113500Y77400D02*
X123500Y77400D01*
X123500Y78350D02*
X113500Y78350D01*
X113500Y79300D02*
X123500Y79300D01*
X123500Y80250D02*
X113500Y80250D01*
X130500Y71700D02*
X140500Y71700D01*
X130500Y71700D02*
X130500Y80700D01*
X140500Y80700D01*
X140500Y71700D01*
X140500Y72650D02*
X130500Y72650D01*
X130500Y73600D02*
X140500Y73600D01*
X140500Y74550D02*
X130500Y74550D01*
X130500Y75500D02*
X140500Y75500D01*
X140500Y76450D02*
X130500Y76450D01*
X130500Y77400D02*
X140500Y77400D01*
X140500Y78350D02*
X130500Y78350D01*
X130500Y79300D02*
X140500Y79300D01*
X140500Y80250D02*
X130500Y80250D01*
D16*
X100705Y79695D02*
X92695Y79695D01*
X92695Y88705D01*
X100705Y88705D01*
X100705Y79695D01*
X100705Y80635D02*
X92695Y80635D01*
X92695Y81575D02*
X100705Y81575D01*
X100705Y82515D02*
X92695Y82515D01*
X92695Y83455D02*
X100705Y83455D01*
X100705Y84395D02*
X92695Y84395D01*
X92695Y85335D02*
X100705Y85335D01*
X100705Y86275D02*
X92695Y86275D01*
X92695Y87215D02*
X100705Y87215D01*
X100705Y88155D02*
X92695Y88155D01*
X92695Y63695D02*
X100705Y63695D01*
X92695Y63695D02*
X92695Y72705D01*
X100705Y72705D01*
X100705Y63695D01*
X100705Y64635D02*
X92695Y64635D01*
X92695Y65575D02*
X100705Y65575D01*
X100705Y66515D02*
X92695Y66515D01*
X92695Y67455D02*
X100705Y67455D01*
X100705Y68395D02*
X92695Y68395D01*
X92695Y69335D02*
X100705Y69335D01*
X100705Y70275D02*
X92695Y70275D01*
X92695Y71215D02*
X100705Y71215D01*
X100705Y72155D02*
X92695Y72155D01*
X59705Y63695D02*
X51695Y63695D01*
X51695Y72705D01*
X59705Y72705D01*
X59705Y63695D01*
X59705Y64635D02*
X51695Y64635D01*
X51695Y65575D02*
X59705Y65575D01*
X59705Y66515D02*
X51695Y66515D01*
X51695Y67455D02*
X59705Y67455D01*
X59705Y68395D02*
X51695Y68395D01*
X51695Y69335D02*
X59705Y69335D01*
X59705Y70275D02*
X51695Y70275D01*
X51695Y71215D02*
X59705Y71215D01*
X59705Y72155D02*
X51695Y72155D01*
X51695Y79695D02*
X59705Y79695D01*
X51695Y79695D02*
X51695Y88705D01*
X59705Y88705D01*
X59705Y79695D01*
X59705Y80635D02*
X51695Y80635D01*
X51695Y81575D02*
X59705Y81575D01*
X59705Y82515D02*
X51695Y82515D01*
X51695Y83455D02*
X59705Y83455D01*
X59705Y84395D02*
X51695Y84395D01*
X51695Y85335D02*
X59705Y85335D01*
X59705Y86275D02*
X51695Y86275D01*
X51695Y87215D02*
X59705Y87215D01*
X59705Y88155D02*
X51695Y88155D01*
M02*
