G04 EAGLE Gerber RS-274X export*
G75*
%MOMM*%
%FSLAX34Y34*%
%LPD*%
%INSoldermask Bottom*%
%IPPOS*%
%AMOC8*
5,1,8,0,0,1.08239X$1,22.5*%
G01*
%ADD10C,1.152400*%
%ADD11C,3.454400*%
%ADD12C,0.251966*%
%ADD13C,2.032000*%

G36*
X27370Y175907D02*
X27370Y175907D01*
X27436Y175909D01*
X27479Y175927D01*
X27526Y175935D01*
X27583Y175969D01*
X27643Y175994D01*
X27678Y176025D01*
X27719Y176050D01*
X27761Y176101D01*
X27809Y176145D01*
X27831Y176187D01*
X27860Y176224D01*
X27881Y176286D01*
X27912Y176345D01*
X27920Y176399D01*
X27932Y176436D01*
X27931Y176476D01*
X27939Y176530D01*
X27939Y179070D01*
X27928Y179135D01*
X27926Y179201D01*
X27908Y179244D01*
X27900Y179291D01*
X27866Y179348D01*
X27841Y179408D01*
X27810Y179443D01*
X27785Y179484D01*
X27734Y179526D01*
X27690Y179574D01*
X27648Y179596D01*
X27611Y179625D01*
X27549Y179646D01*
X27490Y179677D01*
X27436Y179685D01*
X27399Y179697D01*
X27359Y179696D01*
X27305Y179704D01*
X23495Y179704D01*
X23430Y179693D01*
X23364Y179691D01*
X23321Y179673D01*
X23274Y179665D01*
X23217Y179631D01*
X23157Y179606D01*
X23122Y179575D01*
X23081Y179550D01*
X23040Y179499D01*
X22991Y179455D01*
X22969Y179413D01*
X22940Y179376D01*
X22919Y179314D01*
X22888Y179255D01*
X22880Y179201D01*
X22868Y179164D01*
X22868Y179161D01*
X22869Y179124D01*
X22861Y179070D01*
X22861Y176530D01*
X22872Y176465D01*
X22874Y176399D01*
X22892Y176356D01*
X22900Y176309D01*
X22934Y176252D01*
X22959Y176192D01*
X22990Y176157D01*
X23015Y176116D01*
X23066Y176075D01*
X23110Y176026D01*
X23152Y176004D01*
X23189Y175975D01*
X23251Y175954D01*
X23310Y175923D01*
X23364Y175915D01*
X23401Y175903D01*
X23441Y175904D01*
X23495Y175896D01*
X27305Y175896D01*
X27370Y175907D01*
G37*
G36*
X179770Y175907D02*
X179770Y175907D01*
X179836Y175909D01*
X179879Y175927D01*
X179926Y175935D01*
X179983Y175969D01*
X180043Y175994D01*
X180078Y176025D01*
X180119Y176050D01*
X180161Y176101D01*
X180209Y176145D01*
X180231Y176187D01*
X180260Y176224D01*
X180281Y176286D01*
X180312Y176345D01*
X180320Y176399D01*
X180332Y176436D01*
X180331Y176476D01*
X180339Y176530D01*
X180339Y179070D01*
X180328Y179135D01*
X180326Y179201D01*
X180308Y179244D01*
X180300Y179291D01*
X180266Y179348D01*
X180241Y179408D01*
X180210Y179443D01*
X180185Y179484D01*
X180134Y179526D01*
X180090Y179574D01*
X180048Y179596D01*
X180011Y179625D01*
X179949Y179646D01*
X179890Y179677D01*
X179836Y179685D01*
X179799Y179697D01*
X179759Y179696D01*
X179705Y179704D01*
X175895Y179704D01*
X175830Y179693D01*
X175764Y179691D01*
X175721Y179673D01*
X175674Y179665D01*
X175617Y179631D01*
X175557Y179606D01*
X175522Y179575D01*
X175481Y179550D01*
X175440Y179499D01*
X175391Y179455D01*
X175369Y179413D01*
X175340Y179376D01*
X175319Y179314D01*
X175288Y179255D01*
X175280Y179201D01*
X175268Y179164D01*
X175268Y179161D01*
X175269Y179124D01*
X175261Y179070D01*
X175261Y176530D01*
X175272Y176465D01*
X175274Y176399D01*
X175292Y176356D01*
X175300Y176309D01*
X175334Y176252D01*
X175359Y176192D01*
X175390Y176157D01*
X175415Y176116D01*
X175466Y176075D01*
X175510Y176026D01*
X175552Y176004D01*
X175589Y175975D01*
X175651Y175954D01*
X175710Y175923D01*
X175764Y175915D01*
X175801Y175903D01*
X175841Y175904D01*
X175895Y175896D01*
X179705Y175896D01*
X179770Y175907D01*
G37*
G36*
X134050Y99707D02*
X134050Y99707D01*
X134116Y99709D01*
X134159Y99727D01*
X134206Y99735D01*
X134263Y99769D01*
X134323Y99794D01*
X134358Y99825D01*
X134399Y99850D01*
X134441Y99901D01*
X134489Y99945D01*
X134511Y99987D01*
X134540Y100024D01*
X134561Y100086D01*
X134592Y100145D01*
X134600Y100199D01*
X134612Y100236D01*
X134611Y100276D01*
X134619Y100330D01*
X134619Y102870D01*
X134608Y102935D01*
X134606Y103001D01*
X134588Y103044D01*
X134580Y103091D01*
X134546Y103148D01*
X134521Y103208D01*
X134490Y103243D01*
X134465Y103284D01*
X134414Y103326D01*
X134370Y103374D01*
X134328Y103396D01*
X134291Y103425D01*
X134229Y103446D01*
X134170Y103477D01*
X134116Y103485D01*
X134079Y103497D01*
X134039Y103496D01*
X133985Y103504D01*
X130175Y103504D01*
X130110Y103493D01*
X130044Y103491D01*
X130001Y103473D01*
X129954Y103465D01*
X129897Y103431D01*
X129837Y103406D01*
X129802Y103375D01*
X129761Y103350D01*
X129720Y103299D01*
X129671Y103255D01*
X129649Y103213D01*
X129620Y103176D01*
X129599Y103114D01*
X129568Y103055D01*
X129560Y103001D01*
X129548Y102964D01*
X129548Y102961D01*
X129549Y102924D01*
X129541Y102870D01*
X129541Y100330D01*
X129552Y100265D01*
X129554Y100199D01*
X129572Y100156D01*
X129580Y100109D01*
X129614Y100052D01*
X129639Y99992D01*
X129670Y99957D01*
X129695Y99916D01*
X129746Y99875D01*
X129790Y99826D01*
X129832Y99804D01*
X129869Y99775D01*
X129931Y99754D01*
X129990Y99723D01*
X130044Y99715D01*
X130081Y99703D01*
X130121Y99704D01*
X130175Y99696D01*
X133985Y99696D01*
X134050Y99707D01*
G37*
G36*
X123890Y99707D02*
X123890Y99707D01*
X123956Y99709D01*
X123999Y99727D01*
X124046Y99735D01*
X124103Y99769D01*
X124163Y99794D01*
X124198Y99825D01*
X124239Y99850D01*
X124281Y99901D01*
X124329Y99945D01*
X124351Y99987D01*
X124380Y100024D01*
X124401Y100086D01*
X124432Y100145D01*
X124440Y100199D01*
X124452Y100236D01*
X124451Y100276D01*
X124459Y100330D01*
X124459Y102870D01*
X124448Y102935D01*
X124446Y103001D01*
X124428Y103044D01*
X124420Y103091D01*
X124386Y103148D01*
X124361Y103208D01*
X124330Y103243D01*
X124305Y103284D01*
X124254Y103326D01*
X124210Y103374D01*
X124168Y103396D01*
X124131Y103425D01*
X124069Y103446D01*
X124010Y103477D01*
X123956Y103485D01*
X123919Y103497D01*
X123879Y103496D01*
X123825Y103504D01*
X120015Y103504D01*
X119950Y103493D01*
X119884Y103491D01*
X119841Y103473D01*
X119794Y103465D01*
X119737Y103431D01*
X119677Y103406D01*
X119642Y103375D01*
X119601Y103350D01*
X119560Y103299D01*
X119511Y103255D01*
X119489Y103213D01*
X119460Y103176D01*
X119439Y103114D01*
X119408Y103055D01*
X119400Y103001D01*
X119388Y102964D01*
X119388Y102961D01*
X119389Y102924D01*
X119381Y102870D01*
X119381Y100330D01*
X119392Y100265D01*
X119394Y100199D01*
X119412Y100156D01*
X119420Y100109D01*
X119454Y100052D01*
X119479Y99992D01*
X119510Y99957D01*
X119535Y99916D01*
X119586Y99875D01*
X119630Y99826D01*
X119672Y99804D01*
X119709Y99775D01*
X119771Y99754D01*
X119830Y99723D01*
X119884Y99715D01*
X119921Y99703D01*
X119961Y99704D01*
X120015Y99696D01*
X123825Y99696D01*
X123890Y99707D01*
G37*
D10*
X50800Y50800D03*
X190500Y241300D03*
D11*
X228600Y25400D03*
X25400Y25400D03*
X228600Y228600D03*
X25400Y228600D03*
D12*
X134610Y107452D02*
X140218Y107452D01*
X140218Y95748D01*
X134610Y95748D01*
X134610Y107452D01*
X134610Y98142D02*
X140218Y98142D01*
X140218Y100536D02*
X134610Y100536D01*
X134610Y102930D02*
X140218Y102930D01*
X140218Y105324D02*
X134610Y105324D01*
X129804Y107452D02*
X124196Y107452D01*
X129804Y107452D02*
X129804Y95748D01*
X124196Y95748D01*
X124196Y107452D01*
X124196Y98142D02*
X129804Y98142D01*
X129804Y100536D02*
X124196Y100536D01*
X124196Y102930D02*
X129804Y102930D01*
X129804Y105324D02*
X124196Y105324D01*
X119390Y107452D02*
X113782Y107452D01*
X119390Y107452D02*
X119390Y95748D01*
X113782Y95748D01*
X113782Y107452D01*
X113782Y98142D02*
X119390Y98142D01*
X119390Y100536D02*
X113782Y100536D01*
X113782Y102930D02*
X119390Y102930D01*
X119390Y105324D02*
X113782Y105324D01*
X180203Y183652D02*
X185811Y183652D01*
X185811Y171948D01*
X180203Y171948D01*
X180203Y183652D01*
X180203Y174342D02*
X185811Y174342D01*
X185811Y176736D02*
X180203Y176736D01*
X180203Y179130D02*
X185811Y179130D01*
X185811Y181524D02*
X180203Y181524D01*
X175397Y183652D02*
X169789Y183652D01*
X175397Y183652D02*
X175397Y171948D01*
X169789Y171948D01*
X169789Y183652D01*
X169789Y174342D02*
X175397Y174342D01*
X175397Y176736D02*
X169789Y176736D01*
X169789Y179130D02*
X175397Y179130D01*
X175397Y181524D02*
X169789Y181524D01*
X33411Y183652D02*
X27803Y183652D01*
X33411Y183652D02*
X33411Y171948D01*
X27803Y171948D01*
X27803Y183652D01*
X27803Y174342D02*
X33411Y174342D01*
X33411Y176736D02*
X27803Y176736D01*
X27803Y179130D02*
X33411Y179130D01*
X33411Y181524D02*
X27803Y181524D01*
X22997Y183652D02*
X17389Y183652D01*
X22997Y183652D02*
X22997Y171948D01*
X17389Y171948D01*
X17389Y183652D01*
X17389Y174342D02*
X22997Y174342D01*
X22997Y176736D02*
X17389Y176736D01*
X17389Y179130D02*
X22997Y179130D01*
X22997Y181524D02*
X17389Y181524D01*
D13*
X63500Y12700D03*
X88900Y12700D03*
X114300Y12700D03*
X139700Y12700D03*
X165100Y12700D03*
X190500Y12700D03*
M02*
