M48
;GenerationSoftware,Autodesk,EAGLE,9.6.2*%
;CreationDate,2023-10-18T15:47:11Z*%
FMAT,2
ICI,OFF
METRIC,TZ,000.000
T4C0.305
T3C0.381
T2C1.016
T1C3.302
%
G90
M71
T1
X22860Y2540
X2540Y2540
X22860Y22860
X2540Y22860
T2
X19050Y1270
X6350Y1270
X8890Y1270
X11430Y1270
X13970Y1270
X16510Y1270
T3
X13589Y6477
T4
X23749Y11430
X12700Y16891
X1270Y11430
X15240Y6350
X11557Y14859
X3556Y11176
X18161Y13335
X14224Y15113
X3556Y12192
X3048Y13208
X2482Y19926
X18288Y16510
X9195Y14605
X10287Y14478
X15240Y10795
X16256Y17780
X9017Y10668
X16129Y9017
X15240Y12700
X21590Y12192
X4572Y9144
X20320Y8890
X19050Y20320
X10287Y12446
X6350Y20320
X15113Y16002
X15240Y18542
X8255Y16891
X22860Y6350
X18953Y12670
M30