G04 EAGLE Gerber RS-274X export*
G75*
%MOMM*%
%FSLAX34Y34*%
%LPD*%
%INSilkscreen Bottom*%
%IPPOS*%
%AMOC8*
5,1,8,0,0,1.08239X$1,22.5*%
G01*
%ADD10C,0.203200*%

G36*
X171947Y19697D02*
X171947Y19697D01*
X171942Y19704D01*
X171949Y19710D01*
X171949Y86110D01*
X171946Y86115D01*
X171949Y86118D01*
X171849Y86718D01*
X171749Y87417D01*
X171649Y88117D01*
X171641Y88125D01*
X171644Y88132D01*
X171346Y88729D01*
X171147Y89326D01*
X171139Y89331D01*
X171141Y89337D01*
X170741Y89937D01*
X170738Y89938D01*
X170738Y89941D01*
X170338Y90441D01*
X170334Y90442D01*
X170335Y90445D01*
X169335Y91445D01*
X169331Y91445D01*
X169331Y91448D01*
X168831Y91848D01*
X168823Y91849D01*
X168822Y91854D01*
X167622Y92454D01*
X167615Y92453D01*
X167614Y92457D01*
X166915Y92657D01*
X166316Y92857D01*
X166309Y92855D01*
X166307Y92859D01*
X165607Y92959D01*
X165602Y92956D01*
X165600Y92959D01*
X164900Y92959D01*
X164895Y92956D01*
X164892Y92959D01*
X164292Y92859D01*
X163593Y92759D01*
X163589Y92755D01*
X163586Y92757D01*
X162886Y92557D01*
X162885Y92556D01*
X162884Y92557D01*
X162284Y92357D01*
X162281Y92352D01*
X162278Y92354D01*
X161678Y92054D01*
X161676Y92050D01*
X161673Y92051D01*
X161073Y91651D01*
X161072Y91648D01*
X161069Y91648D01*
X160569Y91248D01*
X160568Y91244D01*
X160565Y91245D01*
X160065Y90745D01*
X160065Y90741D01*
X160062Y90741D01*
X159662Y90241D01*
X159661Y90237D01*
X159659Y90237D01*
X159259Y89637D01*
X159259Y89633D01*
X159256Y89632D01*
X158656Y88432D01*
X158657Y88429D01*
X158654Y88427D01*
X158656Y88425D01*
X158653Y88424D01*
X158626Y88329D01*
X158583Y88181D01*
X158569Y88132D01*
X158527Y87984D01*
X158485Y87836D01*
X158471Y87787D01*
X158453Y87724D01*
X158454Y87720D01*
X158451Y87718D01*
X158351Y87118D01*
X158352Y87117D01*
X158351Y87117D01*
X158251Y86417D01*
X158254Y86412D01*
X158251Y86410D01*
X158251Y19710D01*
X158287Y19663D01*
X158294Y19668D01*
X158300Y19661D01*
X171900Y19661D01*
X171947Y19697D01*
G37*
G36*
X120718Y20534D02*
X120718Y20534D01*
X120730Y20531D01*
X121130Y20831D01*
X121134Y20847D01*
X121141Y20852D01*
X121137Y20858D01*
X121139Y20862D01*
X121149Y20870D01*
X121149Y54670D01*
X121146Y54674D01*
X121149Y54677D01*
X121049Y55373D01*
X121049Y56070D01*
X121042Y56079D01*
X121047Y56086D01*
X120847Y56685D01*
X120647Y57384D01*
X120642Y57388D01*
X120644Y57392D01*
X120344Y57992D01*
X120340Y57994D01*
X120341Y57997D01*
X119941Y58597D01*
X119938Y58598D01*
X119938Y58601D01*
X119138Y59601D01*
X119134Y59602D01*
X119135Y59605D01*
X118635Y60105D01*
X118628Y60106D01*
X118627Y60111D01*
X118027Y60511D01*
X118026Y60511D01*
X118025Y60512D01*
X117525Y60812D01*
X117520Y60812D01*
X117519Y60815D01*
X116819Y61115D01*
X116816Y61115D01*
X116816Y61117D01*
X115616Y61517D01*
X115609Y61515D01*
X115607Y61519D01*
X114907Y61619D01*
X114902Y61616D01*
X114900Y61619D01*
X114200Y61619D01*
X114196Y61616D01*
X114193Y61619D01*
X113493Y61519D01*
X113492Y61518D01*
X113492Y61519D01*
X112892Y61419D01*
X112193Y61319D01*
X112185Y61311D01*
X112178Y61314D01*
X110978Y60714D01*
X110976Y60710D01*
X110973Y60711D01*
X110373Y60311D01*
X110372Y60308D01*
X110369Y60308D01*
X109369Y59508D01*
X109368Y59504D01*
X109365Y59505D01*
X108865Y59005D01*
X108864Y58993D01*
X108856Y58992D01*
X108557Y58395D01*
X108159Y57797D01*
X108160Y57788D01*
X108153Y57786D01*
X107953Y57186D01*
X107954Y57184D01*
X107953Y57184D01*
X107951Y57176D01*
X107908Y57028D01*
X107894Y56979D01*
X107852Y56831D01*
X107810Y56684D01*
X107796Y56634D01*
X107754Y56487D01*
X107753Y56485D01*
X107553Y55886D01*
X107555Y55879D01*
X107551Y55877D01*
X107451Y55177D01*
X107454Y55172D01*
X107451Y55170D01*
X107451Y20970D01*
X107464Y20952D01*
X107461Y20940D01*
X107761Y20540D01*
X107792Y20532D01*
X107800Y20521D01*
X120700Y20521D01*
X120718Y20534D01*
G37*
G36*
X70347Y20457D02*
X70347Y20457D01*
X70342Y20464D01*
X70349Y20470D01*
X70349Y57670D01*
X70346Y57675D01*
X70349Y57678D01*
X70249Y58278D01*
X70205Y58319D01*
X70203Y58316D01*
X70200Y58319D01*
X56700Y58319D01*
X56653Y58283D01*
X56658Y58276D01*
X56651Y58270D01*
X56651Y54970D01*
X56671Y54944D01*
X56671Y54930D01*
X56700Y54909D01*
X56669Y54908D01*
X56670Y54884D01*
X56651Y54870D01*
X56651Y21070D01*
X56654Y21065D01*
X56651Y21062D01*
X56751Y20462D01*
X56795Y20421D01*
X56798Y20424D01*
X56800Y20421D01*
X70300Y20421D01*
X70347Y20457D01*
G37*
G36*
X68557Y170987D02*
X68557Y170987D01*
X68547Y171000D01*
X68555Y171010D01*
X68563Y170985D01*
X68608Y170953D01*
X68610Y170951D01*
X69210Y170951D01*
X69214Y170954D01*
X69217Y170951D01*
X70617Y171151D01*
X70622Y171156D01*
X70626Y171153D01*
X71226Y171353D01*
X71229Y171358D01*
X71232Y171356D01*
X72432Y171956D01*
X72434Y171960D01*
X72437Y171959D01*
X73037Y172359D01*
X73038Y172362D01*
X73041Y172362D01*
X73541Y172762D01*
X73542Y172766D01*
X73545Y172765D01*
X74045Y173265D01*
X74046Y173272D01*
X74051Y173273D01*
X74450Y173871D01*
X74848Y174369D01*
X74849Y174377D01*
X74854Y174378D01*
X75154Y174978D01*
X75153Y174985D01*
X75157Y174986D01*
X75182Y175074D01*
X75183Y175074D01*
X75182Y175074D01*
X75225Y175222D01*
X75239Y175271D01*
X75281Y175419D01*
X75323Y175567D01*
X75337Y175616D01*
X75357Y175685D01*
X75557Y176284D01*
X75555Y176291D01*
X75559Y176293D01*
X75759Y177693D01*
X75753Y177703D01*
X75759Y177708D01*
X75659Y178304D01*
X75659Y179000D01*
X75653Y179008D01*
X75657Y179014D01*
X75457Y179714D01*
X75456Y179715D01*
X75457Y179716D01*
X75257Y180316D01*
X75252Y180319D01*
X75254Y180322D01*
X74654Y181522D01*
X74647Y181525D01*
X74648Y181531D01*
X74248Y182031D01*
X74248Y182032D01*
X73748Y182632D01*
X73741Y182633D01*
X73741Y182638D01*
X72741Y183438D01*
X72737Y183439D01*
X72737Y183441D01*
X72137Y183841D01*
X72133Y183841D01*
X72132Y183844D01*
X71532Y184144D01*
X71527Y184143D01*
X71526Y184147D01*
X70926Y184347D01*
X70919Y184345D01*
X70917Y184349D01*
X70217Y184449D01*
X69518Y184549D01*
X68918Y184649D01*
X68913Y184646D01*
X68910Y184649D01*
X37110Y184649D01*
X37072Y184620D01*
X37064Y184618D01*
X36864Y184118D01*
X36865Y184116D01*
X36863Y184114D01*
X36867Y184108D01*
X36868Y184105D01*
X36861Y184100D01*
X36861Y171200D01*
X36890Y171162D01*
X36892Y171154D01*
X37392Y170954D01*
X37405Y170958D01*
X37410Y170951D01*
X68510Y170951D01*
X68557Y170987D01*
G37*
G36*
X95105Y20724D02*
X95105Y20724D01*
X95108Y20721D01*
X95708Y20821D01*
X95749Y20865D01*
X95746Y20868D01*
X95749Y20870D01*
X95749Y57470D01*
X95741Y57481D01*
X95746Y57488D01*
X95546Y57988D01*
X95505Y58013D01*
X95500Y58019D01*
X82600Y58019D01*
X82589Y58011D01*
X82582Y58016D01*
X82082Y57816D01*
X82057Y57775D01*
X82051Y57770D01*
X82051Y21370D01*
X82054Y21365D01*
X82051Y21362D01*
X82151Y20762D01*
X82195Y20721D01*
X82198Y20724D01*
X82200Y20721D01*
X95100Y20721D01*
X95105Y20724D01*
G37*
G36*
X146338Y20680D02*
X146338Y20680D01*
X146346Y20682D01*
X146546Y21182D01*
X146542Y21195D01*
X146549Y21200D01*
X146549Y52400D01*
X146546Y52404D01*
X146549Y52407D01*
X146349Y53807D01*
X146344Y53812D01*
X146347Y53816D01*
X146147Y54416D01*
X146142Y54419D01*
X146144Y54422D01*
X145544Y55622D01*
X145540Y55624D01*
X145541Y55627D01*
X145141Y56227D01*
X145138Y56228D01*
X145138Y56231D01*
X144738Y56731D01*
X144734Y56732D01*
X144735Y56735D01*
X144235Y57235D01*
X144228Y57236D01*
X144227Y57241D01*
X143629Y57640D01*
X143131Y58038D01*
X143123Y58039D01*
X143122Y58044D01*
X142522Y58344D01*
X142515Y58343D01*
X142514Y58347D01*
X141815Y58547D01*
X141216Y58747D01*
X141209Y58745D01*
X141207Y58749D01*
X139807Y58949D01*
X139797Y58943D01*
X139792Y58949D01*
X139196Y58849D01*
X138500Y58849D01*
X138492Y58843D01*
X138486Y58847D01*
X137786Y58647D01*
X137785Y58646D01*
X137784Y58647D01*
X137184Y58447D01*
X137181Y58442D01*
X137178Y58444D01*
X135978Y57844D01*
X135976Y57840D01*
X135973Y57841D01*
X135373Y57441D01*
X135370Y57434D01*
X135365Y57435D01*
X134865Y56935D01*
X134865Y56931D01*
X134862Y56931D01*
X134062Y55931D01*
X134061Y55927D01*
X134059Y55927D01*
X133659Y55327D01*
X133659Y55323D01*
X133656Y55322D01*
X133356Y54722D01*
X133357Y54715D01*
X133353Y54714D01*
X133334Y54647D01*
X133291Y54499D01*
X133277Y54450D01*
X133235Y54302D01*
X133193Y54154D01*
X133179Y54105D01*
X133153Y54015D01*
X132953Y53416D01*
X132953Y53415D01*
X132957Y53405D01*
X132951Y53400D01*
X132951Y52704D01*
X132851Y52108D01*
X132854Y52103D01*
X132851Y52100D01*
X132851Y20900D01*
X132880Y20862D01*
X132882Y20854D01*
X133382Y20654D01*
X133395Y20658D01*
X133400Y20651D01*
X146300Y20651D01*
X146338Y20680D01*
G37*
G36*
X237920Y63646D02*
X237920Y63646D01*
X238028Y63656D01*
X238041Y63662D01*
X238055Y63664D01*
X238152Y63712D01*
X238251Y63757D01*
X238264Y63768D01*
X238273Y63772D01*
X238288Y63788D01*
X238365Y63850D01*
X240950Y66435D01*
X241013Y66524D01*
X241079Y66609D01*
X241084Y66622D01*
X241092Y66634D01*
X241123Y66737D01*
X241159Y66840D01*
X241159Y66854D01*
X241163Y66867D01*
X241159Y66975D01*
X241160Y67084D01*
X241155Y67097D01*
X241155Y67111D01*
X241117Y67213D01*
X241082Y67315D01*
X241073Y67330D01*
X241069Y67339D01*
X241055Y67356D01*
X241001Y67438D01*
X238237Y70828D01*
X238794Y71910D01*
X238800Y71930D01*
X238842Y72025D01*
X239213Y73184D01*
X243564Y73627D01*
X243668Y73655D01*
X243774Y73680D01*
X243786Y73687D01*
X243799Y73690D01*
X243889Y73751D01*
X243982Y73808D01*
X243990Y73819D01*
X244002Y73827D01*
X244068Y73913D01*
X244137Y73997D01*
X244141Y74010D01*
X244150Y74021D01*
X244184Y74124D01*
X244223Y74225D01*
X244224Y74243D01*
X244228Y74252D01*
X244228Y74274D01*
X244237Y74372D01*
X244237Y78028D01*
X244220Y78135D01*
X244206Y78243D01*
X244200Y78255D01*
X244198Y78269D01*
X244146Y78365D01*
X244099Y78462D01*
X244089Y78472D01*
X244083Y78484D01*
X244003Y78558D01*
X243927Y78635D01*
X243915Y78641D01*
X243905Y78651D01*
X243806Y78696D01*
X243709Y78744D01*
X243691Y78748D01*
X243682Y78752D01*
X243661Y78754D01*
X243564Y78773D01*
X239213Y79216D01*
X238842Y80375D01*
X238833Y80393D01*
X238831Y80400D01*
X238827Y80407D01*
X238794Y80490D01*
X238237Y81572D01*
X241001Y84962D01*
X241055Y85056D01*
X241112Y85148D01*
X241115Y85161D01*
X241122Y85173D01*
X241143Y85280D01*
X241168Y85385D01*
X241166Y85399D01*
X241169Y85413D01*
X241154Y85520D01*
X241144Y85628D01*
X241138Y85641D01*
X241136Y85655D01*
X241088Y85752D01*
X241043Y85851D01*
X241032Y85864D01*
X241028Y85873D01*
X241012Y85888D01*
X240950Y85965D01*
X238365Y88550D01*
X238276Y88613D01*
X238191Y88679D01*
X238178Y88684D01*
X238166Y88692D01*
X238063Y88723D01*
X237960Y88759D01*
X237946Y88759D01*
X237933Y88763D01*
X237825Y88759D01*
X237716Y88760D01*
X237703Y88755D01*
X237689Y88755D01*
X237587Y88717D01*
X237485Y88682D01*
X237470Y88673D01*
X237461Y88669D01*
X237444Y88655D01*
X237362Y88601D01*
X233972Y85837D01*
X232890Y86394D01*
X232870Y86400D01*
X232775Y86442D01*
X231616Y86813D01*
X231173Y91164D01*
X231145Y91268D01*
X231120Y91374D01*
X231113Y91386D01*
X231110Y91399D01*
X231049Y91489D01*
X230992Y91582D01*
X230981Y91590D01*
X230973Y91602D01*
X230887Y91668D01*
X230803Y91737D01*
X230790Y91741D01*
X230779Y91750D01*
X230676Y91784D01*
X230575Y91823D01*
X230557Y91824D01*
X230548Y91828D01*
X230526Y91828D01*
X230428Y91837D01*
X226772Y91837D01*
X226665Y91820D01*
X226557Y91806D01*
X226545Y91800D01*
X226531Y91798D01*
X226435Y91746D01*
X226338Y91699D01*
X226328Y91689D01*
X226316Y91683D01*
X226242Y91603D01*
X226165Y91527D01*
X226159Y91515D01*
X226149Y91505D01*
X226104Y91406D01*
X226056Y91309D01*
X226052Y91291D01*
X226048Y91282D01*
X226046Y91261D01*
X226027Y91164D01*
X225584Y86813D01*
X224425Y86442D01*
X224407Y86432D01*
X224310Y86394D01*
X223228Y85837D01*
X219838Y88601D01*
X219744Y88655D01*
X219652Y88712D01*
X219639Y88715D01*
X219627Y88722D01*
X219520Y88743D01*
X219415Y88768D01*
X219401Y88766D01*
X219387Y88769D01*
X219280Y88754D01*
X219172Y88744D01*
X219159Y88738D01*
X219146Y88736D01*
X219048Y88688D01*
X218949Y88643D01*
X218936Y88632D01*
X218927Y88628D01*
X218912Y88612D01*
X218835Y88550D01*
X216250Y85965D01*
X216187Y85876D01*
X216121Y85791D01*
X216116Y85778D01*
X216108Y85766D01*
X216077Y85663D01*
X216041Y85560D01*
X216041Y85546D01*
X216037Y85533D01*
X216041Y85425D01*
X216040Y85316D01*
X216045Y85303D01*
X216045Y85289D01*
X216083Y85187D01*
X216118Y85085D01*
X216127Y85070D01*
X216131Y85061D01*
X216145Y85044D01*
X216199Y84962D01*
X218963Y81572D01*
X218406Y80490D01*
X218400Y80470D01*
X218358Y80375D01*
X217987Y79216D01*
X213636Y78773D01*
X213532Y78745D01*
X213426Y78720D01*
X213414Y78713D01*
X213401Y78710D01*
X213311Y78649D01*
X213218Y78592D01*
X213210Y78581D01*
X213198Y78573D01*
X213132Y78487D01*
X213064Y78403D01*
X213059Y78390D01*
X213050Y78379D01*
X213016Y78276D01*
X212977Y78175D01*
X212976Y78157D01*
X212972Y78148D01*
X212973Y78126D01*
X212963Y78028D01*
X212963Y74372D01*
X212980Y74265D01*
X212994Y74157D01*
X213000Y74145D01*
X213002Y74131D01*
X213054Y74035D01*
X213101Y73938D01*
X213111Y73928D01*
X213117Y73916D01*
X213197Y73842D01*
X213273Y73765D01*
X213285Y73759D01*
X213296Y73749D01*
X213394Y73704D01*
X213491Y73656D01*
X213509Y73652D01*
X213518Y73648D01*
X213539Y73646D01*
X213636Y73627D01*
X217987Y73184D01*
X218358Y72025D01*
X218368Y72007D01*
X218406Y71910D01*
X218963Y70828D01*
X216199Y67438D01*
X216145Y67344D01*
X216088Y67252D01*
X216085Y67239D01*
X216078Y67227D01*
X216057Y67120D01*
X216032Y67015D01*
X216034Y67001D01*
X216031Y66987D01*
X216046Y66880D01*
X216056Y66772D01*
X216062Y66759D01*
X216064Y66746D01*
X216112Y66648D01*
X216157Y66549D01*
X216168Y66536D01*
X216172Y66527D01*
X216188Y66512D01*
X216250Y66435D01*
X218835Y63850D01*
X218924Y63787D01*
X219009Y63721D01*
X219022Y63716D01*
X219034Y63708D01*
X219137Y63677D01*
X219240Y63641D01*
X219254Y63641D01*
X219267Y63637D01*
X219375Y63641D01*
X219484Y63640D01*
X219497Y63645D01*
X219511Y63645D01*
X219613Y63683D01*
X219715Y63718D01*
X219730Y63727D01*
X219739Y63731D01*
X219756Y63745D01*
X219838Y63799D01*
X223228Y66563D01*
X224310Y66006D01*
X224363Y65989D01*
X224412Y65963D01*
X224478Y65952D01*
X224542Y65931D01*
X224598Y65932D01*
X224652Y65923D01*
X224719Y65934D01*
X224786Y65935D01*
X224838Y65953D01*
X224893Y65962D01*
X224953Y65994D01*
X225016Y66017D01*
X225059Y66051D01*
X225109Y66077D01*
X225155Y66126D01*
X225207Y66168D01*
X225238Y66215D01*
X225276Y66255D01*
X225332Y66360D01*
X225340Y66373D01*
X225341Y66378D01*
X225345Y66385D01*
X227498Y71582D01*
X227518Y71665D01*
X227523Y71678D01*
X227525Y71694D01*
X227550Y71779D01*
X227549Y71800D01*
X227554Y71820D01*
X227546Y71902D01*
X227547Y71921D01*
X227543Y71941D01*
X227539Y72022D01*
X227532Y72042D01*
X227530Y72063D01*
X227498Y72132D01*
X227492Y72159D01*
X227477Y72183D01*
X227451Y72250D01*
X227438Y72266D01*
X227429Y72285D01*
X227384Y72334D01*
X227364Y72366D01*
X227333Y72391D01*
X227295Y72437D01*
X227272Y72453D01*
X227262Y72463D01*
X227241Y72475D01*
X227176Y72520D01*
X227175Y72521D01*
X227174Y72522D01*
X226275Y73028D01*
X225588Y73672D01*
X225073Y74460D01*
X224761Y75348D01*
X224669Y76285D01*
X224802Y77217D01*
X225153Y78091D01*
X225702Y78856D01*
X226416Y79469D01*
X227256Y79894D01*
X228173Y80108D01*
X229114Y80098D01*
X230026Y79864D01*
X230856Y79421D01*
X231557Y78792D01*
X232089Y78015D01*
X232420Y77134D01*
X232533Y76199D01*
X232425Y75282D01*
X232105Y74414D01*
X231591Y73645D01*
X230912Y73018D01*
X230028Y72523D01*
X229986Y72490D01*
X229944Y72467D01*
X229913Y72434D01*
X229865Y72399D01*
X229853Y72383D01*
X229837Y72370D01*
X229802Y72315D01*
X229777Y72289D01*
X229764Y72259D01*
X229722Y72201D01*
X229716Y72182D01*
X229706Y72165D01*
X229687Y72090D01*
X229677Y72067D01*
X229674Y72043D01*
X229651Y71968D01*
X229652Y71948D01*
X229647Y71928D01*
X229654Y71842D01*
X229653Y71824D01*
X229656Y71808D01*
X229659Y71724D01*
X229667Y71699D01*
X229668Y71685D01*
X229678Y71663D01*
X229702Y71582D01*
X230631Y69339D01*
X230631Y69338D01*
X231562Y67091D01*
X231563Y67091D01*
X231855Y66385D01*
X231884Y66338D01*
X231905Y66286D01*
X231948Y66235D01*
X231984Y66178D01*
X232027Y66143D01*
X232063Y66100D01*
X232120Y66066D01*
X232172Y66023D01*
X232224Y66004D01*
X232272Y65975D01*
X232338Y65961D01*
X232401Y65937D01*
X232456Y65935D01*
X232510Y65924D01*
X232577Y65931D01*
X232644Y65929D01*
X232698Y65945D01*
X232753Y65952D01*
X232864Y65996D01*
X232878Y66000D01*
X232882Y66003D01*
X232890Y66006D01*
X233972Y66563D01*
X237362Y63799D01*
X237456Y63745D01*
X237548Y63688D01*
X237561Y63685D01*
X237573Y63678D01*
X237680Y63657D01*
X237785Y63632D01*
X237799Y63634D01*
X237813Y63631D01*
X237920Y63646D01*
G37*
G36*
X219144Y170954D02*
X219144Y170954D01*
X219147Y170951D01*
X219847Y171051D01*
X219852Y171056D01*
X219856Y171053D01*
X220455Y171253D01*
X221154Y171453D01*
X221158Y171458D01*
X221162Y171456D01*
X222362Y172056D01*
X222365Y172063D01*
X222371Y172062D01*
X223371Y172862D01*
X223372Y172866D01*
X223375Y172865D01*
X223875Y173365D01*
X223876Y173372D01*
X223881Y173373D01*
X224681Y174573D01*
X224681Y174579D01*
X224684Y174582D01*
X224683Y174583D01*
X224687Y174584D01*
X224886Y175181D01*
X225184Y175778D01*
X225182Y175789D01*
X225189Y175793D01*
X225289Y176492D01*
X225389Y177092D01*
X225388Y177093D01*
X225389Y177093D01*
X225489Y177793D01*
X225484Y177802D01*
X225489Y177807D01*
X225389Y178507D01*
X225388Y178508D01*
X225389Y178508D01*
X225289Y179108D01*
X225189Y179807D01*
X225181Y179815D01*
X225184Y179822D01*
X224284Y181622D01*
X224280Y181624D01*
X224281Y181627D01*
X223881Y182227D01*
X223874Y182230D01*
X223875Y182235D01*
X223375Y182735D01*
X223371Y182735D01*
X223371Y182738D01*
X222371Y183538D01*
X222363Y183539D01*
X222362Y183544D01*
X221162Y184144D01*
X221155Y184143D01*
X221154Y184147D01*
X220455Y184347D01*
X219856Y184547D01*
X219849Y184545D01*
X219847Y184549D01*
X219147Y184649D01*
X219142Y184646D01*
X219140Y184649D01*
X189540Y184649D01*
X189493Y184613D01*
X189495Y184610D01*
X189491Y184608D01*
X189391Y184008D01*
X189394Y184003D01*
X189391Y184000D01*
X189391Y171100D01*
X189427Y171053D01*
X189430Y171055D01*
X189432Y171051D01*
X190032Y170951D01*
X190037Y170954D01*
X190040Y170951D01*
X219140Y170951D01*
X219144Y170954D01*
G37*
G36*
X197247Y20517D02*
X197247Y20517D01*
X197245Y20520D01*
X197249Y20522D01*
X197349Y21122D01*
X197346Y21127D01*
X197349Y21130D01*
X197349Y50230D01*
X197346Y50234D01*
X197349Y50237D01*
X197249Y50937D01*
X197244Y50942D01*
X197247Y50946D01*
X197047Y51545D01*
X196847Y52244D01*
X196842Y52248D01*
X196844Y52252D01*
X196244Y53452D01*
X196237Y53455D01*
X196238Y53461D01*
X195438Y54461D01*
X195434Y54462D01*
X195435Y54465D01*
X194935Y54965D01*
X194928Y54966D01*
X194927Y54971D01*
X193727Y55771D01*
X193718Y55770D01*
X193716Y55777D01*
X193119Y55976D01*
X192522Y56274D01*
X192511Y56272D01*
X192507Y56279D01*
X191808Y56379D01*
X191208Y56479D01*
X191207Y56478D01*
X191207Y56479D01*
X190507Y56579D01*
X190498Y56574D01*
X190493Y56579D01*
X189793Y56479D01*
X189792Y56478D01*
X189792Y56479D01*
X189192Y56379D01*
X188493Y56279D01*
X188485Y56271D01*
X188478Y56274D01*
X186678Y55374D01*
X186676Y55370D01*
X186673Y55371D01*
X186073Y54971D01*
X186070Y54964D01*
X186065Y54965D01*
X185565Y54465D01*
X185565Y54461D01*
X185562Y54461D01*
X184762Y53461D01*
X184761Y53453D01*
X184756Y53452D01*
X184156Y52252D01*
X184157Y52245D01*
X184153Y52244D01*
X184129Y52162D01*
X184115Y52113D01*
X184073Y51965D01*
X184031Y51817D01*
X184017Y51768D01*
X183975Y51620D01*
X183953Y51545D01*
X183753Y50946D01*
X183755Y50939D01*
X183751Y50937D01*
X183651Y50237D01*
X183654Y50232D01*
X183651Y50230D01*
X183651Y20630D01*
X183687Y20583D01*
X183690Y20585D01*
X183692Y20581D01*
X184292Y20481D01*
X184297Y20484D01*
X184300Y20481D01*
X197200Y20481D01*
X197247Y20517D01*
G37*
G36*
X169934Y94754D02*
X169934Y94754D01*
X169937Y94751D01*
X171337Y94951D01*
X171342Y94956D01*
X171346Y94953D01*
X171945Y95153D01*
X172644Y95353D01*
X172650Y95362D01*
X172657Y95359D01*
X173256Y95758D01*
X173755Y96058D01*
X173759Y96066D01*
X173765Y96065D01*
X174263Y96563D01*
X174761Y96962D01*
X174763Y96969D01*
X174768Y96968D01*
X175268Y97568D01*
X175268Y97574D01*
X175272Y97575D01*
X175572Y98074D01*
X175971Y98673D01*
X175971Y98677D01*
X175971Y98678D01*
X175970Y98682D01*
X175977Y98684D01*
X176177Y99284D01*
X176176Y99286D01*
X176177Y99286D01*
X176186Y99318D01*
X176228Y99465D01*
X176229Y99465D01*
X176228Y99465D01*
X176271Y99613D01*
X176285Y99662D01*
X176327Y99810D01*
X176369Y99958D01*
X176377Y99986D01*
X176376Y99991D01*
X176379Y99993D01*
X176479Y100692D01*
X176579Y101292D01*
X176576Y101297D01*
X176579Y101300D01*
X176579Y102000D01*
X176576Y102004D01*
X176579Y102007D01*
X176479Y102707D01*
X176478Y102708D01*
X176479Y102708D01*
X176379Y103308D01*
X176375Y103311D01*
X176377Y103314D01*
X176177Y104014D01*
X176172Y104018D01*
X176174Y104022D01*
X175574Y105222D01*
X175570Y105224D01*
X175571Y105227D01*
X175171Y105827D01*
X175164Y105830D01*
X175165Y105835D01*
X174665Y106335D01*
X174661Y106335D01*
X174661Y106338D01*
X174163Y106737D01*
X173665Y107235D01*
X173653Y107236D01*
X173652Y107244D01*
X171852Y108144D01*
X171841Y108142D01*
X171837Y108149D01*
X171138Y108249D01*
X170538Y108349D01*
X170537Y108348D01*
X170537Y108349D01*
X169837Y108449D01*
X169832Y108446D01*
X169830Y108449D01*
X144630Y108449D01*
X144592Y108420D01*
X144584Y108418D01*
X144384Y107918D01*
X144385Y107916D01*
X144383Y107914D01*
X144387Y107908D01*
X144388Y107905D01*
X144381Y107900D01*
X144381Y95100D01*
X144400Y95074D01*
X144400Y95061D01*
X144800Y94761D01*
X144822Y94761D01*
X144830Y94751D01*
X169930Y94751D01*
X169934Y94754D01*
G37*
G36*
X118140Y226791D02*
X118140Y226791D01*
X118191Y226793D01*
X118223Y226811D01*
X118259Y226819D01*
X118298Y226852D01*
X118343Y226876D01*
X118364Y226906D01*
X118392Y226929D01*
X118413Y226976D01*
X118443Y227018D01*
X118451Y227060D01*
X118463Y227088D01*
X118462Y227118D01*
X118470Y227160D01*
X118470Y239960D01*
X118466Y239978D01*
X118468Y240002D01*
X118268Y241802D01*
X118257Y241833D01*
X118251Y241880D01*
X118051Y242480D01*
X118038Y242500D01*
X118030Y242530D01*
X117730Y243130D01*
X117722Y243140D01*
X117716Y243156D01*
X117416Y243656D01*
X117402Y243670D01*
X117393Y243689D01*
X117316Y243759D01*
X117295Y243780D01*
X117290Y243782D01*
X117286Y243786D01*
X116802Y244076D01*
X116418Y244364D01*
X116383Y244379D01*
X116331Y244413D01*
X115331Y244813D01*
X115298Y244818D01*
X115253Y244835D01*
X114653Y244935D01*
X114626Y244933D01*
X114590Y244940D01*
X113790Y244940D01*
X113754Y244932D01*
X113698Y244929D01*
X113343Y244840D01*
X113190Y244840D01*
X113175Y244837D01*
X113160Y244839D01*
X113028Y244802D01*
X113021Y244801D01*
X113021Y244800D01*
X113020Y244800D01*
X112820Y244700D01*
X112801Y244684D01*
X112777Y244675D01*
X112735Y244629D01*
X112687Y244589D01*
X112677Y244567D01*
X112660Y244548D01*
X112642Y244488D01*
X112616Y244431D01*
X112618Y244406D01*
X112610Y244382D01*
X112621Y244320D01*
X112624Y244258D01*
X112636Y244236D01*
X112640Y244211D01*
X112689Y244138D01*
X112707Y244106D01*
X112715Y244101D01*
X112721Y244091D01*
X112821Y243991D01*
X112853Y243971D01*
X112920Y243920D01*
X113320Y243720D01*
X113343Y243714D01*
X113370Y243699D01*
X113585Y243628D01*
X113895Y243318D01*
X114045Y243092D01*
X114110Y242898D01*
X114110Y242722D01*
X114038Y242506D01*
X113878Y242185D01*
X113648Y241956D01*
X113412Y241798D01*
X112981Y241626D01*
X112552Y241540D01*
X111837Y241540D01*
X111146Y241713D01*
X110650Y242044D01*
X110329Y242445D01*
X110170Y242922D01*
X110170Y243482D01*
X110416Y244055D01*
X111076Y244809D01*
X111874Y245707D01*
X111875Y245709D01*
X111876Y245710D01*
X112576Y246510D01*
X112592Y246539D01*
X112622Y246575D01*
X113122Y247475D01*
X113133Y247513D01*
X113161Y247578D01*
X113361Y248478D01*
X113361Y248511D01*
X113370Y248560D01*
X113370Y249360D01*
X113362Y249397D01*
X113351Y249480D01*
X113051Y250380D01*
X113030Y250414D01*
X112999Y250481D01*
X112499Y251181D01*
X112473Y251204D01*
X112443Y251244D01*
X111543Y252044D01*
X111512Y252061D01*
X111472Y252094D01*
X110372Y252694D01*
X110336Y252704D01*
X110258Y252734D01*
X109158Y252934D01*
X109129Y252933D01*
X109090Y252940D01*
X108090Y252940D01*
X108053Y252932D01*
X107970Y252921D01*
X107070Y252621D01*
X107064Y252617D01*
X107057Y252616D01*
X106257Y252316D01*
X106242Y252306D01*
X106220Y252300D01*
X106054Y252217D01*
X105620Y252000D01*
X105598Y251982D01*
X105562Y251964D01*
X105162Y251664D01*
X105147Y251646D01*
X105121Y251629D01*
X105021Y251529D01*
X105008Y251507D01*
X104988Y251491D01*
X104962Y251434D01*
X104930Y251382D01*
X104927Y251356D01*
X104917Y251332D01*
X104919Y251271D01*
X104913Y251209D01*
X104922Y251185D01*
X104923Y251159D01*
X104953Y251105D01*
X104975Y251047D01*
X104994Y251030D01*
X105006Y251007D01*
X105057Y250972D01*
X105102Y250930D01*
X105127Y250922D01*
X105148Y250907D01*
X105232Y250891D01*
X105268Y250880D01*
X105278Y250882D01*
X105290Y250880D01*
X105590Y250880D01*
X105627Y250888D01*
X105710Y250899D01*
X105952Y250980D01*
X106143Y250980D01*
X106498Y250891D01*
X106506Y250891D01*
X106515Y250887D01*
X106966Y250797D01*
X107289Y250635D01*
X107610Y250395D01*
X107745Y250192D01*
X107829Y249940D01*
X107842Y249920D01*
X107850Y249890D01*
X107938Y249714D01*
X107989Y249560D01*
X107929Y249380D01*
X107928Y249367D01*
X107921Y249352D01*
X107837Y249016D01*
X107674Y248771D01*
X107666Y248751D01*
X107650Y248730D01*
X107478Y248385D01*
X107248Y248156D01*
X106979Y247976D01*
X106972Y247969D01*
X106962Y247964D01*
X106570Y247671D01*
X106299Y247490D01*
X105867Y247274D01*
X105600Y247140D01*
X105052Y247140D01*
X104859Y247205D01*
X104710Y247304D01*
X104570Y247722D01*
X104570Y248460D01*
X104558Y248510D01*
X104558Y248531D01*
X104557Y248555D01*
X104556Y248562D01*
X104539Y248594D01*
X104531Y248629D01*
X104498Y248669D01*
X104473Y248714D01*
X104443Y248735D01*
X104421Y248762D01*
X104373Y248784D01*
X104331Y248813D01*
X104295Y248819D01*
X104262Y248833D01*
X104211Y248831D01*
X104160Y248839D01*
X104119Y248828D01*
X104089Y248827D01*
X104062Y248812D01*
X104020Y248800D01*
X104009Y248795D01*
X103249Y248415D01*
X103220Y248400D01*
X103216Y248397D01*
X103106Y248313D01*
X102306Y247413D01*
X102291Y247385D01*
X102262Y247352D01*
X101562Y246152D01*
X101553Y246123D01*
X101532Y246088D01*
X101032Y244688D01*
X101029Y244662D01*
X101016Y244630D01*
X100716Y243030D01*
X100718Y242994D01*
X100710Y242939D01*
X100810Y241139D01*
X100820Y241107D01*
X100824Y241058D01*
X101324Y239258D01*
X101341Y239227D01*
X101358Y239175D01*
X102358Y237375D01*
X102375Y237357D01*
X102390Y237327D01*
X103090Y236427D01*
X103097Y236421D01*
X103101Y236413D01*
X103111Y236407D01*
X103121Y236391D01*
X103921Y235591D01*
X103931Y235585D01*
X103940Y235574D01*
X104740Y234874D01*
X104765Y234860D01*
X104794Y234834D01*
X105794Y234234D01*
X105819Y234226D01*
X105849Y234207D01*
X106849Y233807D01*
X106868Y233804D01*
X106890Y233793D01*
X107990Y233493D01*
X108007Y233493D01*
X108028Y233485D01*
X109228Y233285D01*
X109254Y233287D01*
X109290Y233280D01*
X111159Y233280D01*
X111656Y233197D01*
X112072Y232947D01*
X113022Y232187D01*
X113498Y231617D01*
X113510Y231607D01*
X113521Y231591D01*
X114799Y230313D01*
X115281Y229639D01*
X115301Y229621D01*
X115321Y229591D01*
X115909Y229003D01*
X116398Y228417D01*
X116410Y228407D01*
X116421Y228391D01*
X116902Y227910D01*
X117186Y227532D01*
X117204Y227517D01*
X117221Y227491D01*
X117495Y227218D01*
X117674Y226949D01*
X117693Y226931D01*
X117706Y226907D01*
X117756Y226872D01*
X117800Y226831D01*
X117826Y226823D01*
X117848Y226807D01*
X117929Y226792D01*
X117966Y226781D01*
X117977Y226782D01*
X117990Y226780D01*
X118090Y226780D01*
X118140Y226791D01*
G37*
G36*
X163829Y201291D02*
X163829Y201291D01*
X163891Y201293D01*
X163913Y201306D01*
X163939Y201310D01*
X164010Y201358D01*
X164043Y201376D01*
X164049Y201384D01*
X164059Y201391D01*
X164944Y202276D01*
X166428Y203463D01*
X166439Y203478D01*
X166459Y203491D01*
X167344Y204376D01*
X167828Y204763D01*
X167834Y204771D01*
X167843Y204776D01*
X167887Y204839D01*
X167935Y204899D01*
X167937Y204909D01*
X167943Y204918D01*
X167958Y204999D01*
X167963Y205010D01*
X167963Y205022D01*
X167970Y205060D01*
X167970Y223560D01*
X167969Y223564D01*
X167970Y223569D01*
X167950Y223649D01*
X167931Y223729D01*
X167928Y223732D01*
X167927Y223737D01*
X167873Y223799D01*
X167821Y223862D01*
X167816Y223864D01*
X167814Y223868D01*
X167682Y223929D01*
X167282Y224029D01*
X167274Y224029D01*
X167265Y224033D01*
X166765Y224133D01*
X166733Y224132D01*
X166690Y224140D01*
X166237Y224140D01*
X165882Y224229D01*
X165874Y224229D01*
X165865Y224233D01*
X165373Y224331D01*
X164982Y224429D01*
X164974Y224429D01*
X164965Y224433D01*
X163965Y224633D01*
X163963Y224633D01*
X163962Y224633D01*
X163878Y224630D01*
X163791Y224627D01*
X163790Y224627D01*
X163789Y224627D01*
X163715Y224586D01*
X163639Y224545D01*
X163638Y224544D01*
X163637Y224544D01*
X163589Y224475D01*
X163538Y224404D01*
X163538Y224403D01*
X163537Y224402D01*
X163510Y224260D01*
X163510Y223478D01*
X163359Y223629D01*
X163343Y223639D01*
X163328Y223657D01*
X162828Y224057D01*
X162807Y224067D01*
X162786Y224086D01*
X161786Y224686D01*
X161773Y224690D01*
X161653Y224735D01*
X160453Y224935D01*
X160426Y224933D01*
X160390Y224940D01*
X159690Y224940D01*
X159679Y224938D01*
X159665Y224939D01*
X158165Y224839D01*
X158128Y224828D01*
X158062Y224818D01*
X156662Y224318D01*
X156633Y224299D01*
X156586Y224281D01*
X155486Y223581D01*
X155459Y223553D01*
X155407Y223514D01*
X154507Y222514D01*
X154494Y222491D01*
X154469Y222464D01*
X153769Y221364D01*
X153757Y221328D01*
X153727Y221272D01*
X153327Y219972D01*
X153326Y219957D01*
X153318Y219940D01*
X153018Y218540D01*
X153019Y218516D01*
X153011Y218485D01*
X152911Y216985D01*
X152914Y216963D01*
X152911Y216933D01*
X153011Y215533D01*
X153018Y215509D01*
X153020Y215475D01*
X153320Y214175D01*
X153332Y214150D01*
X153339Y214114D01*
X153839Y212914D01*
X153849Y212899D01*
X153856Y212878D01*
X154456Y211778D01*
X154482Y211749D01*
X154521Y211691D01*
X155421Y210791D01*
X155443Y210778D01*
X155466Y210752D01*
X156566Y209952D01*
X156602Y209937D01*
X156670Y209899D01*
X157870Y209499D01*
X157900Y209496D01*
X157940Y209483D01*
X159440Y209283D01*
X159479Y209287D01*
X159553Y209285D01*
X161353Y209585D01*
X161389Y209600D01*
X161460Y209620D01*
X161590Y209685D01*
X162060Y209920D01*
X162070Y209928D01*
X162086Y209934D01*
X163086Y210534D01*
X163106Y210554D01*
X163187Y210622D01*
X163410Y210901D01*
X163410Y201660D01*
X163416Y201635D01*
X163413Y201609D01*
X163435Y201552D01*
X163449Y201491D01*
X163466Y201471D01*
X163475Y201447D01*
X163520Y201405D01*
X163559Y201358D01*
X163583Y201347D01*
X163602Y201330D01*
X163661Y201312D01*
X163718Y201287D01*
X163743Y201288D01*
X163768Y201280D01*
X163829Y201291D01*
G37*
G36*
X147820Y209287D02*
X147820Y209287D01*
X147865Y209287D01*
X148328Y209380D01*
X148790Y209380D01*
X148826Y209388D01*
X148882Y209391D01*
X149282Y209491D01*
X149302Y209501D01*
X149331Y209507D01*
X149831Y209707D01*
X149843Y209715D01*
X149860Y209720D01*
X150260Y209920D01*
X150276Y209933D01*
X150301Y209944D01*
X150581Y210131D01*
X150960Y210320D01*
X150989Y210344D01*
X151059Y210391D01*
X151359Y210691D01*
X151375Y210718D01*
X151406Y210749D01*
X151601Y211040D01*
X151894Y211432D01*
X151898Y211441D01*
X151906Y211449D01*
X152106Y211749D01*
X152107Y211750D01*
X152108Y211751D01*
X152163Y211885D01*
X152253Y212336D01*
X152430Y212690D01*
X152434Y212705D01*
X152443Y212718D01*
X152469Y212852D01*
X152470Y212859D01*
X152470Y212860D01*
X152470Y213322D01*
X152563Y213785D01*
X152563Y213795D01*
X152564Y213928D01*
X152364Y215028D01*
X152355Y215050D01*
X152351Y215080D01*
X152051Y215980D01*
X152034Y216007D01*
X152020Y216049D01*
X151620Y216749D01*
X151597Y216773D01*
X151537Y216849D01*
X150837Y217449D01*
X150811Y217463D01*
X150779Y217490D01*
X150079Y217890D01*
X150053Y217898D01*
X150024Y217916D01*
X149224Y218216D01*
X149205Y218219D01*
X149182Y218229D01*
X148382Y218429D01*
X148360Y218429D01*
X148332Y218438D01*
X147432Y218538D01*
X145638Y218737D01*
X144969Y218833D01*
X144303Y219023D01*
X143750Y219208D01*
X143350Y219448D01*
X143170Y219687D01*
X143170Y220570D01*
X143403Y221035D01*
X143459Y221091D01*
X143479Y221123D01*
X143530Y221190D01*
X143573Y221277D01*
X143980Y221480D01*
X144090Y221480D01*
X144105Y221483D01*
X144120Y221481D01*
X144252Y221518D01*
X144259Y221519D01*
X144259Y221520D01*
X144260Y221520D01*
X144380Y221580D01*
X146000Y221580D01*
X146865Y221148D01*
X147178Y220835D01*
X147238Y220714D01*
X147329Y220440D01*
X147342Y220420D01*
X147350Y220390D01*
X147410Y220270D01*
X147410Y219860D01*
X147421Y219810D01*
X147423Y219759D01*
X147441Y219727D01*
X147449Y219691D01*
X147482Y219652D01*
X147506Y219607D01*
X147536Y219586D01*
X147559Y219558D01*
X147606Y219537D01*
X147648Y219507D01*
X147690Y219499D01*
X147718Y219487D01*
X147748Y219488D01*
X147790Y219480D01*
X151690Y219480D01*
X151770Y219498D01*
X151850Y219515D01*
X151854Y219518D01*
X151859Y219519D01*
X151922Y219572D01*
X151986Y219622D01*
X151988Y219626D01*
X151992Y219629D01*
X152026Y219704D01*
X152061Y219778D01*
X152061Y219783D01*
X152063Y219788D01*
X152062Y219815D01*
X152065Y219923D01*
X151865Y221123D01*
X151855Y221146D01*
X151855Y221148D01*
X151854Y221168D01*
X151852Y221173D01*
X151851Y221180D01*
X151651Y221780D01*
X151631Y221812D01*
X151594Y221888D01*
X151306Y222272D01*
X151016Y222756D01*
X151004Y222768D01*
X150994Y222788D01*
X150694Y223188D01*
X150669Y223209D01*
X150662Y223222D01*
X150647Y223233D01*
X150618Y223264D01*
X150218Y223564D01*
X150202Y223571D01*
X150186Y223586D01*
X149186Y224186D01*
X149161Y224194D01*
X149131Y224213D01*
X148631Y224413D01*
X148602Y224417D01*
X148565Y224433D01*
X148088Y224528D01*
X147510Y224721D01*
X147485Y224723D01*
X147453Y224735D01*
X146859Y224834D01*
X146365Y224933D01*
X146333Y224932D01*
X146290Y224940D01*
X143990Y224940D01*
X143960Y224933D01*
X143915Y224933D01*
X143452Y224840D01*
X142890Y224840D01*
X142860Y224833D01*
X142815Y224833D01*
X142315Y224733D01*
X142289Y224721D01*
X142249Y224713D01*
X141781Y224526D01*
X141315Y224433D01*
X141289Y224421D01*
X141249Y224413D01*
X140749Y224213D01*
X140718Y224191D01*
X140662Y224164D01*
X139462Y223264D01*
X139437Y223234D01*
X139386Y223188D01*
X139086Y222788D01*
X139074Y222762D01*
X139050Y222730D01*
X138850Y222330D01*
X138847Y222316D01*
X138837Y222301D01*
X138637Y221801D01*
X138633Y221772D01*
X138617Y221735D01*
X138517Y221235D01*
X138518Y221203D01*
X138510Y221160D01*
X138510Y212550D01*
X138450Y212430D01*
X138446Y212415D01*
X138437Y212402D01*
X138411Y212268D01*
X138410Y212262D01*
X138410Y212261D01*
X138410Y212260D01*
X138410Y211450D01*
X138350Y211330D01*
X138346Y211315D01*
X138337Y211302D01*
X138328Y211256D01*
X138327Y211253D01*
X138327Y211251D01*
X138311Y211168D01*
X138310Y211162D01*
X138310Y211161D01*
X138310Y211160D01*
X138310Y211050D01*
X138250Y210930D01*
X138246Y210915D01*
X138237Y210902D01*
X138211Y210768D01*
X138210Y210762D01*
X138210Y210761D01*
X138210Y210760D01*
X138210Y210550D01*
X138178Y210485D01*
X138121Y210429D01*
X138081Y210364D01*
X138037Y210302D01*
X138035Y210290D01*
X138030Y210282D01*
X138026Y210245D01*
X138010Y210160D01*
X138010Y210060D01*
X138021Y210010D01*
X138023Y209959D01*
X138041Y209927D01*
X138049Y209891D01*
X138082Y209852D01*
X138106Y209807D01*
X138136Y209786D01*
X138159Y209758D01*
X138206Y209737D01*
X138248Y209707D01*
X138290Y209699D01*
X138318Y209687D01*
X138348Y209688D01*
X138390Y209680D01*
X142290Y209680D01*
X142340Y209691D01*
X142391Y209693D01*
X142423Y209711D01*
X142459Y209719D01*
X142498Y209752D01*
X142543Y209776D01*
X142564Y209806D01*
X142592Y209829D01*
X142613Y209876D01*
X142643Y209918D01*
X142651Y209960D01*
X142663Y209988D01*
X142663Y209998D01*
X142699Y210056D01*
X142743Y210118D01*
X142745Y210130D01*
X142750Y210138D01*
X142754Y210175D01*
X142756Y210189D01*
X142759Y210191D01*
X142799Y210256D01*
X142843Y210318D01*
X142845Y210330D01*
X142850Y210338D01*
X142854Y210375D01*
X142870Y210460D01*
X142870Y210609D01*
X142883Y210630D01*
X143021Y210491D01*
X143048Y210475D01*
X143079Y210444D01*
X143379Y210244D01*
X143415Y210230D01*
X143470Y210199D01*
X143722Y210115D01*
X143979Y209944D01*
X144015Y209930D01*
X144070Y209899D01*
X145270Y209499D01*
X145307Y209496D01*
X145390Y209480D01*
X145628Y209480D01*
X145870Y209399D01*
X145907Y209396D01*
X145990Y209380D01*
X146328Y209380D01*
X146570Y209299D01*
X146607Y209296D01*
X146690Y209280D01*
X147790Y209280D01*
X147820Y209287D01*
G37*
G36*
X116822Y209687D02*
X116822Y209687D01*
X116856Y209685D01*
X116906Y209707D01*
X116959Y209719D01*
X116984Y209740D01*
X117015Y209753D01*
X117062Y209805D01*
X117092Y209829D01*
X117099Y209845D01*
X117113Y209860D01*
X120769Y215766D01*
X121810Y214795D01*
X121810Y210060D01*
X121821Y210010D01*
X121823Y209959D01*
X121841Y209927D01*
X121849Y209891D01*
X121882Y209852D01*
X121906Y209807D01*
X121936Y209786D01*
X121959Y209758D01*
X122006Y209737D01*
X122048Y209707D01*
X122090Y209699D01*
X122118Y209687D01*
X122148Y209688D01*
X122190Y209680D01*
X126090Y209680D01*
X126140Y209691D01*
X126191Y209693D01*
X126223Y209711D01*
X126259Y209719D01*
X126298Y209752D01*
X126343Y209776D01*
X126364Y209806D01*
X126392Y209829D01*
X126413Y209876D01*
X126443Y209918D01*
X126451Y209960D01*
X126463Y209988D01*
X126462Y210018D01*
X126470Y210060D01*
X126470Y227460D01*
X126460Y227503D01*
X126460Y227548D01*
X126441Y227587D01*
X126431Y227629D01*
X126402Y227663D01*
X126382Y227703D01*
X126343Y227736D01*
X126321Y227762D01*
X126297Y227773D01*
X126270Y227795D01*
X122370Y229895D01*
X122315Y229910D01*
X122262Y229933D01*
X122232Y229932D01*
X122203Y229940D01*
X122147Y229929D01*
X122089Y229927D01*
X122063Y229912D01*
X122033Y229906D01*
X121988Y229871D01*
X121937Y229844D01*
X121920Y229819D01*
X121896Y229801D01*
X121870Y229749D01*
X121837Y229702D01*
X121831Y229668D01*
X121819Y229645D01*
X121820Y229610D01*
X121810Y229560D01*
X121810Y220105D01*
X117564Y224523D01*
X117497Y224567D01*
X117432Y224613D01*
X117424Y224614D01*
X117419Y224618D01*
X117386Y224622D01*
X117290Y224640D01*
X112690Y224640D01*
X112663Y224634D01*
X112636Y224636D01*
X112580Y224614D01*
X112521Y224601D01*
X112500Y224583D01*
X112474Y224573D01*
X112434Y224529D01*
X112388Y224491D01*
X112376Y224465D01*
X112358Y224445D01*
X112341Y224387D01*
X112317Y224332D01*
X112318Y224305D01*
X112310Y224278D01*
X112321Y224219D01*
X112323Y224159D01*
X112337Y224135D01*
X112342Y224108D01*
X112388Y224041D01*
X112406Y224007D01*
X112416Y224000D01*
X112424Y223989D01*
X117501Y219007D01*
X111772Y210268D01*
X111747Y210199D01*
X111717Y210132D01*
X111717Y210119D01*
X111713Y210106D01*
X111721Y210033D01*
X111723Y209959D01*
X111730Y209947D01*
X111731Y209934D01*
X111771Y209872D01*
X111806Y209807D01*
X111817Y209799D01*
X111825Y209788D01*
X111888Y209750D01*
X111948Y209707D01*
X111963Y209704D01*
X111973Y209698D01*
X112012Y209695D01*
X112090Y209680D01*
X116790Y209680D01*
X116822Y209687D01*
G37*
G36*
X77340Y209691D02*
X77340Y209691D01*
X77391Y209693D01*
X77423Y209711D01*
X77459Y209719D01*
X77498Y209752D01*
X77543Y209776D01*
X77564Y209806D01*
X77592Y209829D01*
X77613Y209876D01*
X77643Y209918D01*
X77651Y209960D01*
X77663Y209988D01*
X77662Y210018D01*
X77670Y210060D01*
X77670Y218036D01*
X77767Y218809D01*
X77866Y219503D01*
X77953Y220026D01*
X78206Y220448D01*
X78450Y220772D01*
X78829Y221000D01*
X79259Y221086D01*
X79798Y221176D01*
X80535Y221084D01*
X81056Y220997D01*
X81436Y220769D01*
X81777Y220342D01*
X82051Y219887D01*
X82318Y219262D01*
X82410Y218439D01*
X82410Y210060D01*
X82421Y210010D01*
X82423Y209959D01*
X82441Y209927D01*
X82449Y209891D01*
X82482Y209852D01*
X82506Y209807D01*
X82536Y209786D01*
X82559Y209758D01*
X82606Y209737D01*
X82648Y209707D01*
X82690Y209699D01*
X82718Y209687D01*
X82748Y209688D01*
X82790Y209680D01*
X86690Y209680D01*
X86740Y209691D01*
X86791Y209693D01*
X86823Y209711D01*
X86859Y209719D01*
X86898Y209752D01*
X86943Y209776D01*
X86964Y209806D01*
X86992Y209829D01*
X87013Y209876D01*
X87043Y209918D01*
X87051Y209960D01*
X87063Y209988D01*
X87062Y210018D01*
X87070Y210060D01*
X87070Y224260D01*
X87059Y224310D01*
X87057Y224361D01*
X87039Y224393D01*
X87031Y224429D01*
X86998Y224468D01*
X86974Y224513D01*
X86944Y224534D01*
X86921Y224562D01*
X86874Y224583D01*
X86832Y224613D01*
X86790Y224621D01*
X86762Y224633D01*
X86732Y224632D01*
X86690Y224640D01*
X82990Y224640D01*
X82940Y224629D01*
X82889Y224627D01*
X82857Y224609D01*
X82821Y224601D01*
X82782Y224568D01*
X82737Y224544D01*
X82716Y224514D01*
X82688Y224491D01*
X82667Y224444D01*
X82637Y224402D01*
X82629Y224360D01*
X82617Y224332D01*
X82618Y224302D01*
X82610Y224260D01*
X82610Y223278D01*
X82359Y223529D01*
X82343Y223539D01*
X82328Y223557D01*
X81828Y223957D01*
X81814Y223963D01*
X81801Y223976D01*
X81201Y224376D01*
X81165Y224390D01*
X81110Y224421D01*
X79910Y224821D01*
X79885Y224823D01*
X79853Y224835D01*
X79253Y224935D01*
X79226Y224933D01*
X79190Y224940D01*
X78590Y224940D01*
X78578Y224937D01*
X78563Y224939D01*
X77163Y224839D01*
X77133Y224830D01*
X77090Y224827D01*
X75990Y224527D01*
X75958Y224510D01*
X75905Y224492D01*
X75005Y223992D01*
X74977Y223966D01*
X74921Y223929D01*
X74221Y223229D01*
X74203Y223199D01*
X74168Y223162D01*
X73668Y222362D01*
X73655Y222325D01*
X73626Y222269D01*
X73326Y221269D01*
X73325Y221250D01*
X73316Y221228D01*
X73116Y220128D01*
X73117Y220111D01*
X73111Y220089D01*
X73011Y218789D01*
X73013Y218776D01*
X73010Y218760D01*
X73010Y210060D01*
X73021Y210010D01*
X73023Y209959D01*
X73041Y209927D01*
X73049Y209891D01*
X73082Y209852D01*
X73106Y209807D01*
X73136Y209786D01*
X73159Y209758D01*
X73206Y209737D01*
X73248Y209707D01*
X73290Y209699D01*
X73318Y209687D01*
X73348Y209688D01*
X73390Y209680D01*
X77290Y209680D01*
X77340Y209691D01*
G37*
G36*
X98317Y209381D02*
X98317Y209381D01*
X98354Y209392D01*
X98420Y209403D01*
X99520Y209803D01*
X99542Y209817D01*
X99575Y209828D01*
X100475Y210328D01*
X100498Y210349D01*
X100537Y210371D01*
X101237Y210971D01*
X101254Y210994D01*
X101322Y211075D01*
X101822Y211975D01*
X101832Y212008D01*
X101854Y212051D01*
X102154Y213051D01*
X102155Y213070D01*
X102164Y213092D01*
X102364Y214192D01*
X102363Y214221D01*
X102370Y214260D01*
X102370Y224260D01*
X102359Y224310D01*
X102357Y224361D01*
X102339Y224393D01*
X102331Y224429D01*
X102298Y224468D01*
X102274Y224513D01*
X102244Y224534D01*
X102221Y224562D01*
X102174Y224583D01*
X102132Y224613D01*
X102090Y224621D01*
X102062Y224633D01*
X102032Y224632D01*
X101990Y224640D01*
X98190Y224640D01*
X98140Y224629D01*
X98089Y224627D01*
X98057Y224609D01*
X98021Y224601D01*
X97982Y224568D01*
X97937Y224544D01*
X97916Y224514D01*
X97888Y224491D01*
X97867Y224444D01*
X97837Y224402D01*
X97829Y224360D01*
X97817Y224332D01*
X97818Y224302D01*
X97810Y224260D01*
X97810Y216284D01*
X97614Y214715D01*
X97530Y214214D01*
X97031Y213548D01*
X96651Y213320D01*
X96221Y213234D01*
X95682Y213144D01*
X94945Y213236D01*
X94424Y213323D01*
X94026Y213562D01*
X93703Y213885D01*
X93435Y214420D01*
X93161Y215060D01*
X93070Y215784D01*
X93070Y224260D01*
X93059Y224310D01*
X93057Y224361D01*
X93039Y224393D01*
X93031Y224429D01*
X92998Y224468D01*
X92974Y224513D01*
X92944Y224534D01*
X92921Y224562D01*
X92874Y224583D01*
X92832Y224613D01*
X92790Y224621D01*
X92762Y224633D01*
X92732Y224632D01*
X92690Y224640D01*
X88790Y224640D01*
X88740Y224629D01*
X88689Y224627D01*
X88657Y224609D01*
X88621Y224601D01*
X88582Y224568D01*
X88537Y224544D01*
X88516Y224514D01*
X88488Y224491D01*
X88467Y224444D01*
X88437Y224402D01*
X88429Y224360D01*
X88417Y224332D01*
X88418Y224302D01*
X88410Y224260D01*
X88410Y210060D01*
X88421Y210010D01*
X88423Y209959D01*
X88441Y209927D01*
X88449Y209891D01*
X88482Y209852D01*
X88506Y209807D01*
X88536Y209786D01*
X88559Y209758D01*
X88606Y209737D01*
X88648Y209707D01*
X88690Y209699D01*
X88718Y209687D01*
X88748Y209688D01*
X88790Y209680D01*
X92490Y209680D01*
X92540Y209691D01*
X92591Y209693D01*
X92623Y209711D01*
X92659Y209719D01*
X92698Y209752D01*
X92743Y209776D01*
X92764Y209806D01*
X92792Y209829D01*
X92813Y209876D01*
X92843Y209918D01*
X92851Y209960D01*
X92863Y209988D01*
X92862Y210018D01*
X92870Y210060D01*
X92870Y211001D01*
X93093Y210722D01*
X93120Y210701D01*
X93152Y210663D01*
X93652Y210263D01*
X93682Y210249D01*
X93720Y210220D01*
X94320Y209920D01*
X94334Y209917D01*
X94349Y209907D01*
X94849Y209707D01*
X94859Y209705D01*
X94870Y209699D01*
X95470Y209499D01*
X95499Y209497D01*
X95536Y209484D01*
X96233Y209384D01*
X96828Y209285D01*
X96863Y209287D01*
X96917Y209281D01*
X98317Y209381D01*
G37*
G36*
X176922Y209381D02*
X176922Y209381D01*
X176935Y209385D01*
X176953Y209385D01*
X178153Y209585D01*
X178168Y209592D01*
X178190Y209593D01*
X179290Y209893D01*
X179318Y209908D01*
X179360Y209920D01*
X179680Y210080D01*
X180360Y210420D01*
X180389Y210444D01*
X180440Y210474D01*
X181240Y211174D01*
X181258Y211199D01*
X181290Y211227D01*
X181990Y212127D01*
X182006Y212162D01*
X182043Y212219D01*
X182443Y213219D01*
X182448Y213253D01*
X182466Y213302D01*
X182666Y214602D01*
X182660Y214682D01*
X182657Y214761D01*
X182653Y214767D01*
X182652Y214775D01*
X182612Y214843D01*
X182574Y214913D01*
X182568Y214917D01*
X182564Y214924D01*
X182497Y214967D01*
X182432Y215013D01*
X182424Y215014D01*
X182418Y215018D01*
X182385Y215022D01*
X182290Y215040D01*
X178590Y215040D01*
X178540Y215029D01*
X178489Y215027D01*
X178457Y215009D01*
X178421Y215001D01*
X178382Y214968D01*
X178337Y214944D01*
X178316Y214914D01*
X178288Y214891D01*
X178267Y214844D01*
X178237Y214802D01*
X178229Y214760D01*
X178217Y214732D01*
X178218Y214702D01*
X178210Y214660D01*
X178210Y214133D01*
X178056Y213748D01*
X177818Y213432D01*
X177136Y212920D01*
X176628Y212835D01*
X176622Y212833D01*
X176615Y212833D01*
X176121Y212734D01*
X175606Y212648D01*
X175282Y212729D01*
X175246Y212729D01*
X175190Y212740D01*
X174837Y212740D01*
X174523Y212819D01*
X174191Y212985D01*
X173840Y213248D01*
X173633Y213454D01*
X173482Y214060D01*
X173549Y214327D01*
X173690Y214610D01*
X174002Y214844D01*
X174450Y215112D01*
X174996Y215295D01*
X176573Y215689D01*
X177565Y215887D01*
X177568Y215889D01*
X177573Y215889D01*
X178473Y216089D01*
X178493Y216099D01*
X178524Y216104D01*
X179324Y216404D01*
X179330Y216408D01*
X179340Y216411D01*
X180040Y216711D01*
X180055Y216722D01*
X180079Y216730D01*
X180779Y217130D01*
X180787Y217138D01*
X180801Y217144D01*
X181401Y217544D01*
X181402Y217545D01*
X181405Y217546D01*
X181506Y217649D01*
X181906Y218249D01*
X181917Y218277D01*
X181940Y218310D01*
X182240Y219010D01*
X182246Y219049D01*
X182252Y219067D01*
X182264Y219094D01*
X182264Y219104D01*
X182268Y219118D01*
X182368Y220018D01*
X182364Y220049D01*
X182369Y220092D01*
X182269Y221292D01*
X182257Y221329D01*
X182243Y221401D01*
X181843Y222401D01*
X181823Y222430D01*
X181776Y222510D01*
X181076Y223310D01*
X181057Y223324D01*
X181037Y223349D01*
X180337Y223949D01*
X180305Y223966D01*
X180260Y224000D01*
X179260Y224500D01*
X179223Y224509D01*
X179165Y224533D01*
X178165Y224733D01*
X178162Y224733D01*
X178158Y224734D01*
X177058Y224934D01*
X177029Y224933D01*
X176990Y224940D01*
X174690Y224940D01*
X174662Y224934D01*
X174622Y224934D01*
X173522Y224734D01*
X173505Y224727D01*
X173481Y224724D01*
X172481Y224424D01*
X172462Y224414D01*
X172436Y224407D01*
X171536Y224007D01*
X171508Y223987D01*
X171462Y223964D01*
X170662Y223364D01*
X170637Y223334D01*
X170586Y223288D01*
X169986Y222488D01*
X169974Y222462D01*
X169950Y222430D01*
X169450Y221430D01*
X169441Y221392D01*
X169415Y221323D01*
X169215Y220123D01*
X169220Y220041D01*
X169223Y219959D01*
X169226Y219955D01*
X169226Y219950D01*
X169267Y219879D01*
X169306Y219807D01*
X169310Y219804D01*
X169313Y219800D01*
X169381Y219754D01*
X169448Y219707D01*
X169453Y219706D01*
X169457Y219704D01*
X169485Y219700D01*
X169590Y219680D01*
X173290Y219680D01*
X173303Y219683D01*
X173317Y219681D01*
X173387Y219702D01*
X173459Y219719D01*
X173469Y219728D01*
X173482Y219732D01*
X173536Y219783D01*
X173592Y219829D01*
X173598Y219842D01*
X173608Y219851D01*
X173663Y219985D01*
X173756Y220451D01*
X173928Y220882D01*
X174064Y221086D01*
X174281Y221231D01*
X174646Y221413D01*
X175063Y221580D01*
X176628Y221580D01*
X176870Y221499D01*
X176883Y221498D01*
X176898Y221491D01*
X177284Y221395D01*
X177446Y221341D01*
X177710Y220945D01*
X177710Y220707D01*
X177640Y220427D01*
X177418Y220132D01*
X177089Y219885D01*
X176544Y219612D01*
X176005Y219433D01*
X175243Y219337D01*
X175224Y219330D01*
X175198Y219329D01*
X172802Y218730D01*
X171908Y218531D01*
X171872Y218514D01*
X171801Y218490D01*
X170401Y217690D01*
X170381Y217671D01*
X170347Y217652D01*
X169747Y217152D01*
X169723Y217121D01*
X169718Y217116D01*
X169717Y217115D01*
X169674Y217071D01*
X169274Y216471D01*
X169263Y216443D01*
X169241Y216410D01*
X168941Y215710D01*
X168934Y215671D01*
X168912Y215602D01*
X168812Y214702D01*
X168817Y214664D01*
X168814Y214602D01*
X169014Y213302D01*
X169026Y213273D01*
X169033Y213230D01*
X169433Y212130D01*
X169454Y212097D01*
X169486Y212032D01*
X170086Y211232D01*
X170111Y211211D01*
X170140Y211174D01*
X170940Y210474D01*
X170973Y210456D01*
X171020Y210420D01*
X172020Y209920D01*
X172050Y209913D01*
X172090Y209893D01*
X173190Y209593D01*
X173207Y209593D01*
X173228Y209585D01*
X174428Y209385D01*
X174442Y209386D01*
X174458Y209381D01*
X175658Y209281D01*
X175685Y209285D01*
X175722Y209281D01*
X176922Y209381D01*
G37*
G36*
X109740Y209691D02*
X109740Y209691D01*
X109791Y209693D01*
X109823Y209711D01*
X109859Y209719D01*
X109898Y209752D01*
X109943Y209776D01*
X109964Y209806D01*
X109992Y209829D01*
X110013Y209876D01*
X110043Y209918D01*
X110051Y209960D01*
X110063Y209988D01*
X110062Y210018D01*
X110070Y210060D01*
X110070Y221280D01*
X113590Y221280D01*
X113641Y221292D01*
X113694Y221294D01*
X113724Y221311D01*
X113759Y221319D01*
X113799Y221353D01*
X113845Y221378D01*
X113865Y221407D01*
X113892Y221429D01*
X113914Y221477D01*
X113944Y221521D01*
X113949Y221555D01*
X113963Y221588D01*
X113961Y221640D01*
X113969Y221692D01*
X113958Y221725D01*
X113957Y221761D01*
X113932Y221807D01*
X113915Y221857D01*
X113888Y221887D01*
X113874Y221913D01*
X113848Y221931D01*
X113818Y221964D01*
X113440Y222248D01*
X111859Y223829D01*
X111839Y223841D01*
X111818Y223864D01*
X111462Y224132D01*
X111194Y224488D01*
X111182Y224499D01*
X111174Y224513D01*
X111116Y224554D01*
X111061Y224599D01*
X111046Y224603D01*
X111032Y224613D01*
X110905Y224637D01*
X110893Y224640D01*
X110892Y224640D01*
X110890Y224640D01*
X110070Y224640D01*
X110070Y226260D01*
X110064Y226286D01*
X110046Y226394D01*
X109746Y227194D01*
X109742Y227200D01*
X109740Y227210D01*
X109440Y227910D01*
X109416Y227941D01*
X109382Y228003D01*
X108882Y228603D01*
X108852Y228626D01*
X108811Y228669D01*
X108111Y229169D01*
X108087Y229179D01*
X108060Y229200D01*
X107260Y229600D01*
X107233Y229607D01*
X107199Y229624D01*
X106199Y229924D01*
X106160Y229927D01*
X106090Y229940D01*
X103190Y229940D01*
X103175Y229937D01*
X103160Y229939D01*
X103028Y229902D01*
X103021Y229901D01*
X103021Y229900D01*
X103020Y229900D01*
X102820Y229800D01*
X102781Y229768D01*
X102737Y229744D01*
X102716Y229713D01*
X102687Y229689D01*
X102666Y229643D01*
X102637Y229602D01*
X102629Y229559D01*
X102616Y229531D01*
X102617Y229515D01*
X102618Y229501D01*
X102610Y229460D01*
X102610Y226660D01*
X102621Y226610D01*
X102623Y226559D01*
X102641Y226527D01*
X102649Y226491D01*
X102682Y226452D01*
X102706Y226407D01*
X102736Y226386D01*
X102759Y226358D01*
X102806Y226337D01*
X102848Y226307D01*
X102890Y226299D01*
X102918Y226287D01*
X102948Y226288D01*
X102990Y226280D01*
X104643Y226280D01*
X104957Y226201D01*
X105230Y226065D01*
X105361Y225869D01*
X105410Y225770D01*
X105410Y225460D01*
X105418Y225424D01*
X105421Y225368D01*
X105510Y225013D01*
X105510Y224640D01*
X103190Y224640D01*
X103140Y224629D01*
X103089Y224627D01*
X103057Y224609D01*
X103021Y224601D01*
X102982Y224568D01*
X102937Y224544D01*
X102916Y224514D01*
X102888Y224491D01*
X102867Y224444D01*
X102837Y224402D01*
X102829Y224360D01*
X102817Y224332D01*
X102818Y224302D01*
X102810Y224260D01*
X102810Y221660D01*
X102821Y221610D01*
X102823Y221559D01*
X102841Y221527D01*
X102849Y221491D01*
X102882Y221452D01*
X102906Y221407D01*
X102936Y221386D01*
X102959Y221358D01*
X103006Y221337D01*
X103048Y221307D01*
X103090Y221299D01*
X103118Y221287D01*
X103148Y221288D01*
X103190Y221280D01*
X105510Y221280D01*
X105510Y210060D01*
X105521Y210010D01*
X105523Y209959D01*
X105541Y209927D01*
X105549Y209891D01*
X105582Y209852D01*
X105606Y209807D01*
X105636Y209786D01*
X105659Y209758D01*
X105706Y209737D01*
X105748Y209707D01*
X105790Y209699D01*
X105818Y209687D01*
X105848Y209688D01*
X105890Y209680D01*
X109690Y209680D01*
X109740Y209691D01*
G37*
G36*
X136740Y209691D02*
X136740Y209691D01*
X136791Y209693D01*
X136823Y209711D01*
X136859Y209719D01*
X136898Y209752D01*
X136943Y209776D01*
X136964Y209806D01*
X136992Y209829D01*
X137013Y209876D01*
X137043Y209918D01*
X137051Y209960D01*
X137063Y209988D01*
X137062Y210018D01*
X137070Y210060D01*
X137070Y223560D01*
X137067Y223573D01*
X137069Y223587D01*
X137048Y223657D01*
X137031Y223729D01*
X137022Y223739D01*
X137018Y223752D01*
X136967Y223806D01*
X136921Y223862D01*
X136908Y223868D01*
X136899Y223878D01*
X136765Y223933D01*
X136273Y224031D01*
X135882Y224129D01*
X135846Y224129D01*
X135790Y224140D01*
X135328Y224140D01*
X134873Y224231D01*
X134482Y224329D01*
X134474Y224329D01*
X134465Y224333D01*
X133473Y224531D01*
X133082Y224629D01*
X133072Y224629D01*
X133062Y224633D01*
X132986Y224630D01*
X132909Y224632D01*
X132900Y224627D01*
X132889Y224627D01*
X132822Y224590D01*
X132753Y224557D01*
X132746Y224549D01*
X132737Y224544D01*
X132693Y224481D01*
X132645Y224421D01*
X132643Y224411D01*
X132637Y224402D01*
X132610Y224260D01*
X132610Y222844D01*
X132487Y222998D01*
X132484Y223000D01*
X132482Y223003D01*
X131982Y223603D01*
X131967Y223615D01*
X131963Y223622D01*
X131949Y223631D01*
X131928Y223657D01*
X131428Y224057D01*
X131404Y224068D01*
X131379Y224090D01*
X130679Y224490D01*
X130649Y224499D01*
X130610Y224521D01*
X130010Y224721D01*
X130003Y224721D01*
X129994Y224726D01*
X129294Y224926D01*
X129256Y224928D01*
X129190Y224940D01*
X127790Y224940D01*
X127716Y224923D01*
X127641Y224910D01*
X127631Y224903D01*
X127621Y224901D01*
X127592Y224877D01*
X127521Y224829D01*
X127520Y224828D01*
X127489Y224827D01*
X127457Y224809D01*
X127421Y224801D01*
X127382Y224768D01*
X127337Y224744D01*
X127316Y224714D01*
X127288Y224691D01*
X127267Y224644D01*
X127237Y224602D01*
X127229Y224560D01*
X127217Y224532D01*
X127218Y224502D01*
X127210Y224460D01*
X127210Y220860D01*
X127221Y220810D01*
X127223Y220759D01*
X127241Y220727D01*
X127249Y220691D01*
X127282Y220652D01*
X127306Y220607D01*
X127336Y220586D01*
X127359Y220558D01*
X127406Y220537D01*
X127448Y220507D01*
X127490Y220499D01*
X127518Y220487D01*
X127548Y220488D01*
X127590Y220480D01*
X127690Y220480D01*
X127705Y220483D01*
X127720Y220481D01*
X127852Y220518D01*
X127859Y220519D01*
X127859Y220520D01*
X127860Y220520D01*
X127980Y220580D01*
X128971Y220580D01*
X129925Y220484D01*
X130647Y220304D01*
X131242Y219964D01*
X131676Y219442D01*
X132037Y218811D01*
X132221Y218166D01*
X132410Y217318D01*
X132410Y210060D01*
X132421Y210010D01*
X132423Y209959D01*
X132441Y209927D01*
X132449Y209891D01*
X132482Y209852D01*
X132506Y209807D01*
X132536Y209786D01*
X132559Y209758D01*
X132606Y209737D01*
X132648Y209707D01*
X132690Y209699D01*
X132718Y209687D01*
X132748Y209688D01*
X132790Y209680D01*
X136690Y209680D01*
X136740Y209691D01*
G37*
%LPC*%
G36*
X46113Y173149D02*
X46113Y173149D01*
X45421Y173248D01*
X44829Y173446D01*
X44233Y173743D01*
X43739Y174040D01*
X43147Y174533D01*
X42751Y175127D01*
X42748Y175128D01*
X42748Y175131D01*
X42354Y175624D01*
X42157Y176215D01*
X41958Y176911D01*
X41859Y177504D01*
X41859Y178197D01*
X41958Y178890D01*
X41966Y178916D01*
X42008Y179064D01*
X42050Y179211D01*
X42064Y179261D01*
X42106Y179408D01*
X42107Y179408D01*
X42106Y179408D01*
X42149Y179556D01*
X42156Y179582D01*
X42453Y180177D01*
X42749Y180670D01*
X43739Y181659D01*
X44929Y182254D01*
X45521Y182452D01*
X46213Y182551D01*
X49494Y182551D01*
X49868Y182270D01*
X50061Y181692D01*
X50061Y174203D01*
X49964Y173527D01*
X49591Y173247D01*
X48807Y173149D01*
X46113Y173149D01*
G37*
%LPD*%
%LPC*%
G36*
X164308Y77359D02*
X164308Y77359D01*
X163116Y77757D01*
X163059Y77738D01*
X163060Y77734D01*
X163057Y77733D01*
X163041Y77704D01*
X163033Y77746D01*
X163026Y77745D01*
X163025Y77752D01*
X162526Y78052D01*
X161931Y78448D01*
X161438Y78941D01*
X161043Y79535D01*
X160746Y80129D01*
X160547Y80725D01*
X160349Y81417D01*
X160349Y84507D01*
X160445Y85180D01*
X160914Y85461D01*
X168297Y85561D01*
X169088Y85462D01*
X169562Y85272D01*
X169751Y84801D01*
X169751Y81317D01*
X169728Y81237D01*
X169714Y81187D01*
X169672Y81040D01*
X169629Y80892D01*
X169615Y80843D01*
X169573Y80695D01*
X169553Y80625D01*
X169354Y80029D01*
X169059Y79439D01*
X168067Y78447D01*
X167573Y78052D01*
X166981Y77756D01*
X166385Y77557D01*
X165693Y77359D01*
X164308Y77359D01*
G37*
%LPD*%
%LPC*%
G36*
X62407Y25419D02*
X62407Y25419D01*
X61718Y25616D01*
X61127Y25912D01*
X60631Y26308D01*
X60135Y26705D01*
X59640Y27299D01*
X59343Y27793D01*
X59046Y28388D01*
X58848Y29081D01*
X58749Y29674D01*
X58749Y32956D01*
X59031Y33425D01*
X59604Y33521D01*
X67097Y33521D01*
X67773Y33424D01*
X68053Y33051D01*
X68151Y32367D01*
X68151Y29673D01*
X68052Y28981D01*
X67854Y28389D01*
X67557Y27795D01*
X67160Y27199D01*
X66765Y26705D01*
X66171Y26210D01*
X65677Y25913D01*
X65082Y25616D01*
X64393Y25419D01*
X62407Y25419D01*
G37*
%LPD*%
%LPC*%
G36*
X113503Y37119D02*
X113503Y37119D01*
X112815Y37218D01*
X112222Y37514D01*
X111627Y37812D01*
X111133Y38207D01*
X110638Y38701D01*
X110243Y39295D01*
X109946Y39889D01*
X109549Y41078D01*
X109549Y44263D01*
X109572Y44344D01*
X109573Y44344D01*
X109572Y44344D01*
X109615Y44492D01*
X109629Y44541D01*
X109671Y44689D01*
X109713Y44837D01*
X109727Y44886D01*
X109743Y44941D01*
X110116Y45221D01*
X118291Y45221D01*
X118761Y45033D01*
X118951Y44462D01*
X118951Y40978D01*
X118753Y40386D01*
X118555Y39792D01*
X118159Y39197D01*
X117763Y38604D01*
X117269Y38208D01*
X116773Y37812D01*
X116179Y37515D01*
X115486Y37218D01*
X114896Y37119D01*
X113503Y37119D01*
G37*
%LPD*%
%LPC*%
G36*
X166703Y42959D02*
X166703Y42959D01*
X166011Y43058D01*
X165422Y43255D01*
X164827Y43651D01*
X164789Y43649D01*
X164778Y43654D01*
X164382Y43456D01*
X163693Y43259D01*
X162412Y43259D01*
X161825Y43553D01*
X161234Y43947D01*
X160842Y44437D01*
X160546Y45029D01*
X160349Y45618D01*
X160349Y49796D01*
X160631Y50265D01*
X161204Y50361D01*
X168697Y50361D01*
X169373Y50264D01*
X169653Y49891D01*
X169751Y49107D01*
X169751Y45714D01*
X169652Y45122D01*
X169455Y44532D01*
X169062Y43941D01*
X168571Y43451D01*
X167981Y43156D01*
X167392Y42959D01*
X166703Y42959D01*
G37*
%LPD*%
G36*
X212659Y147658D02*
X212659Y147658D01*
X212666Y147653D01*
X213266Y147853D01*
X213283Y147878D01*
X213296Y147882D01*
X213496Y148382D01*
X213493Y148390D01*
X213499Y148393D01*
X213599Y149093D01*
X213596Y149098D01*
X213599Y149100D01*
X213599Y153043D01*
X215110Y150872D01*
X215111Y150871D01*
X215111Y150870D01*
X215411Y150470D01*
X215422Y150467D01*
X215423Y150459D01*
X216023Y150059D01*
X216048Y150061D01*
X216057Y150051D01*
X216757Y150151D01*
X216770Y150164D01*
X216781Y150162D01*
X217281Y150562D01*
X217283Y150570D01*
X217289Y150570D01*
X219082Y152961D01*
X219201Y153020D01*
X219201Y148300D01*
X219209Y148289D01*
X219204Y148282D01*
X219404Y147782D01*
X219437Y147762D01*
X219443Y147751D01*
X220143Y147651D01*
X220148Y147654D01*
X220150Y147651D01*
X220950Y147651D01*
X220975Y147670D01*
X220988Y147669D01*
X221388Y148169D01*
X221389Y148177D01*
X221391Y148179D01*
X221389Y148183D01*
X221389Y148187D01*
X221399Y148192D01*
X221499Y148792D01*
X221496Y148797D01*
X221499Y148800D01*
X221499Y156300D01*
X221492Y156309D01*
X221497Y156316D01*
X221297Y156916D01*
X221277Y156929D01*
X221275Y156942D01*
X220775Y157242D01*
X220757Y157240D01*
X220750Y157249D01*
X219950Y157249D01*
X219937Y157240D01*
X219928Y157244D01*
X219328Y156944D01*
X219321Y156931D01*
X219312Y156931D01*
X218912Y156431D01*
X218912Y156430D01*
X218911Y156430D01*
X216532Y153258D01*
X215980Y153442D01*
X214489Y155430D01*
X213289Y157030D01*
X213269Y157035D01*
X213266Y157047D01*
X212666Y157247D01*
X212651Y157242D01*
X212645Y157249D01*
X211745Y157149D01*
X211731Y157136D01*
X211720Y157139D01*
X211320Y156839D01*
X211313Y156814D01*
X211301Y156808D01*
X211201Y156208D01*
X211204Y156203D01*
X211201Y156200D01*
X211201Y148700D01*
X211204Y148696D01*
X211201Y148693D01*
X211301Y147993D01*
X211323Y147971D01*
X211325Y147958D01*
X211825Y147658D01*
X211843Y147660D01*
X211850Y147651D01*
X212650Y147651D01*
X212659Y147658D01*
G37*
G36*
X110171Y147667D02*
X110171Y147667D01*
X110185Y147665D01*
X110585Y148065D01*
X110586Y148077D01*
X110591Y148081D01*
X110588Y148086D01*
X110599Y148092D01*
X110699Y148692D01*
X110696Y148697D01*
X110699Y148700D01*
X110699Y156200D01*
X110693Y156208D01*
X110697Y156214D01*
X110497Y156914D01*
X110477Y156929D01*
X110475Y156942D01*
X109975Y157242D01*
X109957Y157240D01*
X109950Y157249D01*
X103850Y157249D01*
X103835Y157238D01*
X103825Y157242D01*
X103325Y156942D01*
X103315Y156918D01*
X103303Y156914D01*
X103291Y156874D01*
X103277Y156825D01*
X103235Y156677D01*
X103193Y156529D01*
X103179Y156480D01*
X103137Y156332D01*
X103103Y156214D01*
X103108Y156201D01*
X103101Y156195D01*
X103201Y155295D01*
X103220Y155274D01*
X103220Y155261D01*
X103620Y154961D01*
X103638Y154961D01*
X103643Y154951D01*
X104343Y154851D01*
X104348Y154854D01*
X104350Y154851D01*
X107746Y154851D01*
X108301Y154758D01*
X108301Y154105D01*
X108210Y153649D01*
X105450Y153649D01*
X105439Y153641D01*
X105432Y153646D01*
X104932Y153446D01*
X104920Y153427D01*
X104908Y153425D01*
X104608Y152925D01*
X104610Y152907D01*
X104601Y152900D01*
X104601Y152000D01*
X104612Y151985D01*
X104608Y151975D01*
X104908Y151475D01*
X104928Y151466D01*
X104932Y151454D01*
X105432Y151254D01*
X105441Y151257D01*
X105444Y151251D01*
X106244Y151151D01*
X106248Y151153D01*
X106250Y151151D01*
X108208Y151151D01*
X108301Y150596D01*
X108301Y150049D01*
X104250Y150049D01*
X104246Y150046D01*
X104243Y150049D01*
X103543Y149949D01*
X103521Y149927D01*
X103508Y149925D01*
X103208Y149425D01*
X103209Y149411D01*
X103201Y149406D01*
X103101Y148606D01*
X103108Y148594D01*
X103103Y148586D01*
X103303Y147886D01*
X103328Y147867D01*
X103332Y147854D01*
X103832Y147654D01*
X103845Y147658D01*
X103850Y147651D01*
X110150Y147651D01*
X110171Y147667D01*
G37*
G36*
X193959Y147658D02*
X193959Y147658D01*
X193966Y147653D01*
X194566Y147853D01*
X194569Y147858D01*
X194572Y147856D01*
X195172Y148156D01*
X195174Y148160D01*
X195177Y148159D01*
X195777Y148559D01*
X195778Y148562D01*
X195781Y148562D01*
X196281Y148962D01*
X196282Y148966D01*
X196285Y148965D01*
X196785Y149465D01*
X196786Y149472D01*
X196791Y149473D01*
X197191Y150073D01*
X197191Y150077D01*
X197194Y150078D01*
X197494Y150678D01*
X197493Y150683D01*
X197497Y150684D01*
X197697Y151284D01*
X197695Y151291D01*
X197699Y151293D01*
X197799Y151993D01*
X197796Y151998D01*
X197799Y152000D01*
X197799Y153400D01*
X197796Y153405D01*
X197799Y153408D01*
X197699Y154008D01*
X197692Y154014D01*
X197695Y154019D01*
X197395Y154719D01*
X197391Y154722D01*
X197392Y154725D01*
X197092Y155225D01*
X197091Y155226D01*
X197091Y155227D01*
X196691Y155827D01*
X196684Y155830D01*
X196685Y155835D01*
X196185Y156335D01*
X196181Y156335D01*
X196181Y156338D01*
X195681Y156738D01*
X195673Y156739D01*
X195672Y156744D01*
X194472Y157344D01*
X194461Y157342D01*
X194457Y157349D01*
X193057Y157549D01*
X193052Y157546D01*
X193050Y157549D01*
X192450Y157549D01*
X192442Y157543D01*
X192436Y157547D01*
X191736Y157347D01*
X191735Y157346D01*
X191734Y157347D01*
X191134Y157147D01*
X191131Y157142D01*
X191128Y157144D01*
X190528Y156844D01*
X190526Y156840D01*
X190523Y156841D01*
X189923Y156441D01*
X189917Y156424D01*
X189906Y156422D01*
X189606Y155822D01*
X189612Y155790D01*
X189606Y155778D01*
X189906Y155178D01*
X189916Y155173D01*
X189915Y155165D01*
X190515Y154565D01*
X190534Y154563D01*
X190538Y154552D01*
X190938Y154452D01*
X190959Y154461D01*
X190971Y154455D01*
X192264Y155052D01*
X192950Y155150D01*
X193639Y155052D01*
X194226Y154856D01*
X194715Y154465D01*
X195107Y153974D01*
X195401Y153290D01*
X195401Y151912D01*
X195108Y151327D01*
X194713Y150833D01*
X194221Y150341D01*
X193638Y150049D01*
X192264Y150049D01*
X191799Y150328D01*
X191799Y151554D01*
X193054Y151651D01*
X193069Y151665D01*
X193081Y151662D01*
X193581Y152062D01*
X193588Y152092D01*
X193599Y152100D01*
X193599Y152800D01*
X193590Y152813D01*
X193594Y152822D01*
X193294Y153422D01*
X193270Y153434D01*
X193266Y153447D01*
X192666Y153647D01*
X192655Y153643D01*
X192650Y153649D01*
X190650Y153649D01*
X190643Y153644D01*
X190638Y153648D01*
X189838Y153448D01*
X189829Y153437D01*
X189820Y153439D01*
X189420Y153139D01*
X189413Y153114D01*
X189401Y153107D01*
X189301Y152407D01*
X189304Y152402D01*
X189301Y152400D01*
X189301Y149600D01*
X189308Y149591D01*
X189303Y149584D01*
X189503Y148984D01*
X189517Y148975D01*
X189515Y148965D01*
X190015Y148465D01*
X190024Y148464D01*
X190025Y148458D01*
X190525Y148158D01*
X190528Y148158D01*
X190528Y148156D01*
X191128Y147856D01*
X191139Y147858D01*
X191142Y147851D01*
X191742Y147751D01*
X191743Y147752D01*
X191744Y147751D01*
X192544Y147651D01*
X192548Y147653D01*
X192550Y147651D01*
X193950Y147651D01*
X193959Y147658D01*
G37*
%LPC*%
G36*
X206154Y171749D02*
X206154Y171749D01*
X205680Y172034D01*
X205489Y172509D01*
X205489Y179997D01*
X205587Y180680D01*
X205966Y181154D01*
X206635Y181250D01*
X207217Y181056D01*
X207595Y180772D01*
X207691Y180196D01*
X207691Y176100D01*
X207698Y176091D01*
X207693Y176084D01*
X207793Y175784D01*
X207801Y175779D01*
X207802Y175769D01*
X207815Y175769D01*
X207842Y175751D01*
X207856Y175771D01*
X207880Y175772D01*
X209080Y177472D01*
X210979Y180070D01*
X211574Y180863D01*
X212057Y181153D01*
X212737Y181250D01*
X213408Y181058D01*
X213691Y180586D01*
X213691Y172409D01*
X213503Y171941D01*
X212836Y171750D01*
X212063Y171847D01*
X211686Y172224D01*
X211589Y172804D01*
X211589Y176900D01*
X211573Y176921D01*
X211575Y176935D01*
X211475Y177035D01*
X211416Y177043D01*
X211414Y177030D01*
X211401Y177029D01*
X207610Y171942D01*
X207032Y171749D01*
X206154Y171749D01*
G37*
%LPD*%
%LPC*%
G36*
X188303Y36579D02*
X188303Y36579D01*
X187620Y36677D01*
X187146Y37056D01*
X187050Y37725D01*
X187244Y38307D01*
X187528Y38685D01*
X188104Y38781D01*
X192200Y38781D01*
X192209Y38788D01*
X192216Y38783D01*
X192516Y38883D01*
X192521Y38891D01*
X192531Y38892D01*
X192531Y38905D01*
X192549Y38932D01*
X192529Y38946D01*
X192528Y38970D01*
X190828Y40170D01*
X188230Y42069D01*
X187437Y42664D01*
X187147Y43147D01*
X187050Y43827D01*
X187074Y43910D01*
X187088Y43960D01*
X187130Y44107D01*
X187131Y44107D01*
X187130Y44107D01*
X187173Y44255D01*
X187187Y44304D01*
X187229Y44452D01*
X187242Y44498D01*
X187714Y44781D01*
X195891Y44781D01*
X196359Y44593D01*
X196550Y43926D01*
X196453Y43153D01*
X196076Y42776D01*
X195496Y42679D01*
X191400Y42679D01*
X191379Y42663D01*
X191365Y42665D01*
X191265Y42565D01*
X191257Y42506D01*
X191270Y42504D01*
X191271Y42491D01*
X196358Y38700D01*
X196551Y38122D01*
X196551Y37244D01*
X196266Y36770D01*
X195791Y36579D01*
X188303Y36579D01*
G37*
%LPD*%
%LPC*%
G36*
X67049Y35572D02*
X67049Y35572D01*
X67011Y35618D01*
X67005Y35613D01*
X67000Y35619D01*
X60303Y35619D01*
X59512Y35718D01*
X59034Y35910D01*
X58749Y36384D01*
X58749Y37150D01*
X59420Y37821D01*
X64200Y37821D01*
X64211Y37829D01*
X64224Y37827D01*
X64226Y37840D01*
X64247Y37857D01*
X64231Y37878D01*
X64235Y37905D01*
X64035Y38105D01*
X64030Y38106D01*
X64030Y38109D01*
X63230Y38709D01*
X59531Y41509D01*
X58942Y41999D01*
X58749Y42578D01*
X58749Y43255D01*
X59129Y43825D01*
X59704Y43921D01*
X67196Y43921D01*
X67776Y43824D01*
X68151Y43450D01*
X68151Y42578D01*
X67959Y42003D01*
X67486Y41719D01*
X62800Y41719D01*
X62787Y41709D01*
X62770Y41709D01*
X62770Y41697D01*
X62753Y41683D01*
X62770Y41660D01*
X62770Y41631D01*
X67568Y38033D01*
X68151Y37450D01*
X68151Y36873D01*
X68053Y36093D01*
X67676Y35716D01*
X67092Y35619D01*
X67051Y35575D01*
X67054Y35573D01*
X67051Y35570D01*
X67051Y35541D01*
X67049Y35572D01*
G37*
%LPD*%
G36*
X141058Y147657D02*
X141058Y147657D01*
X141064Y147653D01*
X141764Y147853D01*
X141783Y147878D01*
X141796Y147882D01*
X141996Y148382D01*
X141992Y148395D01*
X141999Y148400D01*
X141999Y151080D01*
X142370Y151451D01*
X145030Y151451D01*
X145401Y151080D01*
X145401Y148400D01*
X145409Y148389D01*
X145404Y148382D01*
X145604Y147882D01*
X145632Y147865D01*
X145636Y147853D01*
X146336Y147653D01*
X146346Y147656D01*
X146350Y147651D01*
X147250Y147651D01*
X147271Y147667D01*
X147285Y147665D01*
X147685Y148065D01*
X147686Y148077D01*
X147691Y148081D01*
X147688Y148086D01*
X147699Y148092D01*
X147799Y148692D01*
X147796Y148697D01*
X147799Y148700D01*
X147799Y156200D01*
X147796Y156204D01*
X147799Y156207D01*
X147699Y156907D01*
X147677Y156929D01*
X147675Y156942D01*
X147175Y157242D01*
X147157Y157240D01*
X147150Y157249D01*
X146250Y157249D01*
X146241Y157242D01*
X146234Y157247D01*
X145634Y157047D01*
X145616Y157020D01*
X145603Y157016D01*
X145403Y156416D01*
X145407Y156405D01*
X145401Y156400D01*
X145401Y153720D01*
X145030Y153349D01*
X142366Y153349D01*
X141999Y153625D01*
X141999Y156400D01*
X141992Y156409D01*
X141997Y156416D01*
X141797Y157016D01*
X141770Y157034D01*
X141766Y157047D01*
X141166Y157247D01*
X141155Y157243D01*
X141150Y157249D01*
X140450Y157249D01*
X140437Y157240D01*
X140428Y157244D01*
X139828Y156944D01*
X139816Y156920D01*
X139803Y156916D01*
X139603Y156316D01*
X139607Y156305D01*
X139601Y156300D01*
X139601Y148700D01*
X139608Y148691D01*
X139603Y148684D01*
X139803Y148084D01*
X139817Y148075D01*
X139815Y148065D01*
X140215Y147665D01*
X140242Y147662D01*
X140250Y147651D01*
X141050Y147651D01*
X141058Y147657D01*
G37*
%LPC*%
G36*
X168116Y24758D02*
X168116Y24758D01*
X167645Y25040D01*
X167549Y25713D01*
X167549Y29710D01*
X167513Y29757D01*
X167506Y29752D01*
X167500Y29759D01*
X166800Y29759D01*
X166797Y29757D01*
X166792Y29757D01*
X166790Y29758D01*
X166290Y29658D01*
X166271Y29637D01*
X166253Y29623D01*
X166255Y29619D01*
X166251Y29614D01*
X166253Y29612D01*
X166251Y29610D01*
X166251Y27613D01*
X166152Y26822D01*
X165961Y26346D01*
X165391Y26061D01*
X164616Y26158D01*
X164141Y26443D01*
X163949Y27018D01*
X163949Y29710D01*
X163913Y29757D01*
X163906Y29752D01*
X163900Y29759D01*
X162600Y29759D01*
X162553Y29723D01*
X162554Y29722D01*
X162553Y29721D01*
X162557Y29715D01*
X162551Y29710D01*
X162551Y25714D01*
X162454Y25134D01*
X162077Y24757D01*
X161304Y24660D01*
X160632Y24852D01*
X160349Y25324D01*
X160349Y31396D01*
X160630Y31865D01*
X161303Y31961D01*
X169376Y31961D01*
X169751Y31493D01*
X169751Y25319D01*
X169563Y24851D01*
X168896Y24660D01*
X168116Y24758D01*
G37*
%LPD*%
%LPC*%
G36*
X52726Y173149D02*
X52726Y173149D01*
X52353Y173430D01*
X52160Y174104D01*
X52257Y174877D01*
X52634Y175254D01*
X53214Y175351D01*
X56610Y175351D01*
X56615Y175354D01*
X56618Y175351D01*
X57218Y175451D01*
X57259Y175495D01*
X57256Y175498D01*
X57259Y175500D01*
X57259Y176200D01*
X57250Y176213D01*
X57254Y176222D01*
X57054Y176622D01*
X57017Y176641D01*
X57010Y176649D01*
X55013Y176649D01*
X54323Y176748D01*
X53847Y176938D01*
X53561Y177607D01*
X53657Y178381D01*
X53940Y178757D01*
X54617Y178951D01*
X57210Y178951D01*
X57257Y178987D01*
X57252Y178994D01*
X57259Y179000D01*
X57259Y180300D01*
X57223Y180347D01*
X57216Y180342D01*
X57210Y180349D01*
X53114Y180349D01*
X52538Y180445D01*
X52257Y180819D01*
X52160Y181695D01*
X52351Y182267D01*
X52824Y182551D01*
X58307Y182551D01*
X58991Y182453D01*
X59364Y182173D01*
X59461Y181497D01*
X59461Y174004D01*
X59365Y173428D01*
X58994Y173149D01*
X52726Y173149D01*
G37*
%LPD*%
G36*
X178271Y147667D02*
X178271Y147667D01*
X178285Y147665D01*
X178785Y148165D01*
X178786Y148177D01*
X178790Y148179D01*
X178788Y148182D01*
X178797Y148184D01*
X178997Y148784D01*
X178991Y148800D01*
X178999Y148808D01*
X178899Y149408D01*
X178891Y149415D01*
X178894Y149422D01*
X178594Y150022D01*
X178587Y150025D01*
X178588Y150031D01*
X178188Y150531D01*
X178178Y150533D01*
X178177Y150541D01*
X177577Y150941D01*
X175877Y152041D01*
X175281Y152438D01*
X174888Y152831D01*
X174495Y153422D01*
X174303Y153996D01*
X174588Y154566D01*
X175165Y154951D01*
X175833Y154951D01*
X176311Y154568D01*
X176601Y153988D01*
X176601Y153400D01*
X176612Y153385D01*
X176608Y153375D01*
X176908Y152875D01*
X176930Y152866D01*
X176934Y152853D01*
X177534Y152653D01*
X177545Y152657D01*
X177550Y152651D01*
X178450Y152651D01*
X178471Y152667D01*
X178485Y152665D01*
X178885Y153065D01*
X178888Y153086D01*
X178899Y153092D01*
X178999Y153692D01*
X178997Y153695D01*
X178996Y153697D01*
X178999Y153700D01*
X178999Y154400D01*
X178992Y154409D01*
X178997Y154416D01*
X178797Y155016D01*
X178792Y155019D01*
X178794Y155022D01*
X178494Y155622D01*
X178490Y155624D01*
X178491Y155627D01*
X178091Y156227D01*
X178088Y156228D01*
X178088Y156231D01*
X177688Y156731D01*
X177674Y156734D01*
X177672Y156744D01*
X177072Y157044D01*
X177067Y157043D01*
X177066Y157047D01*
X176466Y157247D01*
X176459Y157245D01*
X176457Y157249D01*
X175757Y157349D01*
X175752Y157346D01*
X175750Y157349D01*
X175050Y157349D01*
X175046Y157346D01*
X175043Y157349D01*
X174343Y157249D01*
X174335Y157241D01*
X174328Y157244D01*
X173728Y156944D01*
X173725Y156937D01*
X173719Y156938D01*
X173219Y156538D01*
X173218Y156534D01*
X173215Y156535D01*
X172715Y156035D01*
X172714Y156026D01*
X172708Y156025D01*
X172408Y155525D01*
X172408Y155522D01*
X172406Y155522D01*
X172106Y154922D01*
X172108Y154911D01*
X172101Y154907D01*
X171901Y153507D01*
X171909Y153493D01*
X171903Y153484D01*
X172103Y152885D01*
X172303Y152186D01*
X172314Y152178D01*
X172312Y152169D01*
X172712Y151669D01*
X172716Y151668D01*
X172715Y151665D01*
X173215Y151165D01*
X173219Y151165D01*
X173218Y151162D01*
X173818Y150662D01*
X173824Y150662D01*
X173825Y150658D01*
X174771Y150090D01*
X174730Y150049D01*
X172750Y150049D01*
X172746Y150046D01*
X172743Y150049D01*
X172043Y149949D01*
X172025Y149930D01*
X172012Y149931D01*
X171612Y149431D01*
X171611Y149412D01*
X171601Y149407D01*
X171501Y148707D01*
X171506Y148699D01*
X171505Y148698D01*
X171506Y148697D01*
X171501Y148692D01*
X171601Y148092D01*
X171620Y148075D01*
X171619Y148062D01*
X172119Y147662D01*
X172142Y147661D01*
X172150Y147651D01*
X178250Y147651D01*
X178271Y147667D01*
G37*
%LPC*%
G36*
X63603Y46219D02*
X63603Y46219D01*
X62920Y46317D01*
X62543Y46600D01*
X62349Y47277D01*
X62349Y49462D01*
X62539Y50031D01*
X63108Y50221D01*
X63780Y50221D01*
X64152Y49848D01*
X64251Y48467D01*
X64290Y48422D01*
X64296Y48427D01*
X64300Y48421D01*
X65600Y48421D01*
X65633Y48446D01*
X65644Y48448D01*
X65944Y49048D01*
X65941Y49064D01*
X65949Y49070D01*
X65949Y49770D01*
X65946Y49775D01*
X65949Y49778D01*
X65849Y50378D01*
X65844Y50382D01*
X65847Y50386D01*
X65647Y50986D01*
X65636Y50993D01*
X65638Y51002D01*
X65138Y51602D01*
X65131Y51603D01*
X65131Y51608D01*
X64631Y52008D01*
X64618Y52009D01*
X64616Y52017D01*
X64016Y52217D01*
X64009Y52215D01*
X64007Y52219D01*
X63307Y52319D01*
X63298Y52314D01*
X63293Y52319D01*
X62593Y52219D01*
X62589Y52215D01*
X62586Y52217D01*
X61886Y52017D01*
X61878Y52006D01*
X61869Y52008D01*
X61369Y51608D01*
X61367Y51601D01*
X61362Y51601D01*
X60962Y51101D01*
X60961Y51087D01*
X60953Y51084D01*
X60934Y51018D01*
X60892Y50871D01*
X60878Y50821D01*
X60836Y50674D01*
X60793Y50526D01*
X60779Y50477D01*
X60753Y50384D01*
X60754Y50380D01*
X60752Y50378D01*
X60751Y50377D01*
X60651Y49677D01*
X60657Y49667D01*
X60651Y49662D01*
X60751Y49062D01*
X60758Y49055D01*
X60755Y49049D01*
X61349Y47764D01*
X61255Y47297D01*
X60673Y46812D01*
X60096Y46523D01*
X59532Y46711D01*
X59143Y47295D01*
X58846Y47889D01*
X58648Y48481D01*
X58549Y49177D01*
X58450Y49869D01*
X58549Y50462D01*
X58548Y50463D01*
X58549Y50463D01*
X58648Y51155D01*
X58944Y51748D01*
X59242Y52343D01*
X59637Y52837D01*
X60133Y53333D01*
X60629Y53730D01*
X61222Y54125D01*
X61811Y54322D01*
X63203Y54521D01*
X63896Y54521D01*
X64489Y54422D01*
X65182Y54224D01*
X65773Y53928D01*
X66267Y53533D01*
X67262Y52539D01*
X67657Y51945D01*
X67953Y51355D01*
X68051Y50762D01*
X68151Y50067D01*
X68151Y49373D01*
X68051Y48577D01*
X67953Y47985D01*
X67657Y47393D01*
X67361Y46901D01*
X66873Y46413D01*
X66292Y46219D01*
X63603Y46219D01*
G37*
%LPD*%
G36*
X201668Y147665D02*
X201668Y147665D01*
X201681Y147662D01*
X202181Y148062D01*
X202185Y148077D01*
X202186Y148077D01*
X202195Y148079D01*
X202793Y149375D01*
X203089Y149770D01*
X203089Y149778D01*
X203095Y149779D01*
X203108Y149807D01*
X203108Y149806D01*
X203119Y149761D01*
X203138Y149766D01*
X203150Y149751D01*
X206520Y149751D01*
X207106Y148578D01*
X207406Y147978D01*
X207423Y147969D01*
X207425Y147958D01*
X207925Y147658D01*
X207948Y147660D01*
X207957Y147651D01*
X208657Y147751D01*
X208669Y147763D01*
X208679Y147760D01*
X209379Y148260D01*
X209384Y148277D01*
X209385Y148278D01*
X209384Y148278D01*
X209384Y148279D01*
X209396Y148282D01*
X209596Y148782D01*
X209589Y148805D01*
X209597Y148816D01*
X209397Y149416D01*
X209393Y149418D01*
X209394Y149422D01*
X206094Y156222D01*
X205794Y156822D01*
X205778Y156830D01*
X205777Y156841D01*
X205177Y157241D01*
X205163Y157240D01*
X205158Y157249D01*
X204558Y157349D01*
X204539Y157339D01*
X204528Y157344D01*
X203928Y157044D01*
X203923Y157034D01*
X203915Y157035D01*
X203615Y156735D01*
X203614Y156723D01*
X203606Y156721D01*
X200006Y149221D01*
X200007Y149212D01*
X200002Y149210D01*
X199902Y148710D01*
X199913Y148687D01*
X199908Y148675D01*
X200208Y148175D01*
X200223Y148169D01*
X200224Y148158D01*
X201024Y147658D01*
X201043Y147660D01*
X201050Y147651D01*
X201650Y147651D01*
X201668Y147665D01*
G37*
G36*
X157654Y147654D02*
X157654Y147654D01*
X157657Y147651D01*
X158357Y147751D01*
X158365Y147759D01*
X158372Y147756D01*
X158972Y148056D01*
X158973Y148059D01*
X158975Y148058D01*
X159475Y148358D01*
X159479Y148366D01*
X159485Y148365D01*
X159985Y148865D01*
X159986Y148872D01*
X159991Y148873D01*
X160391Y149473D01*
X160390Y149482D01*
X160397Y149484D01*
X160597Y150084D01*
X160595Y150091D01*
X160599Y150093D01*
X160699Y150793D01*
X160686Y150817D01*
X160689Y150830D01*
X160389Y151230D01*
X160368Y151236D01*
X160364Y151247D01*
X159664Y151447D01*
X159652Y151443D01*
X159650Y151443D01*
X159644Y151449D01*
X158844Y151349D01*
X158831Y151336D01*
X158820Y151339D01*
X158420Y151039D01*
X158416Y151023D01*
X158414Y151022D01*
X158405Y151019D01*
X158112Y150336D01*
X157535Y150048D01*
X156853Y149950D01*
X156176Y150144D01*
X155799Y150520D01*
X155799Y151080D01*
X156273Y151553D01*
X157056Y151651D01*
X157058Y151653D01*
X157060Y151652D01*
X157560Y151752D01*
X157573Y151767D01*
X157585Y151765D01*
X157985Y152165D01*
X157988Y152188D01*
X157999Y152195D01*
X158099Y153095D01*
X158091Y153108D01*
X158097Y153116D01*
X157897Y153716D01*
X157872Y153733D01*
X157868Y153746D01*
X157368Y153946D01*
X157359Y153943D01*
X157356Y153949D01*
X156561Y154048D01*
X155999Y154236D01*
X155999Y154776D01*
X156467Y155151D01*
X157138Y155151D01*
X157718Y154861D01*
X158112Y154369D01*
X158119Y154367D01*
X158119Y154362D01*
X158619Y153962D01*
X158640Y153961D01*
X158645Y153955D01*
X158655Y153955D01*
X158658Y153951D01*
X159258Y154051D01*
X159267Y154061D01*
X159274Y154057D01*
X159974Y154457D01*
X159981Y154473D01*
X159992Y154475D01*
X160292Y154975D01*
X160290Y155000D01*
X160298Y155010D01*
X160198Y155510D01*
X160190Y155517D01*
X160193Y155524D01*
X159793Y156224D01*
X159784Y156228D01*
X159785Y156235D01*
X159285Y156735D01*
X159281Y156735D01*
X159281Y156738D01*
X158781Y157138D01*
X158767Y157139D01*
X158764Y157147D01*
X158065Y157347D01*
X157466Y157547D01*
X157455Y157543D01*
X157450Y157549D01*
X155350Y157549D01*
X155327Y157532D01*
X155313Y157533D01*
X154414Y156534D01*
X153915Y156035D01*
X153913Y156019D01*
X153903Y156016D01*
X153703Y155416D01*
X153704Y155414D01*
X153703Y155414D01*
X153698Y155396D01*
X153656Y155249D01*
X153613Y155101D01*
X153599Y155052D01*
X153557Y154904D01*
X153515Y154756D01*
X153503Y154714D01*
X153505Y154708D01*
X153504Y154707D01*
X153507Y154702D01*
X153508Y154700D01*
X153501Y154693D01*
X153601Y153993D01*
X153606Y153988D01*
X153603Y153984D01*
X153803Y153384D01*
X153820Y153373D01*
X153819Y153362D01*
X154301Y152976D01*
X154301Y152620D01*
X153815Y152135D01*
X153814Y152128D01*
X153809Y152127D01*
X153409Y151527D01*
X153410Y151513D01*
X153401Y151508D01*
X153301Y150908D01*
X153307Y150898D01*
X153301Y150893D01*
X153401Y150193D01*
X153406Y150188D01*
X153403Y150184D01*
X153603Y149584D01*
X153608Y149581D01*
X153606Y149578D01*
X153906Y148978D01*
X153916Y148973D01*
X153915Y148965D01*
X154415Y148465D01*
X154424Y148464D01*
X154425Y148458D01*
X154925Y148158D01*
X154928Y148158D01*
X154928Y148156D01*
X155528Y147856D01*
X155535Y147857D01*
X155536Y147853D01*
X156236Y147653D01*
X156246Y147656D01*
X156250Y147651D01*
X157650Y147651D01*
X157654Y147654D01*
G37*
%LPC*%
G36*
X117419Y26016D02*
X117419Y26016D01*
X110049Y29501D01*
X110049Y29570D01*
X110030Y29595D01*
X110031Y29608D01*
X109546Y29996D01*
X109450Y30665D01*
X109642Y31241D01*
X110126Y31628D01*
X116820Y34825D01*
X117519Y35125D01*
X117549Y35176D01*
X117538Y35183D01*
X117543Y35194D01*
X117526Y35224D01*
X118086Y35318D01*
X118562Y34937D01*
X118951Y34257D01*
X118951Y33687D01*
X118569Y33210D01*
X117279Y32615D01*
X117273Y32604D01*
X117265Y32605D01*
X116865Y32205D01*
X116862Y32178D01*
X116851Y32170D01*
X116851Y28770D01*
X116876Y28737D01*
X116878Y28726D01*
X118078Y28126D01*
X118665Y27832D01*
X118948Y27360D01*
X118853Y26787D01*
X118464Y26106D01*
X117994Y25824D01*
X117419Y26016D01*
G37*
%LPD*%
%LPC*%
G36*
X167920Y53155D02*
X167920Y53155D01*
X161222Y56354D01*
X160634Y56648D01*
X160249Y57225D01*
X160249Y57795D01*
X160635Y58373D01*
X161124Y58667D01*
X167820Y61965D01*
X168505Y62259D01*
X168976Y62165D01*
X169458Y61682D01*
X169749Y61004D01*
X169655Y60437D01*
X169175Y60053D01*
X167882Y59556D01*
X167866Y59530D01*
X167853Y59526D01*
X167653Y58926D01*
X167657Y58915D01*
X167651Y58910D01*
X167651Y56210D01*
X167659Y56199D01*
X167654Y56192D01*
X167854Y55692D01*
X167876Y55679D01*
X167878Y55666D01*
X169073Y55068D01*
X169558Y54681D01*
X169748Y54109D01*
X169732Y54051D01*
X169718Y54001D01*
X169676Y53854D01*
X169633Y53706D01*
X169619Y53657D01*
X169577Y53509D01*
X169556Y53436D01*
X169076Y52955D01*
X168605Y52861D01*
X167920Y53155D01*
G37*
%LPD*%
G36*
X184754Y147654D02*
X184754Y147654D01*
X184757Y147651D01*
X185457Y147751D01*
X185462Y147756D01*
X185466Y147753D01*
X186066Y147953D01*
X186069Y147958D01*
X186072Y147956D01*
X186672Y148256D01*
X186677Y148266D01*
X186685Y148265D01*
X187185Y148765D01*
X187186Y148774D01*
X187192Y148775D01*
X187492Y149275D01*
X187490Y149299D01*
X187499Y149308D01*
X187399Y149908D01*
X187383Y149923D01*
X187385Y149935D01*
X186785Y150535D01*
X186771Y150537D01*
X186768Y150546D01*
X186268Y150746D01*
X186245Y150739D01*
X186234Y150747D01*
X185634Y150547D01*
X185627Y150536D01*
X185619Y150538D01*
X185130Y150147D01*
X184355Y150050D01*
X183785Y150240D01*
X183501Y150808D01*
X183595Y151467D01*
X184162Y151751D01*
X184833Y151751D01*
X185319Y151362D01*
X185337Y151361D01*
X185342Y151351D01*
X185942Y151251D01*
X185959Y151261D01*
X185969Y151255D01*
X186669Y151555D01*
X186673Y151561D01*
X186677Y151559D01*
X187277Y151959D01*
X187286Y151983D01*
X187298Y151988D01*
X187398Y152388D01*
X187393Y152400D01*
X187399Y152406D01*
X186899Y156306D01*
X186896Y156309D01*
X186898Y156312D01*
X186798Y156712D01*
X186786Y156721D01*
X186788Y156731D01*
X186388Y157231D01*
X186368Y157236D01*
X186364Y157247D01*
X185664Y157447D01*
X185654Y157444D01*
X185650Y157449D01*
X182250Y157449D01*
X182241Y157442D01*
X182234Y157447D01*
X181634Y157247D01*
X181621Y157227D01*
X181608Y157225D01*
X181308Y156725D01*
X181310Y156707D01*
X181301Y156700D01*
X181301Y155800D01*
X181312Y155785D01*
X181308Y155775D01*
X181608Y155275D01*
X181628Y155266D01*
X181632Y155254D01*
X182132Y155054D01*
X182145Y155058D01*
X182150Y155051D01*
X184245Y155051D01*
X184701Y154960D01*
X184701Y154249D01*
X184050Y154249D01*
X184041Y154242D01*
X184034Y154247D01*
X182834Y153847D01*
X182829Y153839D01*
X182823Y153841D01*
X182223Y153441D01*
X182219Y153431D01*
X182212Y153432D01*
X181712Y152832D01*
X181712Y152826D01*
X181708Y152825D01*
X181408Y152325D01*
X181409Y152316D01*
X181403Y152314D01*
X181369Y152195D01*
X181355Y152146D01*
X181313Y151998D01*
X181270Y151850D01*
X181256Y151801D01*
X181214Y151653D01*
X181203Y151614D01*
X181204Y151610D01*
X181201Y151608D01*
X181101Y151008D01*
X181107Y150998D01*
X181101Y150993D01*
X181201Y150293D01*
X181205Y150289D01*
X181203Y150286D01*
X181403Y149586D01*
X181408Y149582D01*
X181406Y149578D01*
X181706Y148978D01*
X181716Y148973D01*
X181715Y148965D01*
X182215Y148465D01*
X182219Y148465D01*
X182219Y148462D01*
X182719Y148062D01*
X182727Y148061D01*
X182728Y148056D01*
X183328Y147756D01*
X183339Y147758D01*
X183343Y147751D01*
X184043Y147651D01*
X184048Y147654D01*
X184050Y147651D01*
X184750Y147651D01*
X184754Y147654D01*
G37*
G36*
X56058Y147657D02*
X56058Y147657D01*
X56064Y147653D01*
X56764Y147853D01*
X56772Y147864D01*
X56781Y147862D01*
X57279Y148260D01*
X57877Y148659D01*
X57880Y148666D01*
X57885Y148665D01*
X58285Y149065D01*
X58287Y149078D01*
X58295Y149081D01*
X58595Y149781D01*
X58590Y149801D01*
X58593Y149804D01*
X58594Y149804D01*
X58594Y149805D01*
X58598Y149810D01*
X58498Y150310D01*
X58485Y150321D01*
X58488Y150332D01*
X57988Y150932D01*
X57964Y150937D01*
X57958Y150949D01*
X57358Y151049D01*
X57354Y151046D01*
X57352Y151049D01*
X57349Y151049D01*
X57339Y151041D01*
X57332Y151046D01*
X56832Y150846D01*
X56826Y150836D01*
X56818Y150838D01*
X56220Y150339D01*
X55632Y149947D01*
X54957Y149851D01*
X54288Y150137D01*
X54101Y150605D01*
X54194Y151167D01*
X54765Y151452D01*
X55457Y151551D01*
X55462Y151556D01*
X55466Y151553D01*
X56066Y151753D01*
X56067Y151756D01*
X56069Y151755D01*
X56769Y152055D01*
X56771Y152057D01*
X56772Y152056D01*
X57372Y152356D01*
X57375Y152363D01*
X57381Y152362D01*
X57881Y152762D01*
X57884Y152774D01*
X57892Y152775D01*
X58192Y153275D01*
X58192Y153280D01*
X58195Y153281D01*
X58495Y153981D01*
X58494Y153988D01*
X58497Y153991D01*
X58494Y153996D01*
X58499Y154000D01*
X58499Y154700D01*
X58496Y154705D01*
X58499Y154708D01*
X58399Y155308D01*
X58394Y155312D01*
X58397Y155316D01*
X58197Y155916D01*
X58189Y155921D01*
X58191Y155927D01*
X57791Y156527D01*
X57781Y156531D01*
X57781Y156538D01*
X57281Y156938D01*
X57276Y156939D01*
X57275Y156942D01*
X56775Y157242D01*
X56766Y157241D01*
X56764Y157247D01*
X56064Y157447D01*
X56059Y157446D01*
X56057Y157449D01*
X55357Y157549D01*
X55348Y157544D01*
X55343Y157549D01*
X53943Y157349D01*
X53939Y157345D01*
X53936Y157347D01*
X53236Y157147D01*
X53228Y157136D01*
X53219Y157138D01*
X52719Y156738D01*
X52718Y156734D01*
X52715Y156735D01*
X52215Y156235D01*
X52210Y156200D01*
X52202Y156190D01*
X52302Y155690D01*
X52310Y155683D01*
X52307Y155676D01*
X52707Y154976D01*
X52723Y154969D01*
X52725Y154958D01*
X53225Y154658D01*
X53243Y154660D01*
X53250Y154651D01*
X53850Y154651D01*
X53869Y154665D01*
X53882Y154662D01*
X54474Y155156D01*
X55055Y155350D01*
X55724Y155254D01*
X56095Y154790D01*
X55908Y154229D01*
X55428Y153845D01*
X54139Y153548D01*
X54138Y153546D01*
X54136Y153547D01*
X53436Y153347D01*
X53432Y153342D01*
X53428Y153344D01*
X52828Y153044D01*
X52825Y153037D01*
X52819Y153038D01*
X52319Y152638D01*
X52317Y152631D01*
X52312Y152631D01*
X51912Y152131D01*
X51911Y152118D01*
X51903Y152116D01*
X51703Y151516D01*
X51706Y151509D01*
X51701Y151506D01*
X51601Y150706D01*
X51606Y150698D01*
X51601Y150693D01*
X51701Y149993D01*
X51706Y149988D01*
X51703Y149984D01*
X51903Y149384D01*
X51911Y149379D01*
X51909Y149373D01*
X52309Y148773D01*
X52319Y148769D01*
X52319Y148762D01*
X52819Y148362D01*
X52827Y148361D01*
X52828Y148356D01*
X54028Y147756D01*
X54039Y147758D01*
X54042Y147751D01*
X54642Y147651D01*
X54647Y147654D01*
X54650Y147651D01*
X56050Y147651D01*
X56058Y147657D01*
G37*
%LPC*%
G36*
X89818Y26017D02*
X89818Y26017D01*
X89231Y26408D01*
X88735Y26905D01*
X88708Y26909D01*
X88700Y26919D01*
X88300Y26919D01*
X88275Y26900D01*
X88262Y26901D01*
X87871Y26412D01*
X87289Y26218D01*
X86603Y26120D01*
X85918Y26316D01*
X85327Y26612D01*
X84833Y27007D01*
X83849Y27990D01*
X83849Y29866D01*
X83948Y30456D01*
X84244Y31148D01*
X84539Y31640D01*
X85031Y32132D01*
X85622Y32525D01*
X86200Y32718D01*
X86767Y32529D01*
X87153Y31853D01*
X87248Y31280D01*
X86962Y30803D01*
X86469Y30408D01*
X86467Y30398D01*
X86459Y30397D01*
X86059Y29797D01*
X86060Y29777D01*
X86051Y29770D01*
X86051Y29070D01*
X86062Y29055D01*
X86058Y29045D01*
X86358Y28545D01*
X86386Y28534D01*
X86392Y28521D01*
X86992Y28421D01*
X87035Y28444D01*
X87042Y28445D01*
X87342Y28945D01*
X87341Y28959D01*
X87349Y28964D01*
X87449Y29762D01*
X87544Y30237D01*
X88109Y30519D01*
X88984Y30422D01*
X89456Y30139D01*
X89551Y29662D01*
X89651Y28864D01*
X89664Y28850D01*
X89662Y28839D01*
X90062Y28339D01*
X90081Y28334D01*
X90084Y28323D01*
X90684Y28123D01*
X90724Y28137D01*
X90735Y28135D01*
X91235Y28635D01*
X91237Y28651D01*
X91247Y28654D01*
X91447Y29254D01*
X91443Y29265D01*
X91449Y29270D01*
X91449Y29970D01*
X91437Y29986D01*
X91441Y29997D01*
X91041Y30597D01*
X91024Y30603D01*
X91022Y30614D01*
X90429Y30911D01*
X90047Y31293D01*
X89950Y32066D01*
X89955Y32084D01*
X89997Y32232D01*
X89998Y32232D01*
X89997Y32232D01*
X90040Y32380D01*
X90054Y32429D01*
X90096Y32577D01*
X90138Y32724D01*
X90144Y32744D01*
X90517Y33117D01*
X91089Y33022D01*
X91779Y32825D01*
X92369Y32432D01*
X92762Y32039D01*
X93155Y31448D01*
X93353Y30854D01*
X93551Y30262D01*
X93551Y28778D01*
X93353Y28186D01*
X93155Y27592D01*
X92762Y27001D01*
X92270Y26509D01*
X91780Y26216D01*
X91090Y26018D01*
X90401Y25920D01*
X89818Y26017D01*
G37*
%LPD*%
%LPC*%
G36*
X90108Y47019D02*
X90108Y47019D01*
X89524Y47214D01*
X89035Y47605D01*
X88538Y48202D01*
X88480Y48215D01*
X88477Y48200D01*
X88462Y48201D01*
X88065Y47705D01*
X87580Y47317D01*
X86897Y47219D01*
X86308Y47219D01*
X85722Y47415D01*
X85131Y47808D01*
X84137Y48802D01*
X83849Y49186D01*
X83849Y50467D01*
X83949Y51163D01*
X84048Y51855D01*
X84342Y52443D01*
X84735Y52935D01*
X85327Y53429D01*
X85912Y53721D01*
X86483Y53721D01*
X86960Y53339D01*
X87251Y52660D01*
X87251Y52096D01*
X86673Y51711D01*
X86670Y51704D01*
X86665Y51705D01*
X86165Y51205D01*
X86162Y51184D01*
X86151Y51178D01*
X86051Y50578D01*
X86057Y50568D01*
X86051Y50563D01*
X86151Y49863D01*
X86170Y49845D01*
X86169Y49832D01*
X86669Y49432D01*
X86708Y49431D01*
X86718Y49424D01*
X87218Y49624D01*
X87239Y49658D01*
X87249Y49664D01*
X87349Y50463D01*
X87446Y51147D01*
X87725Y51425D01*
X88598Y51619D01*
X89268Y51428D01*
X89551Y50956D01*
X89551Y50370D01*
X89557Y50362D01*
X89553Y50356D01*
X89753Y49656D01*
X89772Y49642D01*
X89773Y49629D01*
X90373Y49229D01*
X90404Y49231D01*
X90416Y49223D01*
X91016Y49423D01*
X91029Y49443D01*
X91042Y49445D01*
X91342Y49945D01*
X91341Y49956D01*
X91348Y49962D01*
X91349Y49963D01*
X91449Y50663D01*
X91442Y50676D01*
X91447Y50684D01*
X91247Y51384D01*
X91233Y51394D01*
X91235Y51405D01*
X90835Y51805D01*
X90828Y51806D01*
X90827Y51811D01*
X90237Y52205D01*
X89951Y52681D01*
X90048Y53459D01*
X90237Y54026D01*
X90800Y54120D01*
X91386Y54022D01*
X92074Y53727D01*
X92565Y53335D01*
X92958Y52843D01*
X93254Y52251D01*
X93452Y51659D01*
X93551Y50967D01*
X93551Y50273D01*
X93452Y49580D01*
X93442Y49545D01*
X93400Y49398D01*
X93357Y49250D01*
X93343Y49201D01*
X93301Y49053D01*
X93259Y48905D01*
X93254Y48890D01*
X92960Y48398D01*
X92563Y47903D01*
X92071Y47411D01*
X91485Y47118D01*
X90797Y47019D01*
X90108Y47019D01*
G37*
%LPD*%
G36*
X132359Y147658D02*
X132359Y147658D01*
X132366Y147653D01*
X132966Y147853D01*
X132979Y147873D01*
X132992Y147875D01*
X133256Y148314D01*
X133612Y147869D01*
X133632Y147864D01*
X133636Y147853D01*
X134336Y147653D01*
X134346Y147656D01*
X134350Y147651D01*
X135050Y147651D01*
X135055Y147654D01*
X135058Y147651D01*
X135658Y147751D01*
X135665Y147759D01*
X135672Y147756D01*
X136272Y148056D01*
X136277Y148066D01*
X136285Y148065D01*
X137285Y149065D01*
X137286Y149077D01*
X137294Y149078D01*
X137594Y149678D01*
X137593Y149683D01*
X137597Y149684D01*
X137797Y150284D01*
X137795Y150291D01*
X137799Y150293D01*
X137899Y150993D01*
X137896Y150998D01*
X137899Y151000D01*
X137899Y151700D01*
X137892Y151709D01*
X137897Y151716D01*
X137697Y152316D01*
X137692Y152319D01*
X137694Y152322D01*
X137394Y152922D01*
X137390Y152924D01*
X137391Y152927D01*
X136991Y153527D01*
X136981Y153531D01*
X136982Y153538D01*
X136382Y154038D01*
X136373Y154038D01*
X136372Y154044D01*
X135772Y154344D01*
X135767Y154343D01*
X135766Y154347D01*
X135166Y154547D01*
X135161Y154545D01*
X135161Y154546D01*
X135153Y154546D01*
X135150Y154549D01*
X134450Y154549D01*
X134445Y154546D01*
X134440Y154546D01*
X134438Y154544D01*
X134434Y154547D01*
X133834Y154347D01*
X133827Y154336D01*
X133819Y154338D01*
X133319Y153938D01*
X133318Y153934D01*
X133315Y153935D01*
X133260Y153879D01*
X132992Y154325D01*
X132970Y154334D01*
X132966Y154347D01*
X132366Y154547D01*
X132361Y154545D01*
X132361Y154546D01*
X132353Y154546D01*
X132350Y154549D01*
X131550Y154549D01*
X131532Y154535D01*
X131519Y154538D01*
X131019Y154138D01*
X131015Y154123D01*
X131006Y154116D01*
X131009Y154112D01*
X131001Y154108D01*
X130901Y153508D01*
X130904Y153503D01*
X130901Y153500D01*
X130901Y148700D01*
X130904Y148696D01*
X130901Y148693D01*
X131001Y147993D01*
X131023Y147971D01*
X131025Y147958D01*
X131525Y147658D01*
X131543Y147660D01*
X131550Y147651D01*
X132350Y147651D01*
X132359Y147658D01*
G37*
G36*
X20954Y147654D02*
X20954Y147654D01*
X20957Y147651D01*
X21657Y147751D01*
X21662Y147756D01*
X21666Y147753D01*
X22266Y147953D01*
X22271Y147961D01*
X22277Y147959D01*
X22877Y148359D01*
X22878Y148362D01*
X22881Y148362D01*
X23381Y148762D01*
X23383Y148772D01*
X23391Y148773D01*
X23791Y149373D01*
X23791Y149377D01*
X23794Y149378D01*
X24094Y149978D01*
X24093Y149985D01*
X24097Y149986D01*
X24116Y150051D01*
X24130Y150100D01*
X24172Y150248D01*
X24214Y150395D01*
X24228Y150445D01*
X24270Y150592D01*
X24271Y150592D01*
X24270Y150592D01*
X24297Y150686D01*
X24296Y150690D01*
X24297Y150691D01*
X24294Y150696D01*
X24299Y150700D01*
X24299Y152800D01*
X24282Y152823D01*
X24283Y152837D01*
X23284Y153736D01*
X22785Y154235D01*
X22773Y154236D01*
X22772Y154244D01*
X22172Y154544D01*
X22165Y154543D01*
X22164Y154547D01*
X21464Y154747D01*
X21460Y154746D01*
X21458Y154749D01*
X20858Y154849D01*
X20848Y154843D01*
X20843Y154849D01*
X19443Y154649D01*
X19435Y154641D01*
X19428Y154644D01*
X18828Y154344D01*
X18825Y154337D01*
X18819Y154338D01*
X18319Y153938D01*
X18318Y153934D01*
X18315Y153935D01*
X17815Y153435D01*
X17814Y153428D01*
X17809Y153427D01*
X17409Y152827D01*
X17410Y152818D01*
X17403Y152816D01*
X17203Y152216D01*
X17205Y152209D01*
X17201Y152207D01*
X17101Y151507D01*
X17104Y151502D01*
X17101Y151500D01*
X17101Y150800D01*
X17107Y150792D01*
X17103Y150786D01*
X17303Y150086D01*
X17304Y150085D01*
X17303Y150084D01*
X17503Y149484D01*
X17511Y149479D01*
X17509Y149473D01*
X17909Y148873D01*
X17919Y148869D01*
X17919Y148862D01*
X18919Y148062D01*
X18929Y148061D01*
X18931Y148055D01*
X19631Y147755D01*
X19639Y147757D01*
X19642Y147751D01*
X20242Y147651D01*
X20247Y147654D01*
X20250Y147651D01*
X20950Y147651D01*
X20954Y147654D01*
G37*
%LPC*%
G36*
X140511Y44948D02*
X140511Y44948D01*
X139927Y45143D01*
X139437Y45633D01*
X139044Y46124D01*
X138847Y46714D01*
X138247Y48714D01*
X138236Y48722D01*
X138238Y48731D01*
X137838Y49231D01*
X137808Y49238D01*
X137800Y49249D01*
X137200Y49249D01*
X137179Y49233D01*
X137165Y49235D01*
X136765Y48835D01*
X136762Y48812D01*
X136751Y48806D01*
X136651Y48006D01*
X136663Y47986D01*
X136658Y47974D01*
X137351Y46886D01*
X137351Y46320D01*
X136869Y45838D01*
X136290Y45452D01*
X135827Y45545D01*
X135340Y46129D01*
X135044Y46622D01*
X134748Y47314D01*
X134649Y48003D01*
X134649Y48697D01*
X134748Y49389D01*
X134945Y49978D01*
X135337Y50566D01*
X135831Y50962D01*
X136323Y51355D01*
X137007Y51551D01*
X137696Y51551D01*
X138286Y51452D01*
X138974Y51157D01*
X139465Y50765D01*
X139856Y50276D01*
X140053Y49684D01*
X140056Y49683D01*
X140055Y49681D01*
X140352Y48987D01*
X140451Y48293D01*
X140456Y48288D01*
X140453Y48284D01*
X140653Y47684D01*
X140664Y47677D01*
X140662Y47669D01*
X141062Y47169D01*
X141092Y47162D01*
X141100Y47151D01*
X141700Y47151D01*
X141721Y47167D01*
X141735Y47165D01*
X142135Y47565D01*
X142136Y47576D01*
X142138Y47577D01*
X142137Y47579D01*
X142137Y47584D01*
X142148Y47588D01*
X142348Y48388D01*
X142338Y48410D01*
X142344Y48422D01*
X142044Y49022D01*
X142038Y49025D01*
X142039Y49030D01*
X141149Y50216D01*
X141149Y50685D01*
X141537Y51266D01*
X142017Y51651D01*
X142584Y51651D01*
X142968Y51363D01*
X143363Y50967D01*
X143859Y50373D01*
X144154Y49782D01*
X144351Y49093D01*
X144351Y47704D01*
X144253Y47115D01*
X143659Y45929D01*
X143171Y45441D01*
X142581Y45146D01*
X141989Y44948D01*
X141200Y44850D01*
X140511Y44948D01*
G37*
%LPD*%
%LPC*%
G36*
X115603Y47619D02*
X115603Y47619D01*
X114917Y47717D01*
X114426Y48012D01*
X113838Y48404D01*
X113546Y48989D01*
X113347Y49585D01*
X113148Y50281D01*
X113049Y50878D01*
X113042Y50884D01*
X113045Y50889D01*
X112745Y51589D01*
X112734Y51596D01*
X112735Y51605D01*
X112335Y52005D01*
X112303Y52009D01*
X112293Y52019D01*
X111593Y51919D01*
X111569Y51894D01*
X111556Y51892D01*
X111256Y51292D01*
X111260Y51272D01*
X111251Y51263D01*
X111351Y50563D01*
X111364Y50550D01*
X111362Y50539D01*
X111757Y50044D01*
X112047Y49369D01*
X111859Y48900D01*
X111273Y48412D01*
X110702Y48126D01*
X110233Y48408D01*
X109842Y48897D01*
X109546Y49488D01*
X109348Y50180D01*
X109249Y50873D01*
X109249Y51563D01*
X109255Y51584D01*
X109297Y51732D01*
X109298Y51732D01*
X109297Y51732D01*
X109340Y51880D01*
X109354Y51929D01*
X109396Y52077D01*
X109438Y52224D01*
X109447Y52255D01*
X109644Y52846D01*
X110037Y53337D01*
X110529Y53829D01*
X111115Y54123D01*
X111704Y54221D01*
X112397Y54221D01*
X113085Y54122D01*
X113671Y53829D01*
X114161Y53340D01*
X114456Y52848D01*
X114754Y52153D01*
X114952Y51459D01*
X115051Y50862D01*
X115056Y50858D01*
X115053Y50854D01*
X115253Y50254D01*
X115270Y50243D01*
X115269Y50232D01*
X115769Y49832D01*
X115790Y49831D01*
X115795Y49825D01*
X115804Y49825D01*
X115807Y49821D01*
X116507Y49921D01*
X116529Y49943D01*
X116542Y49945D01*
X116842Y50445D01*
X116842Y50449D01*
X116844Y50451D01*
X116841Y50456D01*
X116841Y50459D01*
X116849Y50463D01*
X116949Y51163D01*
X116938Y51183D01*
X116943Y51194D01*
X116543Y51894D01*
X116537Y51897D01*
X116538Y51901D01*
X116140Y52399D01*
X115749Y52985D01*
X115749Y53552D01*
X116233Y54132D01*
X116706Y54416D01*
X117277Y54226D01*
X117668Y53933D01*
X118162Y53439D01*
X118557Y52845D01*
X118852Y52255D01*
X118951Y51567D01*
X118951Y50277D01*
X118924Y50183D01*
X118910Y50133D01*
X118868Y49986D01*
X118825Y49838D01*
X118811Y49789D01*
X118769Y49641D01*
X118754Y49588D01*
X118458Y48997D01*
X118063Y48503D01*
X117571Y48011D01*
X116985Y47717D01*
X116396Y47619D01*
X115603Y47619D01*
G37*
%LPD*%
%LPC*%
G36*
X166307Y64259D02*
X166307Y64259D01*
X165620Y64456D01*
X165131Y64749D01*
X164639Y65241D01*
X164346Y65730D01*
X164147Y66424D01*
X163747Y67724D01*
X163746Y67725D01*
X163747Y67726D01*
X163547Y68326D01*
X163528Y68338D01*
X163527Y68351D01*
X162927Y68751D01*
X162889Y68749D01*
X162878Y68754D01*
X162278Y68454D01*
X162266Y68430D01*
X162253Y68426D01*
X162053Y67826D01*
X162058Y67810D01*
X162051Y67803D01*
X162151Y67103D01*
X162164Y67090D01*
X162162Y67079D01*
X162558Y66583D01*
X162845Y66010D01*
X162561Y65441D01*
X161978Y64956D01*
X161510Y64862D01*
X160931Y65248D01*
X160542Y65638D01*
X160248Y66323D01*
X160149Y67017D01*
X160050Y67710D01*
X160149Y68403D01*
X160248Y69095D01*
X160542Y69683D01*
X160935Y70175D01*
X161427Y70568D01*
X162015Y70862D01*
X162703Y70961D01*
X163392Y70961D01*
X163978Y70765D01*
X164571Y70370D01*
X165061Y69978D01*
X165354Y69392D01*
X165553Y68696D01*
X165554Y68695D01*
X165553Y68694D01*
X165753Y68095D01*
X165953Y67396D01*
X165954Y67395D01*
X165953Y67394D01*
X166153Y66794D01*
X166175Y66779D01*
X166178Y66766D01*
X166778Y66466D01*
X166804Y66471D01*
X166816Y66463D01*
X167416Y66663D01*
X167434Y66690D01*
X167447Y66694D01*
X167647Y67294D01*
X167643Y67305D01*
X167649Y67310D01*
X167649Y68010D01*
X167641Y68021D01*
X167645Y68029D01*
X167345Y68729D01*
X167334Y68736D01*
X167335Y68745D01*
X166841Y69239D01*
X166551Y69818D01*
X166646Y70386D01*
X167128Y70868D01*
X167618Y71064D01*
X167631Y71085D01*
X167644Y71087D01*
X167659Y71117D01*
X167666Y71074D01*
X167678Y71076D01*
X167682Y71064D01*
X168176Y70867D01*
X168568Y70573D01*
X169062Y70079D01*
X169455Y69489D01*
X169652Y68799D01*
X169751Y68206D01*
X169751Y66818D01*
X169555Y66232D01*
X169159Y65637D01*
X168763Y65044D01*
X168276Y64654D01*
X167685Y64457D01*
X166993Y64259D01*
X166307Y64259D01*
G37*
%LPD*%
%LPC*%
G36*
X159760Y213134D02*
X159760Y213134D01*
X159067Y213308D01*
X158563Y213728D01*
X158219Y214157D01*
X157943Y214802D01*
X157662Y215552D01*
X157570Y216284D01*
X157570Y217936D01*
X157662Y218668D01*
X157943Y219418D01*
X158218Y220059D01*
X158647Y220574D01*
X159172Y220924D01*
X159788Y221188D01*
X160587Y221277D01*
X161298Y221188D01*
X162000Y220925D01*
X162422Y220587D01*
X162862Y220059D01*
X163137Y219418D01*
X163418Y218668D01*
X163510Y217936D01*
X163510Y216307D01*
X163128Y214782D01*
X162869Y214177D01*
X162433Y213741D01*
X161908Y213304D01*
X161316Y213134D01*
X160493Y213043D01*
X159760Y213134D01*
G37*
%LPD*%
%LPC*%
G36*
X135735Y35035D02*
X135735Y35035D01*
X135342Y35527D01*
X135046Y36118D01*
X134848Y36810D01*
X134749Y37503D01*
X134749Y38097D01*
X134849Y38792D01*
X134948Y39386D01*
X135245Y40079D01*
X135542Y40673D01*
X135937Y41167D01*
X136433Y41663D01*
X136926Y42057D01*
X137618Y42354D01*
X138216Y42553D01*
X138808Y42751D01*
X140200Y42751D01*
X140247Y42787D01*
X140244Y42791D01*
X140249Y42793D01*
X140252Y42816D01*
X140251Y42805D01*
X140282Y42754D01*
X140284Y42755D01*
X140284Y42753D01*
X141481Y42354D01*
X142075Y42057D01*
X142669Y41662D01*
X143163Y41167D01*
X143558Y40673D01*
X143856Y40078D01*
X144152Y39485D01*
X144251Y38793D01*
X144351Y38097D01*
X144351Y37503D01*
X144252Y36810D01*
X144054Y36019D01*
X143760Y35528D01*
X143367Y35038D01*
X142875Y34742D01*
X142860Y34705D01*
X142854Y34700D01*
X142855Y34699D01*
X142851Y34696D01*
X142852Y34680D01*
X142849Y34706D01*
X142819Y34737D01*
X142816Y34747D01*
X142224Y34944D01*
X141641Y35430D01*
X141454Y35898D01*
X141944Y36878D01*
X141943Y36883D01*
X141947Y36884D01*
X142147Y37484D01*
X142143Y37495D01*
X142149Y37500D01*
X142149Y38200D01*
X142146Y38205D01*
X142149Y38208D01*
X142049Y38808D01*
X142039Y38817D01*
X142043Y38824D01*
X141643Y39524D01*
X141637Y39527D01*
X141638Y39531D01*
X141238Y40031D01*
X141224Y40034D01*
X141222Y40044D01*
X140622Y40344D01*
X140617Y40343D01*
X140616Y40347D01*
X140016Y40547D01*
X140007Y40544D01*
X140005Y40548D01*
X140001Y40548D01*
X140000Y40549D01*
X139300Y40549D01*
X139298Y40548D01*
X139294Y40548D01*
X139293Y40549D01*
X138593Y40449D01*
X138582Y40438D01*
X138573Y40441D01*
X137973Y40041D01*
X137972Y40038D01*
X137969Y40038D01*
X137469Y39638D01*
X137465Y39622D01*
X137455Y39619D01*
X137155Y38919D01*
X137156Y38916D01*
X137153Y38916D01*
X136953Y38316D01*
X136957Y38305D01*
X136951Y38300D01*
X136951Y37600D01*
X136957Y37592D01*
X136953Y37586D01*
X137153Y36886D01*
X137160Y36881D01*
X137158Y36875D01*
X137455Y36379D01*
X137648Y35802D01*
X137459Y35330D01*
X136876Y34844D01*
X136211Y34654D01*
X135735Y35035D01*
G37*
%LPD*%
%LPC*%
G36*
X152233Y96949D02*
X152233Y96949D01*
X151544Y97048D01*
X150852Y97344D01*
X150356Y97642D01*
X149775Y98029D01*
X149681Y98594D01*
X149972Y99272D01*
X150455Y99756D01*
X150823Y99847D01*
X151506Y99457D01*
X151508Y99458D01*
X151508Y99456D01*
X151908Y99256D01*
X151919Y99258D01*
X151923Y99251D01*
X152623Y99151D01*
X152628Y99154D01*
X152630Y99151D01*
X153230Y99151D01*
X153238Y99157D01*
X153244Y99153D01*
X153944Y99353D01*
X153950Y99362D01*
X153957Y99359D01*
X154557Y99759D01*
X154560Y99766D01*
X154565Y99765D01*
X154965Y100165D01*
X154966Y100177D01*
X154974Y100178D01*
X155274Y100778D01*
X155273Y100785D01*
X155277Y100786D01*
X155308Y100894D01*
X155350Y101041D01*
X155364Y101091D01*
X155406Y101238D01*
X155407Y101238D01*
X155406Y101238D01*
X155449Y101386D01*
X155463Y101435D01*
X155477Y101486D01*
X155472Y101500D01*
X155479Y101507D01*
X155379Y102207D01*
X155378Y102208D01*
X155379Y102208D01*
X155279Y102808D01*
X155268Y102818D01*
X155271Y102827D01*
X154871Y103427D01*
X154861Y103431D01*
X154861Y103438D01*
X154361Y103838D01*
X154357Y103839D01*
X154357Y103841D01*
X153757Y104241D01*
X153742Y104240D01*
X153737Y104249D01*
X153037Y104349D01*
X153032Y104346D01*
X153030Y104349D01*
X152330Y104349D01*
X152321Y104342D01*
X152314Y104347D01*
X151714Y104147D01*
X151709Y104139D01*
X151703Y104141D01*
X151111Y103746D01*
X150639Y103652D01*
X150164Y103937D01*
X149677Y104619D01*
X149582Y105186D01*
X149964Y105663D01*
X150552Y106055D01*
X151145Y106253D01*
X151840Y106452D01*
X152533Y106551D01*
X153127Y106551D01*
X153819Y106452D01*
X154412Y106254D01*
X155109Y105955D01*
X155701Y105659D01*
X156195Y105165D01*
X156199Y105165D01*
X156199Y105162D01*
X156691Y104768D01*
X157284Y103581D01*
X157482Y102989D01*
X157581Y102293D01*
X157680Y101600D01*
X157582Y100910D01*
X157571Y100871D01*
X157528Y100723D01*
X157514Y100674D01*
X157472Y100526D01*
X157430Y100379D01*
X157416Y100329D01*
X157383Y100215D01*
X157185Y99622D01*
X156790Y99029D01*
X156393Y98533D01*
X155897Y98037D01*
X155403Y97642D01*
X154811Y97346D01*
X154215Y97147D01*
X153523Y96949D01*
X152233Y96949D01*
G37*
%LPD*%
G36*
X46554Y147654D02*
X46554Y147654D01*
X46557Y147651D01*
X47257Y147751D01*
X47262Y147756D01*
X47266Y147753D01*
X47866Y147953D01*
X47871Y147961D01*
X47877Y147959D01*
X48477Y148359D01*
X48480Y148366D01*
X48485Y148365D01*
X48985Y148865D01*
X48986Y148877D01*
X48994Y148878D01*
X49594Y150078D01*
X49592Y150089D01*
X49599Y150093D01*
X49699Y150793D01*
X49696Y150798D01*
X49699Y150800D01*
X49699Y151500D01*
X49696Y151504D01*
X49699Y151507D01*
X49599Y152207D01*
X49594Y152212D01*
X49597Y152216D01*
X49397Y152816D01*
X49392Y152819D01*
X49394Y152822D01*
X49094Y153422D01*
X49081Y153429D01*
X49081Y153438D01*
X48081Y154238D01*
X48073Y154239D01*
X48072Y154244D01*
X47472Y154544D01*
X47465Y154543D01*
X47464Y154547D01*
X46764Y154747D01*
X46759Y154746D01*
X46757Y154749D01*
X46057Y154849D01*
X46048Y154844D01*
X46043Y154849D01*
X44643Y154649D01*
X44635Y154641D01*
X44628Y154644D01*
X44028Y154344D01*
X44023Y154334D01*
X44015Y154335D01*
X43515Y153835D01*
X43515Y153831D01*
X43512Y153831D01*
X43112Y153331D01*
X43111Y153318D01*
X43103Y153316D01*
X42903Y152716D01*
X42905Y152709D01*
X42901Y152707D01*
X42801Y152007D01*
X42804Y152002D01*
X42801Y152000D01*
X42801Y151200D01*
X42820Y151175D01*
X42819Y151162D01*
X43319Y150762D01*
X43327Y150761D01*
X43328Y150756D01*
X43928Y150456D01*
X43939Y150458D01*
X43945Y150458D01*
X43950Y150451D01*
X46741Y150451D01*
X47162Y150282D01*
X46723Y149843D01*
X46142Y149649D01*
X45358Y149649D01*
X44166Y150047D01*
X44137Y150037D01*
X44125Y150042D01*
X43625Y149742D01*
X43618Y149726D01*
X43607Y149724D01*
X43207Y149024D01*
X43210Y149007D01*
X43201Y149000D01*
X43201Y148500D01*
X43217Y148479D01*
X43215Y148465D01*
X43515Y148165D01*
X43524Y148164D01*
X43525Y148158D01*
X44025Y147858D01*
X44035Y147859D01*
X44038Y147852D01*
X44838Y147652D01*
X44846Y147656D01*
X44850Y147651D01*
X46550Y147651D01*
X46554Y147654D01*
G37*
G36*
X83255Y147654D02*
X83255Y147654D01*
X83258Y147651D01*
X83858Y147751D01*
X83861Y147755D01*
X83864Y147753D01*
X84564Y147953D01*
X84570Y147962D01*
X84577Y147959D01*
X85177Y148359D01*
X85181Y148369D01*
X85188Y148369D01*
X85588Y148869D01*
X85589Y148873D01*
X85591Y148873D01*
X85991Y149473D01*
X85990Y149482D01*
X85997Y149484D01*
X86197Y150084D01*
X86195Y150091D01*
X86199Y150093D01*
X86399Y151493D01*
X86392Y151506D01*
X86397Y151514D01*
X86197Y152214D01*
X86196Y152215D01*
X86197Y152216D01*
X85997Y152816D01*
X85992Y152819D01*
X85994Y152822D01*
X85694Y153422D01*
X85684Y153427D01*
X85685Y153435D01*
X85285Y153835D01*
X85278Y153836D01*
X85277Y153841D01*
X84677Y154241D01*
X84673Y154241D01*
X84672Y154244D01*
X84072Y154544D01*
X84067Y154543D01*
X84066Y154547D01*
X83466Y154747D01*
X83459Y154745D01*
X83457Y154749D01*
X82757Y154849D01*
X82749Y154844D01*
X82744Y154849D01*
X81944Y154749D01*
X81943Y154748D01*
X81942Y154749D01*
X81342Y154649D01*
X81335Y154641D01*
X81328Y154644D01*
X80728Y154344D01*
X80723Y154334D01*
X80715Y154335D01*
X80215Y153835D01*
X80215Y153831D01*
X80212Y153831D01*
X79812Y153331D01*
X79811Y153318D01*
X79803Y153316D01*
X79603Y152716D01*
X79605Y152709D01*
X79601Y152707D01*
X79501Y152007D01*
X79504Y152002D01*
X79501Y152000D01*
X79501Y151200D01*
X79520Y151175D01*
X79519Y151162D01*
X80019Y150762D01*
X80027Y150761D01*
X80028Y150756D01*
X80628Y150456D01*
X80639Y150458D01*
X80645Y150458D01*
X80650Y150451D01*
X83341Y150451D01*
X83770Y150279D01*
X83421Y149843D01*
X82743Y149649D01*
X82058Y149649D01*
X81466Y149847D01*
X81464Y149846D01*
X81464Y149847D01*
X80764Y150047D01*
X80737Y150037D01*
X80725Y150042D01*
X80225Y149742D01*
X80218Y149726D01*
X80207Y149724D01*
X79807Y149024D01*
X79810Y149000D01*
X79802Y148990D01*
X79902Y148490D01*
X79912Y148481D01*
X79909Y148473D01*
X80109Y148173D01*
X80126Y148167D01*
X80128Y148156D01*
X80728Y147856D01*
X80735Y147857D01*
X80736Y147853D01*
X81436Y147653D01*
X81446Y147656D01*
X81450Y147651D01*
X83250Y147651D01*
X83255Y147654D01*
G37*
%LPC*%
G36*
X84820Y35419D02*
X84820Y35419D01*
X84342Y35898D01*
X84149Y36379D01*
X84149Y36953D01*
X84529Y37428D01*
X85116Y37623D01*
X85118Y37627D01*
X85121Y37625D01*
X90121Y39925D01*
X90127Y39936D01*
X90135Y39935D01*
X90435Y40235D01*
X90435Y40237D01*
X90436Y40237D01*
X90436Y40241D01*
X90438Y40257D01*
X90441Y40260D01*
X90439Y40263D01*
X90443Y40294D01*
X90425Y40297D01*
X90422Y40314D01*
X89822Y40614D01*
X89820Y40614D01*
X89820Y40615D01*
X85221Y42614D01*
X84626Y42912D01*
X84242Y43200D01*
X84053Y43768D01*
X84342Y44442D01*
X84820Y44921D01*
X85300Y44921D01*
X85335Y44947D01*
X85345Y44950D01*
X85357Y44977D01*
X85370Y44931D01*
X85377Y44933D01*
X85378Y44926D01*
X85978Y44626D01*
X92678Y41326D01*
X93263Y41033D01*
X93551Y40458D01*
X93551Y39784D01*
X93263Y39305D01*
X92675Y38913D01*
X85982Y35616D01*
X85293Y35419D01*
X84820Y35419D01*
G37*
%LPD*%
G36*
X228868Y147665D02*
X228868Y147665D01*
X228881Y147662D01*
X229381Y148062D01*
X229385Y148077D01*
X229390Y148081D01*
X229387Y148085D01*
X229387Y148086D01*
X229399Y148092D01*
X229499Y148692D01*
X229496Y148697D01*
X229499Y148700D01*
X229499Y154888D01*
X229680Y155251D01*
X231750Y155251D01*
X231754Y155254D01*
X231757Y155251D01*
X232457Y155351D01*
X232472Y155367D01*
X232485Y155365D01*
X232885Y155765D01*
X232889Y155792D01*
X232899Y155800D01*
X232899Y156500D01*
X232892Y156509D01*
X232897Y156516D01*
X232697Y157116D01*
X232662Y157139D01*
X232657Y157149D01*
X231957Y157249D01*
X231952Y157246D01*
X231950Y157249D01*
X224350Y157249D01*
X224335Y157238D01*
X224325Y157242D01*
X223825Y156942D01*
X223811Y156908D01*
X223801Y156900D01*
X223801Y156200D01*
X223804Y156195D01*
X223801Y156192D01*
X223901Y155592D01*
X223923Y155571D01*
X223925Y155558D01*
X224425Y155258D01*
X224443Y155260D01*
X224450Y155251D01*
X226546Y155251D01*
X227101Y155158D01*
X227101Y149100D01*
X227104Y149096D01*
X227101Y149093D01*
X227201Y148393D01*
X227206Y148388D01*
X227203Y148384D01*
X227403Y147784D01*
X227438Y147761D01*
X227443Y147751D01*
X228143Y147651D01*
X228148Y147654D01*
X228150Y147651D01*
X228850Y147651D01*
X228868Y147665D01*
G37*
G36*
X167354Y147654D02*
X167354Y147654D01*
X167357Y147651D01*
X168057Y147751D01*
X168079Y147773D01*
X168092Y147775D01*
X168392Y148275D01*
X168392Y148278D01*
X168390Y148293D01*
X168399Y148300D01*
X168399Y149000D01*
X168396Y149005D01*
X168399Y149008D01*
X168299Y149608D01*
X168295Y149611D01*
X168297Y149614D01*
X167897Y151014D01*
X167892Y151018D01*
X167894Y151022D01*
X167594Y151622D01*
X167591Y151623D01*
X167592Y151625D01*
X167293Y152123D01*
X166994Y152722D01*
X166990Y152724D01*
X166991Y152727D01*
X166591Y153327D01*
X166590Y153328D01*
X166590Y153329D01*
X165796Y154420D01*
X165710Y154851D01*
X169050Y154851D01*
X169065Y154862D01*
X169075Y154858D01*
X169575Y155158D01*
X169587Y155186D01*
X169599Y155193D01*
X169699Y155893D01*
X169696Y155898D01*
X169699Y155900D01*
X169699Y156600D01*
X169685Y156618D01*
X169688Y156631D01*
X169288Y157131D01*
X169264Y157137D01*
X169258Y157149D01*
X168658Y157249D01*
X168653Y157246D01*
X168650Y157249D01*
X163950Y157249D01*
X163946Y157246D01*
X163943Y157249D01*
X163243Y157149D01*
X163225Y157130D01*
X163212Y157131D01*
X162812Y156631D01*
X162811Y156613D01*
X162801Y156608D01*
X162701Y156008D01*
X162707Y155998D01*
X162701Y155992D01*
X162801Y155392D01*
X162808Y155386D01*
X162805Y155381D01*
X163105Y154681D01*
X163107Y154679D01*
X163106Y154678D01*
X163706Y153478D01*
X163708Y153477D01*
X163707Y153475D01*
X165107Y151075D01*
X165506Y150378D01*
X165803Y149685D01*
X165902Y149190D01*
X166001Y148692D01*
X166101Y147993D01*
X166123Y147971D01*
X166125Y147958D01*
X166625Y147658D01*
X166643Y147660D01*
X166650Y147651D01*
X167350Y147651D01*
X167354Y147654D01*
G37*
G36*
X35259Y147658D02*
X35259Y147658D01*
X35266Y147653D01*
X35866Y147853D01*
X35883Y147878D01*
X35896Y147882D01*
X36096Y148382D01*
X36093Y148390D01*
X36099Y148393D01*
X36199Y149093D01*
X36196Y149098D01*
X36199Y149100D01*
X36199Y151097D01*
X36296Y151774D01*
X36767Y152151D01*
X37438Y152151D01*
X38013Y151863D01*
X38303Y151285D01*
X38401Y150696D01*
X38401Y148600D01*
X38404Y148595D01*
X38401Y148592D01*
X38501Y147992D01*
X38523Y147971D01*
X38525Y147958D01*
X39025Y147658D01*
X39043Y147660D01*
X39050Y147651D01*
X39950Y147651D01*
X39961Y147659D01*
X39968Y147654D01*
X40468Y147854D01*
X40483Y147878D01*
X40486Y147881D01*
X40497Y147884D01*
X40697Y148484D01*
X40693Y148495D01*
X40699Y148500D01*
X40699Y154000D01*
X40683Y154021D01*
X40685Y154035D01*
X40285Y154435D01*
X40263Y154438D01*
X40257Y154449D01*
X39557Y154549D01*
X39552Y154546D01*
X39547Y154546D01*
X39544Y154549D01*
X38744Y154449D01*
X38721Y154427D01*
X38708Y154425D01*
X38427Y153957D01*
X38072Y154045D01*
X37581Y154438D01*
X37562Y154439D01*
X37557Y154449D01*
X36857Y154549D01*
X36852Y154546D01*
X36846Y154546D01*
X36843Y154549D01*
X36143Y154449D01*
X36138Y154444D01*
X36134Y154447D01*
X35534Y154247D01*
X35527Y154236D01*
X35519Y154238D01*
X35019Y153838D01*
X35018Y153834D01*
X35015Y153835D01*
X34515Y153335D01*
X34515Y153331D01*
X34512Y153331D01*
X34112Y152831D01*
X34111Y152817D01*
X34103Y152814D01*
X34095Y152786D01*
X34081Y152737D01*
X34039Y152589D01*
X33996Y152441D01*
X33982Y152392D01*
X33940Y152244D01*
X33903Y152114D01*
X33904Y152110D01*
X33901Y152108D01*
X33801Y151508D01*
X33803Y151506D01*
X33803Y151505D01*
X33804Y151503D01*
X33801Y151500D01*
X33801Y148700D01*
X33804Y148695D01*
X33801Y148692D01*
X33901Y148092D01*
X33917Y148077D01*
X33915Y148065D01*
X34315Y147665D01*
X34342Y147662D01*
X34350Y147651D01*
X35250Y147651D01*
X35259Y147658D01*
G37*
%LPC*%
G36*
X193444Y182549D02*
X193444Y182549D01*
X192889Y182642D01*
X192889Y183296D01*
X192982Y183851D01*
X218591Y183851D01*
X218591Y183009D01*
X218407Y182549D01*
X193444Y182549D01*
G37*
%LPD*%
%LPC*%
G36*
X185004Y23979D02*
X185004Y23979D01*
X184449Y24072D01*
X184449Y49681D01*
X185291Y49681D01*
X185751Y49497D01*
X185751Y24534D01*
X185658Y23979D01*
X185004Y23979D01*
G37*
%LPD*%
G36*
X99254Y147654D02*
X99254Y147654D01*
X99257Y147651D01*
X99957Y147751D01*
X99979Y147773D01*
X99992Y147775D01*
X100292Y148275D01*
X100292Y148278D01*
X100290Y148293D01*
X100299Y148300D01*
X100299Y151696D01*
X100392Y152251D01*
X101050Y152251D01*
X101075Y152270D01*
X101088Y152269D01*
X101488Y152769D01*
X101489Y152792D01*
X101499Y152800D01*
X101499Y153600D01*
X101492Y153609D01*
X101497Y153616D01*
X101297Y154216D01*
X101272Y154233D01*
X101268Y154246D01*
X100772Y154444D01*
X100299Y154728D01*
X100299Y155300D01*
X100296Y155304D01*
X100299Y155307D01*
X100199Y156007D01*
X100191Y156015D01*
X100194Y156022D01*
X99894Y156622D01*
X99884Y156627D01*
X99885Y156635D01*
X99385Y157135D01*
X99381Y157135D01*
X99381Y157138D01*
X98881Y157538D01*
X98868Y157539D01*
X98866Y157547D01*
X98266Y157747D01*
X98259Y157744D01*
X98259Y157745D01*
X98256Y157749D01*
X97456Y157849D01*
X97450Y157846D01*
X97439Y157846D01*
X97438Y157845D01*
X97434Y157847D01*
X96834Y157647D01*
X96825Y157633D01*
X96815Y157635D01*
X96415Y157235D01*
X96414Y157223D01*
X96408Y157219D01*
X96412Y157213D01*
X96412Y157212D01*
X96401Y157206D01*
X96301Y156406D01*
X96309Y156393D01*
X96303Y156384D01*
X96503Y155784D01*
X96523Y155771D01*
X96525Y155758D01*
X97025Y155458D01*
X97039Y155459D01*
X97043Y155451D01*
X97720Y155355D01*
X97995Y154896D01*
X97819Y154454D01*
X97157Y154549D01*
X97152Y154546D01*
X97141Y154546D01*
X97138Y154548D01*
X96338Y154348D01*
X96323Y154330D01*
X96311Y154330D01*
X96011Y153930D01*
X96011Y153922D01*
X96007Y153919D01*
X96011Y153914D01*
X96011Y153912D01*
X96001Y153907D01*
X95901Y153207D01*
X95909Y153193D01*
X95903Y153184D01*
X96103Y152584D01*
X96122Y152572D01*
X96123Y152559D01*
X96723Y152159D01*
X96743Y152160D01*
X96750Y152151D01*
X98001Y152151D01*
X98001Y148800D01*
X98004Y148796D01*
X98001Y148793D01*
X98101Y148093D01*
X98117Y148078D01*
X98115Y148065D01*
X98515Y147665D01*
X98542Y147662D01*
X98550Y147651D01*
X99250Y147651D01*
X99254Y147654D01*
G37*
G36*
X91754Y147654D02*
X91754Y147654D01*
X91757Y147651D01*
X92457Y147751D01*
X92479Y147773D01*
X92492Y147775D01*
X92792Y148275D01*
X92792Y148278D01*
X92790Y148293D01*
X92799Y148300D01*
X92799Y151696D01*
X92892Y152251D01*
X93550Y152251D01*
X93580Y152273D01*
X93592Y152275D01*
X93892Y152775D01*
X93891Y152789D01*
X93899Y152794D01*
X93999Y153594D01*
X93991Y153607D01*
X93997Y153616D01*
X93797Y154216D01*
X93770Y154234D01*
X93766Y154247D01*
X93173Y154444D01*
X92799Y154725D01*
X92799Y155300D01*
X92793Y155308D01*
X92797Y155314D01*
X92597Y156014D01*
X92592Y156018D01*
X92594Y156022D01*
X92294Y156622D01*
X92287Y156625D01*
X92288Y156631D01*
X91888Y157131D01*
X91881Y157133D01*
X91881Y157138D01*
X91381Y157538D01*
X91368Y157539D01*
X91366Y157547D01*
X90766Y157747D01*
X90759Y157744D01*
X90759Y157745D01*
X90756Y157749D01*
X89956Y157849D01*
X89950Y157846D01*
X89939Y157846D01*
X89938Y157845D01*
X89934Y157847D01*
X89334Y157647D01*
X89325Y157633D01*
X89315Y157635D01*
X88915Y157235D01*
X88914Y157223D01*
X88908Y157219D01*
X88912Y157213D01*
X88912Y157212D01*
X88901Y157206D01*
X88801Y156406D01*
X88809Y156393D01*
X88803Y156384D01*
X89003Y155784D01*
X89023Y155771D01*
X89025Y155758D01*
X89525Y155458D01*
X89539Y155459D01*
X89543Y155451D01*
X90220Y155355D01*
X90495Y154896D01*
X90319Y154454D01*
X89657Y154549D01*
X89652Y154546D01*
X89641Y154546D01*
X89638Y154548D01*
X88838Y154348D01*
X88823Y154330D01*
X88811Y154330D01*
X88511Y153930D01*
X88511Y153922D01*
X88507Y153919D01*
X88511Y153914D01*
X88511Y153912D01*
X88501Y153907D01*
X88401Y153207D01*
X88409Y153193D01*
X88403Y153184D01*
X88603Y152584D01*
X88622Y152572D01*
X88623Y152559D01*
X89223Y152159D01*
X89243Y152160D01*
X89250Y152151D01*
X90501Y152151D01*
X90501Y148100D01*
X90520Y148075D01*
X90519Y148062D01*
X91019Y147662D01*
X91042Y147661D01*
X91050Y147651D01*
X91750Y147651D01*
X91754Y147654D01*
G37*
%LPC*%
G36*
X198657Y171749D02*
X198657Y171749D01*
X198186Y172126D01*
X198089Y172803D01*
X198089Y178900D01*
X198081Y178911D01*
X198086Y178918D01*
X197886Y179418D01*
X197845Y179443D01*
X197840Y179449D01*
X195160Y179449D01*
X194786Y179823D01*
X194690Y180495D01*
X194879Y181060D01*
X195547Y181251D01*
X202337Y181251D01*
X203217Y181153D01*
X203594Y180777D01*
X203690Y180105D01*
X203503Y179544D01*
X202837Y179449D01*
X200840Y179449D01*
X200831Y179442D01*
X200824Y179447D01*
X200224Y179247D01*
X200194Y179203D01*
X200191Y179200D01*
X200191Y172409D01*
X200003Y171940D01*
X199432Y171749D01*
X198657Y171749D01*
G37*
%LPD*%
%LPC*%
G36*
X187240Y25969D02*
X187240Y25969D01*
X187049Y26637D01*
X187049Y33427D01*
X187147Y34307D01*
X187523Y34684D01*
X188195Y34780D01*
X188756Y34593D01*
X188851Y33927D01*
X188851Y31930D01*
X188858Y31921D01*
X188853Y31914D01*
X189053Y31314D01*
X189097Y31284D01*
X189100Y31281D01*
X195891Y31281D01*
X196361Y31093D01*
X196551Y30522D01*
X196551Y29747D01*
X196174Y29276D01*
X195497Y29179D01*
X189400Y29179D01*
X189389Y29171D01*
X189382Y29176D01*
X188882Y28976D01*
X188857Y28935D01*
X188851Y28930D01*
X188851Y26250D01*
X188477Y25876D01*
X187805Y25780D01*
X187240Y25969D01*
G37*
%LPD*%
G36*
X29854Y147654D02*
X29854Y147654D01*
X29857Y147651D01*
X30557Y147751D01*
X30565Y147759D01*
X30572Y147756D01*
X31772Y148356D01*
X31784Y148380D01*
X31797Y148384D01*
X31997Y148984D01*
X31989Y149007D01*
X31996Y149018D01*
X31796Y149518D01*
X31786Y149524D01*
X31788Y149532D01*
X31288Y150132D01*
X31258Y150138D01*
X31250Y150149D01*
X30650Y150149D01*
X30634Y150137D01*
X30623Y150141D01*
X30029Y149745D01*
X29347Y149550D01*
X28679Y149646D01*
X28527Y149874D01*
X29065Y150053D01*
X29764Y150253D01*
X29765Y150254D01*
X29766Y150253D01*
X30366Y150453D01*
X30369Y150458D01*
X30372Y150456D01*
X30972Y150756D01*
X30979Y150769D01*
X30988Y150769D01*
X31388Y151269D01*
X31389Y151278D01*
X31390Y151279D01*
X31395Y151281D01*
X31695Y151981D01*
X31693Y151989D01*
X31699Y151992D01*
X31799Y152592D01*
X31796Y152597D01*
X31799Y152600D01*
X31799Y153300D01*
X31791Y153311D01*
X31796Y153318D01*
X31596Y153818D01*
X31584Y153826D01*
X31585Y153835D01*
X31185Y154235D01*
X31173Y154236D01*
X31172Y154244D01*
X30572Y154544D01*
X30565Y154543D01*
X30564Y154547D01*
X29864Y154747D01*
X29858Y154745D01*
X29856Y154749D01*
X29056Y154849D01*
X29048Y154844D01*
X29043Y154849D01*
X27643Y154649D01*
X27639Y154644D01*
X27638Y154644D01*
X27634Y154647D01*
X27034Y154447D01*
X27025Y154433D01*
X27015Y154435D01*
X26515Y153935D01*
X26514Y153923D01*
X26508Y153919D01*
X26512Y153913D01*
X26510Y153894D01*
X26503Y153884D01*
X26703Y153284D01*
X26711Y153279D01*
X26709Y153273D01*
X27109Y152673D01*
X27142Y152661D01*
X27150Y152651D01*
X27650Y152651D01*
X27658Y152657D01*
X27664Y152653D01*
X28360Y152852D01*
X29145Y152950D01*
X29681Y152771D01*
X29516Y152442D01*
X28740Y152248D01*
X28142Y152149D01*
X28139Y152145D01*
X28136Y152147D01*
X27436Y151947D01*
X27428Y151936D01*
X27419Y151938D01*
X26919Y151538D01*
X26917Y151531D01*
X26912Y151531D01*
X26512Y151031D01*
X26511Y151020D01*
X26508Y151017D01*
X26503Y151016D01*
X26303Y150416D01*
X26307Y150405D01*
X26301Y150400D01*
X26301Y149700D01*
X26304Y149696D01*
X26301Y149693D01*
X26401Y148993D01*
X26411Y148983D01*
X26408Y148975D01*
X26708Y148475D01*
X26716Y148471D01*
X26715Y148465D01*
X27215Y147965D01*
X27231Y147963D01*
X27234Y147953D01*
X27834Y147753D01*
X27840Y147755D01*
X27842Y147751D01*
X28442Y147651D01*
X28447Y147654D01*
X28450Y147651D01*
X29850Y147651D01*
X29854Y147654D01*
G37*
G36*
X66458Y147657D02*
X66458Y147657D01*
X66464Y147653D01*
X67164Y147853D01*
X67169Y147860D01*
X67175Y147858D01*
X67675Y148158D01*
X67680Y148170D01*
X67689Y148170D01*
X67989Y148570D01*
X67989Y148577D01*
X67994Y148578D01*
X68294Y149178D01*
X68292Y149189D01*
X68299Y149193D01*
X68399Y149893D01*
X68396Y149898D01*
X68399Y149900D01*
X68399Y151967D01*
X69368Y152354D01*
X69384Y152380D01*
X69397Y152384D01*
X69597Y152984D01*
X69593Y152995D01*
X69599Y153000D01*
X69599Y153800D01*
X69588Y153815D01*
X69592Y153825D01*
X69292Y154325D01*
X69270Y154334D01*
X69266Y154347D01*
X68677Y154543D01*
X68399Y154820D01*
X68399Y156200D01*
X68391Y156211D01*
X68396Y156218D01*
X68196Y156718D01*
X68168Y156735D01*
X68164Y156747D01*
X67464Y156947D01*
X67450Y156942D01*
X67444Y156949D01*
X66644Y156849D01*
X66628Y156833D01*
X66615Y156835D01*
X66215Y156435D01*
X66212Y156414D01*
X66201Y156408D01*
X66101Y155808D01*
X66104Y155803D01*
X66101Y155800D01*
X66101Y154457D01*
X65457Y154549D01*
X65452Y154546D01*
X65450Y154549D01*
X64750Y154549D01*
X64745Y154546D01*
X64732Y154536D01*
X64720Y154539D01*
X64320Y154239D01*
X64316Y154223D01*
X64304Y154214D01*
X64303Y154214D01*
X64289Y154165D01*
X64275Y154116D01*
X64233Y153968D01*
X64190Y153820D01*
X64176Y153771D01*
X64134Y153623D01*
X64103Y153514D01*
X64108Y153501D01*
X64101Y153495D01*
X64201Y152595D01*
X64220Y152574D01*
X64220Y152561D01*
X64620Y152261D01*
X64638Y152261D01*
X64643Y152251D01*
X65343Y152151D01*
X65353Y152157D01*
X65358Y152151D01*
X65917Y152245D01*
X66101Y151692D01*
X66101Y150414D01*
X65820Y149945D01*
X65143Y149849D01*
X65133Y149839D01*
X65125Y149842D01*
X64625Y149542D01*
X64615Y149518D01*
X64603Y149514D01*
X64581Y149437D01*
X64567Y149388D01*
X64525Y149240D01*
X64482Y149092D01*
X64468Y149043D01*
X64426Y148895D01*
X64403Y148814D01*
X64409Y148798D01*
X64407Y148797D01*
X64409Y148795D01*
X64403Y148786D01*
X64603Y148086D01*
X64617Y148076D01*
X64615Y148065D01*
X65015Y147665D01*
X65042Y147662D01*
X65050Y147651D01*
X66450Y147651D01*
X66458Y147657D01*
G37*
G36*
X74255Y147654D02*
X74255Y147654D01*
X74258Y147651D01*
X74858Y147751D01*
X74861Y147755D01*
X74864Y147753D01*
X75564Y147953D01*
X75570Y147962D01*
X75577Y147959D01*
X76177Y148359D01*
X76180Y148366D01*
X76185Y148365D01*
X76685Y148865D01*
X76685Y148869D01*
X76688Y148869D01*
X77088Y149369D01*
X77089Y149377D01*
X77094Y149378D01*
X77394Y149978D01*
X77392Y149989D01*
X77399Y149993D01*
X77499Y150693D01*
X77496Y150698D01*
X77499Y150700D01*
X77499Y151400D01*
X77496Y151404D01*
X77499Y151407D01*
X77399Y152107D01*
X77394Y152112D01*
X77397Y152116D01*
X77197Y152716D01*
X77189Y152721D01*
X77191Y152727D01*
X76791Y153327D01*
X76788Y153328D01*
X76788Y153331D01*
X76388Y153831D01*
X76378Y153833D01*
X76377Y153841D01*
X75777Y154241D01*
X75768Y154240D01*
X75766Y154247D01*
X75166Y154447D01*
X75164Y154446D01*
X75164Y154447D01*
X74464Y154647D01*
X74456Y154644D01*
X74454Y154644D01*
X74450Y154649D01*
X73850Y154649D01*
X73846Y154646D01*
X73843Y154649D01*
X73143Y154549D01*
X73140Y154546D01*
X73139Y154546D01*
X73136Y154547D01*
X72436Y154347D01*
X72430Y154339D01*
X72423Y154341D01*
X71823Y153941D01*
X71819Y153931D01*
X71812Y153931D01*
X71412Y153431D01*
X71411Y153402D01*
X71401Y153392D01*
X71501Y152792D01*
X71513Y152781D01*
X71510Y152771D01*
X72010Y152071D01*
X72024Y152067D01*
X72025Y152058D01*
X72525Y151758D01*
X72557Y151761D01*
X72568Y151754D01*
X73068Y151954D01*
X73069Y151955D01*
X73760Y152251D01*
X74433Y152251D01*
X74908Y151871D01*
X75102Y151289D01*
X75197Y150620D01*
X74629Y150146D01*
X74053Y150050D01*
X73368Y150246D01*
X72772Y150544D01*
X72743Y150539D01*
X72732Y150546D01*
X72232Y150346D01*
X72223Y150331D01*
X72212Y150332D01*
X71712Y149732D01*
X71712Y149723D01*
X71706Y149722D01*
X71406Y149122D01*
X71411Y149093D01*
X71404Y149082D01*
X71604Y148582D01*
X71619Y148573D01*
X71618Y148562D01*
X72218Y148062D01*
X72227Y148062D01*
X72228Y148056D01*
X72828Y147756D01*
X72839Y147758D01*
X72843Y147751D01*
X73543Y147651D01*
X73548Y147654D01*
X73550Y147651D01*
X74250Y147651D01*
X74255Y147654D01*
G37*
%LPC*%
G36*
X168420Y34159D02*
X168420Y34159D01*
X168046Y34533D01*
X167949Y35213D01*
X167949Y37910D01*
X167933Y37931D01*
X167935Y37945D01*
X167335Y38545D01*
X167309Y38548D01*
X167301Y38559D01*
X161205Y38659D01*
X160631Y38755D01*
X160349Y39224D01*
X160349Y40102D01*
X160539Y40671D01*
X161108Y40861D01*
X168536Y40861D01*
X168552Y40798D01*
X168599Y40761D01*
X168600Y40761D01*
X169284Y40761D01*
X169654Y40483D01*
X169751Y39807D01*
X169751Y35013D01*
X169656Y34347D01*
X169092Y34159D01*
X168420Y34159D01*
G37*
%LPD*%
%LPC*%
G36*
X143117Y25649D02*
X143117Y25649D01*
X142646Y26026D01*
X142549Y26703D01*
X142549Y30100D01*
X142513Y30147D01*
X142506Y30142D01*
X142500Y30149D01*
X135904Y30149D01*
X135331Y30245D01*
X135048Y30716D01*
X134950Y31495D01*
X135141Y32067D01*
X135614Y32351D01*
X143097Y32351D01*
X143787Y32252D01*
X144255Y32065D01*
X144351Y31397D01*
X144351Y26603D01*
X144255Y25930D01*
X143786Y25649D01*
X143117Y25649D01*
G37*
%LPD*%
%LPC*%
G36*
X62414Y173149D02*
X62414Y173149D01*
X61849Y173243D01*
X61659Y173907D01*
X61659Y174572D01*
X62127Y174853D01*
X62813Y174951D01*
X66010Y174951D01*
X66057Y174987D01*
X66052Y174994D01*
X66059Y175000D01*
X66059Y181097D01*
X66159Y181792D01*
X66254Y182267D01*
X66822Y182551D01*
X67696Y182551D01*
X68165Y182270D01*
X68261Y181696D01*
X68261Y173525D01*
X67891Y173247D01*
X67107Y173149D01*
X62414Y173149D01*
G37*
%LPD*%
%LPC*%
G36*
X160733Y100949D02*
X160733Y100949D01*
X160060Y101045D01*
X159772Y101525D01*
X159740Y101538D01*
X159732Y101549D01*
X159701Y101551D01*
X159730Y101551D01*
X159777Y101587D01*
X159772Y101594D01*
X159779Y101600D01*
X159779Y102286D01*
X160060Y102755D01*
X160733Y102851D01*
X161630Y102851D01*
X161645Y102862D01*
X161664Y102864D01*
X161663Y102875D01*
X161677Y102887D01*
X161659Y102911D01*
X161655Y102942D01*
X161159Y103240D01*
X160567Y103733D01*
X160175Y104322D01*
X159979Y104908D01*
X159979Y105593D01*
X160001Y105671D01*
X160002Y105671D01*
X160001Y105671D01*
X160044Y105819D01*
X160058Y105868D01*
X160100Y106016D01*
X160142Y106163D01*
X160156Y106213D01*
X160176Y106282D01*
X160469Y106868D01*
X160961Y107262D01*
X161453Y107655D01*
X162137Y107851D01*
X162823Y107851D01*
X163510Y107654D01*
X164000Y107361D01*
X164492Y106869D01*
X164883Y106282D01*
X164981Y105696D01*
X164981Y105009D01*
X164795Y104545D01*
X164035Y104450D01*
X163469Y104639D01*
X163277Y105216D01*
X163077Y105816D01*
X163048Y105835D01*
X163044Y105847D01*
X162344Y106047D01*
X162312Y106035D01*
X162299Y106038D01*
X161799Y105638D01*
X161790Y105603D01*
X161785Y105599D01*
X161786Y105597D01*
X161781Y105592D01*
X161881Y104992D01*
X161897Y104977D01*
X161895Y104965D01*
X162395Y104465D01*
X162402Y104464D01*
X162403Y104459D01*
X163003Y104059D01*
X163005Y104059D01*
X163005Y104057D01*
X164200Y103361D01*
X164691Y102870D01*
X164981Y102386D01*
X164981Y101712D01*
X164696Y101141D01*
X164023Y100949D01*
X160733Y100949D01*
G37*
%LPD*%
G36*
X126553Y147653D02*
X126553Y147653D01*
X126555Y147651D01*
X127455Y147751D01*
X127465Y147760D01*
X127472Y147756D01*
X128072Y148056D01*
X128077Y148066D01*
X128085Y148065D01*
X128485Y148465D01*
X128488Y148485D01*
X128498Y148490D01*
X128598Y148990D01*
X128597Y148992D01*
X128599Y148993D01*
X128699Y149693D01*
X128698Y149694D01*
X128699Y149694D01*
X128799Y150494D01*
X128797Y150498D01*
X128799Y150500D01*
X128799Y156600D01*
X128796Y156604D01*
X128799Y156607D01*
X128699Y157307D01*
X128686Y157319D01*
X128689Y157330D01*
X128389Y157730D01*
X128362Y157737D01*
X128355Y157749D01*
X127455Y157849D01*
X127450Y157846D01*
X127439Y157846D01*
X127436Y157847D01*
X126736Y157647D01*
X126721Y157627D01*
X126708Y157625D01*
X126408Y157125D01*
X126408Y157121D01*
X126407Y157120D01*
X126409Y157117D01*
X126410Y157107D01*
X126401Y157100D01*
X126401Y150316D01*
X126121Y149943D01*
X125436Y149747D01*
X125419Y149725D01*
X125406Y149722D01*
X125206Y149322D01*
X125209Y149306D01*
X125201Y149300D01*
X125201Y148400D01*
X125208Y148391D01*
X125203Y148384D01*
X125403Y147784D01*
X125433Y147764D01*
X125438Y147752D01*
X125838Y147652D01*
X125846Y147656D01*
X125850Y147651D01*
X126550Y147651D01*
X126553Y147653D01*
G37*
G36*
X121053Y147653D02*
X121053Y147653D01*
X121055Y147651D01*
X121955Y147751D01*
X121965Y147760D01*
X121972Y147756D01*
X122572Y148056D01*
X122579Y148070D01*
X122589Y148070D01*
X122889Y148470D01*
X122889Y148480D01*
X122896Y148482D01*
X123096Y148982D01*
X123093Y148990D01*
X123099Y148993D01*
X123199Y149693D01*
X123196Y149698D01*
X123199Y149700D01*
X123199Y157300D01*
X123183Y157321D01*
X123185Y157335D01*
X122785Y157735D01*
X122762Y157738D01*
X122756Y157749D01*
X121956Y157849D01*
X121950Y157846D01*
X121939Y157846D01*
X121936Y157847D01*
X121236Y157647D01*
X121221Y157627D01*
X121208Y157625D01*
X120908Y157125D01*
X120908Y157121D01*
X120907Y157120D01*
X120909Y157117D01*
X120910Y157107D01*
X120901Y157100D01*
X120901Y150320D01*
X120523Y149943D01*
X119934Y149747D01*
X119923Y149730D01*
X119911Y149730D01*
X119611Y149330D01*
X119611Y149308D01*
X119601Y149300D01*
X119601Y148400D01*
X119608Y148391D01*
X119603Y148384D01*
X119803Y147784D01*
X119833Y147764D01*
X119838Y147752D01*
X120238Y147652D01*
X120246Y147656D01*
X120250Y147651D01*
X121050Y147651D01*
X121053Y147653D01*
G37*
G36*
X13952Y147656D02*
X13952Y147656D01*
X13957Y147651D01*
X14657Y147751D01*
X14679Y147773D01*
X14692Y147775D01*
X14992Y148275D01*
X14992Y148278D01*
X14990Y148293D01*
X14999Y148300D01*
X14999Y153700D01*
X14992Y153709D01*
X14997Y153716D01*
X14797Y154316D01*
X14770Y154334D01*
X14766Y154347D01*
X14166Y154547D01*
X14161Y154545D01*
X14161Y154546D01*
X14153Y154546D01*
X14150Y154549D01*
X13250Y154549D01*
X13245Y154546D01*
X13244Y154546D01*
X13234Y154538D01*
X13225Y154542D01*
X12725Y154242D01*
X12719Y154228D01*
X12709Y154227D01*
X12539Y153972D01*
X12081Y154338D01*
X12071Y154339D01*
X12069Y154345D01*
X11369Y154645D01*
X11362Y154644D01*
X11348Y154644D01*
X11343Y154649D01*
X10643Y154549D01*
X10642Y154548D01*
X10642Y154549D01*
X10042Y154449D01*
X10020Y154425D01*
X10019Y154424D01*
X10006Y154422D01*
X9706Y153822D01*
X9706Y153820D01*
X9709Y153806D01*
X9701Y153800D01*
X9701Y153200D01*
X9709Y153189D01*
X9705Y153181D01*
X10005Y152481D01*
X10020Y152472D01*
X10019Y152462D01*
X10519Y152062D01*
X10555Y152061D01*
X10566Y152053D01*
X11161Y152252D01*
X11842Y152349D01*
X12410Y152065D01*
X12601Y151492D01*
X12601Y148800D01*
X12604Y148796D01*
X12601Y148793D01*
X12701Y148093D01*
X12720Y148074D01*
X12720Y148061D01*
X13120Y147761D01*
X13138Y147761D01*
X13144Y147751D01*
X13944Y147651D01*
X13952Y147656D01*
G37*
%LPC*%
G36*
X167738Y96949D02*
X167738Y96949D01*
X167167Y97140D01*
X166979Y97609D01*
X166979Y105786D01*
X167260Y106254D01*
X168030Y106350D01*
X168803Y106254D01*
X169082Y105882D01*
X169181Y104598D01*
X169181Y97804D01*
X169085Y97231D01*
X168616Y96949D01*
X167738Y96949D01*
G37*
%LPD*%
%LPC*%
G36*
X168641Y73006D02*
X168641Y73006D01*
X168634Y73046D01*
X168613Y73042D01*
X168600Y73059D01*
X161204Y73059D01*
X160633Y73154D01*
X160349Y73722D01*
X160349Y74596D01*
X160634Y75070D01*
X161109Y75261D01*
X168597Y75261D01*
X169281Y75163D01*
X169654Y74883D01*
X169750Y74210D01*
X169653Y73433D01*
X169280Y73059D01*
X168700Y73059D01*
X168668Y73035D01*
X168656Y73033D01*
X168641Y73005D01*
X168641Y73006D01*
G37*
%LPD*%
%LPC*%
G36*
X216359Y171847D02*
X216359Y171847D01*
X215985Y172128D01*
X215889Y172704D01*
X215889Y180196D01*
X215986Y180776D01*
X216360Y181151D01*
X217236Y181151D01*
X217807Y181056D01*
X218091Y180488D01*
X218091Y173103D01*
X217992Y172413D01*
X217803Y171940D01*
X217235Y171750D01*
X216359Y171847D01*
G37*
%LPD*%
%LPC*%
G36*
X188104Y46979D02*
X188104Y46979D01*
X187524Y47076D01*
X187149Y47450D01*
X187149Y48326D01*
X187244Y48897D01*
X187812Y49181D01*
X195197Y49181D01*
X195887Y49082D01*
X196361Y48893D01*
X196550Y48325D01*
X196453Y47449D01*
X196172Y47075D01*
X195596Y46979D01*
X188104Y46979D01*
G37*
%LPD*%
G36*
X47757Y175387D02*
X47757Y175387D01*
X47755Y175390D01*
X47759Y175392D01*
X47859Y175992D01*
X47856Y175997D01*
X47859Y176000D01*
X47859Y180000D01*
X47840Y180026D01*
X47840Y180039D01*
X47440Y180339D01*
X47418Y180339D01*
X47410Y180349D01*
X46010Y180349D01*
X45997Y180340D01*
X45988Y180344D01*
X45388Y180044D01*
X45386Y180040D01*
X45383Y180041D01*
X44783Y179641D01*
X44779Y179631D01*
X44772Y179631D01*
X44372Y179131D01*
X44371Y179118D01*
X44363Y179116D01*
X44163Y178516D01*
X44165Y178509D01*
X44161Y178507D01*
X44061Y177807D01*
X44066Y177798D01*
X44061Y177793D01*
X44161Y177093D01*
X44169Y177085D01*
X44166Y177078D01*
X44466Y176478D01*
X44473Y176475D01*
X44472Y176469D01*
X44872Y175969D01*
X44876Y175968D01*
X44875Y175965D01*
X45375Y175465D01*
X45387Y175464D01*
X45388Y175456D01*
X45588Y175356D01*
X45604Y175359D01*
X45610Y175351D01*
X47710Y175351D01*
X47757Y175387D01*
G37*
G36*
X165408Y79567D02*
X165408Y79567D01*
X165414Y79563D01*
X166114Y79763D01*
X166122Y79774D01*
X166131Y79772D01*
X167131Y80572D01*
X167134Y80586D01*
X167144Y80588D01*
X167544Y81388D01*
X167541Y81404D01*
X167549Y81410D01*
X167549Y82810D01*
X167541Y82821D01*
X167546Y82828D01*
X167346Y83328D01*
X167305Y83353D01*
X167300Y83359D01*
X163200Y83359D01*
X163195Y83356D01*
X163192Y83359D01*
X162592Y83259D01*
X162558Y83223D01*
X162553Y83219D01*
X162553Y83218D01*
X162551Y83215D01*
X162554Y83213D01*
X162551Y83210D01*
X162551Y81910D01*
X162554Y81906D01*
X162551Y81903D01*
X162651Y81203D01*
X162659Y81195D01*
X162656Y81188D01*
X162956Y80588D01*
X162966Y80583D01*
X162965Y80575D01*
X163465Y80075D01*
X163477Y80074D01*
X163478Y80066D01*
X164078Y79766D01*
X164083Y79767D01*
X164084Y79763D01*
X164684Y79563D01*
X164695Y79567D01*
X164700Y79561D01*
X165400Y79561D01*
X165408Y79567D01*
G37*
G36*
X64207Y27621D02*
X64207Y27621D01*
X64215Y27629D01*
X64222Y27626D01*
X64822Y27926D01*
X64827Y27936D01*
X64835Y27935D01*
X65835Y28935D01*
X65836Y28947D01*
X65844Y28948D01*
X65944Y29148D01*
X65941Y29164D01*
X65949Y29170D01*
X65949Y31170D01*
X65913Y31217D01*
X65910Y31215D01*
X65908Y31219D01*
X65308Y31319D01*
X65303Y31316D01*
X65300Y31319D01*
X61300Y31319D01*
X61274Y31300D01*
X61261Y31300D01*
X60961Y30900D01*
X60961Y30889D01*
X60953Y30883D01*
X60958Y30876D01*
X60951Y30870D01*
X60951Y29470D01*
X60960Y29457D01*
X60956Y29448D01*
X61256Y28848D01*
X61263Y28845D01*
X61262Y28839D01*
X61662Y28339D01*
X61669Y28337D01*
X61669Y28332D01*
X62169Y27932D01*
X62177Y27931D01*
X62178Y27926D01*
X62778Y27626D01*
X62789Y27628D01*
X62793Y27621D01*
X63493Y27521D01*
X63502Y27526D01*
X63507Y27521D01*
X64207Y27621D01*
G37*
G36*
X114709Y39328D02*
X114709Y39328D01*
X114716Y39323D01*
X115316Y39523D01*
X115321Y39531D01*
X115327Y39529D01*
X115927Y39929D01*
X115930Y39936D01*
X115935Y39935D01*
X116335Y40335D01*
X116337Y40348D01*
X116345Y40350D01*
X116745Y41250D01*
X116742Y41264D01*
X116749Y41270D01*
X116749Y42570D01*
X116740Y42583D01*
X116744Y42592D01*
X116544Y42992D01*
X116507Y43011D01*
X116500Y43019D01*
X111800Y43019D01*
X111753Y42983D01*
X111755Y42980D01*
X111753Y42979D01*
X111756Y42974D01*
X111751Y42970D01*
X111751Y41570D01*
X111754Y41566D01*
X111751Y41563D01*
X111851Y40863D01*
X111864Y40850D01*
X111862Y40839D01*
X112662Y39839D01*
X112672Y39837D01*
X112673Y39829D01*
X113273Y39429D01*
X113288Y39430D01*
X113293Y39421D01*
X113993Y39321D01*
X113998Y39324D01*
X114000Y39321D01*
X114700Y39321D01*
X114709Y39328D01*
G37*
%LPC*%
G36*
X145928Y212640D02*
X145928Y212640D01*
X145465Y212733D01*
X145433Y212732D01*
X145390Y212740D01*
X144980Y212740D01*
X144660Y212900D01*
X144627Y212908D01*
X144582Y212929D01*
X144246Y213013D01*
X144032Y213156D01*
X143886Y213302D01*
X143706Y213571D01*
X143684Y213592D01*
X143659Y213629D01*
X143522Y213765D01*
X143351Y214280D01*
X143338Y214300D01*
X143330Y214330D01*
X143242Y214506D01*
X143170Y214722D01*
X143170Y216345D01*
X143420Y216220D01*
X143435Y216216D01*
X143448Y216207D01*
X143582Y216181D01*
X143589Y216180D01*
X143590Y216180D01*
X143700Y216180D01*
X143820Y216120D01*
X143835Y216116D01*
X143848Y216107D01*
X143982Y216081D01*
X143989Y216080D01*
X143990Y216080D01*
X144300Y216080D01*
X144420Y216020D01*
X144435Y216016D01*
X144448Y216007D01*
X144582Y215981D01*
X144589Y215980D01*
X144590Y215980D01*
X144728Y215980D01*
X144970Y215899D01*
X145007Y215896D01*
X145090Y215880D01*
X145428Y215880D01*
X145670Y215799D01*
X145707Y215796D01*
X145790Y215780D01*
X146100Y215780D01*
X146220Y215720D01*
X146235Y215716D01*
X146248Y215707D01*
X146382Y215681D01*
X146389Y215680D01*
X146390Y215680D01*
X146528Y215680D01*
X146744Y215608D01*
X146865Y215548D01*
X146921Y215491D01*
X146953Y215471D01*
X147020Y215420D01*
X147365Y215248D01*
X147421Y215191D01*
X147453Y215171D01*
X147520Y215120D01*
X147607Y215077D01*
X147810Y214670D01*
X147810Y214560D01*
X147813Y214545D01*
X147811Y214530D01*
X147848Y214398D01*
X147849Y214391D01*
X147850Y214391D01*
X147850Y214390D01*
X147910Y214270D01*
X147910Y213922D01*
X147829Y213680D01*
X147826Y213643D01*
X147810Y213560D01*
X147810Y213450D01*
X147778Y213385D01*
X147721Y213329D01*
X147713Y213315D01*
X147710Y213313D01*
X147706Y213305D01*
X147701Y213297D01*
X147650Y213230D01*
X147607Y213143D01*
X147520Y213100D01*
X147491Y213076D01*
X147421Y213029D01*
X147365Y212973D01*
X147100Y212840D01*
X146990Y212840D01*
X146975Y212837D01*
X146960Y212839D01*
X146828Y212802D01*
X146821Y212801D01*
X146821Y212800D01*
X146820Y212800D01*
X146700Y212740D01*
X146590Y212740D01*
X146575Y212737D01*
X146560Y212739D01*
X146428Y212702D01*
X146421Y212701D01*
X146421Y212700D01*
X146420Y212700D01*
X146345Y212663D01*
X146345Y212662D01*
X146300Y212640D01*
X145928Y212640D01*
G37*
%LPD*%
G36*
X167021Y45177D02*
X167021Y45177D01*
X167035Y45175D01*
X167435Y45575D01*
X167436Y45587D01*
X167441Y45591D01*
X167438Y45596D01*
X167449Y45602D01*
X167549Y46202D01*
X167546Y46207D01*
X167549Y46210D01*
X167549Y47610D01*
X167545Y47616D01*
X167548Y47620D01*
X167448Y48120D01*
X167404Y48159D01*
X167402Y48157D01*
X167400Y48159D01*
X162600Y48159D01*
X162553Y48123D01*
X162558Y48116D01*
X162551Y48110D01*
X162551Y46110D01*
X162560Y46097D01*
X162556Y46088D01*
X162856Y45488D01*
X162893Y45470D01*
X162900Y45461D01*
X163600Y45461D01*
X163626Y45480D01*
X163639Y45480D01*
X163939Y45880D01*
X163939Y45886D01*
X163940Y45886D01*
X163939Y45886D01*
X163939Y45898D01*
X163949Y45903D01*
X164047Y46593D01*
X164328Y47061D01*
X165091Y47061D01*
X165559Y46873D01*
X165752Y46200D01*
X165851Y45503D01*
X165873Y45481D01*
X165875Y45468D01*
X166375Y45168D01*
X166393Y45170D01*
X166400Y45161D01*
X167000Y45161D01*
X167021Y45177D01*
G37*
G36*
X117265Y151362D02*
X117265Y151362D01*
X117275Y151358D01*
X117775Y151658D01*
X117783Y151677D01*
X117790Y151682D01*
X117787Y151686D01*
X117799Y151693D01*
X117899Y152393D01*
X117894Y152402D01*
X117899Y152407D01*
X117799Y153107D01*
X117777Y153129D01*
X117775Y153142D01*
X117275Y153442D01*
X117257Y153440D01*
X117250Y153449D01*
X113850Y153449D01*
X113846Y153446D01*
X113843Y153449D01*
X113143Y153349D01*
X113119Y153324D01*
X113106Y153322D01*
X112806Y152722D01*
X112809Y152706D01*
X112801Y152700D01*
X112801Y152000D01*
X112810Y151987D01*
X112806Y151978D01*
X113106Y151378D01*
X113143Y151360D01*
X113150Y151351D01*
X117250Y151351D01*
X117265Y151362D01*
G37*
%LPC*%
G36*
X20558Y150049D02*
X20558Y150049D01*
X19979Y150242D01*
X19597Y150720D01*
X19501Y151491D01*
X19789Y152068D01*
X20267Y152451D01*
X20938Y152451D01*
X21515Y152162D01*
X21803Y151683D01*
X21899Y151008D01*
X21611Y150432D01*
X21133Y150049D01*
X20558Y150049D01*
G37*
%LPD*%
%LPC*%
G36*
X133970Y150049D02*
X133970Y150049D01*
X133496Y150524D01*
X133400Y151097D01*
X133411Y151134D01*
X133453Y151282D01*
X133467Y151331D01*
X133509Y151479D01*
X133510Y151479D01*
X133509Y151479D01*
X133552Y151627D01*
X133566Y151676D01*
X133593Y151771D01*
X134067Y152151D01*
X134736Y152151D01*
X135212Y151865D01*
X135502Y151285D01*
X135597Y150622D01*
X135224Y150342D01*
X134638Y150049D01*
X133970Y150049D01*
G37*
%LPD*%
G36*
X165681Y56667D02*
X165681Y56667D01*
X165736Y56677D01*
X165733Y56694D01*
X165749Y56702D01*
X165849Y57302D01*
X165846Y57307D01*
X165849Y57310D01*
X165849Y57910D01*
X165840Y57923D01*
X165844Y57932D01*
X165644Y58332D01*
X165591Y58358D01*
X165587Y58351D01*
X165579Y58355D01*
X164279Y57755D01*
X164251Y57702D01*
X164261Y57697D01*
X164256Y57688D01*
X164456Y57288D01*
X164476Y57278D01*
X164478Y57266D01*
X165678Y56666D01*
X165679Y56666D01*
X165679Y56665D01*
X165681Y56667D01*
G37*
G36*
X114716Y29833D02*
X114716Y29833D01*
X114727Y29829D01*
X115027Y30029D01*
X115033Y30046D01*
X115043Y30054D01*
X115038Y30060D01*
X115039Y30062D01*
X115049Y30070D01*
X115049Y31370D01*
X115048Y31372D01*
X115049Y31375D01*
X115043Y31378D01*
X115013Y31417D01*
X114998Y31406D01*
X114982Y31416D01*
X113682Y30916D01*
X113669Y30894D01*
X113656Y30892D01*
X113456Y30492D01*
X113467Y30434D01*
X113476Y30435D01*
X113478Y30426D01*
X114678Y29826D01*
X114716Y29833D01*
G37*
%LPC*%
G36*
X204018Y151749D02*
X204018Y151749D01*
X204196Y152282D01*
X204743Y153466D01*
X204803Y153284D01*
X204808Y153281D01*
X204806Y153278D01*
X205395Y152100D01*
X205220Y151749D01*
X204018Y151749D01*
G37*
%LPD*%
%LPC*%
G36*
X45664Y151749D02*
X45664Y151749D01*
X45209Y152022D01*
X45387Y152556D01*
X46045Y152650D01*
X46623Y152457D01*
X47087Y151994D01*
X46924Y151749D01*
X45664Y151749D01*
G37*
%LPD*%
%LPC*%
G36*
X83571Y151745D02*
X83571Y151745D01*
X83558Y151738D01*
X83550Y151749D01*
X82264Y151749D01*
X81814Y152019D01*
X82083Y152556D01*
X82646Y152649D01*
X83223Y152457D01*
X83694Y151987D01*
X83603Y151716D01*
X83604Y151713D01*
X83602Y151712D01*
X83598Y151694D01*
X83571Y151745D01*
G37*
%LPD*%
D10*
X114300Y91440D02*
X139700Y91440D01*
X114300Y111760D02*
X114167Y111758D01*
X114034Y111752D01*
X113902Y111743D01*
X113769Y111729D01*
X113637Y111712D01*
X113506Y111691D01*
X113375Y111666D01*
X113246Y111637D01*
X113117Y111604D01*
X112989Y111568D01*
X112862Y111528D01*
X112736Y111484D01*
X112612Y111437D01*
X112489Y111386D01*
X112368Y111332D01*
X112248Y111274D01*
X112130Y111212D01*
X112014Y111147D01*
X111900Y111079D01*
X111788Y111008D01*
X111678Y110933D01*
X111570Y110855D01*
X111464Y110774D01*
X111361Y110690D01*
X111261Y110603D01*
X111163Y110514D01*
X111067Y110421D01*
X110974Y110325D01*
X110885Y110227D01*
X110798Y110127D01*
X110714Y110024D01*
X110633Y109918D01*
X110555Y109810D01*
X110480Y109700D01*
X110409Y109588D01*
X110341Y109474D01*
X110276Y109358D01*
X110214Y109240D01*
X110156Y109120D01*
X110102Y108999D01*
X110051Y108876D01*
X110004Y108752D01*
X109960Y108626D01*
X109920Y108499D01*
X109884Y108371D01*
X109851Y108242D01*
X109822Y108113D01*
X109797Y107982D01*
X109776Y107851D01*
X109759Y107719D01*
X109745Y107586D01*
X109736Y107454D01*
X109730Y107321D01*
X109728Y107188D01*
X139700Y111760D02*
X139833Y111758D01*
X139966Y111752D01*
X140098Y111743D01*
X140231Y111729D01*
X140363Y111712D01*
X140494Y111691D01*
X140625Y111666D01*
X140754Y111637D01*
X140883Y111604D01*
X141011Y111568D01*
X141138Y111528D01*
X141264Y111484D01*
X141388Y111437D01*
X141511Y111386D01*
X141632Y111332D01*
X141752Y111274D01*
X141870Y111212D01*
X141986Y111147D01*
X142100Y111079D01*
X142212Y111008D01*
X142322Y110933D01*
X142430Y110855D01*
X142536Y110774D01*
X142639Y110690D01*
X142739Y110603D01*
X142837Y110514D01*
X142933Y110421D01*
X143026Y110325D01*
X143115Y110227D01*
X143202Y110127D01*
X143286Y110024D01*
X143367Y109918D01*
X143445Y109810D01*
X143520Y109700D01*
X143591Y109588D01*
X143659Y109474D01*
X143724Y109358D01*
X143786Y109240D01*
X143844Y109120D01*
X143898Y108999D01*
X143949Y108876D01*
X143996Y108752D01*
X144040Y108626D01*
X144080Y108499D01*
X144116Y108371D01*
X144149Y108242D01*
X144178Y108113D01*
X144203Y107982D01*
X144224Y107851D01*
X144241Y107719D01*
X144255Y107586D01*
X144264Y107454D01*
X144270Y107321D01*
X144272Y107188D01*
X144272Y96012D02*
X144270Y95879D01*
X144264Y95746D01*
X144255Y95614D01*
X144241Y95481D01*
X144224Y95349D01*
X144203Y95218D01*
X144178Y95087D01*
X144149Y94958D01*
X144116Y94829D01*
X144080Y94701D01*
X144040Y94574D01*
X143996Y94448D01*
X143949Y94324D01*
X143898Y94201D01*
X143844Y94080D01*
X143786Y93960D01*
X143724Y93842D01*
X143659Y93726D01*
X143591Y93612D01*
X143520Y93500D01*
X143445Y93390D01*
X143367Y93282D01*
X143286Y93176D01*
X143202Y93073D01*
X143115Y92973D01*
X143026Y92875D01*
X142933Y92779D01*
X142837Y92686D01*
X142739Y92597D01*
X142639Y92510D01*
X142536Y92426D01*
X142430Y92345D01*
X142322Y92267D01*
X142212Y92192D01*
X142100Y92121D01*
X141986Y92053D01*
X141870Y91988D01*
X141752Y91926D01*
X141632Y91868D01*
X141511Y91814D01*
X141388Y91763D01*
X141264Y91716D01*
X141138Y91672D01*
X141011Y91632D01*
X140883Y91596D01*
X140754Y91563D01*
X140625Y91534D01*
X140494Y91509D01*
X140363Y91488D01*
X140231Y91471D01*
X140098Y91457D01*
X139966Y91448D01*
X139833Y91442D01*
X139700Y91440D01*
X114300Y91440D02*
X114167Y91442D01*
X114034Y91448D01*
X113902Y91457D01*
X113769Y91471D01*
X113637Y91488D01*
X113506Y91509D01*
X113375Y91534D01*
X113246Y91563D01*
X113117Y91596D01*
X112989Y91632D01*
X112862Y91672D01*
X112736Y91716D01*
X112612Y91763D01*
X112489Y91814D01*
X112368Y91868D01*
X112248Y91926D01*
X112130Y91988D01*
X112014Y92053D01*
X111900Y92121D01*
X111788Y92192D01*
X111678Y92267D01*
X111570Y92345D01*
X111464Y92426D01*
X111361Y92510D01*
X111261Y92597D01*
X111163Y92686D01*
X111067Y92779D01*
X110974Y92875D01*
X110885Y92973D01*
X110798Y93073D01*
X110714Y93176D01*
X110633Y93282D01*
X110555Y93390D01*
X110480Y93500D01*
X110409Y93612D01*
X110341Y93726D01*
X110276Y93842D01*
X110214Y93960D01*
X110156Y94080D01*
X110102Y94201D01*
X110051Y94324D01*
X110004Y94448D01*
X109960Y94574D01*
X109920Y94701D01*
X109884Y94829D01*
X109851Y94958D01*
X109822Y95087D01*
X109797Y95218D01*
X109776Y95349D01*
X109759Y95481D01*
X109745Y95614D01*
X109736Y95746D01*
X109730Y95879D01*
X109728Y96012D01*
X109728Y107188D01*
X144272Y107188D02*
X144272Y96012D01*
X139700Y111760D02*
X114300Y111760D01*
X170180Y167640D02*
X185420Y167640D01*
X165608Y183388D02*
X165610Y183521D01*
X165616Y183654D01*
X165625Y183786D01*
X165639Y183919D01*
X165656Y184051D01*
X165677Y184182D01*
X165702Y184313D01*
X165731Y184442D01*
X165764Y184571D01*
X165800Y184699D01*
X165840Y184826D01*
X165884Y184952D01*
X165931Y185076D01*
X165982Y185199D01*
X166036Y185320D01*
X166094Y185440D01*
X166156Y185558D01*
X166221Y185674D01*
X166289Y185788D01*
X166360Y185900D01*
X166435Y186010D01*
X166513Y186118D01*
X166594Y186224D01*
X166678Y186327D01*
X166765Y186427D01*
X166854Y186525D01*
X166947Y186621D01*
X167043Y186714D01*
X167141Y186803D01*
X167241Y186890D01*
X167344Y186974D01*
X167450Y187055D01*
X167558Y187133D01*
X167668Y187208D01*
X167780Y187279D01*
X167894Y187347D01*
X168010Y187412D01*
X168128Y187474D01*
X168248Y187532D01*
X168369Y187586D01*
X168492Y187637D01*
X168616Y187684D01*
X168742Y187728D01*
X168869Y187768D01*
X168997Y187804D01*
X169126Y187837D01*
X169255Y187866D01*
X169386Y187891D01*
X169517Y187912D01*
X169649Y187929D01*
X169782Y187943D01*
X169914Y187952D01*
X170047Y187958D01*
X170180Y187960D01*
X185420Y187960D02*
X185553Y187958D01*
X185686Y187952D01*
X185818Y187943D01*
X185951Y187929D01*
X186083Y187912D01*
X186214Y187891D01*
X186345Y187866D01*
X186474Y187837D01*
X186603Y187804D01*
X186731Y187768D01*
X186858Y187728D01*
X186984Y187684D01*
X187108Y187637D01*
X187231Y187586D01*
X187352Y187532D01*
X187472Y187474D01*
X187590Y187412D01*
X187706Y187347D01*
X187820Y187279D01*
X187932Y187208D01*
X188042Y187133D01*
X188150Y187055D01*
X188256Y186974D01*
X188359Y186890D01*
X188459Y186803D01*
X188557Y186714D01*
X188653Y186621D01*
X188746Y186525D01*
X188835Y186427D01*
X188922Y186327D01*
X189006Y186224D01*
X189087Y186118D01*
X189165Y186010D01*
X189240Y185900D01*
X189311Y185788D01*
X189379Y185674D01*
X189444Y185558D01*
X189506Y185440D01*
X189564Y185320D01*
X189618Y185199D01*
X189669Y185076D01*
X189716Y184952D01*
X189760Y184826D01*
X189800Y184699D01*
X189836Y184571D01*
X189869Y184442D01*
X189898Y184313D01*
X189923Y184182D01*
X189944Y184051D01*
X189961Y183919D01*
X189975Y183786D01*
X189984Y183654D01*
X189990Y183521D01*
X189992Y183388D01*
X189992Y172212D02*
X189990Y172079D01*
X189984Y171946D01*
X189975Y171814D01*
X189961Y171681D01*
X189944Y171549D01*
X189923Y171418D01*
X189898Y171287D01*
X189869Y171158D01*
X189836Y171029D01*
X189800Y170901D01*
X189760Y170774D01*
X189716Y170648D01*
X189669Y170524D01*
X189618Y170401D01*
X189564Y170280D01*
X189506Y170160D01*
X189444Y170042D01*
X189379Y169926D01*
X189311Y169812D01*
X189240Y169700D01*
X189165Y169590D01*
X189087Y169482D01*
X189006Y169376D01*
X188922Y169273D01*
X188835Y169173D01*
X188746Y169075D01*
X188653Y168979D01*
X188557Y168886D01*
X188459Y168797D01*
X188359Y168710D01*
X188256Y168626D01*
X188150Y168545D01*
X188042Y168467D01*
X187932Y168392D01*
X187820Y168321D01*
X187706Y168253D01*
X187590Y168188D01*
X187472Y168126D01*
X187352Y168068D01*
X187231Y168014D01*
X187108Y167963D01*
X186984Y167916D01*
X186858Y167872D01*
X186731Y167832D01*
X186603Y167796D01*
X186474Y167763D01*
X186345Y167734D01*
X186214Y167709D01*
X186083Y167688D01*
X185951Y167671D01*
X185818Y167657D01*
X185686Y167648D01*
X185553Y167642D01*
X185420Y167640D01*
X170180Y167640D02*
X170047Y167642D01*
X169914Y167648D01*
X169782Y167657D01*
X169649Y167671D01*
X169517Y167688D01*
X169386Y167709D01*
X169255Y167734D01*
X169126Y167763D01*
X168997Y167796D01*
X168869Y167832D01*
X168742Y167872D01*
X168616Y167916D01*
X168492Y167963D01*
X168369Y168014D01*
X168248Y168068D01*
X168128Y168126D01*
X168010Y168188D01*
X167894Y168253D01*
X167780Y168321D01*
X167668Y168392D01*
X167558Y168467D01*
X167450Y168545D01*
X167344Y168626D01*
X167241Y168710D01*
X167141Y168797D01*
X167043Y168886D01*
X166947Y168979D01*
X166854Y169075D01*
X166765Y169173D01*
X166678Y169273D01*
X166594Y169376D01*
X166513Y169482D01*
X166435Y169590D01*
X166360Y169700D01*
X166289Y169812D01*
X166221Y169926D01*
X166156Y170042D01*
X166094Y170160D01*
X166036Y170280D01*
X165982Y170401D01*
X165931Y170524D01*
X165884Y170648D01*
X165840Y170774D01*
X165800Y170901D01*
X165764Y171029D01*
X165731Y171158D01*
X165702Y171287D01*
X165677Y171418D01*
X165656Y171549D01*
X165639Y171681D01*
X165625Y171814D01*
X165616Y171946D01*
X165610Y172079D01*
X165608Y172212D01*
X165608Y183388D01*
X189992Y183388D02*
X189992Y172212D01*
X185420Y187960D02*
X170180Y187960D01*
X33020Y167640D02*
X17780Y167640D01*
X13208Y183388D02*
X13210Y183521D01*
X13216Y183654D01*
X13225Y183786D01*
X13239Y183919D01*
X13256Y184051D01*
X13277Y184182D01*
X13302Y184313D01*
X13331Y184442D01*
X13364Y184571D01*
X13400Y184699D01*
X13440Y184826D01*
X13484Y184952D01*
X13531Y185076D01*
X13582Y185199D01*
X13636Y185320D01*
X13694Y185440D01*
X13756Y185558D01*
X13821Y185674D01*
X13889Y185788D01*
X13960Y185900D01*
X14035Y186010D01*
X14113Y186118D01*
X14194Y186224D01*
X14278Y186327D01*
X14365Y186427D01*
X14454Y186525D01*
X14547Y186621D01*
X14643Y186714D01*
X14741Y186803D01*
X14841Y186890D01*
X14944Y186974D01*
X15050Y187055D01*
X15158Y187133D01*
X15268Y187208D01*
X15380Y187279D01*
X15494Y187347D01*
X15610Y187412D01*
X15728Y187474D01*
X15848Y187532D01*
X15969Y187586D01*
X16092Y187637D01*
X16216Y187684D01*
X16342Y187728D01*
X16469Y187768D01*
X16597Y187804D01*
X16726Y187837D01*
X16855Y187866D01*
X16986Y187891D01*
X17117Y187912D01*
X17249Y187929D01*
X17382Y187943D01*
X17514Y187952D01*
X17647Y187958D01*
X17780Y187960D01*
X33020Y187960D02*
X33153Y187958D01*
X33286Y187952D01*
X33418Y187943D01*
X33551Y187929D01*
X33683Y187912D01*
X33814Y187891D01*
X33945Y187866D01*
X34074Y187837D01*
X34203Y187804D01*
X34331Y187768D01*
X34458Y187728D01*
X34584Y187684D01*
X34708Y187637D01*
X34831Y187586D01*
X34952Y187532D01*
X35072Y187474D01*
X35190Y187412D01*
X35306Y187347D01*
X35420Y187279D01*
X35532Y187208D01*
X35642Y187133D01*
X35750Y187055D01*
X35856Y186974D01*
X35959Y186890D01*
X36059Y186803D01*
X36157Y186714D01*
X36253Y186621D01*
X36346Y186525D01*
X36435Y186427D01*
X36522Y186327D01*
X36606Y186224D01*
X36687Y186118D01*
X36765Y186010D01*
X36840Y185900D01*
X36911Y185788D01*
X36979Y185674D01*
X37044Y185558D01*
X37106Y185440D01*
X37164Y185320D01*
X37218Y185199D01*
X37269Y185076D01*
X37316Y184952D01*
X37360Y184826D01*
X37400Y184699D01*
X37436Y184571D01*
X37469Y184442D01*
X37498Y184313D01*
X37523Y184182D01*
X37544Y184051D01*
X37561Y183919D01*
X37575Y183786D01*
X37584Y183654D01*
X37590Y183521D01*
X37592Y183388D01*
X37592Y172212D02*
X37590Y172079D01*
X37584Y171946D01*
X37575Y171814D01*
X37561Y171681D01*
X37544Y171549D01*
X37523Y171418D01*
X37498Y171287D01*
X37469Y171158D01*
X37436Y171029D01*
X37400Y170901D01*
X37360Y170774D01*
X37316Y170648D01*
X37269Y170524D01*
X37218Y170401D01*
X37164Y170280D01*
X37106Y170160D01*
X37044Y170042D01*
X36979Y169926D01*
X36911Y169812D01*
X36840Y169700D01*
X36765Y169590D01*
X36687Y169482D01*
X36606Y169376D01*
X36522Y169273D01*
X36435Y169173D01*
X36346Y169075D01*
X36253Y168979D01*
X36157Y168886D01*
X36059Y168797D01*
X35959Y168710D01*
X35856Y168626D01*
X35750Y168545D01*
X35642Y168467D01*
X35532Y168392D01*
X35420Y168321D01*
X35306Y168253D01*
X35190Y168188D01*
X35072Y168126D01*
X34952Y168068D01*
X34831Y168014D01*
X34708Y167963D01*
X34584Y167916D01*
X34458Y167872D01*
X34331Y167832D01*
X34203Y167796D01*
X34074Y167763D01*
X33945Y167734D01*
X33814Y167709D01*
X33683Y167688D01*
X33551Y167671D01*
X33418Y167657D01*
X33286Y167648D01*
X33153Y167642D01*
X33020Y167640D01*
X17780Y167640D02*
X17647Y167642D01*
X17514Y167648D01*
X17382Y167657D01*
X17249Y167671D01*
X17117Y167688D01*
X16986Y167709D01*
X16855Y167734D01*
X16726Y167763D01*
X16597Y167796D01*
X16469Y167832D01*
X16342Y167872D01*
X16216Y167916D01*
X16092Y167963D01*
X15969Y168014D01*
X15848Y168068D01*
X15728Y168126D01*
X15610Y168188D01*
X15494Y168253D01*
X15380Y168321D01*
X15268Y168392D01*
X15158Y168467D01*
X15050Y168545D01*
X14944Y168626D01*
X14841Y168710D01*
X14741Y168797D01*
X14643Y168886D01*
X14547Y168979D01*
X14454Y169075D01*
X14365Y169173D01*
X14278Y169273D01*
X14194Y169376D01*
X14113Y169482D01*
X14035Y169590D01*
X13960Y169700D01*
X13889Y169812D01*
X13821Y169926D01*
X13756Y170042D01*
X13694Y170160D01*
X13636Y170280D01*
X13582Y170401D01*
X13531Y170524D01*
X13484Y170648D01*
X13440Y170774D01*
X13400Y170901D01*
X13364Y171029D01*
X13331Y171158D01*
X13302Y171287D01*
X13277Y171418D01*
X13256Y171549D01*
X13239Y171681D01*
X13225Y171814D01*
X13216Y171946D01*
X13210Y172079D01*
X13208Y172212D01*
X13208Y183388D01*
X37592Y183388D02*
X37592Y172212D01*
X33020Y187960D02*
X17780Y187960D01*
M02*
