G04 EAGLE Gerber RS-274X export*
G75*
%MOMM*%
%FSLAX34Y34*%
%LPD*%
%INBottom Copper*%
%IPPOS*%
%AMOC8*
5,1,8,0,0,1.08239X$1,22.5*%
G01*
%ADD10C,0.279400*%
%ADD11C,1.000000*%
%ADD12C,0.099059*%
%ADD13C,1.879600*%
%ADD14C,0.660400*%
%ADD15C,0.635000*%
%ADD16C,0.254000*%
%ADD17C,0.736600*%

G36*
X53115Y4078D02*
X53115Y4078D01*
X53207Y4081D01*
X53256Y4097D01*
X53306Y4105D01*
X53390Y4142D01*
X53477Y4171D01*
X53519Y4200D01*
X53565Y4221D01*
X53635Y4280D01*
X53711Y4332D01*
X53743Y4372D01*
X53782Y4404D01*
X53833Y4481D01*
X53892Y4552D01*
X53912Y4599D01*
X53940Y4641D01*
X53968Y4729D01*
X54004Y4813D01*
X54010Y4864D01*
X54026Y4912D01*
X54028Y5004D01*
X54039Y5095D01*
X54032Y5146D01*
X54033Y5196D01*
X54010Y5285D01*
X53995Y5376D01*
X53975Y5416D01*
X53961Y5471D01*
X53880Y5608D01*
X53846Y5677D01*
X53289Y6443D01*
X52436Y8117D01*
X51855Y9904D01*
X51734Y10669D01*
X62484Y10669D01*
X62542Y10677D01*
X62600Y10675D01*
X62682Y10697D01*
X62765Y10709D01*
X62819Y10733D01*
X62875Y10747D01*
X62948Y10790D01*
X63025Y10825D01*
X63069Y10863D01*
X63120Y10893D01*
X63177Y10954D01*
X63242Y11009D01*
X63274Y11057D01*
X63314Y11100D01*
X63353Y11175D01*
X63399Y11245D01*
X63417Y11301D01*
X63444Y11353D01*
X63455Y11421D01*
X63485Y11516D01*
X63488Y11616D01*
X63499Y11684D01*
X63499Y12701D01*
X64516Y12701D01*
X64574Y12709D01*
X64632Y12708D01*
X64714Y12729D01*
X64797Y12741D01*
X64851Y12765D01*
X64907Y12779D01*
X64980Y12822D01*
X65057Y12857D01*
X65102Y12895D01*
X65152Y12925D01*
X65210Y12986D01*
X65274Y13041D01*
X65306Y13089D01*
X65346Y13132D01*
X65385Y13207D01*
X65431Y13277D01*
X65449Y13333D01*
X65476Y13385D01*
X65487Y13453D01*
X65517Y13548D01*
X65520Y13648D01*
X65531Y13716D01*
X65531Y24466D01*
X66296Y24345D01*
X68083Y23764D01*
X69757Y22911D01*
X71278Y21806D01*
X72606Y20478D01*
X73711Y18957D01*
X74564Y17283D01*
X74928Y16163D01*
X74958Y16101D01*
X74979Y16035D01*
X75020Y15974D01*
X75053Y15908D01*
X75099Y15857D01*
X75138Y15799D01*
X75194Y15752D01*
X75243Y15697D01*
X75302Y15661D01*
X75355Y15616D01*
X75422Y15586D01*
X75485Y15547D01*
X75552Y15529D01*
X75615Y15501D01*
X75688Y15491D01*
X75759Y15471D01*
X75828Y15471D01*
X75897Y15462D01*
X75969Y15472D01*
X76043Y15473D01*
X76110Y15493D01*
X76178Y15502D01*
X76245Y15533D01*
X76316Y15554D01*
X76374Y15591D01*
X76437Y15620D01*
X76493Y15667D01*
X76555Y15707D01*
X76601Y15759D01*
X76653Y15804D01*
X76686Y15857D01*
X76743Y15921D01*
X76792Y16025D01*
X76831Y16089D01*
X78348Y19751D01*
X81849Y23252D01*
X82049Y23335D01*
X82051Y23336D01*
X82052Y23336D01*
X82170Y23406D01*
X82294Y23479D01*
X82295Y23480D01*
X82297Y23481D01*
X82390Y23581D01*
X82490Y23686D01*
X82490Y23687D01*
X82491Y23688D01*
X82554Y23810D01*
X82620Y23939D01*
X82620Y23940D01*
X82621Y23942D01*
X82623Y23956D01*
X82675Y24217D01*
X82672Y24248D01*
X82676Y24273D01*
X82676Y32562D01*
X82664Y32648D01*
X82661Y32736D01*
X82644Y32788D01*
X82636Y32843D01*
X82601Y32923D01*
X82574Y33006D01*
X82546Y33045D01*
X82520Y33102D01*
X82424Y33216D01*
X82379Y33279D01*
X59340Y56318D01*
X59272Y56370D01*
X59209Y56429D01*
X59159Y56455D01*
X59113Y56489D01*
X59033Y56519D01*
X58957Y56559D01*
X58901Y56570D01*
X58848Y56590D01*
X58762Y56597D01*
X58678Y56614D01*
X58621Y56609D01*
X58564Y56614D01*
X58480Y56597D01*
X58394Y56589D01*
X58341Y56569D01*
X58286Y56558D01*
X58209Y56518D01*
X58129Y56487D01*
X58084Y56453D01*
X58033Y56427D01*
X57971Y56368D01*
X57902Y56316D01*
X57868Y56270D01*
X57827Y56231D01*
X57784Y56157D01*
X57732Y56088D01*
X57712Y56035D01*
X57683Y55986D01*
X57662Y55902D01*
X57632Y55822D01*
X57627Y55765D01*
X57613Y55710D01*
X57616Y55624D01*
X57609Y55539D01*
X57620Y55490D01*
X57622Y55426D01*
X57667Y55288D01*
X57685Y55211D01*
X58849Y52401D01*
X58849Y49199D01*
X57623Y46241D01*
X55359Y43977D01*
X52401Y42751D01*
X49199Y42751D01*
X46241Y43977D01*
X43977Y46241D01*
X42751Y49199D01*
X42751Y52401D01*
X43977Y55359D01*
X46241Y57623D01*
X49199Y58849D01*
X52401Y58849D01*
X55211Y57685D01*
X55295Y57663D01*
X55375Y57633D01*
X55432Y57628D01*
X55487Y57614D01*
X55573Y57616D01*
X55658Y57609D01*
X55714Y57620D01*
X55771Y57622D01*
X55853Y57648D01*
X55937Y57665D01*
X55988Y57691D01*
X56042Y57708D01*
X56113Y57756D01*
X56189Y57796D01*
X56231Y57835D01*
X56278Y57867D01*
X56333Y57933D01*
X56395Y57992D01*
X56424Y58041D01*
X56461Y58084D01*
X56496Y58163D01*
X56539Y58237D01*
X56553Y58292D01*
X56576Y58344D01*
X56588Y58429D01*
X56609Y58512D01*
X56607Y58569D01*
X56615Y58626D01*
X56603Y58711D01*
X56600Y58797D01*
X56583Y58851D01*
X56575Y58907D01*
X56539Y58985D01*
X56513Y59067D01*
X56484Y59107D01*
X56457Y59166D01*
X56363Y59277D01*
X56318Y59340D01*
X20124Y95534D01*
X19176Y97822D01*
X19176Y128238D01*
X20124Y130526D01*
X22017Y132419D01*
X24826Y135228D01*
X24845Y135253D01*
X24868Y135273D01*
X24910Y135339D01*
X24997Y135455D01*
X25020Y135515D01*
X25046Y135557D01*
X25096Y135678D01*
X26882Y137464D01*
X27003Y137514D01*
X27029Y137529D01*
X27059Y137539D01*
X27123Y137584D01*
X27247Y137658D01*
X27292Y137705D01*
X27332Y137734D01*
X72039Y182441D01*
X74327Y183389D01*
X149193Y183389D01*
X151480Y182441D01*
X154739Y179182D01*
X154831Y179113D01*
X154919Y179039D01*
X154944Y179028D01*
X154966Y179012D01*
X155074Y178971D01*
X155179Y178924D01*
X155206Y178920D01*
X155232Y178910D01*
X155346Y178901D01*
X155460Y178885D01*
X155488Y178889D01*
X155515Y178887D01*
X155628Y178909D01*
X155742Y178926D01*
X155767Y178937D01*
X155794Y178943D01*
X155896Y178996D01*
X156001Y179043D01*
X156022Y179061D01*
X156046Y179074D01*
X156130Y179153D01*
X156217Y179227D01*
X156230Y179248D01*
X156253Y179269D01*
X156387Y179499D01*
X156395Y179512D01*
X157176Y181397D01*
X158963Y183184D01*
X161297Y184151D01*
X163823Y184151D01*
X163943Y184101D01*
X163973Y184093D01*
X164001Y184079D01*
X164078Y184066D01*
X164219Y184030D01*
X164283Y184032D01*
X164332Y184024D01*
X165227Y184024D01*
X165285Y184032D01*
X165343Y184030D01*
X165425Y184052D01*
X165509Y184064D01*
X165562Y184087D01*
X165618Y184102D01*
X165691Y184145D01*
X165768Y184180D01*
X165813Y184218D01*
X165863Y184247D01*
X165921Y184309D01*
X165985Y184363D01*
X166017Y184412D01*
X166057Y184455D01*
X166096Y184530D01*
X166143Y184600D01*
X166160Y184656D01*
X166187Y184708D01*
X166198Y184776D01*
X166228Y184871D01*
X166231Y184971D01*
X166242Y185039D01*
X166242Y185123D01*
X168318Y187199D01*
X176868Y187199D01*
X177082Y186984D01*
X177129Y186949D01*
X177169Y186907D01*
X177242Y186864D01*
X177309Y186813D01*
X177364Y186793D01*
X177414Y186763D01*
X177496Y186742D01*
X177575Y186712D01*
X177633Y186707D01*
X177690Y186693D01*
X177774Y186696D01*
X177858Y186689D01*
X177916Y186700D01*
X177974Y186702D01*
X178054Y186728D01*
X178137Y186745D01*
X178189Y186771D01*
X178245Y186789D01*
X178301Y186830D01*
X178389Y186876D01*
X178462Y186944D01*
X178518Y186984D01*
X178732Y187199D01*
X187282Y187199D01*
X189358Y185123D01*
X189358Y170477D01*
X188543Y169662D01*
X188542Y169661D01*
X188540Y169660D01*
X188452Y169542D01*
X188372Y169435D01*
X188371Y169434D01*
X188370Y169432D01*
X188320Y169299D01*
X188271Y169169D01*
X188270Y169168D01*
X188270Y169166D01*
X188258Y169022D01*
X188247Y168886D01*
X188247Y168885D01*
X188247Y168883D01*
X188251Y168867D01*
X188303Y168607D01*
X188317Y168580D01*
X188323Y168556D01*
X189231Y166363D01*
X189231Y163837D01*
X188264Y161503D01*
X186477Y159716D01*
X186388Y159679D01*
X186289Y159621D01*
X186187Y159568D01*
X186167Y159549D01*
X186143Y159535D01*
X186064Y159451D01*
X185981Y159372D01*
X185967Y159348D01*
X185948Y159328D01*
X185895Y159226D01*
X185837Y159127D01*
X185830Y159100D01*
X185818Y159075D01*
X185795Y158962D01*
X185767Y158851D01*
X185768Y158823D01*
X185763Y158796D01*
X185773Y158682D01*
X185776Y158567D01*
X185785Y158541D01*
X185787Y158513D01*
X185828Y158406D01*
X185864Y158297D01*
X185878Y158276D01*
X185889Y158248D01*
X186049Y158036D01*
X186059Y158023D01*
X196591Y147491D01*
X196660Y147439D01*
X196724Y147379D01*
X196774Y147353D01*
X196818Y147320D01*
X196899Y147289D01*
X196977Y147249D01*
X197025Y147241D01*
X197083Y147219D01*
X197231Y147207D01*
X197308Y147194D01*
X198088Y147194D01*
X200376Y146246D01*
X202269Y144353D01*
X219048Y127574D01*
X219073Y127555D01*
X219093Y127532D01*
X219159Y127490D01*
X219275Y127403D01*
X219335Y127380D01*
X219377Y127354D01*
X219498Y127304D01*
X221284Y125517D01*
X222251Y123183D01*
X222251Y120657D01*
X221284Y118323D01*
X219497Y116536D01*
X217163Y115569D01*
X214637Y115569D01*
X212303Y116536D01*
X210516Y118322D01*
X210466Y118443D01*
X210451Y118469D01*
X210441Y118499D01*
X210396Y118563D01*
X210322Y118687D01*
X210275Y118732D01*
X210246Y118772D01*
X195577Y133441D01*
X195554Y133459D01*
X195535Y133481D01*
X195440Y133544D01*
X195350Y133612D01*
X195323Y133622D01*
X195298Y133639D01*
X195190Y133673D01*
X195084Y133713D01*
X195055Y133716D01*
X195027Y133724D01*
X194914Y133727D01*
X194801Y133737D01*
X194772Y133731D01*
X194743Y133732D01*
X194633Y133703D01*
X194522Y133681D01*
X194496Y133667D01*
X194468Y133660D01*
X194371Y133602D01*
X194270Y133550D01*
X194249Y133530D01*
X194224Y133515D01*
X194146Y133432D01*
X194064Y133354D01*
X194049Y133329D01*
X194029Y133307D01*
X193977Y133207D01*
X193920Y133109D01*
X193913Y133080D01*
X193900Y133054D01*
X193887Y132977D01*
X193850Y132833D01*
X193852Y132771D01*
X193844Y132723D01*
X193844Y131788D01*
X193856Y131701D01*
X193859Y131614D01*
X193876Y131561D01*
X193884Y131506D01*
X193920Y131426D01*
X193947Y131343D01*
X193975Y131304D01*
X194000Y131247D01*
X194096Y131134D01*
X194142Y131070D01*
X194909Y130302D01*
X195876Y127968D01*
X195876Y125441D01*
X194909Y123107D01*
X193123Y121321D01*
X190789Y120354D01*
X188262Y120354D01*
X185928Y121321D01*
X184142Y123107D01*
X183175Y125441D01*
X183175Y125984D01*
X183166Y126042D01*
X183168Y126100D01*
X183147Y126182D01*
X183135Y126266D01*
X183111Y126319D01*
X183096Y126375D01*
X183053Y126448D01*
X183019Y126525D01*
X182981Y126570D01*
X182951Y126620D01*
X182889Y126678D01*
X182835Y126742D01*
X182786Y126774D01*
X182744Y126814D01*
X182669Y126853D01*
X182598Y126900D01*
X182542Y126917D01*
X182490Y126944D01*
X182422Y126955D01*
X182327Y126985D01*
X182227Y126988D01*
X182159Y126999D01*
X180347Y126999D01*
X178013Y127966D01*
X176226Y129753D01*
X175732Y130945D01*
X175732Y130946D01*
X175731Y130947D01*
X175661Y131066D01*
X175588Y131189D01*
X175587Y131190D01*
X175586Y131192D01*
X175482Y131289D01*
X175381Y131385D01*
X175380Y131385D01*
X175379Y131386D01*
X175253Y131451D01*
X175128Y131515D01*
X175127Y131515D01*
X175125Y131516D01*
X175111Y131518D01*
X174850Y131570D01*
X174819Y131567D01*
X174794Y131571D01*
X158900Y131571D01*
X158786Y131555D01*
X158672Y131545D01*
X158646Y131535D01*
X158618Y131531D01*
X158514Y131484D01*
X158406Y131443D01*
X158384Y131427D01*
X158359Y131415D01*
X158271Y131341D01*
X158180Y131272D01*
X158163Y131249D01*
X158142Y131232D01*
X158078Y131136D01*
X158010Y131044D01*
X158000Y131018D01*
X157984Y130995D01*
X157950Y130885D01*
X157909Y130778D01*
X157907Y130750D01*
X157899Y130724D01*
X157896Y130609D01*
X157887Y130495D01*
X157892Y130470D01*
X157891Y130440D01*
X157958Y130183D01*
X157962Y130167D01*
X158751Y128263D01*
X158751Y127177D01*
X158763Y127091D01*
X158766Y127003D01*
X158783Y126951D01*
X158791Y126896D01*
X158826Y126816D01*
X158853Y126733D01*
X158881Y126694D01*
X158907Y126637D01*
X159003Y126523D01*
X159048Y126460D01*
X165609Y119899D01*
X165609Y95253D01*
X165621Y95166D01*
X165624Y95079D01*
X165641Y95026D01*
X165649Y94972D01*
X165684Y94892D01*
X165711Y94809D01*
X165739Y94769D01*
X165765Y94712D01*
X165861Y94599D01*
X165906Y94535D01*
X166674Y93767D01*
X167641Y91433D01*
X167641Y88907D01*
X166674Y86573D01*
X165906Y85805D01*
X165854Y85735D01*
X165794Y85671D01*
X165768Y85622D01*
X165735Y85578D01*
X165704Y85496D01*
X165664Y85418D01*
X165656Y85370D01*
X165634Y85312D01*
X165622Y85164D01*
X165609Y85087D01*
X165609Y70789D01*
X165621Y70703D01*
X165624Y70615D01*
X165641Y70563D01*
X165649Y70508D01*
X165684Y70428D01*
X165711Y70345D01*
X165739Y70306D01*
X165765Y70249D01*
X165861Y70135D01*
X165906Y70072D01*
X194819Y41159D01*
X194819Y25062D01*
X194819Y25060D01*
X194819Y25059D01*
X194839Y24919D01*
X194859Y24780D01*
X194859Y24779D01*
X194859Y24777D01*
X194916Y24651D01*
X194975Y24521D01*
X194976Y24520D01*
X194977Y24518D01*
X195069Y24410D01*
X195158Y24304D01*
X195160Y24303D01*
X195161Y24302D01*
X195174Y24294D01*
X195395Y24146D01*
X195424Y24137D01*
X195445Y24124D01*
X197551Y23252D01*
X201052Y19751D01*
X202947Y15176D01*
X202947Y10224D01*
X200977Y5469D01*
X200948Y5357D01*
X200914Y5248D01*
X200913Y5220D01*
X200906Y5193D01*
X200909Y5079D01*
X200906Y4964D01*
X200913Y4937D01*
X200914Y4909D01*
X200949Y4800D01*
X200978Y4689D01*
X200992Y4665D01*
X201001Y4638D01*
X201065Y4543D01*
X201123Y4444D01*
X201144Y4425D01*
X201159Y4402D01*
X201247Y4328D01*
X201331Y4250D01*
X201355Y4237D01*
X201377Y4219D01*
X201481Y4173D01*
X201584Y4120D01*
X201608Y4116D01*
X201636Y4104D01*
X201900Y4067D01*
X201915Y4065D01*
X216067Y4065D01*
X216140Y4075D01*
X216214Y4075D01*
X216280Y4095D01*
X216349Y4105D01*
X216416Y4135D01*
X216486Y4155D01*
X216545Y4192D01*
X216608Y4221D01*
X216664Y4268D01*
X216726Y4308D01*
X216772Y4360D01*
X216825Y4404D01*
X216866Y4466D01*
X216915Y4521D01*
X216944Y4583D01*
X216983Y4641D01*
X217005Y4711D01*
X217036Y4778D01*
X217048Y4846D01*
X217068Y4912D01*
X217070Y4986D01*
X217082Y5058D01*
X217074Y5127D01*
X217076Y5196D01*
X217057Y5267D01*
X217048Y5341D01*
X217021Y5404D01*
X217004Y5471D01*
X216966Y5535D01*
X216938Y5602D01*
X216899Y5647D01*
X216859Y5716D01*
X216769Y5800D01*
X216720Y5858D01*
X211015Y10644D01*
X207029Y17549D01*
X205645Y25400D01*
X207029Y33251D01*
X211015Y40155D01*
X217122Y45280D01*
X224614Y48007D01*
X232586Y48007D01*
X240078Y45280D01*
X246185Y40156D01*
X248041Y36941D01*
X248053Y36926D01*
X248061Y36908D01*
X248140Y36814D01*
X248216Y36717D01*
X248232Y36706D01*
X248245Y36691D01*
X248347Y36622D01*
X248446Y36551D01*
X248465Y36544D01*
X248481Y36533D01*
X248599Y36496D01*
X248714Y36454D01*
X248734Y36453D01*
X248752Y36447D01*
X248875Y36444D01*
X248998Y36436D01*
X249017Y36441D01*
X249036Y36440D01*
X249155Y36471D01*
X249275Y36498D01*
X249293Y36507D01*
X249311Y36512D01*
X249417Y36574D01*
X249525Y36633D01*
X249539Y36647D01*
X249556Y36657D01*
X249640Y36747D01*
X249727Y36833D01*
X249737Y36850D01*
X249750Y36864D01*
X249806Y36974D01*
X249866Y37081D01*
X249871Y37100D01*
X249880Y37118D01*
X249892Y37190D01*
X249931Y37358D01*
X249929Y37409D01*
X249935Y37449D01*
X249935Y216551D01*
X249933Y216571D01*
X249935Y216590D01*
X249913Y216711D01*
X249895Y216833D01*
X249887Y216851D01*
X249884Y216870D01*
X249829Y216980D01*
X249779Y217092D01*
X249767Y217107D01*
X249758Y217125D01*
X249675Y217216D01*
X249596Y217309D01*
X249579Y217320D01*
X249566Y217335D01*
X249461Y217399D01*
X249359Y217467D01*
X249340Y217473D01*
X249324Y217483D01*
X249205Y217516D01*
X249088Y217553D01*
X249068Y217553D01*
X249049Y217558D01*
X248927Y217557D01*
X248804Y217560D01*
X248785Y217555D01*
X248765Y217555D01*
X248647Y217519D01*
X248529Y217488D01*
X248512Y217478D01*
X248493Y217472D01*
X248390Y217406D01*
X248284Y217343D01*
X248271Y217329D01*
X248254Y217318D01*
X248208Y217261D01*
X248090Y217136D01*
X248066Y217090D01*
X248041Y217059D01*
X246185Y213844D01*
X240078Y208720D01*
X232586Y205993D01*
X224614Y205993D01*
X217122Y208720D01*
X211015Y213844D01*
X207029Y220749D01*
X205645Y228600D01*
X207029Y236451D01*
X211015Y243355D01*
X216720Y248142D01*
X216769Y248197D01*
X216825Y248245D01*
X216864Y248302D01*
X216910Y248354D01*
X216942Y248420D01*
X216983Y248481D01*
X217004Y248547D01*
X217034Y248610D01*
X217046Y248682D01*
X217068Y248752D01*
X217070Y248821D01*
X217082Y248890D01*
X217074Y248963D01*
X217076Y249036D01*
X217058Y249103D01*
X217051Y249172D01*
X217023Y249240D01*
X217004Y249311D01*
X216969Y249371D01*
X216942Y249435D01*
X216896Y249493D01*
X216859Y249556D01*
X216808Y249603D01*
X216765Y249657D01*
X216705Y249700D01*
X216651Y249750D01*
X216590Y249782D01*
X216533Y249822D01*
X216464Y249846D01*
X216398Y249880D01*
X216340Y249890D01*
X216265Y249916D01*
X216143Y249923D01*
X216067Y249935D01*
X195698Y249935D01*
X195669Y249931D01*
X195640Y249934D01*
X195529Y249911D01*
X195417Y249895D01*
X195390Y249883D01*
X195361Y249878D01*
X195261Y249825D01*
X195157Y249779D01*
X195135Y249760D01*
X195109Y249747D01*
X195027Y249669D01*
X194940Y249596D01*
X194924Y249571D01*
X194903Y249551D01*
X194846Y249453D01*
X194783Y249359D01*
X194774Y249331D01*
X194759Y249306D01*
X194731Y249196D01*
X194697Y249088D01*
X194696Y249058D01*
X194689Y249030D01*
X194693Y248917D01*
X194690Y248804D01*
X194697Y248775D01*
X194698Y248746D01*
X194733Y248638D01*
X194762Y248529D01*
X194777Y248503D01*
X194786Y248475D01*
X194831Y248412D01*
X194907Y248284D01*
X194952Y248241D01*
X194980Y248202D01*
X197323Y245859D01*
X198549Y242901D01*
X198549Y239699D01*
X197323Y236741D01*
X195059Y234477D01*
X192101Y233251D01*
X188899Y233251D01*
X185941Y234477D01*
X183677Y236741D01*
X182451Y239699D01*
X182451Y242901D01*
X183677Y245859D01*
X186020Y248202D01*
X186037Y248226D01*
X186060Y248245D01*
X186122Y248339D01*
X186190Y248429D01*
X186201Y248457D01*
X186217Y248481D01*
X186251Y248589D01*
X186292Y248695D01*
X186294Y248724D01*
X186303Y248752D01*
X186306Y248866D01*
X186315Y248978D01*
X186309Y249007D01*
X186310Y249036D01*
X186282Y249146D01*
X186259Y249257D01*
X186246Y249283D01*
X186238Y249311D01*
X186181Y249409D01*
X186128Y249509D01*
X186108Y249531D01*
X186093Y249556D01*
X186011Y249633D01*
X185933Y249715D01*
X185907Y249730D01*
X185886Y249750D01*
X185785Y249802D01*
X185687Y249859D01*
X185659Y249866D01*
X185633Y249880D01*
X185555Y249893D01*
X185412Y249929D01*
X185349Y249927D01*
X185302Y249935D01*
X37933Y249935D01*
X37860Y249925D01*
X37786Y249925D01*
X37720Y249905D01*
X37651Y249895D01*
X37584Y249865D01*
X37514Y249845D01*
X37455Y249808D01*
X37392Y249779D01*
X37336Y249732D01*
X37274Y249692D01*
X37228Y249640D01*
X37175Y249596D01*
X37134Y249534D01*
X37085Y249479D01*
X37056Y249417D01*
X37017Y249359D01*
X36995Y249289D01*
X36964Y249222D01*
X36952Y249154D01*
X36932Y249088D01*
X36930Y249014D01*
X36918Y248942D01*
X36926Y248873D01*
X36924Y248804D01*
X36943Y248733D01*
X36952Y248659D01*
X36979Y248596D01*
X36996Y248529D01*
X37034Y248465D01*
X37062Y248398D01*
X37101Y248353D01*
X37141Y248284D01*
X37231Y248200D01*
X37280Y248142D01*
X42985Y243356D01*
X46971Y236451D01*
X48355Y228600D01*
X46971Y220749D01*
X42985Y213845D01*
X36878Y208720D01*
X29301Y205962D01*
X29239Y205953D01*
X29213Y205941D01*
X29184Y205936D01*
X29083Y205883D01*
X28980Y205837D01*
X28957Y205818D01*
X28931Y205805D01*
X28849Y205727D01*
X28763Y205654D01*
X28747Y205629D01*
X28725Y205609D01*
X28668Y205511D01*
X28605Y205417D01*
X28596Y205389D01*
X28582Y205364D01*
X28554Y205254D01*
X28519Y205146D01*
X28519Y205116D01*
X28511Y205088D01*
X28515Y204975D01*
X28512Y204862D01*
X28520Y204833D01*
X28521Y204804D01*
X28555Y204696D01*
X28584Y204587D01*
X28599Y204561D01*
X28608Y204533D01*
X28654Y204469D01*
X28729Y204342D01*
X28775Y204299D01*
X28803Y204260D01*
X30203Y202860D01*
X31169Y200526D01*
X31169Y198000D01*
X30203Y195666D01*
X29435Y194898D01*
X29382Y194828D01*
X29322Y194764D01*
X29297Y194715D01*
X29264Y194671D01*
X29233Y194589D01*
X29193Y194511D01*
X29185Y194463D01*
X29163Y194405D01*
X29150Y194257D01*
X29137Y194180D01*
X29137Y183801D01*
X29116Y183760D01*
X29083Y183716D01*
X29052Y183634D01*
X29012Y183556D01*
X29004Y183508D01*
X28982Y183450D01*
X28970Y183302D01*
X28957Y183225D01*
X28957Y179133D01*
X18415Y179133D01*
X18396Y179121D01*
X18374Y179117D01*
X18367Y179102D01*
X18358Y179096D01*
X18359Y179086D01*
X18352Y179070D01*
X18352Y176530D01*
X18364Y176511D01*
X18368Y176489D01*
X18383Y176482D01*
X18389Y176473D01*
X18399Y176474D01*
X18415Y176467D01*
X28957Y176467D01*
X28957Y168909D01*
X27401Y168909D01*
X26628Y169116D01*
X26386Y169256D01*
X26323Y169281D01*
X26264Y169316D01*
X26192Y169334D01*
X26123Y169362D01*
X26055Y169369D01*
X25989Y169386D01*
X25914Y169383D01*
X25840Y169391D01*
X25773Y169379D01*
X25705Y169377D01*
X25634Y169354D01*
X25560Y169341D01*
X25499Y169310D01*
X25434Y169289D01*
X25383Y169253D01*
X25305Y169214D01*
X25221Y169138D01*
X25161Y169094D01*
X24468Y168401D01*
X15918Y168401D01*
X13842Y170477D01*
X13842Y185123D01*
X15918Y187199D01*
X19485Y187199D01*
X19543Y187207D01*
X19601Y187205D01*
X19683Y187227D01*
X19766Y187239D01*
X19820Y187262D01*
X19876Y187277D01*
X19949Y187320D01*
X20026Y187355D01*
X20070Y187393D01*
X20121Y187422D01*
X20178Y187484D01*
X20243Y187538D01*
X20275Y187587D01*
X20315Y187630D01*
X20353Y187705D01*
X20400Y187775D01*
X20418Y187831D01*
X20444Y187883D01*
X20456Y187951D01*
X20486Y188046D01*
X20489Y188146D01*
X20500Y188214D01*
X20500Y194180D01*
X20488Y194267D01*
X20485Y194354D01*
X20468Y194407D01*
X20460Y194461D01*
X20424Y194541D01*
X20397Y194624D01*
X20369Y194664D01*
X20344Y194721D01*
X20248Y194834D01*
X20203Y194898D01*
X19435Y195666D01*
X18468Y198000D01*
X18468Y200526D01*
X19435Y202860D01*
X21133Y204559D01*
X21214Y204666D01*
X21299Y204776D01*
X21301Y204781D01*
X21304Y204786D01*
X21352Y204912D01*
X21403Y205041D01*
X21403Y205046D01*
X21405Y205051D01*
X21416Y205187D01*
X21429Y205324D01*
X21428Y205329D01*
X21429Y205335D01*
X21402Y205468D01*
X21376Y205603D01*
X21374Y205608D01*
X21373Y205613D01*
X21310Y205734D01*
X21248Y205857D01*
X21244Y205861D01*
X21242Y205866D01*
X21148Y205965D01*
X21054Y206065D01*
X21050Y206067D01*
X21046Y206072D01*
X20801Y206216D01*
X20779Y206221D01*
X20762Y206230D01*
X13922Y208720D01*
X7815Y213844D01*
X5959Y217059D01*
X5947Y217074D01*
X5939Y217092D01*
X5860Y217186D01*
X5784Y217283D01*
X5768Y217294D01*
X5755Y217309D01*
X5653Y217378D01*
X5554Y217449D01*
X5535Y217456D01*
X5519Y217467D01*
X5401Y217504D01*
X5286Y217546D01*
X5266Y217547D01*
X5248Y217553D01*
X5125Y217556D01*
X5002Y217564D01*
X4983Y217559D01*
X4964Y217560D01*
X4845Y217529D01*
X4725Y217502D01*
X4707Y217493D01*
X4689Y217488D01*
X4583Y217426D01*
X4475Y217367D01*
X4461Y217353D01*
X4444Y217343D01*
X4360Y217253D01*
X4273Y217167D01*
X4263Y217150D01*
X4250Y217136D01*
X4194Y217026D01*
X4134Y216919D01*
X4129Y216900D01*
X4120Y216882D01*
X4108Y216810D01*
X4069Y216642D01*
X4071Y216591D01*
X4065Y216551D01*
X4065Y91367D01*
X4073Y91311D01*
X4071Y91260D01*
X4072Y91259D01*
X4071Y91251D01*
X4093Y91169D01*
X4105Y91086D01*
X4128Y91032D01*
X4143Y90976D01*
X4186Y90903D01*
X4221Y90826D01*
X4259Y90782D01*
X4288Y90731D01*
X4350Y90674D01*
X4404Y90609D01*
X4453Y90577D01*
X4496Y90537D01*
X4571Y90498D01*
X4641Y90452D01*
X4697Y90434D01*
X4749Y90407D01*
X4817Y90396D01*
X4912Y90366D01*
X5012Y90363D01*
X5080Y90352D01*
X7049Y90352D01*
X9653Y87748D01*
X9653Y87204D01*
X9661Y87146D01*
X9659Y87088D01*
X9681Y87006D01*
X9693Y86923D01*
X9716Y86869D01*
X9731Y86813D01*
X9774Y86740D01*
X9809Y86663D01*
X9847Y86619D01*
X9876Y86569D01*
X9938Y86511D01*
X9992Y86446D01*
X10041Y86414D01*
X10084Y86374D01*
X10159Y86336D01*
X10229Y86289D01*
X10285Y86271D01*
X10337Y86245D01*
X10405Y86233D01*
X10500Y86203D01*
X10600Y86200D01*
X10668Y86189D01*
X19891Y86189D01*
X19954Y86198D01*
X20003Y86195D01*
X21540Y86366D01*
X21623Y86323D01*
X21719Y86267D01*
X21750Y86259D01*
X21778Y86245D01*
X21855Y86232D01*
X21994Y86196D01*
X22027Y86196D01*
X23123Y85101D01*
X23174Y85062D01*
X23206Y85026D01*
X24414Y84060D01*
X24443Y83971D01*
X24471Y83863D01*
X24487Y83836D01*
X24496Y83806D01*
X24542Y83742D01*
X24615Y83618D01*
X24639Y83595D01*
X24639Y82046D01*
X24648Y81983D01*
X24645Y81934D01*
X24816Y80396D01*
X24773Y80313D01*
X24716Y80217D01*
X24709Y80187D01*
X24694Y80159D01*
X24681Y80081D01*
X24645Y79942D01*
X24646Y79909D01*
X23550Y78814D01*
X23512Y78763D01*
X23476Y78730D01*
X20081Y74486D01*
X20035Y74408D01*
X19981Y74336D01*
X19963Y74287D01*
X19936Y74242D01*
X19913Y74154D01*
X19882Y74069D01*
X19878Y74017D01*
X19865Y73967D01*
X19867Y73876D01*
X19860Y73786D01*
X19871Y73735D01*
X19873Y73682D01*
X19900Y73596D01*
X19919Y73507D01*
X19943Y73461D01*
X19959Y73412D01*
X20009Y73336D01*
X20052Y73256D01*
X20088Y73219D01*
X20117Y73175D01*
X20186Y73117D01*
X20249Y73052D01*
X20289Y73030D01*
X20334Y72992D01*
X20476Y72929D01*
X20544Y72892D01*
X21835Y72449D01*
X24639Y68524D01*
X24639Y63700D01*
X21835Y59775D01*
X19872Y59102D01*
X19808Y59070D01*
X19757Y59054D01*
X19610Y58983D01*
X19499Y58908D01*
X19388Y58835D01*
X19382Y58829D01*
X19375Y58824D01*
X19288Y58720D01*
X19202Y58620D01*
X19198Y58612D01*
X19193Y58606D01*
X19139Y58483D01*
X19083Y58362D01*
X19082Y58353D01*
X19078Y58346D01*
X19060Y58213D01*
X19040Y58081D01*
X19041Y58073D01*
X19040Y58064D01*
X19082Y57783D01*
X19090Y57765D01*
X19092Y57749D01*
X19998Y55033D01*
X18730Y52498D01*
X18725Y52482D01*
X18715Y52468D01*
X18680Y52347D01*
X18640Y52229D01*
X18639Y52212D01*
X18634Y52195D01*
X18633Y52069D01*
X18628Y51944D01*
X18632Y51928D01*
X18632Y51911D01*
X18652Y51843D01*
X18695Y51668D01*
X18719Y51627D01*
X18730Y51590D01*
X20021Y49008D01*
X20018Y48990D01*
X20029Y48877D01*
X20034Y48763D01*
X20043Y48736D01*
X20046Y48707D01*
X20088Y48601D01*
X20124Y48494D01*
X20141Y48470D01*
X20152Y48443D01*
X20221Y48353D01*
X20286Y48260D01*
X20308Y48241D01*
X20326Y48218D01*
X20418Y48152D01*
X20506Y48080D01*
X20533Y48069D01*
X20556Y48051D01*
X20663Y48013D01*
X20767Y47968D01*
X20796Y47965D01*
X20824Y47955D01*
X20937Y47947D01*
X21049Y47933D01*
X21075Y47938D01*
X21107Y47936D01*
X21354Y47989D01*
X21379Y47994D01*
X21414Y48007D01*
X29386Y48007D01*
X36878Y45280D01*
X42985Y40156D01*
X46971Y33251D01*
X48355Y25400D01*
X46971Y17549D01*
X42985Y10645D01*
X37280Y5858D01*
X37231Y5803D01*
X37175Y5755D01*
X37136Y5698D01*
X37090Y5646D01*
X37058Y5580D01*
X37017Y5519D01*
X36996Y5453D01*
X36966Y5390D01*
X36954Y5318D01*
X36932Y5248D01*
X36930Y5179D01*
X36918Y5110D01*
X36926Y5037D01*
X36924Y4964D01*
X36942Y4897D01*
X36949Y4828D01*
X36977Y4760D01*
X36996Y4689D01*
X37031Y4629D01*
X37058Y4565D01*
X37104Y4507D01*
X37141Y4444D01*
X37192Y4397D01*
X37235Y4343D01*
X37295Y4300D01*
X37349Y4250D01*
X37410Y4218D01*
X37467Y4178D01*
X37536Y4154D01*
X37602Y4120D01*
X37660Y4110D01*
X37735Y4084D01*
X37857Y4077D01*
X37933Y4065D01*
X53024Y4065D01*
X53115Y4078D01*
G37*
G36*
X177915Y16218D02*
X177915Y16218D01*
X178028Y16228D01*
X178055Y16239D01*
X178084Y16243D01*
X178188Y16289D01*
X178293Y16330D01*
X178317Y16348D01*
X178344Y16360D01*
X178430Y16433D01*
X178520Y16502D01*
X178538Y16525D01*
X178560Y16544D01*
X178602Y16611D01*
X178690Y16729D01*
X178712Y16788D01*
X178738Y16829D01*
X179948Y19751D01*
X183449Y23252D01*
X185555Y24124D01*
X185556Y24125D01*
X185557Y24125D01*
X185676Y24195D01*
X185799Y24268D01*
X185800Y24269D01*
X185802Y24270D01*
X185899Y24374D01*
X185995Y24475D01*
X185995Y24476D01*
X185996Y24478D01*
X186061Y24603D01*
X186125Y24728D01*
X186125Y24729D01*
X186126Y24731D01*
X186128Y24746D01*
X186180Y25007D01*
X186177Y25037D01*
X186181Y25062D01*
X186181Y37161D01*
X186169Y37247D01*
X186166Y37335D01*
X186149Y37387D01*
X186141Y37442D01*
X186106Y37522D01*
X186079Y37605D01*
X186051Y37644D01*
X186025Y37701D01*
X185929Y37815D01*
X185884Y37878D01*
X156971Y66791D01*
X156971Y85087D01*
X156959Y85174D01*
X156956Y85261D01*
X156939Y85314D01*
X156931Y85368D01*
X156896Y85448D01*
X156869Y85531D01*
X156841Y85571D01*
X156815Y85628D01*
X156719Y85741D01*
X156674Y85805D01*
X156203Y86276D01*
X156156Y86311D01*
X156116Y86353D01*
X156043Y86396D01*
X155976Y86447D01*
X155921Y86467D01*
X155871Y86497D01*
X155789Y86518D01*
X155710Y86548D01*
X155652Y86553D01*
X155595Y86567D01*
X155511Y86564D01*
X155427Y86571D01*
X155370Y86560D01*
X155311Y86558D01*
X155231Y86532D01*
X155148Y86515D01*
X155096Y86488D01*
X155041Y86470D01*
X154984Y86430D01*
X154896Y86384D01*
X154823Y86316D01*
X154767Y86276D01*
X150199Y81707D01*
X148306Y79814D01*
X146018Y78866D01*
X110522Y78866D01*
X108235Y79814D01*
X87022Y101026D01*
X86997Y101045D01*
X86977Y101068D01*
X86911Y101110D01*
X86795Y101197D01*
X86735Y101220D01*
X86693Y101246D01*
X86572Y101296D01*
X84786Y103083D01*
X83819Y105417D01*
X83819Y107943D01*
X84786Y110277D01*
X86573Y112064D01*
X88907Y113031D01*
X91433Y113031D01*
X93767Y112064D01*
X95554Y110278D01*
X95604Y110157D01*
X95619Y110131D01*
X95629Y110101D01*
X95674Y110037D01*
X95748Y109913D01*
X95795Y109868D01*
X95824Y109828D01*
X108502Y97150D01*
X108526Y97132D01*
X108545Y97110D01*
X108639Y97047D01*
X108729Y96979D01*
X108757Y96968D01*
X108781Y96952D01*
X108889Y96918D01*
X108995Y96877D01*
X109024Y96875D01*
X109052Y96866D01*
X109166Y96863D01*
X109278Y96854D01*
X109307Y96860D01*
X109336Y96859D01*
X109446Y96887D01*
X109557Y96910D01*
X109583Y96923D01*
X109611Y96931D01*
X109709Y96989D01*
X109809Y97041D01*
X109831Y97061D01*
X109856Y97076D01*
X109933Y97158D01*
X110015Y97237D01*
X110030Y97262D01*
X110050Y97283D01*
X110102Y97384D01*
X110159Y97482D01*
X110166Y97510D01*
X110180Y97536D01*
X110193Y97614D01*
X110229Y97757D01*
X110227Y97820D01*
X110235Y97867D01*
X110235Y108923D01*
X111970Y110657D01*
X112022Y110727D01*
X112082Y110791D01*
X112108Y110840D01*
X112141Y110885D01*
X112172Y110966D01*
X112212Y111044D01*
X112220Y111092D01*
X112242Y111150D01*
X112254Y111298D01*
X112267Y111375D01*
X112267Y119203D01*
X112255Y119289D01*
X112252Y119377D01*
X112235Y119429D01*
X112227Y119484D01*
X112192Y119564D01*
X112165Y119647D01*
X112137Y119686D01*
X112111Y119743D01*
X112015Y119857D01*
X111970Y119920D01*
X92488Y139402D01*
X92419Y139454D01*
X92355Y139514D01*
X92305Y139540D01*
X92261Y139573D01*
X92180Y139604D01*
X92102Y139644D01*
X92054Y139652D01*
X91996Y139674D01*
X91848Y139686D01*
X91771Y139699D01*
X90685Y139699D01*
X88351Y140666D01*
X86564Y142453D01*
X85597Y144787D01*
X85597Y147313D01*
X86564Y149647D01*
X88345Y151428D01*
X88362Y151452D01*
X88385Y151471D01*
X88448Y151565D01*
X88516Y151655D01*
X88526Y151683D01*
X88542Y151707D01*
X88577Y151815D01*
X88617Y151921D01*
X88619Y151950D01*
X88628Y151978D01*
X88631Y152092D01*
X88641Y152204D01*
X88635Y152233D01*
X88636Y152262D01*
X88607Y152372D01*
X88585Y152483D01*
X88571Y152509D01*
X88564Y152537D01*
X88506Y152635D01*
X88454Y152735D01*
X88433Y152757D01*
X88418Y152782D01*
X88336Y152859D01*
X88258Y152941D01*
X88233Y152956D01*
X88211Y152976D01*
X88110Y153028D01*
X88013Y153085D01*
X87984Y153092D01*
X87958Y153106D01*
X87881Y153119D01*
X87737Y153155D01*
X87675Y153153D01*
X87627Y153161D01*
X83489Y153161D01*
X83403Y153149D01*
X83315Y153146D01*
X83263Y153129D01*
X83208Y153121D01*
X83128Y153086D01*
X83045Y153059D01*
X83006Y153031D01*
X82949Y153005D01*
X82835Y152909D01*
X82772Y152864D01*
X42208Y112300D01*
X42156Y112231D01*
X42096Y112167D01*
X42070Y112117D01*
X42037Y112073D01*
X42006Y111992D01*
X41966Y111914D01*
X41958Y111866D01*
X41936Y111808D01*
X41924Y111660D01*
X41911Y111583D01*
X41911Y110497D01*
X40944Y108163D01*
X39157Y106376D01*
X36823Y105409D01*
X34297Y105409D01*
X33028Y105935D01*
X32916Y105964D01*
X32807Y105998D01*
X32779Y105999D01*
X32752Y106006D01*
X32638Y106003D01*
X32523Y106006D01*
X32496Y105999D01*
X32468Y105998D01*
X32359Y105963D01*
X32248Y105934D01*
X32224Y105920D01*
X32197Y105911D01*
X32102Y105847D01*
X32003Y105789D01*
X31984Y105768D01*
X31961Y105753D01*
X31887Y105665D01*
X31809Y105581D01*
X31796Y105556D01*
X31778Y105535D01*
X31732Y105430D01*
X31679Y105328D01*
X31675Y105303D01*
X31663Y105276D01*
X31626Y105012D01*
X31624Y104997D01*
X31624Y102058D01*
X31636Y101972D01*
X31639Y101884D01*
X31656Y101832D01*
X31664Y101777D01*
X31699Y101697D01*
X31726Y101614D01*
X31754Y101575D01*
X31780Y101518D01*
X31876Y101404D01*
X31921Y101341D01*
X94176Y39086D01*
X95124Y36798D01*
X95124Y24273D01*
X95124Y24271D01*
X95124Y24269D01*
X95145Y24124D01*
X95164Y23991D01*
X95164Y23990D01*
X95164Y23988D01*
X95224Y23856D01*
X95280Y23732D01*
X95281Y23731D01*
X95282Y23729D01*
X95375Y23619D01*
X95463Y23515D01*
X95465Y23514D01*
X95466Y23513D01*
X95479Y23504D01*
X95700Y23357D01*
X95729Y23348D01*
X95751Y23335D01*
X95951Y23252D01*
X99452Y19751D01*
X100662Y16829D01*
X100677Y16804D01*
X100686Y16776D01*
X100749Y16681D01*
X100807Y16584D01*
X100828Y16564D01*
X100844Y16539D01*
X100931Y16467D01*
X101013Y16389D01*
X101039Y16375D01*
X101062Y16357D01*
X101165Y16311D01*
X101266Y16259D01*
X101295Y16253D01*
X101322Y16241D01*
X101434Y16225D01*
X101545Y16204D01*
X101574Y16206D01*
X101603Y16202D01*
X101715Y16218D01*
X101828Y16228D01*
X101855Y16239D01*
X101884Y16243D01*
X101988Y16289D01*
X102093Y16330D01*
X102117Y16348D01*
X102144Y16360D01*
X102230Y16433D01*
X102320Y16502D01*
X102338Y16525D01*
X102360Y16544D01*
X102402Y16611D01*
X102490Y16729D01*
X102512Y16788D01*
X102538Y16829D01*
X103748Y19751D01*
X107249Y23252D01*
X111824Y25147D01*
X116776Y25147D01*
X121351Y23252D01*
X124852Y19751D01*
X126062Y16829D01*
X126077Y16804D01*
X126086Y16776D01*
X126149Y16681D01*
X126207Y16584D01*
X126228Y16564D01*
X126244Y16539D01*
X126331Y16467D01*
X126413Y16389D01*
X126439Y16375D01*
X126462Y16357D01*
X126565Y16311D01*
X126666Y16259D01*
X126695Y16253D01*
X126722Y16241D01*
X126834Y16225D01*
X126945Y16204D01*
X126974Y16206D01*
X127003Y16202D01*
X127115Y16218D01*
X127228Y16228D01*
X127255Y16239D01*
X127284Y16243D01*
X127388Y16289D01*
X127493Y16330D01*
X127517Y16348D01*
X127544Y16360D01*
X127630Y16433D01*
X127720Y16502D01*
X127738Y16525D01*
X127760Y16544D01*
X127802Y16611D01*
X127890Y16729D01*
X127912Y16788D01*
X127938Y16829D01*
X129148Y19751D01*
X132649Y23252D01*
X137224Y25147D01*
X142176Y25147D01*
X146751Y23252D01*
X150252Y19751D01*
X151462Y16829D01*
X151477Y16804D01*
X151486Y16776D01*
X151549Y16681D01*
X151607Y16584D01*
X151628Y16564D01*
X151644Y16539D01*
X151731Y16467D01*
X151813Y16389D01*
X151839Y16375D01*
X151862Y16357D01*
X151965Y16311D01*
X152066Y16259D01*
X152095Y16253D01*
X152122Y16241D01*
X152234Y16225D01*
X152345Y16204D01*
X152374Y16206D01*
X152403Y16202D01*
X152515Y16218D01*
X152628Y16228D01*
X152655Y16239D01*
X152684Y16243D01*
X152788Y16289D01*
X152893Y16330D01*
X152917Y16348D01*
X152944Y16360D01*
X153030Y16433D01*
X153120Y16502D01*
X153138Y16525D01*
X153160Y16544D01*
X153202Y16611D01*
X153290Y16729D01*
X153312Y16788D01*
X153338Y16829D01*
X154548Y19751D01*
X158049Y23252D01*
X158249Y23335D01*
X158251Y23336D01*
X158252Y23336D01*
X158370Y23406D01*
X158494Y23479D01*
X158495Y23480D01*
X158497Y23481D01*
X158590Y23581D01*
X158690Y23686D01*
X158690Y23687D01*
X158691Y23688D01*
X158754Y23810D01*
X158820Y23939D01*
X158820Y23940D01*
X158821Y23942D01*
X158823Y23956D01*
X158875Y24217D01*
X158872Y24248D01*
X158876Y24273D01*
X158876Y32562D01*
X158864Y32648D01*
X158861Y32736D01*
X158844Y32788D01*
X158836Y32843D01*
X158801Y32923D01*
X158774Y33006D01*
X158746Y33045D01*
X158720Y33102D01*
X158624Y33216D01*
X158579Y33279D01*
X133446Y58412D01*
X133421Y58431D01*
X133401Y58454D01*
X133335Y58496D01*
X133219Y58583D01*
X133159Y58606D01*
X133117Y58632D01*
X132077Y59063D01*
X130183Y60957D01*
X129158Y63431D01*
X129158Y66109D01*
X130183Y68583D01*
X132077Y70477D01*
X134551Y71502D01*
X137229Y71502D01*
X139703Y70477D01*
X141597Y68583D01*
X142028Y67543D01*
X142043Y67517D01*
X142053Y67487D01*
X142098Y67423D01*
X142172Y67299D01*
X142219Y67254D01*
X142248Y67214D01*
X170376Y39086D01*
X171324Y36798D01*
X171324Y24273D01*
X171324Y24271D01*
X171324Y24269D01*
X171345Y24124D01*
X171364Y23991D01*
X171364Y23990D01*
X171364Y23988D01*
X171424Y23856D01*
X171480Y23732D01*
X171481Y23731D01*
X171482Y23729D01*
X171575Y23619D01*
X171663Y23515D01*
X171665Y23514D01*
X171666Y23513D01*
X171679Y23504D01*
X171900Y23357D01*
X171929Y23348D01*
X171951Y23335D01*
X172151Y23252D01*
X175652Y19751D01*
X176862Y16829D01*
X176877Y16804D01*
X176886Y16776D01*
X176949Y16681D01*
X177007Y16584D01*
X177028Y16564D01*
X177044Y16539D01*
X177131Y16467D01*
X177213Y16389D01*
X177239Y16375D01*
X177262Y16357D01*
X177365Y16311D01*
X177466Y16259D01*
X177495Y16253D01*
X177522Y16241D01*
X177634Y16225D01*
X177745Y16204D01*
X177774Y16206D01*
X177803Y16202D01*
X177915Y16218D01*
G37*
G36*
X177498Y146563D02*
X177498Y146563D01*
X177527Y146560D01*
X177638Y146583D01*
X177750Y146599D01*
X177777Y146611D01*
X177806Y146616D01*
X177906Y146668D01*
X178009Y146715D01*
X178032Y146734D01*
X178058Y146747D01*
X178140Y146825D01*
X178226Y146898D01*
X178243Y146923D01*
X178264Y146943D01*
X178321Y147041D01*
X178384Y147135D01*
X178393Y147163D01*
X178408Y147188D01*
X178436Y147298D01*
X178470Y147406D01*
X178471Y147436D01*
X178478Y147464D01*
X178474Y147577D01*
X178477Y147690D01*
X178470Y147719D01*
X178469Y147748D01*
X178434Y147856D01*
X178405Y147965D01*
X178390Y147991D01*
X178381Y148019D01*
X178336Y148082D01*
X178260Y148210D01*
X178214Y148253D01*
X178186Y148292D01*
X166629Y159849D01*
X166560Y159901D01*
X166496Y159961D01*
X166446Y159987D01*
X166402Y160020D01*
X166321Y160051D01*
X166243Y160091D01*
X166195Y160099D01*
X166137Y160121D01*
X165989Y160133D01*
X165912Y160146D01*
X157512Y160146D01*
X155224Y161094D01*
X145674Y170644D01*
X145605Y170696D01*
X145541Y170756D01*
X145491Y170782D01*
X145447Y170815D01*
X145366Y170846D01*
X145288Y170886D01*
X145240Y170894D01*
X145182Y170916D01*
X145034Y170928D01*
X144957Y170941D01*
X78563Y170941D01*
X78477Y170929D01*
X78389Y170926D01*
X78337Y170909D01*
X78282Y170901D01*
X78202Y170866D01*
X78119Y170839D01*
X78080Y170811D01*
X78023Y170785D01*
X77909Y170689D01*
X77846Y170644D01*
X75814Y168612D01*
X75796Y168588D01*
X75774Y168569D01*
X75711Y168475D01*
X75643Y168385D01*
X75632Y168357D01*
X75616Y168333D01*
X75582Y168225D01*
X75541Y168119D01*
X75539Y168090D01*
X75530Y168062D01*
X75527Y167948D01*
X75518Y167836D01*
X75524Y167807D01*
X75523Y167778D01*
X75551Y167668D01*
X75574Y167557D01*
X75587Y167531D01*
X75595Y167503D01*
X75653Y167405D01*
X75705Y167305D01*
X75725Y167283D01*
X75740Y167258D01*
X75822Y167181D01*
X75901Y167099D01*
X75926Y167084D01*
X75947Y167064D01*
X76048Y167012D01*
X76146Y166955D01*
X76174Y166948D01*
X76200Y166934D01*
X76278Y166921D01*
X76421Y166885D01*
X76484Y166887D01*
X76531Y166879D01*
X132599Y166879D01*
X141700Y157778D01*
X141769Y157726D01*
X141833Y157666D01*
X141883Y157640D01*
X141927Y157607D01*
X142008Y157576D01*
X142086Y157536D01*
X142134Y157528D01*
X142192Y157506D01*
X142340Y157494D01*
X142417Y157481D01*
X143503Y157481D01*
X145837Y156514D01*
X147624Y154727D01*
X148591Y152393D01*
X148591Y151307D01*
X148603Y151221D01*
X148606Y151133D01*
X148623Y151081D01*
X148631Y151026D01*
X148666Y150946D01*
X148693Y150863D01*
X148721Y150824D01*
X148747Y150767D01*
X148827Y150671D01*
X148846Y150640D01*
X148864Y150623D01*
X148888Y150590D01*
X152622Y146856D01*
X152691Y146804D01*
X152755Y146744D01*
X152805Y146718D01*
X152849Y146685D01*
X152930Y146654D01*
X153008Y146614D01*
X153056Y146606D01*
X153114Y146584D01*
X153262Y146572D01*
X153339Y146559D01*
X177469Y146559D01*
X177498Y146563D01*
G37*
%LPC*%
G36*
X51734Y14731D02*
X51734Y14731D01*
X51855Y15496D01*
X52436Y17283D01*
X53289Y18957D01*
X54394Y20478D01*
X55722Y21806D01*
X57243Y22911D01*
X58917Y23764D01*
X60704Y24345D01*
X61469Y24466D01*
X61469Y14731D01*
X51734Y14731D01*
G37*
%LPD*%
G36*
X139338Y100279D02*
X139338Y100279D01*
X139360Y100283D01*
X139367Y100298D01*
X139376Y100304D01*
X139375Y100314D01*
X139382Y100330D01*
X139382Y102870D01*
X139370Y102889D01*
X139366Y102911D01*
X139351Y102918D01*
X139345Y102927D01*
X139335Y102926D01*
X139319Y102933D01*
X114681Y102933D01*
X114662Y102921D01*
X114640Y102917D01*
X114633Y102902D01*
X114624Y102896D01*
X114625Y102886D01*
X114618Y102870D01*
X114618Y100330D01*
X114630Y100311D01*
X114634Y100289D01*
X114649Y100282D01*
X114655Y100273D01*
X114665Y100274D01*
X114681Y100267D01*
X139319Y100267D01*
X139338Y100279D01*
G37*
G36*
X184804Y176479D02*
X184804Y176479D01*
X184826Y176483D01*
X184833Y176498D01*
X184842Y176504D01*
X184841Y176514D01*
X184848Y176530D01*
X184848Y179070D01*
X184836Y179089D01*
X184832Y179111D01*
X184817Y179118D01*
X184811Y179127D01*
X184801Y179126D01*
X184785Y179133D01*
X170815Y179133D01*
X170796Y179121D01*
X170774Y179117D01*
X170767Y179102D01*
X170758Y179096D01*
X170759Y179086D01*
X170752Y179070D01*
X170752Y176530D01*
X170764Y176511D01*
X170768Y176489D01*
X170783Y176482D01*
X170789Y176473D01*
X170799Y176474D01*
X170815Y176467D01*
X184785Y176467D01*
X184804Y176479D01*
G37*
%LPC*%
G36*
X32257Y179450D02*
X32257Y179450D01*
X32257Y186691D01*
X33813Y186691D01*
X34586Y186484D01*
X35278Y186084D01*
X35843Y185519D01*
X36243Y184827D01*
X36450Y184054D01*
X36450Y179450D01*
X32257Y179450D01*
G37*
%LPD*%
%LPC*%
G36*
X32257Y168909D02*
X32257Y168909D01*
X32257Y176150D01*
X36450Y176150D01*
X36450Y171546D01*
X36243Y170773D01*
X35843Y170081D01*
X35278Y169516D01*
X34586Y169116D01*
X33813Y168909D01*
X32257Y168909D01*
G37*
%LPD*%
D10*
X15198Y48714D02*
X5207Y52044D01*
X15198Y55374D01*
X12700Y61949D02*
X12995Y61953D01*
X13289Y61963D01*
X13584Y61981D01*
X13878Y62005D01*
X14171Y62037D01*
X14463Y62075D01*
X14754Y62121D01*
X15044Y62174D01*
X15333Y62233D01*
X15620Y62299D01*
X15906Y62372D01*
X16190Y62452D01*
X16472Y62539D01*
X16751Y62632D01*
X17029Y62732D01*
X17303Y62839D01*
X17576Y62952D01*
X17845Y63072D01*
X18112Y63198D01*
X18215Y63236D01*
X18316Y63277D01*
X18415Y63321D01*
X18514Y63369D01*
X18610Y63420D01*
X18704Y63475D01*
X18797Y63533D01*
X18887Y63594D01*
X18975Y63659D01*
X19061Y63726D01*
X19144Y63797D01*
X19225Y63870D01*
X19303Y63946D01*
X19379Y64025D01*
X19451Y64107D01*
X19521Y64191D01*
X19587Y64278D01*
X19651Y64366D01*
X19711Y64457D01*
X19768Y64551D01*
X19822Y64646D01*
X19872Y64743D01*
X19919Y64841D01*
X19962Y64941D01*
X20002Y65043D01*
X20038Y65146D01*
X20070Y65250D01*
X20099Y65356D01*
X20124Y65462D01*
X20145Y65569D01*
X20162Y65677D01*
X20176Y65785D01*
X20185Y65894D01*
X20191Y66003D01*
X20193Y66112D01*
X20191Y66221D01*
X20185Y66330D01*
X20176Y66439D01*
X20162Y66547D01*
X20145Y66655D01*
X20124Y66762D01*
X20099Y66868D01*
X20070Y66974D01*
X20038Y67078D01*
X20002Y67181D01*
X19962Y67283D01*
X19919Y67383D01*
X19872Y67481D01*
X19822Y67578D01*
X19768Y67673D01*
X19711Y67767D01*
X19651Y67858D01*
X19587Y67946D01*
X19521Y68033D01*
X19451Y68117D01*
X19379Y68199D01*
X19303Y68278D01*
X19225Y68354D01*
X19144Y68427D01*
X19061Y68498D01*
X18975Y68565D01*
X18887Y68630D01*
X18797Y68691D01*
X18704Y68749D01*
X18610Y68804D01*
X18514Y68855D01*
X18415Y68903D01*
X18316Y68947D01*
X18215Y68988D01*
X18112Y69026D01*
X17845Y69152D01*
X17576Y69272D01*
X17303Y69385D01*
X17029Y69492D01*
X16751Y69592D01*
X16472Y69685D01*
X16190Y69772D01*
X15906Y69852D01*
X15620Y69925D01*
X15333Y69991D01*
X15044Y70050D01*
X14754Y70103D01*
X14463Y70149D01*
X14171Y70187D01*
X13878Y70219D01*
X13584Y70243D01*
X13289Y70261D01*
X12995Y70271D01*
X12700Y70275D01*
X12700Y61949D02*
X12405Y61953D01*
X12111Y61963D01*
X11816Y61981D01*
X11522Y62005D01*
X11229Y62037D01*
X10937Y62075D01*
X10646Y62121D01*
X10356Y62174D01*
X10067Y62233D01*
X9780Y62299D01*
X9494Y62372D01*
X9210Y62452D01*
X8928Y62539D01*
X8649Y62632D01*
X8371Y62732D01*
X8097Y62839D01*
X7824Y62952D01*
X7555Y63072D01*
X7288Y63198D01*
X7185Y63236D01*
X7084Y63277D01*
X6985Y63321D01*
X6886Y63369D01*
X6790Y63420D01*
X6696Y63475D01*
X6603Y63533D01*
X6513Y63594D01*
X6425Y63659D01*
X6339Y63726D01*
X6256Y63797D01*
X6175Y63870D01*
X6097Y63946D01*
X6021Y64025D01*
X5949Y64107D01*
X5879Y64191D01*
X5813Y64278D01*
X5749Y64366D01*
X5689Y64457D01*
X5632Y64551D01*
X5578Y64646D01*
X5528Y64743D01*
X5481Y64841D01*
X5438Y64941D01*
X5398Y65043D01*
X5362Y65146D01*
X5330Y65250D01*
X5301Y65356D01*
X5276Y65462D01*
X5255Y65569D01*
X5238Y65677D01*
X5224Y65785D01*
X5215Y65894D01*
X5209Y66003D01*
X5207Y66112D01*
X7288Y69026D02*
X7555Y69152D01*
X7824Y69272D01*
X8097Y69385D01*
X8371Y69492D01*
X8649Y69592D01*
X8928Y69685D01*
X9210Y69772D01*
X9494Y69852D01*
X9780Y69925D01*
X10067Y69991D01*
X10356Y70050D01*
X10646Y70103D01*
X10937Y70149D01*
X11229Y70187D01*
X11522Y70219D01*
X11816Y70243D01*
X12111Y70261D01*
X12405Y70271D01*
X12700Y70275D01*
X7288Y69026D02*
X7185Y68988D01*
X7084Y68947D01*
X6985Y68903D01*
X6886Y68855D01*
X6790Y68804D01*
X6696Y68749D01*
X6603Y68691D01*
X6513Y68630D01*
X6425Y68565D01*
X6339Y68498D01*
X6256Y68427D01*
X6175Y68354D01*
X6097Y68278D01*
X6021Y68199D01*
X5949Y68117D01*
X5879Y68033D01*
X5813Y67946D01*
X5749Y67858D01*
X5689Y67766D01*
X5632Y67673D01*
X5578Y67578D01*
X5528Y67481D01*
X5481Y67383D01*
X5438Y67283D01*
X5398Y67181D01*
X5362Y67078D01*
X5330Y66974D01*
X5301Y66868D01*
X5276Y66762D01*
X5255Y66655D01*
X5238Y66547D01*
X5224Y66439D01*
X5215Y66330D01*
X5209Y66221D01*
X5207Y66112D01*
X8537Y62782D02*
X16863Y69442D01*
X16863Y77581D02*
X20193Y81743D01*
X5207Y81743D01*
X5207Y77581D02*
X5207Y85906D01*
D11*
X50800Y50800D03*
X190500Y241300D03*
D12*
X140221Y107455D02*
X134607Y107455D01*
X140221Y107455D02*
X140221Y95745D01*
X134607Y95745D01*
X134607Y107455D01*
X134607Y96686D02*
X140221Y96686D01*
X140221Y97627D02*
X134607Y97627D01*
X134607Y98568D02*
X140221Y98568D01*
X140221Y99509D02*
X134607Y99509D01*
X134607Y100450D02*
X140221Y100450D01*
X140221Y101391D02*
X134607Y101391D01*
X134607Y102332D02*
X140221Y102332D01*
X140221Y103273D02*
X134607Y103273D01*
X134607Y104214D02*
X140221Y104214D01*
X140221Y105155D02*
X134607Y105155D01*
X134607Y106096D02*
X140221Y106096D01*
X140221Y107037D02*
X134607Y107037D01*
X129807Y107455D02*
X124193Y107455D01*
X129807Y107455D02*
X129807Y95745D01*
X124193Y95745D01*
X124193Y107455D01*
X124193Y96686D02*
X129807Y96686D01*
X129807Y97627D02*
X124193Y97627D01*
X124193Y98568D02*
X129807Y98568D01*
X129807Y99509D02*
X124193Y99509D01*
X124193Y100450D02*
X129807Y100450D01*
X129807Y101391D02*
X124193Y101391D01*
X124193Y102332D02*
X129807Y102332D01*
X129807Y103273D02*
X124193Y103273D01*
X124193Y104214D02*
X129807Y104214D01*
X129807Y105155D02*
X124193Y105155D01*
X124193Y106096D02*
X129807Y106096D01*
X129807Y107037D02*
X124193Y107037D01*
X119393Y107455D02*
X113779Y107455D01*
X119393Y107455D02*
X119393Y95745D01*
X113779Y95745D01*
X113779Y107455D01*
X113779Y96686D02*
X119393Y96686D01*
X119393Y97627D02*
X113779Y97627D01*
X113779Y98568D02*
X119393Y98568D01*
X119393Y99509D02*
X113779Y99509D01*
X113779Y100450D02*
X119393Y100450D01*
X119393Y101391D02*
X113779Y101391D01*
X113779Y102332D02*
X119393Y102332D01*
X119393Y103273D02*
X113779Y103273D01*
X113779Y104214D02*
X119393Y104214D01*
X119393Y105155D02*
X113779Y105155D01*
X113779Y106096D02*
X119393Y106096D01*
X119393Y107037D02*
X113779Y107037D01*
X180200Y183655D02*
X185814Y183655D01*
X185814Y171945D01*
X180200Y171945D01*
X180200Y183655D01*
X180200Y172886D02*
X185814Y172886D01*
X185814Y173827D02*
X180200Y173827D01*
X180200Y174768D02*
X185814Y174768D01*
X185814Y175709D02*
X180200Y175709D01*
X180200Y176650D02*
X185814Y176650D01*
X185814Y177591D02*
X180200Y177591D01*
X180200Y178532D02*
X185814Y178532D01*
X185814Y179473D02*
X180200Y179473D01*
X180200Y180414D02*
X185814Y180414D01*
X185814Y181355D02*
X180200Y181355D01*
X180200Y182296D02*
X185814Y182296D01*
X185814Y183237D02*
X180200Y183237D01*
X175400Y183655D02*
X169786Y183655D01*
X175400Y183655D02*
X175400Y171945D01*
X169786Y171945D01*
X169786Y183655D01*
X169786Y172886D02*
X175400Y172886D01*
X175400Y173827D02*
X169786Y173827D01*
X169786Y174768D02*
X175400Y174768D01*
X175400Y175709D02*
X169786Y175709D01*
X169786Y176650D02*
X175400Y176650D01*
X175400Y177591D02*
X169786Y177591D01*
X169786Y178532D02*
X175400Y178532D01*
X175400Y179473D02*
X169786Y179473D01*
X169786Y180414D02*
X175400Y180414D01*
X175400Y181355D02*
X169786Y181355D01*
X169786Y182296D02*
X175400Y182296D01*
X175400Y183237D02*
X169786Y183237D01*
X33414Y183655D02*
X27800Y183655D01*
X33414Y183655D02*
X33414Y171945D01*
X27800Y171945D01*
X27800Y183655D01*
X27800Y172886D02*
X33414Y172886D01*
X33414Y173827D02*
X27800Y173827D01*
X27800Y174768D02*
X33414Y174768D01*
X33414Y175709D02*
X27800Y175709D01*
X27800Y176650D02*
X33414Y176650D01*
X33414Y177591D02*
X27800Y177591D01*
X27800Y178532D02*
X33414Y178532D01*
X33414Y179473D02*
X27800Y179473D01*
X27800Y180414D02*
X33414Y180414D01*
X33414Y181355D02*
X27800Y181355D01*
X27800Y182296D02*
X33414Y182296D01*
X33414Y183237D02*
X27800Y183237D01*
X23000Y183655D02*
X17386Y183655D01*
X23000Y183655D02*
X23000Y171945D01*
X17386Y171945D01*
X17386Y183655D01*
X17386Y172886D02*
X23000Y172886D01*
X23000Y173827D02*
X17386Y173827D01*
X17386Y174768D02*
X23000Y174768D01*
X23000Y175709D02*
X17386Y175709D01*
X17386Y176650D02*
X23000Y176650D01*
X23000Y177591D02*
X17386Y177591D01*
X17386Y178532D02*
X23000Y178532D01*
X23000Y179473D02*
X17386Y179473D01*
X17386Y180414D02*
X23000Y180414D01*
X23000Y181355D02*
X17386Y181355D01*
X17386Y182296D02*
X23000Y182296D01*
X23000Y183237D02*
X17386Y183237D01*
D13*
X63500Y12700D03*
X88900Y12700D03*
X114300Y12700D03*
X139700Y12700D03*
X165100Y12700D03*
X190500Y12700D03*
D14*
X30480Y132080D03*
D15*
X25400Y127000D01*
X25400Y99060D01*
X88900Y35560D02*
X88900Y12700D01*
X88900Y35560D02*
X25400Y99060D01*
X168910Y166370D02*
X194310Y140970D01*
X196850Y140970D02*
X215900Y121920D01*
X196850Y140970D02*
X194310Y140970D01*
D14*
X215900Y121920D03*
D15*
X147955Y177165D02*
X75565Y177165D01*
X147955Y177165D02*
X158750Y166370D01*
X168910Y166370D01*
X75565Y177165D02*
X30480Y132080D01*
D14*
X45720Y91440D03*
X203200Y88900D03*
X190500Y203200D03*
X102870Y124460D03*
X63500Y203200D03*
X151130Y160020D03*
X152400Y185420D03*
X82550Y168910D03*
X228600Y63500D03*
X237490Y114300D03*
X127000Y168910D03*
X12700Y114300D03*
X152400Y63500D03*
X115570Y148590D03*
X35560Y111760D03*
D16*
X81280Y157480D01*
X106680Y157480D02*
X115570Y148590D01*
X106680Y157480D02*
X81280Y157480D01*
X115570Y148590D02*
X118110Y148590D01*
X130810Y135890D01*
X178429Y135890D01*
X180969Y133350D02*
X181610Y133350D01*
X180969Y133350D02*
X178429Y135890D01*
D14*
X181610Y133350D03*
X142240Y151130D03*
X35560Y121920D03*
D16*
X130810Y162560D02*
X142240Y151130D01*
X76200Y162560D02*
X35560Y121920D01*
X76200Y162560D02*
X130810Y162560D01*
X189525Y134954D02*
X189525Y126705D01*
D14*
X189525Y126705D03*
D16*
X182239Y142240D02*
X151130Y142240D01*
X142240Y151130D01*
X182239Y142240D02*
X189525Y134954D01*
D14*
X24819Y199263D03*
D16*
X24819Y185615D01*
X22289Y179896D02*
X20193Y177800D01*
X22289Y183085D02*
X24819Y185615D01*
X22289Y183085D02*
X22289Y179896D01*
X183007Y177800D02*
X183007Y165227D01*
X182880Y165100D01*
D14*
X182880Y165100D03*
X91948Y146050D03*
D16*
X116586Y121412D02*
X116586Y101600D01*
X116586Y121412D02*
X91948Y146050D01*
D14*
X102870Y144780D03*
D16*
X104140Y144780D02*
X137414Y111506D01*
X104140Y144780D02*
X102870Y144780D01*
X137414Y111506D02*
X137414Y101600D01*
D15*
X127000Y86360D02*
X125730Y85090D01*
X127000Y86360D02*
X127000Y101600D01*
D14*
X152400Y107950D03*
D15*
X152400Y92710D01*
X144780Y85090D02*
X125730Y85090D01*
X144780Y85090D02*
X152400Y92710D01*
D14*
X162560Y177800D03*
D15*
X172593Y177800D01*
D14*
X90170Y106680D03*
D15*
X111760Y85090D02*
X125730Y85090D01*
X111760Y85090D02*
X90170Y106680D01*
D14*
X161290Y90170D03*
D16*
X161290Y68580D01*
X190500Y39370D02*
X190500Y12700D01*
X190500Y39370D02*
X161290Y68580D01*
D14*
X152400Y127000D03*
D16*
X161290Y118110D01*
X161290Y90170D01*
D17*
X135890Y64770D03*
D15*
X165100Y35560D02*
X165100Y12700D01*
X165100Y35560D02*
X135890Y64770D01*
M02*
