G04 EAGLE Gerber RS-274X export*
G75*
%MOMM*%
%FSLAX34Y34*%
%LPD*%
%INSilkscreen Top*%
%IPPOS*%
%AMOC8*
5,1,8,0,0,1.08239X$1,22.5*%
G01*
%ADD10C,0.203200*%
%ADD11C,0.152400*%
%ADD12C,0.254000*%
%ADD13C,0.127000*%

G36*
X171947Y19697D02*
X171947Y19697D01*
X171942Y19704D01*
X171949Y19710D01*
X171949Y86410D01*
X171946Y86414D01*
X171949Y86417D01*
X171849Y87117D01*
X171848Y87118D01*
X171849Y87118D01*
X171749Y87718D01*
X171745Y87721D01*
X171747Y87724D01*
X171547Y88424D01*
X171542Y88428D01*
X171544Y88432D01*
X170944Y89632D01*
X170940Y89634D01*
X170941Y89637D01*
X170541Y90237D01*
X170538Y90238D01*
X170538Y90241D01*
X170138Y90741D01*
X170134Y90742D01*
X170135Y90745D01*
X169635Y91245D01*
X169631Y91245D01*
X169631Y91248D01*
X169131Y91648D01*
X169127Y91649D01*
X169127Y91651D01*
X168527Y92051D01*
X168523Y92051D01*
X168522Y92054D01*
X167922Y92354D01*
X167917Y92353D01*
X167916Y92357D01*
X167316Y92557D01*
X167314Y92556D01*
X167314Y92557D01*
X166614Y92757D01*
X166609Y92756D01*
X166607Y92759D01*
X165908Y92859D01*
X165308Y92959D01*
X165303Y92956D01*
X165300Y92959D01*
X164600Y92959D01*
X164596Y92956D01*
X164593Y92959D01*
X163893Y92859D01*
X163888Y92854D01*
X163884Y92857D01*
X163285Y92657D01*
X162586Y92457D01*
X162582Y92452D01*
X162578Y92454D01*
X161378Y91854D01*
X161375Y91847D01*
X161369Y91848D01*
X160869Y91448D01*
X160868Y91444D01*
X160865Y91445D01*
X159865Y90445D01*
X159865Y90441D01*
X159862Y90441D01*
X159462Y89941D01*
X159461Y89937D01*
X159459Y89937D01*
X159059Y89337D01*
X159060Y89328D01*
X159053Y89326D01*
X158854Y88729D01*
X158556Y88132D01*
X158558Y88121D01*
X158551Y88117D01*
X158451Y87417D01*
X158351Y86718D01*
X158251Y86118D01*
X158254Y86113D01*
X158253Y86112D01*
X158251Y86110D01*
X158251Y19710D01*
X158287Y19663D01*
X158294Y19668D01*
X158300Y19661D01*
X171900Y19661D01*
X171947Y19697D01*
G37*
G36*
X120826Y20540D02*
X120826Y20540D01*
X120839Y20540D01*
X121139Y20940D01*
X121139Y20948D01*
X121143Y20951D01*
X121139Y20955D01*
X121139Y20962D01*
X121149Y20970D01*
X121149Y55170D01*
X121146Y55174D01*
X121149Y55177D01*
X121049Y55877D01*
X121044Y55882D01*
X121047Y55886D01*
X120847Y56485D01*
X120647Y57184D01*
X120646Y57185D01*
X120647Y57186D01*
X120447Y57786D01*
X120439Y57791D01*
X120441Y57797D01*
X120043Y58395D01*
X119744Y58992D01*
X119734Y58997D01*
X119735Y59005D01*
X119235Y59505D01*
X119231Y59505D01*
X119231Y59508D01*
X118231Y60308D01*
X118227Y60309D01*
X118227Y60311D01*
X117627Y60711D01*
X117623Y60711D01*
X117622Y60714D01*
X116422Y61314D01*
X116411Y61312D01*
X116407Y61319D01*
X115708Y61419D01*
X115108Y61519D01*
X115107Y61518D01*
X115107Y61519D01*
X114407Y61619D01*
X114402Y61616D01*
X114400Y61619D01*
X113700Y61619D01*
X113696Y61616D01*
X113693Y61619D01*
X112993Y61519D01*
X112988Y61514D01*
X112984Y61517D01*
X111784Y61117D01*
X111783Y61114D01*
X111781Y61115D01*
X111081Y60815D01*
X111078Y60811D01*
X111075Y60812D01*
X110575Y60512D01*
X110574Y60511D01*
X110573Y60511D01*
X109973Y60111D01*
X109970Y60104D01*
X109965Y60105D01*
X109465Y59605D01*
X109465Y59601D01*
X109462Y59601D01*
X108662Y58601D01*
X108661Y58597D01*
X108659Y58597D01*
X108259Y57997D01*
X108259Y57993D01*
X108256Y57992D01*
X107956Y57392D01*
X107957Y57385D01*
X107953Y57384D01*
X107753Y56685D01*
X107553Y56086D01*
X107557Y56075D01*
X107551Y56070D01*
X107551Y55373D01*
X107451Y54677D01*
X107454Y54672D01*
X107451Y54670D01*
X107451Y20870D01*
X107470Y20844D01*
X107470Y20831D01*
X107870Y20531D01*
X107892Y20531D01*
X107900Y20521D01*
X120800Y20521D01*
X120826Y20540D01*
G37*
G36*
X70247Y20457D02*
X70247Y20457D01*
X70245Y20460D01*
X70249Y20462D01*
X70349Y21062D01*
X70346Y21067D01*
X70349Y21070D01*
X70349Y54870D01*
X70344Y54877D01*
X70347Y54886D01*
X70334Y54890D01*
X70313Y54917D01*
X70294Y54903D01*
X70293Y54904D01*
X70329Y54930D01*
X70339Y54962D01*
X70349Y54970D01*
X70349Y58270D01*
X70313Y58317D01*
X70306Y58312D01*
X70300Y58319D01*
X56800Y58319D01*
X56753Y58283D01*
X56755Y58280D01*
X56751Y58278D01*
X56651Y57678D01*
X56654Y57673D01*
X56651Y57670D01*
X56651Y20470D01*
X56687Y20423D01*
X56694Y20428D01*
X56700Y20421D01*
X70200Y20421D01*
X70247Y20457D01*
G37*
G36*
X95647Y20757D02*
X95647Y20757D01*
X95645Y20760D01*
X95649Y20762D01*
X95749Y21362D01*
X95746Y21367D01*
X95749Y21370D01*
X95749Y57770D01*
X95720Y57808D01*
X95718Y57816D01*
X95218Y58016D01*
X95205Y58012D01*
X95200Y58019D01*
X82300Y58019D01*
X82262Y57990D01*
X82254Y57988D01*
X82054Y57488D01*
X82057Y57478D01*
X82053Y57475D01*
X82054Y57473D01*
X82051Y57470D01*
X82051Y20870D01*
X82087Y20823D01*
X82090Y20825D01*
X82092Y20821D01*
X82692Y20721D01*
X82697Y20724D01*
X82700Y20721D01*
X95600Y20721D01*
X95647Y20757D01*
G37*
G36*
X146011Y20659D02*
X146011Y20659D01*
X146018Y20654D01*
X146518Y20854D01*
X146533Y20878D01*
X146540Y20884D01*
X146538Y20887D01*
X146543Y20895D01*
X146549Y20900D01*
X146549Y52100D01*
X146546Y52105D01*
X146549Y52108D01*
X146449Y52704D01*
X146449Y53400D01*
X146442Y53409D01*
X146447Y53416D01*
X146247Y54015D01*
X146047Y54714D01*
X146042Y54718D01*
X146044Y54722D01*
X145744Y55322D01*
X145740Y55324D01*
X145741Y55327D01*
X145341Y55927D01*
X145338Y55928D01*
X145338Y55931D01*
X144538Y56931D01*
X144534Y56932D01*
X144535Y56935D01*
X144035Y57435D01*
X144028Y57436D01*
X144027Y57441D01*
X143427Y57841D01*
X143423Y57841D01*
X143422Y57844D01*
X142222Y58444D01*
X142217Y58443D01*
X142216Y58447D01*
X141616Y58647D01*
X141614Y58646D01*
X141614Y58647D01*
X140914Y58847D01*
X140904Y58844D01*
X140900Y58849D01*
X140204Y58849D01*
X139608Y58949D01*
X139598Y58943D01*
X139593Y58949D01*
X138193Y58749D01*
X138188Y58744D01*
X138184Y58747D01*
X137585Y58547D01*
X136886Y58347D01*
X136882Y58342D01*
X136878Y58344D01*
X136278Y58044D01*
X136275Y58037D01*
X136269Y58038D01*
X135771Y57640D01*
X135173Y57241D01*
X135170Y57234D01*
X135165Y57235D01*
X134665Y56735D01*
X134665Y56731D01*
X134662Y56731D01*
X134262Y56231D01*
X134261Y56227D01*
X134259Y56227D01*
X133859Y55627D01*
X133859Y55623D01*
X133856Y55622D01*
X133256Y54422D01*
X133257Y54417D01*
X133253Y54416D01*
X133053Y53816D01*
X133055Y53811D01*
X133052Y53809D01*
X133053Y53808D01*
X133051Y53807D01*
X132851Y52407D01*
X132854Y52402D01*
X132851Y52400D01*
X132851Y21200D01*
X132859Y21189D01*
X132854Y21182D01*
X133054Y20682D01*
X133095Y20657D01*
X133100Y20651D01*
X146000Y20651D01*
X146011Y20659D01*
G37*
G36*
X196705Y20484D02*
X196705Y20484D01*
X196708Y20481D01*
X197308Y20581D01*
X197349Y20625D01*
X197346Y20628D01*
X197349Y20630D01*
X197349Y50230D01*
X197346Y50234D01*
X197349Y50237D01*
X197249Y50937D01*
X197244Y50942D01*
X197247Y50946D01*
X197047Y51545D01*
X196847Y52244D01*
X196842Y52248D01*
X196844Y52252D01*
X196244Y53452D01*
X196237Y53455D01*
X196238Y53461D01*
X195438Y54461D01*
X195434Y54462D01*
X195435Y54465D01*
X194935Y54965D01*
X194928Y54966D01*
X194927Y54971D01*
X194327Y55371D01*
X194323Y55371D01*
X194322Y55374D01*
X192522Y56274D01*
X192511Y56272D01*
X192507Y56279D01*
X191808Y56379D01*
X191208Y56479D01*
X191207Y56478D01*
X191207Y56479D01*
X190507Y56579D01*
X190498Y56574D01*
X190493Y56579D01*
X189793Y56479D01*
X189792Y56478D01*
X189792Y56479D01*
X189192Y56379D01*
X188493Y56279D01*
X188485Y56271D01*
X188478Y56274D01*
X187881Y55976D01*
X187284Y55777D01*
X187279Y55769D01*
X187273Y55771D01*
X186073Y54971D01*
X186070Y54964D01*
X186065Y54965D01*
X185565Y54465D01*
X185565Y54461D01*
X185562Y54461D01*
X184762Y53461D01*
X184761Y53453D01*
X184756Y53452D01*
X184156Y52252D01*
X184157Y52245D01*
X184153Y52244D01*
X183953Y51545D01*
X183753Y50946D01*
X183755Y50939D01*
X183751Y50937D01*
X183651Y50237D01*
X183654Y50232D01*
X183651Y50230D01*
X183651Y21130D01*
X183654Y21125D01*
X183651Y21122D01*
X183751Y20522D01*
X183795Y20481D01*
X183798Y20484D01*
X183800Y20481D01*
X196700Y20481D01*
X196705Y20484D01*
G37*
G36*
X13840Y57088D02*
X13840Y57088D01*
X13862Y57091D01*
X13870Y57108D01*
X13879Y57113D01*
X13877Y57123D01*
X13884Y57138D01*
X13896Y57554D01*
X13896Y57555D01*
X13896Y60734D01*
X13890Y60743D01*
X13893Y60754D01*
X13873Y60770D01*
X13860Y60791D01*
X13849Y60789D01*
X13840Y60796D01*
X13797Y60782D01*
X13792Y60781D01*
X13792Y60780D01*
X13791Y60780D01*
X13474Y60482D01*
X13063Y60167D01*
X12598Y59945D01*
X12095Y59825D01*
X11578Y59791D01*
X11060Y59839D01*
X10555Y59957D01*
X10071Y60142D01*
X9622Y60399D01*
X9236Y60744D01*
X8911Y61148D01*
X8646Y61594D01*
X8439Y62070D01*
X8314Y62576D01*
X8241Y63094D01*
X8205Y63615D01*
X8245Y64136D01*
X8328Y64652D01*
X8460Y65156D01*
X8676Y65628D01*
X8958Y66063D01*
X9300Y66451D01*
X9700Y66778D01*
X10153Y67030D01*
X10646Y67189D01*
X11158Y67277D01*
X11677Y67310D01*
X12192Y67254D01*
X12687Y67105D01*
X13145Y66868D01*
X13550Y66539D01*
X13551Y66538D01*
X13552Y66537D01*
X13796Y66352D01*
X13804Y66352D01*
X13808Y66345D01*
X13836Y66349D01*
X13864Y66347D01*
X13867Y66354D01*
X13875Y66355D01*
X13896Y66402D01*
X13896Y67007D01*
X13907Y67233D01*
X16207Y67233D01*
X16203Y66987D01*
X16211Y66975D01*
X16231Y57329D01*
X16231Y57328D01*
X16231Y57326D01*
X16240Y57136D01*
X16252Y57119D01*
X16255Y57098D01*
X16273Y57090D01*
X16280Y57081D01*
X16289Y57083D01*
X16303Y57077D01*
X38881Y57079D01*
X38883Y57080D01*
X38887Y57079D01*
X39941Y57185D01*
X39944Y57187D01*
X39948Y57186D01*
X40463Y57298D01*
X40466Y57300D01*
X40470Y57299D01*
X41475Y57628D01*
X41479Y57632D01*
X41486Y57633D01*
X42417Y58138D01*
X42419Y58142D01*
X42426Y58144D01*
X43255Y58800D01*
X43256Y58803D01*
X43260Y58805D01*
X43637Y59173D01*
X43638Y59176D01*
X43642Y59178D01*
X44309Y60001D01*
X44309Y60006D01*
X44315Y60010D01*
X44821Y60941D01*
X44820Y60946D01*
X44824Y60950D01*
X45008Y61444D01*
X45007Y61446D01*
X45009Y61448D01*
X45166Y61953D01*
X45165Y61955D01*
X45167Y61957D01*
X45291Y62470D01*
X45289Y62474D01*
X45292Y62478D01*
X45399Y63532D01*
X45396Y63537D01*
X45399Y63544D01*
X45309Y64598D01*
X45308Y64600D01*
X45309Y64604D01*
X45218Y65123D01*
X45216Y65126D01*
X45216Y65131D01*
X44902Y66143D01*
X44898Y66146D01*
X44898Y66154D01*
X44397Y67087D01*
X44394Y67088D01*
X44393Y67093D01*
X44090Y67525D01*
X44088Y67526D01*
X44087Y67529D01*
X43750Y67938D01*
X43749Y67938D01*
X43748Y67940D01*
X43718Y67974D01*
X43661Y68036D01*
X43661Y68037D01*
X43604Y68099D01*
X43547Y68162D01*
X43434Y68287D01*
X43434Y68288D01*
X43394Y68331D01*
X43390Y68332D01*
X43387Y68338D01*
X42570Y69012D01*
X42565Y69012D01*
X42561Y69018D01*
X41636Y69533D01*
X41633Y69533D01*
X41629Y69536D01*
X41143Y69738D01*
X41140Y69738D01*
X41136Y69741D01*
X40122Y70042D01*
X40117Y70041D01*
X40111Y70044D01*
X39056Y70151D01*
X38867Y70170D01*
X38864Y70168D01*
X38861Y70170D01*
X11845Y70170D01*
X11843Y70168D01*
X11839Y70170D01*
X10785Y70065D01*
X10782Y70063D01*
X10779Y70064D01*
X10262Y69960D01*
X10260Y69958D01*
X10255Y69959D01*
X9247Y69636D01*
X9243Y69632D01*
X9236Y69632D01*
X8305Y69126D01*
X8303Y69123D01*
X8297Y69122D01*
X7873Y68808D01*
X7872Y68807D01*
X7870Y68806D01*
X7461Y68469D01*
X7461Y68467D01*
X7458Y68466D01*
X7076Y68103D01*
X7075Y68099D01*
X7071Y68097D01*
X6398Y67279D01*
X6398Y67274D01*
X6392Y67269D01*
X5886Y66338D01*
X5886Y66334D01*
X5883Y66330D01*
X5693Y65839D01*
X5693Y65837D01*
X5691Y65834D01*
X5534Y65329D01*
X5535Y65327D01*
X5533Y65326D01*
X5402Y64814D01*
X5404Y64810D01*
X5401Y64805D01*
X5294Y63751D01*
X5296Y63747D01*
X5294Y63741D01*
X5323Y63214D01*
X5324Y63213D01*
X5323Y63211D01*
X5376Y62684D01*
X5377Y62683D01*
X5377Y62681D01*
X5460Y62160D01*
X5463Y62157D01*
X5462Y62151D01*
X5776Y61139D01*
X5780Y61136D01*
X5781Y61129D01*
X6275Y60193D01*
X6278Y60191D01*
X6278Y60187D01*
X6575Y59751D01*
X6578Y59750D01*
X6579Y59745D01*
X6696Y59608D01*
X6750Y59545D01*
X6803Y59483D01*
X6964Y59294D01*
X7017Y59232D01*
X7071Y59169D01*
X7124Y59106D01*
X7266Y58940D01*
X7270Y58939D01*
X7273Y58933D01*
X8091Y58258D01*
X8095Y58258D01*
X8100Y58252D01*
X9021Y57732D01*
X9024Y57732D01*
X9027Y57729D01*
X9511Y57520D01*
X9514Y57520D01*
X9517Y57517D01*
X10530Y57208D01*
X10535Y57210D01*
X10542Y57206D01*
X11596Y57100D01*
X11598Y57101D01*
X11600Y57100D01*
X12128Y57077D01*
X12129Y57077D01*
X12131Y57077D01*
X13822Y57077D01*
X13840Y57088D01*
G37*
G36*
X220409Y62921D02*
X220409Y62921D01*
X220471Y62923D01*
X220493Y62936D01*
X220519Y62940D01*
X220590Y62988D01*
X220623Y63006D01*
X220629Y63014D01*
X220639Y63021D01*
X221139Y63521D01*
X221158Y63552D01*
X221196Y63594D01*
X221472Y64054D01*
X221939Y64521D01*
X221947Y64534D01*
X221962Y64547D01*
X222451Y65133D01*
X223639Y66321D01*
X223646Y66332D01*
X223659Y66343D01*
X224849Y67732D01*
X225806Y68688D01*
X226704Y69227D01*
X227201Y69310D01*
X229070Y69310D01*
X229096Y69316D01*
X229133Y69315D01*
X230333Y69515D01*
X230348Y69522D01*
X230370Y69523D01*
X231470Y69823D01*
X231487Y69832D01*
X231511Y69837D01*
X232511Y70237D01*
X232533Y70252D01*
X232566Y70264D01*
X233566Y70864D01*
X233586Y70884D01*
X233620Y70904D01*
X234420Y71604D01*
X234427Y71613D01*
X234439Y71621D01*
X235239Y72421D01*
X235250Y72439D01*
X235270Y72457D01*
X235970Y73357D01*
X235981Y73380D01*
X236002Y73405D01*
X237002Y75205D01*
X237013Y75241D01*
X237038Y75293D01*
X237538Y77193D01*
X237539Y77225D01*
X237550Y77268D01*
X237650Y78968D01*
X237643Y79004D01*
X237644Y79060D01*
X237344Y80660D01*
X237335Y80681D01*
X237331Y80710D01*
X236831Y82210D01*
X236812Y82241D01*
X236791Y82294D01*
X236091Y83394D01*
X236072Y83413D01*
X236054Y83443D01*
X235829Y83696D01*
X235491Y84076D01*
X235254Y84343D01*
X235222Y84365D01*
X235172Y84412D01*
X234372Y84912D01*
X234342Y84923D01*
X234322Y84937D01*
X234287Y84943D01*
X234242Y84963D01*
X234225Y84963D01*
X234208Y84968D01*
X234176Y84964D01*
X234170Y84964D01*
X234162Y84962D01*
X234139Y84959D01*
X234069Y84957D01*
X234054Y84948D01*
X234036Y84946D01*
X234006Y84926D01*
X234001Y84925D01*
X233987Y84913D01*
X233978Y84907D01*
X233917Y84874D01*
X233907Y84859D01*
X233892Y84849D01*
X233876Y84821D01*
X233868Y84815D01*
X233854Y84784D01*
X233817Y84732D01*
X233814Y84713D01*
X233806Y84699D01*
X233804Y84673D01*
X233797Y84656D01*
X233798Y84631D01*
X233790Y84590D01*
X233790Y83752D01*
X233718Y83536D01*
X233658Y83415D01*
X233465Y83222D01*
X233308Y83170D01*
X233117Y83170D01*
X232403Y83349D01*
X232061Y83520D01*
X231790Y83701D01*
X231420Y83978D01*
X230866Y84532D01*
X230523Y85046D01*
X230450Y85337D01*
X230450Y85828D01*
X230522Y86044D01*
X230600Y86199D01*
X230750Y86425D01*
X231071Y86665D01*
X231394Y86827D01*
X231845Y86917D01*
X231852Y86921D01*
X231862Y86921D01*
X232217Y87010D01*
X232680Y87010D01*
X232800Y86950D01*
X232815Y86946D01*
X232828Y86937D01*
X232962Y86911D01*
X232969Y86910D01*
X232970Y86910D01*
X233070Y86910D01*
X233095Y86916D01*
X233121Y86913D01*
X233179Y86935D01*
X233239Y86949D01*
X233259Y86966D01*
X233283Y86975D01*
X233325Y87020D01*
X233372Y87059D01*
X233383Y87083D01*
X233400Y87102D01*
X233418Y87161D01*
X233443Y87218D01*
X233442Y87243D01*
X233450Y87268D01*
X233439Y87329D01*
X233437Y87391D01*
X233424Y87413D01*
X233420Y87439D01*
X233372Y87510D01*
X233354Y87543D01*
X233346Y87549D01*
X233339Y87559D01*
X233239Y87659D01*
X233219Y87671D01*
X233198Y87694D01*
X232798Y87994D01*
X232772Y88006D01*
X232740Y88030D01*
X231340Y88730D01*
X231328Y88733D01*
X231319Y88739D01*
X231290Y88745D01*
X231253Y88761D01*
X230353Y88961D01*
X230319Y88961D01*
X230270Y88970D01*
X229270Y88970D01*
X229242Y88964D01*
X229202Y88964D01*
X228102Y88764D01*
X228067Y88749D01*
X228010Y88731D01*
X227995Y88727D01*
X227992Y88725D01*
X227988Y88724D01*
X226888Y88124D01*
X226868Y88106D01*
X226837Y88090D01*
X225937Y87390D01*
X225917Y87366D01*
X225848Y87292D01*
X225348Y86492D01*
X225336Y86458D01*
X225309Y86410D01*
X225009Y85510D01*
X225006Y85473D01*
X224990Y85390D01*
X224990Y84590D01*
X224997Y84557D01*
X224999Y84508D01*
X225199Y83608D01*
X225216Y83572D01*
X225238Y83505D01*
X225738Y82605D01*
X225760Y82581D01*
X225784Y82540D01*
X226484Y81740D01*
X226485Y81739D01*
X226486Y81737D01*
X227286Y80837D01*
X227294Y80832D01*
X227301Y80821D01*
X227943Y80179D01*
X228190Y79521D01*
X228190Y78952D01*
X228031Y78475D01*
X227710Y78074D01*
X227214Y77743D01*
X226523Y77570D01*
X225808Y77570D01*
X225379Y77656D01*
X224984Y77814D01*
X224466Y78332D01*
X224315Y78559D01*
X224250Y78752D01*
X224250Y79028D01*
X224302Y79185D01*
X224775Y79658D01*
X224990Y79729D01*
X225010Y79742D01*
X225040Y79750D01*
X225440Y79950D01*
X225469Y79974D01*
X225539Y80021D01*
X225639Y80121D01*
X225652Y80142D01*
X225671Y80158D01*
X225697Y80215D01*
X225730Y80268D01*
X225733Y80293D01*
X225743Y80316D01*
X225741Y80379D01*
X225747Y80441D01*
X225738Y80464D01*
X225737Y80489D01*
X225707Y80544D01*
X225685Y80603D01*
X225667Y80620D01*
X225655Y80642D01*
X225585Y80696D01*
X225558Y80720D01*
X225549Y80723D01*
X225540Y80730D01*
X225140Y80930D01*
X225125Y80934D01*
X225112Y80943D01*
X224978Y80969D01*
X224972Y80970D01*
X224971Y80970D01*
X224970Y80970D01*
X223770Y80970D01*
X223744Y80964D01*
X223708Y80965D01*
X223108Y80865D01*
X223102Y80863D01*
X223095Y80863D01*
X222595Y80763D01*
X222569Y80751D01*
X222529Y80743D01*
X222029Y80543D01*
X221998Y80521D01*
X221942Y80494D01*
X221542Y80194D01*
X221538Y80190D01*
X221532Y80187D01*
X221032Y79787D01*
X221015Y79764D01*
X220944Y79686D01*
X220344Y78686D01*
X220332Y78650D01*
X220304Y78594D01*
X220104Y77894D01*
X220103Y77869D01*
X220093Y77837D01*
X219993Y77037D01*
X219995Y77016D01*
X219990Y76990D01*
X219990Y63290D01*
X219996Y63265D01*
X219993Y63239D01*
X220015Y63182D01*
X220029Y63121D01*
X220046Y63101D01*
X220055Y63077D01*
X220100Y63035D01*
X220139Y62988D01*
X220163Y62977D01*
X220182Y62960D01*
X220241Y62942D01*
X220298Y62917D01*
X220323Y62918D01*
X220348Y62910D01*
X220409Y62921D01*
G37*
G36*
X100616Y223249D02*
X100616Y223249D01*
X100646Y223244D01*
X100683Y223260D01*
X100723Y223267D01*
X100746Y223288D01*
X100774Y223301D01*
X100796Y223334D01*
X100826Y223361D01*
X100834Y223391D01*
X100851Y223417D01*
X100862Y223491D01*
X100862Y230298D01*
X101294Y229909D01*
X101304Y229904D01*
X101332Y229881D01*
X101901Y229537D01*
X101911Y229534D01*
X101942Y229517D01*
X102563Y229282D01*
X102574Y229282D01*
X102604Y229271D01*
X103257Y229146D01*
X103267Y229147D01*
X103296Y229141D01*
X103961Y229121D01*
X103970Y229124D01*
X103994Y229122D01*
X104656Y229192D01*
X104665Y229196D01*
X104692Y229199D01*
X105335Y229365D01*
X105344Y229370D01*
X105373Y229378D01*
X105982Y229645D01*
X105990Y229652D01*
X106018Y229665D01*
X106574Y230030D01*
X106581Y230038D01*
X106606Y230055D01*
X107094Y230506D01*
X107099Y230515D01*
X107121Y230534D01*
X107533Y231056D01*
X107537Y231064D01*
X107553Y231084D01*
X107889Y231658D01*
X107891Y231666D01*
X107903Y231685D01*
X108165Y232296D01*
X108166Y232305D01*
X108175Y232323D01*
X108367Y232960D01*
X108367Y232967D01*
X108373Y232984D01*
X108499Y233637D01*
X108498Y233645D01*
X108502Y233661D01*
X108566Y234323D01*
X108559Y234357D01*
X108563Y234392D01*
X108540Y234457D01*
X108540Y234460D01*
X108539Y234461D01*
X108538Y234462D01*
X108405Y234717D01*
X108447Y234748D01*
X108494Y234772D01*
X108503Y234788D01*
X108518Y234799D01*
X108537Y234848D01*
X108563Y234893D01*
X108566Y234920D01*
X108569Y234929D01*
X108568Y234939D01*
X108570Y234967D01*
X108530Y235629D01*
X108527Y235636D01*
X108527Y235650D01*
X108431Y236307D01*
X108428Y236312D01*
X108428Y236313D01*
X108426Y236329D01*
X108270Y236973D01*
X108266Y236980D01*
X108263Y236998D01*
X108040Y237623D01*
X108035Y237630D01*
X108029Y237649D01*
X107736Y238244D01*
X107730Y238251D01*
X107720Y238273D01*
X107351Y238823D01*
X107344Y238830D01*
X107328Y238853D01*
X106882Y239343D01*
X106874Y239348D01*
X106853Y239370D01*
X106336Y239783D01*
X106326Y239787D01*
X106301Y239806D01*
X105722Y240129D01*
X105712Y240131D01*
X105686Y240145D01*
X105063Y240371D01*
X105053Y240371D01*
X105027Y240381D01*
X104377Y240512D01*
X104368Y240511D01*
X104345Y240516D01*
X103684Y240561D01*
X103675Y240559D01*
X103653Y240562D01*
X102991Y240525D01*
X102982Y240521D01*
X102953Y240520D01*
X102305Y240380D01*
X102296Y240375D01*
X102261Y240367D01*
X101650Y240112D01*
X101642Y240106D01*
X101605Y240088D01*
X101059Y239715D01*
X101052Y239706D01*
X101019Y239681D01*
X100722Y239372D01*
X100722Y239598D01*
X100714Y239624D01*
X100716Y239652D01*
X100689Y239721D01*
X100464Y240116D01*
X100432Y240147D01*
X100407Y240184D01*
X100383Y240195D01*
X100364Y240213D01*
X100320Y240222D01*
X100278Y240240D01*
X100237Y240239D01*
X100227Y240241D01*
X100220Y240238D01*
X100204Y240238D01*
X98245Y239889D01*
X98236Y239884D01*
X98192Y239873D01*
X97664Y239652D01*
X97634Y239628D01*
X97599Y239613D01*
X97581Y239585D01*
X97555Y239564D01*
X97543Y239528D01*
X97522Y239496D01*
X97513Y239439D01*
X97511Y239432D01*
X97512Y239429D01*
X97511Y239422D01*
X97511Y234779D01*
X97511Y226129D01*
X97524Y226083D01*
X97529Y226036D01*
X97547Y226005D01*
X97550Y225995D01*
X97557Y225989D01*
X97567Y225972D01*
X97961Y225484D01*
X97970Y225478D01*
X97989Y225454D01*
X99978Y223685D01*
X99981Y223684D01*
X99986Y223678D01*
X100456Y223297D01*
X100485Y223285D01*
X100508Y223265D01*
X100548Y223259D01*
X100585Y223243D01*
X100616Y223249D01*
G37*
G36*
X112848Y229122D02*
X112848Y229122D01*
X112866Y229120D01*
X113520Y229167D01*
X113528Y229170D01*
X113546Y229170D01*
X114192Y229286D01*
X114200Y229290D01*
X114222Y229294D01*
X114847Y229489D01*
X114856Y229495D01*
X114881Y229502D01*
X115472Y229786D01*
X115480Y229793D01*
X115507Y229807D01*
X115975Y230137D01*
X116007Y230136D01*
X116111Y229685D01*
X116130Y229651D01*
X116140Y229613D01*
X116164Y229591D01*
X116179Y229564D01*
X116214Y229545D01*
X116243Y229518D01*
X116295Y229502D01*
X116303Y229498D01*
X116307Y229498D01*
X116314Y229495D01*
X116901Y229401D01*
X116911Y229403D01*
X116940Y229398D01*
X118908Y229398D01*
X118970Y229416D01*
X119033Y229432D01*
X119039Y229436D01*
X119042Y229437D01*
X119047Y229443D01*
X119091Y229478D01*
X119335Y229743D01*
X119341Y229755D01*
X119351Y229763D01*
X119371Y229817D01*
X119397Y229868D01*
X119395Y229881D01*
X119400Y229894D01*
X119394Y229968D01*
X119250Y230591D01*
X119184Y231219D01*
X119162Y231861D01*
X119161Y233169D01*
X119156Y233186D01*
X119159Y233203D01*
X119137Y233252D01*
X119122Y233304D01*
X119109Y233315D01*
X119102Y233330D01*
X119065Y233354D01*
X119125Y233453D01*
X119133Y233483D01*
X119150Y233508D01*
X119161Y233582D01*
X119156Y237553D01*
X119153Y237563D01*
X119152Y237592D01*
X119046Y238244D01*
X119043Y238251D01*
X119028Y238305D01*
X118761Y238908D01*
X118759Y238911D01*
X118723Y238968D01*
X118643Y239063D01*
X118432Y239312D01*
X118297Y239472D01*
X118291Y239476D01*
X118250Y239515D01*
X117709Y239893D01*
X117699Y239897D01*
X117666Y239918D01*
X117060Y240183D01*
X117051Y240184D01*
X117027Y240195D01*
X116389Y240371D01*
X116381Y240370D01*
X116364Y240376D01*
X115711Y240485D01*
X115705Y240484D01*
X115692Y240487D01*
X115032Y240544D01*
X115028Y240543D01*
X115017Y240545D01*
X114357Y240562D01*
X114352Y240561D01*
X114341Y240562D01*
X113680Y240540D01*
X113674Y240538D01*
X113661Y240538D01*
X113003Y240465D01*
X112997Y240462D01*
X112982Y240461D01*
X112333Y240330D01*
X112326Y240326D01*
X112307Y240323D01*
X111677Y240123D01*
X111669Y240118D01*
X111646Y240111D01*
X111048Y239829D01*
X111040Y239822D01*
X111013Y239808D01*
X110469Y239433D01*
X110462Y239425D01*
X110432Y239402D01*
X109972Y238927D01*
X109967Y238918D01*
X109939Y238885D01*
X109591Y238324D01*
X109588Y238314D01*
X109568Y238277D01*
X109345Y237655D01*
X109344Y237644D01*
X109333Y237610D01*
X109228Y236958D01*
X109230Y236938D01*
X109225Y236919D01*
X109239Y236870D01*
X109245Y236819D01*
X109258Y236804D01*
X109263Y236785D01*
X109302Y236751D01*
X109334Y236712D01*
X109353Y236706D01*
X109368Y236692D01*
X109439Y236671D01*
X110015Y236591D01*
X110024Y236592D01*
X110049Y236588D01*
X112035Y236588D01*
X112096Y236606D01*
X112158Y236621D01*
X112165Y236626D01*
X112169Y236628D01*
X112175Y236634D01*
X112217Y236667D01*
X112564Y237037D01*
X112565Y237040D01*
X112568Y237042D01*
X112609Y237104D01*
X112856Y237647D01*
X113282Y237985D01*
X113840Y238136D01*
X114451Y238152D01*
X115043Y238073D01*
X115518Y237826D01*
X115767Y237370D01*
X115794Y236851D01*
X115525Y236446D01*
X115012Y236227D01*
X114397Y236104D01*
X112436Y235854D01*
X112432Y235852D01*
X112421Y235852D01*
X111771Y235729D01*
X111765Y235726D01*
X111750Y235724D01*
X111114Y235545D01*
X111106Y235540D01*
X111082Y235534D01*
X110475Y235271D01*
X110467Y235265D01*
X110433Y235248D01*
X109889Y234874D01*
X109884Y234868D01*
X109842Y234832D01*
X109409Y234334D01*
X109407Y234329D01*
X109372Y234278D01*
X109088Y233682D01*
X109079Y233622D01*
X109065Y233563D01*
X109067Y233550D01*
X109066Y233544D01*
X109070Y233535D01*
X109079Y233490D01*
X109186Y233196D01*
X109031Y233088D01*
X109026Y233081D01*
X109018Y233078D01*
X108982Y233027D01*
X108944Y232979D01*
X108943Y232970D01*
X108938Y232963D01*
X108925Y232890D01*
X108908Y232235D01*
X108911Y232225D01*
X108911Y232191D01*
X109008Y231544D01*
X109013Y231534D01*
X109021Y231494D01*
X109250Y230881D01*
X109255Y230873D01*
X109278Y230827D01*
X109647Y230287D01*
X109653Y230282D01*
X109688Y230240D01*
X110180Y229809D01*
X110189Y229804D01*
X110226Y229776D01*
X110802Y229466D01*
X110813Y229464D01*
X110845Y229448D01*
X111060Y229380D01*
X111470Y229250D01*
X111480Y229250D01*
X111507Y229241D01*
X112155Y229142D01*
X112164Y229143D01*
X112186Y229139D01*
X112841Y229120D01*
X112848Y229122D01*
G37*
G36*
X130891Y229414D02*
X130891Y229414D01*
X130948Y229425D01*
X130962Y229435D01*
X130969Y229437D01*
X130976Y229445D01*
X131008Y229469D01*
X131345Y229797D01*
X131375Y229851D01*
X131409Y229902D01*
X131411Y229914D01*
X131414Y229919D01*
X131413Y229929D01*
X131420Y229976D01*
X131420Y232624D01*
X131467Y233162D01*
X132182Y233851D01*
X132361Y233674D01*
X134781Y229734D01*
X134813Y229705D01*
X134837Y229670D01*
X134878Y229646D01*
X134885Y229640D01*
X134891Y229639D01*
X134902Y229633D01*
X135445Y229416D01*
X135456Y229415D01*
X135464Y229409D01*
X135538Y229398D01*
X138197Y229398D01*
X138256Y229415D01*
X138316Y229428D01*
X138326Y229436D01*
X138332Y229437D01*
X138338Y229445D01*
X138375Y229473D01*
X138604Y229707D01*
X138633Y229761D01*
X138666Y229812D01*
X138666Y229822D01*
X138670Y229830D01*
X138666Y229891D01*
X138666Y229952D01*
X138660Y229964D01*
X138660Y229969D01*
X138653Y229978D01*
X138634Y230019D01*
X134648Y236025D01*
X134722Y236351D01*
X138002Y239549D01*
X138015Y239573D01*
X138036Y239591D01*
X138067Y239658D01*
X138155Y239965D01*
X138155Y240016D01*
X138163Y240067D01*
X138155Y240085D01*
X138155Y240104D01*
X138127Y240147D01*
X138106Y240194D01*
X138089Y240205D01*
X138079Y240222D01*
X138032Y240243D01*
X137989Y240271D01*
X137961Y240276D01*
X137952Y240280D01*
X137942Y240279D01*
X137916Y240282D01*
X135256Y240282D01*
X135246Y240279D01*
X135205Y240277D01*
X134594Y240150D01*
X134561Y240133D01*
X134524Y240124D01*
X134476Y240088D01*
X134471Y240085D01*
X134470Y240082D01*
X134465Y240079D01*
X131420Y236914D01*
X131420Y243918D01*
X131402Y243981D01*
X131387Y244043D01*
X131383Y244047D01*
X131381Y244053D01*
X131333Y244095D01*
X131286Y244140D01*
X131280Y244141D01*
X131276Y244145D01*
X131212Y244154D01*
X131149Y244167D01*
X131141Y244165D01*
X131138Y244165D01*
X131131Y244162D01*
X131076Y244149D01*
X130556Y243935D01*
X130550Y243930D01*
X130531Y243923D01*
X128199Y242644D01*
X128180Y242625D01*
X128157Y242615D01*
X128140Y242589D01*
X128114Y242568D01*
X128106Y242551D01*
X128100Y242545D01*
X128098Y242535D01*
X128081Y242501D01*
X128081Y242500D01*
X128081Y242499D01*
X128080Y242499D01*
X128069Y242425D01*
X128069Y229791D01*
X128084Y229740D01*
X128092Y229687D01*
X128104Y229674D01*
X128109Y229657D01*
X128149Y229622D01*
X128184Y229581D01*
X128207Y229571D01*
X128214Y229565D01*
X128224Y229564D01*
X128252Y229551D01*
X128773Y229407D01*
X128779Y229407D01*
X128840Y229398D01*
X130834Y229398D01*
X130891Y229414D01*
G37*
G36*
X149787Y229121D02*
X149787Y229121D01*
X149811Y229119D01*
X150470Y229182D01*
X150479Y229186D01*
X150511Y229190D01*
X151150Y229362D01*
X151159Y229368D01*
X151191Y229377D01*
X151789Y229659D01*
X151797Y229666D01*
X151829Y229683D01*
X152365Y230070D01*
X152372Y230078D01*
X152400Y230101D01*
X152720Y230439D01*
X152720Y230246D01*
X152722Y230238D01*
X152722Y230220D01*
X152785Y229621D01*
X152787Y229618D01*
X152786Y229614D01*
X152813Y229553D01*
X152838Y229492D01*
X152841Y229490D01*
X152843Y229486D01*
X152898Y229450D01*
X152953Y229411D01*
X152956Y229411D01*
X152959Y229409D01*
X153033Y229398D01*
X155682Y229398D01*
X155686Y229399D01*
X155690Y229398D01*
X155703Y229402D01*
X155716Y229400D01*
X155766Y229423D01*
X155817Y229437D01*
X155819Y229440D01*
X155823Y229441D01*
X155831Y229451D01*
X155844Y229457D01*
X155874Y229503D01*
X155909Y229543D01*
X155909Y229546D01*
X155912Y229549D01*
X155913Y229562D01*
X155921Y229574D01*
X155932Y229647D01*
X155932Y239582D01*
X155927Y239599D01*
X155929Y239617D01*
X155908Y239688D01*
X155696Y240139D01*
X155674Y240164D01*
X155661Y240195D01*
X155629Y240215D01*
X155604Y240244D01*
X155572Y240253D01*
X155544Y240271D01*
X155470Y240282D01*
X152828Y240275D01*
X152812Y240270D01*
X152796Y240272D01*
X152746Y240250D01*
X152694Y240235D01*
X152683Y240222D01*
X152668Y240216D01*
X152638Y240170D01*
X152603Y240130D01*
X152600Y240113D01*
X152591Y240099D01*
X152580Y240025D01*
X152580Y234730D01*
X152565Y234082D01*
X152491Y233456D01*
X152327Y232871D01*
X152029Y232377D01*
X151578Y232044D01*
X151015Y231891D01*
X150418Y231876D01*
X149864Y232011D01*
X149442Y232354D01*
X149193Y232868D01*
X149077Y233468D01*
X149043Y234106D01*
X149042Y239398D01*
X149041Y239401D01*
X149042Y239408D01*
X149015Y240044D01*
X149011Y240055D01*
X149013Y240067D01*
X148989Y240121D01*
X148970Y240176D01*
X148961Y240184D01*
X148956Y240194D01*
X148907Y240227D01*
X148861Y240264D01*
X148849Y240265D01*
X148839Y240271D01*
X148766Y240282D01*
X146116Y240282D01*
X146074Y240270D01*
X146030Y240267D01*
X146008Y240251D01*
X145982Y240243D01*
X145953Y240210D01*
X145918Y240184D01*
X145897Y240146D01*
X145890Y240138D01*
X145889Y240132D01*
X145882Y240119D01*
X145705Y239634D01*
X145705Y239627D01*
X145701Y239622D01*
X145690Y239548D01*
X145690Y233587D01*
X145691Y233584D01*
X145690Y233579D01*
X145713Y232917D01*
X145715Y232911D01*
X145714Y232898D01*
X145786Y232240D01*
X145789Y232232D01*
X145791Y232213D01*
X145933Y231567D01*
X145938Y231558D01*
X145944Y231531D01*
X146182Y230914D01*
X146188Y230905D01*
X146205Y230868D01*
X146565Y230313D01*
X146571Y230308D01*
X146605Y230266D01*
X147090Y229818D01*
X147097Y229814D01*
X147139Y229782D01*
X147719Y229465D01*
X147730Y229463D01*
X147766Y229446D01*
X148398Y229251D01*
X148408Y229251D01*
X148434Y229243D01*
X149089Y229146D01*
X149097Y229147D01*
X149116Y229143D01*
X149778Y229118D01*
X149787Y229121D01*
G37*
G36*
X160113Y229405D02*
X160113Y229405D01*
X160129Y229409D01*
X160146Y229407D01*
X160195Y229429D01*
X160247Y229444D01*
X160258Y229457D01*
X160274Y229464D01*
X160303Y229509D01*
X160339Y229550D01*
X160341Y229566D01*
X160351Y229580D01*
X160362Y229654D01*
X160362Y234949D01*
X160377Y235597D01*
X160450Y236224D01*
X160613Y236809D01*
X160910Y237303D01*
X161361Y237637D01*
X161923Y237791D01*
X162520Y237806D01*
X163073Y237670D01*
X163496Y237328D01*
X163746Y236815D01*
X163863Y236214D01*
X163898Y235577D01*
X163899Y230286D01*
X163900Y230283D01*
X163899Y230276D01*
X163923Y229638D01*
X163927Y229627D01*
X163925Y229614D01*
X163949Y229561D01*
X163967Y229506D01*
X163977Y229498D01*
X163982Y229487D01*
X164031Y229454D01*
X164076Y229418D01*
X164088Y229416D01*
X164099Y229410D01*
X164172Y229398D01*
X166821Y229398D01*
X166863Y229411D01*
X166906Y229413D01*
X166929Y229430D01*
X166955Y229438D01*
X166984Y229470D01*
X167019Y229496D01*
X167041Y229535D01*
X167047Y229543D01*
X167048Y229549D01*
X167055Y229561D01*
X167234Y230045D01*
X167235Y230052D01*
X167238Y230058D01*
X167250Y230131D01*
X167249Y236092D01*
X167248Y236095D01*
X167249Y236100D01*
X167227Y236762D01*
X167225Y236768D01*
X167226Y236781D01*
X167154Y237439D01*
X167151Y237446D01*
X167149Y237465D01*
X167007Y238112D01*
X167002Y238121D01*
X166996Y238148D01*
X166759Y238765D01*
X166752Y238773D01*
X166735Y238811D01*
X166376Y239365D01*
X166370Y239371D01*
X166336Y239413D01*
X165851Y239861D01*
X165844Y239865D01*
X165802Y239897D01*
X165222Y240215D01*
X165212Y240217D01*
X165176Y240234D01*
X164544Y240429D01*
X164534Y240429D01*
X164507Y240437D01*
X163853Y240535D01*
X163845Y240534D01*
X163825Y240537D01*
X163164Y240562D01*
X163155Y240560D01*
X163131Y240561D01*
X162472Y240499D01*
X162463Y240495D01*
X162431Y240491D01*
X161792Y240319D01*
X161783Y240314D01*
X161751Y240304D01*
X161153Y240023D01*
X161145Y240016D01*
X161113Y239999D01*
X160576Y239613D01*
X160570Y239604D01*
X160541Y239582D01*
X160218Y239240D01*
X160218Y239433D01*
X160216Y239440D01*
X160217Y239459D01*
X160155Y240059D01*
X160153Y240063D01*
X160154Y240067D01*
X160127Y240127D01*
X160102Y240188D01*
X160099Y240191D01*
X160097Y240194D01*
X160042Y240231D01*
X159988Y240269D01*
X159984Y240269D01*
X159980Y240271D01*
X159907Y240282D01*
X157258Y240282D01*
X157241Y240278D01*
X157225Y240280D01*
X157216Y240276D01*
X157206Y240277D01*
X157166Y240256D01*
X157123Y240243D01*
X157112Y240230D01*
X157097Y240223D01*
X157092Y240216D01*
X157083Y240211D01*
X157061Y240172D01*
X157031Y240138D01*
X157029Y240120D01*
X157020Y240107D01*
X157018Y240095D01*
X157015Y240089D01*
X157015Y240076D01*
X157009Y240033D01*
X157009Y230098D01*
X157014Y230081D01*
X157011Y230064D01*
X157032Y229993D01*
X157244Y229542D01*
X157266Y229516D01*
X157280Y229486D01*
X157311Y229465D01*
X157336Y229437D01*
X157368Y229428D01*
X157397Y229409D01*
X157470Y229398D01*
X157471Y229398D01*
X160113Y229405D01*
G37*
G36*
X92227Y229124D02*
X92227Y229124D01*
X92233Y229126D01*
X92245Y229125D01*
X92904Y229176D01*
X92910Y229178D01*
X92925Y229178D01*
X93577Y229285D01*
X93584Y229289D01*
X93602Y229291D01*
X94239Y229463D01*
X94247Y229468D01*
X94269Y229473D01*
X94879Y229724D01*
X94887Y229731D01*
X94914Y229742D01*
X95478Y230084D01*
X95485Y230092D01*
X95516Y230113D01*
X96004Y230556D01*
X96010Y230565D01*
X96040Y230596D01*
X96422Y231134D01*
X96425Y231143D01*
X96449Y231182D01*
X96702Y231791D01*
X96703Y231801D01*
X96717Y231839D01*
X96843Y232486D01*
X96842Y232497D01*
X96848Y232528D01*
X96864Y233188D01*
X96861Y233198D01*
X96859Y233240D01*
X96738Y233887D01*
X96736Y233891D01*
X96716Y233953D01*
X96420Y234541D01*
X96419Y234543D01*
X96378Y234601D01*
X95926Y235079D01*
X95918Y235084D01*
X95881Y235117D01*
X95328Y235477D01*
X95318Y235480D01*
X95293Y235496D01*
X94688Y235762D01*
X94681Y235763D01*
X94664Y235771D01*
X94036Y235974D01*
X94031Y235974D01*
X94020Y235978D01*
X93380Y236140D01*
X93377Y236140D01*
X93372Y236142D01*
X92086Y236423D01*
X91460Y236579D01*
X90888Y236787D01*
X90468Y237105D01*
X90367Y237544D01*
X90603Y237930D01*
X91103Y238115D01*
X91706Y238157D01*
X92313Y238105D01*
X92848Y237915D01*
X93223Y237537D01*
X93387Y236968D01*
X93411Y236930D01*
X93427Y236888D01*
X93448Y236872D01*
X93462Y236850D01*
X93503Y236831D01*
X93539Y236804D01*
X93579Y236795D01*
X93589Y236791D01*
X93596Y236792D01*
X93611Y236788D01*
X94238Y236750D01*
X94242Y236752D01*
X94253Y236750D01*
X96235Y236750D01*
X96246Y236753D01*
X96257Y236751D01*
X96312Y236773D01*
X96369Y236789D01*
X96377Y236798D01*
X96387Y236802D01*
X96422Y236850D01*
X96461Y236894D01*
X96463Y236906D01*
X96469Y236915D01*
X96484Y236988D01*
X96508Y237536D01*
X96506Y237542D01*
X96508Y237548D01*
X96497Y237622D01*
X96300Y238251D01*
X96294Y238260D01*
X96280Y238297D01*
X95961Y238874D01*
X95953Y238881D01*
X95929Y238919D01*
X95492Y239412D01*
X95483Y239418D01*
X95452Y239448D01*
X94920Y239838D01*
X94910Y239841D01*
X94881Y239861D01*
X94287Y240148D01*
X94277Y240149D01*
X94253Y240161D01*
X93622Y240357D01*
X93614Y240357D01*
X93594Y240364D01*
X92945Y240486D01*
X92938Y240485D01*
X92922Y240489D01*
X92265Y240550D01*
X92259Y240549D01*
X92245Y240551D01*
X91585Y240562D01*
X91580Y240560D01*
X91569Y240561D01*
X90909Y240528D01*
X90903Y240526D01*
X90890Y240526D01*
X90235Y240442D01*
X90228Y240439D01*
X90211Y240437D01*
X89567Y240290D01*
X89559Y240285D01*
X89536Y240281D01*
X88917Y240052D01*
X88909Y240046D01*
X88880Y240034D01*
X88307Y239707D01*
X88300Y239699D01*
X88265Y239676D01*
X87774Y239236D01*
X87770Y239228D01*
X87734Y239190D01*
X87365Y238644D01*
X87362Y238635D01*
X87338Y238591D01*
X87110Y237972D01*
X87109Y237962D01*
X87097Y237922D01*
X87001Y237270D01*
X87003Y237259D01*
X86999Y237225D01*
X87020Y236566D01*
X87022Y236559D01*
X87030Y236503D01*
X87219Y235872D01*
X87220Y235870D01*
X87220Y235868D01*
X87253Y235801D01*
X87628Y235261D01*
X87630Y235259D01*
X87676Y235209D01*
X88189Y234796D01*
X88199Y234792D01*
X88232Y234768D01*
X88819Y234467D01*
X88828Y234465D01*
X88848Y234454D01*
X89469Y234230D01*
X89475Y234229D01*
X89488Y234224D01*
X90125Y234048D01*
X90129Y234048D01*
X90137Y234045D01*
X91423Y233758D01*
X92052Y233600D01*
X92654Y233405D01*
X93176Y233141D01*
X93483Y232750D01*
X93453Y232272D01*
X93138Y231865D01*
X92629Y231624D01*
X92040Y231529D01*
X91435Y231561D01*
X90862Y231719D01*
X90379Y232024D01*
X90065Y232476D01*
X89957Y233056D01*
X89957Y233057D01*
X89957Y233058D01*
X89955Y233068D01*
X89936Y233107D01*
X89923Y233153D01*
X89909Y233166D01*
X89901Y233184D01*
X89895Y233188D01*
X89892Y233193D01*
X89855Y233215D01*
X89820Y233247D01*
X89801Y233250D01*
X89784Y233261D01*
X89775Y233263D01*
X89772Y233264D01*
X89765Y233264D01*
X89710Y233272D01*
X87068Y233272D01*
X87053Y233268D01*
X87037Y233271D01*
X86987Y233249D01*
X86934Y233233D01*
X86923Y233222D01*
X86909Y233215D01*
X86878Y233170D01*
X86842Y233128D01*
X86839Y233113D01*
X86830Y233100D01*
X86818Y233026D01*
X86811Y232437D01*
X86813Y232431D01*
X86819Y232369D01*
X86988Y231732D01*
X86994Y231723D01*
X87005Y231686D01*
X87295Y231094D01*
X87302Y231086D01*
X87322Y231049D01*
X87729Y230530D01*
X87738Y230524D01*
X87764Y230494D01*
X88268Y230068D01*
X88278Y230064D01*
X88305Y230042D01*
X88876Y229713D01*
X88886Y229710D01*
X88910Y229697D01*
X89524Y229455D01*
X89533Y229454D01*
X89553Y229446D01*
X90192Y229280D01*
X90199Y229280D01*
X90216Y229275D01*
X90868Y229173D01*
X90875Y229174D01*
X90889Y229171D01*
X91548Y229124D01*
X91554Y229125D01*
X91566Y229123D01*
X92227Y229124D01*
G37*
G36*
X22607Y198551D02*
X22607Y198551D01*
X22627Y198572D01*
X22641Y198573D01*
X23041Y199173D01*
X23040Y199182D01*
X23047Y199184D01*
X23846Y201483D01*
X24597Y203454D01*
X25853Y199684D01*
X26053Y199084D01*
X26067Y199075D01*
X26065Y199065D01*
X26565Y198565D01*
X26586Y198562D01*
X26592Y198551D01*
X27192Y198451D01*
X27209Y198461D01*
X27219Y198455D01*
X27919Y198755D01*
X27930Y198773D01*
X27942Y198775D01*
X28242Y199275D01*
X28241Y199282D01*
X28246Y199284D01*
X30746Y206384D01*
X30746Y206386D01*
X30747Y206386D01*
X30947Y207086D01*
X30938Y207110D01*
X30944Y207122D01*
X30744Y207522D01*
X30726Y207531D01*
X30724Y207543D01*
X30024Y207943D01*
X30016Y207942D01*
X30014Y207947D01*
X29314Y208147D01*
X29286Y208137D01*
X29273Y208141D01*
X28673Y207741D01*
X28665Y207720D01*
X28653Y207716D01*
X27157Y203327D01*
X27022Y203191D01*
X25747Y207016D01*
X25742Y207019D01*
X25744Y207022D01*
X25444Y207622D01*
X25431Y207629D01*
X25431Y207638D01*
X24931Y208038D01*
X24903Y208039D01*
X24893Y208049D01*
X24193Y207949D01*
X24185Y207941D01*
X24178Y207944D01*
X23578Y207644D01*
X23567Y207623D01*
X23555Y207619D01*
X23255Y206919D01*
X23255Y206917D01*
X23253Y206916D01*
X21979Y203191D01*
X21843Y203326D01*
X20647Y207214D01*
X20642Y207218D01*
X20644Y207222D01*
X20344Y207822D01*
X20324Y207832D01*
X20322Y207844D01*
X19722Y208144D01*
X19697Y208139D01*
X19686Y208147D01*
X18986Y207947D01*
X18980Y207939D01*
X18973Y207941D01*
X18373Y207541D01*
X18364Y207516D01*
X18352Y207510D01*
X18252Y207010D01*
X18257Y206999D01*
X18251Y206993D01*
X18351Y206293D01*
X18356Y206288D01*
X18354Y206284D01*
X20854Y199184D01*
X20864Y199177D01*
X20862Y199169D01*
X21262Y198669D01*
X21281Y198664D01*
X21284Y198653D01*
X21884Y198453D01*
X21900Y198458D01*
X21907Y198451D01*
X22607Y198551D01*
G37*
G36*
X54674Y93044D02*
X54674Y93044D01*
X54677Y93041D01*
X55377Y93141D01*
X55382Y93146D01*
X55386Y93143D01*
X55986Y93343D01*
X56017Y93389D01*
X56024Y93372D01*
X56075Y93341D01*
X56082Y93353D01*
X56095Y93348D01*
X56593Y93647D01*
X57192Y93946D01*
X57197Y93956D01*
X57205Y93955D01*
X58205Y94955D01*
X58206Y94967D01*
X58214Y94968D01*
X58814Y96168D01*
X58813Y96173D01*
X58817Y96174D01*
X59017Y96774D01*
X59015Y96781D01*
X59019Y96783D01*
X59119Y97483D01*
X59116Y97488D01*
X59119Y97490D01*
X59119Y98190D01*
X59116Y98194D01*
X59119Y98197D01*
X59019Y98897D01*
X59015Y98901D01*
X59017Y98904D01*
X58817Y99604D01*
X58810Y99609D01*
X58812Y99615D01*
X58513Y100113D01*
X58214Y100712D01*
X58204Y100717D01*
X58205Y100725D01*
X57205Y101725D01*
X57193Y101726D01*
X57192Y101734D01*
X55992Y102334D01*
X55985Y102333D01*
X55984Y102337D01*
X55284Y102537D01*
X55280Y102536D01*
X55278Y102539D01*
X54678Y102639D01*
X54673Y102636D01*
X54670Y102639D01*
X51470Y102639D01*
X51455Y102628D01*
X51445Y102632D01*
X50945Y102332D01*
X50936Y102310D01*
X50923Y102306D01*
X50723Y101706D01*
X50727Y101695D01*
X50721Y101690D01*
X50721Y94190D01*
X50724Y94186D01*
X50721Y94183D01*
X50821Y93483D01*
X50840Y93464D01*
X50840Y93451D01*
X51240Y93151D01*
X51258Y93151D01*
X51263Y93141D01*
X51963Y93041D01*
X51968Y93044D01*
X51970Y93041D01*
X54670Y93041D01*
X54674Y93044D01*
G37*
%LPC*%
G36*
X164507Y77359D02*
X164507Y77359D01*
X163815Y77557D01*
X163219Y77756D01*
X162627Y78052D01*
X162133Y78447D01*
X161141Y79439D01*
X160846Y80029D01*
X160647Y80625D01*
X160449Y81317D01*
X160449Y84801D01*
X160638Y85272D01*
X161112Y85462D01*
X161903Y85561D01*
X169286Y85461D01*
X169755Y85180D01*
X169851Y84507D01*
X169851Y81417D01*
X169653Y80725D01*
X169454Y80129D01*
X169157Y79535D01*
X168762Y78941D01*
X168269Y78448D01*
X167674Y78052D01*
X167175Y77752D01*
X167157Y77708D01*
X167143Y77733D01*
X167089Y77758D01*
X167088Y77755D01*
X167084Y77757D01*
X165892Y77359D01*
X164507Y77359D01*
G37*
%LPD*%
%LPC*%
G36*
X62607Y25419D02*
X62607Y25419D01*
X61918Y25616D01*
X61323Y25913D01*
X60829Y26210D01*
X60235Y26705D01*
X59840Y27199D01*
X59443Y27795D01*
X59146Y28389D01*
X58948Y28981D01*
X58849Y29673D01*
X58849Y32367D01*
X58947Y33051D01*
X59227Y33424D01*
X59903Y33521D01*
X67396Y33521D01*
X67970Y33425D01*
X68251Y32956D01*
X68251Y29674D01*
X68152Y29081D01*
X67954Y28388D01*
X67657Y27793D01*
X67360Y27299D01*
X66865Y26705D01*
X66369Y26308D01*
X65873Y25912D01*
X65282Y25616D01*
X64593Y25419D01*
X62607Y25419D01*
G37*
%LPD*%
%LPC*%
G36*
X113704Y37119D02*
X113704Y37119D01*
X113114Y37218D01*
X112421Y37515D01*
X111827Y37812D01*
X111331Y38208D01*
X110837Y38604D01*
X110441Y39197D01*
X110045Y39792D01*
X109847Y40386D01*
X109649Y40978D01*
X109649Y44462D01*
X109840Y45033D01*
X110309Y45221D01*
X118484Y45221D01*
X118857Y44941D01*
X119051Y44263D01*
X119051Y41078D01*
X118654Y39889D01*
X118357Y39295D01*
X117962Y38701D01*
X117467Y38207D01*
X116973Y37812D01*
X116378Y37514D01*
X115785Y37218D01*
X115097Y37119D01*
X113704Y37119D01*
G37*
%LPD*%
G36*
X99204Y192104D02*
X99204Y192104D01*
X99207Y192101D01*
X99907Y192201D01*
X99929Y192223D01*
X99942Y192225D01*
X100242Y192725D01*
X100242Y192728D01*
X100240Y192743D01*
X100249Y192750D01*
X100249Y197431D01*
X100263Y197418D01*
X102061Y195020D01*
X102069Y195018D01*
X102069Y195012D01*
X102569Y194612D01*
X102588Y194611D01*
X102593Y194601D01*
X103293Y194501D01*
X103315Y194513D01*
X103327Y194509D01*
X103927Y194909D01*
X103931Y194920D01*
X103939Y194920D01*
X104239Y195320D01*
X104239Y195321D01*
X104240Y195321D01*
X105851Y197501D01*
X105851Y192850D01*
X105862Y192835D01*
X105858Y192825D01*
X106158Y192325D01*
X106180Y192316D01*
X106184Y192303D01*
X106784Y192103D01*
X106795Y192107D01*
X106800Y192101D01*
X107500Y192101D01*
X107515Y192112D01*
X107525Y192108D01*
X108025Y192408D01*
X108033Y192427D01*
X108040Y192432D01*
X108039Y192433D01*
X108047Y192436D01*
X108247Y193136D01*
X108244Y193146D01*
X108249Y193150D01*
X108249Y200650D01*
X108242Y200659D01*
X108247Y200666D01*
X108047Y201266D01*
X108030Y201277D01*
X108030Y201289D01*
X107630Y201589D01*
X107612Y201589D01*
X107606Y201599D01*
X106806Y201699D01*
X106794Y201692D01*
X106786Y201697D01*
X106086Y201497D01*
X106073Y201480D01*
X106061Y201480D01*
X103369Y197891D01*
X102916Y197709D01*
X100439Y200880D01*
X100438Y200880D01*
X100438Y200881D01*
X100038Y201381D01*
X100024Y201384D01*
X100022Y201394D01*
X99422Y201694D01*
X99406Y201691D01*
X99400Y201699D01*
X98600Y201699D01*
X98585Y201688D01*
X98575Y201692D01*
X98075Y201392D01*
X98066Y201370D01*
X98053Y201366D01*
X97853Y200766D01*
X97857Y200755D01*
X97851Y200750D01*
X97851Y193250D01*
X97854Y193245D01*
X97851Y193242D01*
X97951Y192642D01*
X97964Y192630D01*
X97962Y192619D01*
X98362Y192119D01*
X98392Y192112D01*
X98400Y192101D01*
X99200Y192101D01*
X99204Y192104D01*
G37*
%LPC*%
G36*
X162808Y42959D02*
X162808Y42959D01*
X162219Y43156D01*
X161629Y43451D01*
X161138Y43941D01*
X160745Y44532D01*
X160548Y45122D01*
X160449Y45714D01*
X160449Y49107D01*
X160547Y49891D01*
X160827Y50264D01*
X161503Y50361D01*
X168996Y50361D01*
X169570Y50265D01*
X169851Y49796D01*
X169851Y45618D01*
X169654Y45029D01*
X169358Y44437D01*
X168966Y43947D01*
X168375Y43553D01*
X167788Y43259D01*
X166507Y43259D01*
X165818Y43456D01*
X165422Y43654D01*
X165384Y43647D01*
X165373Y43651D01*
X164778Y43255D01*
X164189Y43058D01*
X163497Y42959D01*
X162808Y42959D01*
G37*
%LPD*%
G36*
X143066Y229411D02*
X143066Y229411D01*
X143116Y229417D01*
X143132Y229430D01*
X143151Y229436D01*
X143185Y229474D01*
X143224Y229507D01*
X143237Y229534D01*
X143243Y229541D01*
X143245Y229551D01*
X143256Y229574D01*
X143409Y230078D01*
X143409Y230080D01*
X143419Y230151D01*
X143419Y237825D01*
X143762Y237875D01*
X145059Y237875D01*
X145060Y237875D01*
X145097Y237886D01*
X145194Y237914D01*
X145228Y237954D01*
X145286Y238019D01*
X145286Y238020D01*
X145306Y238091D01*
X145385Y238670D01*
X145383Y238679D01*
X145387Y238704D01*
X145387Y240019D01*
X145382Y240034D01*
X145385Y240050D01*
X145363Y240100D01*
X145348Y240153D01*
X145335Y240164D01*
X145329Y240179D01*
X145283Y240209D01*
X145242Y240245D01*
X145226Y240247D01*
X145213Y240256D01*
X145139Y240268D01*
X143425Y240280D01*
X143420Y240664D01*
X143504Y241206D01*
X143840Y241529D01*
X144386Y241590D01*
X145022Y241558D01*
X145038Y241561D01*
X145053Y241558D01*
X145105Y241577D01*
X145158Y241590D01*
X145169Y241602D01*
X145184Y241607D01*
X145237Y241660D01*
X145501Y242024D01*
X145515Y242063D01*
X145538Y242097D01*
X145545Y242147D01*
X145548Y242156D01*
X145547Y242160D01*
X145549Y242171D01*
X145549Y243485D01*
X145542Y243509D01*
X145544Y243533D01*
X145519Y243603D01*
X145286Y244039D01*
X145273Y244052D01*
X145267Y244069D01*
X145225Y244101D01*
X145188Y244139D01*
X145170Y244143D01*
X145156Y244154D01*
X145083Y244170D01*
X144427Y244215D01*
X144424Y244215D01*
X144419Y244216D01*
X143762Y244239D01*
X143754Y244237D01*
X143737Y244238D01*
X143081Y244196D01*
X143072Y244192D01*
X143048Y244191D01*
X142404Y244060D01*
X142395Y244055D01*
X142362Y244048D01*
X141752Y243807D01*
X141743Y243801D01*
X141704Y243783D01*
X141159Y243418D01*
X141153Y243411D01*
X141113Y243378D01*
X140672Y242893D01*
X140668Y242885D01*
X140637Y242843D01*
X140328Y242264D01*
X140326Y242254D01*
X140308Y242213D01*
X140133Y241580D01*
X140133Y241569D01*
X140125Y241535D01*
X140069Y240881D01*
X140071Y240874D01*
X140068Y240860D01*
X140068Y240381D01*
X139170Y240075D01*
X139155Y240064D01*
X139136Y240061D01*
X139076Y240017D01*
X137668Y238635D01*
X137664Y238629D01*
X137658Y238625D01*
X137617Y238563D01*
X137462Y238231D01*
X137462Y238230D01*
X137461Y238230D01*
X137450Y238153D01*
X137440Y238093D01*
X137440Y238092D01*
X137473Y238020D01*
X137497Y237965D01*
X137497Y237964D01*
X137555Y237926D01*
X137613Y237887D01*
X137614Y237887D01*
X137687Y237876D01*
X140068Y237876D01*
X140068Y230234D01*
X140071Y230226D01*
X140070Y230205D01*
X140140Y229617D01*
X140140Y229615D01*
X140140Y229613D01*
X140168Y229551D01*
X140194Y229488D01*
X140196Y229487D01*
X140197Y229485D01*
X140253Y229448D01*
X140310Y229409D01*
X140312Y229409D01*
X140314Y229408D01*
X140387Y229397D01*
X143017Y229397D01*
X143066Y229411D01*
G37*
G36*
X35006Y198551D02*
X35006Y198551D01*
X35022Y198567D01*
X35035Y198565D01*
X35435Y198965D01*
X35436Y198977D01*
X35440Y198979D01*
X35437Y198983D01*
X35438Y198986D01*
X35449Y198992D01*
X35549Y199592D01*
X35546Y199597D01*
X35549Y199600D01*
X35549Y200967D01*
X36009Y201151D01*
X37373Y201151D01*
X37856Y200377D01*
X38555Y198780D01*
X38573Y198770D01*
X38575Y198758D01*
X39075Y198458D01*
X39099Y198460D01*
X39108Y198451D01*
X39708Y198551D01*
X39717Y198561D01*
X39724Y198557D01*
X40424Y198957D01*
X40431Y198973D01*
X40442Y198975D01*
X40742Y199475D01*
X40739Y199503D01*
X40747Y199514D01*
X40547Y200214D01*
X40539Y200220D01*
X40541Y200227D01*
X40344Y200523D01*
X39847Y201814D01*
X39753Y202287D01*
X40138Y202769D01*
X40139Y202777D01*
X40144Y202778D01*
X40444Y203378D01*
X40443Y203385D01*
X40447Y203386D01*
X40647Y204086D01*
X40644Y204096D01*
X40649Y204100D01*
X40649Y204800D01*
X40646Y204804D01*
X40649Y204807D01*
X40549Y205507D01*
X40544Y205512D01*
X40547Y205516D01*
X40347Y206116D01*
X40339Y206121D01*
X40341Y206127D01*
X39941Y206727D01*
X39934Y206730D01*
X39935Y206735D01*
X39535Y207135D01*
X39476Y207143D01*
X39475Y207134D01*
X39465Y207135D01*
X38981Y206650D01*
X39437Y207167D01*
X39441Y207227D01*
X39431Y207228D01*
X39431Y207238D01*
X38931Y207638D01*
X38921Y207639D01*
X38919Y207645D01*
X38219Y207945D01*
X38211Y207943D01*
X38208Y207949D01*
X37008Y208149D01*
X37003Y208146D01*
X37000Y208149D01*
X34200Y208149D01*
X34192Y208143D01*
X34186Y208147D01*
X33486Y207947D01*
X33471Y207927D01*
X33458Y207925D01*
X33158Y207425D01*
X33160Y207407D01*
X33151Y207400D01*
X33151Y199900D01*
X33154Y199896D01*
X33151Y199893D01*
X33251Y199193D01*
X33257Y199187D01*
X33254Y199182D01*
X33454Y198682D01*
X33482Y198665D01*
X33486Y198653D01*
X34186Y198453D01*
X34200Y198458D01*
X34206Y198451D01*
X35006Y198551D01*
G37*
G36*
X101411Y211159D02*
X101411Y211159D01*
X101418Y211154D01*
X101918Y211354D01*
X101933Y211378D01*
X101940Y211383D01*
X101947Y211386D01*
X102147Y212086D01*
X102142Y212100D01*
X102149Y212106D01*
X102049Y212906D01*
X102039Y212917D01*
X102042Y212925D01*
X101742Y213425D01*
X101714Y213437D01*
X101707Y213449D01*
X101007Y213549D01*
X101002Y213546D01*
X101000Y213549D01*
X96949Y213549D01*
X96949Y214096D01*
X97042Y214651D01*
X99000Y214651D01*
X99004Y214654D01*
X99006Y214651D01*
X99806Y214751D01*
X99813Y214758D01*
X99818Y214754D01*
X100318Y214954D01*
X100330Y214973D01*
X100342Y214975D01*
X100642Y215475D01*
X100640Y215493D01*
X100649Y215500D01*
X100649Y216400D01*
X100638Y216415D01*
X100642Y216425D01*
X100342Y216925D01*
X100322Y216934D01*
X100318Y216946D01*
X99818Y217146D01*
X99805Y217142D01*
X99800Y217149D01*
X97040Y217149D01*
X96949Y217605D01*
X96949Y218258D01*
X97504Y218351D01*
X100900Y218351D01*
X100904Y218354D01*
X100907Y218351D01*
X101607Y218451D01*
X101619Y218464D01*
X101630Y218461D01*
X102030Y218761D01*
X102037Y218788D01*
X102049Y218795D01*
X102149Y219695D01*
X102142Y219706D01*
X102147Y219714D01*
X101947Y220414D01*
X101927Y220429D01*
X101925Y220442D01*
X101425Y220742D01*
X101407Y220740D01*
X101400Y220749D01*
X95300Y220749D01*
X95285Y220738D01*
X95275Y220742D01*
X94775Y220442D01*
X94765Y220418D01*
X94753Y220414D01*
X94553Y219714D01*
X94556Y219704D01*
X94551Y219700D01*
X94551Y212200D01*
X94554Y212195D01*
X94551Y212192D01*
X94651Y211592D01*
X94667Y211577D01*
X94665Y211565D01*
X95065Y211165D01*
X95092Y211162D01*
X95100Y211151D01*
X101400Y211151D01*
X101411Y211159D01*
G37*
G36*
X126904Y192104D02*
X126904Y192104D01*
X126907Y192101D01*
X128307Y192301D01*
X128315Y192309D01*
X128322Y192306D01*
X128922Y192606D01*
X128923Y192609D01*
X128925Y192608D01*
X129425Y192908D01*
X129430Y192919D01*
X129438Y192919D01*
X129838Y193419D01*
X129839Y193432D01*
X129847Y193434D01*
X130047Y194034D01*
X130043Y194045D01*
X130049Y194050D01*
X130049Y196850D01*
X130046Y196854D01*
X130049Y196857D01*
X129949Y197557D01*
X129930Y197576D01*
X129930Y197589D01*
X129530Y197889D01*
X129517Y197889D01*
X129514Y197897D01*
X128814Y198097D01*
X128804Y198094D01*
X128800Y198099D01*
X126700Y198099D01*
X126691Y198092D01*
X126684Y198097D01*
X126084Y197897D01*
X126066Y197870D01*
X126053Y197866D01*
X125853Y197266D01*
X125857Y197255D01*
X125851Y197250D01*
X125851Y196550D01*
X125867Y196529D01*
X125865Y196515D01*
X126265Y196115D01*
X126289Y196112D01*
X126297Y196101D01*
X127651Y196004D01*
X127651Y194780D01*
X127088Y194499D01*
X125812Y194499D01*
X125227Y194792D01*
X124635Y195285D01*
X124244Y195774D01*
X124048Y196361D01*
X123950Y197050D01*
X124048Y197740D01*
X124245Y198427D01*
X124635Y198915D01*
X125123Y199305D01*
X125810Y199502D01*
X126499Y199600D01*
X127085Y199503D01*
X128379Y198905D01*
X128400Y198910D01*
X128410Y198902D01*
X128910Y199002D01*
X128925Y199019D01*
X128938Y199018D01*
X129438Y199618D01*
X129438Y199627D01*
X129444Y199628D01*
X129744Y200228D01*
X129739Y200254D01*
X129747Y200266D01*
X129547Y200866D01*
X129528Y200878D01*
X129527Y200891D01*
X128927Y201291D01*
X128923Y201291D01*
X128922Y201294D01*
X128322Y201594D01*
X128315Y201593D01*
X128314Y201597D01*
X127615Y201797D01*
X127016Y201997D01*
X127005Y201993D01*
X127000Y201999D01*
X126300Y201999D01*
X126296Y201996D01*
X126293Y201999D01*
X125593Y201899D01*
X125592Y201898D01*
X125592Y201899D01*
X124992Y201799D01*
X124985Y201791D01*
X124978Y201794D01*
X123778Y201194D01*
X123776Y201190D01*
X123773Y201191D01*
X123173Y200791D01*
X123170Y200784D01*
X123165Y200785D01*
X122665Y200285D01*
X122664Y200278D01*
X122659Y200277D01*
X122259Y199677D01*
X122259Y199676D01*
X122258Y199675D01*
X121958Y199175D01*
X121959Y199166D01*
X121953Y199164D01*
X121753Y198465D01*
X121553Y197866D01*
X121557Y197855D01*
X121551Y197850D01*
X121551Y196450D01*
X121554Y196446D01*
X121551Y196443D01*
X121651Y195743D01*
X121659Y195735D01*
X121656Y195728D01*
X122556Y193928D01*
X122566Y193923D01*
X122565Y193915D01*
X123065Y193415D01*
X123069Y193415D01*
X123069Y193412D01*
X123569Y193012D01*
X123573Y193011D01*
X123573Y193009D01*
X124173Y192609D01*
X124177Y192609D01*
X124178Y192606D01*
X124778Y192306D01*
X124783Y192307D01*
X124784Y192303D01*
X125384Y192103D01*
X125395Y192107D01*
X125400Y192101D01*
X126900Y192101D01*
X126904Y192104D01*
G37*
%LPC*%
G36*
X185209Y36579D02*
X185209Y36579D01*
X184734Y36770D01*
X184449Y37244D01*
X184449Y38122D01*
X184642Y38700D01*
X189729Y42491D01*
X189746Y42548D01*
X189733Y42551D01*
X189735Y42565D01*
X189635Y42665D01*
X189608Y42669D01*
X189600Y42679D01*
X185504Y42679D01*
X184924Y42776D01*
X184547Y43153D01*
X184450Y43926D01*
X184641Y44593D01*
X185109Y44781D01*
X193286Y44781D01*
X193758Y44498D01*
X193950Y43827D01*
X193853Y43147D01*
X193563Y42664D01*
X192770Y42069D01*
X190172Y40170D01*
X188472Y38970D01*
X188469Y38961D01*
X188459Y38958D01*
X188464Y38945D01*
X188454Y38914D01*
X188477Y38906D01*
X188484Y38883D01*
X188784Y38783D01*
X188795Y38787D01*
X188800Y38781D01*
X192896Y38781D01*
X193472Y38685D01*
X193756Y38307D01*
X193950Y37725D01*
X193854Y37056D01*
X193380Y36677D01*
X192697Y36579D01*
X185209Y36579D01*
G37*
%LPD*%
%LPC*%
G36*
X59949Y35570D02*
X59949Y35570D01*
X59913Y35617D01*
X59910Y35615D01*
X59908Y35619D01*
X59324Y35716D01*
X58947Y36093D01*
X58849Y36873D01*
X58849Y37450D01*
X59432Y38033D01*
X64230Y41631D01*
X64234Y41647D01*
X64247Y41657D01*
X64240Y41667D01*
X64246Y41688D01*
X64218Y41696D01*
X64200Y41719D01*
X59514Y41719D01*
X59041Y42003D01*
X58849Y42578D01*
X58849Y43450D01*
X59224Y43824D01*
X59804Y43921D01*
X67296Y43921D01*
X67871Y43825D01*
X68251Y43255D01*
X68251Y42578D01*
X68058Y41999D01*
X67469Y41509D01*
X63770Y38709D01*
X62970Y38109D01*
X62969Y38104D01*
X62965Y38105D01*
X62765Y37905D01*
X62763Y37891D01*
X62753Y37883D01*
X62761Y37873D01*
X62757Y37846D01*
X62784Y37842D01*
X62800Y37821D01*
X67580Y37821D01*
X68251Y37150D01*
X68251Y36384D01*
X67966Y35910D01*
X67488Y35718D01*
X66697Y35619D01*
X60000Y35619D01*
X59953Y35583D01*
X59957Y35577D01*
X59951Y35572D01*
X59949Y35541D01*
X59949Y35570D01*
G37*
%LPD*%
%LPC*%
G36*
X19819Y59883D02*
X19819Y59883D01*
X19458Y59888D01*
X16870Y67006D01*
X16869Y67008D01*
X16871Y67042D01*
X16799Y67233D01*
X19135Y67233D01*
X19192Y67037D01*
X20541Y62464D01*
X20555Y62452D01*
X20561Y62434D01*
X20584Y62427D01*
X20593Y62420D01*
X20600Y62423D01*
X20610Y62420D01*
X20759Y62441D01*
X20767Y62448D01*
X20777Y62447D01*
X20809Y62485D01*
X20810Y62486D01*
X22150Y67224D01*
X22447Y67233D01*
X24035Y67233D01*
X24437Y67235D01*
X25787Y62628D01*
X25884Y62272D01*
X25898Y62260D01*
X25903Y62242D01*
X25921Y62239D01*
X25935Y62227D01*
X25952Y62234D01*
X25971Y62232D01*
X25986Y62249D01*
X25997Y62254D01*
X25999Y62263D01*
X26005Y62271D01*
X27405Y66894D01*
X27507Y67233D01*
X29581Y67233D01*
X29765Y67227D01*
X29675Y66965D01*
X27115Y59890D01*
X26786Y59883D01*
X25200Y59883D01*
X24734Y59906D01*
X23342Y64419D01*
X23329Y64430D01*
X23326Y64446D01*
X23306Y64450D01*
X23290Y64463D01*
X23275Y64456D01*
X23259Y64459D01*
X23239Y64439D01*
X23229Y64434D01*
X23228Y64427D01*
X23223Y64422D01*
X23066Y63985D01*
X23066Y63984D01*
X23065Y63983D01*
X21792Y59902D01*
X21406Y59883D01*
X19819Y59883D01*
G37*
%LPD*%
G36*
X11021Y198467D02*
X11021Y198467D01*
X11035Y198465D01*
X11435Y198865D01*
X11436Y198877D01*
X11441Y198881D01*
X11438Y198886D01*
X11449Y198892D01*
X11549Y199492D01*
X11546Y199497D01*
X11549Y199500D01*
X11549Y200870D01*
X11912Y201051D01*
X13300Y201051D01*
X13305Y201054D01*
X13308Y201051D01*
X13908Y201151D01*
X13912Y201156D01*
X13916Y201153D01*
X14516Y201353D01*
X14521Y201361D01*
X14527Y201359D01*
X15727Y202159D01*
X15731Y202169D01*
X15738Y202169D01*
X16138Y202669D01*
X16139Y202679D01*
X16145Y202681D01*
X16445Y203381D01*
X16443Y203389D01*
X16449Y203392D01*
X16549Y203992D01*
X16548Y203993D01*
X16549Y203993D01*
X16649Y204693D01*
X16646Y204698D01*
X16649Y204700D01*
X16649Y205400D01*
X16640Y205413D01*
X16644Y205422D01*
X16244Y206222D01*
X16237Y206225D01*
X16238Y206231D01*
X15838Y206731D01*
X15834Y206732D01*
X15835Y206735D01*
X15335Y207235D01*
X15328Y207236D01*
X15327Y207241D01*
X14727Y207641D01*
X14723Y207641D01*
X14722Y207644D01*
X14122Y207944D01*
X14111Y207942D01*
X14107Y207949D01*
X13407Y208049D01*
X13402Y208046D01*
X13400Y208049D01*
X10000Y208049D01*
X9991Y208042D01*
X9984Y208047D01*
X9384Y207847D01*
X9367Y207822D01*
X9354Y207818D01*
X9154Y207318D01*
X9158Y207305D01*
X9151Y207300D01*
X9151Y199100D01*
X9160Y199087D01*
X9156Y199078D01*
X9356Y198678D01*
X9382Y198665D01*
X9386Y198653D01*
X10086Y198453D01*
X10096Y198456D01*
X10100Y198451D01*
X11000Y198451D01*
X11021Y198467D01*
G37*
G36*
X58908Y211157D02*
X58908Y211157D01*
X58914Y211153D01*
X59614Y211353D01*
X59633Y211378D01*
X59646Y211382D01*
X59846Y211882D01*
X59842Y211895D01*
X59849Y211900D01*
X59849Y214580D01*
X60220Y214951D01*
X62880Y214951D01*
X63251Y214580D01*
X63251Y211900D01*
X63259Y211889D01*
X63254Y211882D01*
X63454Y211382D01*
X63482Y211365D01*
X63486Y211353D01*
X64186Y211153D01*
X64196Y211156D01*
X64200Y211151D01*
X65000Y211151D01*
X65021Y211167D01*
X65035Y211165D01*
X65435Y211565D01*
X65436Y211577D01*
X65441Y211581D01*
X65440Y211582D01*
X65447Y211584D01*
X65647Y212184D01*
X65643Y212195D01*
X65649Y212200D01*
X65649Y219800D01*
X65642Y219809D01*
X65647Y219816D01*
X65447Y220416D01*
X65425Y220431D01*
X65422Y220444D01*
X64822Y220744D01*
X64806Y220741D01*
X64800Y220749D01*
X64100Y220749D01*
X64091Y220742D01*
X64084Y220747D01*
X63484Y220547D01*
X63466Y220520D01*
X63453Y220516D01*
X63253Y219916D01*
X63257Y219905D01*
X63251Y219900D01*
X63251Y217125D01*
X62884Y216849D01*
X60220Y216849D01*
X59849Y217220D01*
X59849Y219900D01*
X59842Y219909D01*
X59847Y219916D01*
X59647Y220516D01*
X59620Y220534D01*
X59616Y220547D01*
X59016Y220747D01*
X59005Y220743D01*
X59000Y220749D01*
X58100Y220749D01*
X58085Y220738D01*
X58075Y220742D01*
X57575Y220442D01*
X57563Y220414D01*
X57551Y220407D01*
X57451Y219707D01*
X57454Y219702D01*
X57451Y219700D01*
X57451Y212200D01*
X57454Y212195D01*
X57451Y212192D01*
X57551Y211592D01*
X57567Y211577D01*
X57565Y211565D01*
X57965Y211165D01*
X57992Y211162D01*
X58000Y211151D01*
X58900Y211151D01*
X58908Y211157D01*
G37*
G36*
X147218Y192115D02*
X147218Y192115D01*
X147231Y192112D01*
X147731Y192512D01*
X147735Y192527D01*
X147740Y192531D01*
X147737Y192535D01*
X147737Y192536D01*
X147749Y192542D01*
X147849Y193142D01*
X147843Y193152D01*
X147849Y193157D01*
X147749Y193857D01*
X147736Y193870D01*
X147738Y193881D01*
X147338Y194381D01*
X147313Y194387D01*
X147307Y194399D01*
X146607Y194499D01*
X146602Y194496D01*
X146600Y194499D01*
X144620Y194499D01*
X144579Y194540D01*
X145023Y194807D01*
X145622Y195106D01*
X145626Y195114D01*
X145632Y195112D01*
X146232Y195612D01*
X146232Y195616D01*
X146235Y195615D01*
X146735Y196115D01*
X146736Y196124D01*
X146742Y196125D01*
X147042Y196625D01*
X147042Y196630D01*
X147045Y196631D01*
X147345Y197331D01*
X147343Y197339D01*
X147349Y197342D01*
X147449Y197942D01*
X147446Y197947D01*
X147447Y197948D01*
X147449Y197950D01*
X147449Y198650D01*
X147443Y198658D01*
X147447Y198664D01*
X147247Y199364D01*
X147246Y199365D01*
X147247Y199366D01*
X147047Y199966D01*
X147036Y199973D01*
X147038Y199981D01*
X146238Y200981D01*
X146228Y200983D01*
X146227Y200991D01*
X145627Y201391D01*
X145623Y201391D01*
X145622Y201394D01*
X145022Y201694D01*
X145012Y201692D01*
X145008Y201699D01*
X144408Y201799D01*
X144403Y201796D01*
X144400Y201799D01*
X143600Y201799D01*
X143596Y201796D01*
X143593Y201799D01*
X142893Y201699D01*
X142888Y201694D01*
X142884Y201697D01*
X142284Y201497D01*
X142280Y201490D01*
X142275Y201492D01*
X141775Y201192D01*
X141771Y201184D01*
X141765Y201185D01*
X141265Y200685D01*
X141264Y200678D01*
X141259Y200677D01*
X140859Y200077D01*
X140859Y200073D01*
X140856Y200072D01*
X140556Y199472D01*
X140558Y199462D01*
X140551Y199458D01*
X140451Y198858D01*
X140452Y198857D01*
X140451Y198857D01*
X140351Y198157D01*
X140357Y198147D01*
X140351Y198142D01*
X140451Y197542D01*
X140467Y197527D01*
X140465Y197515D01*
X140865Y197115D01*
X140892Y197112D01*
X140900Y197101D01*
X141800Y197101D01*
X141809Y197108D01*
X141816Y197103D01*
X142416Y197303D01*
X142429Y197323D01*
X142442Y197325D01*
X142742Y197825D01*
X142741Y197838D01*
X142749Y197842D01*
X142848Y198438D01*
X143041Y199018D01*
X143615Y199401D01*
X144283Y199401D01*
X144761Y199018D01*
X145049Y198442D01*
X144953Y197868D01*
X144563Y197284D01*
X144071Y196890D01*
X143473Y196491D01*
X141773Y195391D01*
X141772Y195388D01*
X141769Y195388D01*
X141269Y194988D01*
X141268Y194984D01*
X141265Y194985D01*
X140765Y194485D01*
X140764Y194473D01*
X140756Y194472D01*
X140456Y193872D01*
X140458Y193862D01*
X140451Y193858D01*
X140351Y193258D01*
X140359Y193243D01*
X140353Y193234D01*
X140553Y192634D01*
X140567Y192625D01*
X140565Y192615D01*
X141065Y192115D01*
X141092Y192112D01*
X141100Y192101D01*
X147200Y192101D01*
X147218Y192115D01*
G37*
%LPC*%
G36*
X168123Y24757D02*
X168123Y24757D01*
X167746Y25134D01*
X167649Y25714D01*
X167649Y29710D01*
X167613Y29757D01*
X167606Y29752D01*
X167600Y29759D01*
X166300Y29759D01*
X166253Y29723D01*
X166254Y29722D01*
X166253Y29721D01*
X166257Y29715D01*
X166251Y29710D01*
X166251Y27018D01*
X166059Y26443D01*
X165584Y26158D01*
X164809Y26061D01*
X164239Y26346D01*
X164048Y26822D01*
X163949Y27613D01*
X163949Y29610D01*
X163913Y29657D01*
X163911Y29656D01*
X163910Y29658D01*
X163410Y29758D01*
X163407Y29757D01*
X163402Y29757D01*
X163400Y29759D01*
X162700Y29759D01*
X162653Y29723D01*
X162654Y29722D01*
X162653Y29721D01*
X162657Y29715D01*
X162651Y29710D01*
X162651Y25713D01*
X162555Y25040D01*
X162084Y24758D01*
X161304Y24660D01*
X160637Y24851D01*
X160449Y25319D01*
X160449Y31493D01*
X160824Y31961D01*
X168897Y31961D01*
X169570Y31865D01*
X169851Y31396D01*
X169851Y25324D01*
X169568Y24852D01*
X168896Y24660D01*
X168123Y24757D01*
G37*
%LPD*%
%LPC*%
G36*
X60708Y46219D02*
X60708Y46219D01*
X60127Y46413D01*
X59639Y46901D01*
X59343Y47393D01*
X59047Y47985D01*
X58949Y48577D01*
X58849Y49373D01*
X58849Y50067D01*
X58949Y50762D01*
X59047Y51355D01*
X59343Y51945D01*
X59738Y52539D01*
X60733Y53533D01*
X61227Y53928D01*
X61818Y54224D01*
X62511Y54422D01*
X63104Y54521D01*
X63797Y54521D01*
X65189Y54322D01*
X65778Y54125D01*
X66371Y53730D01*
X66867Y53333D01*
X67363Y52837D01*
X67758Y52343D01*
X68056Y51748D01*
X68352Y51155D01*
X68451Y50463D01*
X68452Y50462D01*
X68451Y50462D01*
X68550Y49869D01*
X68451Y49177D01*
X68352Y48481D01*
X68154Y47889D01*
X67857Y47295D01*
X67468Y46711D01*
X66904Y46523D01*
X66327Y46812D01*
X65745Y47297D01*
X65651Y47764D01*
X66245Y49049D01*
X66243Y49059D01*
X66249Y49062D01*
X66349Y49662D01*
X66343Y49672D01*
X66349Y49677D01*
X66249Y50377D01*
X66245Y50381D01*
X66247Y50384D01*
X66047Y51084D01*
X66036Y51092D01*
X66038Y51101D01*
X65638Y51601D01*
X65631Y51603D01*
X65631Y51608D01*
X65131Y52008D01*
X65117Y52009D01*
X65114Y52017D01*
X64414Y52217D01*
X64409Y52216D01*
X64407Y52219D01*
X63707Y52319D01*
X63698Y52314D01*
X63693Y52319D01*
X62993Y52219D01*
X62988Y52214D01*
X62984Y52217D01*
X62384Y52017D01*
X62377Y52006D01*
X62369Y52008D01*
X61869Y51608D01*
X61867Y51601D01*
X61862Y51602D01*
X61362Y51002D01*
X61362Y50988D01*
X61353Y50986D01*
X61153Y50386D01*
X61155Y50381D01*
X61153Y50379D01*
X61151Y50378D01*
X61051Y49778D01*
X61054Y49773D01*
X61051Y49770D01*
X61051Y49070D01*
X61060Y49057D01*
X61056Y49048D01*
X61356Y48448D01*
X61393Y48430D01*
X61400Y48421D01*
X62700Y48421D01*
X62747Y48457D01*
X62743Y48463D01*
X62749Y48467D01*
X62848Y49848D01*
X63220Y50221D01*
X63892Y50221D01*
X64461Y50031D01*
X64651Y49462D01*
X64651Y47277D01*
X64457Y46600D01*
X64081Y46317D01*
X63397Y46219D01*
X60708Y46219D01*
G37*
%LPD*%
G36*
X83585Y93052D02*
X83585Y93052D01*
X83595Y93048D01*
X84091Y93345D01*
X84366Y93437D01*
X84948Y93146D01*
X84959Y93148D01*
X84963Y93141D01*
X85663Y93041D01*
X85668Y93044D01*
X85670Y93041D01*
X86270Y93041D01*
X86279Y93048D01*
X86286Y93043D01*
X86886Y93243D01*
X86891Y93251D01*
X86897Y93249D01*
X87497Y93649D01*
X87501Y93659D01*
X87508Y93658D01*
X88008Y94258D01*
X88008Y94263D01*
X88011Y94263D01*
X88411Y94863D01*
X88411Y94867D01*
X88414Y94868D01*
X88714Y95468D01*
X88713Y95473D01*
X88717Y95474D01*
X88917Y96074D01*
X88915Y96079D01*
X88917Y96081D01*
X88914Y96086D01*
X88919Y96090D01*
X88919Y96790D01*
X88913Y96798D01*
X88917Y96804D01*
X88717Y97504D01*
X88716Y97505D01*
X88717Y97506D01*
X88517Y98106D01*
X88506Y98113D01*
X88508Y98121D01*
X88108Y98621D01*
X88108Y98622D01*
X87608Y99222D01*
X87598Y99224D01*
X87597Y99231D01*
X86997Y99631D01*
X86988Y99630D01*
X86986Y99637D01*
X86386Y99837D01*
X86380Y99835D01*
X86378Y99839D01*
X85778Y99939D01*
X85773Y99936D01*
X85770Y99939D01*
X85270Y99939D01*
X85265Y99936D01*
X85263Y99936D01*
X85256Y99930D01*
X85248Y99934D01*
X84648Y99634D01*
X84319Y99470D01*
X84319Y102190D01*
X84312Y102199D01*
X84317Y102206D01*
X84117Y102806D01*
X84097Y102819D01*
X84095Y102832D01*
X83595Y103132D01*
X83579Y103130D01*
X83574Y103137D01*
X83566Y103137D01*
X83565Y103139D01*
X82665Y103039D01*
X82658Y103032D01*
X82652Y103036D01*
X82152Y102836D01*
X82138Y102813D01*
X82132Y102809D01*
X82123Y102806D01*
X81923Y102206D01*
X81927Y102195D01*
X81921Y102190D01*
X81921Y93990D01*
X81928Y93981D01*
X81923Y93974D01*
X82123Y93374D01*
X82143Y93361D01*
X82145Y93348D01*
X82645Y93048D01*
X82663Y93050D01*
X82670Y93041D01*
X83570Y93041D01*
X83585Y93052D01*
G37*
G36*
X118417Y192114D02*
X118417Y192114D01*
X118429Y192110D01*
X119129Y192610D01*
X119133Y192624D01*
X119142Y192625D01*
X119442Y193125D01*
X119440Y193150D01*
X119448Y193160D01*
X119348Y193660D01*
X119342Y193666D01*
X119344Y193671D01*
X115744Y201171D01*
X115734Y201177D01*
X115735Y201185D01*
X115435Y201485D01*
X115426Y201486D01*
X115425Y201492D01*
X114925Y201792D01*
X114902Y201790D01*
X114893Y201799D01*
X114193Y201699D01*
X114180Y201686D01*
X114169Y201688D01*
X113669Y201288D01*
X113666Y201274D01*
X113656Y201272D01*
X113356Y200672D01*
X110056Y193872D01*
X110057Y193867D01*
X110053Y193866D01*
X109853Y193266D01*
X109860Y193247D01*
X109859Y193247D01*
X109860Y193246D01*
X109861Y193243D01*
X109854Y193232D01*
X110054Y192732D01*
X110071Y192722D01*
X110071Y192710D01*
X110771Y192210D01*
X110787Y192210D01*
X110792Y192201D01*
X111392Y192101D01*
X111413Y192113D01*
X111425Y192108D01*
X111925Y192408D01*
X111931Y192422D01*
X111941Y192423D01*
X112341Y193023D01*
X112341Y193027D01*
X112344Y193028D01*
X112930Y194201D01*
X116280Y194201D01*
X116659Y193821D01*
X117255Y192529D01*
X117270Y192522D01*
X117269Y192512D01*
X117769Y192112D01*
X117792Y192111D01*
X117800Y192101D01*
X118400Y192101D01*
X118417Y192114D01*
G37*
G36*
X123211Y229409D02*
X123211Y229409D01*
X123246Y229410D01*
X123276Y229429D01*
X123310Y229439D01*
X123334Y229466D01*
X123364Y229485D01*
X123400Y229541D01*
X123402Y229544D01*
X123403Y229545D01*
X123404Y229548D01*
X123607Y230005D01*
X123609Y230020D01*
X123617Y230032D01*
X123628Y230106D01*
X123641Y234715D01*
X123715Y235338D01*
X123876Y235932D01*
X124147Y236468D01*
X124540Y236905D01*
X125043Y237207D01*
X125621Y237369D01*
X126237Y237413D01*
X126878Y237368D01*
X126937Y237381D01*
X126997Y237389D01*
X127008Y237397D01*
X127014Y237398D01*
X127022Y237405D01*
X127035Y237414D01*
X127038Y237415D01*
X127041Y237417D01*
X127059Y237429D01*
X127381Y237711D01*
X127417Y237768D01*
X127455Y237825D01*
X127455Y237828D01*
X127456Y237829D01*
X127456Y237832D01*
X127466Y237898D01*
X127466Y239880D01*
X127462Y239892D01*
X127464Y239901D01*
X127453Y239925D01*
X127450Y239968D01*
X127430Y240004D01*
X127427Y240014D01*
X127421Y240019D01*
X127414Y240033D01*
X127096Y240441D01*
X127093Y240444D01*
X127092Y240447D01*
X127037Y240485D01*
X126983Y240523D01*
X126979Y240524D01*
X126976Y240526D01*
X126902Y240538D01*
X126244Y240546D01*
X126234Y240543D01*
X126192Y240541D01*
X125545Y240411D01*
X125536Y240406D01*
X125501Y240398D01*
X124889Y240152D01*
X124881Y240146D01*
X124850Y240132D01*
X124764Y240078D01*
X124366Y239829D01*
X124291Y239782D01*
X124284Y239774D01*
X124256Y239755D01*
X123768Y239311D01*
X123762Y239302D01*
X123737Y239278D01*
X123488Y238952D01*
X123488Y239486D01*
X123485Y239496D01*
X123483Y239537D01*
X123372Y240065D01*
X123366Y240077D01*
X123365Y240090D01*
X123333Y240138D01*
X123306Y240188D01*
X123294Y240195D01*
X123287Y240206D01*
X123234Y240229D01*
X123184Y240257D01*
X123171Y240256D01*
X123159Y240261D01*
X123084Y240259D01*
X120494Y239797D01*
X120493Y239797D01*
X120491Y239796D01*
X120483Y239795D01*
X120444Y239775D01*
X120395Y239761D01*
X120382Y239747D01*
X120365Y239740D01*
X120362Y239734D01*
X120358Y239732D01*
X120335Y239695D01*
X120302Y239657D01*
X120299Y239639D01*
X120288Y239623D01*
X120287Y239615D01*
X120286Y239613D01*
X120286Y239607D01*
X120277Y239550D01*
X120285Y229649D01*
X120289Y229632D01*
X120287Y229615D01*
X120309Y229566D01*
X120324Y229514D01*
X120337Y229503D01*
X120344Y229488D01*
X120389Y229458D01*
X120429Y229422D01*
X120446Y229420D01*
X120460Y229411D01*
X120534Y229399D01*
X123176Y229399D01*
X123211Y229409D01*
G37*
G36*
X163209Y192108D02*
X163209Y192108D01*
X163216Y192103D01*
X163816Y192303D01*
X163819Y192308D01*
X163822Y192306D01*
X164422Y192606D01*
X164423Y192609D01*
X164425Y192608D01*
X164925Y192908D01*
X164929Y192916D01*
X164935Y192915D01*
X165435Y193415D01*
X165436Y193422D01*
X165441Y193423D01*
X165841Y194023D01*
X165840Y194032D01*
X165847Y194034D01*
X166047Y194634D01*
X166043Y194645D01*
X166047Y194648D01*
X166047Y194649D01*
X166049Y194650D01*
X166049Y195350D01*
X166046Y195355D01*
X166049Y195358D01*
X165949Y195958D01*
X165941Y195965D01*
X165944Y195972D01*
X165644Y196572D01*
X165631Y196578D01*
X165632Y196588D01*
X165049Y197073D01*
X165049Y197426D01*
X165531Y197812D01*
X165534Y197826D01*
X165544Y197828D01*
X165844Y198428D01*
X165842Y198437D01*
X165847Y198441D01*
X165844Y198446D01*
X165849Y198450D01*
X165849Y199150D01*
X165846Y199154D01*
X165849Y199157D01*
X165749Y199857D01*
X165741Y199865D01*
X165744Y199872D01*
X165444Y200472D01*
X165434Y200477D01*
X165435Y200485D01*
X164936Y200984D01*
X164037Y201983D01*
X164008Y201988D01*
X164000Y201999D01*
X161900Y201999D01*
X161891Y201992D01*
X161884Y201997D01*
X161285Y201797D01*
X160586Y201597D01*
X160578Y201586D01*
X160569Y201588D01*
X160069Y201188D01*
X160068Y201184D01*
X160065Y201185D01*
X159565Y200685D01*
X159563Y200672D01*
X159555Y200669D01*
X159255Y199969D01*
X159257Y199962D01*
X159252Y199960D01*
X159152Y199460D01*
X159163Y199437D01*
X159158Y199425D01*
X159458Y198925D01*
X159472Y198919D01*
X159473Y198909D01*
X160073Y198509D01*
X160087Y198510D01*
X160092Y198501D01*
X160692Y198401D01*
X160698Y198405D01*
X160705Y198405D01*
X160718Y198415D01*
X160731Y198412D01*
X161231Y198812D01*
X161233Y198819D01*
X161238Y198819D01*
X161632Y199311D01*
X162212Y199601D01*
X162883Y199601D01*
X163351Y199226D01*
X163351Y198686D01*
X162789Y198498D01*
X161994Y198399D01*
X161985Y198390D01*
X161978Y198394D01*
X161578Y198194D01*
X161566Y198170D01*
X161553Y198166D01*
X161353Y197566D01*
X161357Y197555D01*
X161351Y197550D01*
X161351Y196650D01*
X161367Y196629D01*
X161365Y196615D01*
X161765Y196215D01*
X161786Y196212D01*
X161792Y196201D01*
X162392Y196101D01*
X162393Y196102D01*
X162393Y196101D01*
X163077Y196004D01*
X163554Y195526D01*
X163647Y194970D01*
X163176Y194594D01*
X162595Y194400D01*
X161914Y194498D01*
X161241Y194786D01*
X161047Y195464D01*
X161030Y195477D01*
X161030Y195489D01*
X160630Y195789D01*
X160612Y195789D01*
X160606Y195799D01*
X159806Y195899D01*
X159796Y195893D01*
X159792Y195893D01*
X159786Y195897D01*
X159086Y195697D01*
X159073Y195680D01*
X159061Y195680D01*
X158761Y195280D01*
X158761Y195271D01*
X158755Y195266D01*
X158761Y195258D01*
X158751Y195250D01*
X158751Y194550D01*
X158760Y194537D01*
X158756Y194528D01*
X159056Y193928D01*
X159060Y193926D01*
X159059Y193923D01*
X159459Y193323D01*
X159462Y193322D01*
X159462Y193319D01*
X159862Y192819D01*
X159874Y192816D01*
X159875Y192808D01*
X160375Y192508D01*
X160378Y192508D01*
X160378Y192506D01*
X160978Y192206D01*
X160989Y192208D01*
X160993Y192201D01*
X161693Y192101D01*
X161698Y192104D01*
X161700Y192101D01*
X163200Y192101D01*
X163209Y192108D01*
G37*
%LPC*%
G36*
X110136Y26106D02*
X110136Y26106D01*
X109747Y26787D01*
X109652Y27360D01*
X109935Y27832D01*
X110522Y28126D01*
X111722Y28726D01*
X111741Y28763D01*
X111749Y28770D01*
X111749Y32170D01*
X111733Y32191D01*
X111735Y32205D01*
X111335Y32605D01*
X111322Y32607D01*
X111321Y32615D01*
X110031Y33210D01*
X109649Y33687D01*
X109649Y34257D01*
X110038Y34937D01*
X110514Y35318D01*
X111074Y35224D01*
X111057Y35194D01*
X111065Y35135D01*
X111078Y35137D01*
X111081Y35125D01*
X111780Y34825D01*
X118474Y31628D01*
X118958Y31241D01*
X119150Y30665D01*
X119054Y29996D01*
X118569Y29608D01*
X118562Y29578D01*
X118551Y29570D01*
X118551Y29501D01*
X111181Y26016D01*
X110606Y25824D01*
X110136Y26106D01*
G37*
%LPD*%
G36*
X135405Y192104D02*
X135405Y192104D01*
X135408Y192101D01*
X136008Y192201D01*
X136015Y192209D01*
X136022Y192206D01*
X136622Y192506D01*
X136624Y192510D01*
X136627Y192509D01*
X137227Y192909D01*
X137231Y192919D01*
X137238Y192919D01*
X137638Y193419D01*
X137639Y193423D01*
X137641Y193423D01*
X138041Y194023D01*
X138040Y194034D01*
X138047Y194036D01*
X138247Y194736D01*
X138244Y194745D01*
X138247Y194747D01*
X138247Y194748D01*
X138249Y194750D01*
X138249Y196050D01*
X138243Y196058D01*
X138247Y196064D01*
X138047Y196764D01*
X138036Y196772D01*
X138038Y196781D01*
X137638Y197281D01*
X137638Y197282D01*
X137138Y197882D01*
X137131Y197883D01*
X137131Y197888D01*
X136631Y198288D01*
X136617Y198289D01*
X136614Y198297D01*
X135915Y198497D01*
X135316Y198697D01*
X135305Y198693D01*
X135300Y198699D01*
X134656Y198699D01*
X134745Y199410D01*
X135106Y199501D01*
X137200Y199501D01*
X137209Y199508D01*
X137216Y199503D01*
X137816Y199703D01*
X137833Y199728D01*
X137846Y199732D01*
X138046Y200232D01*
X138042Y200245D01*
X138049Y200250D01*
X138049Y201150D01*
X138038Y201165D01*
X138042Y201175D01*
X137742Y201675D01*
X137722Y201684D01*
X137718Y201696D01*
X137218Y201896D01*
X137205Y201892D01*
X137200Y201899D01*
X133700Y201899D01*
X133691Y201892D01*
X133684Y201897D01*
X133084Y201697D01*
X133073Y201680D01*
X133062Y201681D01*
X132662Y201181D01*
X132661Y201173D01*
X132656Y201172D01*
X132456Y200772D01*
X132458Y200760D01*
X132451Y200756D01*
X131951Y196856D01*
X131961Y196839D01*
X131956Y196828D01*
X132156Y196428D01*
X132169Y196421D01*
X132169Y196412D01*
X132669Y196012D01*
X132679Y196011D01*
X132681Y196005D01*
X133381Y195705D01*
X133400Y195709D01*
X133408Y195701D01*
X134008Y195801D01*
X134020Y195814D01*
X134031Y195812D01*
X134517Y196201D01*
X135188Y196201D01*
X135755Y195917D01*
X135849Y195258D01*
X135565Y194690D01*
X134995Y194500D01*
X134318Y194597D01*
X133727Y194991D01*
X133718Y194990D01*
X133716Y194997D01*
X133116Y195197D01*
X133093Y195189D01*
X133082Y195196D01*
X132582Y194996D01*
X132574Y194984D01*
X132565Y194985D01*
X131965Y194385D01*
X131962Y194364D01*
X131951Y194358D01*
X131851Y193758D01*
X131863Y193737D01*
X131858Y193725D01*
X132158Y193225D01*
X132166Y193221D01*
X132165Y193215D01*
X132665Y192715D01*
X132677Y192714D01*
X132678Y192706D01*
X133278Y192406D01*
X133285Y192407D01*
X133286Y192403D01*
X133986Y192203D01*
X133991Y192205D01*
X133993Y192201D01*
X134693Y192101D01*
X134698Y192104D01*
X134700Y192101D01*
X135400Y192101D01*
X135405Y192104D01*
G37*
%LPC*%
G36*
X161124Y52955D02*
X161124Y52955D01*
X160644Y53436D01*
X160452Y54109D01*
X160642Y54681D01*
X161127Y55068D01*
X162322Y55666D01*
X162332Y55686D01*
X162336Y55689D01*
X162346Y55692D01*
X162546Y56192D01*
X162542Y56205D01*
X162549Y56210D01*
X162549Y58910D01*
X162542Y58919D01*
X162547Y58926D01*
X162347Y59526D01*
X162321Y59543D01*
X162318Y59556D01*
X161025Y60053D01*
X160546Y60437D01*
X160451Y61004D01*
X160742Y61682D01*
X161224Y62165D01*
X161695Y62259D01*
X162380Y61965D01*
X169077Y58667D01*
X169565Y58373D01*
X169951Y57795D01*
X169951Y57225D01*
X169566Y56648D01*
X168978Y56354D01*
X162280Y53155D01*
X161595Y52861D01*
X161124Y52955D01*
G37*
%LPD*%
G36*
X150605Y211154D02*
X150605Y211154D01*
X150608Y211151D01*
X151208Y211251D01*
X151215Y211259D01*
X151222Y211256D01*
X152422Y211856D01*
X152425Y211863D01*
X152431Y211862D01*
X152931Y212262D01*
X152933Y212272D01*
X152941Y212273D01*
X153341Y212873D01*
X153340Y212882D01*
X153347Y212884D01*
X153547Y213484D01*
X153545Y213491D01*
X153549Y213493D01*
X153649Y214193D01*
X153644Y214201D01*
X153649Y214206D01*
X153549Y215006D01*
X153544Y215011D01*
X153547Y215016D01*
X153347Y215616D01*
X153336Y215623D01*
X153338Y215631D01*
X152938Y216131D01*
X152931Y216133D01*
X152931Y216138D01*
X152431Y216538D01*
X152423Y216539D01*
X152422Y216544D01*
X151822Y216844D01*
X151815Y216843D01*
X151814Y216847D01*
X151114Y217047D01*
X151112Y217047D01*
X151111Y217048D01*
X149822Y217345D01*
X149342Y217729D01*
X149155Y218290D01*
X149526Y218754D01*
X150195Y218850D01*
X150776Y218656D01*
X151368Y218162D01*
X151392Y218161D01*
X151400Y218151D01*
X152000Y218151D01*
X152015Y218162D01*
X152025Y218158D01*
X152525Y218458D01*
X152532Y218474D01*
X152543Y218476D01*
X152943Y219176D01*
X152941Y219187D01*
X152948Y219190D01*
X153048Y219690D01*
X153031Y219726D01*
X153032Y219738D01*
X152433Y220237D01*
X152035Y220635D01*
X152017Y220637D01*
X152014Y220647D01*
X151314Y220847D01*
X151309Y220846D01*
X151307Y220849D01*
X149907Y221049D01*
X149898Y221044D01*
X149893Y221049D01*
X149193Y220949D01*
X149189Y220945D01*
X149186Y220947D01*
X148486Y220747D01*
X148481Y220740D01*
X148475Y220742D01*
X147975Y220442D01*
X147973Y220438D01*
X147969Y220438D01*
X147469Y220038D01*
X147467Y220028D01*
X147459Y220027D01*
X147059Y219427D01*
X147060Y219418D01*
X147053Y219416D01*
X146853Y218816D01*
X146855Y218810D01*
X146851Y218808D01*
X146751Y218208D01*
X146754Y218203D01*
X146751Y218200D01*
X146751Y217500D01*
X146757Y217492D01*
X146753Y217486D01*
X146953Y216786D01*
X146964Y216778D01*
X146962Y216769D01*
X147362Y216269D01*
X147369Y216267D01*
X147369Y216262D01*
X147869Y215862D01*
X147877Y215861D01*
X147878Y215856D01*
X148478Y215556D01*
X148480Y215556D01*
X148481Y215555D01*
X149181Y215255D01*
X149184Y215256D01*
X149184Y215253D01*
X149784Y215053D01*
X149791Y215055D01*
X149793Y215051D01*
X150485Y214952D01*
X151056Y214667D01*
X151149Y214105D01*
X150962Y213637D01*
X150293Y213351D01*
X149618Y213447D01*
X149030Y213839D01*
X148432Y214338D01*
X148420Y214338D01*
X148418Y214346D01*
X147918Y214546D01*
X147906Y214542D01*
X147901Y214549D01*
X147899Y214549D01*
X147895Y214546D01*
X147892Y214549D01*
X147292Y214449D01*
X147275Y214431D01*
X147262Y214432D01*
X146762Y213832D01*
X146762Y213824D01*
X146761Y213824D01*
X146762Y213823D01*
X146761Y213814D01*
X146752Y213810D01*
X146652Y213310D01*
X146661Y213291D01*
X146655Y213281D01*
X146955Y212581D01*
X146966Y212574D01*
X146965Y212565D01*
X147365Y212165D01*
X147372Y212164D01*
X147373Y212159D01*
X147971Y211760D01*
X148469Y211362D01*
X148483Y211361D01*
X148486Y211353D01*
X149186Y211153D01*
X149196Y211156D01*
X149200Y211151D01*
X150600Y211151D01*
X150605Y211154D01*
G37*
%LPC*%
G36*
X86710Y26018D02*
X86710Y26018D01*
X86020Y26216D01*
X85531Y26509D01*
X85038Y27001D01*
X84645Y27592D01*
X84447Y28186D01*
X84249Y28778D01*
X84249Y30262D01*
X84447Y30854D01*
X84645Y31448D01*
X85038Y32039D01*
X85431Y32432D01*
X86021Y32825D01*
X86711Y33022D01*
X87283Y33117D01*
X87656Y32744D01*
X87850Y32066D01*
X87753Y31293D01*
X87371Y30911D01*
X86778Y30614D01*
X86770Y30598D01*
X86759Y30597D01*
X86359Y29997D01*
X86359Y29993D01*
X86360Y29977D01*
X86351Y29970D01*
X86351Y29270D01*
X86358Y29261D01*
X86353Y29254D01*
X86553Y28654D01*
X86567Y28645D01*
X86565Y28635D01*
X87065Y28135D01*
X87107Y28130D01*
X87116Y28123D01*
X87716Y28323D01*
X87727Y28340D01*
X87738Y28339D01*
X88138Y28839D01*
X88139Y28858D01*
X88149Y28864D01*
X88249Y29662D01*
X88344Y30139D01*
X88816Y30422D01*
X89691Y30519D01*
X90256Y30237D01*
X90351Y29762D01*
X90451Y28964D01*
X90461Y28953D01*
X90458Y28945D01*
X90758Y28445D01*
X90802Y28427D01*
X90808Y28421D01*
X91408Y28521D01*
X91429Y28543D01*
X91442Y28545D01*
X91742Y29045D01*
X91740Y29063D01*
X91749Y29070D01*
X91749Y29770D01*
X91737Y29786D01*
X91741Y29797D01*
X91341Y30397D01*
X91331Y30401D01*
X91331Y30408D01*
X90838Y30803D01*
X90552Y31280D01*
X90647Y31853D01*
X91033Y32529D01*
X91600Y32718D01*
X92178Y32525D01*
X92769Y32132D01*
X93261Y31640D01*
X93556Y31148D01*
X93852Y30456D01*
X93951Y29866D01*
X93951Y27990D01*
X92967Y27007D01*
X92473Y26612D01*
X91882Y26316D01*
X91197Y26120D01*
X90511Y26218D01*
X89929Y26412D01*
X89538Y26901D01*
X89508Y26908D01*
X89500Y26919D01*
X89100Y26919D01*
X89079Y26903D01*
X89065Y26905D01*
X88569Y26408D01*
X87982Y26017D01*
X87399Y25920D01*
X86710Y26018D01*
G37*
%LPD*%
%LPC*%
G36*
X87003Y47019D02*
X87003Y47019D01*
X86315Y47118D01*
X85729Y47411D01*
X85237Y47903D01*
X84840Y48398D01*
X84546Y48890D01*
X84348Y49580D01*
X84249Y50273D01*
X84249Y50967D01*
X84348Y51659D01*
X84546Y52251D01*
X84842Y52843D01*
X85235Y53335D01*
X85726Y53727D01*
X86414Y54022D01*
X87000Y54120D01*
X87563Y54026D01*
X87752Y53459D01*
X87849Y52681D01*
X87563Y52205D01*
X86973Y51811D01*
X86970Y51804D01*
X86965Y51805D01*
X86565Y51405D01*
X86563Y51387D01*
X86553Y51384D01*
X86353Y50684D01*
X86354Y50679D01*
X86353Y50678D01*
X86356Y50674D01*
X86358Y50670D01*
X86351Y50663D01*
X86451Y49963D01*
X86461Y49953D01*
X86458Y49945D01*
X86758Y49445D01*
X86780Y49436D01*
X86784Y49423D01*
X87384Y49223D01*
X87415Y49233D01*
X87427Y49229D01*
X88027Y49629D01*
X88035Y49652D01*
X88047Y49656D01*
X88247Y50356D01*
X88244Y50366D01*
X88249Y50370D01*
X88249Y50956D01*
X88532Y51428D01*
X89202Y51619D01*
X90075Y51425D01*
X90354Y51147D01*
X90451Y50463D01*
X90551Y49664D01*
X90579Y49636D01*
X90582Y49624D01*
X91082Y49424D01*
X91115Y49434D01*
X91116Y49434D01*
X91119Y49435D01*
X91131Y49432D01*
X91631Y49832D01*
X91637Y49855D01*
X91645Y49861D01*
X91649Y49863D01*
X91749Y50563D01*
X91743Y50573D01*
X91749Y50578D01*
X91649Y51178D01*
X91633Y51193D01*
X91635Y51205D01*
X91135Y51705D01*
X91128Y51706D01*
X91127Y51711D01*
X90549Y52096D01*
X90549Y52660D01*
X90840Y53339D01*
X91317Y53721D01*
X91888Y53721D01*
X92473Y53429D01*
X93065Y52935D01*
X93458Y52443D01*
X93752Y51855D01*
X93851Y51163D01*
X93951Y50467D01*
X93951Y49186D01*
X93663Y48802D01*
X92669Y47808D01*
X92078Y47415D01*
X91492Y47219D01*
X90903Y47219D01*
X90220Y47317D01*
X89735Y47705D01*
X89338Y48201D01*
X89281Y48215D01*
X89277Y48201D01*
X89262Y48202D01*
X88765Y47605D01*
X88276Y47214D01*
X87692Y47019D01*
X87003Y47019D01*
G37*
%LPD*%
G36*
X76378Y93047D02*
X76378Y93047D01*
X76384Y93043D01*
X77084Y93243D01*
X77096Y93260D01*
X77108Y93259D01*
X77464Y93704D01*
X77728Y93265D01*
X77750Y93256D01*
X77754Y93243D01*
X78354Y93043D01*
X78365Y93047D01*
X78370Y93041D01*
X79170Y93041D01*
X79185Y93052D01*
X79195Y93048D01*
X79695Y93348D01*
X79703Y93367D01*
X79710Y93372D01*
X79707Y93376D01*
X79719Y93383D01*
X79819Y94083D01*
X79816Y94088D01*
X79819Y94090D01*
X79819Y98890D01*
X79816Y98895D01*
X79819Y98898D01*
X79719Y99498D01*
X79700Y99515D01*
X79701Y99528D01*
X79201Y99928D01*
X79179Y99929D01*
X79174Y99936D01*
X79173Y99936D01*
X79170Y99939D01*
X78370Y99939D01*
X78365Y99936D01*
X78360Y99936D01*
X78358Y99934D01*
X78354Y99937D01*
X77754Y99737D01*
X77741Y99717D01*
X77728Y99715D01*
X77460Y99269D01*
X77405Y99325D01*
X77401Y99325D01*
X77401Y99328D01*
X76901Y99728D01*
X76887Y99729D01*
X76884Y99737D01*
X76184Y99937D01*
X76179Y99936D01*
X76173Y99936D01*
X76170Y99939D01*
X75570Y99939D01*
X75565Y99936D01*
X75560Y99936D01*
X75558Y99934D01*
X75554Y99937D01*
X74954Y99737D01*
X74951Y99732D01*
X74948Y99734D01*
X74348Y99434D01*
X74344Y99427D01*
X74338Y99428D01*
X73738Y98928D01*
X73736Y98918D01*
X73729Y98917D01*
X73329Y98317D01*
X73329Y98313D01*
X73326Y98312D01*
X73026Y97712D01*
X73027Y97707D01*
X73023Y97706D01*
X72823Y97106D01*
X72827Y97096D01*
X72823Y97093D01*
X72823Y97092D01*
X72821Y97090D01*
X72821Y96390D01*
X72824Y96386D01*
X72821Y96383D01*
X72921Y95683D01*
X72926Y95678D01*
X72923Y95674D01*
X73123Y95074D01*
X73128Y95071D01*
X73126Y95068D01*
X73426Y94468D01*
X73436Y94463D01*
X73435Y94455D01*
X74435Y93455D01*
X74447Y93454D01*
X74448Y93446D01*
X75048Y93146D01*
X75059Y93148D01*
X75062Y93141D01*
X75662Y93041D01*
X75667Y93044D01*
X75670Y93041D01*
X76370Y93041D01*
X76378Y93047D01*
G37*
G36*
X70908Y211157D02*
X70908Y211157D01*
X70914Y211153D01*
X71614Y211353D01*
X71626Y211370D01*
X71638Y211369D01*
X71994Y211814D01*
X72258Y211375D01*
X72280Y211366D01*
X72284Y211353D01*
X72884Y211153D01*
X72895Y211157D01*
X72900Y211151D01*
X73700Y211151D01*
X73715Y211162D01*
X73725Y211158D01*
X74225Y211458D01*
X74233Y211477D01*
X74240Y211482D01*
X74237Y211486D01*
X74249Y211493D01*
X74349Y212193D01*
X74346Y212198D01*
X74349Y212200D01*
X74349Y217000D01*
X74346Y217005D01*
X74349Y217008D01*
X74249Y217608D01*
X74230Y217625D01*
X74231Y217638D01*
X73731Y218038D01*
X73709Y218039D01*
X73704Y218046D01*
X73703Y218046D01*
X73700Y218049D01*
X72900Y218049D01*
X72895Y218046D01*
X72890Y218046D01*
X72888Y218044D01*
X72884Y218047D01*
X72284Y217847D01*
X72271Y217827D01*
X72258Y217825D01*
X71990Y217379D01*
X71935Y217435D01*
X71931Y217435D01*
X71931Y217438D01*
X71431Y217838D01*
X71417Y217839D01*
X71414Y217847D01*
X70714Y218047D01*
X70709Y218046D01*
X70703Y218046D01*
X70700Y218049D01*
X70100Y218049D01*
X70095Y218046D01*
X70090Y218046D01*
X70088Y218044D01*
X70084Y218047D01*
X69484Y217847D01*
X69481Y217842D01*
X69478Y217844D01*
X68878Y217544D01*
X68874Y217537D01*
X68868Y217538D01*
X68268Y217038D01*
X68266Y217028D01*
X68259Y217027D01*
X67859Y216427D01*
X67859Y216423D01*
X67856Y216422D01*
X67556Y215822D01*
X67557Y215817D01*
X67553Y215816D01*
X67353Y215216D01*
X67357Y215206D01*
X67353Y215203D01*
X67353Y215202D01*
X67351Y215200D01*
X67351Y214500D01*
X67354Y214496D01*
X67351Y214493D01*
X67451Y213793D01*
X67456Y213788D01*
X67453Y213784D01*
X67653Y213184D01*
X67658Y213181D01*
X67656Y213178D01*
X67956Y212578D01*
X67966Y212573D01*
X67965Y212565D01*
X68965Y211565D01*
X68977Y211564D01*
X68978Y211556D01*
X69578Y211256D01*
X69589Y211258D01*
X69592Y211251D01*
X70192Y211151D01*
X70197Y211154D01*
X70200Y211151D01*
X70900Y211151D01*
X70908Y211157D01*
G37*
G36*
X185005Y211154D02*
X185005Y211154D01*
X185008Y211151D01*
X185608Y211251D01*
X185614Y211258D01*
X185619Y211255D01*
X186319Y211555D01*
X186324Y211563D01*
X186331Y211562D01*
X187331Y212362D01*
X187333Y212372D01*
X187341Y212373D01*
X187741Y212973D01*
X187740Y212982D01*
X187747Y212984D01*
X187947Y213584D01*
X187946Y213586D01*
X187947Y213586D01*
X188147Y214286D01*
X188146Y214289D01*
X188147Y214289D01*
X188145Y214293D01*
X188144Y214296D01*
X188149Y214300D01*
X188149Y215000D01*
X188146Y215004D01*
X188149Y215007D01*
X188049Y215707D01*
X188044Y215712D01*
X188047Y215716D01*
X187847Y216316D01*
X187839Y216321D01*
X187841Y216327D01*
X187441Y216927D01*
X187434Y216930D01*
X187435Y216935D01*
X186935Y217435D01*
X186931Y217435D01*
X186931Y217438D01*
X186431Y217838D01*
X186423Y217839D01*
X186422Y217844D01*
X185822Y218144D01*
X185812Y218142D01*
X185810Y218144D01*
X185809Y218144D01*
X185807Y218149D01*
X184407Y218349D01*
X184397Y218343D01*
X184392Y218349D01*
X183792Y218249D01*
X183789Y218245D01*
X183786Y218247D01*
X183086Y218047D01*
X183082Y218042D01*
X183078Y218044D01*
X182478Y217744D01*
X182473Y217734D01*
X182465Y217735D01*
X181966Y217236D01*
X180967Y216337D01*
X180962Y216308D01*
X180951Y216300D01*
X180951Y214200D01*
X180957Y214192D01*
X180953Y214186D01*
X181153Y213486D01*
X181158Y213482D01*
X181156Y213478D01*
X181456Y212878D01*
X181460Y212876D01*
X181459Y212873D01*
X181859Y212273D01*
X181869Y212269D01*
X181869Y212262D01*
X182369Y211862D01*
X182373Y211861D01*
X182373Y211859D01*
X182973Y211459D01*
X182982Y211460D01*
X182984Y211453D01*
X183584Y211253D01*
X183591Y211255D01*
X183593Y211251D01*
X184293Y211151D01*
X184298Y211154D01*
X184300Y211151D01*
X185000Y211151D01*
X185005Y211154D01*
G37*
%LPC*%
G36*
X137411Y44948D02*
X137411Y44948D01*
X136819Y45146D01*
X136229Y45441D01*
X135741Y45929D01*
X135147Y47115D01*
X135049Y47704D01*
X135049Y49093D01*
X135246Y49782D01*
X135542Y50373D01*
X136037Y50967D01*
X136432Y51363D01*
X136816Y51651D01*
X137383Y51651D01*
X137863Y51266D01*
X138251Y50685D01*
X138251Y50216D01*
X137361Y49030D01*
X137361Y49023D01*
X137356Y49022D01*
X137056Y48422D01*
X137060Y48398D01*
X137052Y48388D01*
X137252Y47588D01*
X137267Y47576D01*
X137265Y47565D01*
X137665Y47165D01*
X137692Y47162D01*
X137700Y47151D01*
X138300Y47151D01*
X138325Y47170D01*
X138338Y47169D01*
X138738Y47669D01*
X138739Y47682D01*
X138747Y47684D01*
X138947Y48284D01*
X138945Y48291D01*
X138949Y48293D01*
X139048Y48987D01*
X139345Y49681D01*
X139345Y49684D01*
X139347Y49684D01*
X139544Y50276D01*
X139935Y50765D01*
X140426Y51157D01*
X141114Y51452D01*
X141704Y51551D01*
X142393Y51551D01*
X143077Y51355D01*
X143569Y50962D01*
X144063Y50566D01*
X144455Y49978D01*
X144652Y49389D01*
X144751Y48697D01*
X144751Y48003D01*
X144652Y47314D01*
X144356Y46622D01*
X144060Y46129D01*
X143573Y45545D01*
X143110Y45452D01*
X142531Y45838D01*
X142049Y46320D01*
X142049Y46886D01*
X142742Y47974D01*
X142740Y47997D01*
X142749Y48006D01*
X142649Y48806D01*
X142633Y48822D01*
X142635Y48835D01*
X142235Y49235D01*
X142208Y49239D01*
X142200Y49249D01*
X141600Y49249D01*
X141575Y49230D01*
X141562Y49231D01*
X141162Y48731D01*
X141161Y48717D01*
X141153Y48714D01*
X140553Y46714D01*
X140356Y46124D01*
X139963Y45633D01*
X139473Y45143D01*
X138889Y44948D01*
X138200Y44850D01*
X137411Y44948D01*
G37*
%LPD*%
%LPC*%
G36*
X112204Y47619D02*
X112204Y47619D01*
X111615Y47717D01*
X111029Y48011D01*
X110537Y48503D01*
X110142Y48997D01*
X109846Y49588D01*
X109649Y50277D01*
X109649Y51567D01*
X109748Y52255D01*
X110043Y52845D01*
X110438Y53439D01*
X110932Y53933D01*
X111323Y54226D01*
X111894Y54416D01*
X112367Y54132D01*
X112851Y53552D01*
X112851Y52985D01*
X112460Y52399D01*
X112062Y51901D01*
X112061Y51895D01*
X112057Y51894D01*
X111657Y51194D01*
X111660Y51172D01*
X111658Y51170D01*
X111655Y51168D01*
X111655Y51167D01*
X111651Y51163D01*
X111751Y50463D01*
X111761Y50453D01*
X111758Y50445D01*
X112058Y49945D01*
X112086Y49933D01*
X112093Y49921D01*
X112793Y49821D01*
X112799Y49825D01*
X112805Y49825D01*
X112818Y49835D01*
X112831Y49832D01*
X113331Y50232D01*
X113335Y50247D01*
X113343Y50253D01*
X113347Y50254D01*
X113547Y50854D01*
X113545Y50860D01*
X113549Y50862D01*
X113648Y51459D01*
X113846Y52153D01*
X114144Y52848D01*
X114439Y53340D01*
X114929Y53829D01*
X115515Y54122D01*
X116203Y54221D01*
X116896Y54221D01*
X117485Y54123D01*
X118071Y53829D01*
X118563Y53337D01*
X118956Y52846D01*
X119153Y52255D01*
X119351Y51563D01*
X119351Y50873D01*
X119252Y50180D01*
X119054Y49488D01*
X118758Y48897D01*
X118367Y48408D01*
X117898Y48126D01*
X117327Y48412D01*
X116741Y48900D01*
X116553Y49369D01*
X116843Y50044D01*
X117238Y50539D01*
X117239Y50547D01*
X117242Y50550D01*
X117239Y50554D01*
X117239Y50558D01*
X117249Y50563D01*
X117349Y51263D01*
X117339Y51281D01*
X117344Y51292D01*
X117044Y51892D01*
X117013Y51907D01*
X117007Y51919D01*
X116307Y52019D01*
X116279Y52003D01*
X116265Y52005D01*
X115865Y51605D01*
X115863Y51592D01*
X115855Y51589D01*
X115555Y50889D01*
X115557Y50881D01*
X115551Y50878D01*
X115452Y50281D01*
X115253Y49585D01*
X115054Y48989D01*
X114762Y48404D01*
X114174Y48012D01*
X113683Y47717D01*
X112997Y47619D01*
X112204Y47619D01*
G37*
%LPD*%
%LPC*%
G36*
X163207Y64259D02*
X163207Y64259D01*
X162515Y64457D01*
X161924Y64654D01*
X161437Y65044D01*
X161041Y65637D01*
X160645Y66232D01*
X160449Y66818D01*
X160449Y68206D01*
X160548Y68799D01*
X160745Y69489D01*
X161138Y70079D01*
X161632Y70573D01*
X162024Y70867D01*
X162518Y71064D01*
X162545Y71109D01*
X162556Y71087D01*
X162578Y71077D01*
X162582Y71064D01*
X163072Y70868D01*
X163554Y70386D01*
X163649Y69818D01*
X163359Y69239D01*
X162865Y68745D01*
X162864Y68732D01*
X162862Y68731D01*
X162855Y68729D01*
X162555Y68029D01*
X162558Y68016D01*
X162551Y68010D01*
X162551Y67310D01*
X162558Y67301D01*
X162553Y67294D01*
X162753Y66694D01*
X162780Y66676D01*
X162784Y66663D01*
X163384Y66463D01*
X163410Y66472D01*
X163422Y66466D01*
X164022Y66766D01*
X164034Y66790D01*
X164047Y66794D01*
X164247Y67394D01*
X164246Y67396D01*
X164247Y67396D01*
X164447Y68095D01*
X164647Y68694D01*
X164646Y68696D01*
X164647Y68696D01*
X164846Y69392D01*
X165139Y69978D01*
X165629Y70370D01*
X166222Y70765D01*
X166808Y70961D01*
X167497Y70961D01*
X168185Y70862D01*
X168773Y70568D01*
X169265Y70175D01*
X169658Y69683D01*
X169952Y69095D01*
X170051Y68403D01*
X170150Y67710D01*
X170051Y67017D01*
X169952Y66323D01*
X169658Y65638D01*
X169269Y65248D01*
X168690Y64862D01*
X168222Y64956D01*
X167639Y65441D01*
X167355Y66010D01*
X167642Y66583D01*
X168038Y67079D01*
X168039Y67098D01*
X168049Y67103D01*
X168149Y67803D01*
X168141Y67817D01*
X168147Y67826D01*
X167947Y68426D01*
X167925Y68441D01*
X167922Y68454D01*
X167322Y68754D01*
X167284Y68747D01*
X167273Y68751D01*
X166673Y68351D01*
X166665Y68330D01*
X166653Y68326D01*
X166453Y67726D01*
X166454Y67725D01*
X166453Y67724D01*
X166053Y66424D01*
X165854Y65730D01*
X165561Y65241D01*
X165070Y64749D01*
X164580Y64456D01*
X163893Y64259D01*
X163207Y64259D01*
G37*
%LPD*%
%LPC*%
G36*
X142524Y34844D02*
X142524Y34844D01*
X141941Y35330D01*
X141752Y35802D01*
X141945Y36379D01*
X142242Y36875D01*
X142241Y36884D01*
X142247Y36886D01*
X142447Y37586D01*
X142444Y37596D01*
X142449Y37600D01*
X142449Y38300D01*
X142442Y38309D01*
X142447Y38316D01*
X142247Y38916D01*
X142244Y38917D01*
X142245Y38919D01*
X141945Y39619D01*
X141931Y39628D01*
X141931Y39638D01*
X141431Y40038D01*
X141427Y40039D01*
X141427Y40041D01*
X140827Y40441D01*
X140812Y40440D01*
X140807Y40449D01*
X140107Y40549D01*
X140105Y40548D01*
X140101Y40548D01*
X140100Y40549D01*
X139400Y40549D01*
X139398Y40548D01*
X139396Y40548D01*
X139390Y40543D01*
X139384Y40547D01*
X138784Y40347D01*
X138781Y40342D01*
X138778Y40344D01*
X138178Y40044D01*
X138171Y40031D01*
X138162Y40031D01*
X137762Y39531D01*
X137761Y39525D01*
X137757Y39524D01*
X137357Y38824D01*
X137359Y38812D01*
X137351Y38808D01*
X137251Y38208D01*
X137254Y38203D01*
X137251Y38200D01*
X137251Y37500D01*
X137258Y37491D01*
X137253Y37484D01*
X137453Y36884D01*
X137458Y36881D01*
X137456Y36878D01*
X137946Y35898D01*
X137759Y35430D01*
X137176Y34944D01*
X136584Y34747D01*
X136560Y34712D01*
X136551Y34706D01*
X136548Y34680D01*
X136549Y34696D01*
X136527Y34732D01*
X136525Y34742D01*
X136033Y35038D01*
X135640Y35528D01*
X135346Y36019D01*
X135148Y36810D01*
X135049Y37503D01*
X135049Y38097D01*
X135149Y38793D01*
X135248Y39485D01*
X135544Y40078D01*
X135842Y40673D01*
X136237Y41167D01*
X136731Y41662D01*
X137325Y42057D01*
X137919Y42354D01*
X139116Y42753D01*
X139149Y42802D01*
X139148Y42803D01*
X139149Y42805D01*
X139148Y42816D01*
X139151Y42793D01*
X139194Y42751D01*
X139197Y42755D01*
X139200Y42751D01*
X140592Y42751D01*
X141184Y42553D01*
X141782Y42354D01*
X142474Y42057D01*
X142967Y41663D01*
X143463Y41167D01*
X143858Y40673D01*
X144155Y40079D01*
X144452Y39386D01*
X144551Y38792D01*
X144651Y38097D01*
X144651Y37503D01*
X144552Y36810D01*
X144354Y36118D01*
X144058Y35527D01*
X143665Y35035D01*
X143189Y34654D01*
X142524Y34844D01*
G37*
%LPD*%
G36*
X160407Y211156D02*
X160407Y211156D01*
X160412Y211152D01*
X161212Y211352D01*
X161219Y211361D01*
X161225Y211358D01*
X161725Y211658D01*
X161729Y211666D01*
X161735Y211665D01*
X162035Y211965D01*
X162039Y211992D01*
X162049Y212000D01*
X162049Y212500D01*
X162038Y212514D01*
X162043Y212524D01*
X161643Y213224D01*
X161627Y213231D01*
X161625Y213242D01*
X161125Y213542D01*
X161096Y213539D01*
X161084Y213547D01*
X159892Y213149D01*
X159108Y213149D01*
X158527Y213343D01*
X158088Y213782D01*
X158509Y213951D01*
X161300Y213951D01*
X161310Y213958D01*
X161315Y213958D01*
X161316Y213959D01*
X161322Y213956D01*
X161922Y214256D01*
X161925Y214263D01*
X161931Y214262D01*
X162431Y214662D01*
X162435Y214677D01*
X162443Y214683D01*
X162438Y214690D01*
X162438Y214692D01*
X162449Y214700D01*
X162449Y215500D01*
X162446Y215504D01*
X162449Y215507D01*
X162349Y216207D01*
X162344Y216212D01*
X162347Y216216D01*
X162147Y216816D01*
X162136Y216823D01*
X162138Y216831D01*
X161738Y217331D01*
X161734Y217332D01*
X161735Y217335D01*
X161235Y217835D01*
X161223Y217836D01*
X161222Y217844D01*
X160622Y218144D01*
X160612Y218142D01*
X160610Y218144D01*
X160609Y218144D01*
X160607Y218149D01*
X159207Y218349D01*
X159198Y218344D01*
X159193Y218349D01*
X158493Y218249D01*
X158489Y218245D01*
X158486Y218247D01*
X157786Y218047D01*
X157782Y218042D01*
X157778Y218044D01*
X157178Y217744D01*
X157175Y217737D01*
X157169Y217738D01*
X156169Y216938D01*
X156166Y216924D01*
X156156Y216922D01*
X155856Y216322D01*
X155857Y216317D01*
X155853Y216316D01*
X155653Y215716D01*
X155655Y215709D01*
X155651Y215707D01*
X155551Y215007D01*
X155554Y215002D01*
X155551Y215000D01*
X155551Y214300D01*
X155554Y214296D01*
X155551Y214293D01*
X155651Y213593D01*
X155659Y213585D01*
X155656Y213578D01*
X156256Y212378D01*
X156266Y212373D01*
X156265Y212365D01*
X156765Y211865D01*
X156772Y211864D01*
X156773Y211859D01*
X157373Y211459D01*
X157382Y211460D01*
X157384Y211453D01*
X157984Y211253D01*
X157991Y211255D01*
X157993Y211251D01*
X158693Y211151D01*
X158698Y211154D01*
X158700Y211151D01*
X160400Y211151D01*
X160407Y211156D01*
G37*
G36*
X123808Y211157D02*
X123808Y211157D01*
X123814Y211153D01*
X124514Y211353D01*
X124519Y211360D01*
X124525Y211358D01*
X125025Y211658D01*
X125029Y211666D01*
X125035Y211665D01*
X125335Y211965D01*
X125338Y211985D01*
X125348Y211990D01*
X125448Y212490D01*
X125438Y212512D01*
X125443Y212524D01*
X125043Y213224D01*
X125027Y213231D01*
X125025Y213242D01*
X124525Y213542D01*
X124497Y213539D01*
X124486Y213547D01*
X123786Y213347D01*
X123785Y213346D01*
X123784Y213347D01*
X123192Y213149D01*
X122507Y213149D01*
X121829Y213343D01*
X121480Y213779D01*
X121909Y213951D01*
X124600Y213951D01*
X124610Y213958D01*
X124615Y213958D01*
X124616Y213959D01*
X124622Y213956D01*
X125222Y214256D01*
X125225Y214263D01*
X125231Y214262D01*
X125731Y214662D01*
X125735Y214677D01*
X125743Y214683D01*
X125738Y214690D01*
X125738Y214692D01*
X125749Y214700D01*
X125749Y215500D01*
X125746Y215504D01*
X125749Y215507D01*
X125649Y216207D01*
X125644Y216212D01*
X125647Y216216D01*
X125447Y216816D01*
X125436Y216823D01*
X125438Y216831D01*
X125038Y217331D01*
X125034Y217332D01*
X125035Y217335D01*
X124535Y217835D01*
X124523Y217836D01*
X124522Y217844D01*
X123922Y218144D01*
X123912Y218142D01*
X123911Y218143D01*
X123908Y218149D01*
X123308Y218249D01*
X123307Y218248D01*
X123306Y218249D01*
X122506Y218349D01*
X122498Y218344D01*
X122493Y218349D01*
X121793Y218249D01*
X121788Y218244D01*
X121784Y218247D01*
X121184Y218047D01*
X121181Y218042D01*
X121178Y218044D01*
X120578Y217744D01*
X120576Y217740D01*
X120573Y217741D01*
X119973Y217341D01*
X119970Y217334D01*
X119965Y217335D01*
X119565Y216935D01*
X119564Y216923D01*
X119556Y216922D01*
X118956Y215722D01*
X118958Y215711D01*
X118951Y215707D01*
X118851Y215007D01*
X118856Y214998D01*
X118851Y214993D01*
X119051Y213593D01*
X119056Y213588D01*
X119053Y213584D01*
X119253Y212984D01*
X119261Y212979D01*
X119259Y212973D01*
X119659Y212373D01*
X119662Y212372D01*
X119662Y212369D01*
X120062Y211869D01*
X120072Y211867D01*
X120073Y211859D01*
X120673Y211459D01*
X120684Y211460D01*
X120686Y211453D01*
X121386Y211253D01*
X121390Y211254D01*
X121392Y211251D01*
X121992Y211151D01*
X121997Y211154D01*
X122000Y211151D01*
X123800Y211151D01*
X123808Y211157D01*
G37*
G36*
X101077Y93046D02*
X101077Y93046D01*
X101082Y93042D01*
X101882Y93242D01*
X101889Y93251D01*
X101895Y93248D01*
X102395Y93548D01*
X102401Y93562D01*
X102411Y93563D01*
X102611Y93863D01*
X102610Y93876D01*
X102618Y93880D01*
X102718Y94380D01*
X102708Y94402D01*
X102713Y94414D01*
X102313Y95114D01*
X102297Y95121D01*
X102295Y95132D01*
X101795Y95432D01*
X101766Y95429D01*
X101754Y95437D01*
X100562Y95039D01*
X99778Y95039D01*
X99197Y95233D01*
X98758Y95672D01*
X99179Y95841D01*
X101870Y95841D01*
X101880Y95848D01*
X101885Y95848D01*
X101886Y95849D01*
X101892Y95846D01*
X102492Y96146D01*
X102495Y96153D01*
X102501Y96152D01*
X103001Y96552D01*
X103005Y96567D01*
X103013Y96573D01*
X103008Y96580D01*
X103008Y96582D01*
X103019Y96590D01*
X103019Y98090D01*
X103010Y98103D01*
X103014Y98112D01*
X102714Y98712D01*
X102707Y98715D01*
X102708Y98721D01*
X102308Y99221D01*
X102304Y99222D01*
X102305Y99225D01*
X101805Y99725D01*
X101796Y99726D01*
X101795Y99732D01*
X101295Y100032D01*
X101281Y100031D01*
X101277Y100039D01*
X99877Y100239D01*
X99869Y100234D01*
X99864Y100239D01*
X99064Y100139D01*
X99059Y100134D01*
X99054Y100137D01*
X98454Y99937D01*
X98451Y99932D01*
X98448Y99934D01*
X97848Y99634D01*
X97845Y99627D01*
X97839Y99628D01*
X96839Y98828D01*
X96836Y98814D01*
X96826Y98812D01*
X96526Y98212D01*
X96527Y98207D01*
X96523Y98206D01*
X96323Y97606D01*
X96325Y97599D01*
X96321Y97597D01*
X96221Y96897D01*
X96224Y96892D01*
X96221Y96890D01*
X96221Y96190D01*
X96224Y96186D01*
X96221Y96183D01*
X96321Y95483D01*
X96329Y95475D01*
X96326Y95468D01*
X96926Y94268D01*
X96936Y94263D01*
X96935Y94255D01*
X97435Y93755D01*
X97439Y93755D01*
X97439Y93752D01*
X97939Y93352D01*
X97953Y93351D01*
X97956Y93343D01*
X98656Y93143D01*
X98660Y93144D01*
X98662Y93141D01*
X99262Y93041D01*
X99267Y93044D01*
X99270Y93041D01*
X101070Y93041D01*
X101077Y93046D01*
G37*
%LPC*%
G36*
X92507Y35419D02*
X92507Y35419D01*
X91818Y35616D01*
X85125Y38913D01*
X84537Y39305D01*
X84249Y39784D01*
X84249Y40458D01*
X84537Y41033D01*
X85122Y41326D01*
X91822Y44626D01*
X92422Y44926D01*
X92445Y44972D01*
X92455Y44950D01*
X92494Y44929D01*
X92500Y44921D01*
X92980Y44921D01*
X93458Y44442D01*
X93747Y43768D01*
X93558Y43200D01*
X93174Y42912D01*
X92579Y42614D01*
X87980Y40615D01*
X87979Y40613D01*
X87978Y40614D01*
X87378Y40314D01*
X87377Y40313D01*
X87376Y40313D01*
X87375Y40309D01*
X87368Y40293D01*
X87359Y40286D01*
X87362Y40282D01*
X87352Y40261D01*
X87368Y40253D01*
X87365Y40235D01*
X87665Y39935D01*
X87678Y39933D01*
X87679Y39925D01*
X92679Y37625D01*
X92683Y37626D01*
X92684Y37623D01*
X93271Y37428D01*
X93651Y36953D01*
X93651Y36379D01*
X93458Y35898D01*
X92980Y35419D01*
X92507Y35419D01*
G37*
%LPD*%
G36*
X91305Y192104D02*
X91305Y192104D01*
X91308Y192101D01*
X91908Y192201D01*
X91931Y192226D01*
X91944Y192228D01*
X92244Y192828D01*
X92241Y192844D01*
X92249Y192850D01*
X92249Y199608D01*
X92804Y199701D01*
X94900Y199701D01*
X94913Y199710D01*
X94922Y199706D01*
X95522Y200006D01*
X95537Y200036D01*
X95549Y200042D01*
X95649Y200642D01*
X95643Y200652D01*
X95649Y200657D01*
X95549Y201357D01*
X95527Y201379D01*
X95525Y201392D01*
X95025Y201692D01*
X95007Y201690D01*
X95000Y201699D01*
X87400Y201699D01*
X87395Y201696D01*
X87392Y201699D01*
X86792Y201599D01*
X86769Y201575D01*
X86756Y201572D01*
X86456Y200972D01*
X86459Y200956D01*
X86451Y200950D01*
X86451Y200250D01*
X86470Y200225D01*
X86469Y200212D01*
X86969Y199812D01*
X86988Y199811D01*
X86993Y199801D01*
X87693Y199701D01*
X87698Y199704D01*
X87700Y199701D01*
X89670Y199701D01*
X89851Y199338D01*
X89851Y193150D01*
X89854Y193145D01*
X89851Y193142D01*
X89951Y192542D01*
X89970Y192525D01*
X89969Y192512D01*
X90469Y192112D01*
X90492Y192111D01*
X90500Y192101D01*
X91300Y192101D01*
X91305Y192104D01*
G37*
G36*
X152715Y192112D02*
X152715Y192112D01*
X152725Y192108D01*
X153225Y192408D01*
X153233Y192427D01*
X153240Y192432D01*
X153237Y192436D01*
X153249Y192443D01*
X153349Y193142D01*
X153447Y193636D01*
X153646Y194132D01*
X153645Y194135D01*
X153647Y194136D01*
X153846Y194831D01*
X154243Y195525D01*
X154942Y196724D01*
X155741Y197923D01*
X155741Y197927D01*
X155744Y197928D01*
X156344Y199128D01*
X156344Y199130D01*
X156343Y199131D01*
X156343Y199135D01*
X156347Y199136D01*
X156547Y199836D01*
X156546Y199840D01*
X156549Y199842D01*
X156649Y200442D01*
X156643Y200452D01*
X156649Y200458D01*
X156549Y201058D01*
X156539Y201067D01*
X156542Y201075D01*
X156242Y201575D01*
X156213Y201587D01*
X156206Y201599D01*
X155406Y201699D01*
X155402Y201697D01*
X155400Y201699D01*
X150700Y201699D01*
X150695Y201696D01*
X150692Y201699D01*
X150092Y201599D01*
X150075Y201580D01*
X150062Y201581D01*
X149662Y201081D01*
X149661Y201058D01*
X149651Y201050D01*
X149651Y200350D01*
X149654Y200346D01*
X149651Y200343D01*
X149751Y199643D01*
X149773Y199621D01*
X149775Y199608D01*
X150275Y199308D01*
X150293Y199310D01*
X150300Y199301D01*
X153640Y199301D01*
X153554Y198870D01*
X152760Y197779D01*
X152760Y197773D01*
X152756Y197772D01*
X152457Y197175D01*
X152059Y196577D01*
X152059Y196576D01*
X152058Y196575D01*
X151758Y196075D01*
X151758Y196072D01*
X151756Y196072D01*
X151456Y195472D01*
X151457Y195466D01*
X151454Y195464D01*
X151453Y195464D01*
X151053Y194064D01*
X151056Y194054D01*
X151051Y194050D01*
X151051Y193453D01*
X150951Y192757D01*
X150963Y192737D01*
X150958Y192725D01*
X151258Y192225D01*
X151286Y192213D01*
X151293Y192201D01*
X151993Y192101D01*
X151998Y192104D01*
X152000Y192101D01*
X152700Y192101D01*
X152715Y192112D01*
G37*
G36*
X166215Y211162D02*
X166215Y211162D01*
X166225Y211158D01*
X166725Y211458D01*
X166733Y211477D01*
X166740Y211482D01*
X166737Y211486D01*
X166749Y211492D01*
X166849Y212092D01*
X166846Y212097D01*
X166849Y212100D01*
X166849Y214785D01*
X167234Y215362D01*
X167812Y215651D01*
X168483Y215651D01*
X168954Y215274D01*
X169051Y214597D01*
X169051Y212600D01*
X169054Y212596D01*
X169051Y212593D01*
X169151Y211893D01*
X169157Y211887D01*
X169154Y211882D01*
X169354Y211382D01*
X169380Y211366D01*
X169384Y211353D01*
X169984Y211153D01*
X169995Y211157D01*
X170000Y211151D01*
X170900Y211151D01*
X170921Y211167D01*
X170935Y211165D01*
X171335Y211565D01*
X171336Y211577D01*
X171341Y211581D01*
X171338Y211586D01*
X171349Y211592D01*
X171449Y212192D01*
X171446Y212197D01*
X171449Y212200D01*
X171449Y215000D01*
X171446Y215005D01*
X171449Y215008D01*
X171349Y215608D01*
X171345Y215611D01*
X171347Y215614D01*
X171147Y216314D01*
X171136Y216322D01*
X171138Y216331D01*
X170738Y216831D01*
X170734Y216832D01*
X170735Y216835D01*
X170235Y217335D01*
X170231Y217335D01*
X170231Y217338D01*
X169731Y217738D01*
X169718Y217739D01*
X169716Y217747D01*
X169116Y217947D01*
X169109Y217945D01*
X169107Y217949D01*
X168407Y218049D01*
X168402Y218046D01*
X168396Y218046D01*
X168393Y218049D01*
X167693Y217949D01*
X167680Y217936D01*
X167669Y217938D01*
X167178Y217545D01*
X166823Y217457D01*
X166542Y217925D01*
X166513Y217937D01*
X166506Y217949D01*
X165706Y218049D01*
X165701Y218046D01*
X165696Y218046D01*
X165693Y218049D01*
X164993Y217949D01*
X164978Y217933D01*
X164965Y217935D01*
X164565Y217535D01*
X164564Y217523D01*
X164557Y217517D01*
X164562Y217510D01*
X164562Y217508D01*
X164551Y217500D01*
X164551Y212000D01*
X164558Y211991D01*
X164553Y211984D01*
X164753Y211384D01*
X164778Y211367D01*
X164782Y211354D01*
X165282Y211154D01*
X165295Y211158D01*
X165300Y211151D01*
X166200Y211151D01*
X166215Y211162D01*
G37*
%LPC*%
G36*
X195342Y23979D02*
X195342Y23979D01*
X195249Y24534D01*
X195249Y49497D01*
X195709Y49681D01*
X196551Y49681D01*
X196551Y24072D01*
X195996Y23979D01*
X195342Y23979D01*
G37*
%LPD*%
G36*
X106721Y211167D02*
X106721Y211167D01*
X106735Y211165D01*
X107135Y211565D01*
X107136Y211577D01*
X107141Y211581D01*
X107138Y211586D01*
X107138Y211587D01*
X107149Y211593D01*
X107249Y212293D01*
X107246Y212298D01*
X107249Y212300D01*
X107249Y215651D01*
X108500Y215651D01*
X108516Y215663D01*
X108527Y215659D01*
X109127Y216059D01*
X109137Y216086D01*
X109149Y216092D01*
X109249Y216692D01*
X109246Y216697D01*
X109249Y216700D01*
X109249Y217400D01*
X109236Y217418D01*
X109239Y217430D01*
X108939Y217830D01*
X108917Y217836D01*
X108912Y217848D01*
X108112Y218048D01*
X108107Y218046D01*
X108096Y218046D01*
X108093Y218049D01*
X107431Y217954D01*
X107255Y218396D01*
X107530Y218855D01*
X108207Y218951D01*
X108217Y218961D01*
X108225Y218958D01*
X108725Y219258D01*
X108734Y219280D01*
X108747Y219284D01*
X108947Y219884D01*
X108942Y219899D01*
X108949Y219906D01*
X108849Y220706D01*
X108833Y220722D01*
X108835Y220735D01*
X108435Y221135D01*
X108419Y221137D01*
X108416Y221147D01*
X107816Y221347D01*
X107811Y221345D01*
X107811Y221346D01*
X107797Y221346D01*
X107794Y221349D01*
X106994Y221249D01*
X106989Y221244D01*
X106984Y221247D01*
X106384Y221047D01*
X106377Y221036D01*
X106369Y221038D01*
X105869Y220638D01*
X105868Y220634D01*
X105865Y220635D01*
X105365Y220135D01*
X105364Y220123D01*
X105356Y220122D01*
X105056Y219522D01*
X105058Y219511D01*
X105051Y219507D01*
X104951Y218807D01*
X104954Y218802D01*
X104951Y218800D01*
X104951Y218228D01*
X104478Y217944D01*
X103982Y217746D01*
X103969Y217725D01*
X103960Y217718D01*
X103953Y217716D01*
X103753Y217116D01*
X103757Y217105D01*
X103751Y217100D01*
X103751Y216300D01*
X103765Y216282D01*
X103762Y216269D01*
X104162Y215769D01*
X104192Y215762D01*
X104200Y215751D01*
X104858Y215751D01*
X104951Y215196D01*
X104951Y211800D01*
X104962Y211785D01*
X104958Y211775D01*
X105258Y211275D01*
X105286Y211263D01*
X105293Y211251D01*
X105993Y211151D01*
X105998Y211154D01*
X106000Y211151D01*
X106700Y211151D01*
X106721Y211167D01*
G37*
G36*
X114218Y211165D02*
X114218Y211165D01*
X114231Y211162D01*
X114731Y211562D01*
X114735Y211577D01*
X114740Y211581D01*
X114737Y211585D01*
X114738Y211592D01*
X114749Y211600D01*
X114749Y215651D01*
X116000Y215651D01*
X116016Y215663D01*
X116027Y215659D01*
X116627Y216059D01*
X116635Y216080D01*
X116647Y216084D01*
X116847Y216684D01*
X116842Y216700D01*
X116843Y216701D01*
X116845Y216703D01*
X116849Y216707D01*
X116749Y217407D01*
X116736Y217419D01*
X116739Y217430D01*
X116439Y217830D01*
X116417Y217836D01*
X116412Y217848D01*
X115612Y218048D01*
X115607Y218046D01*
X115596Y218046D01*
X115593Y218049D01*
X114931Y217954D01*
X114755Y218396D01*
X115030Y218855D01*
X115707Y218951D01*
X115717Y218961D01*
X115725Y218958D01*
X116225Y219258D01*
X116234Y219280D01*
X116247Y219284D01*
X116447Y219884D01*
X116442Y219899D01*
X116449Y219906D01*
X116349Y220706D01*
X116333Y220722D01*
X116335Y220735D01*
X115935Y221135D01*
X115919Y221137D01*
X115916Y221147D01*
X115316Y221347D01*
X115311Y221345D01*
X115311Y221346D01*
X115297Y221346D01*
X115294Y221349D01*
X114494Y221249D01*
X114489Y221244D01*
X114484Y221247D01*
X113884Y221047D01*
X113877Y221036D01*
X113869Y221038D01*
X113369Y220638D01*
X113367Y220631D01*
X113362Y220631D01*
X112962Y220131D01*
X112961Y220123D01*
X112956Y220122D01*
X112656Y219522D01*
X112657Y219515D01*
X112653Y219514D01*
X112453Y218814D01*
X112456Y218804D01*
X112451Y218800D01*
X112451Y218225D01*
X112077Y217944D01*
X111484Y217747D01*
X111469Y217725D01*
X111460Y217718D01*
X111453Y217716D01*
X111253Y217116D01*
X111258Y217101D01*
X111251Y217094D01*
X111351Y216294D01*
X111361Y216283D01*
X111358Y216275D01*
X111658Y215775D01*
X111692Y215761D01*
X111700Y215751D01*
X112358Y215751D01*
X112451Y215196D01*
X112451Y211800D01*
X112462Y211785D01*
X112458Y211775D01*
X112758Y211275D01*
X112786Y211263D01*
X112793Y211251D01*
X113493Y211151D01*
X113498Y211154D01*
X113500Y211151D01*
X114200Y211151D01*
X114218Y211165D01*
G37*
%LPC*%
G36*
X192523Y25876D02*
X192523Y25876D01*
X192149Y26250D01*
X192149Y28930D01*
X192120Y28968D01*
X192118Y28976D01*
X191618Y29176D01*
X191605Y29172D01*
X191600Y29179D01*
X185503Y29179D01*
X184826Y29276D01*
X184449Y29747D01*
X184449Y30522D01*
X184640Y31093D01*
X185109Y31281D01*
X191900Y31281D01*
X191943Y31313D01*
X191947Y31314D01*
X192147Y31914D01*
X192143Y31925D01*
X192149Y31930D01*
X192149Y33927D01*
X192244Y34593D01*
X192805Y34780D01*
X193477Y34684D01*
X193853Y34307D01*
X193951Y33427D01*
X193951Y26637D01*
X193760Y25969D01*
X193195Y25780D01*
X192523Y25876D01*
G37*
%LPD*%
G36*
X68675Y93044D02*
X68675Y93044D01*
X68678Y93041D01*
X69278Y93141D01*
X69282Y93146D01*
X69286Y93143D01*
X69886Y93343D01*
X69895Y93357D01*
X69905Y93355D01*
X70405Y93855D01*
X70406Y93864D01*
X70412Y93865D01*
X70712Y94365D01*
X70711Y94374D01*
X70717Y94376D01*
X70917Y95076D01*
X70912Y95090D01*
X70919Y95097D01*
X70819Y95797D01*
X70818Y95798D01*
X70819Y95798D01*
X70719Y96398D01*
X70703Y96413D01*
X70705Y96425D01*
X70205Y96925D01*
X70201Y96925D01*
X70201Y96928D01*
X69701Y97328D01*
X69687Y97329D01*
X69684Y97337D01*
X68984Y97537D01*
X68980Y97536D01*
X68978Y97539D01*
X68380Y97638D01*
X67604Y97832D01*
X67439Y98161D01*
X67975Y98340D01*
X68760Y98242D01*
X69456Y98043D01*
X69466Y98046D01*
X69470Y98041D01*
X69970Y98041D01*
X69998Y98062D01*
X70011Y98063D01*
X70411Y98663D01*
X70410Y98672D01*
X70417Y98674D01*
X70617Y99274D01*
X70603Y99314D01*
X70605Y99325D01*
X70105Y99825D01*
X70089Y99827D01*
X70086Y99837D01*
X69486Y100037D01*
X69479Y100035D01*
X69477Y100039D01*
X68077Y100239D01*
X68069Y100234D01*
X68064Y100239D01*
X67264Y100139D01*
X67260Y100135D01*
X67256Y100137D01*
X66556Y99937D01*
X66552Y99932D01*
X66548Y99934D01*
X65948Y99634D01*
X65941Y99620D01*
X65931Y99620D01*
X65631Y99220D01*
X65631Y99216D01*
X65628Y99215D01*
X65328Y98715D01*
X65330Y98697D01*
X65321Y98690D01*
X65321Y97990D01*
X65324Y97985D01*
X65321Y97982D01*
X65421Y97382D01*
X65428Y97376D01*
X65425Y97371D01*
X65725Y96671D01*
X65733Y96666D01*
X65732Y96659D01*
X66132Y96159D01*
X66146Y96156D01*
X66148Y96146D01*
X66748Y95846D01*
X66753Y95847D01*
X66754Y95843D01*
X67354Y95643D01*
X67356Y95644D01*
X67356Y95643D01*
X68055Y95443D01*
X68593Y95264D01*
X68441Y95036D01*
X67775Y94940D01*
X67190Y95135D01*
X66494Y95533D01*
X66477Y95530D01*
X66470Y95539D01*
X65870Y95539D01*
X65846Y95521D01*
X65832Y95522D01*
X65332Y94922D01*
X65332Y94910D01*
X65324Y94908D01*
X65124Y94408D01*
X65131Y94385D01*
X65130Y94385D01*
X65129Y94384D01*
X65129Y94383D01*
X65123Y94374D01*
X65323Y93774D01*
X65345Y93759D01*
X65348Y93746D01*
X66548Y93146D01*
X66559Y93148D01*
X66563Y93141D01*
X67263Y93041D01*
X67268Y93044D01*
X67270Y93041D01*
X68670Y93041D01*
X68675Y93044D01*
G37*
G36*
X176805Y211154D02*
X176805Y211154D01*
X176808Y211151D01*
X177408Y211251D01*
X177412Y211256D01*
X177416Y211253D01*
X178016Y211453D01*
X178025Y211467D01*
X178035Y211465D01*
X178535Y211965D01*
X178536Y211974D01*
X178542Y211975D01*
X178842Y212475D01*
X178841Y212489D01*
X178849Y212493D01*
X178949Y213193D01*
X178946Y213198D01*
X178949Y213200D01*
X178949Y213900D01*
X178942Y213909D01*
X178947Y213916D01*
X178747Y214516D01*
X178736Y214523D01*
X178738Y214531D01*
X178338Y215031D01*
X178331Y215033D01*
X178331Y215038D01*
X177831Y215438D01*
X177817Y215439D01*
X177814Y215447D01*
X177114Y215647D01*
X177110Y215646D01*
X177108Y215649D01*
X176510Y215748D01*
X175734Y215942D01*
X175569Y216271D01*
X176105Y216450D01*
X176890Y216352D01*
X177586Y216153D01*
X177596Y216156D01*
X177600Y216151D01*
X178100Y216151D01*
X178128Y216172D01*
X178141Y216173D01*
X178541Y216773D01*
X178540Y216782D01*
X178547Y216784D01*
X178747Y217384D01*
X178733Y217424D01*
X178735Y217435D01*
X178235Y217935D01*
X178219Y217937D01*
X178216Y217947D01*
X177616Y218147D01*
X177609Y218145D01*
X177607Y218149D01*
X176207Y218349D01*
X176199Y218344D01*
X176194Y218349D01*
X175394Y218249D01*
X175390Y218245D01*
X175386Y218247D01*
X174686Y218047D01*
X174682Y218042D01*
X174678Y218044D01*
X174078Y217744D01*
X174073Y217734D01*
X174065Y217735D01*
X173665Y217335D01*
X173664Y217323D01*
X173660Y217320D01*
X173654Y217318D01*
X173454Y216818D01*
X173458Y216805D01*
X173451Y216800D01*
X173451Y216100D01*
X173454Y216095D01*
X173451Y216092D01*
X173551Y215492D01*
X173558Y215486D01*
X173555Y215481D01*
X173855Y214781D01*
X173863Y214776D01*
X173862Y214769D01*
X174262Y214269D01*
X174276Y214266D01*
X174278Y214256D01*
X174878Y213956D01*
X174883Y213957D01*
X174884Y213953D01*
X175484Y213753D01*
X175486Y213754D01*
X175486Y213753D01*
X176185Y213553D01*
X176723Y213374D01*
X176571Y213146D01*
X175903Y213050D01*
X175221Y213245D01*
X174627Y213641D01*
X174607Y213640D01*
X174600Y213649D01*
X174000Y213649D01*
X173976Y213631D01*
X173962Y213632D01*
X173462Y213032D01*
X173462Y213020D01*
X173454Y213018D01*
X173254Y212518D01*
X173261Y212495D01*
X173260Y212495D01*
X173259Y212494D01*
X173259Y212493D01*
X173253Y212484D01*
X173453Y211884D01*
X173475Y211869D01*
X173478Y211856D01*
X174678Y211256D01*
X174689Y211258D01*
X174693Y211251D01*
X175393Y211151D01*
X175398Y211154D01*
X175400Y211151D01*
X176800Y211151D01*
X176805Y211154D01*
G37*
G36*
X140221Y211167D02*
X140221Y211167D01*
X140235Y211165D01*
X140635Y211565D01*
X140636Y211577D01*
X140641Y211581D01*
X140638Y211586D01*
X140638Y211587D01*
X140649Y211593D01*
X140749Y212293D01*
X140744Y212302D01*
X140749Y212307D01*
X140649Y213007D01*
X140627Y213029D01*
X140625Y213042D01*
X140125Y213342D01*
X140111Y213341D01*
X140107Y213349D01*
X139430Y213445D01*
X139149Y213914D01*
X139149Y215192D01*
X139333Y215745D01*
X139892Y215651D01*
X139902Y215657D01*
X139907Y215651D01*
X140607Y215751D01*
X140619Y215764D01*
X140630Y215761D01*
X141030Y216061D01*
X141037Y216088D01*
X141049Y216095D01*
X141149Y216995D01*
X141142Y217006D01*
X141147Y217014D01*
X140947Y217714D01*
X140930Y217727D01*
X140930Y217739D01*
X140530Y218039D01*
X140510Y218039D01*
X140505Y218046D01*
X140503Y218046D01*
X140500Y218049D01*
X139800Y218049D01*
X139796Y218046D01*
X139793Y218049D01*
X139149Y217957D01*
X139149Y219300D01*
X139146Y219305D01*
X139149Y219308D01*
X139049Y219908D01*
X139033Y219923D01*
X139035Y219935D01*
X138635Y220335D01*
X138612Y220338D01*
X138606Y220349D01*
X137806Y220449D01*
X137794Y220442D01*
X137786Y220447D01*
X137086Y220247D01*
X137067Y220222D01*
X137054Y220218D01*
X136854Y219718D01*
X136858Y219705D01*
X136851Y219700D01*
X136851Y218320D01*
X136573Y218043D01*
X135984Y217847D01*
X135971Y217827D01*
X135958Y217825D01*
X135658Y217325D01*
X135658Y217321D01*
X135657Y217320D01*
X135659Y217318D01*
X135660Y217307D01*
X135651Y217300D01*
X135651Y216500D01*
X135658Y216491D01*
X135653Y216484D01*
X135853Y215884D01*
X135878Y215867D01*
X135882Y215854D01*
X136851Y215467D01*
X136851Y213400D01*
X136854Y213396D01*
X136851Y213393D01*
X136951Y212693D01*
X136959Y212685D01*
X136956Y212678D01*
X137256Y212078D01*
X137262Y212075D01*
X137261Y212070D01*
X137561Y211670D01*
X137574Y211667D01*
X137575Y211658D01*
X138075Y211358D01*
X138084Y211359D01*
X138086Y211353D01*
X138786Y211153D01*
X138796Y211156D01*
X138800Y211151D01*
X140200Y211151D01*
X140221Y211167D01*
G37*
G36*
X131704Y211154D02*
X131704Y211154D01*
X131707Y211151D01*
X132407Y211251D01*
X132415Y211259D01*
X132422Y211256D01*
X133022Y211556D01*
X133026Y211564D01*
X133032Y211562D01*
X133632Y212062D01*
X133635Y212079D01*
X133646Y212082D01*
X133846Y212582D01*
X133838Y212610D01*
X133844Y212622D01*
X133544Y213222D01*
X133537Y213226D01*
X133538Y213232D01*
X133038Y213832D01*
X133021Y213835D01*
X133018Y213846D01*
X132518Y214046D01*
X132490Y214038D01*
X132478Y214044D01*
X131882Y213746D01*
X131197Y213550D01*
X130621Y213646D01*
X130053Y214120D01*
X130148Y214789D01*
X130342Y215371D01*
X130817Y215751D01*
X131490Y215751D01*
X132181Y215455D01*
X132182Y215455D01*
X132182Y215454D01*
X132682Y215254D01*
X132713Y215263D01*
X132725Y215258D01*
X133225Y215558D01*
X133231Y215571D01*
X133240Y215571D01*
X133740Y216271D01*
X133740Y216287D01*
X133749Y216292D01*
X133849Y216892D01*
X133835Y216918D01*
X133838Y216931D01*
X133438Y217431D01*
X133428Y217433D01*
X133427Y217441D01*
X132827Y217841D01*
X132816Y217840D01*
X132814Y217847D01*
X132114Y218047D01*
X132109Y218046D01*
X132107Y218049D01*
X131407Y218149D01*
X131402Y218146D01*
X131400Y218149D01*
X130800Y218149D01*
X130793Y218144D01*
X130791Y218144D01*
X130786Y218147D01*
X130086Y217947D01*
X130085Y217946D01*
X130084Y217947D01*
X129484Y217747D01*
X129479Y217739D01*
X129473Y217741D01*
X128873Y217341D01*
X128869Y217331D01*
X128862Y217331D01*
X128462Y216831D01*
X128461Y216827D01*
X128459Y216827D01*
X128059Y216227D01*
X128060Y216218D01*
X128053Y216216D01*
X127853Y215616D01*
X127855Y215609D01*
X127851Y215607D01*
X127751Y214907D01*
X127754Y214902D01*
X127751Y214900D01*
X127751Y214200D01*
X127754Y214196D01*
X127751Y214193D01*
X127851Y213493D01*
X127859Y213485D01*
X127856Y213478D01*
X128156Y212878D01*
X128163Y212875D01*
X128162Y212869D01*
X128562Y212369D01*
X128566Y212368D01*
X128565Y212365D01*
X129065Y211865D01*
X129072Y211864D01*
X129073Y211859D01*
X129673Y211459D01*
X129684Y211460D01*
X129686Y211453D01*
X130386Y211253D01*
X130390Y211254D01*
X130392Y211251D01*
X130992Y211151D01*
X130997Y211154D01*
X131000Y211151D01*
X131700Y211151D01*
X131704Y211154D01*
G37*
%LPC*%
G36*
X161108Y34159D02*
X161108Y34159D01*
X160544Y34347D01*
X160449Y35013D01*
X160449Y39807D01*
X160546Y40483D01*
X160916Y40761D01*
X161600Y40761D01*
X161647Y40797D01*
X161648Y40798D01*
X161664Y40861D01*
X169092Y40861D01*
X169661Y40671D01*
X169851Y40102D01*
X169851Y39224D01*
X169570Y38755D01*
X168995Y38659D01*
X162899Y38559D01*
X162878Y38543D01*
X162865Y38545D01*
X162265Y37945D01*
X162262Y37918D01*
X162251Y37910D01*
X162251Y35213D01*
X162154Y34533D01*
X161780Y34159D01*
X161108Y34159D01*
G37*
%LPD*%
%LPC*%
G36*
X135614Y25649D02*
X135614Y25649D01*
X135145Y25930D01*
X135049Y26603D01*
X135049Y31397D01*
X135145Y32065D01*
X135613Y32252D01*
X136303Y32351D01*
X143786Y32351D01*
X144259Y32067D01*
X144450Y31495D01*
X144352Y30716D01*
X144070Y30245D01*
X143496Y30149D01*
X136900Y30149D01*
X136853Y30113D01*
X136858Y30106D01*
X136851Y30100D01*
X136851Y26703D01*
X136754Y26026D01*
X136283Y25649D01*
X135614Y25649D01*
G37*
%LPD*%
G36*
X79407Y211156D02*
X79407Y211156D01*
X79412Y211152D01*
X79812Y211252D01*
X79834Y211279D01*
X79835Y211281D01*
X79847Y211284D01*
X80047Y211884D01*
X80043Y211895D01*
X80049Y211900D01*
X80049Y212800D01*
X80040Y212813D01*
X80044Y212822D01*
X79844Y213222D01*
X79818Y213235D01*
X79814Y213247D01*
X79130Y213443D01*
X78849Y213816D01*
X78849Y220600D01*
X78838Y220615D01*
X78842Y220625D01*
X78542Y221125D01*
X78518Y221135D01*
X78514Y221147D01*
X77814Y221347D01*
X77809Y221346D01*
X77798Y221346D01*
X77795Y221349D01*
X76895Y221249D01*
X76874Y221230D01*
X76861Y221230D01*
X76561Y220830D01*
X76561Y220821D01*
X76555Y220817D01*
X76560Y220812D01*
X76551Y220807D01*
X76451Y220107D01*
X76454Y220102D01*
X76451Y220100D01*
X76451Y214000D01*
X76454Y213996D01*
X76451Y213994D01*
X76551Y213194D01*
X76552Y213193D01*
X76551Y213193D01*
X76651Y212493D01*
X76653Y212492D01*
X76652Y212490D01*
X76752Y211990D01*
X76767Y211977D01*
X76765Y211965D01*
X77165Y211565D01*
X77177Y211564D01*
X77178Y211556D01*
X77778Y211256D01*
X77790Y211258D01*
X77795Y211251D01*
X78695Y211151D01*
X78698Y211153D01*
X78700Y211151D01*
X79400Y211151D01*
X79407Y211156D01*
G37*
G36*
X85007Y211156D02*
X85007Y211156D01*
X85012Y211152D01*
X85412Y211252D01*
X85434Y211279D01*
X85435Y211281D01*
X85447Y211284D01*
X85647Y211884D01*
X85643Y211895D01*
X85649Y211900D01*
X85649Y212800D01*
X85636Y212818D01*
X85639Y212830D01*
X85339Y213230D01*
X85319Y213235D01*
X85316Y213247D01*
X84727Y213443D01*
X84349Y213820D01*
X84349Y220600D01*
X84338Y220615D01*
X84342Y220625D01*
X84042Y221125D01*
X84018Y221135D01*
X84014Y221147D01*
X83314Y221347D01*
X83309Y221346D01*
X83297Y221346D01*
X83294Y221349D01*
X82494Y221249D01*
X82478Y221233D01*
X82465Y221235D01*
X82065Y220835D01*
X82064Y220822D01*
X82056Y220817D01*
X82062Y220810D01*
X82062Y220808D01*
X82051Y220800D01*
X82051Y213200D01*
X82054Y213196D01*
X82051Y213193D01*
X82151Y212493D01*
X82157Y212487D01*
X82154Y212482D01*
X82354Y211982D01*
X82362Y211977D01*
X82361Y211970D01*
X82661Y211570D01*
X82676Y211566D01*
X82678Y211556D01*
X83278Y211256D01*
X83290Y211258D01*
X83295Y211251D01*
X84195Y211151D01*
X84198Y211153D01*
X84200Y211151D01*
X85000Y211151D01*
X85007Y211156D01*
G37*
G36*
X93777Y93046D02*
X93777Y93046D01*
X93782Y93042D01*
X94182Y93142D01*
X94204Y93169D01*
X94205Y93171D01*
X94217Y93174D01*
X94417Y93774D01*
X94413Y93785D01*
X94419Y93790D01*
X94419Y94690D01*
X94406Y94708D01*
X94409Y94720D01*
X94109Y95120D01*
X94089Y95125D01*
X94086Y95137D01*
X93500Y95332D01*
X93217Y95710D01*
X93119Y96393D01*
X93119Y102490D01*
X93108Y102505D01*
X93112Y102515D01*
X92812Y103015D01*
X92788Y103025D01*
X92784Y103037D01*
X92084Y103237D01*
X92079Y103236D01*
X92067Y103236D01*
X92064Y103239D01*
X91264Y103139D01*
X91244Y103120D01*
X91231Y103120D01*
X90931Y102720D01*
X90931Y102711D01*
X90925Y102707D01*
X90930Y102702D01*
X90921Y102697D01*
X90821Y101997D01*
X90824Y101992D01*
X90821Y101990D01*
X90821Y95090D01*
X90824Y95086D01*
X90821Y95083D01*
X90921Y94383D01*
X90927Y94377D01*
X90924Y94372D01*
X91124Y93872D01*
X91132Y93867D01*
X91131Y93860D01*
X91431Y93460D01*
X91448Y93456D01*
X91451Y93445D01*
X92151Y93145D01*
X92161Y93147D01*
X92165Y93141D01*
X93065Y93041D01*
X93068Y93043D01*
X93070Y93041D01*
X93770Y93041D01*
X93777Y93046D01*
G37*
%LPC*%
G36*
X102349Y231854D02*
X102349Y231854D01*
X101818Y232101D01*
X101392Y232505D01*
X101087Y233024D01*
X100893Y233611D01*
X100789Y234248D01*
X100788Y234251D01*
X100787Y234259D01*
X100673Y234796D01*
X100778Y235288D01*
X100778Y235294D01*
X100781Y235306D01*
X100871Y235945D01*
X101043Y236541D01*
X101320Y237078D01*
X101717Y237511D01*
X102225Y237793D01*
X102805Y237909D01*
X103400Y237880D01*
X103955Y237692D01*
X104421Y237342D01*
X104773Y236860D01*
X105012Y236297D01*
X105156Y235689D01*
X105220Y235045D01*
X105244Y234987D01*
X105264Y234927D01*
X105271Y234920D01*
X105272Y234916D01*
X105280Y234911D01*
X105294Y234895D01*
X105282Y234879D01*
X105240Y234823D01*
X105239Y234822D01*
X105224Y234750D01*
X105185Y234101D01*
X105070Y233483D01*
X104860Y232905D01*
X104534Y232404D01*
X104086Y232032D01*
X103537Y231822D01*
X102940Y231768D01*
X102349Y231854D01*
G37*
%LPD*%
G36*
X192106Y211251D02*
X192106Y211251D01*
X192119Y211264D01*
X192130Y211261D01*
X192530Y211561D01*
X192534Y211577D01*
X192539Y211581D01*
X192536Y211585D01*
X192537Y211587D01*
X192549Y211593D01*
X192649Y212293D01*
X192646Y212298D01*
X192649Y212300D01*
X192649Y214992D01*
X192840Y215565D01*
X193408Y215849D01*
X194089Y215752D01*
X194684Y215553D01*
X194718Y215565D01*
X194731Y215562D01*
X195231Y215962D01*
X195235Y215978D01*
X195245Y215981D01*
X195545Y216681D01*
X195542Y216694D01*
X195549Y216700D01*
X195549Y217300D01*
X195540Y217313D01*
X195544Y217322D01*
X195244Y217922D01*
X195214Y217937D01*
X195208Y217949D01*
X194608Y218049D01*
X194607Y218048D01*
X194607Y218049D01*
X193907Y218149D01*
X193899Y218144D01*
X193888Y218144D01*
X193886Y218142D01*
X193881Y218145D01*
X193181Y217845D01*
X193176Y217837D01*
X193169Y217838D01*
X192711Y217472D01*
X192541Y217727D01*
X192526Y217732D01*
X192525Y217742D01*
X192025Y218042D01*
X192010Y218041D01*
X192006Y218046D01*
X192003Y218046D01*
X192000Y218049D01*
X191100Y218049D01*
X191095Y218046D01*
X191090Y218046D01*
X191088Y218044D01*
X191084Y218047D01*
X190484Y217847D01*
X190471Y217827D01*
X190458Y217817D01*
X190453Y217816D01*
X190253Y217216D01*
X190257Y217205D01*
X190251Y217200D01*
X190251Y211800D01*
X190262Y211785D01*
X190258Y211775D01*
X190558Y211275D01*
X190586Y211263D01*
X190593Y211251D01*
X191293Y211151D01*
X191301Y211156D01*
X191306Y211151D01*
X192106Y211251D01*
G37*
%LPC*%
G36*
X161544Y73033D02*
X161544Y73033D01*
X161507Y73050D01*
X161500Y73059D01*
X160920Y73059D01*
X160547Y73433D01*
X160450Y74210D01*
X160546Y74883D01*
X160920Y75163D01*
X161603Y75261D01*
X169091Y75261D01*
X169566Y75070D01*
X169851Y74596D01*
X169851Y73722D01*
X169567Y73154D01*
X168996Y73059D01*
X161600Y73059D01*
X161595Y73056D01*
X161590Y73058D01*
X161585Y73048D01*
X161553Y73023D01*
X161560Y73013D01*
X161559Y73012D01*
X161564Y73004D01*
X161562Y72998D01*
X161544Y73033D01*
G37*
%LPD*%
%LPC*%
G36*
X185404Y46979D02*
X185404Y46979D01*
X184828Y47075D01*
X184547Y47449D01*
X184450Y48325D01*
X184640Y48893D01*
X185113Y49082D01*
X185803Y49181D01*
X193188Y49181D01*
X193756Y48897D01*
X193851Y48326D01*
X193851Y47450D01*
X193476Y47076D01*
X192896Y46979D01*
X185404Y46979D01*
G37*
%LPD*%
%LPC*%
G36*
X39978Y59803D02*
X39978Y59803D01*
X39977Y59803D01*
X39976Y59803D01*
X39453Y59862D01*
X38419Y60040D01*
X37960Y60258D01*
X37079Y60815D01*
X36506Y61685D01*
X36279Y62139D01*
X36096Y63170D01*
X36061Y63680D01*
X36242Y64713D01*
X36384Y65201D01*
X37036Y66157D01*
X37036Y66159D01*
X37314Y66426D01*
X38193Y66989D01*
X38688Y67114D01*
X39724Y67295D01*
X40259Y67296D01*
X40254Y66896D01*
X40254Y66895D01*
X40254Y65376D01*
X39923Y65406D01*
X39916Y65402D01*
X39904Y65405D01*
X39386Y65293D01*
X39379Y65286D01*
X39364Y65283D01*
X38933Y64985D01*
X38930Y64977D01*
X38917Y64969D01*
X38623Y64540D01*
X38622Y64532D01*
X38615Y64524D01*
X38453Y64027D01*
X38454Y64022D01*
X38450Y64015D01*
X38388Y63491D01*
X38391Y63485D01*
X38389Y63475D01*
X38465Y62951D01*
X38470Y62946D01*
X38469Y62936D01*
X38664Y62451D01*
X38671Y62447D01*
X38674Y62435D01*
X39001Y62033D01*
X39010Y62030D01*
X39019Y62018D01*
X39471Y61765D01*
X39479Y61765D01*
X39491Y61758D01*
X40011Y61667D01*
X40011Y61668D01*
X40012Y61667D01*
X40254Y61630D01*
X40254Y59762D01*
X39978Y59803D01*
G37*
%LPD*%
%LPC*%
G36*
X33295Y59883D02*
X33295Y59883D01*
X33144Y59893D01*
X33154Y67091D01*
X33155Y67092D01*
X33151Y67233D01*
X35473Y67233D01*
X35472Y66965D01*
X35465Y66949D01*
X35465Y59883D01*
X35411Y59883D01*
X33295Y59883D01*
G37*
%LPD*%
%LPC*%
G36*
X30638Y59883D02*
X30638Y59883D01*
X30201Y59911D01*
X30201Y67214D01*
X30262Y67213D01*
X30264Y67214D01*
X30267Y67213D01*
X30643Y67233D01*
X32517Y67233D01*
X32512Y67186D01*
X32512Y67185D01*
X32512Y67182D01*
X32522Y59889D01*
X32224Y59883D01*
X30638Y59883D01*
G37*
%LPD*%
G36*
X165509Y79568D02*
X165509Y79568D01*
X165516Y79563D01*
X166116Y79763D01*
X166119Y79768D01*
X166122Y79766D01*
X166722Y80066D01*
X166727Y80076D01*
X166735Y80075D01*
X167235Y80575D01*
X167236Y80587D01*
X167244Y80588D01*
X167544Y81188D01*
X167542Y81199D01*
X167549Y81203D01*
X167649Y81903D01*
X167646Y81908D01*
X167649Y81910D01*
X167649Y83210D01*
X167613Y83257D01*
X167610Y83255D01*
X167608Y83259D01*
X167008Y83359D01*
X167003Y83356D01*
X167000Y83359D01*
X162900Y83359D01*
X162862Y83330D01*
X162854Y83328D01*
X162654Y82828D01*
X162655Y82826D01*
X162653Y82825D01*
X162657Y82820D01*
X162658Y82815D01*
X162651Y82810D01*
X162651Y81410D01*
X162660Y81397D01*
X162656Y81388D01*
X163056Y80588D01*
X163069Y80581D01*
X163069Y80572D01*
X164069Y79772D01*
X164083Y79771D01*
X164086Y79763D01*
X164786Y79563D01*
X164796Y79566D01*
X164800Y79561D01*
X165500Y79561D01*
X165509Y79568D01*
G37*
G36*
X64207Y27621D02*
X64207Y27621D01*
X64215Y27629D01*
X64222Y27626D01*
X64822Y27926D01*
X64825Y27933D01*
X64831Y27932D01*
X65331Y28332D01*
X65333Y28339D01*
X65338Y28339D01*
X65738Y28839D01*
X65739Y28847D01*
X65744Y28848D01*
X66044Y29448D01*
X66041Y29464D01*
X66049Y29470D01*
X66049Y30870D01*
X66036Y30888D01*
X66039Y30900D01*
X65739Y31300D01*
X65708Y31309D01*
X65700Y31319D01*
X61700Y31319D01*
X61695Y31316D01*
X61692Y31319D01*
X61092Y31219D01*
X61058Y31183D01*
X61053Y31179D01*
X61053Y31178D01*
X61051Y31175D01*
X61054Y31173D01*
X61051Y31170D01*
X61051Y29170D01*
X61060Y29157D01*
X61056Y29148D01*
X61156Y28948D01*
X61166Y28943D01*
X61165Y28935D01*
X62165Y27935D01*
X62177Y27934D01*
X62178Y27926D01*
X62778Y27626D01*
X62789Y27628D01*
X62793Y27621D01*
X63493Y27521D01*
X63502Y27526D01*
X63507Y27521D01*
X64207Y27621D01*
G37*
G36*
X114604Y39324D02*
X114604Y39324D01*
X114607Y39321D01*
X115307Y39421D01*
X115318Y39432D01*
X115327Y39429D01*
X115927Y39829D01*
X115931Y39839D01*
X115938Y39839D01*
X116738Y40839D01*
X116739Y40858D01*
X116749Y40863D01*
X116849Y41563D01*
X116846Y41568D01*
X116849Y41570D01*
X116849Y42970D01*
X116813Y43017D01*
X116806Y43012D01*
X116800Y43019D01*
X112100Y43019D01*
X112067Y42994D01*
X112056Y42992D01*
X111856Y42592D01*
X111857Y42587D01*
X111853Y42585D01*
X111859Y42577D01*
X111859Y42576D01*
X111851Y42570D01*
X111851Y41270D01*
X111860Y41258D01*
X111855Y41250D01*
X112255Y40350D01*
X112266Y40344D01*
X112265Y40335D01*
X112665Y39935D01*
X112672Y39934D01*
X112673Y39929D01*
X113273Y39529D01*
X113282Y39530D01*
X113284Y39523D01*
X113884Y39323D01*
X113895Y39327D01*
X113900Y39321D01*
X114600Y39321D01*
X114604Y39324D01*
G37*
G36*
X62378Y93047D02*
X62378Y93047D01*
X62384Y93043D01*
X63084Y93243D01*
X63103Y93268D01*
X63116Y93272D01*
X63316Y93772D01*
X63312Y93785D01*
X63319Y93790D01*
X63319Y99290D01*
X63308Y99305D01*
X63312Y99315D01*
X63012Y99815D01*
X62984Y99827D01*
X62978Y99839D01*
X62378Y99939D01*
X62373Y99936D01*
X62368Y99936D01*
X62365Y99939D01*
X61465Y99839D01*
X61444Y99820D01*
X61431Y99820D01*
X61131Y99420D01*
X61131Y99411D01*
X61126Y99407D01*
X61130Y99402D01*
X61121Y99397D01*
X61021Y98697D01*
X61024Y98692D01*
X61021Y98690D01*
X61021Y94190D01*
X61024Y94186D01*
X61021Y94183D01*
X61121Y93483D01*
X61137Y93468D01*
X61135Y93455D01*
X61535Y93055D01*
X61562Y93052D01*
X61570Y93041D01*
X62370Y93041D01*
X62378Y93047D01*
G37*
%LPC*%
G36*
X53303Y95439D02*
X53303Y95439D01*
X53119Y95899D01*
X53119Y99965D01*
X53486Y100241D01*
X54758Y100241D01*
X55348Y99946D01*
X55936Y99652D01*
X56327Y99065D01*
X56622Y98475D01*
X56720Y97791D01*
X56623Y97205D01*
X56327Y96615D01*
X55933Y96024D01*
X55439Y95628D01*
X55438Y95624D01*
X55435Y95625D01*
X55250Y95439D01*
X53303Y95439D01*
G37*
%LPD*%
G36*
X163815Y45172D02*
X163815Y45172D01*
X163825Y45168D01*
X164325Y45468D01*
X164333Y45487D01*
X164340Y45492D01*
X164337Y45496D01*
X164349Y45503D01*
X164448Y46200D01*
X164641Y46873D01*
X165109Y47061D01*
X165872Y47061D01*
X166153Y46593D01*
X166251Y45903D01*
X166264Y45891D01*
X166261Y45880D01*
X166561Y45480D01*
X166592Y45472D01*
X166600Y45461D01*
X167300Y45461D01*
X167333Y45486D01*
X167344Y45488D01*
X167644Y46088D01*
X167641Y46104D01*
X167649Y46110D01*
X167649Y48110D01*
X167613Y48157D01*
X167606Y48152D01*
X167600Y48159D01*
X162800Y48159D01*
X162753Y48123D01*
X162754Y48121D01*
X162752Y48120D01*
X162652Y47620D01*
X162655Y47613D01*
X162651Y47610D01*
X162651Y46210D01*
X162654Y46205D01*
X162651Y46202D01*
X162751Y45602D01*
X162767Y45587D01*
X162765Y45575D01*
X163165Y45175D01*
X163192Y45172D01*
X163200Y45161D01*
X163800Y45161D01*
X163815Y45172D01*
G37*
G36*
X92133Y214876D02*
X92133Y214876D01*
X92144Y214878D01*
X92444Y215478D01*
X92441Y215494D01*
X92449Y215500D01*
X92449Y216200D01*
X92440Y216213D01*
X92444Y216222D01*
X92144Y216822D01*
X92113Y216837D01*
X92107Y216849D01*
X91407Y216949D01*
X91402Y216946D01*
X91400Y216949D01*
X88000Y216949D01*
X87985Y216938D01*
X87975Y216942D01*
X87475Y216642D01*
X87463Y216614D01*
X87451Y216607D01*
X87351Y215907D01*
X87356Y215899D01*
X87355Y215898D01*
X87355Y215897D01*
X87351Y215893D01*
X87451Y215193D01*
X87473Y215171D01*
X87475Y215158D01*
X87975Y214858D01*
X87993Y214860D01*
X88000Y214851D01*
X92100Y214851D01*
X92133Y214876D01*
G37*
G36*
X12373Y61629D02*
X12373Y61629D01*
X12385Y61626D01*
X12897Y61733D01*
X12905Y61741D01*
X12922Y61745D01*
X13340Y62060D01*
X13343Y62068D01*
X13354Y62075D01*
X13643Y62503D01*
X13643Y62510D01*
X13650Y62518D01*
X13817Y63005D01*
X13815Y63011D01*
X13819Y63017D01*
X13893Y63534D01*
X13890Y63541D01*
X13893Y63553D01*
X13814Y64070D01*
X13810Y64075D01*
X13811Y64082D01*
X13633Y64566D01*
X13627Y64571D01*
X13625Y64581D01*
X13325Y64999D01*
X13317Y65002D01*
X13310Y65014D01*
X12885Y65313D01*
X12874Y65314D01*
X12861Y65323D01*
X12348Y65429D01*
X12340Y65426D01*
X12328Y65430D01*
X11815Y65367D01*
X11809Y65362D01*
X11797Y65362D01*
X11332Y65151D01*
X11327Y65143D01*
X11314Y65139D01*
X10942Y64784D01*
X10941Y64776D01*
X10931Y64769D01*
X10676Y64312D01*
X10676Y64303D01*
X10669Y64291D01*
X10589Y63773D01*
X10591Y63769D01*
X10588Y63763D01*
X10594Y63246D01*
X10596Y63242D01*
X10595Y63235D01*
X10687Y62722D01*
X10693Y62716D01*
X10694Y62702D01*
X10949Y62245D01*
X10957Y62241D01*
X10962Y62229D01*
X11345Y61884D01*
X11354Y61883D01*
X11363Y61873D01*
X11835Y61676D01*
X11843Y61678D01*
X11854Y61672D01*
X12366Y61625D01*
X12373Y61629D01*
G37*
%LPC*%
G36*
X113413Y231540D02*
X113413Y231540D01*
X112853Y231667D01*
X112435Y231976D01*
X112261Y232461D01*
X112322Y233039D01*
X112667Y233492D01*
X113180Y233746D01*
X113785Y233890D01*
X115084Y234089D01*
X115091Y234092D01*
X115112Y234095D01*
X115715Y234260D01*
X115809Y234259D01*
X115809Y233849D01*
X115780Y233193D01*
X115786Y233172D01*
X115782Y233151D01*
X115802Y233106D01*
X115814Y233058D01*
X115830Y233043D01*
X115838Y233023D01*
X115768Y232940D01*
X115768Y232939D01*
X115767Y232938D01*
X115729Y232875D01*
X115495Y232312D01*
X115115Y231898D01*
X114603Y231643D01*
X114018Y231535D01*
X113413Y231540D01*
G37*
%LPD*%
%LPC*%
G36*
X35549Y203549D02*
X35549Y203549D01*
X35549Y205475D01*
X35916Y205751D01*
X37288Y205751D01*
X37866Y205462D01*
X38251Y204885D01*
X38251Y204217D01*
X37871Y203743D01*
X37193Y203549D01*
X35549Y203549D01*
G37*
%LPD*%
%LPC*%
G36*
X11549Y203449D02*
X11549Y203449D01*
X11549Y205375D01*
X11916Y205651D01*
X13192Y205651D01*
X13768Y205459D01*
X14151Y204885D01*
X14151Y204214D01*
X13863Y203734D01*
X13484Y203449D01*
X11549Y203449D01*
G37*
%LPD*%
G36*
X62273Y100747D02*
X62273Y100747D01*
X62278Y100741D01*
X62878Y100841D01*
X62885Y100849D01*
X62892Y100846D01*
X63092Y100946D01*
X63102Y100967D01*
X63109Y100972D01*
X63117Y100974D01*
X63317Y101574D01*
X63313Y101585D01*
X63319Y101590D01*
X63319Y102290D01*
X63312Y102299D01*
X63317Y102306D01*
X63117Y102906D01*
X63090Y102924D01*
X63086Y102937D01*
X62486Y103137D01*
X62471Y103132D01*
X62465Y103139D01*
X61565Y103039D01*
X61551Y103026D01*
X61540Y103029D01*
X61140Y102729D01*
X61133Y102704D01*
X61121Y102698D01*
X61021Y102098D01*
X61024Y102093D01*
X61021Y102090D01*
X61021Y101390D01*
X61037Y101369D01*
X61035Y101355D01*
X61535Y100855D01*
X61557Y100852D01*
X61563Y100841D01*
X62263Y100741D01*
X62273Y100747D01*
G37*
%LPC*%
G36*
X184117Y213549D02*
X184117Y213549D01*
X183639Y213932D01*
X183351Y214508D01*
X183447Y215183D01*
X183735Y215662D01*
X184312Y215951D01*
X184983Y215951D01*
X185461Y215568D01*
X185749Y214991D01*
X185653Y214220D01*
X185271Y213742D01*
X184692Y213549D01*
X184117Y213549D01*
G37*
%LPD*%
%LPC*%
G36*
X76082Y95439D02*
X76082Y95439D01*
X75496Y95732D01*
X75123Y96012D01*
X75218Y96675D01*
X75508Y97255D01*
X75984Y97541D01*
X76653Y97541D01*
X77127Y97161D01*
X77320Y96487D01*
X77224Y95914D01*
X76750Y95439D01*
X76082Y95439D01*
G37*
%LPD*%
%LPC*%
G36*
X70612Y213549D02*
X70612Y213549D01*
X70026Y213842D01*
X69653Y214122D01*
X69748Y214785D01*
X70038Y215365D01*
X70514Y215651D01*
X71183Y215651D01*
X71657Y215271D01*
X71850Y214597D01*
X71754Y214024D01*
X71280Y213549D01*
X70612Y213549D01*
G37*
%LPD*%
%LPC*%
G36*
X84905Y95408D02*
X84905Y95408D01*
X84908Y95421D01*
X84514Y95914D01*
X84323Y96488D01*
X84609Y97156D01*
X85084Y97441D01*
X85756Y97441D01*
X86231Y97156D01*
X86517Y96488D01*
X86328Y95919D01*
X85850Y95537D01*
X85167Y95439D01*
X84970Y95439D01*
X84926Y95406D01*
X84923Y95405D01*
X84916Y95382D01*
X84905Y95408D01*
G37*
%LPD*%
G36*
X164507Y56674D02*
X164507Y56674D01*
X164522Y56666D01*
X165722Y57266D01*
X165732Y57286D01*
X165744Y57288D01*
X165944Y57688D01*
X165933Y57746D01*
X165923Y57745D01*
X165921Y57755D01*
X164621Y58355D01*
X164563Y58342D01*
X164564Y58334D01*
X164556Y58332D01*
X164356Y57932D01*
X164359Y57916D01*
X164351Y57910D01*
X164351Y57310D01*
X164354Y57305D01*
X164351Y57302D01*
X164451Y56702D01*
X164452Y56701D01*
X164454Y56700D01*
X164495Y56661D01*
X164507Y56674D01*
G37*
G36*
X115122Y30426D02*
X115122Y30426D01*
X115148Y30479D01*
X115140Y30484D01*
X115144Y30492D01*
X114944Y30892D01*
X114921Y30903D01*
X114918Y30916D01*
X113618Y31416D01*
X113615Y31415D01*
X113613Y31417D01*
X113608Y31413D01*
X113561Y31399D01*
X113566Y31381D01*
X113551Y31370D01*
X113551Y30070D01*
X113572Y30042D01*
X113573Y30029D01*
X113873Y29829D01*
X113911Y29831D01*
X113922Y29826D01*
X115122Y30426D01*
G37*
%LPC*%
G36*
X114130Y196199D02*
X114130Y196199D01*
X113955Y196550D01*
X114544Y197728D01*
X114543Y197733D01*
X114547Y197734D01*
X114607Y197916D01*
X115155Y196729D01*
X115156Y196729D01*
X115156Y196728D01*
X115420Y196199D01*
X114130Y196199D01*
G37*
%LPD*%
%LPC*%
G36*
X98996Y97139D02*
X98996Y97139D01*
X98833Y97384D01*
X99297Y97847D01*
X99875Y98040D01*
X100533Y97946D01*
X100711Y97412D01*
X100256Y97139D01*
X98996Y97139D01*
G37*
%LPD*%
%LPC*%
G36*
X158326Y215249D02*
X158326Y215249D01*
X158163Y215494D01*
X158627Y215957D01*
X159205Y216150D01*
X159863Y216056D01*
X160041Y215522D01*
X159586Y215249D01*
X158326Y215249D01*
G37*
%LPD*%
%LPC*%
G36*
X121648Y215212D02*
X121648Y215212D01*
X121646Y215214D01*
X121647Y215216D01*
X121556Y215487D01*
X122027Y215957D01*
X122604Y216149D01*
X123167Y216056D01*
X123436Y215519D01*
X122986Y215249D01*
X121700Y215249D01*
X121653Y215213D01*
X121658Y215206D01*
X121654Y215203D01*
X121658Y215198D01*
X121653Y215193D01*
X121648Y215212D01*
G37*
%LPD*%
%LPC*%
G36*
X56011Y93398D02*
X56011Y93398D01*
X56013Y93401D01*
X56015Y93395D01*
X56011Y93398D01*
G37*
%LPD*%
D10*
X4800Y142000D02*
X4800Y112000D01*
X30800Y157000D02*
X47300Y157000D01*
X47300Y104500D02*
X47300Y97000D01*
X30800Y97000D01*
X47300Y149500D02*
X47300Y157000D01*
X52784Y152000D02*
X52786Y152063D01*
X52792Y152126D01*
X52802Y152189D01*
X52815Y152250D01*
X52833Y152311D01*
X52854Y152370D01*
X52879Y152429D01*
X52907Y152485D01*
X52939Y152540D01*
X52974Y152592D01*
X53013Y152642D01*
X53054Y152690D01*
X53099Y152735D01*
X53146Y152777D01*
X53195Y152816D01*
X53247Y152852D01*
X53301Y152885D01*
X53357Y152914D01*
X53415Y152940D01*
X53474Y152962D01*
X53534Y152981D01*
X53596Y152995D01*
X53658Y153006D01*
X53721Y153013D01*
X53784Y153016D01*
X53847Y153015D01*
X53910Y153010D01*
X53973Y153001D01*
X54035Y152988D01*
X54096Y152972D01*
X54156Y152952D01*
X54214Y152928D01*
X54271Y152900D01*
X54326Y152869D01*
X54379Y152835D01*
X54430Y152797D01*
X54478Y152756D01*
X54524Y152713D01*
X54567Y152666D01*
X54607Y152617D01*
X54644Y152566D01*
X54677Y152513D01*
X54707Y152457D01*
X54734Y152400D01*
X54757Y152341D01*
X54776Y152281D01*
X54792Y152219D01*
X54804Y152157D01*
X54812Y152095D01*
X54816Y152032D01*
X54816Y151968D01*
X54812Y151905D01*
X54804Y151843D01*
X54792Y151781D01*
X54776Y151719D01*
X54757Y151659D01*
X54734Y151600D01*
X54707Y151543D01*
X54677Y151487D01*
X54644Y151434D01*
X54607Y151383D01*
X54567Y151334D01*
X54524Y151287D01*
X54478Y151244D01*
X54430Y151203D01*
X54379Y151165D01*
X54326Y151131D01*
X54271Y151100D01*
X54214Y151072D01*
X54156Y151048D01*
X54096Y151028D01*
X54035Y151012D01*
X53973Y150999D01*
X53910Y150990D01*
X53847Y150985D01*
X53784Y150984D01*
X53721Y150987D01*
X53658Y150994D01*
X53596Y151005D01*
X53534Y151019D01*
X53474Y151038D01*
X53415Y151060D01*
X53357Y151086D01*
X53301Y151115D01*
X53247Y151148D01*
X53195Y151184D01*
X53146Y151223D01*
X53099Y151265D01*
X53054Y151310D01*
X53013Y151358D01*
X52974Y151408D01*
X52939Y151460D01*
X52907Y151515D01*
X52879Y151571D01*
X52854Y151630D01*
X52833Y151689D01*
X52815Y151750D01*
X52802Y151811D01*
X52792Y151874D01*
X52786Y151937D01*
X52784Y152000D01*
X249200Y142000D02*
X249200Y112000D01*
X223200Y97000D02*
X206700Y97000D01*
X206700Y149500D02*
X206700Y157000D01*
X223200Y157000D01*
X206700Y104500D02*
X206700Y97000D01*
X199184Y102000D02*
X199186Y102063D01*
X199192Y102126D01*
X199202Y102189D01*
X199215Y102250D01*
X199233Y102311D01*
X199254Y102370D01*
X199279Y102429D01*
X199307Y102485D01*
X199339Y102540D01*
X199374Y102592D01*
X199413Y102642D01*
X199454Y102690D01*
X199499Y102735D01*
X199546Y102777D01*
X199595Y102816D01*
X199647Y102852D01*
X199701Y102885D01*
X199757Y102914D01*
X199815Y102940D01*
X199874Y102962D01*
X199934Y102981D01*
X199996Y102995D01*
X200058Y103006D01*
X200121Y103013D01*
X200184Y103016D01*
X200247Y103015D01*
X200310Y103010D01*
X200373Y103001D01*
X200435Y102988D01*
X200496Y102972D01*
X200556Y102952D01*
X200614Y102928D01*
X200671Y102900D01*
X200726Y102869D01*
X200779Y102835D01*
X200830Y102797D01*
X200878Y102756D01*
X200924Y102713D01*
X200967Y102666D01*
X201007Y102617D01*
X201044Y102566D01*
X201077Y102513D01*
X201107Y102457D01*
X201134Y102400D01*
X201157Y102341D01*
X201176Y102281D01*
X201192Y102219D01*
X201204Y102157D01*
X201212Y102095D01*
X201216Y102032D01*
X201216Y101968D01*
X201212Y101905D01*
X201204Y101843D01*
X201192Y101781D01*
X201176Y101719D01*
X201157Y101659D01*
X201134Y101600D01*
X201107Y101543D01*
X201077Y101487D01*
X201044Y101434D01*
X201007Y101383D01*
X200967Y101334D01*
X200924Y101287D01*
X200878Y101244D01*
X200830Y101203D01*
X200779Y101165D01*
X200726Y101131D01*
X200671Y101100D01*
X200614Y101072D01*
X200556Y101048D01*
X200496Y101028D01*
X200435Y101012D01*
X200373Y100999D01*
X200310Y100990D01*
X200247Y100985D01*
X200184Y100984D01*
X200121Y100987D01*
X200058Y100994D01*
X199996Y101005D01*
X199934Y101019D01*
X199874Y101038D01*
X199815Y101060D01*
X199757Y101086D01*
X199701Y101115D01*
X199647Y101148D01*
X199595Y101184D01*
X199546Y101223D01*
X199499Y101265D01*
X199454Y101310D01*
X199413Y101358D01*
X199374Y101408D01*
X199339Y101460D01*
X199307Y101515D01*
X199279Y101571D01*
X199254Y101630D01*
X199233Y101689D01*
X199215Y101750D01*
X199202Y101811D01*
X199192Y101874D01*
X199186Y101937D01*
X199184Y102000D01*
D11*
X138938Y113792D02*
X118618Y113792D01*
X118618Y146812D02*
X138938Y146812D01*
D12*
X112268Y151892D02*
X112270Y151963D01*
X112276Y152034D01*
X112286Y152105D01*
X112300Y152175D01*
X112318Y152244D01*
X112339Y152311D01*
X112365Y152378D01*
X112394Y152443D01*
X112426Y152506D01*
X112463Y152568D01*
X112502Y152627D01*
X112545Y152684D01*
X112591Y152738D01*
X112640Y152790D01*
X112692Y152839D01*
X112746Y152885D01*
X112803Y152928D01*
X112862Y152967D01*
X112924Y153004D01*
X112987Y153036D01*
X113052Y153065D01*
X113119Y153091D01*
X113186Y153112D01*
X113255Y153130D01*
X113325Y153144D01*
X113396Y153154D01*
X113467Y153160D01*
X113538Y153162D01*
X113609Y153160D01*
X113680Y153154D01*
X113751Y153144D01*
X113821Y153130D01*
X113890Y153112D01*
X113957Y153091D01*
X114024Y153065D01*
X114089Y153036D01*
X114152Y153004D01*
X114214Y152967D01*
X114273Y152928D01*
X114330Y152885D01*
X114384Y152839D01*
X114436Y152790D01*
X114485Y152738D01*
X114531Y152684D01*
X114574Y152627D01*
X114613Y152568D01*
X114650Y152506D01*
X114682Y152443D01*
X114711Y152378D01*
X114737Y152311D01*
X114758Y152244D01*
X114776Y152175D01*
X114790Y152105D01*
X114800Y152034D01*
X114806Y151963D01*
X114808Y151892D01*
X114806Y151821D01*
X114800Y151750D01*
X114790Y151679D01*
X114776Y151609D01*
X114758Y151540D01*
X114737Y151473D01*
X114711Y151406D01*
X114682Y151341D01*
X114650Y151278D01*
X114613Y151216D01*
X114574Y151157D01*
X114531Y151100D01*
X114485Y151046D01*
X114436Y150994D01*
X114384Y150945D01*
X114330Y150899D01*
X114273Y150856D01*
X114214Y150817D01*
X114152Y150780D01*
X114089Y150748D01*
X114024Y150719D01*
X113957Y150693D01*
X113890Y150672D01*
X113821Y150654D01*
X113751Y150640D01*
X113680Y150630D01*
X113609Y150624D01*
X113538Y150622D01*
X113467Y150624D01*
X113396Y150630D01*
X113325Y150640D01*
X113255Y150654D01*
X113186Y150672D01*
X113119Y150693D01*
X113052Y150719D01*
X112987Y150748D01*
X112924Y150780D01*
X112862Y150817D01*
X112803Y150856D01*
X112746Y150899D01*
X112692Y150945D01*
X112640Y150994D01*
X112591Y151046D01*
X112545Y151100D01*
X112502Y151157D01*
X112463Y151216D01*
X112426Y151278D01*
X112394Y151341D01*
X112365Y151406D01*
X112339Y151473D01*
X112318Y151540D01*
X112300Y151609D01*
X112286Y151679D01*
X112276Y151750D01*
X112270Y151821D01*
X112268Y151892D01*
D10*
X96550Y118730D02*
X90550Y118730D01*
X96550Y118730D02*
X96550Y126730D01*
X74550Y118730D02*
X68550Y118730D01*
X68550Y126730D01*
X9525Y185738D02*
X9525Y195263D01*
D13*
X68150Y76200D02*
X68152Y76398D01*
X68160Y76595D01*
X68172Y76792D01*
X68189Y76989D01*
X68211Y77185D01*
X68237Y77381D01*
X68269Y77576D01*
X68305Y77770D01*
X68346Y77964D01*
X68391Y78156D01*
X68442Y78347D01*
X68497Y78537D01*
X68556Y78725D01*
X68621Y78912D01*
X68689Y79097D01*
X68763Y79281D01*
X68841Y79462D01*
X68923Y79642D01*
X69010Y79819D01*
X69101Y79995D01*
X69196Y80168D01*
X69295Y80339D01*
X69399Y80507D01*
X69507Y80672D01*
X69618Y80835D01*
X69734Y80995D01*
X69854Y81153D01*
X69977Y81307D01*
X70104Y81458D01*
X70235Y81606D01*
X70370Y81751D01*
X70508Y81892D01*
X70649Y82030D01*
X70794Y82165D01*
X70942Y82296D01*
X71093Y82423D01*
X71247Y82546D01*
X71405Y82666D01*
X71565Y82782D01*
X71728Y82893D01*
X71893Y83001D01*
X72061Y83105D01*
X72232Y83204D01*
X72405Y83299D01*
X72581Y83390D01*
X72758Y83477D01*
X72938Y83559D01*
X73119Y83637D01*
X73303Y83711D01*
X73488Y83779D01*
X73675Y83844D01*
X73863Y83903D01*
X74053Y83958D01*
X74244Y84009D01*
X74436Y84054D01*
X74630Y84095D01*
X74824Y84131D01*
X75019Y84163D01*
X75215Y84189D01*
X75411Y84211D01*
X75608Y84228D01*
X75805Y84240D01*
X76002Y84248D01*
X76200Y84250D01*
X76398Y84248D01*
X76595Y84240D01*
X76792Y84228D01*
X76989Y84211D01*
X77185Y84189D01*
X77381Y84163D01*
X77576Y84131D01*
X77770Y84095D01*
X77964Y84054D01*
X78156Y84009D01*
X78347Y83958D01*
X78537Y83903D01*
X78725Y83844D01*
X78912Y83779D01*
X79097Y83711D01*
X79281Y83637D01*
X79462Y83559D01*
X79642Y83477D01*
X79819Y83390D01*
X79995Y83299D01*
X80168Y83204D01*
X80339Y83105D01*
X80507Y83001D01*
X80672Y82893D01*
X80835Y82782D01*
X80995Y82666D01*
X81153Y82546D01*
X81307Y82423D01*
X81458Y82296D01*
X81606Y82165D01*
X81751Y82030D01*
X81892Y81892D01*
X82030Y81751D01*
X82165Y81606D01*
X82296Y81458D01*
X82423Y81307D01*
X82546Y81153D01*
X82666Y80995D01*
X82782Y80835D01*
X82893Y80672D01*
X83001Y80507D01*
X83105Y80339D01*
X83204Y80168D01*
X83299Y79995D01*
X83390Y79819D01*
X83477Y79642D01*
X83559Y79462D01*
X83637Y79281D01*
X83711Y79097D01*
X83779Y78912D01*
X83844Y78725D01*
X83903Y78537D01*
X83958Y78347D01*
X84009Y78156D01*
X84054Y77964D01*
X84095Y77770D01*
X84131Y77576D01*
X84163Y77381D01*
X84189Y77185D01*
X84211Y76989D01*
X84228Y76792D01*
X84240Y76595D01*
X84248Y76398D01*
X84250Y76200D01*
X84248Y76002D01*
X84240Y75805D01*
X84228Y75608D01*
X84211Y75411D01*
X84189Y75215D01*
X84163Y75019D01*
X84131Y74824D01*
X84095Y74630D01*
X84054Y74436D01*
X84009Y74244D01*
X83958Y74053D01*
X83903Y73863D01*
X83844Y73675D01*
X83779Y73488D01*
X83711Y73303D01*
X83637Y73119D01*
X83559Y72938D01*
X83477Y72758D01*
X83390Y72581D01*
X83299Y72405D01*
X83204Y72232D01*
X83105Y72061D01*
X83001Y71893D01*
X82893Y71728D01*
X82782Y71565D01*
X82666Y71405D01*
X82546Y71247D01*
X82423Y71093D01*
X82296Y70942D01*
X82165Y70794D01*
X82030Y70649D01*
X81892Y70508D01*
X81751Y70370D01*
X81606Y70235D01*
X81458Y70104D01*
X81307Y69977D01*
X81153Y69854D01*
X80995Y69734D01*
X80835Y69618D01*
X80672Y69507D01*
X80507Y69399D01*
X80339Y69295D01*
X80168Y69196D01*
X79995Y69101D01*
X79819Y69010D01*
X79642Y68923D01*
X79462Y68841D01*
X79281Y68763D01*
X79097Y68689D01*
X78912Y68621D01*
X78725Y68556D01*
X78537Y68497D01*
X78347Y68442D01*
X78156Y68391D01*
X77964Y68346D01*
X77770Y68305D01*
X77576Y68269D01*
X77381Y68237D01*
X77185Y68211D01*
X76989Y68189D01*
X76792Y68172D01*
X76595Y68160D01*
X76398Y68152D01*
X76200Y68150D01*
X76002Y68152D01*
X75805Y68160D01*
X75608Y68172D01*
X75411Y68189D01*
X75215Y68211D01*
X75019Y68237D01*
X74824Y68269D01*
X74630Y68305D01*
X74436Y68346D01*
X74244Y68391D01*
X74053Y68442D01*
X73863Y68497D01*
X73675Y68556D01*
X73488Y68621D01*
X73303Y68689D01*
X73119Y68763D01*
X72938Y68841D01*
X72758Y68923D01*
X72581Y69010D01*
X72405Y69101D01*
X72232Y69196D01*
X72061Y69295D01*
X71893Y69399D01*
X71728Y69507D01*
X71565Y69618D01*
X71405Y69734D01*
X71247Y69854D01*
X71093Y69977D01*
X70942Y70104D01*
X70794Y70235D01*
X70649Y70370D01*
X70508Y70508D01*
X70370Y70649D01*
X70235Y70794D01*
X70104Y70942D01*
X69977Y71093D01*
X69854Y71247D01*
X69734Y71405D01*
X69618Y71565D01*
X69507Y71728D01*
X69399Y71893D01*
X69295Y72061D01*
X69196Y72232D01*
X69101Y72405D01*
X69010Y72581D01*
X68923Y72758D01*
X68841Y72938D01*
X68763Y73119D01*
X68689Y73303D01*
X68621Y73488D01*
X68556Y73675D01*
X68497Y73863D01*
X68442Y74053D01*
X68391Y74244D01*
X68346Y74436D01*
X68305Y74630D01*
X68269Y74824D01*
X68237Y75019D01*
X68211Y75215D01*
X68189Y75411D01*
X68172Y75608D01*
X68160Y75805D01*
X68152Y76002D01*
X68150Y76200D01*
D10*
X62820Y62200D02*
X89580Y62200D01*
X89580Y90200D02*
X62820Y90200D01*
X55200Y77500D02*
X55200Y74900D01*
X97200Y74900D02*
X97200Y77500D01*
M02*
